<?xml version="1.0" encoding="utf-8"?>
<!-- Generator: Adobe Illustrator 22.0.1, SVG Export Plug-In . SVG Version: 6.00 Build 0)  -->
<svg version="1.1" id="Layer_1" xmlns="http://www.w3.org/2000/svg" xmlns:xlink="http://www.w3.org/1999/xlink" x="0px" y="0px"
	 viewBox="0 0 24 24" style="enable-background:new 0 0 24 24;" xml:space="preserve">
<style type="text/css">
	.st0{fill:#585D63;}
	.st1{fill:none;}
</style>
<title>import</title>
<desc>Created with Sketch.</desc>
<g id="actions">
	<g id="import">
		
			<g id="export" transform="translate(12.000000, 12.000000) rotate(-180.000000) translate(-12.000000, -12.000000) translate(3.000000, 4.000000)">
			<path id="Combined-Shape" class="st0" d="M10,7.41421V15c0,0.55228-0.44771,1-1,1s-1-0.44772-1-1V7.41421L5.70711,9.70711
				c-0.39052,0.39052-1.02369,0.39052-1.41421,0c-0.39052-0.39052-0.39052-1.02369,0-1.41421l4-4
				c0.39052-0.39052,1.02369-0.39052,1.41421,0l4,4c0.39052,0.39052,0.39052,1.02369,0,1.41421
				c-0.39052,0.39052-1.02369,0.39052-1.41421,0L10,7.41421z M2,2.6001l0.01176,2.4H0v-3c0-1.1,1.0125-2,2.1375-2H15.75
				c1.2375,0,2.25,1,2.25,2v3h-2l-0.01176-2.4c0-0.4-0.20368-0.6-0.54118-0.6H2.5875C2.25,2.0001,2,2.3001,2,2.6001z"/>
		</g>
		<rect id="Rectangle-12" class="st1" width="24" height="24"/>
	</g>
</g>
<rect class="st1" width="24" height="24"/>
</svg>
