<?xml version="1.0" encoding="utf-8"?>
<!-- Generator: Adobe Illustrator 22.1.0, SVG Export Plug-In . SVG Version: 6.00 Build 0)  -->
<svg version="1.1" id="Layer_1" xmlns="http://www.w3.org/2000/svg" xmlns:xlink="http://www.w3.org/1999/xlink" x="0px" y="0px"
	 viewBox="0 0 24 24" style="enable-background:new 0 0 24 24;" xml:space="preserve">
<style type="text/css">
	.st0{fill:#FFFFFF;}
	.st1{fill:#585D63;}
</style>
<title>activity_template</title>
<g id="Layer_4">
	<rect x="11.7" y="12" class="st0" width="1" height="2"/>
	<rect x="11.7" y="10" class="st0" width="1" height="1"/>
	<path class="st1" d="M6.3,5.7C5.8,5.4,5.2,5.5,4.9,5.9l0,0l-4.6,5.5c-0.3,0.4-0.3,0.9,0,1.3l4.6,5.5c0.2,0.2,0.5,0.4,0.8,0.4
		c0.2,0,0.4-0.1,0.6-0.2c0.4-0.4,0.5-1,0.1-1.4l-4.1-5l4.1-4.9C6.7,6.7,6.7,6.1,6.3,5.7z"/>
	<path class="st1" d="M17.6,18.4c0.4,0.3,1.1,0.2,1.4-0.2l4.6-5.5c0.3-0.4,0.3-0.9,0-1.3L19,5.9c-0.2-0.2-0.5-0.4-0.8-0.4
		c-0.2,0-0.4,0.1-0.6,0.2c-0.4,0.4-0.5,1-0.1,1.4l4.1,5L17.5,17C17.2,17.4,17.2,18,17.6,18.4z"/>
	<path class="st1" d="M16.8,10.8L16.8,10.8c0.7,0,1.2,0.5,1.2,1.2v0c0,0.7-0.5,1.2-1.2,1.2h0c-0.7,0-1.2-0.5-1.2-1.2v0
		C15.6,11.3,16.1,10.8,16.8,10.8z"/>
	<path class="st1" d="M12,10.8L12,10.8c0.7,0,1.2,0.5,1.2,1.2v0c0,0.7-0.5,1.2-1.2,1.2h0c-0.7,0-1.2-0.5-1.2-1.2v0
		C10.8,11.3,11.3,10.8,12,10.8z"/>
	<path class="st1" d="M7.2,10.8L7.2,10.8c0.7,0,1.2,0.5,1.2,1.2v0c0,0.7-0.5,1.2-1.2,1.2l0,0C6.5,13.2,6,12.7,6,12v0
		C6,11.3,6.5,10.8,7.2,10.8z"/>
</g>
</svg>
