<?xml version="1.0" encoding="UTF-8"?><svg width="576" height="576" version="1.1" viewBox="0 0 576 576" xmlns="http://www.w3.org/2000/svg" xmlns:xlink="http://www.w3.org/1999/xlink"><!--Generated by IJSVG (https://github.com/curthard89/IJSVG)--><g transform="scale(24)"><g fill="none"><g fill="#6F6F6F"><use transform="translate(4, 4)" xlink:href="#path-1"></use><use transform="translate(4, 13)" xlink:href="#path-1"></use><path d="M0,0h7v7h-7Z" transform="translate(13, 4)"></path><path d="M3.2,3.2h-2.4v0c-0.4,0 -0.8,0.3 -0.8,0.8c0,0.5 0.3,0.8 0.8,0.8h2.4v2.4c0,0.4 0.3,0.8 0.8,0.8v0c0.4,0 0.8,-0.3 0.8,-0.8v-2.4h2.4c0.4,0 0.8,-0.3 0.8,-0.8c0,-0.5 -0.3,-0.8 -0.8,-0.8h-2.4v-2.4v0c0,-0.4 -0.3,-0.8 -0.8,-0.8c-0.5,0 -0.8,0.3 -0.8,0.8v0v2.4Z" transform="translate(12.6, 13)"></path><use fill="none" xlink:href="#path-2"></use></g><use xlink:href="#path-2"></use></g></g><defs><path id="path-2" d="M0,0h24v24h-24Z"></path><path id="path-1" d="M0,0h6.9v7h-6.9Z"></path></defs></svg>