<?xml version="1.0" encoding="UTF-8"?><svg width="576" height="576" version="1.1" viewBox="0 0 576 576" xmlns="http://www.w3.org/2000/svg" xmlns:xlink="http://www.w3.org/1999/xlink"><!--Generated by IJSVG (https://github.com/curthard89/IJSVG)--><g transform="scale(24)"><g fill="none"><g fill="#6F6F6F"><path d="M8,6v-5c0,-0.6 -0.4,-1 -1,-1c-0.6,0 -1,0.4 -1,1v5h-5c-0.6,0 -1,0.4 -1,1c0,0.6 0.4,1 1,1h5v5c0,0.6 0.4,1 1,1c0.6,0 1,-0.4 1,-1v-5h5c0.6,0 1,-0.4 1,-1c0,-0.6 -0.4,-1 -1,-1h-5Z" transform="translate(5, 5)"></path><use fill="none" xlink:href="#path-1"></use></g><use xlink:href="#path-1"></use></g></g><defs><path id="path-1" d="M0,0h24v24h-24Z"></path></defs></svg>