<?xml version="1.0" encoding="utf-8"?>
<!-- Generator: Adobe Illustrator 22.0.1, SVG Export Plug-In . SVG Version: 6.00 Build 0)  -->
<svg version="1.1" xmlns="http://www.w3.org/2000/svg" xmlns:xlink="http://www.w3.org/1999/xlink" x="0px" y="0px"
	 viewBox="0 0 43.9375 24" enable-background="new 0 0 43.9375 24" xml:space="preserve">
<g id="Layer_2" display="none">
	<g id="Layer_1" display="inline">
		<circle fill="none" stroke="#DBDBDB" stroke-width="0.1" stroke-miterlimit="10" cx="12.01047" cy="11.93344" r="5"/>
		<path fill="none" stroke="#DBDBDB" stroke-width="0.1" stroke-miterlimit="10" d="M17.99414,22.97273h-12c-1.1,0-2-0.9-2-2
			V2.97151c0-1.1,0.9-2,2-2h12c1.1,0,2,0.9,2,2v18.00122C19.99414,22.07273,19.09414,22.97273,17.99414,22.97273z"/>
		<path fill="none" stroke="#DBDBDB" stroke-width="0.1" stroke-miterlimit="10" d="M19.50977,21.48774H4.47852c-1.1,0-2-0.9-2-2
			V4.45649c0-1.1,0.9-2,2-2h15.03125c1.1,0,2,0.9,2,2v15.03125C21.50977,20.58774,20.60977,21.48774,19.50977,21.48774z"/>
		<path fill="none" stroke="#DBDBDB" stroke-width="0.1" stroke-miterlimit="10" d="M0.99353,17.97212v-12c0-1.1,0.9-2,2-2h18.00122
			c1.1,0,2,0.9,2,2v12c0,1.1-0.9,2-2,2H2.99353C1.89353,19.97212,0.99353,19.07212,0.99353,17.97212z"/>
	</g>
	<g id="lines" display="inline">
		
			<line fill="none" stroke="#DBDBDB" stroke-width="0.1" stroke-miterlimit="10" x1="15.52083" y1="-0.02788" x2="15.52083" y2="24"/>
		
			<line fill="none" stroke="#DBDBDB" stroke-width="0.1" stroke-miterlimit="10" x1="11.97917" y1="-0.02788" x2="11.97917" y2="24"/>
		<line fill="none" stroke="#DBDBDB" stroke-width="0.1" stroke-miterlimit="10" x1="8.47917" y1="-0.02788" x2="8.47917" y2="24"/>
		
			<line fill="none" stroke="#DBDBDB" stroke-width="0.1" stroke-miterlimit="10" x1="0.00548" y1="8.447" x2="24.00548" y2="8.447"/>
		
			<line fill="none" stroke="#DBDBDB" stroke-width="0.1" stroke-miterlimit="10" x1="0.00548" y1="11.98866" x2="24.00548" y2="11.98866"/>
		
			<line fill="none" stroke="#DBDBDB" stroke-width="0.1" stroke-miterlimit="10" x1="0.00548" y1="15.48866" x2="24.00548" y2="15.48866"/>
		
			<line fill="none" stroke="#DBDBDB" stroke-width="0.1" stroke-miterlimit="10" x1="-0.00586" y1="-0.02788" x2="23.99414" y2="23.97212"/>
		
			<line fill="none" stroke="#DBDBDB" stroke-width="0.1" stroke-miterlimit="10" x1="23.99414" y1="-0.02788" x2="-0.00586" y2="23.97212"/>
	</g>
</g>
<g id="Layer_4">
	<g>
		<polygon fill="#585D63" points="33,11 33,5 31,5 31,11 25,11 25,13 31,13 31,19 33,19 33,13 39,13 39,11 		"/>
		<rect x="11" y="3" fill="#585D63" width="4" height="15"/>
		<rect x="17" y="10" fill="#585D63" width="4" height="8"/>
		<rect x="4" y="19" fill="#585D63" width="18" height="2"/>
		<rect x="5" y="7" fill="#585D63" width="4" height="11"/>
	</g>
</g>
</svg>
