<?xml version="1.0" encoding="UTF-8"?><svg width="576" height="576" version="1.1" viewBox="0 0 576 576" xmlns="http://www.w3.org/2000/svg" xmlns:xlink="http://www.w3.org/1999/xlink"><!--Generated by IJSVG (https://github.com/curthard89/IJSVG)--><g transform="scale(24)"><g fill="#FFFFFF" fill-rule="evenodd" stroke="none" stroke-width="1"><g transform="translate(3, 3)"><g fill="#4995C9" fill-rule="evenodd" stroke="none" stroke-width="1"><path mask="url(#mask-1)" d="M16.134,18h-14.268c-1.026,0 -1.866,-0.84 -1.866,-1.866v-14.268c0,-1.026 0.84,-1.866 1.866,-1.866h14.268c1.026,0 1.866,0.84 1.866,1.866v14.268c0,1.026 -0.84,1.866 -1.866,1.866" transform="translate(-0.0002, 0)"></path></g></g><path d="M5.07568,6.53662h-2.8252l-0.537109,1.61133h-1.71338l2.91113,-7.82031h1.49316l2.92725,7.82031h-1.71338l-0.54248,-1.61133Zm-2.39014,-1.30518h1.95508l-0.98291,-2.92725l-0.972168,2.92725Zm7.396,-2.92725v6.12842c0,0.640954 -0.170083,1.13957 -0.510254,1.49585c-0.340171,0.356284 -0.830726,0.534424 -1.47168,0.534424c-0.268556,0 -0.524576,-0.0304359 -0.768066,-0.0913086v-1.22998c0.186199,0.0322268 0.34912,0.0483399 0.48877,0.0483399c0.469078,0 0.703613,-0.248858 0.703613,-0.746582v-6.13916h1.55762Zm-1.68115,-1.50391c0,-0.232749 0.0778801,-0.424316 0.233643,-0.574707c0.155763,-0.150391 0.367919,-0.225586 0.636475,-0.225586c0.268556,0 0.480712,0.0751946 0.636475,0.225586c0.155762,0.150391 0.233643,0.341958 0.233643,0.574707c0,0.236329 -0.0796704,0.429687 -0.239014,0.580078c-0.159343,0.150391 -0.369709,0.225586 -0.631103,0.225586c-0.261395,0 -0.47176,-0.0751946 -0.631104,-0.225586c-0.159343,-0.150391 -0.239014,-0.343749 -0.239014,-0.580078Z" transform="translate(6.92969, 7.76282)"></path></g></g><defs><mask id="mask-1" maskContentUnits="userSpaceOnUse" maskUnits="objectBoundingBox"><g fill="#FFFFFF" transform="translate(0.0002, 0)"><path d="M8.9999,0h-8.9999v18h8.9999h8.9999v-18Z"></path></g></mask></defs></svg>