<?xml version="1.0" encoding="utf-8"?>
<!-- Generator: Adobe Illustrator 22.0.1, SVG Export Plug-In . SVG Version: 6.00 Build 0)  -->
<svg version="1.1" id="Layer_1" xmlns="http://www.w3.org/2000/svg" xmlns:xlink="http://www.w3.org/1999/xlink" x="0px" y="0px"
	 viewBox="0 0 24 24" style="enable-background:new 0 0 24 24;" xml:space="preserve">
<style type="text/css">
	.st0{fill:none;}
	.st1{fill:#585D63;}
</style>
<title>alert and respond</title>
<desc>Created with Sketch.</desc>
<g id="places">
	<g id="alert-and-respond">
		<rect id="Rectangle-12" x="0.97917" y="0.97917" class="st0" width="21.58247" height="21.58247"/>
		<g id="Page-1" transform="translate(3.000000, 1.000000)">
			<g>
				<path class="st1" d="M17.54382,12.52649c-0.13922-0.58466-0.51886-1.08539-1.04858-1.37988l-0.97034-0.54053l-0.66132-2.78021
					c-0.68097-2.86505-3.28284-4.87683-6.38623-5.02405c0.05005-0.22461,0.05658-0.4621,0.0011-0.70068l-0.099-0.42236
					c-0.17413-0.74359-0.85095-1.25-1.59302-1.25c-0.12018,0-0.24207,0.01331-0.36383,0.04102l-1.19,0.27191
					C4.35803,0.94159,3.80762,1.81207,4.00995,2.67609l0.099,0.4234c0.05872,0.24829,0.17834,0.46643,0.33282,0.65234
					c-2.69873,1.50128-4.10956,4.4201-3.42645,7.28949l0.66138,2.78015l-0.62543,0.91132
					c-0.34052,0.49646-0.45581,1.11224-0.31659,1.6969l0.15991,0.67383c0.23608,0.99084,1.12909,1.6582,2.11682,1.6582
					c0.15228,0,0.3067-0.01611,0.46118-0.04944C3.90881,20.13513,5.33374,21.112,7.01105,21.112
					c0.33832,0,0.67767-0.03979,1.01166-0.11713c2.05908-0.47717,3.36005-2.23102,3.04352-4.04614l5.01892-1.16492
					c1.16931-0.27081,1.89484-1.42822,1.61963-2.5835L17.54382,12.52649z M7.61566,19.25946
					c-0.2146,0.05273-0.42633,0.07892-0.62878,0.07892c-0.76672,0-1.40295-0.37488-1.58148-1.10095l3.7027-0.86316
					C9.33374,18.29211,8.64294,19.0069,7.61566,19.25946z M3.01245,16.61237l-0.15991-0.67383l1.16064-1.69043l-0.87994-3.69904
					c-0.4917-2.06439,0.66895-4.15784,2.68457-5.10895L8.039,4.92432c0.02826,0,0.05658,0,0.08484,0
					c2.19836,0,4.13672,1.35406,4.62079,3.3927l0.8811,3.69897l1.80133,1.00269l0.15985,0.67273L3.01245,16.61237z"/>
			</g>
		</g>
	</g>
</g>
</svg>
