<?xml version="1.0" encoding="UTF-8"?><svg width="576" height="576" version="1.1" viewBox="0 0 576 576" xmlns="http://www.w3.org/2000/svg" xmlns:xlink="http://www.w3.org/1999/xlink"><!--Generated by IJSVG (https://github.com/curthard89/IJSVG)--><g transform="scale(24)"><g fill="none"><path d="M0,0h21.5825v21.5825h-21.5825Z" transform="translate(0.97917, 0.97917)"></path><g transform="translate(3, 1)"><g fill="#6F6F6F"><path d="M17.2116,12.0977c-0.13922,-0.58466 -0.51886,-1.08539 -1.04858,-1.37988l-0.97034,-0.54053l-0.66132,-2.78021c-0.68097,-2.86505 -3.28284,-4.87683 -6.38623,-5.02405c0.05005,-0.22461 0.05658,-0.4621 0.0011,-0.70068l-0.099,-0.42236c-0.17413,-0.74359 -0.85095,-1.25 -1.59302,-1.25c-0.12018,0 -0.24207,0.01331 -0.36383,0.04102l-1.19,0.27191c-0.87457,0.19988 -1.42498,1.07036 -1.22265,1.93438l0.099,0.4234c0.05872,0.24829 0.17834,0.46643 0.33282,0.65234c-2.69873,1.50128 -4.10956,4.4201 -3.42645,7.28949l0.66138,2.78015l-0.62543,0.91132c-0.34052,0.49646 -0.45581,1.11224 -0.31659,1.6969l0.15991,0.67383c0.23608,0.99084 1.12909,1.6582 2.11682,1.6582c0.15228,0 0.3067,-0.01611 0.46118,-0.04944c0.43622,1.42285 1.86115,2.39972 3.53846,2.39972c0.33832,0 0.67767,-0.03979 1.01166,-0.11713c2.05908,-0.47717 3.36005,-2.23102 3.04352,-4.04614l5.01892,-1.16492c1.16931,-0.27081 1.89484,-1.42822 1.61963,-2.5835l-0.16096,-0.67382Zm-9.92816,6.73297c-0.2146,0.05273 -0.42633,0.07892 -0.62878,0.07892c-0.76672,0 -1.40295,-0.37488 -1.58148,-1.10095l3.7027,-0.86316c0.22564,0.91784 -0.46516,1.63263 -1.49244,1.88519Zm-4.60321,-2.64709l-0.15991,-0.67383l1.16064,-1.69043l-0.87994,-3.69904c-0.4917,-2.06439 0.66895,-4.15784 2.68457,-5.10895l2.22119,-0.5158c0.02826,0 0.05658,0 0.08484,0c2.19836,0 4.13672,1.35406 4.62079,3.3927l0.8811,3.69897l1.80133,1.00269l0.15985,0.67273l-12.5745,2.92096Z" transform="translate(0.33221, 0.42878)"></path></g></g></g></g></svg>