<?xml version="1.0" encoding="UTF-8"?><svg width="576" height="576" version="1.1" viewBox="0 0 576 576" xmlns="http://www.w3.org/2000/svg" xmlns:xlink="http://www.w3.org/1999/xlink"><!--Generated by IJSVG (https://github.com/curthard89/IJSVG)--><g transform="scale(24)"><g fill="none"><g fill="none"><g transform="translate(3, 1)"><g fill="#6F6F6F"><path d="M5.1,16.4l1.3,1.3c0.4,0.4 1,0.4 1.4,0c0.4,-0.4 0.4,-1 0,-1.4l-3,-3c-0.4,-0.4 -1,-0.4 -1.4,0l-3,3c-0.4,0.4 -0.4,1 0,1.4c0.4,0.4 1,0.4 1.4,0l1.3,-1.3v4.6c0,0.6 0.4,1 1,1c0.6,0 1,-0.4 1,-1v-4.6Zm-2,-10.8l-1.3,-1.3c-0.4,-0.4 -1,-0.4 -1.4,0c-0.4,0.4 -0.4,1 0,1.4l3,3c0.4,0.4 1,0.4 1.4,0l3,-3c0.4,-0.4 0.4,-1 0,-1.4c-0.4,-0.4 -1,-0.4 -1.4,0l-1.3,1.3v-4.6c0,-0.6 -0.4,-1 -1,-1c-0.6,0 -1,0.4 -1,1v4.6Z" transform="translate(4.9, 0)"></path><path d="M0,2h18v-2h-18Z" transform="translate(0, 10)"></path></g></g><use xlink:href="#path-1"></use></g><use xlink:href="#path-1"></use></g></g><defs><path id="path-1" d="M0,0h24v24h-24Z"></path></defs></svg>