<?xml version="1.0" encoding="utf-8"?>
<!-- Generator: Adobe Illustrator 22.0.1, SVG Export Plug-In . SVG Version: 6.00 Build 0)  -->
<svg version="1.1" id="Layer_1" xmlns="http://www.w3.org/2000/svg" xmlns:xlink="http://www.w3.org/1999/xlink" x="0px" y="0px"
	 viewBox="0 0 34 24" style="enable-background:new 0 0 34 24;" xml:space="preserve">
<style type="text/css">
	.st0{fill:#585D63;}
	.st1{fill:none;}
</style>
<g>
	<polygon class="st0" points="22.04156,11.08344 26.02069,15.0625 30,11.08344 	"/>
	<path class="st0" d="M10.70001,14.29999c-0.40002-0.40002-1-0.40002-1.40002,0l-3,3c-0.39996,0.40002-0.39996,1,0,1.40002
		c0.40002,0.39996,1,0.39996,1.40002,0L9,17.39996V22c0,0.59998,0.40002,1,1,1s1-0.40002,1-1v-4.60004l1.29999,1.30005
		c0.40002,0.39996,1,0.39996,1.40002,0c0.39996-0.40002,0.39996-1,0-1.40002L10.70001,14.29999z"/>
	<path class="st0" d="M9.29999,9.70001c0.40002,0.39996,1,0.39996,1.40002,0l3-3c0.39996-0.40002,0.39996-1,0-1.40002
		c-0.40002-0.40002-1-0.40002-1.40002,0L11,6.59998V2c0-0.60004-0.40002-1-1-1S9,1.39996,9,2v4.59998L7.70001,5.29999
		c-0.40002-0.40002-1-0.40002-1.40002,0c-0.39996,0.40002-0.39996,1,0,1.40002L9.29999,9.70001z"/>
	<rect x="1" y="11" class="st0" width="18" height="2"/>
</g>
<rect class="st1" width="34" height="24"/>
</svg>
