<?xml version="1.0" encoding="UTF-8"?><svg width="576" height="576" version="1.1" viewBox="0 0 576 576" xmlns="http://www.w3.org/2000/svg" xmlns:xlink="http://www.w3.org/1999/xlink"><!--Generated by IJSVG (https://github.com/curthard89/IJSVG)--><g transform="scale(24)"><g transform="translate(1.04712, 2.5)"><g fill="#6F6F6F"><path d="M18.2656,17.7876h-11.8135c-3.55762,0 -6.45215,-3.10449 -6.45215,-6.91992c0,-3.34277 2.20166,-6.16406 5.20508,-6.7876c1.40918,-2.53027 3.93213,-4.08008 6.69922,-4.08008c3.5,0 6.55469,2.51465 7.50488,6.07471c2.51953,0.56738 4.39941,2.96631 4.39941,5.7793c1e-05,3.27148 -2.48632,5.93359 -5.54296,5.93359Zm-6.36133,-15.7876c-2.15967,0 -4.12939,1.31006 -5.1416,3.41895l-0.23828,0.49756l-0.54834,0.06299c-2.2666,0.26221 -3.97607,2.36328 -3.97607,4.88818c0,2.71289 1.99707,4.91992 4.45215,4.91992h11.8135c1.95312,0 3.54297,-1.76465 3.54297,-3.93359c0,-2.0459 -1.4502,-3.75781 -3.30078,-3.89697l-0.77051,-0.05762l-0.13867,-0.76123c-0.53907,-2.97705 -2.93458,-5.13819 -5.69435,-5.13819Z" transform="translate(-1.00025, -0.24854)"></path></g></g><g fill="#6F6F6F"><path d="M2.1,1.54h1.218c0,-0.53667 -0.12717,-0.9275 -0.3815,-1.1725c-0.25433,-0.245 -0.66616,-0.3675 -1.2355,-0.3675c-0.55067,0 -0.96133,0.133 -1.232,0.399c-0.27067,0.266 -0.406,0.65333 -0.406,1.162c0,0.294 0.05017,0.532 0.1505,0.714c0.10033,0.182 0.22633,0.329 0.378,0.441c0.15167,0.112 0.31617,0.203 0.4935,0.273c0.17733,0.07 0.34183,0.13883 0.4935,0.2065c0.15167,0.06767 0.27767,0.14933 0.378,0.245c0.10033,0.09567 0.1505,0.22517 0.1505,0.3885c0,0.13533 -0.03617,0.24967 -0.1085,0.343c-0.07233,0.09333 -0.17617,0.14 -0.3115,0.14c-0.126,0 -0.22867,-0.04317 -0.308,-0.1295c-0.07933,-0.08633 -0.119,-0.23683 -0.119,-0.4515v-0.119h-1.26v0.175c0,0.26133 0.03733,0.48067 0.112,0.658c0.07467,0.17733 0.18317,0.32083 0.3255,0.4305c0.14233,0.10967 0.31733,0.18667 0.525,0.231c0.20767,0.04433 0.44683,0.0665 0.7175,0.0665c0.574,0 1.01266,-0.12016 1.316,-0.3605c0.30334,-0.24034 0.455,-0.6265 0.455,-1.1585c0,-0.30333 -0.0525,-0.5495 -0.1575,-0.7385c-0.105,-0.189 -0.23683,-0.34183 -0.3955,-0.4585c-0.15867,-0.11667 -0.329,-0.21117 -0.511,-0.2835c-0.182,-0.07233 -0.35233,-0.1435 -0.511,-0.2135c-0.15867,-0.07 -0.2905,-0.15283 -0.3955,-0.2485c-0.105,-0.09567 -0.1575,-0.22517 -0.1575,-0.3885c0,-0.112 0.03267,-0.2135 0.098,-0.3045c0.06533,-0.091 0.168,-0.1365 0.308,-0.1365c0.126,0 0.21933,0.0525 0.28,0.1575c0.06067,0.105 0.091,0.23217 0.091,0.3815v0.119Zm2.213,-1.442v4.998h1.218v-3.087h0.014l0.868,3.087h1.428v-4.998h-1.218v3.08h-0.014l-0.84,-3.08h-1.456Zm6.49,1.442h1.218c0,-0.53667 -0.12716,-0.9275 -0.3815,-1.1725c-0.25433,-0.245 -0.66616,-0.3675 -1.2355,-0.3675c-0.55067,0 -0.96133,0.133 -1.232,0.399c-0.27067,0.266 -0.406,0.65333 -0.406,1.162c0,0.294 0.05017,0.532 0.1505,0.714c0.10033,0.182 0.22633,0.329 0.378,0.441c0.15167,0.112 0.31617,0.203 0.4935,0.273c0.17733,0.07 0.34183,0.13883 0.4935,0.2065c0.15167,0.06767 0.27767,0.14933 0.378,0.245c0.10033,0.09567 0.1505,0.22517 0.1505,0.3885c0,0.13533 -0.03617,0.24967 -0.1085,0.343c-0.07233,0.09333 -0.17616,0.14 -0.3115,0.14c-0.126,0 -0.22867,-0.04317 -0.308,-0.1295c-0.07933,-0.08633 -0.119,-0.23683 -0.119,-0.4515v-0.119h-1.26v0.175c0,0.26133 0.03733,0.48067 0.112,0.658c0.07467,0.17733 0.18317,0.32083 0.3255,0.4305c0.14233,0.10967 0.31733,0.18667 0.525,0.231c0.20767,0.04433 0.44683,0.0665 0.7175,0.0665c0.574,0 1.01266,-0.12016 1.316,-0.3605c0.30333,-0.24033 0.455,-0.6265 0.455,-1.1585c0,-0.30333 -0.0525,-0.5495 -0.1575,-0.7385c-0.105,-0.189 -0.23683,-0.34183 -0.3955,-0.4585c-0.15867,-0.11667 -0.329,-0.21117 -0.511,-0.2835c-0.182,-0.07233 -0.35233,-0.1435 -0.511,-0.2135c-0.15867,-0.07 -0.2905,-0.15283 -0.3955,-0.2485c-0.105,-0.09567 -0.1575,-0.22517 -0.1575,-0.3885c0,-0.112 0.03267,-0.2135 0.098,-0.3045c0.06533,-0.091 0.168,-0.1365 0.308,-0.1365c0.126,0 0.21933,0.0525 0.28,0.1575c0.06067,0.105 0.091,0.23217 0.091,0.3815v0.119Z" transform="translate(5.77012, 10.9123)"></path></g><path fill="none" d="M0,0h24v24h-24Z"></path></g></svg>