<?xml version="1.0" encoding="UTF-8"?><svg width="576" height="576" version="1.1" viewBox="0 0 576 576" xmlns="http://www.w3.org/2000/svg" xmlns:xlink="http://www.w3.org/1999/xlink"><!--Generated by IJSVG (https://github.com/curthard89/IJSVG)--><g transform="scale(24)"><g transform="translate(1.09546, 2.5)"><g fill="#6F6F6F"><path d="M18.2651,17.7876h-11.813c-3.55762,0 -6.45215,-3.10449 -6.45215,-6.91992c0,-3.34277 2.20166,-6.16406 5.20508,-6.7876c1.40918,-2.53027 3.93213,-4.08008 6.69922,-4.08008c3.49951,0 6.5542,2.51465 7.50537,6.07471c2.51953,0.56738 4.39941,2.96631 4.39941,5.7793c1e-05,3.27148 -2.4873,5.93359 -5.54394,5.93359Zm-6.36084,-15.7876c-2.15967,0 -4.12939,1.31006 -5.1416,3.41895l-0.23828,0.49756l-0.54834,0.06299c-2.2666,0.26221 -3.97607,2.36328 -3.97607,4.88818c0,2.71289 1.99707,4.91992 4.45215,4.91992h11.813c1.9541,0 3.54395,-1.76465 3.54395,-3.93359c0,-2.0459 -1.4502,-3.75781 -3.30078,-3.89697l-0.77051,-0.05762l-0.13867,-0.76074c-0.54005,-2.97754 -2.93556,-5.13868 -5.69484,-5.13868Z" transform="translate(-1.00025, -0.24854)"></path></g></g><g fill="#6F6F6F"><path d="M2.1,1.54h1.218c0,-0.53667 -0.12717,-0.9275 -0.3815,-1.1725c-0.25433,-0.245 -0.66616,-0.3675 -1.2355,-0.3675c-0.55067,0 -0.96133,0.133 -1.232,0.399c-0.27067,0.266 -0.406,0.65333 -0.406,1.162c0,0.294 0.05017,0.532 0.1505,0.714c0.10033,0.182 0.22633,0.329 0.378,0.441c0.15167,0.112 0.31617,0.203 0.4935,0.273c0.17733,0.07 0.34183,0.13883 0.4935,0.2065c0.15167,0.06767 0.27767,0.14933 0.378,0.245c0.10033,0.09567 0.1505,0.22517 0.1505,0.3885c0,0.13533 -0.03617,0.24967 -0.1085,0.343c-0.07233,0.09333 -0.17617,0.14 -0.3115,0.14c-0.126,0 -0.22867,-0.04317 -0.308,-0.1295c-0.07933,-0.08633 -0.119,-0.23683 -0.119,-0.4515v-0.119h-1.26v0.175c0,0.26133 0.03733,0.48067 0.112,0.658c0.07467,0.17733 0.18317,0.32083 0.3255,0.4305c0.14233,0.10967 0.31733,0.18667 0.525,0.231c0.20767,0.04433 0.44683,0.0665 0.7175,0.0665c0.574,0 1.01266,-0.12016 1.316,-0.3605c0.30334,-0.24034 0.455,-0.6265 0.455,-1.1585c0,-0.30333 -0.0525,-0.5495 -0.1575,-0.7385c-0.105,-0.189 -0.23683,-0.34183 -0.3955,-0.4585c-0.15867,-0.11667 -0.329,-0.21117 -0.511,-0.2835c-0.182,-0.07233 -0.35233,-0.1435 -0.511,-0.2135c-0.15867,-0.07 -0.2905,-0.15283 -0.3955,-0.2485c-0.105,-0.09567 -0.1575,-0.22517 -0.1575,-0.3885c0,-0.112 0.03267,-0.2135 0.098,-0.3045c0.06533,-0.091 0.168,-0.1365 0.308,-0.1365c0.126,0 0.21933,0.0525 0.28,0.1575c0.06067,0.105 0.091,0.23217 0.091,0.3815v0.119Zm2.094,0.098h1.176c0,-0.26133 0.02683,-0.441 0.0805,-0.539c0.05367,-0.098 0.1435,-0.147 0.2695,-0.147c0.112,0 0.19483,0.03617 0.2485,0.1085c0.05367,0.07233 0.0805,0.2135 0.0805,0.4235c0,0.14467 -0.01167,0.2625 -0.035,0.3535c-0.02333,0.091 -0.05833,0.16217 -0.105,0.2135c-0.04667,0.05133 -0.105,0.08633 -0.175,0.105c-0.07,0.01867 -0.154,0.028 -0.252,0.028h-0.189v0.812h0.329c0.16333,0 0.2835,0.042 0.3605,0.126c0.077,0.084 0.1155,0.24733 0.1155,0.49c0,0.154 -0.00467,0.28117 -0.014,0.3815c-0.00933,0.10033 -0.02683,0.17967 -0.0525,0.238c-0.02567,0.05833 -0.06183,0.098 -0.1085,0.119c-0.04667,0.021 -0.10733,0.0315 -0.182,0.0315c-0.14,0 -0.238,-0.06067 -0.294,-0.182c-0.028,-0.06533 -0.05017,-0.14467 -0.0665,-0.238c-0.01633,-0.09333 -0.0245,-0.21 -0.0245,-0.35h-1.218c0,0.29867 0.03267,0.5495 0.098,0.7525c0.06533,0.203 0.16567,0.36517 0.301,0.4865c0.13533,0.12133 0.30683,0.20533 0.5145,0.252c0.20767,0.04667 0.4515,0.07 0.7315,0.07c0.53667,0 0.94033,-0.1225 1.211,-0.3675c0.27067,-0.245 0.406,-0.6475 0.406,-1.2075c0,-0.27067 -0.05833,-0.50517 -0.175,-0.7035c-0.11667,-0.19833 -0.31966,-0.3255 -0.609,-0.3815v-0.014c0.13067,-0.028 0.24033,-0.077 0.329,-0.147c0.08867,-0.07 0.15983,-0.1505 0.2135,-0.2415c0.05367,-0.091 0.09217,-0.189 0.1155,-0.294c0.02333,-0.105 0.035,-0.2065 0.035,-0.3045c0,-0.21933 -0.0245,-0.41417 -0.0735,-0.5845c-0.049,-0.17033 -0.133,-0.31383 -0.252,-0.4305c-0.119,-0.11667 -0.27883,-0.20533 -0.4795,-0.266c-0.20067,-0.06067 -0.45267,-0.091 -0.756,-0.091c-0.50867,0 -0.89133,0.12133 -1.148,0.364c-0.25667,0.238 -0.392,0.616 -0.406,1.134Z" transform="translate(8.10162, 10.9123)"></path></g><path fill="none" d="M0,0h24v24h-24Z"></path></g></svg>