<?xml version="1.0" encoding="UTF-8"?><svg width="576" height="576" version="1.1" viewBox="0 0 576 576" xmlns="http://www.w3.org/2000/svg" xmlns:xlink="http://www.w3.org/1999/xlink"><!--Generated by IJSVG (https://github.com/curthard89/IJSVG)--><g transform="scale(24)"><g fill="none"><g transform="translate(2, 2)"></g><g fill="#6F6F6F"><path d="M2.00001,16v-4.82202l3.30334,-2.7655c0.48102,0.33929 1.06421,0.5426 1.69623,0.5426c0.52173,0 1.00513,-0.14752 1.43103,-0.3858l2.19031,2.42419c0.33759,-0.37103 0.7204,-0.69873 1.14331,-0.97205l-2.24982,-2.49017c0.27387,-0.448 0.44025,-0.96881 0.44025,-1.53125c0,-1.62939 -1.32568,-2.95508 -2.95508,-2.95508c-1.6294,0 -2.95508,1.32569 -2.95508,2.95508c0,0.45374 0.11115,0.87885 0.29468,1.26337l-2.33917,1.95837v-7.22174h14v7.203c0.72461,0.14026 1.39899,0.4176 2,0.80121v-8.27923c0,-0.95301 -0.77301,-1.72498 -1.72504,-1.72498h-14.55c-0.953,0 -1.72498,0.77197 -1.72498,1.72498v14.5501c1e-05,0.953 0.77198,1.72497 1.72498,1.72497h8.29376c-0.38342,-0.60101 -0.66101,-1.27527 -0.8017,-2h-7.21703Zm4.99957,-10.9551c0.52686,-8.88178e-16 0.95508,0.42822 0.95508,0.95508c0,0.52686 -0.42822,0.95508 -0.95508,0.95508c-0.52686,0 -0.95508,-0.42822 -0.95508,-0.95508c0,-0.52686 0.42822,-0.95508 0.95508,-0.95508Z" transform="translate(2.00042, 2)"></path><path d="M10.8647,9.44005l-2.06146,-2.06372l-0.98273,-0.98376c-0.09271,-0.09283 -0.20068,-0.15942 -0.31384,-0.20886c0.38062,-0.61884 0.61115,-1.34045 0.61115,-2.12042c0,-2.24396 -1.81738,-4.06329 -4.0589,-4.06329c-2.24152,0 -4.0589,1.81934 -4.0589,4.06329c0,2.24395 1.81738,4.06329 4.0589,4.06329c0.77917,0 1.50006,-0.23071 2.11816,-0.61182c0.04938,0.11328 0.11591,0.22137 0.20862,0.31421l0.98279,0.98383l2.0614,2.0636c0.19781,0.19811 0.45764,0.29766 0.71741,0.29766c0.25977,0 0.51953,-0.09955 0.71741,-0.29767c0.39672,-0.39715 0.39672,-1.03918 -1e-05,-1.43634Zm-6.80578,-2.83722c-1.39929,0 -2.5368,-1.13977 -2.5368,-2.53955c0,-1.39984 1.13751,-2.53955 2.5368,-2.53955c1.39929,0 2.5368,1.13971 2.5368,2.53955c0,1.39978 -1.13751,2.53955 -2.5368,2.53955Z" transform="translate(12.8378, 12.8259)"></path></g><path d="M0,0h24v24h-24Z"></path></g></g></svg>