<?xml version="1.0" encoding="utf-8"?>
<!-- Generator: Adobe Illustrator 22.0.1, SVG Export Plug-In . SVG Version: 6.00 Build 0)  -->
<svg version="1.1" id="Layer_1" xmlns="http://www.w3.org/2000/svg" xmlns:xlink="http://www.w3.org/1999/xlink" x="0px" y="0px"
	 viewBox="0 0 34 24" style="enable-background:new 0 0 34 24;" xml:space="preserve">
<style type="text/css">
	.st0{fill:#585D63;}
</style>
<path class="st0" d="M22.04156,11.08348l3.9791,3.97902L30,11.08348H22.04156z"/>
<g>
	<path class="st0" d="M16.1,9l1-1c0.5-0.5,0.7-1.1,0.7-1.7c0-0.7-0.3-1.3-0.7-1.7l-0.9-0.9c-1-1-2.6-1-3.6,0L6.9,9.2l4.5,4.3
		l3.5-3.4c0.7,0.8,1.5,1.8,0.6,4L15,14.9c-0.2,0.3-0.5,0.6-0.8,0.9H4.5c-0.5,0-0.9,0.4-0.9,0.9s0.4,0.9,0.9,0.9h8.7L12,19H4v2h6.9
		h4.5h1.8v-6.2c0.8-1.6,0.6-3.3-0.3-4.7C16.6,9.7,16.3,9.3,16.1,9z M9.8,9.2l4.3-4.1c0.2-0.2,0.6-0.2,0.8,0L15.8,6
		C15.9,6.1,16,6.2,16,6.4c0,0.1-0.1,0.3-0.2,0.4l-4.3,4.1L9.8,9.2z"/>
	<rect x="4" y="13.5" class="st0" width="5.6" height="1.2"/>
</g>
</svg>
