<?xml version="1.0" encoding="UTF-8"?><svg width="576" height="576" version="1.1" viewBox="0 0 576 576" xmlns="http://www.w3.org/2000/svg" xmlns:xlink="http://www.w3.org/1999/xlink"><!--Generated by IJSVG (https://github.com/curthard89/IJSVG)--><g transform="scale(24)"><g fill="none"><g fill="none"><use xlink:href="#path-1"></use><g fill="#6F6F6F"><path d="M16.275,0h-14.55c-0.95301,0 -1.72498,0.77197 -1.72498,1.72498v14.5501c0,0.953 0.77197,1.72497 1.72498,1.72497h14.5501c0.95196,0 1.72497,-0.77197 1.72497,-1.72498v-14.55c0,-0.95301 -0.77301,-1.72498 -1.72498,-1.72498Zm-0.27502,16h-14v-14h14v14Z" transform="translate(3, 3)"></path></g><path fill="#6F6F6F" d="M16.1749,11.0788l1.11299,-1.0056l-9.90825,-10.0732l-7.37969,6.34105l0.96289,1.15015l6.27216,-5.41383Z" transform="translate(3.35603, 8.9212)"></path><path fill="#FFFFFF" stroke="#6F6F6F" stroke-width="2" d="M4.47488,0.968313c0.968313,0.968313 0.968313,2.53826 0,3.50657c-0.968313,0.968313 -2.53826,0.968313 -3.50657,0c-0.968313,-0.968313 -0.968313,-2.53826 -1.77636e-15,-3.50657c0.968313,-0.968313 2.53826,-0.968313 3.50657,-1.77636e-15" transform="translate(8.03487, 7.1548)"></path></g><use xlink:href="#path-1"></use></g></g><defs><path id="path-1" d="M0,0h24v24h-24Z"></path></defs></svg>