<?xml version="1.0" encoding="UTF-8"?><svg width="576" height="576" version="1.1" viewBox="0 0 576 576" xmlns="http://www.w3.org/2000/svg" xmlns:xlink="http://www.w3.org/1999/xlink"><!--Generated by IJSVG (https://github.com/curthard89/IJSVG)--><g transform="scale(24)"><g fill="none"><g fill="none"><path d="M4.9,0.1c-0.1,-0.1 -0.3,-0.1 -0.3,-0.1c-0.1,0 -0.2,0 -0.3,0.1l-4.3,4.3l1.7,1.7l4.3,-4.3c0.1,-0.1 0.1,-0.2 0.1,-0.3c0,-0.1 0,-0.2 -0.1,-0.3l-1.1,-1.1Z" transform="translate(11.9, 3.8)"></path><path fill="#6F6F6F" d="M14.5,1.7l-1,-1c-0.4,-0.4 -1,-0.7 -1.6,-0.7c-0.6,0 -1.2,0.2 -1.6,0.7l-5,5c-0.4,0.4 -0.4,1 0,1.3l3,3c0.2,0.2 0.4,0.3 0.7,0.3c0.2,0 0.5,-0.1 0.7,-0.3l1.6,-2c0.1,0.1 0.2,0.3 0.4,0.5c0.6,1.1 0.8,2.2 0.2,3.3l-0.5,0.8c-0.2,0.3 -0.5,0.6 -0.8,0.9h-9.7c-0.5,0 -0.9,0.4 -0.9,0.9c0,0.5 0.4,0.9 0.9,0.9h8.7l-1.2,1.8h-7.5c-0.5,0 -0.9,0.4 -0.9,0.9c0,0.5 0.4,0.9 0.9,0.9h6.4h4.5h1.8v-6.4c0.8,-1.7 0.6,-3.4 -0.3,-4.9c-0.2,-0.4 -0.4,-0.7 -0.6,-0.9l1.8,-1.8c0.9,-0.9 0.9,-2.3 0,-3.2Zm-1.3,2l-4.4,4.3l-1.7,-1.7l4.3,-4.3c0.1,-0.1 0.3,-0.1 0.3,-0.1c0.1,0 0.2,0 0.3,0.1l1,1c0.3,0.1 0.3,0.2 0.3,0.3c0,0.1 0,0.2 -0.1,0.4Z" transform="translate(4.7, 2)"></path><path fill="#6F6F6F" d="M0.9,1.8h4.5c0.5,0 0.9,-0.4 0.9,-0.9c0,-0.5 -0.4,-0.9 -0.9,-0.9h-4.5c-0.5,0 -0.9,0.4 -0.9,0.9c0,0.5 0.4,0.9 0.9,0.9Z" transform="translate(4.7, 12.8)"></path></g><path d="M0,0h24v24h-24Z"></path></g></g></svg>