<?xml version="1.0" encoding="UTF-8"?><svg width="576" height="576" version="1.1" viewBox="0 0 576 576" xmlns="http://www.w3.org/2000/svg" xmlns:xlink="http://www.w3.org/1999/xlink"><!--Generated by IJSVG (https://github.com/curthard89/IJSVG)--><g transform="scale(24)"><g fill="none" fill-rule="evenodd" stroke="none" stroke-width="1"><path d="M0,0h24v24h-24Z"></path><g transform="translate(2.91797, 2.82959)"><g fill="#FFFFFF" fill-rule="evenodd" stroke="none" stroke-width="1"><g fill="#6AB84A" fill-rule="evenodd" stroke="none" stroke-width="1"><path mask="url(#mask-1)" d="M16.134,18h-14.268c-1.026,0 -1.866,-0.84 -1.866,-1.866v-14.268c0,-1.026 0.84,-1.866 1.866,-1.866h14.268c1.026,0 1.866,0.84 1.866,1.866v14.268c0,1.026 -0.84,1.866 -1.866,1.866" transform="translate(-0.0002, 0)"></path></g><path d="M2.686,4.904h1.955l-0.982,-2.928l-0.973,2.928Zm2.391,1.305h-2.826l-0.537,1.611h-1.714l2.913,-7.82h1.492l2.927,7.82h-1.712l-0.543,-1.611Z" transform="translate(1.95965, 5.40986)"></path><path d="M1.461,0.107l0.048,0.671c0.415,-0.519 0.972,-0.778 1.671,-0.778c0.615,0 1.074,0.18 1.375,0.542c0.301,0.362 0.454,0.902 0.461,1.623v3.754h-1.552v-3.717c0,-0.329 -0.071,-0.569 -0.215,-0.717c-0.143,-0.149 -0.382,-0.223 -0.714,-0.223c-0.437,0 -0.764,0.186 -0.983,0.559v4.098h-1.552v-5.812h1.461Z" transform="translate(10.2959, 7.31136)"></path></g></g></g></g><defs><mask id="mask-1" maskContentUnits="userSpaceOnUse" maskUnits="objectBoundingBox"><g fill="#FFFFFF" transform="translate(0.0002, 0)"><path d="M8.9999,0h-8.9999v18h8.9999h8.9999v-18Z"></path></g></mask></defs></svg>