<?xml version="1.0" encoding="utf-8"?>
<!-- Generator: Adobe Illustrator 22.0.1, SVG Export Plug-In . SVG Version: 6.00 Build 0)  -->
<svg version="1.1" id="Layer_1" xmlns="http://www.w3.org/2000/svg" xmlns:xlink="http://www.w3.org/1999/xlink" x="0px" y="0px"
	 viewBox="0 0 24 24" style="enable-background:new 0 0 24 24;" xml:space="preserve">
<style type="text/css">
	.st0{fill:none;}
	.st1{fill:#585D63;}
</style>
<title>APM</title>
<desc>Created with Sketch.</desc>
<g>
	<path class="st0" d="M15.52344,8.47656c-0.4248-0.42432-0.70312-0.9082-0.83008-1.44092L8.14844,6.56104
		C7.96436,6.92529,7.76562,7.28857,7.47656,7.57666c-0.07861,0.0791-0.2207,0.22168-0.38623,0.33838l2.10205,7.73926
		c0.84961,0.03516,1.5083,0.30469,2.05762,0.84277c0.17676,0.09961,0.28809,0.25,0.37549,0.4043l3.92822-1.1875
		c0.03418-0.86523,0.3125-1.5332,0.86914-2.09082c0.30469-0.30371,0.66699-0.48926,0.90918-0.58984l-0.36328-3.73145
		C16.44238,9.15771,15.8916,8.8457,15.52344,8.47656z"/>
	<path class="st1" d="M20.87695,13.62305c-0.39551-0.39453-0.96191-0.69727-1.54688-0.83203l-0.36133-3.71729
		c0.24707-0.10205,0.4541-0.2583,0.6416-0.3999c0.07715-0.05859,0.15332-0.11572,0.2666-0.19727
		c1.2002-1.2002,1.2002-3.15283,0-4.35352c-1.20117-1.20068-3.15527-1.19775-4.35352,0
		c-0.28809,0.28857-0.4873,0.65088-0.6709,1.01318L8.30127,4.56641C8.15723,4.04199,7.84521,3.4917,7.47656,3.12305
		c-1.19971-1.2002-3.15283-1.2002-4.35352,0c-1.2002,1.20068-1.2002,3.15332-0.01514,4.33691
		C3.57812,8.02441,4.33203,8.3916,5.10889,8.44385l2.19922,7.74268c-0.16553,0.11621-0.30664,0.25879-0.38477,0.33691
		C6.34424,17.10254,6.0249,17.875,6.0249,18.7002c0,0.82422,0.31934,1.59766,0.89844,2.17676
		c0.6001,0.59961,1.38818,0.89941,2.17676,0.89941c0.78809,0,1.57666-0.2998,2.17676-0.89941
		c0.62646-0.62695,0.92529-1.33105,0.88916-2.09668l3.9082-1.18164c0.08691,0.15234,0.2002,0.30469,0.375,0.4043
		c0.57715,0.5625,1.33887,0.87207,2.15039,0.87207c0.8252,0,1.59766-0.31934,2.16895-0.89062
		c0.62207-0.57031,0.97559-1.33984,0.99316-2.16602C21.78027,14.99219,21.46582,14.21289,20.87695,13.62305z M17.33203,13.0332
		c-0.24219,0.10059-0.60449,0.28613-0.90918,0.58984c-0.55664,0.55762-0.83496,1.22559-0.86914,2.09082l-3.92822,1.1875
		c-0.0874-0.1543-0.19873-0.30469-0.37549-0.4043c-0.54932-0.53809-1.20801-0.80762-2.05762-0.84277L7.09033,7.91504
		c0.16553-0.1167,0.30762-0.25928,0.38623-0.33838c0.28906-0.28809,0.48779-0.65137,0.67188-1.01562l6.54492,0.47461
		c0.12695,0.53271,0.40527,1.0166,0.83008,1.44092c0.36816,0.36914,0.91895,0.68115,1.44531,0.8252L17.33203,13.0332z"/>
</g>
<rect class="st0" width="24" height="24"/>
</svg>
