<?xml version="1.0" encoding="UTF-8"?><svg width="576" height="576" version="1.1" viewBox="0 0 576 576" xmlns="http://www.w3.org/2000/svg" xmlns:xlink="http://www.w3.org/1999/xlink"><!--Generated by IJSVG (https://github.com/curthard89/IJSVG)--><g transform="scale(24)"><g fill="none"><g fill="none"><path d="M8.43311,1.91552c-0.4248,-0.42432 -0.70312,-0.9082 -0.83008,-1.44092l-6.54492,-0.4746c-0.18408,0.36425 -0.38282,0.72753 -0.67188,1.01562c-0.07861,0.0791 -0.2207,0.22168 -0.38623,0.33838l2.10205,7.73926c0.84961,0.03516 1.5083,0.30469 2.05762,0.84277c0.17676,0.09961 0.28809,0.25 0.37549,0.4043l3.92822,-1.1875c0.03418,-0.86523 0.3125,-1.5332 0.86914,-2.09082c0.30469,-0.30371 0.66699,-0.48926 0.90918,-0.58984l-0.36328,-3.73145c-0.52637,-0.14405 -1.07715,-0.45606 -1.44531,-0.8252Z" transform="translate(7.09033, 6.56104)"></path><path fill="#6F6F6F" d="M18.9541,11.7002c-0.39551,-0.39453 -0.96191,-0.69727 -1.54688,-0.83203l-0.36133,-3.71729c0.24707,-0.10205 0.4541,-0.2583 0.6416,-0.3999c0.07715,-0.05859 0.15332,-0.11572 0.2666,-0.19727c1.2002,-1.2002 1.2002,-3.15283 0,-4.35352c-1.20117,-1.20068 -3.15527,-1.19775 -4.35352,0c-0.28809,0.28857 -0.4873,0.65088 -0.6709,1.01318l-6.55125,-0.56981c-0.14404,-0.52442 -0.45606,-1.07471 -0.82471,-1.44336c-1.19971,-1.2002 -3.15283,-1.2002 -4.35352,0c-1.2002,1.20068 -1.2002,3.15332 -0.01514,4.33691c0.47022,0.56445 1.22413,0.93164 2.00099,0.98389l2.19922,7.74268c-0.16553,0.11621 -0.30664,0.25879 -0.38477,0.33691c-0.5791,0.5791 -0.89844,1.35156 -0.89844,2.17676c0,0.82422 0.31934,1.59766 0.89844,2.17676c0.6001,0.59961 1.38818,0.89941 2.17676,0.89941c0.78809,0 1.57666,-0.2998 2.17676,-0.89941c0.62646,-0.62695 0.92529,-1.33105 0.88916,-2.09668l3.9082,-1.18164c0.08691,0.15234 0.2002,0.30469 0.375,0.4043c0.57715,0.5625 1.33887,0.87207 2.15039,0.87207c0.8252,0 1.59766,-0.31934 2.16895,-0.89062c0.62207,-0.57031 0.97559,-1.33984 0.99316,-2.16602c0.01855,-0.82618 -0.2959,-1.60548 -0.88477,-2.19532Zm-3.54492,-0.58985c-0.24219,0.10059 -0.60449,0.28613 -0.90918,0.58984c-0.55664,0.55762 -0.83496,1.22559 -0.86914,2.09082l-3.92822,1.1875c-0.0874,-0.1543 -0.19873,-0.30469 -0.37549,-0.4043c-0.54932,-0.53809 -1.20801,-0.80762 -2.05762,-0.84277l-2.10205,-7.73925c0.16553,-0.1167 0.30762,-0.25928 0.38623,-0.33838c0.28906,-0.28809 0.48779,-0.65137 0.67188,-1.01562l6.54492,0.47461c0.12695,0.53271 0.40527,1.0166 0.83008,1.44092c0.36816,0.36914 0.91895,0.68115 1.44531,0.8252l0.36328,3.73143Z" transform="translate(1.92284, 1.92285)"></path></g><path d="M0,0h24v24h-24Z"></path></g></g></svg>