<?xml version="1.0" encoding="UTF-8"?>
<svg width="24px" height="24px" viewBox="0 0 24 24" version="1.1" xmlns="http://www.w3.org/2000/svg" xmlns:xlink="http://www.w3.org/1999/xlink">
    <!-- Generator: Sketch 47.1 (45422) - http://www.bohemiancoding.com/sketch -->
    <title>key@4x</title>
    <desc>Created with Sketch.</desc>
    <defs></defs>
    <g id="objects" stroke="none" stroke-width="1" fill="none" fill-rule="evenodd">
        <g id="key">
            <g id="Page-1" transform="translate(11.292893, 12.000000) rotate(-45.000000) translate(-11.292893, -12.000000) translate(1.792893, 2.500000)" fill="#585D63">
                <path d="M4.37397744,4.69950345 C4.07091485,5.1400577 4.0718831,5.73262736 4.37978695,6.18092761 C4.64121474,6.54692652 5.03916593,6.757037 5.47197417,6.757037 C5.91736966,6.757037 6.34049539,6.529498 6.56997089,6.17221335 C6.87303348,5.73165911 6.87206523,5.13908944 6.56416139,4.6927257 C6.02968679,3.94233111 4.82615069,3.99268016 4.37397744,4.69950345" id="Fill-1"></path>
                <path d="M14.6715214,14.5157298 L13.702302,14.5157298 L13.702302,13.5474787 C13.702302,12.8919727 13.1697639,12.3594346 12.5142579,12.3594346 L10.9582784,12.3594346 L8.73130096,10.1324571 L8.11742977,10.3880754 C6.38619684,11.1375017 4.36642508,10.6824237 3.09704791,9.25812637 C1.63208402,7.6227503 1.62530627,5.13724977 3.07961939,3.47863566 C3.90166456,2.55395588 5.02386757,2.02529079 6.23902267,1.991402 C7.4677333,1.94008469 8.61801558,2.40581346 9.48363205,3.27142993 C10.7607552,4.54855311 11.1219129,6.44535698 10.4034706,8.10784409 L10.1497888,8.71493752 L16.6496583,15.2351403 L16.6496583,16.6332949 L15.8392322,16.6332949 L15.8392322,15.7037738 C15.8392322,15.0376171 15.3270273,14.5157298 14.6715214,14.5157298 M18.3053677,14.0713025 L12.4706866,8.23758973 C13.1542719,6.00577099 12.5433055,3.52995297 10.8837231,1.87133887 C9.63661572,0.625199724 7.92958906,-0.0612902935 6.18673712,0.00455078009 C4.44388517,0.0461855766 2.81238209,0.80045317 1.59044923,2.13179841 C-0.530020642,4.53112459 -0.530020642,8.14947888 1.59044923,10.5478368 C3.25293634,12.4320534 5.84010323,13.1534005 8.23458815,12.4155932 L9.77507563,13.9560806 C10.0055194,14.1855561 10.2940582,14.3075558 10.6116446,14.3075558 L11.6960858,14.3075558 L11.6960858,15.2758069 C11.6960858,15.9429318 12.2092588,16.4648192 12.8647648,16.4648192 L13.8330159,16.4648192 L13.8330159,17.4330703 C13.8330159,18.087608 14.365554,18.6201461 15.0200917,18.6201461 L17.4687987,18.6201461 C18.0952572,18.6201461 18.6171445,18.1166555 18.6558746,17.451467 L18.6558746,14.9069032 C18.6558746,14.5951263 18.5309702,14.2978733 18.3053677,14.0713025" id="Fill-3"></path>
            </g>
            <rect id="Rectangle-12" x="0" y="0" width="24" height="24"></rect>
        </g>
    </g>
</svg>
