<?xml version="1.0" encoding="utf-8"?>
<!-- Generator: Adobe Illustrator 22.0.1, SVG Export Plug-In . SVG Version: 6.00 Build 0)  -->
<svg version="1.1" id="Layer_1" xmlns="http://www.w3.org/2000/svg" xmlns:xlink="http://www.w3.org/1999/xlink" x="0px" y="0px"
	 viewBox="0 0 24 24" style="enable-background:new 0 0 24 24;" xml:space="preserve">
<style type="text/css">
	.st0{fill:none;}
	.st1{fill:#585D63;}
</style>
<title>community</title>
<desc>Created with Sketch.</desc>
<rect class="st0" width="24" height="24"/>
<g>
	<path class="st0" d="M17.6748,8.47119c0.90918,0,1.64844-0.74023,1.64844-1.6499c0-0.90918-0.73926-1.64893-1.64844-1.64893
		s-1.64941,0.73975-1.64941,1.64893C16.02539,7.73096,16.76562,8.47119,17.6748,8.47119z"/>
	<path class="st0" d="M11.9082,10.49121c-0.90918,0-1.64893,0.73975-1.64893,1.64941c0,0.90918,0.73975,1.64941,1.64893,1.64941
		s1.64844-0.74023,1.64844-1.64941C13.55664,11.23096,12.81738,10.49121,11.9082,10.49121z"/>
	<path class="st0" d="M6.28467,8.4707c0.90918,0,1.64893-0.73975,1.64893-1.64893S7.19385,5.17285,6.28467,5.17285
		c-0.91016,0-1.65039,0.73975-1.65039,1.64893S5.37451,8.4707,6.28467,8.4707z"/>
	<path class="st1" d="M6.28369,10.14404c1.83154,0,3.32178-1.49023,3.32178-3.32227C9.60547,4.99023,8.11523,3.5,6.28369,3.5
		S2.9624,4.99023,2.9624,6.82178C2.9624,8.65381,4.45215,10.14404,6.28369,10.14404z M6.28467,5.17285
		c0.90918,0,1.64893,0.73975,1.64893,1.64893S7.19385,8.4707,6.28467,8.4707c-0.91016,0-1.65039-0.73975-1.65039-1.64893
		S5.37451,5.17285,6.28467,5.17285z"/>
	<path class="st1" d="M6.5954,10.96777H4.21338c-2.04736,0-3.71289,1.66602-3.71289,3.71289v0.5h1.67188v-0.5
		c0-1.125,0.91553-2.04004,2.04102-2.04004H6.5954V10.96777z"/>
	<path class="st1" d="M17.6748,10.14355c1.83203,0,3.32227-1.49023,3.32227-3.32227c0-1.83105-1.49023-3.3208-3.32227-3.3208
		c-1.83105,0-3.32129,1.48975-3.32129,3.3208C14.35352,8.65332,15.84375,10.14355,17.6748,10.14355z M17.6748,5.17236
		c0.90918,0,1.64844,0.73975,1.64844,1.64893c0,0.90967-0.73926,1.6499-1.64844,1.6499s-1.64941-0.74023-1.64941-1.6499
		C16.02539,5.91211,16.76562,5.17236,17.6748,5.17236z"/>
	<path class="st1" d="M19.74609,10.96777h-2.52502v1.67285h2.52502c1.125,0,2.04102,0.91504,2.04102,2.04004v0.5h1.67188v-0.5
		C23.45898,12.63379,21.79297,10.96777,19.74609,10.96777z"/>
	<path class="st1" d="M11.9082,8.81934c-1.26904,0-2.40918,0.70947-2.97559,1.85205
		c-0.22998,0.46484-0.34668,0.95947-0.34668,1.46924c0,1.83203,1.49023,3.32227,3.32227,3.32227s3.32227-1.49023,3.32227-3.32227
		c0-0.35547-0.05859-0.70996-0.1748-1.05371C14.60059,9.73047,13.33594,8.81934,11.9082,8.81934z M11.9082,13.79004
		c-0.90918,0-1.64893-0.74023-1.64893-1.64941c0-0.90967,0.73975-1.64941,1.64893-1.64941s1.64844,0.73975,1.64844,1.64941
		C13.55664,13.0498,12.81738,13.79004,11.9082,13.79004z"/>
	<path class="st1" d="M13.22949,16.28711h-2.5c-2.34326,0-4.25,1.66602-4.25,3.71289v0.5h1.78467V20
		c0-1.125,1.10596-2.04102,2.46533-2.04102h2.5c1.35938,0,2.46484,0.91602,2.46484,2.04102v0.5h1.78516V20
		C17.47949,17.95312,15.57324,16.28711,13.22949,16.28711z"/>
</g>
</svg>
