<?xml version="1.0" encoding="utf-8"?>
<!-- Generator: Adobe Illustrator 22.0.1, SVG Export Plug-In . SVG Version: 6.00 Build 0)  -->
<svg version="1.1" id="Layer_1" xmlns="http://www.w3.org/2000/svg" xmlns:xlink="http://www.w3.org/1999/xlink" x="0px" y="0px"
	 viewBox="0 0 24 24" style="enable-background:new 0 0 24 24;" xml:space="preserve">
<style type="text/css">
	.st0{fill:none;}
	.st1{fill:#585D63;}
</style>
<title>tier and node</title>
<desc>Created with Sketch.</desc>
<g>
	<path class="st0" d="M0,0v24h24V0H0z M5,19c0,0.552-0.44702,1-1,1s-1-0.448-1-1V5c0-0.552,0.44702-1,1-1s1,0.448,1,1V19z M17,20.5
		c0,0.82501-0.67499,1.5-1.5,1.5h-7C7.67499,22,7,21.32501,7,20.5v-17C7,2.67499,7.67499,2,8.5,2h7C16.32501,2,17,2.67499,17,3.5
		V20.5z M21,19c0,0.552-0.44702,1-1,1s-1-0.448-1-1V5c0-0.552,0.44702-1,1-1s1,0.448,1,1V19z"/>
	<path class="st1" d="M15.5,2h-7C7.67499,2,7,2.67499,7,3.5v17C7,21.32501,7.67499,22,8.5,22h7c0.82501,0,1.5-0.67499,1.5-1.5v-17
		C17,2.67499,16.32501,2,15.5,2z M15,20H9V4h6V20z"/>
	<path class="st1" d="M20,4c-0.55298,0-1,0.448-1,1v14c0,0.552,0.44702,1,1,1s1-0.448,1-1V5C21,4.448,20.55298,4,20,4z"/>
	<path class="st1" d="M4,4C3.44702,4,3,4.448,3,5v14c0,0.552,0.44702,1,1,1s1-0.448,1-1V5C5,4.448,4.55298,4,4,4z"/>
	<path class="st1" d="M10.5,7.75h3c0.414,0,0.75-0.336,0.75-0.75s-0.336-0.75-0.75-0.75h-3c-0.414,0-0.75,0.336-0.75,0.75
		S10.086,7.75,10.5,7.75z"/>
	<path class="st1" d="M10.5,10.75h3c0.414,0,0.75-0.336,0.75-0.75s-0.336-0.75-0.75-0.75h-3c-0.414,0-0.75,0.336-0.75,0.75
		S10.086,10.75,10.5,10.75z"/>
	<circle class="st1" cx="12" cy="17" r="1"/>
</g>
</svg>
