<?xml version="1.0" encoding="utf-8"?>
<!-- Generator: Adobe Illustrator 22.1.0, SVG Export Plug-In . SVG Version: 6.00 Build 0)  -->
<svg version="1.1" id="Layer_1" xmlns="http://www.w3.org/2000/svg" xmlns:xlink="http://www.w3.org/1999/xlink" x="0px" y="0px"
	 viewBox="0 0 32.9 24" style="enable-background:new 0 0 32.9 24;" xml:space="preserve">
<style type="text/css">
	.st0{display:none;}
	.st1{display:inline;}
	.st2{fill:none;stroke:#DBDBDB;stroke-width:0.1;stroke-miterlimit:10;}
	.st3{fill:none;}
	.st4{fill:#585D63;}
</style>
<g id="Layer_2_1_" class="st0">
	<g id="Layer_1_1_" class="st1">
		<circle class="st2" cx="12" cy="11.9" r="5"/>
		<path class="st2" d="M18,23H6c-1.1,0-2-0.9-2-2V3c0-1.1,0.9-2,2-2h12c1.1,0,2,0.9,2,2v18C20,22.1,19.1,23,18,23z"/>
		<path class="st2" d="M19.5,21.5h-15c-1.1,0-2-0.9-2-2v-15c0-1.1,0.9-2,2-2h15c1.1,0,2,0.9,2,2v15C21.5,20.6,20.6,21.5,19.5,21.5z"
			/>
		<path class="st2" d="M1,18V6c0-1.1,0.9-2,2-2h18c1.1,0,2,0.9,2,2v12c0,1.1-0.9,2-2,2H3C1.9,20,1,19.1,1,18z"/>
	</g>
	<g id="lines" class="st1">
		<line class="st2" x1="15.5" y1="0" x2="15.5" y2="24"/>
		<line class="st2" x1="12" y1="0" x2="12" y2="24"/>
		<line class="st2" x1="8.5" y1="0" x2="8.5" y2="24"/>
		<line class="st2" x1="0" y1="8.4" x2="24" y2="8.4"/>
		<line class="st2" x1="0" y1="12" x2="24" y2="12"/>
		<line class="st2" x1="0" y1="15.5" x2="24" y2="15.5"/>
		<line class="st2" x1="0" y1="0" x2="24" y2="24"/>
		<line class="st2" x1="24" y1="0" x2="0" y2="24"/>
	</g>
</g>
<g id="Layer_4">
	<g>
		<path class="st3" d="M15.5,8.3c-0.4-0.4-0.7-0.9-0.8-1.5L7.8,6.3C7.6,6.7,7.4,7,7.1,7.3C6.9,7.5,6.7,7.6,6.6,7.8l2.3,8.1
			c0.7,0,1.5,0.3,2.1,0.8c0.2,0.2,0.3,0.3,0.4,0.5l4.3-1.3c0-0.8,0.3-1.5,0.8-2.1c0.3-0.3,0.6-0.5,1-0.6L17,9.1
			C16.4,9,15.9,8.7,15.5,8.3z"/>
		<path class="st4" d="M18.9,13l-0.4-4.1c0.4-0.1,0.7-0.4,1-0.6c1.1-1.1,1.1-2.9,0-4c-1.1-1.1-2.9-1.1-4,0c-0.3,0.3-0.5,0.7-0.7,1.1
			L7.9,4.8C7.8,4.2,7.5,3.7,7.1,3.3c-1.1-1.1-2.9-1.1-4,0c-1.1,1.1-1.1,2.9,0,4c0.6,0.6,1.3,0.8,2.1,0.8l2.3,8.1
			c-0.2,0.1-0.4,0.3-0.5,0.4c-1.1,1.1-1.1,2.9,0,4c1.1,1.1,2.9,1.1,4,0c0.6-0.6,0.9-1.3,0.8-2.1l4.3-1.3c0.1,0.2,0.2,0.4,0.4,0.5
			c1.1,1.1,2.9,1.1,4,0s1.1-2.9,0-4C20,13.4,19.5,13.1,18.9,13z M16.4,13.8c-0.6,0.6-0.8,1.3-0.8,2.1l-4.3,1.3
			c-0.1-0.2-0.2-0.4-0.4-0.5c-0.6-0.6-1.3-0.8-2.1-0.8L6.6,7.8c0.2-0.1,0.4-0.3,0.5-0.4C7.4,7,7.6,6.7,7.8,6.3l6.9,0.5
			c0.1,0.5,0.4,1.1,0.8,1.5c0.4,0.4,1,0.7,1.5,0.8l0.4,4.1C17,13.3,16.7,13.5,16.4,13.8z"/>
		<polygon class="st4" points="23,10 27,14 31,10 		"/>
	</g>
</g>
</svg>
