<?xml version="1.0" encoding="UTF-8"?><svg width="576" height="576" version="1.1" viewBox="0 0 576 576" xmlns="http://www.w3.org/2000/svg" xmlns:xlink="http://www.w3.org/1999/xlink"><!--Generated by IJSVG (https://github.com/curthard89/IJSVG)--><g transform="scale(24)"><g fill="none"><path d="M9.9,1.1h2.2v-1.1h-2.2h-7.7h-2.2v1.1h2.2Z" transform="translate(6, 8)"></path><path d="M8,1v-1h-8v0v1v0Z" transform="translate(8, 5)"></path><path d="M15,0h-1.1v0h-2.1h-7.4h-2.1v0h-1.1h-1.1h-0.1v7h16.1v-7v0h-1.1Zm-3.4,3.6v0.4h-7.1v-0.4v-1.6h7.1v0v1.6Z" transform="translate(3.9, 11)"></path><path fill="#6F6F6F" d="M17.8,6v0v-1.1c0,-1.1 -0.9,-1.9 -2.1,-2v-0.9c0,-1.1 -0.9,-2 -2.1,-2h-7.3c-1.1,0 -2.1,0.9 -2.1,2v1c-1.2,0 -2.1,0.9 -2.1,2v1h8.88178e-16c-1.2,0 -2.1,0.9 -2.1,2v7c0,1.1 0.9,2 2.1,2h15.7c1.2,0 2.1,-0.9 2.1,-2v-7.1c0,-1 -0.9,-1.9 -2.1,-1.9Zm-11.9,-4v0h8v1h-8v0v-1Zm-2,3h2.2h7.7h2.2v1.1h-2.2h-7.7h-2.2v-1.1Zm14,10h-16.1v-7h0.1h1.1h1.1v0h2.1h7.4h2.1v0h1.1h1.1v0v7Z" transform="translate(2.1, 3)"></path><path fill="#6F6F6F" d="M0,0v1.6v0.3h7.1v-0.3v-1.6v0Z" transform="translate(8.4, 13)"></path></g></g></svg>