<?xml version="1.0" encoding="UTF-8"?><svg width="576" height="576" version="1.1" viewBox="0 0 576 576" xmlns="http://www.w3.org/2000/svg" xmlns:xlink="http://www.w3.org/1999/xlink"><!--Generated by IJSVG (https://github.com/curthard89/IJSVG)--><g transform="scale(24)"><g fill="none" fill-rule="evenodd" stroke="none" stroke-width="1"><use xlink:href="#path-1"></use><g fill="none" fill-rule="evenodd" stroke="none" stroke-width="1"><use xlink:href="#path-1"></use><g transform="translate(12, 12)"><g transform="rotate(-90)"><g fill="#6F6F6F" stroke="none" stroke-width="1" transform="translate(-12, -12)"><path d="M14.6834,6.68605h-11.17l4.8825,-4.8825v0c0.389366,-0.389366 0.389366,-1.02065 0,-1.41002c-0.0008304,-0.0008304 -0.0016623,-0.00165932 -0.0024956,-0.00248678l-0.002902,-0.0028816v0c-0.390923,-0.38817 -1.02216,-0.387055 -1.41171,0.00249419l-6.58828,6.58828v0c-0.390524,0.390524 -0.390524,1.02369 0,1.41421l6.58789,6.58789v0c0.389361,0.389361 1.02064,0.389361 1.41,0v0v0c0.389463,-0.389463 0.389745,-1.02082 0.0006314,-1.41063l-4.87563,-4.88437h11.17v0c0.552285,0 1,-0.447715 1,-1v0v0c0,-0.552285 -0.447715,-1 -1,-1Z" transform="translate(4.31658, 4.31395)"></path></g></g></g></g></g></g><defs><path id="path-1" d="M0,0h24v24h-24Z"></path></defs></svg>