<?xml version="1.0" encoding="utf-8"?>
<!-- Generator: Adobe Illustrator 22.1.0, SVG Export Plug-In . SVG Version: 6.00 Build 0)  -->
<svg version="1.1" id="Layer_1" xmlns="http://www.w3.org/2000/svg" xmlns:xlink="http://www.w3.org/1999/xlink" x="0px" y="0px"
	 viewBox="0 0 24 24" style="enable-background:new 0 0 24 24;" xml:space="preserve">
<style type="text/css">
	.st0{fill:#585D63;}
	.st1{fill:none;}
</style>
<title>associate tier node</title>
<desc>Created with Sketch.</desc>
<g>
	<path class="st0" d="M4.99725,5.09998h-2V19c0,1.09998,0.89996,2,2,2h14v-2h-14V5.09998z"/>
	<path class="st0" d="M19.80273,3.03711H8.70264c-0.77197,0-1.3999,0.62793-1.3999,1.3999v2.19971
		c0,0.77197,0.62793,1.3999,1.3999,1.3999h11.1001c0.77148,0,1.39941-0.62793,1.39941-1.3999V4.43701
		C21.20215,3.66504,20.57422,3.03711,19.80273,3.03711z M19.5,4.79999v1.5H9.09998v-1.5H19.5z"/>
	<path class="st0" d="M19.80273,8.93701H8.70264c-0.77197,0-1.3999,0.62793-1.3999,1.3999v2.2002
		c0,0.77148,0.62793,1.39941,1.3999,1.39941h4.50049v0.90039H8.30273c-0.57031,0-1,0.42969-1,1s0.42969,1,1,1h11.90039
		c0.56934,0,0.99902-0.42969,0.99902-1s-0.42969-1-0.99902-1h-4.90039v-0.90039h4.5c0.77148,0,1.39941-0.62793,1.39941-1.39941
		v-2.2002C21.20215,9.56494,20.57422,8.93701,19.80273,8.93701z M19.5,10.70001v1.5H9.09998v-1.5H19.5z"/>
</g>
<rect class="st1" width="24" height="24"/>
</svg>
