<?xml version="1.0" encoding="UTF-8"?><svg width="576" height="576" version="1.1" viewBox="0 0 576 576" xmlns="http://www.w3.org/2000/svg" xmlns:xlink="http://www.w3.org/1999/xlink"><!--Generated by IJSVG (https://github.com/curthard89/IJSVG)--><g transform="scale(24)"><g fill="none"><g fill="#FFFFFF"><g transform="translate(2.39725, 4)"><g fill="#6F6F6F"><path d="M2,13.9v-13.9h-2v13.9c0,1.1 0.9,2 2,2h14v-2h-14Z" transform="translate(0.6, 1.1)"></path></g></g><g transform="translate(7.60275, 3.33691)"><g fill="#6F6F6F"><g fill="#6F6F6F"><path d="M5.9,11.8h-5.2c-0.4,0 -0.7,0.3 -0.7,0.7c0,0.4 0.3,0.7 0.7,0.7h11.9c0.4,0 0.7,-0.3 0.7,-0.7c0,-0.4 -0.3,-0.7 -0.7,-0.7h-5.2v-1.5h4.8c0.6,0 1.1,-0.5 1.1,-1.1v-2.2c0,-0.6 -0.5,-1.1 -1.1,-1.1h-11.1c-0.6,0 -1.1,0.5 -1.1,1.1v2.2c0,0.6 0.5,1.1 1.1,1.1h4.8v1.5Zm6.3,-11.8c0.6,0 1.1,0.5 1.1,1.1v2.2c0,0.6 -0.5,1.1 -1.1,1.1h-11.1c-0.6,0 -1.1,-0.5 -1.1,-1.1v-2.2c0,-0.6 0.5,-1.1 1.1,-1.1h11.1Z"></path><g fill="#6F6F6F"><path d="M12.5,0h-11.1c-0.8,0 -1.4,0.6 -1.4,1.4v2.2c0,0.8 0.6,1.4 1.4,1.4h11.1c0.8,0 1.4,-0.6 1.4,-1.4v-2.3c0,-0.7 -0.6,-1.3 -1.4,-1.3Z" transform="translate(-0.3, -0.2)"></path><path d="M12.5,0h-11.1c-0.8,0 -1.4,0.6 -1.4,1.4v2.2c0,0.8 0.6,1.4 1.4,1.4h4.6v1h-5c-0.5,0 -1,0.4 -1,1c0,0.5 0.4,1 1,1h11.9c0.5,0 1,-0.4 1,-1c0,-0.5 -0.4,-1 -1,-1h-4.9v-1h4.6c0.8,0 1.4,-0.6 1.4,-1.4v-2.2c-0.1,-0.8 -0.7,-1.4 -1.5,-1.4Z" transform="translate(-0.3, 5.7)"></path></g></g><path d="M0,0h2v7.1h-2Z" transform="translate(5.7, 5.9)"></path></g></g><use transform="translate(9.1, 4.8)" xlink:href="#path-1"></use><use transform="translate(9.1, 10.7)" xlink:href="#path-1"></use><use fill="none" xlink:href="#path-2"></use></g><use xlink:href="#path-2"></use></g></g><defs><path id="path-2" d="M0,0h24v24h-24Z"></path><path id="path-1" d="M0,0h10.4v1.5h-10.4Z"></path></defs></svg>