<?xml version="1.0" encoding="utf-8"?>
<!-- Generator: Adobe Illustrator 22.0.1, SVG Export Plug-In . SVG Version: 6.00 Build 0)  -->
<svg version="1.1" id="Layer_1" xmlns="http://www.w3.org/2000/svg" xmlns:xlink="http://www.w3.org/1999/xlink" x="0px" y="0px"
	 viewBox="0 0 24 24" style="enable-background:new 0 0 24 24;" xml:space="preserve">
<style type="text/css">
	.st0{fill:#585D63;}
	.st1{fill:none;}
</style>
<title>normal copy 11</title>
<desc>Created with Sketch.</desc>
<g>
	<path class="st0" d="M16.92273,16.99127c-1.31378,1.29987-3.05389,2.01404-4.90057,2.01404h-0.04083
		c-1.86267-0.01099-3.60876-0.74609-4.91956-2.07086c-1.30884-1.32471-2.02399-3.0788-2.01306-4.94141
		c0.00018-0.02765,0.00403-0.05463,0.00452-0.08228l1.27655,1.29169c0.19421,0.1972,0.45117,0.29584,0.70819,0.29584
		c0.25299,0,0.50598-0.09564,0.7002-0.2879c0.39148-0.38647,0.39545-1.01697,0.008-1.40839l-1.23761-1.25214L5.5127,9.54236
		L4.77588,8.79688C4.58966,8.60858,4.33667,8.50201,4.07269,8.50104C3.96887,8.50452,3.8573,8.53162,3.74872,8.5683
		C3.72198,8.57733,3.6983,8.58551,3.67206,8.59656c-0.11127,0.04712-0.21924,0.10736-0.3056,0.19232l-3.00507,2.97125
		c-0.39148,0.38647-0.39545,1.01697-0.008,1.40845c0.38647,0.39142,1.01697,0.39441,1.40845,0.00793l1.29962-1.28436
		c-0.00049,0.02985-0.0047,0.05902-0.00488,0.08893c-0.01392,2.39453,0.90546,4.65161,2.58978,6.35388
		c1.68335,1.70325,3.92944,2.6485,6.323,2.66241h0.05377c2.37457,0,4.60968-0.9184,6.29999-2.5896l-1.40033-1.41656
		L16.92273,16.99127z"/>
	<path class="st0" d="M23.68927,10.89728c-0.38647-0.39148-1.01697-0.39545-1.40942-0.008l-1.29907,1.28442
		c0.00049-0.02991,0.0047-0.05908,0.00488-0.08905c0.01398-2.39453-0.9054-4.65161-2.58972-6.35388
		c-1.68335-1.70325-3.92944-2.6485-6.323-2.66241h-0.05377c-2.34595,0-4.55371,0.89948-6.23651,2.53265l1.40021,1.41656
		c1.30646-1.26184,3.01917-1.95715,4.83728-1.95715h0.04083c1.86267,0.01099,3.60876,0.74609,4.91858,2.07086
		c1.30981,1.32471,2.02496,3.0788,2.01404,4.94141c-0.00018,0.02759-0.00397,0.05444-0.00446,0.08197l-1.27618-1.29126
		c-0.38647-0.39148-1.01703-0.39545-1.40942-0.008c-0.3905,0.38647-0.39447,1.01697-0.00702,1.40845l0.27191,0.27509
		l1.96124,1.98425l0.73712,0.74579c0.18628,0.18823,0.43823,0.2948,0.70422,0.29584h0.00397
		c0.10962,0,0.21478-0.02802,0.31683-0.06262c0.05585-0.01892,0.10492-0.04651,0.15662-0.07507
		c0.07953-0.04388,0.16113-0.08527,0.22681-0.15021l3.0061-2.97125C24.07178,11.91919,24.07574,11.2887,23.68927,10.89728z"/>
</g>
<rect x="-0.02334" class="st1" width="24" height="24"/>
</svg>
