<?xml version="1.0" encoding="UTF-8"?><svg width="576" height="576" version="1.1" viewBox="0 0 576 576" xmlns="http://www.w3.org/2000/svg" xmlns:xlink="http://www.w3.org/1999/xlink"><!--Generated by IJSVG (https://github.com/curthard89/IJSVG)--><g transform="scale(24)"><g fill="none"><g fill="#6F6F6F"><use transform="translate(5.85592, 12.3559)" xlink:href="#path-1"></use><use transform="translate(5.85592, 6.15592)" xlink:href="#path-1"></use><use transform="translate(12.3559, 6.15592)" xlink:href="#path-1"></use><use transform="translate(12.6559, 12.2559)" xlink:href="#path-1"></use><path d="M6.2,2v6h2v-8h-0.2v0h-8v2h6.2Z" transform="translate(13.8, 2.1)"></path><path d="M2,6v-6h-2v8h0.2v0h8v-2Z" transform="translate(2, 14)"></path><use fill="none" xlink:href="#path-2"></use></g><use xlink:href="#path-2"></use></g></g><defs><path id="path-2" d="M0,0h24v24h-24Z"></path><path id="path-1" d="M4.51184,0.976311c0.976311,0.976311 0.976311,2.55922 0,3.53553c-0.976311,0.976311 -2.55922,0.976311 -3.53553,0c-0.976311,-0.976311 -0.976311,-2.55922 0,-3.53553c0.976311,-0.976311 2.55922,-0.976311 3.53553,0"></path></defs></svg>