<?xml version="1.0" encoding="UTF-8"?><svg width="576" height="576" version="1.1" viewBox="0 0 576 576" xmlns="http://www.w3.org/2000/svg" xmlns:xlink="http://www.w3.org/1999/xlink"><!--Generated by IJSVG (https://github.com/curthard89/IJSVG)--><g transform="scale(24)"><g fill="none"><g fill="#6F6F6F"><path d="M16.9568,8.49023c-1.31378,1.29987 -3.05389,2.01404 -4.90057,2.01404h-0.04083c-1.86267,-0.01099 -3.60876,-0.74609 -4.91956,-2.07086c-1.30884,-1.32471 -2.02399,-3.0788 -2.01306,-4.94141c0.00018,-0.02765 0.00403,-0.05463 0.00452,-0.08228l1.27655,1.29169c0.19421,0.1972 0.45117,0.29584 0.70819,0.29584c0.25299,0 0.50598,-0.09564 0.7002,-0.2879c0.39148,-0.38647 0.39545,-1.01697 0.008,-1.40839l-1.23761,-1.25214l-0.99586,-1.0075l-0.73682,-0.74548c-0.18622,-0.1883 -0.43921,-0.29487 -0.70319,-0.29584c-0.10382,0.00348 -0.21539,0.03058 -0.32397,0.06726c-0.02674,0.00903 -0.05042,0.01721 -0.07666,0.02826c-0.11127,0.04712 -0.21924,0.10736 -0.3056,0.19232l-3.00507,2.97125c-0.39148,0.38647 -0.39545,1.01697 -0.008,1.40845c0.38647,0.39142 1.01697,0.39441 1.40845,0.00793l1.29962,-1.28436c-0.00049,0.02985 -0.0047,0.05902 -0.00488,0.08893c-0.01392,2.39453 0.90546,4.65161 2.58978,6.35388c1.68335,1.70325 3.92944,2.6485 6.323,2.66241h0.05377c2.37457,0 4.60968,-0.9184 6.29999,-2.5896l-1.40033,-1.41656l-6e-05,6e-05Z" transform="translate(-0.03406, 8.50104)"></path><path d="M17.9066,7.82892c-0.38647,-0.39148 -1.01697,-0.39545 -1.40942,-0.008l-1.29907,1.28442c0.00049,-0.02991 0.0047,-0.05908 0.00488,-0.08905c0.01398,-2.39453 -0.9054,-4.65161 -2.58972,-6.35388c-1.68335,-1.70325 -3.92944,-2.6485 -6.323,-2.66241h-0.05377c-2.34595,0 -4.55371,0.89948 -6.23651,2.53265l1.40021,1.41656c1.30646,-1.26184 3.01917,-1.95715 4.83728,-1.95715h0.04083c1.86267,0.01099 3.60876,0.74609 4.91858,2.07086c1.30981,1.32471 2.02496,3.0788 2.01404,4.94141c-0.00018,0.02759 -0.00397,0.05444 -0.00446,0.08197l-1.27618,-1.29126c-0.38647,-0.39148 -1.01703,-0.39545 -1.40942,-0.008c-0.3905,0.38647 -0.39447,1.01697 -0.00702,1.40845l0.27191,0.27509l1.96124,1.98425l0.73712,0.74579c0.18628,0.18823 0.43823,0.2948 0.70422,0.29584h0.00397c0.10962,0 0.21478,-0.02802 0.31683,-0.06262c0.05585,-0.01892 0.10492,-0.04651 0.15662,-0.07507c0.07953,-0.04388 0.16113,-0.08527 0.22681,-0.15021l3.0061,-2.97125c0.39044,-0.38648 0.3944,-1.01697 0.00793,-1.40839Z" transform="translate(5.78266, 3.06836)"></path></g><path d="M0,0h24v24h-24Z" transform="translate(-0.02334, 0)"></path></g></g></svg>