<?xml version="1.0" encoding="UTF-8"?><svg width="576" height="576" version="1.1" viewBox="0 0 576 576" xmlns="http://www.w3.org/2000/svg" xmlns:xlink="http://www.w3.org/1999/xlink"><!--Generated by IJSVG (https://github.com/curthard89/IJSVG)--><g transform="scale(24)"><g fill="none" fill-rule="evenodd" stroke="none" stroke-width="1"><path d="M0,0h24v24h-24Z"></path><g transform="translate(12, 12)"><g transform="rotate(-180)"><g transform="translate(-12, -12)"><g transform="translate(6, 6)"><g fill="#6F6F6F" stroke="none" stroke-width="1"><path d="M11.4927,9.56936l-3.885,-3.885l3.885,-3.885v0c0.389361,-0.389361 0.389361,-1.02064 0,-1.41v0v0c-0.389361,-0.389361 -1.02064,-0.389361 -1.41,0l-4.58789,4.58789v0c-0.390524,0.390524 -0.390524,1.02369 0,1.41421l4.58789,4.58789v0c0.389361,0.389361 1.02064,0.389361 1.41,0v0v0c0.389361,-0.389361 0.389361,-1.02064 0,-1.41Zm-10.4927,-9.47259v8.88178e-16v0c0.552285,0 1,0.447715 1,1v9.17517v-1.77636e-15c0,0.552285 -0.447715,1 -1,1v0v0c-0.552285,0 -1,-0.447715 -1,-1v-9.17517v8.88178e-16c0,-0.552285 0.447715,-1 1,-1Z" transform="translate(0.21228, 0.315639)"></path></g></g></g></g></g></g></g></svg>