<?xml version="1.0" encoding="UTF-8"?><svg width="576" height="576" version="1.1" viewBox="0 0 576 576" xmlns="http://www.w3.org/2000/svg" xmlns:xlink="http://www.w3.org/1999/xlink"><!--Generated by IJSVG (https://github.com/curthard89/IJSVG)--><g transform="scale(24)"><g fill="none"><g fill="#6F6F6F"><path d="M5.59469,1.17157c1.21063,1.17157 1.21063,3.07107 0,4.24264c-1.21063,1.17157 -3.17344,1.17157 -4.38406,0c-1.21063,-1.17157 -1.21063,-3.07107 -8.88178e-16,-4.24264c1.21063,-1.17157 3.17344,-1.17157 4.38406,0" transform="translate(4.49734, 12.4071)"></path><path d="M5.59469,1.17157c1.21063,1.17157 1.21063,3.07107 0,4.24264c-1.21063,1.17157 -3.17344,1.17157 -4.38406,0c-1.21063,-1.17157 -1.21063,-3.07107 -8.88178e-16,-4.24264c1.21063,-1.17157 3.17344,-1.17157 4.38406,-8.88178e-16" transform="translate(4.49734, 4.90711)"></path><path d="M5.59469,1.17157c1.21063,1.17157 1.21063,3.07107 0,4.24264c-1.21063,1.17157 -3.17344,1.17157 -4.38406,0c-1.21063,-1.17157 -1.21063,-3.07107 0,-4.24264c1.21063,-1.17157 3.17344,-1.17157 4.38406,-8.88178e-16" transform="translate(12.3973, 4.90711)"></path><path d="M5.59469,1.17157c1.21063,1.17157 1.21063,3.07107 0,4.24264c-1.21063,1.17157 -3.17344,1.17157 -4.38406,0c-1.21063,-1.17157 -1.21063,-3.07107 0,-4.24264c1.21063,-1.17157 3.17344,-1.17157 4.38406,0" transform="translate(12.6973, 12.4071)"></path><use fill="none" xlink:href="#path-1"></use></g><use xlink:href="#path-1"></use></g></g><defs><path id="path-1" d="M0,0h24v24h-24Z"></path></defs></svg>