<?xml version="1.0" encoding="UTF-8"?><svg width="576" height="576" version="1.1" viewBox="0 0 576 576" xmlns="http://www.w3.org/2000/svg" xmlns:xlink="http://www.w3.org/1999/xlink"><!--Generated by IJSVG (https://github.com/curthard89/IJSVG)--><g transform="scale(24)"><path fill="none" d="M0,0h24v24h-24Z"></path><g transform="translate(3, 6)"><g fill="#6F6F6F"><path d="M19,6.13135h-18c-0.55225,0 -1,-0.44775 -1,-1c0,-0.55225 0.44775,-1 1,-1h14.9697l-2.96484,-2.19629c-0.44434,-0.32861 -0.53711,-0.95508 -0.20898,-1.39893c0.3291,-0.44238 0.95508,-0.53613 1.39844,-0.2085l5.40039,4c0.34766,0.25684 0.49023,0.70752 0.35449,1.11719c-0.13478,0.40967 -0.51759,0.68653 -0.94923,0.68653Z" transform="translate(-1, -1.13135)"></path><path d="M6.48389,6c-0.20654,0 -0.41504,-0.06348 -0.59424,-0.19629l-5.3999,-4c-0.34668,-0.25684 -0.48975,-0.70703 -0.35449,-1.11719c0.13526,-0.41016 0.51806,-0.68652 0.9497,-0.68652h18c0.55273,0 1,0.44727 1,1c0,0.55273 -0.44727,1 -1,1h-14.9702l2.96533,2.19629c0.44385,0.3291 0.53711,0.95508 0.2085,1.39941c-0.1963,0.26465 -0.49854,0.4043 -0.80469,0.4043Z" transform="translate(-1.08496, 7)"></path></g></g></g></svg>