<?xml version="1.0" encoding="UTF-8"?><svg width="576" height="576" version="1.1" viewBox="0 0 576 576" xmlns="http://www.w3.org/2000/svg" xmlns:xlink="http://www.w3.org/1999/xlink"><!--Generated by IJSVG (https://github.com/curthard89/IJSVG)--><g transform="scale(24)"><g fill="none"><g fill="#6F6F6F"><path d="M8.44678,15.1197c-4.16907,0 -6.71985,-1.2926 -6.71985,-1.99542v-2.28845v-0.14746c0.0448,0.02515 0.09149,0.04944 0.13812,0.07373c0.67944,0.36395 1.51105,0.65234 2.43408,0.86517c1.27399,0.29401 2.7113,0.44702 4.14764,0.44702c0.35956,0 0.71924,-0.00964 1.07635,-0.02863l0.28259,-0.67413l0.44916,-1.07098c-0.56531,0.05579 -1.16034,0.09473 -1.80811,0.09473c-1.66125,0 -3.05939,-0.20721 -4.14764,-0.49841c-1.64355,-0.43958 -2.5722,-1.07422 -2.5722,-1.49701v-2.28852v-0.14838c0.0448,0.02521 0.09149,0.04944 0.13812,0.07465c0.67945,0.3631 1.51106,0.65149 2.43409,0.86523c1.27307,0.29395 2.7113,0.44702 4.14764,0.44702c1.07275,0 2.14575,-0.08569 3.15112,-0.2514l0.78815,-1.87903c-1.05804,0.26392 -2.37793,0.4505 -3.93927,0.4505c-1.66125,0 -3.05939,-0.20721 -4.14764,-0.49841c-1.64355,-0.43866 -2.5722,-1.07428 -2.5722,-1.49707c0,-0.70367 2.55078,-1.99445 6.71985,-1.99445c2.19012,0 3.89517,0.30115 5.05691,0.74134l0.05301,0.0072h0.99701h1.86609c-1.17303,-1.599 -4.58905,-2.42853 -7.97302,-2.42853c-3.68469,0 -8.32941,1.11871 -8.39978,3.32837c-0.047,1.47314 -0.047,4.73846 -4.44089e-16,9.7959c0,0.28284 0.0625,0.54883 0.17261,0.79987c0.82227,1.88995 4.54248,2.87555 8.22717,2.87555c0.64526,0 1.29077,-0.03204 1.92249,-0.09204l0.672,-1.77112c-0.77406,0.11303 -1.63941,0.18316 -2.59449,0.18316Z" transform="translate(2.26947, 2.57147)"></path><path d="M7.76501,0h-4.14203l-3.36395,8.02301h2.58795l-2.84698,7.50598l8.79998,-9.83502h-3.62298Z" transform="translate(13.2002, 6.5)"></path></g><path d="M0,0h24v24h-24Z"></path></g></g></svg>