<?xml version="1.0" encoding="utf-8"?>
<!-- Generator: Adobe Illustrator 22.0.1, SVG Export Plug-In . SVG Version: 6.00 Build 0)  -->
<svg version="1.1" id="Layer_1" xmlns="http://www.w3.org/2000/svg" xmlns:xlink="http://www.w3.org/1999/xlink" x="0px" y="0px"
	 viewBox="0 0 24 24" style="enable-background:new 0 0 24 24;" xml:space="preserve">
<style type="text/css">
	.st0{fill:#585D63;}
	.st1{fill:none;}
</style>
<title>blitz@4x</title>
<desc>Created with Sketch.</desc>
<g id="Clip-8">
</g>
<g>
	<path class="st0" d="M10.71625,17.69116c-4.16907,0-6.71985-1.2926-6.71985-1.99542v-2.28845v-0.14746
		c0.0448,0.02515,0.09149,0.04944,0.13812,0.07373c0.67944,0.36395,1.51105,0.65234,2.43408,0.86517
		c1.27399,0.29401,2.7113,0.44702,4.14764,0.44702c0.25055,0,0.50031-0.01068,0.75006-0.01996l0.1485-0.35413l0.57593-1.37354
		c-0.46716,0.03925-0.9505,0.0686-1.47449,0.0686c-1.66125,0-3.05939-0.20721-4.14764-0.49841
		c-1.64355-0.43958-2.5722-1.07422-2.5722-1.49701V8.6828V8.53442c0.0448,0.02521,0.09149,0.04944,0.13812,0.07465
		C4.81396,8.97217,5.64557,9.26056,6.5686,9.4743c1.27307,0.29395,2.7113,0.44702,4.14764,0.44702
		c0.95496,0,1.90326-0.07831,2.81073-0.21014l0.77295-1.84357c-0.99554,0.22046-2.18713,0.37378-3.58368,0.37378
		c-1.66125,0-3.05939-0.20721-4.14764-0.49841C4.92505,7.30432,3.9964,6.6687,3.9964,6.24591
		c0-0.70367,2.55078-1.99445,6.71985-1.99445c2.19012,0,3.8952,0.30115,5.05688,0.74133L15.82617,5h0.99701h1.86609
		c-1.17303-1.599-4.58905-2.42853-7.97302-2.42853c-3.68469,0-8.32941,1.11871-8.39978,3.32837
		c-0.047,1.47314-0.047,4.73846,0,9.7959c0,0.28284,0.0625,0.54883,0.17261,0.79987
		c0.82227,1.88995,4.54248,2.87555,8.22717,2.87555c0.53021,0,1.05695-0.03461,1.57965-0.07562l0.66351-1.74927
		C12.27362,17.63214,11.53485,17.69116,10.71625,17.69116z"/>
	<polygon class="st0" points="20.96521,7.02197 16.82318,7.02197 13.45923,15.04498 16.04718,15.04498 13.2002,22.55096 
		22.00018,12.71594 18.3772,12.71594 	"/>
</g>
<rect class="st1" width="24" height="24"/>
</svg>
