<?xml version="1.0" encoding="UTF-8"?>
<svg width="24px" height="24px" viewBox="0 0 24 24" version="1.1" xmlns="http://www.w3.org/2000/svg" xmlns:xlink="http://www.w3.org/1999/xlink">
    <!-- Generator: Sketch 47.1 (45422) - http://www.bohemiancoding.com/sketch -->
    <title>boolean_template</title>
    <desc>Created with Sketch.</desc>
    <defs></defs>
    <g id="data-types" stroke="none" stroke-width="1" fill="none" fill-rule="evenodd">
        <g id="boolean_template">
            <rect id="Rectangle-12" x="0" y="0" width="24" height="24"></rect>
            <g transform="translate(3.000000, 3.000000)" id="Layer_2">
                <g>
                    <g id="Group">
                        <path d="M9,2 L9,16 C12.9,16 16,12.9 16,9 C16,5.1 12.9,2 9,2 L9,2 Z" id="Shape"></path>
                        <path d="M9,0.4 C4.3,0.4 0.4,4.2 0.4,9 C0.4,13.8 4.2,17.6 9,17.6 C13.8,17.6 17.6,13.8 17.6,9 C17.6,4.2 13.7,0.4 9,0.4 L9,0.4 Z M9,15.9 L9,2 C12.9,2 16,5.1 16,9 C16,12.8 12.9,15.9 9,15.9 L9,15.9 Z" id="Shape" fill="#585D63"></path>
                    </g>
                </g>
            </g>
        </g>
    </g>
</svg>
