<?xml version="1.0" encoding="UTF-8"?><svg width="576" height="576" version="1.1" viewBox="0 0 576 576" xmlns="http://www.w3.org/2000/svg" xmlns:xlink="http://www.w3.org/1999/xlink"><!--Generated by IJSVG (https://github.com/curthard89/IJSVG)--><g transform="scale(24)"><g fill="none" fill-rule="evenodd" stroke="none" stroke-width="1"><path d="M0,0h24v24h-24Z"></path><g transform="translate(3, 3)"><g fill-rule="evenodd" stroke="none" stroke-width="1"><path fill="none" d="M0,0v14c3.9,0 7,-3.1 7,-7c0,-3.9 -3.1,-7 -7,-7v0Z" transform="translate(9, 2)"></path><path fill="#6F6F6F" d="M8.6,0c-4.7,0 -8.6,3.8 -8.6,8.6c0,4.8 3.8,8.6 8.6,8.6c4.8,0 8.6,-3.8 8.6,-8.6c0,-4.8 -3.9,-8.6 -8.6,-8.6v0Zm0,15.5v-13.9c3.9,4.44089e-16 7,3.1 7,7c0,3.8 -3.1,6.9 -7,6.9v0Z" transform="translate(0.4, 0.4)"></path></g></g></g></g></svg>