<?xml version="1.0" encoding="UTF-8"?><svg width="576" height="576" version="1.1" viewBox="0 0 576 576" xmlns="http://www.w3.org/2000/svg" xmlns:xlink="http://www.w3.org/1999/xlink"><!--Generated by IJSVG (https://github.com/curthard89/IJSVG)--><g transform="scale(24)"><g fill="none"><g transform="translate(2, 1.5)"><g fill="#6F6F6F"><path d="M15.439,6.631l0.023,11.609l-11.836,0.023v-11.632l-0.469,-0.301c-0.419,-0.267 -1.12,-0.806 -1.12,-1.41c0,-1.176 2.92,-2.883 7.496,-2.883c4.575,0 7.496,1.707 7.497,2.883c0,0.604 -0.702,1.143 -1.121,1.41l-0.47,0.301Zm-5.907,-6.631c-5.434,0 -9.532,2.115 -9.532,4.92c0,1.032 0.548,1.996 1.589,2.796v10.547c0,1.111 0.904,2.014 2.014,2.014h11.859c0.538,0 1.043,-0.21 1.424,-0.591c0.38,-0.381 0.589,-0.887 0.589,-1.423v-10.546c1.041,-0.8 1.59,-1.764 1.59,-2.797c0,-2.805 -4.099,-4.92 -9.533,-4.92v0Z" transform="translate(0.3852, 0.299)"></path><use transform="translate(6, 11.7645)" xlink:href="#path-1"></use><use transform="translate(9, 8.7645)" xlink:href="#path-2"></use><use transform="translate(6, 4.7645)" xlink:href="#path-2"></use><path d="M2,1c0,0.552 -0.447,1 -1,1c-0.553,0 -1,-0.448 -1,-1c0,-0.552 0.447,-1 1,-1c0.553,0 1,0.448 1,1" transform="translate(12, 4.7645)"></path><path d="M2,1c0,0.553 -0.447,1 -1,1c-0.553,0 -1,-0.447 -1,-1c0,-0.553 0.447,-1 1,-1c0.553,0 1,0.447 1,1" transform="translate(12, 11.7645)"></path><use transform="translate(9, 14.7645)" xlink:href="#path-1"></use></g></g><path d="M0,0h24v24h-24Z"></path></g></g><defs><path id="path-2" d="M2,1c0,0.552 -0.448,1 -1,1c-0.552,0 -1,-0.448 -1,-1c0,-0.552 0.448,-1 1,-1c0.552,0 1,0.448 1,1"></path><path id="path-1" d="M2,1c0,0.553 -0.448,1 -1,1c-0.552,0 -1,-0.447 -1,-1c0,-0.553 0.448,-1 1,-1c0.552,0 1,0.447 1,1"></path></defs></svg>