<?xml version="1.0" encoding="utf-8"?>
<!-- Generator: Adobe Illustrator 22.1.0, SVG Export Plug-In . SVG Version: 6.00 Build 0)  -->
<svg version="1.1" id="Layer_1" xmlns="http://www.w3.org/2000/svg" xmlns:xlink="http://www.w3.org/1999/xlink" x="0px" y="0px"
	 viewBox="0 0 24 24" style="enable-background:new 0 0 24 24;" xml:space="preserve">
<style type="text/css">
	.st0{fill:#585D63;}
</style>
<title>breadcrumb_template</title>
<g id="Layer_4">
	<path class="st0" d="M18,22H6c-1.1,0-2-0.9-2-2V9.6C2.8,9,2.1,7.8,2,6.5c0-2.9,4.3-5,10-5s10,2.1,10,5c-0.1,1.3-0.8,2.5-2,3.1V20
		C20,21.1,19.1,22,18,22z M12,3.5c-5,0-8,1.8-8,3C4,7,4.5,7.6,5.5,8.2L6,8.5V20h12V8.5l0.5-0.3C19.5,7.6,20,7,20,6.5
		C20,5.2,17,3.5,12,3.5z"/>
	<path class="st0" d="M9.3,11.4c-0.2,0-0.4-0.1-0.5-0.2c-0.3-0.3-0.3-0.8,0-1.1l2.7-2.7c0.3-0.3,0.8-0.3,1.1,0c0.3,0.3,0.3,0.7,0,1
		l-2.7,2.7C9.7,11.3,9.5,11.4,9.3,11.4z"/>
	<path class="st0" d="M14,6.8c-0.2,0-0.4-0.1-0.5-0.2l0,0c-0.3-0.3-0.3-0.8,0-1.1c0.3-0.3,0.7-0.3,1,0c0.3,0.3,0.3,0.8,0,1.1
		C14.4,6.7,14.2,6.8,14,6.8z"/>
	<path class="st0" d="M9,15.8c-0.2,0-0.4-0.1-0.5-0.2c-0.3-0.3-0.3-0.8,0-1.1l6-6c0.3-0.3,0.8-0.3,1.1,0c0.3,0.3,0.3,0.7,0,1l-6,6
		C9.4,15.7,9.2,15.8,9,15.8z"/>
	<path class="st0" d="M13,15.8c-0.2,0-0.4-0.1-0.5-0.2c-0.3-0.3-0.3-0.8,0-1.1l2.2-2.2c0.3-0.3,0.8-0.3,1.1,0c0.3,0.3,0.3,0.7,0,1
		l-2.2,2.2C13.4,15.7,13.2,15.8,13,15.8z"/>
	<path class="st0" d="M11,17.8c-0.2,0-0.4-0.1-0.5-0.2l0,0c-0.3-0.3-0.3-0.8,0-1.1c0.3-0.3,0.7-0.3,1,0c0.3,0.3,0.3,0.8,0,1.1
		C11.4,17.7,11.2,17.8,11,17.8z"/>
</g>
</svg>
