<?xml version="1.0" encoding="UTF-8"?><svg width="576" height="576" version="1.1" viewBox="0 0 576 576" xmlns="http://www.w3.org/2000/svg" xmlns:xlink="http://www.w3.org/1999/xlink"><!--Generated by IJSVG (https://github.com/curthard89/IJSVG)--><g transform="scale(24)"><g transform="translate(3, 3)"><g fill="#6F6F6F" fill-rule="evenodd" stroke="none" stroke-width="1"><g fill="#6F6F6F" fill-rule="evenodd" stroke="none" stroke-width="1"><path d="M9.604,12.233l-3.5,-3.44l3.5,-3.439l-3.5,-3.44l1.947,-1.914h-6.051c-1.101,0 -2,0.9 -2,2v14c0,1.099 0.899,2 2,2h6.471l-2.367,-2.328l3.5,-3.439Z" transform="translate(0.0005, 0.0004)"></path></g><path d="M7.042,0h-5.095l-1.947,1.914l3.5,3.44l-3.5,3.439l3.5,3.44l-3.5,3.44l2.367,2.327h4.675c1.1,0 2,-0.9 2,-2v-14c0,-1.1 -0.9,-2 -2,-2" transform="translate(8.958, 0)"></path></g></g></g></svg>