<?xml version="1.0" encoding="utf-8"?>
<!-- Generator: Adobe Illustrator 22.0.1, SVG Export Plug-In . SVG Version: 6.00 Build 0)  -->
<svg version="1.1" id="Layer_1" xmlns="http://www.w3.org/2000/svg" xmlns:xlink="http://www.w3.org/1999/xlink" x="0px" y="0px"
	 viewBox="0 0 24 24" style="enable-background:new 0 0 24 24;" xml:space="preserve">
<style type="text/css">
	.st0{fill:none;}
	.st1{fill:#585D63;}
</style>
<title>bts</title>
<desc>Created with Sketch.</desc>
<g id="places">
	<g id="bts">
		<rect id="Rectangle-12" class="st0" width="24" height="24"/>
		<g id="actions_template">
			<g id="Layer_1_1_">
				<polygon id="Shape" class="st0" points="0,0 24,0 24,24 0,24 				"/>
			</g>
		</g>
		<g id="Page-1" transform="translate(2.000000, 2.000000)">
			<path id="Fill-1" class="st1" d="M10,2c-4.411,0-8,3.589-8,8s3.589,8,8,8s8-3.589,8-8S14.411,2,10,2 M10,20
				C4.486,20,0,15.514,0,10S4.486,0,10,0s10,4.486,10,10S15.514,20,10,20"/>
			<g>
				<path class="st1" d="M11,11.25H6.81049l0.71954-0.71997C7.823,10.237,7.823,9.763,7.53003,9.46997
					C7.237,9.177,6.763,9.177,6.46997,9.46997l-1.99872,1.99872c-0.06989,0.06952-0.12524,0.15302-0.16351,0.24548
					c-0.03326,0.08063-0.047,0.16614-0.0509,0.25195C4.25629,11.97803,4.25,11.98798,4.25,12s0.00629,0.02197,0.00684,0.03387
					c0.00391,0.08582,0.01764,0.17133,0.0509,0.25195c0.03827,0.09247,0.09363,0.17596,0.16351,0.24548l1.99872,1.99872
					C6.61603,14.677,6.80798,14.75,7,14.75s0.38397-0.073,0.53003-0.21997c0.29297-0.29303,0.29297-0.76703,0-1.06006L6.81049,12.75
					H11c0.414,0,0.75-0.336,0.75-0.75S11.414,11.25,11,11.25z"/>
				<path class="st1" d="M15.69226,8.28583c0.03326-0.08063,0.047-0.16614,0.0509-0.25195C15.74371,8.02197,15.75,8.01202,15.75,8
					s-0.00629-0.02197-0.00684-0.03387c-0.00391-0.08582-0.01764-0.17133-0.0509-0.25195
					c-0.03827-0.09247-0.09363-0.17596-0.16351-0.24548l-1.99872-1.99872c-0.29303-0.29297-0.76703-0.29297-1.06006,0
					c-0.29297,0.29303-0.29297,0.76703,0,1.06006L13.18951,7.25H9C8.586,7.25,8.25,7.586,8.25,8S8.586,8.75,9,8.75h4.18951
					l-0.71954,0.71997c-0.29297,0.29303-0.29297,0.76703,0,1.06006C12.61603,10.677,12.80798,10.75,13,10.75
					s0.38397-0.073,0.53003-0.21997l1.99872-1.99872C15.59863,8.46179,15.65399,8.3783,15.69226,8.28583z"/>
			</g>
		</g>
	</g>
</g>
</svg>
