<?xml version="1.0" encoding="UTF-8"?><svg width="576" height="576" version="1.1" viewBox="0 0 576 576" xmlns="http://www.w3.org/2000/svg" xmlns:xlink="http://www.w3.org/1999/xlink"><!--Generated by IJSVG (https://github.com/curthard89/IJSVG)--><g transform="scale(24)"><g fill="none"><use xlink:href="#path-1"></use><use fill="none" xlink:href="#path-1"></use><g transform="translate(2, 2)"><g fill="#6F6F6F"><path d="M10,2c-4.411,0 -8,3.589 -8,8c0,4.411 3.589,8 8,8c4.411,0 8,-3.589 8,-8c0,-4.411 -3.589,-8 -8,-8m0,18c-5.514,0 -10,-4.486 -10,-10c0,-5.514 4.486,-10 10,-10c5.514,0 10,4.486 10,10c0,5.514 -4.486,10 -10,10"></path><g fill="#6F6F6F"><path d="M6.75,2.073h-4.18951l0.71954,-0.71997c0.29297,-0.29303 0.29297,-0.76703 0,-1.06006c-0.29303,-0.29297 -0.76703,-0.29297 -1.06006,0l-1.99872,1.99872c-0.06989,0.06952 -0.12524,0.15302 -0.16351,0.24548c-0.03326,0.08063 -0.047,0.16614 -0.0509,0.25195c-0.00055,0.01191 -0.00684,0.02186 -0.00684,0.03388c0,0.01202 0.00629,0.02197 0.00684,0.03387c0.00391,0.08582 0.01764,0.17133 0.0509,0.25195c0.03827,0.09247 0.09363,0.17596 0.16351,0.24548l1.99872,1.99872c0.14606,0.14698 0.33801,0.21998 0.53003,0.21998c0.19202,0 0.38397,-0.073 0.53003,-0.21997c0.29297,-0.29303 0.29297,-0.76703 0,-1.06006l-0.71954,-0.71997h4.18951c0.414,0 0.75,-0.336 0.75,-0.75c0,-0.414 -0.336,-0.75 -0.75,-0.75Z" transform="translate(4.25, 9.177)"></path><path d="M7.44226,3.10882c0.03326,-0.08063 0.047,-0.16614 0.0509,-0.25195c0.00055,-0.01191 0.00684,-0.02186 0.00684,-0.03388c0,-0.01202 -0.00629,-0.02197 -0.00684,-0.03387c-0.00391,-0.08582 -0.01764,-0.17133 -0.0509,-0.25195c-0.03827,-0.09247 -0.09363,-0.17596 -0.16351,-0.24548l-1.99872,-1.99872c-0.29303,-0.29297 -0.76703,-0.29297 -1.06006,0c-0.29297,0.29303 -0.29297,0.76703 0,1.06006l0.71954,0.71996h-4.18951c-0.414,0 -0.75,0.336 -0.75,0.75c0,0.414 0.336,0.75 0.75,0.75h4.18951l-0.71954,0.71997c-0.29297,0.29303 -0.29297,0.76703 0,1.06006c0.14606,0.14697 0.33801,0.21997 0.53003,0.21997c0.19202,0 0.38397,-0.073 0.53003,-0.21997l1.99872,-1.99872c0.06988,-0.06952 0.12524,-0.15301 0.16351,-0.24548Z" transform="translate(8.25, 5.17701)"></path></g></g></g></g></g><defs><path id="path-1" d="M0,0h24v24h-24Z"></path></defs></svg>