<?xml version="1.0" encoding="utf-8"?>
<!-- Generator: Adobe Illustrator 22.0.0, SVG Export Plug-In . SVG Version: 6.00 Build 0)  -->
<svg version="1.1" xmlns="http://www.w3.org/2000/svg" xmlns:xlink="http://www.w3.org/1999/xlink" x="0px" y="0px"
	 viewBox="0 0 24 24" style="enable-background:new 0 0 24 24;" xml:space="preserve">
<style type="text/css">
	.st0{fill:#585D63;}
</style>
<g id="Layer_2">
</g>
<g id="Layer_3">
	<g>
		<path class="st0" d="M19.5,15c-1.2,0-2.2,0.9-2.4,2h-2.7c-0.2-1.1-1.2-2-2.4-2c-1.2,0-2.2,0.9-2.4,2H6.9c-0.2-1.1-1.2-2-2.4-2
			C3.1,15,2,16.1,2,17.5C2,18.9,3.1,20,4.5,20c1.2,0,2.2-0.9,2.4-2h2.5c0.2,1.1,1.2,2,2.4,2c1.2,0,2.2-0.9,2.4-2h2.7
			c0.2,1.1,1.2,2,2.4,2c1.4,0,2.5-1.1,2.5-2.5C22,16.1,20.9,15,19.5,15z"/>
		<path class="st0" d="M11.9,4c0.8,0,1.6,0.1,2.3,0.3l1.6-1.6C14.6,2.3,13.3,2,11.9,2c-5.5,0-10,4.5-10,10h2C3.9,7.6,7.5,4,11.9,4z"
			/>
		<path class="st0" d="M12,9c-0.5,0-1,0.2-1.3,0.5C10.3,9.9,10,10.4,10,11c0,0.4,0.1,0.7,0.3,1c0.3,0.6,1,1,1.7,1s1.4-0.4,1.7-1
			c0.2-0.3,0.3-0.6,0.3-1c0-0.2,0-0.5-0.1-0.7l3.8-3.8c1.4,1.4,2.2,3.4,2.2,5.5h2c0-3.4-1.7-6.4-4.3-8.2l-0.1,0.1l-1.3,1.3L12.4,9
			C12.2,9,12.1,9,12,9z"/>
	</g>
</g>
</svg>
