<?xml version="1.0" encoding="UTF-8"?><svg width="576" height="576" version="1.1" viewBox="0 0 576 576" xmlns="http://www.w3.org/2000/svg" xmlns:xlink="http://www.w3.org/1999/xlink"><!--Generated by IJSVG (https://github.com/curthard89/IJSVG)--><g transform="scale(24)"><g fill="none" fill-rule="evenodd" stroke="none" stroke-width="1"><path d="M0,0h24v24h-24Z"></path><g transform="translate(3, 3)"><g fill="#FFFFFF" fill-rule="evenodd" stroke="none" stroke-width="1"><g fill="#004482" fill-rule="evenodd" stroke="none" stroke-width="1"><path mask="url(#mask-1)" d="M16.134,18h-14.268c-1.026,0 -1.866,-0.84 -1.866,-1.866v-14.268c0,-1.026 0.84,-1.866 1.866,-1.866h14.268c1.026,0 1.866,0.84 1.866,1.866v14.268c0,1.026 -0.84,1.866 -1.866,1.866" transform="translate(-0.0002, 0)"></path></g><path d="M6.76665,5.64807c-0.0657987,0.893589 -0.394792,1.59615 -0.990164,2.1098c-0.594311,0.512593 -1.37753,0.76942 -2.35071,0.76942c-1.06339,0 -1.90073,-0.358709 -2.51096,-1.07507c-0.61023,-0.716357 -0.914814,-1.69909 -0.914814,-2.94927v-0.507287c0,-0.798074 0.141149,-1.5017 0.421324,-2.1098c0.281236,-0.607046 0.683457,-1.074 1.2056,-1.39875c0.522144,-0.324748 1.13025,-0.487123 1.82114,-0.487123c0.957265,0 1.72987,0.256827 2.31569,0.768359c0.583698,0.514716 0.922243,1.23319 1.01351,2.16074h-1.71077c-0.0413895,-0.53488 -0.189967,-0.924365 -0.445733,-1.16527c-0.257888,-0.241969 -0.648435,-0.361893 -1.1727,-0.361893c-0.569902,0 -0.99547,0.203764 -1.27883,0.612352c-0.283359,0.408589 -0.428753,1.04323 -0.436182,1.90073v0.628271c0,0.896772 0.135842,1.55158 0.407527,1.96653c0.270624,0.413895 0.700438,0.619781 1.2852,0.619781c0.528512,0 0.923304,-0.119923 1.18332,-0.360831c0.260011,-0.241969 0.40965,-0.614475 0.447856,-1.1207h1.7097Z" transform="translate(3.02749, 4.76385)"></path><path d="M2.46585,1.44045h1.39691v0.960527h-1.39691v1.50284h-1.06534v-1.50284h-1.40051v-0.960527h1.40051v-1.44045h1.06534Z" transform="translate(11.0803, 4.57507)"></path><path d="M2.46585,1.44045h1.39691v0.960528h-1.39691v1.50284h-1.06534v-1.50284h-1.40051v-0.960528h1.40051v-1.44045h1.06534Z" transform="translate(11.0803, 9.57612)"></path></g></g></g></g><defs><mask id="mask-1" maskContentUnits="userSpaceOnUse" maskUnits="objectBoundingBox"><g fill="#FFFFFF" transform="translate(0.0002, 0)"><path d="M8.9999,0h-8.9999v18h8.9999h8.9999v-18Z"></path></g></mask></defs></svg>