<svg width="24px" height="24px" viewBox="0 0 24 24"  version="1.1" xmlns="http://www.w3.org/2000/svg" xmlns:xlink="http://www.w3.org/1999/xlink">
        <defs>
            <rect id="path-1" x="3" y="14" width="20" height="8"></rect>
        </defs>
        <g id="Page-1" stroke="none" stroke-width="1" fill="none" fill-rule="evenodd">
            <g id="Group" transform="translate(-1.000000, -1.000000)">
                <g id="canvas-widget_blue">
                    <path d="M0.95837,0 L0.95837,24 L25,24 L25,0 L0.95837,0 Z M8,18 L5,18 L5,15 L8,15 L8,18 Z M8,13 L5,13 L5,10 L8,10 L8,13 Z M8,8 L5,8 L5,5 L8,5 L8,8 Z M22,8 L15,8 L15,10 L22,10 L22,13 L15,13 L15,15 L22,15 L22,18 L15,18 L14,18 L9,18 L9,15 L14,15 L14,13 L9,13 L9,10 L14,10 L14,8 L9,8 L9,5 L14,5 L15,5 L22,5 L22,8 Z" id="Shape"></path>
                    <rect id="Rectangle-path" stroke="#6F6F6F" fill="#FFFFFF" fill-rule="nonzero" x="3" y="3" width="7" height="9"></rect>
                    <circle id="Oval" stroke="#6F6F6F" fill="#FFFFFF" cx="14" cy="12" r="6"></circle>
                </g>
                <g id="Rectangle">
                    <use fill="#FFFFFF" fill-rule="evenodd" xlink:href="#path-1"></use>
                    <rect stroke="#6F6F6F" stroke-width="1" x="3.5" y="14.5" width="19" height="7"></rect>
                </g>
            </g>
        </g>
    </svg>
