<?xml version="1.0" encoding="UTF-8"?><svg width="576" height="576" version="1.1" viewBox="0 0 576 576" xmlns="http://www.w3.org/2000/svg" xmlns:xlink="http://www.w3.org/1999/xlink"><!--Generated by IJSVG (https://github.com/curthard89/IJSVG)--><g transform="scale(24)"><g fill="none"><g fill="none"><path d="M2.57221,3.49152c1.08826,0.2912 2.48639,0.49841 4.14764,0.49841c1.6604,0 3.05945,-0.20721 4.14771,-0.49841c1.64355,-0.43866 2.5722,-1.07428 2.5722,-1.49707c0,-0.70367 -2.55078,-1.99445 -6.71991,-1.99445c-4.16907,0 -6.71985,1.29077 -6.71985,1.99445c1e-05,0.42279 0.92866,1.05841 2.57221,1.49707Z" transform="translate(3.99639, 4.25146)"></path><path fill="#6F6F6F" d="M1.72693,13.1243v-2.28845v-0.14746c0.0448,0.02515 0.09149,0.04944 0.13812,0.07373c0.67944,0.36395 1.51105,0.65234 2.43408,0.86517c0.2326,0.05365 0.47577,0.09741 0.71826,0.1416c0.70746,-0.50781 1.49719,-0.96503 2.35822,-1.34839c0.04437,-0.01971 0.08893,-0.03491 0.1333,-0.05414c-1.2511,-0.06146 -2.3349,-0.23535 -3.20978,-0.46948c-1.64355,-0.43958 -2.5722,-1.07422 -2.5722,-1.49701v-2.28851v-0.14838c0.0448,0.02521 0.09149,0.04944 0.13812,0.07465c0.67944,0.3631 1.51105,0.65149 2.43408,0.86523c1.27307,0.29395 2.7113,0.44702 4.14764,0.44702c1.4364,0 2.87372,-0.15308 4.14771,-0.44702c0.92395,-0.21375 1.75464,-0.50214 2.435,-0.86523c0.04572,-0.02521 0.09241,-0.04852 0.13721,-0.07465v0.14838v2.28851c0,0.28766 -0.43903,0.67267 -1.23163,1.02832c1.159,0.20001 2.16473,0.62982 2.91156,1.27722c0,-4.61609 0,-6.96399 0,-7.03094c0,-2.4126 -4.2251,-3.67444 -8.39984,-3.67444c-3.68469,0 -8.32941,1.11871 -8.39978,3.32837c-0.047,1.47314 -0.047,4.73846 -4.44089e-16,9.7959c0,0.28284 0.0625,0.54883 0.17261,0.79987c0.26276,0.60394 0.82367,1.11444 1.58258,1.53107c0.22662,-0.48547 0.51526,-0.96686 0.86981,-1.43481c-0.61237,-0.31678 -0.94507,-0.64424 -0.94507,-0.89613Zm6.71985,-11.4443c4.16913,4.44089e-16 6.71991,1.29077 6.71991,1.99445c0,0.42279 -0.92865,1.05841 -2.5722,1.49707c-1.08826,0.2912 -2.4873,0.49841 -4.14771,0.49841c-1.66125,0 -3.05939,-0.20721 -4.14764,-0.49841c-1.64356,-0.43866 -2.57221,-1.07428 -2.57221,-1.49707c0,-0.70367 2.55078,-1.99445 6.71985,-1.99445Z" transform="translate(2.26947, 2.57147)"></path><path fill="#FFFFFF" d="M0.25153,0.2459c0.38562,1.01715 0.30176,2.14606 -0.22913,3.09613l-0.0224,0.04474l0.01678,-0.01117c0.60358,-0.39679 1.1792,-0.83832 1.72131,-1.31335c0.30182,-0.24036 0.58124,-0.50861 0.83832,-0.79364c0.11737,-0.13971 0.22919,-0.28503 0.3465,-0.43591c-0.94446,-0.21796 -1.88336,-0.49182 -2.79993,-0.8327c0.05031,0.08379 0.08943,0.16203 0.12855,0.2459Z" transform="translate(15.826, 15.9579)"></path><path fill="#6F6F6F" d="M18.1356,2.54851c-0.10059,-0.12299 -0.27942,-0.15094 -0.41357,-0.05591c-0.54767,0.31854 -1.18481,0.46948 -1.81635,0.4527c-0.10712,0.0011 -0.21252,-0.01202 -0.31909,-0.01605c-0.42169,-0.01587 -0.83978,-0.06128 -1.24573,-0.1684c0.38794,-0.18445 0.72894,-0.44763 1.01672,-0.76031c0.21796,-0.23688 0.40839,-0.49945 0.5481,-0.79333c0.13416,-0.27948 -0.32971,-0.51416 -0.48065,-0.24591c-0.09534,0.16504 -0.21423,0.31268 -0.34277,0.45148c-0.26312,0.28424 -0.58398,0.51422 -0.94818,0.66071c-0.35773,0.15643 -0.74335,0.22351 -1.13452,0.20117c0.16766,-0.17328 0.30176,-0.36884 0.40796,-0.58124c0.13971,-0.30182 -0.33533,-0.52533 -0.50299,-0.25708c-0.28503,0.44153 -0.73773,0.35211 -1.17365,0.46387l-0.12854,-0.04474c0.18445,-0.21234 0.32416,-0.45825 0.41919,-0.7265c0.12292,-0.32416 -0.38568,-0.59802 -0.55334,-0.27948c-0.09497,0.19562 -0.2403,0.35773 -0.41351,0.48065c-0.12299,0.08386 -0.2627,0.13971 -0.38007,0.21796c-0.25146,-0.07263 -0.50854,-0.13971 -0.76569,-0.19562l0.06708,-0.20679c0.05591,-0.17322 0.12299,-0.3465 0.18445,-0.51971c0.15649,-0.41919 -0.47504,-0.62598 -0.64832,-0.22913c-0.07825,0.17322 -0.14526,0.34088 -0.22351,0.50854c-0.05591,0.1062 -0.10065,0.2124 -0.12854,0.32416c-0.30743,-0.02795 -0.61481,-0.03912 -0.91656,-0.03351c0.01672,-0.06152 0.02234,-0.12854 0.02234,-0.19562c0,-0.06708 0,-0.12854 -0.01117,-0.19562c-0.01678,-0.05029 -0.02234,-0.09503 -0.02795,-0.14532c0.00562,-0.12854 -0.07263,-0.24591 -0.19,-0.29059c-0.15649,-0.06146 -0.32977,0.01672 -0.39124,0.16766c-0.02234,0.03912 -0.05029,0.07263 -0.07263,0.10059c-0.03357,0.04468 -0.06152,0.09503 -0.08942,0.14532c-0.06708,0.11737 -0.1062,0.25146 -0.1062,0.39117l0.01117,0.10065c-0.22913,0.03906 -0.4527,0.07263 -0.67627,0.12854l-0.07263,-0.23474c-0.08942,-0.17328 -0.2962,-0.25153 -0.46942,-0.17328c-0.08948,0.04474 -0.15094,0.11737 -0.18445,0.20679c-0.02795,0.08942 -0.02234,0.17883 0.01117,0.2627l0.04474,0.12292c-0.13977,0.04474 -0.27948,0.09503 -0.41919,0.14532c-0.62592,0.2403 -1.23511,0.54767 -1.79401,0.92212c-0.54768,0.37445 -1.03395,0.82159 -1.45869,1.33013c-0.22913,0.2627 -0.41913,0.56445 -0.63708,0.83276c-0.20679,0.25146 -0.4024,0.50854 -0.58685,0.77679c-0.38,0.56451 -0.71533,1.15692 -1.00598,1.77167c-0.13971,0.29059 0.35773,0.54211 0.51422,0.25708c0.38,-0.67065 0.81036,-1.3078 1.30212,-1.89459c0.20679,-0.28503 0.44714,-0.5365 0.71539,-0.76569c0.2962,-0.2403 0.61475,-0.4527 0.93335,-0.67065c0.96686,-0.71533 2.06226,-1.24628 3.23029,-1.55927c0.86627,-0.19556 1.76605,-0.21796 2.64349,-0.07263c0.15649,0.11737 0.2962,0.2627 0.41357,0.41913c0.21796,0.30182 0.35767,0.64832 0.40796,1.02277c0.06708,0.76569 -0.13409,1.53693 -0.57007,2.17401c-0.17883,0.32977 -0.44147,0.60919 -0.76007,0.81042c-0.32416,0.16766 -0.68182,0.26825 -1.05066,0.29059c-0.79919,0.11176 -1.61517,-0.06146 -2.297,-0.49738c-0.57562,-0.43597 -0.94452,-1.08423 -1.02832,-1.79962c-0.05029,-0.41913 -0.67627,-0.29059 -0.6427,0.12299c0.12292,1.05627 0.7265,2.00635 1.63751,2.5708c0.19,0.12854 0.38562,0.24591 0.59796,0.34094c-0.12854,0.02234 -0.25146,0.03912 -0.38,0.04468c-0.36328,0.03357 -0.72656,0.00562 -1.08423,0.03357c-0.30182,0.02234 -0.31299,0.48621 -0.05029,0.57001c0.44708,0.11182 0.9054,0.17328 1.36365,0.17889c0.44153,0.03912 0.88861,0.05029 1.33569,0.02234c0.88306,-0.07269 1.74933,-0.29065 2.56525,-0.63715c-0.01672,0.07825 0.00562,0.16211 0.05591,0.21796l0.25708,0.30182c0,0 0,0 0,0.00562c0.09503,0.10614 0.25153,0.12292 0.36328,0.02789c0.1062,-0.09497 0.11737,-0.25708 0.02795,-0.35767l-0.25153,-0.31299l-0.06146,-0.05585c0.30182,-0.13416 0.59802,-0.29065 0.883,-0.45831l0.03912,0.07825c0.15094,0.19562 0.31299,0.3689 0.49744,0.52533c0.08942,0.10065 0.23474,0.12299 0.3465,0.05591c0.11176,-0.06708 0.15088,-0.21234 0.10059,-0.32971c-0.1062,-0.24591 -0.2403,-0.47504 -0.39679,-0.68744l0.10059,-0.06708c0.11737,-0.0838 0.2403,-0.16205 0.35767,-0.25146c0.22919,0.27386 0.50861,0.50299 0.82159,0.68182c0.26263,0.14532 0.6427,-0.18445 0.39117,-0.43036c-0.22913,-0.21796 -0.44708,-0.4527 -0.65387,-0.69861c0.16766,-0.14526 0.32971,-0.30176 0.48621,-0.46387l0.16766,0.07269c0.2627,0.10059 0.54773,0.09497 0.80481,0.21796c0.26263,0.11737 0.44708,-0.28503 0.22351,-0.44153c-0.20673,-0.17883 -0.40796,-0.36884 -0.59241,-0.57562l0.16211,-0.2124c0.20679,-0.01672 0.41913,-0.00555 0.62036,0.03912c0.1701,0.05292 0.3255,0.13879 0.47339,0.23773c0.0708,0.0473 0.14331,0.09186 0.20844,0.14789c0.22351,0.17883 0.5365,-0.17322 0.34088,-0.38c-0.10791,-0.11353 -0.23212,-0.20703 -0.35303,-0.30463c-0.24231,-0.19556 -0.5,-0.36969 -0.78705,-0.48901c0.07825,-0.12854 0.14532,-0.26825 0.20117,-0.40796h0.03357c0.25214,0.02161 0.50629,0.01428 0.75952,-0.00244c0.336,-0.02222 0.67023,-0.06799 0.9953,-0.15405c0.57568,-0.19562 1.10101,-0.50299 1.53693,-0.91095c0.11181,-0.1062 0.12853,-0.27386 0.03912,-0.39678Zm-4.61634,1.78277c-0.25708,0.28503 -0.5365,0.55328 -0.83832,0.79364c-0.54211,0.47504 -1.11774,0.91656 -1.72131,1.31335l-0.01678,0.01117l0.0224,-0.04474c0.53088,-0.95007 0.61475,-2.07898 0.22913,-3.09613c-0.03912,-0.08386 -0.07825,-0.16211 -0.12854,-0.24591c0.91656,0.34088 1.85547,0.61475 2.79993,0.8327c-0.11732,0.15089 -0.22913,0.29621 -0.34651,0.43592Z" transform="translate(4.88319, 12.8952)"></path><path fill="#6F6F6F" d="M0.84393,2.91175c0.3465,0.2403 0.78241,0.31854 1.19598,0.21234c0.26825,-0.02795 0.51416,-0.15649 0.70416,-0.35767c0.43591,-0.35767 0.64832,-0.92212 0.55328,-1.48102c-0.11176,-0.65948 -0.6427,-1.17365 -1.30774,-1.26306c-0.17328,-0.02234 -0.35211,-0.01117 -0.51978,0.02795c-0.13409,0.01117 -0.2627,0.03912 -0.38562,0.09497c0.14532,0.06708 0.2627,0.18445 0.32971,0.32977c0.03357,0.06708 0.06152,0.12854 0.06708,0.19562c0.06708,0.3465 -0.16205,0.68182 -0.50854,0.74329c-0.22357,0.05591 -0.45831,-0.00562 -0.63153,-0.16766c-0.05029,-0.04474 -0.09503,-0.11176 -0.12299,-0.17883l-0.02234,0.06146c-0.1956,0.67065 0.06709,1.3916 0.64833,1.78284Z" transform="translate(10.5737, 16.1004)"></path></g><path d="M0,0h24v24h-24Z"></path></g></g></svg>