<?xml version="1.0" encoding="utf-8"?>
<!-- Generator: Adobe Illustrator 19.1.0, SVG Export Plug-In . SVG Version: 6.00 Build 0)  -->
<svg version="1.1" id="Layer_4" xmlns="http://www.w3.org/2000/svg" xmlns:xlink="http://www.w3.org/1999/xlink" x="0px" y="0px"
	 width="24px" height="24px" viewBox="0 0 24 24" enable-background="new 0 0 24 24" xml:space="preserve">
<path fill="#585D63" d="M11.95833,3c-4.97058,0-9,4.02942-9,9c0,4.97052,4.02942,9,9,9s9-4.02948,9-9
	C20.95833,7.02942,16.92892,3,11.95833,3z M18.86245,13.1048c-1.52637,0.21997-2.90949,0.07849-4.14777-0.29193
	c0.4118-1.18378,1.45105-2.48334,3.57153-3.78613c0.42651,0.90393,0.67212,1.9093,0.67212,2.97327
	C18.95833,12.37677,18.92006,12.74396,18.86245,13.1048z M14.44497,5.4646c-0.41193,0.80707-1.78882,3.29169-1.89038,6.42395
	c-3.04797-1.73346-4.82745-4.59674-5.16504-5.18018C8.61709,5.64703,10.21212,5,11.95833,5
	C12.83492,5,13.67098,5.16901,14.44497,5.4646z M6.29879,16.1026c2.3479-1.24457,4.60156-1.59705,6.51758-1.52148
	c0.28925,1.26996,0.84113,2.58575,1.78113,3.89832C13.78219,18.81274,12.89217,19,11.95833,19
	C9.63167,19,7.57235,17.85449,6.29879,16.1026z M16.11214,17.62122c-0.36139-0.35339-1.32874-1.41748-1.56891-2.8587
	c1.48499,0.25507,2.64349,0.70581,3.30243,1.00964C17.38442,16.4895,16.79586,17.11462,16.11214,17.62122z"/>
</svg>
