<?xml version="1.0" encoding="UTF-8"?><svg width="576" height="576" version="1.1" viewBox="0 0 576 576" xmlns="http://www.w3.org/2000/svg" xmlns:xlink="http://www.w3.org/1999/xlink"><!--Generated by IJSVG (https://github.com/curthard89/IJSVG)--><g transform="scale(24)"><g fill="none" fill-rule="evenodd" stroke="none" stroke-width="1"><use xlink:href="#path-1"></use><g transform="translate(12, 12)"><g transform="rotate(-180)"><g transform="translate(-12, -12)"><g stroke="none" stroke-width="1"><use fill="none" fill-rule="evenodd" xlink:href="#path-1"></use><path fill="#6F6F6F" d="M5.77516,1.24968c1.24968,1.24968 1.24968,3.27581 0,4.52548c-1.24968,1.24968 -3.27581,1.24968 -4.52548,0c-1.24968,-1.24968 -1.24968,-3.27581 -8.88178e-16,-4.52548c1.24968,-1.24968 3.27581,-1.24968 4.52548,0" transform="translate(3.68758, 10.8876)"></path><path fill="#6F6F6F" d="M3.60948,0.781049c0.781049,0.781049 0.781049,2.04738 0,2.82843c-0.781049,0.781049 -2.04738,0.781049 -2.82843,0c-0.781049,-0.781049 -0.781049,-2.04738 0,-2.82843c0.781049,-0.781049 2.04738,-0.781049 2.82843,0" transform="translate(12.6047, 15.8047)"></path><path fill="#6F6F6F" d="M8.66274,1.87452c1.87452,1.87452 1.87452,4.91371 0,6.78823c-1.87452,1.87452 -4.91371,1.87452 -6.78823,0c-1.87452,-1.87452 -1.87452,-4.91371 -1.77636e-15,-6.78823c1.87452,-1.87452 4.91371,-1.87452 6.78823,-1.77636e-15" transform="translate(9.93137, 3.53137)"></path></g></g></g></g></g></g><defs><path id="path-1" d="M0,0h24v24h-24Z"></path></defs></svg>