<?xml version="1.0" encoding="utf-8"?>
<!-- Generator: Adobe Illustrator 22.0.1, SVG Export Plug-In . SVG Version: 6.00 Build 0)  -->
<svg version="1.1" id="Layer_1" xmlns="http://www.w3.org/2000/svg" xmlns:xlink="http://www.w3.org/1999/xlink" x="0px" y="0px"
	 viewBox="0 0 24 24" style="enable-background:new 0 0 24 24;" xml:space="preserve">
<style type="text/css">
	.st0{fill:#585D63;}
	.st1{fill:none;}
</style>
<title>circular view flow map</title>
<desc>Created with Sketch.</desc>
<g>
	<path class="st0" d="M18.6,11.8c0.7,0.2,1.4,0.4,2,0.8c0-0.2,0-0.5,0-0.7c0-4.8-3.9-8.6-8.6-8.6c-0.3,0-0.5,0-0.8,0
		c0.4,0.6,0.7,1.2,0.9,2C15.7,5.4,18.6,8.3,18.6,11.8z"/>
	<path class="st0" d="M5.4,12.6c-0.7-0.1-1.4-0.4-2-0.8c0,0.1,0,0.1,0,0.2c0,4.8,3.9,8.6,8.6,8.6c0.1,0,0.3,0,0.4,0
		c-0.4-0.6-0.6-1.3-0.8-2C8.3,18.4,5.7,15.8,5.4,12.6z"/>
	<path class="st0" d="M6.5,10.7c2.1,0,3.9-1.7,3.9-3.9c0-2.1-1.7-3.9-3.9-3.9c-2.1,0-3.9,1.7-3.9,3.9C2.6,8.9,4.3,10.7,6.5,10.7z"/>
	<path class="st0" d="M17.4,13.7c-2.1,0-3.9,1.7-3.9,3.9s1.7,3.9,3.9,3.9s3.9-1.7,3.9-3.9S19.5,13.7,17.4,13.7z"/>
</g>
<rect class="st1" width="24" height="24"/>
</svg>
