<?xml version="1.0" encoding="UTF-8"?><svg width="576" height="576" version="1.1" viewBox="0 0 576 576" xmlns="http://www.w3.org/2000/svg" xmlns:xlink="http://www.w3.org/1999/xlink"><!--Generated by IJSVG (https://github.com/curthard89/IJSVG)--><g transform="scale(24)"><g fill="none"><g fill="#6F6F6F"><path d="M7.4,8.5c0.7,0.2 1.4,0.4 2,0.8c0,-0.2 0,-0.5 0,-0.7c0,-4.8 -3.9,-8.6 -8.6,-8.6c-0.3,0 -0.5,0 -0.8,0c0.4,0.6 0.7,1.2 0.9,2c3.6,0.1 6.5,3 6.5,6.5Z" transform="translate(11.2, 3.3)"></path><path d="M2,0.8c-0.7,-0.1 -1.4,-0.4 -2,-0.8c0,0.1 0,0.1 0,0.2c0,4.8 3.9,8.6 8.6,8.6c0.1,0 0.3,0 0.4,0c-0.4,-0.6 -0.6,-1.3 -0.8,-2c-3.3,-0.2 -5.9,-2.8 -6.2,-6Z" transform="translate(3.4, 11.8)"></path><path d="M3.9,7.8c2.1,0 3.9,-1.7 3.9,-3.9c0,-2.1 -1.7,-3.9 -3.9,-3.9c-2.1,0 -3.9,1.7 -3.9,3.9c0,2.1 1.7,3.9 3.9,3.9Z" transform="translate(2.6, 2.9)"></path><path d="M3.9,0c-2.1,0 -3.9,1.7 -3.9,3.9c0,2.2 1.7,3.9 3.9,3.9c2.2,0 3.9,-1.7 3.9,-3.9c0,-2.2 -1.8,-3.9 -3.9,-3.9Z" transform="translate(13.5, 13.7)"></path></g><path d="M0,0h24v24h-24Z"></path></g></g></svg>