<?xml version="1.0" encoding="UTF-8"?><svg width="576" height="576" version="1.1" viewBox="0 0 576 576" xmlns="http://www.w3.org/2000/svg" xmlns:xlink="http://www.w3.org/1999/xlink"><!--Generated by IJSVG (https://github.com/curthard89/IJSVG)--><g transform="scale(24)"><g fill="none" fill-rule="evenodd" stroke="none" stroke-width="1"><path d="M0,0h24v24h-24Z"></path><g transform="translate(2, 2)"><path fill="#6F6F6F" stroke="none" stroke-width="1" d="M10,0c-5.52002,0 -10,4.47998 -10,10c0,5.52002 4.47998,10 10,10c5.52002,0 10,-4.47998 10,-10c0,-5.52002 -4.47998,-10 -10,-10Zm-2.05927,11.4011c0.0614,0.40527 0.19647,0.77368 0.36841,1.08069c0.17194,0.30701 0.41748,0.56488 0.72449,0.76141c0.28253,0.18414 0.65094,0.27014 1.09302,0.28241c0.25787,-0.01227 0.50354,-0.0368 0.73688,-0.12274c0.24554,-0.086 0.45435,-0.20886 0.63849,-0.36841c0.18427,-0.15967 0.3316,-0.34393 0.4422,-0.56494c0.11047,-0.22107 0.17181,-0.45441 0.18414,-0.71228h2.19824c-0.01227,0.50354 -0.1474,0.97021 -0.36847,1.41229c-0.22101,0.44208 -0.52808,0.82275 -0.90875,1.15436c-0.38068,0.33148 -0.82275,0.58942 -1.32629,0.77368c-0.50349,0.18415 -1.04383,0.28241 -1.62098,0.28241c-0.79828,0 -1.49823,-0.14734 -2.08771,-0.41754c-0.58948,-0.27014 -1.08069,-0.65088 -1.47369,-1.11749c-0.39294,-0.46667 -0.68768,-1.01935 -0.87189,-1.65784c-0.1842,-0.63861 -0.28247,-1.30182 -0.28247,-2.01404v-0.3316c0,-0.71228 0.1106,-1.37543 0.29474,-2.01404c0.18427,-0.63849 0.47894,-1.19116 0.87195,-1.6701c0.39301,-0.47894 0.88415,-0.84735 1.47369,-1.12982c0.58942,-0.28247 1.28943,-0.41754 2.08759,-0.41754c0.62634,0 1.19128,0.086 1.70703,0.28253c0.51575,0.19641 0.95789,0.46655 1.32629,0.81042c0.36841,0.34393 0.65082,0.76141 0.85968,1.24036c0.20874,0.47894 0.31927,1.00702 0.34381,1.58417h-2.19818c-0.01233,-0.27014 -0.0614,-0.54034 -0.17194,-0.78595c-0.11053,-0.24554 -0.24567,-0.46661 -0.41754,-0.65082c-0.17194,-0.18427 -0.39294,-0.3316 -0.63861,-0.44214c-0.23334,-0.09821 -0.49121,-0.14734 -0.77368,-0.15961c-0.45435,0.01227 -0.82275,0.09814 -1.11755,0.28241c-0.30701,0.19653 -0.55255,0.45435 -0.72449,0.76141c-0.17194,0.30701 -0.30701,0.66315 -0.36841,1.06836c-0.06146,0.40527 -0.09827,0.81055 -0.09827,1.24036v0.3316c1e-05,0.40528 0.03681,0.82276 0.09827,1.22803Z"></path></g></g></g></svg>