<?xml version="1.0" encoding="UTF-8"?><svg width="576" height="576" version="1.1" viewBox="0 0 576 576" xmlns="http://www.w3.org/2000/svg" xmlns:xlink="http://www.w3.org/1999/xlink"><!--Generated by IJSVG (https://github.com/curthard89/IJSVG)--><g transform="scale(24)"><g fill="none"><g fill="none"><g transform="translate(2, 2)"><g fill="#6F6F6F"><path mask="url(#mask-1)" d="M16.3,14.9l-11.2,-11.2c1.4,-1.1 3,-1.7 4.9,-1.7c4.4,0 8,3.6 8,8c0,1.8 -0.6,3.5 -1.7,4.9m-6.3,3.1c-4.4,0 -8,-3.6 -8,-8c0,-1.8 0.6,-3.5 1.7,-4.9l11.2,11.2c-1.4,1.1 -3.1,1.7 -4.9,1.7m0,-18c-5.5,0 -10,4.5 -10,10c0,5.5 4.5,10 10,10c5.5,0 10,-4.5 10,-10c0,-5.5 -4.5,-10 -10,-10"></path></g></g><use xlink:href="#path-1"></use></g><use xlink:href="#path-1"></use></g></g><defs><mask id="mask-1" maskContentUnits="userSpaceOnUse" maskUnits="objectBoundingBox"><path fill="#FFFFFF" d="M0,0v20h20v-20Z"></path></mask><path id="path-1" d="M0,0h24v24h-24Z"></path></defs></svg>