<?xml version="1.0" encoding="UTF-8"?>
<svg width="24px" height="24px" viewBox="0 0 24 24" version="1.1" xmlns="http://www.w3.org/2000/svg" xmlns:xlink="http://www.w3.org/1999/xlink">
    <!-- Generator: Sketch 47.1 (45422) - http://www.bohemiancoding.com/sketch -->
    <title>close</title>
    <desc>Created with Sketch.</desc>
    <defs></defs>
    <g id="navigation" stroke="none" stroke-width="1" fill="none" fill-rule="evenodd">
        <g id="close">
            <rect id="Rectangle-12" x="0" y="0" width="24" height="24"></rect>
            <g id="ic_close_black_24px-(1)">
                <path d="M18.295,5.705 L18.295,5.705 L18.295,5.705 C17.9056393,5.31563925 17.2743607,5.31563925 16.885,5.705 L12,10.59 L7.115,5.705 L7.115,5.705 C6.72563925,5.31563925 6.09436075,5.31563925 5.705,5.705 L5.705,5.705 L5.705,5.705 C5.31563925,6.09436075 5.31563925,6.72563925 5.705,7.115 L10.59,12 L5.705,16.885 L5.705,16.885 C5.31563925,17.2743607 5.31563925,17.9056393 5.705,18.295 L5.705,18.295 L5.705,18.295 C6.09436075,18.6843607 6.72563925,18.6843607 7.115,18.295 L12,13.41 L16.885,18.295 L16.885,18.295 C17.2743607,18.6843607 17.9056393,18.6843607 18.295,18.295 L18.295,18.295 L18.295,18.295 C18.6843607,17.9056393 18.6843607,17.2743607 18.295,16.885 L13.41,12 L18.295,7.115 L18.295,7.115 C18.6843607,6.72563925 18.6843607,6.09436075 18.295,5.705 Z" id="Shape" fill="#585D63" fill-rule="nonzero"></path>
                <polygon id="Shape" points="0 0 24 0 24 24 0 24"></polygon>
            </g>
        </g>
    </g>
</svg>
