<?xml version="1.0" encoding="UTF-8"?><svg width="576" height="576" version="1.1" viewBox="0 0 576 576" xmlns="http://www.w3.org/2000/svg" xmlns:xlink="http://www.w3.org/1999/xlink"><!--Generated by IJSVG (https://github.com/curthard89/IJSVG)--><g transform="scale(24)"><g fill="none" fill-rule="evenodd" stroke="none" stroke-width="1"><use xlink:href="#path-1"></use><g stroke="none" stroke-width="1"><path fill="#6F6F6F" d="M12.9794,0.389361v0v0c-0.389361,-0.389361 -1.02064,-0.389361 -1.41,0l-4.885,4.885l-4.885,-4.885v0c-0.389361,-0.389361 -1.02064,-0.389361 -1.41,0v0v0c-0.389361,0.389361 -0.389361,1.02064 0,1.41l4.885,4.885l-4.885,4.885v0c-0.389361,0.389361 -0.389361,1.02064 0,1.41v0v0c0.389361,0.389361 1.02064,0.389361 1.41,0l4.885,-4.885l4.885,4.885v0c0.389361,0.389361 1.02064,0.389361 1.41,0v0v0c0.389361,-0.389361 0.389361,-1.02064 0,-1.41l-4.885,-4.885l4.885,-4.885v0c0.389361,-0.389361 0.389361,-1.02064 0,-1.41Z" transform="translate(5.31564, 5.31564)"></path><use fill="none" fill-rule="evenodd" xlink:href="#path-1"></use></g></g></g><defs><path id="path-1" d="M0,0h24v24h-24Z"></path></defs></svg>