<?xml version="1.0" encoding="UTF-8"?><svg width="576" height="576" version="1.1" viewBox="0 0 576 576" xmlns="http://www.w3.org/2000/svg" xmlns:xlink="http://www.w3.org/1999/xlink"><!--Generated by IJSVG (https://github.com/curthard89/IJSVG)--><g transform="scale(24)"><g fill="none"><g fill="#6F6F6F"><path d="M2,9.9c0,-2.2 1.7,-4 3.8,-4.3h0.5l0.2,-0.5c1,-1.9 2.9,-3 5,-3c2.7,0 5,1.9 5.5,4.5l0.1,0.6h0.7c0.9,0.1 1.8,0.5 2.3,1.2h2.3c-0.7,-1.5 -2.1,-2.5 -3.7,-2.9c-0.9,-3.2 -3.9,-5.5 -7.2,-5.5c-2.7,0.1 -5.1,1.5 -6.4,3.8c-2.9,0.5 -5.1,3.1 -5.1,6.1c0,3.4 2.8,6.2 6.2,6.2h5.6v-2h-5.5c-2.4,0 -4.3,-1.9 -4.3,-4.2Z" transform="translate(0.5, 3.2)"></path><path fill="#FF3B30" d="M7.3,0v0h-6.3c-0.6,0 -1,0.4 -1,1v2.7v2v1.6c0,0.6 0.4,1 1,1h6.3c0.6,0 1,-0.4 1,-1v-4v-2.4c0,-0.5 -0.5,-0.9 -1,-0.9Z" transform="translate(14.3, 13.7)"></path></g><path d="M0,0h24v24h-24Z"></path></g></g></svg>