<?xml version="1.0" encoding="UTF-8"?><svg width="576" height="576" version="1.1" viewBox="0 0 576 576" xmlns="http://www.w3.org/2000/svg" xmlns:xlink="http://www.w3.org/1999/xlink"><!--Generated by IJSVG (https://github.com/curthard89/IJSVG)--><g transform="scale(24)"><g fill="none"><g fill="#6F6F6F"><path d="M18.7,5.5c-0.9,-3.2 -3.9,-5.5 -7.2,-5.5c-2.7,-8.88178e-16 -5.1,1.4 -6.4,3.7c-2.9,0.5 -5.1,3.1 -5.1,6.1c0,3.4 2.8,6.2 6.2,6.2h4.9l1.2,-2h-6c-2.4,0 -4.3,-1.9 -4.3,-4.3c0,-2.2 1.7,-4 3.8,-4.3h0.5l0.2,-0.4c1,-1.9 2.9,-3 5,-3c2.7,0 5,1.9 5.5,4.5l0.1,0.6h0.7c1.8,0.1 3.2,1.6 3.2,3.4c0,0.6 -0.2,1.1 -0.4,1.6l1.1,1.9c0.8,-0.9 1.3,-2.1 1.3,-3.5c-3.55271e-15,-2.3 -1.8,-4.5 -4.3,-5Z" transform="translate(0.5, 3.3)"></path><path fill="#FFCC00" d="M7.9,4.7l-1,-1.8l-1.3,-2.3c-0.3,-0.5 -0.9,-0.6 -1.4,-0.4c-0.2,0.1 -0.3,0.2 -0.4,0.4l-1.5,2.7l-1.2,2l-0.8,1.6c-0.3,0.5 -0.1,1.1 0.4,1.4c0.2,0.1 0.3,0.1 0.5,0.1h7.1c0.6,0 1,-0.4 1,-1c0,-0.2 0,-0.3 -0.1,-0.5l-1.3,-2.2Z" transform="translate(12.7, 14)"></path></g><path d="M0,0h24v24h-24Z"></path></g></g></svg>