<?xml version="1.0" encoding="UTF-8"?><svg width="576" height="576" version="1.1" viewBox="0 0 576 576" xmlns="http://www.w3.org/2000/svg" xmlns:xlink="http://www.w3.org/1999/xlink"><!--Generated by IJSVG (https://github.com/curthard89/IJSVG)--><g transform="scale(24)"><g fill="none" fill-rule="evenodd" stroke="none" stroke-width="1"><path d="M0,0h24v24h-24Z"></path><g transform="translate(2, 3)"><g fill="#6F6F6F" stroke="none" stroke-width="1"><path d="M20,13h-2v3h-3v2h5v-5Zm-15,5v-2h-3v-3h-2v5h5Zm-3,-16h3v-2h-5v5h2v-3Zm16,0v3h2v-5h-5v2h3Z"></path><path d="M7.3096,2.2157c1.54853,0 2.80166,1.25313 2.80166,2.80165v0.25473h1.03447c0.84557,0 1.52811,0.68259 1.52811,1.52817c0,0.84558 -0.68254,1.23625 -1.52811,1.23625h-6.06702h-0.82545c-1.12576,0 -2.03757,-0.61989 -2.03757,-1.74565c0,-1.12576 0.9118,-2.03758 2.03757,-2.03758h0.36168c0.33618,-1.1767 1.41101,-2.03757 2.69466,-2.03757v0Zm0,-2.2157c-1.67295,0 -3.2084,0.84497 -4.12915,2.17458c-1.82759,0.47667 -3.18045,2.14146 -3.18045,4.11627c0,2.29536 1.78876,3.96135 4.25327,3.96135h0.82545h6.06702c2.16932,0 3.74382,-1.45175 3.74382,-3.45195c0,-1.7829 -1.25278,-3.27873 -2.92422,-3.65349c-0.74314,-1.84274 -2.55008,-3.14676 -4.65574,-3.14676v0Z" transform="translate(2.72504, 3.42314)"></path></g></g></g></g></svg>