<?xml version="1.0" encoding="UTF-8"?><svg width="576" height="576" version="1.1" viewBox="0 0 576 576" xmlns="http://www.w3.org/2000/svg" xmlns:xlink="http://www.w3.org/1999/xlink"><!--Generated by IJSVG (https://github.com/curthard89/IJSVG)--><g transform="scale(24)"><g transform="translate(1.04712, 2.5)"><g fill="#6F6F6F"><path d="M18.2656,17.7876h-11.8135c-3.55762,0 -6.45215,-3.10449 -6.45215,-6.91992c0,-3.34277 2.20166,-6.16406 5.20508,-6.7876c1.40918,-2.53027 3.93213,-4.08008 6.69922,-4.08008c3.5,0 6.55469,2.51465 7.50488,6.07471c2.51953,0.56738 4.39941,2.96631 4.39941,5.7793c1e-05,3.27148 -2.48632,5.93359 -5.54296,5.93359Zm-6.36133,-15.7876c-2.15967,0 -4.12939,1.31006 -5.1416,3.41895l-0.23828,0.49756l-0.54834,0.06299c-2.2666,0.26221 -3.97607,2.36328 -3.97607,4.88818c0,2.71289 1.99707,4.91992 4.45215,4.91992h11.8135c1.95312,0 3.54297,-1.76465 3.54297,-3.93359c0,-2.0459 -1.4502,-3.75781 -3.30078,-3.89697l-0.77051,-0.05762l-0.13867,-0.76123c-0.53907,-2.97705 -2.93458,-5.13819 -5.69435,-5.13819Z" transform="translate(-1.00025, -0.24854)"></path></g></g><g fill="#6F6F6F"><path d="M0,0.098v4.998h1.218v-3.724h0.014l0.693,3.724h0.938l0.693,-3.724h0.014v3.724h1.218v-4.998h-1.862l-0.525,2.961h-0.014l-0.525,-2.961h-1.862Zm6.952,2.499c0,0.336 0.00467,0.61483 0.014,0.8365c0.00933,0.22167 0.02917,0.39783 0.0595,0.5285c0.03033,0.13067 0.07467,0.22167 0.133,0.273c0.05833,0.05133 0.1365,0.077 0.2345,0.077c0.098,0 0.17617,-0.02567 0.2345,-0.077c0.05833,-0.05133 0.10267,-0.14233 0.133,-0.273c0.03033,-0.13067 0.05017,-0.30683 0.0595,-0.5285c0.00933,-0.22167 0.014,-0.5005 0.014,-0.8365c0,-0.336 -0.00467,-0.61483 -0.014,-0.8365c-0.00933,-0.22167 -0.02917,-0.39783 -0.0595,-0.5285c-0.03033,-0.13067 -0.07467,-0.22167 -0.133,-0.273c-0.05833,-0.05133 -0.1365,-0.077 -0.2345,-0.077c-0.098,0 -0.17617,0.02567 -0.2345,0.077c-0.05833,0.05133 -0.10267,0.14233 -0.133,0.273c-0.03033,0.13067 -0.05017,0.30683 -0.0595,0.5285c-0.00933,0.22167 -0.014,0.5005 -0.014,0.8365Zm-1.344,0c0,-0.46667 0.03033,-0.8645 0.091,-1.1935c0.06067,-0.329 0.161,-0.59733 0.301,-0.805c0.14,-0.20767 0.32433,-0.35933 0.553,-0.455c0.22867,-0.09567 0.50867,-0.1435 0.84,-0.1435c0.33133,0 0.61133,0.04783 0.84,0.1435c0.22867,0.09567 0.413,0.24733 0.553,0.455c0.14,0.20767 0.24033,0.476 0.301,0.805c0.06067,0.329 0.091,0.72683 0.091,1.1935c0,0.46667 -0.03033,0.8645 -0.091,1.1935c-0.06067,0.329 -0.161,0.59733 -0.301,0.805c-0.14,0.20767 -0.32433,0.35583 -0.553,0.4445c-0.22867,0.08867 -0.50867,0.133 -0.84,0.133c-0.33133,0 -0.61133,-0.04433 -0.84,-0.133c-0.22867,-0.08867 -0.413,-0.23683 -0.553,-0.4445c-0.14,-0.20767 -0.24033,-0.476 -0.301,-0.805c-0.06067,-0.329 -0.091,-0.72683 -0.091,-1.1935Zm4.439,-2.499h1.89c0.378,0 0.672,0.06883 0.882,0.2065c0.21,0.13767 0.3675,0.322 0.4725,0.553c0.105,0.231 0.16917,0.497 0.1925,0.798c0.02333,0.301 0.035,0.61483 0.035,0.9415c0,0.32667 -0.01167,0.6405 -0.035,0.9415c-0.02333,0.301 -0.0875,0.567 -0.1925,0.798c-0.105,0.231 -0.2625,0.41533 -0.4725,0.553c-0.21,0.13767 -0.504,0.2065 -0.882,0.2065h-1.89v-4.998Zm1.302,4.06h0.259c0.126,0 0.22633,-0.0175 0.301,-0.0525c0.07467,-0.035 0.13183,-0.1085 0.1715,-0.2205c0.03967,-0.112 0.06533,-0.27067 0.077,-0.476c0.01167,-0.20533 0.0175,-0.476 0.0175,-0.812c0,-0.336 -0.00583,-0.60667 -0.0175,-0.812c-0.01167,-0.20533 -0.03733,-0.364 -0.077,-0.476c-0.03967,-0.112 -0.09683,-0.1855 -0.1715,-0.2205c-0.07467,-0.035 -0.175,-0.0525 -0.301,-0.0525h-0.259v3.122Z" transform="translate(5.29812, 10.9123)"></path></g><path fill="none" d="M0,0h24v24h-24Z"></path></g></svg>