<?xml version="1.0" encoding="UTF-8"?>
<svg width="24px" height="24px" viewBox="0 0 24 24" version="1.1" xmlns="http://www.w3.org/2000/svg" xmlns:xlink="http://www.w3.org/1999/xlink">
    <!-- Generator: Sketch 47.1 (45422) - http://www.bohemiancoding.com/sketch -->
    <title>cloud auto scaling</title>
    <desc>Created with Sketch.</desc>
    <defs></defs>
    <g id="places" stroke="none" stroke-width="1" fill="none" fill-rule="evenodd">
        <g id="cloud-auto-scaling">
            <rect id="Rectangle-12" x="0" y="0" width="24" height="24"></rect>
            <g id="cloudAutoScaling_template" transform="translate(2.000000, 3.000000)" fill-rule="nonzero" fill="#585D63">
                <path d="M20,13 L18,13 L18,16 L15,16 L15,18 L20,18 L20,13 Z M5,18 L5,16 L2,16 L2,13 L0,13 L0,18 L5,18 Z M2,2 L5,2 L5,0 L0,0 L0,5 L2,5 L2,2 Z M18,2 L18,5 L20,5 L20,0 L15,0 L15,2 L18,2 Z" id="Shape"></path>
                <path d="M10.03464,5.63884 C11.58317,5.63884 12.8363,6.89197 12.8363,8.44049 L12.8363,8.69522 L13.87077,8.69522 C14.71634,8.69522 15.39888,9.37781 15.39888,10.22339 C15.39888,11.06897 14.71634,11.45964 13.87077,11.45964 L7.80375,11.45964 L6.9783,11.45964 C5.85254,11.45964 4.94073,10.83975 4.94073,9.71399 C4.94073,8.58823 5.85253,7.67641 6.9783,7.67641 L7.33998,7.67641 C7.67616,6.49971 8.75099,5.63884 10.03464,5.63884 L10.03464,5.63884 Z M10.03464,3.42314 C8.36169,3.42314 6.82624,4.26811 5.90549,5.59772 C4.0779,6.07439 2.72504,7.73918 2.72504,9.71399 C2.72504,12.00935 4.5138,13.67534 6.97831,13.67534 L7.80376,13.67534 L13.87078,13.67534 C16.0401,13.67534 17.6146,12.22359 17.6146,10.22339 C17.6146,8.44049 16.36182,6.94466 14.69038,6.5699 C13.94724,4.72716 12.1403,3.42314 10.03464,3.42314 L10.03464,3.42314 Z" id="Shape"></path>
            </g>
        </g>
    </g>
</svg>
