<?xml version="1.0" encoding="UTF-8"?><svg width="576" height="576" version="1.1" viewBox="0 0 576 576" xmlns="http://www.w3.org/2000/svg" xmlns:xlink="http://www.w3.org/1999/xlink"><!--Generated by IJSVG (https://github.com/curthard89/IJSVG)--><g transform="scale(24)"><g fill="none"><g fill="#6F6F6F"><path d="M6.3,14.1c-2.4,0 -4.3,-1.9 -4.3,-4.3c0,-2.2 1.7,-4 3.8,-4.3h0.5l0.2,-0.4c1,-1.9 2.9,-3 5,-3c2.7,0 5,1.9 5.5,4.5l0.1,0.6h0.7c1,0.1 1.9,0.6 2.4,1.3h1.5c0.3,0 0.6,0.1 0.9,0.1c-0.7,-1.6 -2.1,-2.8 -3.8,-3.1c-0.9,-3.2 -3.9,-5.5 -7.2,-5.5c-2.8,0.1 -5.2,1.5 -6.5,3.8c-2.9,0.5 -5.1,3.1 -5.1,6.1c0,3.4 2.8,6.2 6.2,6.2h7.5l-1.2,-2h-6.2Z" transform="translate(0.5, 3.2)"></path><path fill="#FF9600" d="M8.7,0.1c-0.2,-0.1 -0.3,-0.1 -0.5,-0.1h-0.7h-6.5c-0.6,0 -1,0.4 -1,1c0,0.2 0,0.3 0.1,0.5l1.2,2l1.2,2l1.2,2.2c0.3,0.5 0.9,0.6 1.4,0.4c0.2,-0.1 0.3,-0.2 0.4,-0.4l1.8,-3.2l1.7,-3c0.3,-0.5 0.2,-1.1 -0.3,-1.4Z" transform="translate(14, 13.8)"></path></g><path d="M0,0h24v24h-24Z"></path></g></g></svg>