<?xml version="1.0" encoding="utf-8"?>
<!-- Generator: Adobe Illustrator 22.0.1, SVG Export Plug-In . SVG Version: 6.00 Build 0)  -->
<svg version="1.1" xmlns="http://www.w3.org/2000/svg" xmlns:xlink="http://www.w3.org/1999/xlink" x="0px" y="0px"
	 viewBox="0 0 24 24" style="enable-background:new 0 0 24 24;" xml:space="preserve">
<style type="text/css">
	.st0{display:none;}
	.st1{display:inline;opacity:0.14;}
	.st2{fill:#9569FF;}
	.st3{fill:none;stroke:#9569FF;stroke-width:0.25;stroke-miterlimit:10;}
	.st4{fill:none;stroke:#9569FF;stroke-width:0.25;stroke-miterlimit:10;stroke-dasharray:0.50517,0.50517;}
	.st5{display:inline;opacity:0.06;}
	.st6{fill:none;}
	.st7{fill:#585D63;}
</style>
<g id="Layer_1">
	<g class="st0">
		<g class="st1">
			<path class="st2" d="M19,3.25c0.96495,0,1.75,0.78505,1.75,1.75v14c0,0.96495-0.78505,1.75-1.75,1.75H5
				c-0.96495,0-1.75-0.78505-1.75-1.75V5c0-0.96495,0.78505-1.75,1.75-1.75H19 M19,3H5C3.9,3,3,3.9,3,5v14c0,1.1,0.9,2,2,2h14
				c1.1,0,2-0.9,2-2V5C21,3.9,20.1,3,19,3L19,3z"/>
		</g>
		<g class="st1">
			<path class="st2" d="M20,5.25c0.96495,0,1.75,0.78505,1.75,1.75v10c0,0.96495-0.78505,1.75-1.75,1.75H4
				c-0.96495,0-1.75-0.78505-1.75-1.75V7c0-0.96495,0.78505-1.75,1.75-1.75H20 M20,5H4C2.9,5,2,5.9,2,7v10c0,1.1,0.9,2,2,2h16
				c1.1,0,2-0.9,2-2V7C22,5.9,21.1,5,20,5L20,5z"/>
		</g>
		<g class="st1">
			<path class="st2" d="M17,2.25c0.96495,0,1.75,0.78505,1.75,1.75v16c0,0.96495-0.78505,1.75-1.75,1.75H7
				c-0.96495,0-1.75-0.78505-1.75-1.75V4c0-0.96495,0.78505-1.75,1.75-1.75H17 M17,2H7C5.9,2,5,2.9,5,4v16c0,1.1,0.9,2,2,2h10
				c1.1,0,2-0.9,2-2V4C19,2.9,18.1,2,17,2L17,2z"/>
		</g>
		<g class="st1">
			<path class="st2" d="M12,2.25c5.37617,0,9.75,4.37383,9.75,9.75s-4.37383,9.75-9.75,9.75S2.25,17.37617,2.25,12
				S6.62383,2.25,12,2.25 M12,2C6.47715,2,2,6.47715,2,12s4.47715,10,10,10s10-4.47715,10-10S17.52285,2,12,2L12,2z"/>
		</g>
		<g class="st1">
			<g>
				<line class="st3" x1="2" y1="2" x2="2.17678" y2="2.17678"/>
				<line class="st4" x1="2.53398" y1="2.53398" x2="21.64462" y2="21.64462"/>
				<line class="st3" x1="21.82322" y1="21.82322" x2="22" y2="22"/>
			</g>
		</g>
		<g class="st1">
			<g>
				<line class="st3" x1="22" y1="2" x2="21.82322" y2="2.17678"/>
				<line class="st4" x1="21.46601" y1="2.53398" x2="2.35538" y2="21.64462"/>
				<line class="st3" x1="2.17678" y1="21.82322" x2="2" y2="22"/>
			</g>
		</g>
		<g class="st1">
			<path class="st2" d="M12,7.25c2.61916,0,4.75,2.13084,4.75,4.75s-2.13084,4.75-4.75,4.75S7.25,14.61916,7.25,12
				S9.38084,7.25,12,7.25 M12,7c-2.76142,0-5,2.23858-5,5s2.23858,5,5,5s5-2.23858,5-5S14.76142,7,12,7L12,7z"/>
		</g>
		<g class="st1">
			<path class="st2" d="M12,8.25c2.06776,0,3.75,1.68224,3.75,3.75s-1.68224,3.75-3.75,3.75S8.25,14.06776,8.25,12
				S9.93224,8.25,12,8.25 M12,8c-2.20914,0-4,1.79086-4,4s1.79086,4,4,4s4-1.79086,4-4S14.20914,8,12,8L12,8z"/>
		</g>
		<g class="st1">
			<path class="st2" d="M12,9.25c1.51636,0,2.75,1.23364,2.75,2.75s-1.23364,2.75-2.75,2.75S9.25,13.51636,9.25,12
				S10.48364,9.25,12,9.25 M12,9c-1.65685,0-3,1.34315-3,3s1.34315,3,3,3s3-1.34315,3-3S13.65685,9,12,9L12,9z"/>
		</g>
		<g class="st5">
			<path class="st2" d="M22,2v20H2V2H22 M24,0H0v24h24V0L24,0z"/>
		</g>
	</g>
</g>
<g id="Layer_2">
	<g>
		<rect x="15.25836" y="19.69855" class="st6" width="0.95697" height="0.95697"/>
		<polygon class="st6" points="15.25836,16.82776 15.25836,18.74164 16.21533,18.74164 16.21533,17.19275 16.21533,16.82776 
			15.7262,16.82776 		"/>
		<path class="st7" d="M7.2807,4.4325c-0.422-0.35699-1.05402-0.29901-1.409,0.12299l-4.63702,5.52301
			c-0.31299,0.37201-0.31299,0.914,0,1.28601l4.63702,5.52301c0.198,0.23499,0.48102,0.35699,0.76697,0.35699
			c0.22705,0,0.45502-0.07703,0.64203-0.23401c0.42297-0.35504,0.47803-0.98602,0.12299-1.409l-4.09796-4.88l4.09796-4.88
			C7.75873,5.41846,7.70367,4.78748,7.2807,4.4325z"/>
		<path class="st7" d="M14.12341,5.54596c0.15997-0.52795-0.13702-1.08698-0.66504-1.24799
			c-0.52997-0.16101-1.08698,0.13599-1.24896,0.66504L8.85938,15.953c-0.15997,0.52795,0.13702,1.08698,0.66504,1.24799
			C9.62238,17.23096,9.71942,17.245,9.81641,17.245c0.42902,0,0.82501-0.27802,0.95697-0.70898L14.12341,5.54596z"/>
		<path class="st7" d="M16.63361,14.54901L15.73682,13l-5.22137,9.0188l-0.04175,0.07208h0.04175H21l-3.30054-5.70093
			L16.63361,14.54901z M16.21533,20.65552h-0.95697v-0.95697h0.95697V20.65552z M16.21533,17.19275v1.54889h-0.95697v-1.91388
			h0.46783h0.48914V17.19275z"/>
		<path class="st7" d="M21.91962,10.07849l-4.638-5.52301c-0.354-0.422-0.98499-0.47998-1.41003-0.12299
			c-0.422,0.35498-0.47699,0.98596-0.12201,1.409l4.099,4.88l-2.1889,2.60596l1.06573,1.84076l3.19421-3.80371
			C22.2326,10.99347,22.2326,10.4505,21.91962,10.07849z"/>
	</g>
</g>
</svg>
