<?xml version="1.0" encoding="UTF-8"?><svg width="576" height="576" version="1.1" viewBox="0 0 576 576" xmlns="http://www.w3.org/2000/svg" xmlns:xlink="http://www.w3.org/1999/xlink"><!--Generated by IJSVG (https://github.com/curthard89/IJSVG)--><g transform="scale(24)"><g fill="none"><g fill="#6F6F6F"><path d="M6.3,0.3c-0.4,-0.3 -1.1,-0.3 -1.4,0.2l-4.6,5.5c-0.3,0.4 -0.3,0.9 2.22045e-16,1.3l4.6,5.5c0.2,0.2 0.5,0.4 0.8,0.4c0.2,0 0.5,-0.1 0.6,-0.2c0.4,-0.4 0.5,-1 0.1,-1.4l-4.1,-4.9l4.1,-4.9c0.4,-0.5 0.3,-1.1 -0.1,-1.5Z" transform="translate(1, 5.1)"></path><path d="M4.4,6.6l-0.8,1c0.4,0.2 0.7,0.6 1,1l0.3,0.6l1.6,-1.9c0.3,-0.4 0.3,-0.9 0,-1.3l-4.6,-5.5c-0.4,-0.4 -1,-0.5 -1.4,-0.1c-0.4,0.4 -0.5,1 -0.1,1.4l4,4.8Z" transform="translate(15.4, 5.1)"></path><path d="M4.8,0.2c-0.5,-0.2 -1.1,0.1 -1.2,0.7l-3.4,11c-0.2,0.5 0.1,1 0.6,1.2c0.1,0 0.2,0 0.3,0c0.4,0 0.8,-0.3 1,-0.7l3.4,-11c0.1,-0.5 -0.2,-1 -0.7,-1.2Z" transform="translate(8.7, 5.1)"></path><path fill="#FFCC00" d="M6.3,1.7l-0.7,-1.2c-0.1,-0.2 -0.3,-0.4 -0.6,-0.4c-0.3,-0.1 -0.6,-0.1 -0.8,0.1c-0.2,0.1 -0.3,0.2 -0.4,0.4l-3.5,6.1c-0.3,0.5 -0.1,1.1 0.4,1.4c0.2,0.1 0.3,0.1 0.5,0.1h7.1c0.6,0 1,-0.4 1,-1c0,-0.2 0,-0.3 -0.1,-0.5l-2.9,-5Z" transform="translate(12.7, 14.2)"></path></g><path d="M0,0h24v24h-24Z"></path></g></g></svg>