<?xml version="1.0" encoding="UTF-8"?><svg width="576" height="576" version="1.1" viewBox="0 0 576 576" xmlns="http://www.w3.org/2000/svg" xmlns:xlink="http://www.w3.org/1999/xlink"><!--Generated by IJSVG (https://github.com/curthard89/IJSVG)--><g transform="scale(24)"><g fill="none"><g fill="#6F6F6F"><path d="M6.3,0.3c-0.4,-0.3 -1,-0.3 -1.4,0.2l-4.6,5.5c-0.3,0.4 -0.3,0.9 2.22045e-16,1.3l4.6,5.5c0.2,0.2 0.5,0.4 0.8,0.4c0.2,0 0.5,-0.1 0.6,-0.2c0.4,-0.4 0.5,-1 0.1,-1.4l-4.1,-5l4.1,-4.9c0.4,-0.4 0.3,-1 -0.1,-1.4Z" transform="translate(1.2, 5.4)"></path><path d="M4.2,6.3h2.5c0,-0.1 -0.1,-0.2 -0.2,-0.3l-4.6,-5.5c-0.4,-0.4 -1,-0.5 -1.4,-0.1c-0.4,0.4 -0.5,1 -0.1,1.4l3.8,4.5Z" transform="translate(15.6, 5.4)"></path><path d="M4.8,0.2c-0.5,-0.2 -1.1,0.1 -1.2,0.7l-3.4,11c-0.2,0.5 0.1,1.1 0.7,1.2c0.1,0 0.2,0 0.3,0c0.4,0 0.8,-0.3 1,-0.7l3.4,-11c0,-0.5 -0.3,-1 -0.8,-1.2Z" transform="translate(8.9, 5.4)"></path><path fill="#FF3B30" d="M7.3,0h-0.3h-2.6h-3.4c-0.6,0 -1,0.4 -1,1v6.3c0,0.6 0.4,1 1,1h6.3c0.6,0 1,-0.4 1,-1v-6.3c3.55271e-15,-0.6 -0.5,-1 -1,-1Z" transform="translate(14.3, 13.7)"></path></g><path d="M0,0h24v24h-24Z"></path></g></g></svg>