<?xml version="1.0" encoding="UTF-8"?><svg width="576" height="576" version="1.1" viewBox="0 0 576 576" xmlns="http://www.w3.org/2000/svg" xmlns:xlink="http://www.w3.org/1999/xlink"><!--Generated by IJSVG (https://github.com/curthard89/IJSVG)--><g transform="scale(24)"><g fill="none"><g fill="none"><g transform="translate(2, 2)"></g><g transform="translate(3, 3)"><path fill="#6F6F6F" d="M14,18h2v-6h-2v6Zm-12,0h2v-10h-2v10Zm16,-10h-2v-8h-2v8h-2v2h6v-2Zm-12,6h2v4h2v-4h2v-2h-6v2Zm4,-14h-2v10h2v-10Zm-4,6v-2h-2v-4h-2v4h-2v2h6Z"></path></g><use xlink:href="#path-1"></use></g><use xlink:href="#path-1"></use></g></g><defs><path id="path-1" d="M0,0h24v24h-24Z"></path></defs></svg>