<?xml version="1.0" encoding="UTF-8"?><svg width="576" height="576" version="1.1" viewBox="0 0 576 576" xmlns="http://www.w3.org/2000/svg" xmlns:xlink="http://www.w3.org/1999/xlink"><!--Generated by IJSVG (https://github.com/curthard89/IJSVG)--><g transform="scale(24)"><g fill="none"><g fill="none"><path d="M1.64941,0c-0.90918,0 -1.64941,0.73975 -1.64941,1.64893c0,0.90967 0.74023,1.6499 1.64941,1.6499c0.90918,0 1.64844,-0.74023 1.64844,-1.6499c-3.55271e-15,-0.90918 -0.73926,-1.64893 -1.64844,-1.64893Z" transform="translate(16.0254, 5.17236)"></path><path d="M1.64893,0c-0.90918,0 -1.64893,0.73975 -1.64893,1.64941c0,0.90918 0.73975,1.64941 1.64893,1.64941c0.90918,0 1.64844,-0.74023 1.64844,-1.64941c-1.77636e-15,-0.90966 -0.73926,-1.64941 -1.64844,-1.64941Z" transform="translate(10.2593, 10.4912)"></path><path d="M0,1.64893c0,0.90918 0.74023,1.64893 1.65039,1.64893c0.90918,0 1.64893,-0.73975 1.64893,-1.64893c0,-0.90918 -0.73975,-1.64893 -1.64893,-1.64893c-0.91016,0 -1.65039,0.73975 -1.65039,1.64893Z" transform="translate(4.63428, 5.17285)"></path><path fill="#6F6F6F" d="M3.32129,6.64404c1.83154,0 3.32178,-1.49023 3.32178,-3.32227c0,-1.83154 -1.49024,-3.32177 -3.32178,-3.32177c-1.83154,0 -3.32129,1.49023 -3.32129,3.32178c0,1.83203 1.48975,3.32226 3.32129,3.32226Zm1.6499,-3.32226c0,0.90918 -0.73975,1.64893 -1.64893,1.64893c-0.91016,0 -1.65039,-0.73975 -1.65039,-1.64893c0,-0.90918 0.74023,-1.64893 1.65039,-1.64893c0.90919,0 1.64893,0.73975 1.64893,1.64893Z" transform="translate(2.9624, 3.5)"></path><path fill="#6F6F6F" d="M7.1831,1.07031c0.05078,-0.2207 0.00879,-0.45654 -0.11572,-0.64697c-0.12451,-0.19043 -0.31494,-0.31836 -0.54004,-0.36133c-0.21826,-0.04004 -0.44287,-0.06201 -0.67236,-0.06201h-2.14209c-2.04736,0 -3.71289,1.66602 -3.71289,3.71289v0.5h1.67188v-0.5c0,-1.125 0.91553,-2.04004 2.04102,-2.04004h2.14209c0.12256,0 0.24268,0.01074 0.36035,0.03223c0.44237,0.07714 0.86962,-0.19923 0.96776,-0.63477Z" transform="translate(0.50049, 10.9678)"></path><path fill="#6F6F6F" d="M3.32129,6.64307c1.83203,0 3.32227,-1.49023 3.32227,-3.32227c0,-1.83105 -1.49023,-3.3208 -3.32227,-3.3208c-1.83105,0 -3.32129,1.48975 -3.32129,3.3208c1e-05,1.83204 1.49024,3.32227 3.32129,3.32227Zm0,-1.67236c-0.90918,0 -1.64941,-0.74023 -1.64941,-1.6499c0,-0.90918 0.74023,-1.64893 1.64941,-1.64893c0.90918,0 1.64844,0.73975 1.64844,1.64893c-3.55271e-15,0.90967 -0.73926,1.6499 -1.64844,1.6499Z" transform="translate(14.3535, 3.50048)"></path><path fill="#6F6F6F" d="M3.52245,0h-2.14355c-0.22949,0 -0.45605,0.02197 -0.6748,0.06348c-0.21875,0.04053 -0.4082,0.16504 -0.5332,0.35107c-0.12598,0.18701 -0.1709,0.42139 -0.12402,0.64697c0.0957,0.44238 0.52246,0.72852 0.96777,0.64355c0.11914,-0.02051 0.24121,-0.03223 0.36523,-0.03223h2.14258c1.125,0 2.04102,0.91504 2.04102,2.04004v0.5h1.67188v-0.5c-2e-05,-2.04686 -1.66603,-3.71288 -3.71291,-3.71288Z" transform="translate(16.2236, 10.9678)"></path><path fill="#6F6F6F" d="M0.34668,1.85205c-0.22998,0.46484 -0.34668,0.95947 -0.34668,1.46924c0,1.83203 1.49023,3.32227 3.32227,3.32227c1.83204,0 3.32227,-1.49023 3.32227,-3.32227c0,-0.35547 -0.05859,-0.70996 -0.1748,-1.05371c-0.45508,-1.35645 -1.71973,-2.26758 -3.14746,-2.26758c-1.26906,0 -2.4092,0.70947 -2.9756,1.85205Zm2.97558,3.11865c-0.90918,0 -1.64893,-0.74023 -1.64893,-1.64941c0,-0.90967 0.73975,-1.64941 1.64893,-1.64941c0.90918,0 1.64844,0.73975 1.64844,1.64941c-1.77636e-15,0.90917 -0.73926,1.64941 -1.64844,1.64941Z" transform="translate(8.58594, 8.81934)"></path><path fill="#6F6F6F" d="M6.75,0h-2.5c-2.34326,0 -4.25,1.66602 -4.25,3.71289v0.5h1.78467v-0.5c0,-1.125 1.10596,-2.04102 2.46533,-2.04102h2.5c1.35938,0 2.46484,0.91602 2.46484,2.04102v0.5h1.78516v-0.5c-3.55271e-15,-2.04688 -1.90625,-3.71289 -4.25,-3.71289Z" transform="translate(6.47949, 16.2871)"></path></g><path d="M0,0h24v24h-24Z"></path></g></g></svg>