<?xml version="1.0" encoding="UTF-8"?><svg width="576" height="576" version="1.1" viewBox="0 0 576 576" xmlns="http://www.w3.org/2000/svg" xmlns:xlink="http://www.w3.org/1999/xlink"><!--Generated by IJSVG (https://github.com/curthard89/IJSVG)--><g transform="scale(24)"><g fill="none"><g fill="none"><g transform="translate(2, 2)"></g><g transform="translate(3, 5)"><g fill="#6F6F6F"><use transform="translate(5, 1)" xlink:href="#path-1"></use><path d="M2.70711,0.585786c0.585786,0.585786 0.585786,1.53553 0,2.12132c-0.585786,0.585786 -1.53553,0.585786 -2.12132,8.88178e-16c-0.585786,-0.585786 -0.585786,-1.53553 0,-2.12132c0.585786,-0.585786 1.53553,-0.585786 2.12132,0" transform="translate(-0.146447, 0.353553)"></path><use transform="translate(0, 6)" xlink:href="#path-1"></use><use transform="translate(14.8536, 5.35355)" xlink:href="#path-2"></use><use transform="translate(5, 11)" xlink:href="#path-1"></use><use transform="translate(-0.146447, 10.3536)" xlink:href="#path-2"></use></g></g><use xlink:href="#path-3"></use></g><use xlink:href="#path-3"></use></g></g><defs><path id="path-1" d="M0,0h13v2h-13Z"></path><path id="path-2" d="M2.70711,0.585786c0.585786,0.585786 0.585786,1.53553 0,2.12132c-0.585786,0.585786 -1.53553,0.585786 -2.12132,0c-0.585786,-0.585786 -0.585786,-1.53553 0,-2.12132c0.585786,-0.585786 1.53553,-0.585786 2.12132,0"></path><path id="path-3" d="M0,0h24v24h-24Z"></path></defs></svg>