<?xml version="1.0" encoding="utf-8"?>
<!-- Generator: Adobe Illustrator 22.0.1, SVG Export Plug-In . SVG Version: 6.00 Build 0)  -->
<svg version="1.1" id="Layer_1" xmlns="http://www.w3.org/2000/svg" xmlns:xlink="http://www.w3.org/1999/xlink" x="0px" y="0px"
	 viewBox="5 0 34 24" style="enable-background:new 5 0 34 24;" xml:space="preserve">
<style type="text/css">
	.st0{fill:#585D63;}
	.st1{fill:none;}
</style>
<path class="st0" d="M29,12.02098L32.9791,16l3.97934-3.97902H29z"/>
<g id="actions">
	<g id="configure">
		<g id="ic_x5F_settings_x5F_black_x5F_24px-_x28_1_x29_">
			<polygon id="Shape" class="st1" points="3.80202,0 27.80202,0 27.80202,24 3.80202,24 			"/>
			<path id="Shape_1_" class="st0" d="M24.81198,13.52825c0.55516,0.43828,0.69953,1.21111,0.35167,1.84822L23.41674,18.398
				c-0.34732,0.63675-1.10876,0.90807-1.78708,0.6426l-1.68695-0.67749c-0.2316,0.15173-0.46581,0.28885-0.70395,0.41112
				l-0.25474,1.77557c-0.08973,0.71783-0.70518,1.24536-1.42324,1.24536h-3.51807c-0.71806,0-1.33351-0.52753-1.42084-1.22745
				l-0.25695-1.79187c-0.24236-0.12329-0.4782-0.26046-0.70789-0.41136L9.9429,19.05243
				c-0.65306,0.23748-1.41049-0.02074-1.74402-0.63284l-1.77116-3.06472c-0.33574-0.61552-0.19136-1.38834,0.36743-1.82948
				l1.42373-1.11335C8.20995,12.2714,8.20537,12.13531,8.20537,12c0-0.13531,0.00457-0.2714,0.01351-0.41204l-1.42737-1.1162
				c-0.55972-0.44189-0.71597-1.2318-0.35167-1.84822L8.18676,5.602c0.34732-0.63675,1.10876-0.90807,1.78708-0.6426
				l1.68695,0.67749c0.2316-0.15172,0.46581-0.28884,0.70395-0.41112l0.25474-1.77557
				c0.08973-0.71783,0.70518-1.24536,1.42324-1.24536h3.51807c0.71806,0,1.33351,0.52753,1.42084,1.22745l0.25695,1.79187
				c0.24236,0.12329,0.4782,0.26046,0.70789,0.41136l1.71414-0.68796c0.65306-0.23748,1.41049,0.02074,1.74402,0.63284
				l1.77116,3.06472c0.33574,0.61552,0.19136,1.38834-0.36743,1.82948l-1.42348,1.11314
				c0.00883,0.13927,0.01325,0.27447,0.01325,0.41224c0,0.13778-0.00443,0.27297-0.01325,0.41225L24.81198,13.52825z
				 M21.67308,17.4187l0.01252-0.02165C21.68125,17.40414,21.67707,17.41136,21.67308,17.4187z M17.00187,20.28382l0.00285-0.01987
				C17.00365,20.27053,17.0027,20.27716,17.00187,20.28382z M14.60403,20.30173c-0.00091-0.00728-0.00195-0.01452-0.00311-0.0217
				L14.60403,20.30173z M9.94255,17.44029c-0.00498-0.00912-0.01013-0.01805-0.01547-0.02677L9.94255,17.44029z M8.16655,9.63271
				C8.16841,9.62956,8.17023,9.6264,8.17202,9.62323L8.16655,9.63271z M9.93042,6.5813
				C9.92644,6.58862,9.92228,6.59582,9.91794,6.60289L9.93042,6.5813z M14.60163,3.71618l-0.00285,0.01987
				C14.59985,3.72947,14.6008,3.72284,14.60163,3.71618z M21.66095,6.55971c0.00497,0.00912,0.01013,0.01805,0.01547,0.02677
				L21.66095,6.55971z M23.18849,14.79758l-1.91452-1.49714l0.07032-0.56255c0.03661-0.29291,0.05384-0.5169,0.05384-0.73789
				s-0.01723-0.44498-0.05384-0.73789l-0.07032-0.56255l0.44659-0.34923l1.46776-1.14776l-1.27295-2.20265l-2.26017,0.9077
				L19.20263,7.5595c-0.39733-0.30564-0.81346-0.54792-1.25589-0.72925L17.4173,6.61327l-0.08122-0.56638l-0.26402-1.84206h-2.54051
				l-0.34536,2.40844l-0.52943,0.21698c-0.42447,0.17396-0.84199,0.41891-1.26561,0.73662l-0.45032,0.33774l-0.52235-0.20978
				L9.68839,6.99999l-1.2732,2.20257l1.91434,1.497l-0.07032,0.56255C10.22334,11.54916,10.20537,11.78447,10.20537,12
				s0.01796,0.45084,0.05384,0.73789l0.07032,0.56255l-0.44659,0.34923l-1.46776,1.14776l1.27295,2.20265l2.26017-0.9077
				l0.45256,0.34812c0.39733,0.30564,0.81346,0.54792,1.2559,0.72924l0.52943,0.21698l0.08122,0.56638l0.26402,1.84206h2.54051
				l0.34536-2.40844l0.52943-0.21698c0.42447-0.17396,0.84199-0.41891,1.26561-0.73662l0.45032-0.33774l0.52235,0.20978
				l1.73012,0.69486L23.18849,14.79758z M15.80175,13.27335c0.7013,0,1.27335-0.57204,1.27335-1.27335
				s-0.57204-1.27335-1.27335-1.27335c-0.7013,0-1.27335,0.57204-1.27335,1.27335S15.10045,13.27335,15.80175,13.27335z
				 M15.80175,15.27335c-1.80587,0-3.27335-1.46747-3.27335-3.27335s1.46747-3.27335,3.27335-3.27335S19.0751,10.19413,19.0751,12
				S17.60762,15.27335,15.80175,15.27335z"/>
		</g>
	</g>
</g>
</svg>
