<?xml version="1.0" encoding="UTF-8"?><svg width="576" height="576" version="1.1" viewBox="0 0 576 576" xmlns="http://www.w3.org/2000/svg" xmlns:xlink="http://www.w3.org/1999/xlink"><!--Generated by IJSVG (https://github.com/curthard89/IJSVG)--><g transform="scale(24)"><g stroke="none" stroke-width="1"><path fill="none" fill-rule="evenodd" d="M0,0h24v24h-24Z"></path><path fill="#6F6F6F" d="M18.7364,11.3234c0.555157,0.438282 0.699531,1.21111 0.351666,1.84822l-1.74691,3.02154c-0.34732,0.636754 -1.10876,0.908073 -1.78708,0.642603l-1.68695,-0.677492c-0.231599,0.151725 -0.465809,0.288844 -0.703951,0.411123l-0.254737,1.77557c-0.0897288,0.71783 -0.705183,1.24536 -1.42324,1.24536h-3.51807c-0.718058,0 -1.33351,-0.527532 -1.42084,-1.22745l-0.256947,-1.79187c-0.242362,-0.12329 -0.478199,-0.260456 -0.707887,-0.411364l-1.71414,0.687955c-0.653061,0.237477 -1.41049,-0.0207376 -1.74402,-0.632843l-1.77116,-3.06472c-0.335737,-0.615518 -0.191363,-1.38834 0.367431,-1.82948l1.42373,-1.11335c-0.0089378,-0.140639 -0.0135129,-0.276735 -0.0135129,-0.412042c0,-0.135308 0.00457521,-0.271404 0.0135131,-0.412045l-1.42737,-1.1162c-0.559724,-0.441887 -0.715969,-1.2318 -0.351666,-1.84822l1.74691,-3.02154c0.34732,-0.636754 1.10876,-0.908073 1.78708,-0.642603l1.68695,0.677492c0.231599,-0.151724 0.465809,-0.288844 0.703951,-0.411123l0.254737,-1.77557c0.0897288,-0.71783 0.705183,-1.24536 1.42324,-1.24536h3.51807c0.718058,0 1.33351,0.527532 1.42084,1.22745l0.256947,1.79187c0.242362,0.12329 0.478199,0.260456 0.707887,0.411365l1.71414,-0.687955c0.653061,-0.237477 1.41049,0.0207376 1.74402,0.632843l1.77116,3.06472c0.335737,0.615518 0.191363,1.38834 -0.367431,1.82948l-1.42347,1.11314c0.0088253,0.139275 0.0132543,0.274466 0.0132543,0.412244c0,0.137779 -0.0044291,0.272971 -0.0132545,0.412247l1.42711,1.116Zm-3.1389,3.89046l0.012519,-0.0216534c-0.0043499,0.0070925 -0.0085253,0.0143113 -0.012519,0.0216534Zm-4.67121,2.86512l0.00285,-0.019875c-0.0010701,0.0065852 -0.002021,0.0132108 -0.00285,0.019875Zm-2.39784,0.0179095c-0.0009104,-0.0072836 -0.0019478,-0.0145158 -0.0031094,-0.0216947l0.0031094,0.0216947Zm-4.66148,-2.86144c-0.0049755,-0.0091217 -0.0101345,-0.0180452 -0.0154702,-0.0267687l0.0154702,0.0267687Zm-1.776,-7.80758c0.00186002,-0.00314772 0.00368593,-0.00630666 0.00547783,-0.00947637l-0.00547783,0.00947637Zm1.76388,-3.05141c-0.00398215,0.00732089 -0.00814494,0.0145191 -0.0124813,0.0215919l0.0124813,-0.0215919Zm4.67121,-2.86512l-0.00285,0.0198749c0.0010701,-0.00658517 0.0020209,-0.0132108 0.00285,-0.0198749Zm7.05932,2.84353c0.0049755,0.00912174 0.0101345,0.0180452 0.0154701,0.0267687l-0.0154701,-0.0267687Zm1.52753,8.23787l-1.91452,-1.49714l0.0703184,-0.562547c0.0366136,-0.292909 0.053844,-0.516904 0.053844,-0.737891c0,-0.220987 -0.0172304,-0.444982 -0.053844,-0.737891l-0.0703184,-0.562547l0.44659,-0.349229l1.46776,-1.14776l-1.27295,-2.20265l-2.26017,0.907699l-0.452557,-0.348121c-0.397332,-0.30564 -0.81346,-0.547919 -1.2559,-0.729245l-0.529435,-0.216981l-0.0812167,-0.566379l-0.264015,-1.84206h-2.54052l-0.345361,2.40844l-0.529435,0.216981c-0.424468,0.173962 -0.841989,0.418908 -1.26561,0.736621l-0.450323,0.337742l-0.522353,-0.20978l-1.73008,-0.694847l-1.2732,2.20257l1.91434,1.497l-0.0703184,0.562547c-0.0358817,0.287054 -0.053844,0.52236 -0.053844,0.737891c0,0.215532 0.0179623,0.450838 0.053844,0.737891l0.0703184,0.562547l-0.44659,0.349229l-1.46776,1.14776l1.27295,2.20265l2.26017,-0.907699l0.452557,0.348121c0.397332,0.30564 0.81346,0.547919 1.2559,0.729245l0.529435,0.216981l0.0812167,0.56638l0.264015,1.84206h2.54052l0.345361,-2.40844l0.529435,-0.216981c0.424468,-0.173962 0.841989,-0.418908 1.26561,-0.736621l0.450323,-0.337742l0.522353,0.20978l1.73012,0.69486l1.27335,-2.20244Zm-7.38674,-1.52423c0.701303,0 1.27335,-0.572043 1.27335,-1.27335c0,-0.701303 -0.572043,-1.27335 -1.27335,-1.27335c-0.701303,0 -1.27335,0.572043 -1.27335,1.27335c0,0.701303 0.572043,1.27335 1.27335,1.27335Zm0,2c-1.80587,0 -3.27335,-1.46747 -3.27335,-3.27335c0,-1.80587 1.46747,-3.27335 3.27335,-3.27335c1.80587,0 3.27335,1.46747 3.27335,3.27335c0,1.80587 -1.46747,3.27335 -3.27335,3.27335Z" transform="translate(2.27353, 2.20483)"></path></g></g></svg>