<?xml version="1.0" encoding="utf-8"?>
<!-- Generator: Adobe Illustrator 22.1.0, SVG Export Plug-In . SVG Version: 6.00 Build 0)  -->
<svg version="1.1" id="Layer_1" xmlns="http://www.w3.org/2000/svg" xmlns:xlink="http://www.w3.org/1999/xlink" x="0px" y="0px"
	 viewBox="0 0 24 24" style="enable-background:new 0 0 24 24;" xml:space="preserve">
<style type="text/css">
	.st0{fill:none;}
	.st1{fill:#585D63;}
</style>
<g id="actions">
	<g id="configure">
		<g id="ic_x5F_settings_x5F_black_x5F_24px-_x28_1_x29_">
			<polygon id="Shape" class="st0" points="-0.2,0 23.8,0 23.8,24 -0.2,24 			"/>
			<path id="Shape_1_" class="st1" d="M20.8,13.5c0.6,0.4,0.7,1.2,0.4,1.8l-1.7,3c-0.3,0.6-1.1,0.9-1.8,0.6l-1.7-0.7
				c-0.2,0.2-0.5,0.3-0.7,0.4L15,20.5c-0.1,0.7-0.7,1.2-1.4,1.2H10c-0.7,0-1.3-0.5-1.4-1.2l-0.3-1.8c-0.2-0.1-0.5-0.3-0.7-0.4
				l-1.7,0.7c-0.7,0.2-1.4,0-1.7-0.6l-1.8-3.1c-0.3-0.6-0.2-1.4,0.4-1.8l1.4-1.1c0-0.1,0-0.3,0-0.4s0-0.3,0-0.4l-1.4-1.1
				C2.2,10,2.1,9.2,2.4,8.6l1.7-3C4.5,5,5.3,4.7,6,5l1.7,0.7c0.2-0.2,0.5-0.3,0.7-0.4l0.3-1.8C8.7,2.7,9.3,2.2,10,2.2h3.5
				c0.7,0,1.3,0.5,1.4,1.2l0.3,1.8c0.2,0.1,0.5,0.3,0.7,0.4l1.7-0.7c0.7-0.2,1.4,0,1.7,0.6l1.8,3.1c0.3,0.6,0.2,1.4-0.4,1.8
				l-1.4,1.1c0,0.1,0,0.3,0,0.4c0,0.1,0,0.3,0,0.4L20.8,13.5z M17.7,17.4L17.7,17.4C17.7,17.4,17.7,17.4,17.7,17.4z M13,20.3
				L13,20.3C13,20.3,13,20.3,13,20.3z M10.6,20.3C10.6,20.3,10.6,20.3,10.6,20.3L10.6,20.3z M5.9,17.4C5.9,17.4,5.9,17.4,5.9,17.4
				L5.9,17.4z M4.2,9.6C4.2,9.6,4.2,9.6,4.2,9.6L4.2,9.6z M5.9,6.6C5.9,6.6,5.9,6.6,5.9,6.6L5.9,6.6z M10.6,3.7L10.6,3.7
				C10.6,3.7,10.6,3.7,10.6,3.7z M17.7,6.6C17.7,6.6,17.7,6.6,17.7,6.6L17.7,6.6z M19.2,14.8l-1.9-1.5l0.1-0.6
				c0-0.3,0.1-0.5,0.1-0.7s0-0.4-0.1-0.7l-0.1-0.6l0.4-0.3l1.5-1.1L17.9,7l-2.3,0.9l-0.5-0.3c-0.4-0.3-0.8-0.5-1.3-0.7l-0.5-0.2
				L13.3,6l-0.3-1.8h-2.5l-0.3,2.4L9.7,6.8C9.2,7,8.8,7.2,8.4,7.6L7.9,7.9L7.4,7.7L5.7,7L4.4,9.2l1.9,1.5l-0.1,0.6
				c0,0.3-0.1,0.5-0.1,0.7s0,0.5,0.1,0.7l0.1,0.6l-0.4,0.3l-1.5,1.1L5.7,17l2.3-0.9l0.5,0.3c0.4,0.3,0.8,0.5,1.3,0.7l0.5,0.2
				l0.1,0.6l0.3,1.8h2.5l0.3-2.4l0.5-0.2c0.4-0.2,0.8-0.4,1.3-0.7l0.5-0.3l0.5,0.2l1.7,0.7L19.2,14.8z M11.8,13.3
				c0.7,0,1.3-0.6,1.3-1.3s-0.6-1.3-1.3-1.3c-0.7,0-1.3,0.6-1.3,1.3S11.1,13.3,11.8,13.3z M11.8,15.3c-1.8,0-3.3-1.5-3.3-3.3
				s1.5-3.3,3.3-3.3s3.3,1.5,3.3,3.3S13.6,15.3,11.8,15.3z"/>
		</g>
	</g>
</g>
</svg>
