<?xml version="1.0" encoding="utf-8"?>
<!-- Generator: Adobe Illustrator 22.1.0, SVG Export Plug-In . SVG Version: 6.00 Build 0)  -->
<svg version="1.1" id="Layer_1" xmlns="http://www.w3.org/2000/svg" xmlns:xlink="http://www.w3.org/1999/xlink" x="0px" y="0px"
	 viewBox="0 0 24 24" style="enable-background:new 0 0 24 24;" xml:space="preserve">
<style type="text/css">
	.st0{fill:none;}
	.st1{fill:#585D63;}
</style>
<title>copy</title>
<desc>Created with Sketch.</desc>
<g>
	<path class="st0" d="M0,0v24h24V0H0z M5,16H3V3c0-1.1,0.9-2,2-2h11v2H5V16z M22,21c0,1.1-0.9,2-2,2H9c-1.1,0-2-0.9-2-2V7
		c0-1.1,0.9-2,2-2h11c1.1,0,2,0.9,2,2V21z"/>
	<path class="st1" d="M16,1H5C3.9,1,3,1.9,3,3v13h2V3h11V1z"/>
	<path class="st1" d="M20,5H9C7.9,5,7,5.9,7,7v14c0,1.1,0.9,2,2,2h11c1.1,0,2-0.9,2-2V7C22,5.9,21.1,5,20,5z M20,21H9V7h11V21z"/>
</g>
</svg>
