<?xml version="1.0" encoding="UTF-8"?><svg width="576" height="576" version="1.1" viewBox="0 0 576 576" xmlns="http://www.w3.org/2000/svg" xmlns:xlink="http://www.w3.org/1999/xlink"><!--Generated by IJSVG (https://github.com/curthard89/IJSVG)--><g transform="scale(24)"><g fill="none"><path d="M0,0v24h24v-24h-24Zm5,16h-2v-13c0,-1.1 0.9,-2 2,-2h11v2h-11v13Zm17,5c0,1.1 -0.9,2 -2,2h-11c-1.1,0 -2,-0.9 -2,-2v-14c0,-1.1 0.9,-2 2,-2h11c1.1,0 2,0.9 2,2v14Z"></path><path fill="#6F6F6F" d="M13,0h-11c-1.1,0 -2,0.9 -2,2v13h2v-13h11v-2Z" transform="translate(3, 1)"></path><path fill="#FFFFFF" d="M0,0h11v14h-11Z" transform="translate(9, 7)"></path><path fill="#6F6F6F" d="M13,0h-11c-1.1,0 -2,0.9 -2,2v14c0,1.1 0.9,2 2,2h11c1.1,0 2,-0.9 2,-2v-14c0,-1.1 -0.9,-2 -2,-2Zm0,16h-11v-14h11v14Z" transform="translate(7, 5)"></path></g></g></svg>