<?xml version="1.0" encoding="utf-8"?>
<!-- Generator: Adobe Illustrator 22.0.1, SVG Export Plug-In . SVG Version: 6.00 Build 0)  -->
<svg version="1.1" id="Layer_1" xmlns="http://www.w3.org/2000/svg" xmlns:xlink="http://www.w3.org/1999/xlink" x="0px" y="0px"
	 viewBox="0 0 24 24" style="enable-background:new 0 0 24 24;" xml:space="preserve">
<style type="text/css">
	.st0{fill:#585D63;}
	.st1{fill:#FFFFFF;}
</style>
<title>mobile crash</title>
<desc>Created with Sketch.</desc>
<g>
	<path class="st0" d="M8.79999,3.90002h7.29999V13h1.80005V3.59998C17.90002,2.70001,17.29999,2,16.5,2H8.40002
		C7.59998,2,7,2.70001,7,3.59998v15.80005C7,20.29999,7.59998,21,8.40002,21H11v-1.90002H8.79999V3.90002z"/>
	<rect x="10.90002" y="5.09998" class="st0" width="3" height="1"/>
	<path class="st1" d="M16.87244,17.10834c-0.11157,0.00073-0.22321,0.00153-0.33484,0.01135l0.16211,0.17566L16.87244,17.10834z"/>
</g>
<polygon class="st0" points="20.48145,16.16797 19.19336,14.88086 16.87207,17.20215 14.55078,14.88086 13.26367,16.16797 
	15.58496,18.48926 13.26367,20.81055 14.55078,22.09863 16.87207,19.77734 19.19336,22.09863 20.48145,20.81055 18.16016,18.48926 
	"/>
</svg>
