<?xml version="1.0" encoding="UTF-8"?><svg width="576" height="576" version="1.1" viewBox="0 0 576 576" xmlns="http://www.w3.org/2000/svg" xmlns:xlink="http://www.w3.org/1999/xlink"><!--Generated by IJSVG (https://github.com/curthard89/IJSVG)--><g transform="scale(24)"><g fill="none"><g fill="#6F6F6F"><path d="M11.9,12.9l-2.9,0.1v2.9h-7.2l0.1,-6.3v-1.2v-0.8v0v-5.7h5.6l1.4,-1.3l0.6,-0.6h-9.5v17.9h11l2.9,-3v-8.8l-2,1.9Z" transform="translate(5.1, 3.1)"></path><path fill="#FFFFFF" d="M0,0.8v1.2v-2v0Z" transform="translate(7, 10.7)"></path><path d="M3.7,1.7l-1.5,-1.5c-0.1,-0.1 -0.3,-0.2 -0.5,-0.2c-0.2,0 -0.3,0.1 -0.5,0.2l-1.2,1.2l2.4,2.4l1.2,-1.2c0.3,-0.2 0.3,-0.6 0.1,-0.9Z" transform="translate(16.7, 2.3)"></path><path d="M0,9.5h2.4l7.1,-7.1l-2.4,-2.4l-7.1,7.1Z" transform="translate(9, 4.4)"></path></g><path d="M0,0h24v24h-24Z"></path></g></g></svg>