<?xml version="1.0" encoding="utf-8"?>
<!-- Generator: Adobe Illustrator 22.1.0, SVG Export Plug-In . SVG Version: 6.00 Build 0)  -->
<svg version="1.1" id="Layer_1" xmlns="http://www.w3.org/2000/svg" xmlns:xlink="http://www.w3.org/1999/xlink" x="0px" y="0px"
	 viewBox="0 0 24 24" style="enable-background:new 0 0 24 24;" xml:space="preserve">
<style type="text/css">
	.st0{fill:#585D63;}
	.st1{fill:none;}
</style>
<title>key@4x</title>
<desc>Created with Sketch.</desc>
<g id="objects">
	<g id="key">
		
			<g id="Page-1" transform="translate(11.292893, 12.000000) rotate(-45.000000) translate(-11.292893, -12.000000) translate(1.792893, 2.500000)">
			<path id="Fill-1" class="st0" d="M4.37398,4.6995C4.07091,5.14006,4.07188,5.73263,4.37979,6.18093
				c0.26143,0.366,0.65938,0.57611,1.09219,0.57611c0.44539,0,0.86852-0.22754,1.098-0.58482
				c0.30306-0.44055,0.30209-1.03312-0.00581-1.47949C6.02969,3.94233,4.82615,3.99268,4.37398,4.6995"/>
			<path id="Fill-3" class="st0" d="M14.67152,14.51573H13.7023v-0.96825c0-0.65551-0.53254-1.18804-1.18804-1.18804h-1.55598
				L8.7313,10.13245l-0.61387,0.25562c-1.73123,0.74942-3.751,0.29435-5.02038-1.12995
				C1.63208,7.62275,1.62531,5.13725,3.07962,3.47863c0.82204-0.92468,1.94425-1.45334,3.1594-1.48723
				c1.22871-0.05132,2.37899,0.41441,3.24461,1.28003c1.27712,1.27712,1.63828,3.17393,0.91984,4.83641l-0.25368,0.60709
				l6.49987,6.5202v1.39815h-0.81042v-0.92952C15.83923,15.03761,15.32702,14.51573,14.67152,14.51573 M18.30536,14.0713
				l-5.83468-5.83371c0.68359-2.23182,0.07262-4.70763-1.58696-6.36625C9.63661,0.6252,7.92959-0.06129,6.18674,0.00455
				C4.44388,0.04619,2.81238,0.80045,1.59045,2.1318c-2.12047,2.39933-2.12047,6.01768,0,8.41604
				c1.66249,1.88422,4.24965,2.60556,6.64414,1.86775l1.54049,1.54049c0.23044,0.22948,0.51898,0.35148,0.83657,0.35148h1.08444
				v0.96825c0,0.66713,0.51317,1.18901,1.16868,1.18901h0.96825v0.96825c0,0.65454,0.53254,1.18707,1.18708,1.18707h2.44871
				c0.62646,0,1.14834-0.50349,1.18707-1.16868V14.9069C18.65587,14.59512,18.53096,14.29787,18.30536,14.0713"/>
		</g>
		<rect id="Rectangle-12" class="st1" width="24" height="24"/>
	</g>
</g>
</svg>
