<?xml version="1.0" encoding="UTF-8"?>
<svg width="24px" height="24px" viewBox="0 0 24 24" version="1.1" xmlns="http://www.w3.org/2000/svg" xmlns:xlink="http://www.w3.org/1999/xlink">
    <!-- Generator: Sketch 47.1 (45422) - http://www.bohemiancoding.com/sketch -->
    <title>currency</title>
    <desc>Created with Sketch.</desc>
    <defs></defs>
    <g id="data-types" stroke="none" stroke-width="1" fill="none" fill-rule="evenodd">
        <g id="currency">
            <rect id="Rectangle-12" x="0" y="0" width="24" height="24"></rect>
            <g id="Page-1" transform="translate(7.000000, 3.000000)" fill="#585D63">
                <path d="M5.4798,7.8999 C3.2098,7.3099 2.4798,6.6999 2.4798,5.7499 C2.4798,4.6599 3.4898,3.8999 5.1798,3.8999 C6.9598,3.8999 7.6208,4.7499 7.6798,5.9999 L9.8898,5.9999 C9.8198,4.2799 8.7698,2.6999 6.6798,2.1899 L6.6798,-0.0001 L3.6798,-0.0001 L3.6798,2.1599 C1.7398,2.5799 0.1798,3.8399 0.1798,5.7699 C0.1798,8.0799 2.0898,9.2299 4.8798,9.8999 C7.3798,10.4999 7.8798,11.3799 7.8798,12.3099 C7.8798,12.9999 7.3898,14.0999 5.1798,14.0999 C3.1198,14.0999 2.3098,13.1799 2.1998,11.9999 L-0.0002,11.9999 C0.1198,14.1909 1.7598,15.4199 3.6798,15.8299 L3.6798,17.9999 L6.6798,17.9999 L6.6798,15.8499 C8.6298,15.4809 10.1798,14.3499 10.1798,12.2999 C10.1798,9.4599 7.7508,8.4899 5.4798,7.8999" id="Fill-1"></path>
            </g>
        </g>
    </g>
</svg>
