<?xml version="1.0" encoding="UTF-8"?><svg width="576" height="576" version="1.1" viewBox="0 0 576 576" xmlns="http://www.w3.org/2000/svg" xmlns:xlink="http://www.w3.org/1999/xlink"><!--Generated by IJSVG (https://github.com/curthard89/IJSVG)--><g transform="scale(24)"><g fill="none" fill-rule="evenodd" stroke="none" stroke-width="1"><path d="M0,0h24v24h-24Z"></path><g transform="translate(7, 3)"><g fill="#6F6F6F" fill-rule="evenodd" stroke="none" stroke-width="1"><path d="M5.48,7.9c-2.27,-0.59 -3,-1.2 -3,-2.15c0,-1.09 1.01,-1.85 2.7,-1.85c1.78,0 2.441,0.85 2.5,2.1h2.21c-0.07,-1.72 -1.12,-3.3 -3.21,-3.81v-2.19h-3v2.16c-1.94,0.42 -3.5,1.68 -3.5,3.61c-1.66533e-16,2.31 1.91,3.46 4.7,4.13c2.5,0.6 3,1.48 3,2.41c0,0.69 -0.49,1.79 -2.7,1.79c-2.06,0 -2.87,-0.92 -2.98,-2.1h-2.2c0.12,2.191 1.76,3.42 3.68,3.83v2.17h3v-2.15c1.95,-0.369 3.5,-1.5 3.5,-3.55c0,-2.84 -2.429,-3.81 -4.7,-4.4" transform="translate(-0.0002, -0.0001)"></path></g></g></g></g></svg>