<?xml version="1.0" encoding="utf-8"?>
<!-- Generator: Adobe Illustrator 22.0.1, SVG Export Plug-In . SVG Version: 6.00 Build 0)  -->
<svg version="1.1" xmlns="http://www.w3.org/2000/svg" xmlns:xlink="http://www.w3.org/1999/xlink" x="0px" y="0px"
	 viewBox="0 0 24 24" style="enable-background:new 0 0 24 24;" xml:space="preserve">
<style type="text/css">
	.st0{display:none;}
	.st1{display:inline;opacity:0.14;}
	.st2{fill:#9569FF;}
	.st3{fill:none;stroke:#9569FF;stroke-width:0.25;stroke-miterlimit:10;}
	.st4{fill:none;stroke:#9569FF;stroke-width:0.25;stroke-miterlimit:10;stroke-dasharray:0.50517,0.50517;}
	.st5{display:inline;opacity:0.06;}
	.st6{fill:none;}
	.st7{fill:#585D63;}
</style>
<g id="Layer_1">
	<g class="st0">
		<g class="st1">
			<path class="st2" d="M86,3.25c0.96495,0,1.75,0.78505,1.75,1.75v14c0,0.96495-0.78505,1.75-1.75,1.75H72
				c-0.96495,0-1.75-0.78505-1.75-1.75V5c0-0.96495,0.78505-1.75,1.75-1.75H86 M86,3H72c-1.1,0-2,0.9-2,2v14c0,1.1,0.9,2,2,2h14
				c1.1,0,2-0.9,2-2V5C88,3.9,87.1,3,86,3L86,3z"/>
		</g>
		<g class="st1">
			<path class="st2" d="M87,5.25c0.96495,0,1.75,0.78505,1.75,1.75v10c0,0.96495-0.78505,1.75-1.75,1.75H71
				c-0.96495,0-1.75-0.78505-1.75-1.75V7c0-0.96495,0.78505-1.75,1.75-1.75H87 M87,5H71c-1.1,0-2,0.9-2,2v10c0,1.1,0.9,2,2,2h16
				c1.1,0,2-0.9,2-2V7C89,5.9,88.1,5,87,5L87,5z"/>
		</g>
		<g class="st1">
			<path class="st2" d="M84,2.25c0.96495,0,1.75,0.78505,1.75,1.75v16c0,0.96495-0.78505,1.75-1.75,1.75H74
				c-0.96495,0-1.75-0.78505-1.75-1.75V4c0-0.96495,0.78505-1.75,1.75-1.75H84 M84,2H74c-1.1,0-2,0.9-2,2v16c0,1.1,0.9,2,2,2h10
				c1.1,0,2-0.9,2-2V4C86,2.9,85.1,2,84,2L84,2z"/>
		</g>
		<g class="st1">
			<path class="st2" d="M79,2.25c5.37617,0,9.75,4.37383,9.75,9.75s-4.37383,9.75-9.75,9.75s-9.75-4.37383-9.75-9.75
				S73.62383,2.25,79,2.25 M79,2c-5.52285,0-10,4.47715-10,10s4.47715,10,10,10s10-4.47715,10-10S84.52285,2,79,2L79,2z"/>
		</g>
		<g class="st1">
			<g>
				<line class="st3" x1="69" y1="2" x2="69.17677" y2="2.17678"/>
				<line class="st4" x1="69.53398" y1="2.53398" x2="88.64462" y2="21.64462"/>
				<line class="st3" x1="88.82323" y1="21.82322" x2="89" y2="22"/>
			</g>
		</g>
		<g class="st1">
			<g>
				<line class="st3" x1="89" y1="2" x2="88.82323" y2="2.17678"/>
				<line class="st4" x1="88.46602" y1="2.53398" x2="69.35538" y2="21.64462"/>
				<line class="st3" x1="69.17677" y1="21.82322" x2="69" y2="22"/>
			</g>
		</g>
		<g class="st1">
			<path class="st2" d="M79,7.25c2.61916,0,4.75,2.13084,4.75,4.75s-2.13084,4.75-4.75,4.75s-4.75-2.13084-4.75-4.75
				S76.38084,7.25,79,7.25 M79,7c-2.76142,0-5,2.23858-5,5s2.23858,5,5,5s5-2.23858,5-5S81.76142,7,79,7L79,7z"/>
		</g>
		<g class="st1">
			<path class="st2" d="M79,8.25c2.06776,0,3.75,1.68224,3.75,3.75s-1.68224,3.75-3.75,3.75s-3.75-1.68224-3.75-3.75
				S76.93224,8.25,79,8.25 M79,8c-2.20914,0-4,1.79086-4,4s1.79086,4,4,4s4-1.79086,4-4S81.20914,8,79,8L79,8z"/>
		</g>
		<g class="st1">
			<path class="st2" d="M79,9.25c1.51636,0,2.75,1.23364,2.75,2.75s-1.23364,2.75-2.75,2.75s-2.75-1.23364-2.75-2.75
				S77.48364,9.25,79,9.25 M79,9c-1.65685,0-3,1.34315-3,3s1.34315,3,3,3s3-1.34315,3-3S80.65685,9,79,9L79,9z"/>
		</g>
		<g class="st5">
			<path class="st2" d="M89,2v20H69V2H89 M91,0H67v24h24V0L91,0z"/>
		</g>
	</g>
	<g class="st0">
		<g class="st1">
			<path class="st2" d="M53,3.25c0.96495,0,1.75,0.78505,1.75,1.75v14c0,0.96495-0.78505,1.75-1.75,1.75H39
				c-0.96495,0-1.75-0.78505-1.75-1.75V5c0-0.96495,0.78505-1.75,1.75-1.75H53 M53,3H39c-1.1,0-2,0.9-2,2v14c0,1.1,0.9,2,2,2h14
				c1.1,0,2-0.9,2-2V5C55,3.9,54.1,3,53,3L53,3z"/>
		</g>
		<g class="st1">
			<path class="st2" d="M54,5.25c0.96495,0,1.75,0.78505,1.75,1.75v10c0,0.96495-0.78505,1.75-1.75,1.75H38
				c-0.96495,0-1.75-0.78505-1.75-1.75V7c0-0.96495,0.78505-1.75,1.75-1.75H54 M54,5H38c-1.1,0-2,0.9-2,2v10c0,1.1,0.9,2,2,2h16
				c1.1,0,2-0.9,2-2V7C56,5.9,55.1,5,54,5L54,5z"/>
		</g>
		<g class="st1">
			<path class="st2" d="M51,2.25c0.96495,0,1.75,0.78505,1.75,1.75v16c0,0.96495-0.78505,1.75-1.75,1.75H41
				c-0.96495,0-1.75-0.78505-1.75-1.75V4c0-0.96495,0.78505-1.75,1.75-1.75H51 M51,2H41c-1.1,0-2,0.9-2,2v16c0,1.1,0.9,2,2,2h10
				c1.1,0,2-0.9,2-2V4C53,2.9,52.1,2,51,2L51,2z"/>
		</g>
		<g class="st1">
			<path class="st2" d="M46,2.25c5.37617,0,9.75,4.37383,9.75,9.75s-4.37383,9.75-9.75,9.75s-9.75-4.37383-9.75-9.75
				S40.62383,2.25,46,2.25 M46,2c-5.52285,0-10,4.47715-10,10s4.47715,10,10,10s10-4.47715,10-10S51.52285,2,46,2L46,2z"/>
		</g>
		<g class="st1">
			<g>
				<line class="st3" x1="36" y1="2" x2="36.17678" y2="2.17678"/>
				<line class="st4" x1="36.53399" y1="2.53398" x2="55.64462" y2="21.64462"/>
				<line class="st3" x1="55.82322" y1="21.82322" x2="56" y2="22"/>
			</g>
		</g>
		<g class="st1">
			<g>
				<line class="st3" x1="56" y1="2" x2="55.82322" y2="2.17678"/>
				<line class="st4" x1="55.46601" y1="2.53398" x2="36.35538" y2="21.64462"/>
				<line class="st3" x1="36.17678" y1="21.82322" x2="36" y2="22"/>
			</g>
		</g>
		<g class="st1">
			<path class="st2" d="M46,7.25c2.61916,0,4.75,2.13084,4.75,4.75s-2.13084,4.75-4.75,4.75s-4.75-2.13084-4.75-4.75
				S43.38084,7.25,46,7.25 M46,7c-2.76142,0-5,2.23858-5,5s2.23858,5,5,5s5-2.23858,5-5S48.76142,7,46,7L46,7z"/>
		</g>
		<g class="st1">
			<path class="st2" d="M46,8.25c2.06776,0,3.75,1.68224,3.75,3.75s-1.68224,3.75-3.75,3.75s-3.75-1.68224-3.75-3.75
				S43.93224,8.25,46,8.25 M46,8c-2.20914,0-4,1.79086-4,4s1.79086,4,4,4s4-1.79086,4-4S48.20914,8,46,8L46,8z"/>
		</g>
		<g class="st1">
			<path class="st2" d="M46,9.25c1.51636,0,2.75,1.23364,2.75,2.75s-1.23364,2.75-2.75,2.75s-2.75-1.23364-2.75-2.75
				S44.48364,9.25,46,9.25 M46,9c-1.65685,0-3,1.34315-3,3s1.34315,3,3,3s3-1.34315,3-3S47.65685,9,46,9L46,9z"/>
		</g>
		<g class="st5">
			<path class="st2" d="M56,2v20H36V2H56 M58,0H34v24h24V0L58,0z"/>
		</g>
	</g>
	<g class="st0">
		<g class="st1">
			<path class="st2" d="M19,3.25c0.96495,0,1.75,0.78505,1.75,1.75v14c0,0.96495-0.78505,1.75-1.75,1.75H5
				c-0.96495,0-1.75-0.78505-1.75-1.75V5c0-0.96495,0.78505-1.75,1.75-1.75H19 M19,3H5C3.9,3,3,3.9,3,5v14c0,1.1,0.9,2,2,2h14
				c1.1,0,2-0.9,2-2V5C21,3.9,20.1,3,19,3L19,3z"/>
		</g>
		<g class="st1">
			<path class="st2" d="M20,5.25c0.96495,0,1.75,0.78505,1.75,1.75v10c0,0.96495-0.78505,1.75-1.75,1.75H4
				c-0.96495,0-1.75-0.78505-1.75-1.75V7c0-0.96495,0.78505-1.75,1.75-1.75H20 M20,5H4C2.9,5,2,5.9,2,7v10c0,1.1,0.9,2,2,2h16
				c1.1,0,2-0.9,2-2V7C22,5.9,21.1,5,20,5L20,5z"/>
		</g>
		<g class="st1">
			<path class="st2" d="M17,2.25c0.96495,0,1.75,0.78505,1.75,1.75v16c0,0.96495-0.78505,1.75-1.75,1.75H7
				c-0.96495,0-1.75-0.78505-1.75-1.75V4c0-0.96495,0.78505-1.75,1.75-1.75H17 M17,2H7C5.9,2,5,2.9,5,4v16c0,1.1,0.9,2,2,2h10
				c1.1,0,2-0.9,2-2V4C19,2.9,18.1,2,17,2L17,2z"/>
		</g>
		<g class="st1">
			<path class="st2" d="M12,2.25c5.37617,0,9.75,4.37383,9.75,9.75s-4.37383,9.75-9.75,9.75S2.25,17.37617,2.25,12
				S6.62383,2.25,12,2.25 M12,2C6.47715,2,2,6.47715,2,12s4.47715,10,10,10s10-4.47715,10-10S17.52285,2,12,2L12,2z"/>
		</g>
		<g class="st1">
			<g>
				<line class="st3" x1="2" y1="2" x2="2.17678" y2="2.17678"/>
				<line class="st4" x1="2.53398" y1="2.53398" x2="21.64462" y2="21.64462"/>
				<line class="st3" x1="21.82322" y1="21.82322" x2="22" y2="22"/>
			</g>
		</g>
		<g class="st1">
			<g>
				<line class="st3" x1="22" y1="2" x2="21.82322" y2="2.17678"/>
				<line class="st4" x1="21.46601" y1="2.53398" x2="2.35538" y2="21.64462"/>
				<line class="st3" x1="2.17678" y1="21.82322" x2="2" y2="22"/>
			</g>
		</g>
		<g class="st1">
			<path class="st2" d="M12,7.25c2.61916,0,4.75,2.13084,4.75,4.75s-2.13084,4.75-4.75,4.75S7.25,14.61916,7.25,12
				S9.38084,7.25,12,7.25 M12,7c-2.76142,0-5,2.23858-5,5s2.23858,5,5,5s5-2.23858,5-5S14.76142,7,12,7L12,7z"/>
		</g>
		<g class="st1">
			<path class="st2" d="M12,8.25c2.06776,0,3.75,1.68224,3.75,3.75s-1.68224,3.75-3.75,3.75S8.25,14.06776,8.25,12
				S9.93224,8.25,12,8.25 M12,8c-2.20914,0-4,1.79086-4,4s1.79086,4,4,4s4-1.79086,4-4S14.20914,8,12,8L12,8z"/>
		</g>
		<g class="st1">
			<path class="st2" d="M12,9.25c1.51636,0,2.75,1.23364,2.75,2.75s-1.23364,2.75-2.75,2.75S9.25,13.51636,9.25,12
				S10.48364,9.25,12,9.25 M12,9c-1.65685,0-3,1.34315-3,3s1.34315,3,3,3s3-1.34315,3-3S13.65685,9,12,9L12,9z"/>
		</g>
		<g class="st5">
			<path class="st2" d="M22,2v20H2V2H22 M24,0H0v24h24V0L24,0z"/>
		</g>
	</g>
	<g class="st0">
		<g class="st1">
			<path class="st2" d="M-17,3.25c0.96495,0,1.75,0.78505,1.75,1.75v14c0,0.96495-0.78505,1.75-1.75,1.75h-14
				c-0.96495,0-1.75-0.78505-1.75-1.75V5c0-0.96495,0.78505-1.75,1.75-1.75H-17 M-17,3h-14c-1.1,0-2,0.9-2,2v14c0,1.1,0.9,2,2,2h14
				c1.1,0,2-0.9,2-2V5C-15,3.9-15.9,3-17,3L-17,3z"/>
		</g>
		<g class="st1">
			<path class="st2" d="M-16,5.25c0.96495,0,1.75,0.78505,1.75,1.75v10c0,0.96495-0.78505,1.75-1.75,1.75h-16
				c-0.96495,0-1.75-0.78505-1.75-1.75V7c0-0.96495,0.78505-1.75,1.75-1.75H-16 M-16,5h-16c-1.1,0-2,0.9-2,2v10c0,1.1,0.9,2,2,2h16
				c1.1,0,2-0.9,2-2V7C-14,5.9-14.9,5-16,5L-16,5z"/>
		</g>
		<g class="st1">
			<path class="st2" d="M-19,2.25c0.96495,0,1.75,0.78505,1.75,1.75v16c0,0.96495-0.78505,1.75-1.75,1.75h-10
				c-0.96495,0-1.75-0.78505-1.75-1.75V4c0-0.96495,0.78505-1.75,1.75-1.75H-19 M-19,2h-10c-1.1,0-2,0.9-2,2v16c0,1.1,0.9,2,2,2h10
				c1.1,0,2-0.9,2-2V4C-17,2.9-17.9,2-19,2L-19,2z"/>
		</g>
		<g class="st1">
			<path class="st2" d="M-24,2.25c5.37617,0,9.75,4.37383,9.75,9.75s-4.37383,9.75-9.75,9.75s-9.75-4.37383-9.75-9.75
				S-29.37617,2.25-24,2.25 M-24,2c-5.52285,0-10,4.47715-10,10s4.47715,10,10,10s10-4.47715,10-10S-18.47715,2-24,2L-24,2z"/>
		</g>
		<g class="st1">
			<g>
				<line class="st3" x1="-34" y1="2" x2="-33.82322" y2="2.17678"/>
				<line class="st4" x1="-33.46601" y1="2.53398" x2="-14.35538" y2="21.64462"/>
				<line class="st3" x1="-14.17678" y1="21.82322" x2="-14" y2="22"/>
			</g>
		</g>
		<g class="st1">
			<g>
				<line class="st3" x1="-14" y1="2" x2="-14.17678" y2="2.17678"/>
				<line class="st4" x1="-14.53399" y1="2.53398" x2="-33.64462" y2="21.64462"/>
				<line class="st3" x1="-33.82322" y1="21.82322" x2="-34" y2="22"/>
			</g>
		</g>
		<g class="st1">
			<path class="st2" d="M-24,7.25c2.61916,0,4.75,2.13084,4.75,4.75s-2.13084,4.75-4.75,4.75s-4.75-2.13084-4.75-4.75
				S-26.61916,7.25-24,7.25 M-24,7c-2.76142,0-5,2.23858-5,5s2.23858,5,5,5s5-2.23858,5-5S-21.23858,7-24,7L-24,7z"/>
		</g>
		<g class="st1">
			<path class="st2" d="M-24,8.25c2.06776,0,3.75,1.68224,3.75,3.75s-1.68224,3.75-3.75,3.75s-3.75-1.68224-3.75-3.75
				S-26.06776,8.25-24,8.25 M-24,8c-2.20914,0-4,1.79086-4,4s1.79086,4,4,4s4-1.79086,4-4S-21.79086,8-24,8L-24,8z"/>
		</g>
		<g class="st1">
			<path class="st2" d="M-24,9.25c1.51636,0,2.75,1.23364,2.75,2.75s-1.23364,2.75-2.75,2.75s-2.75-1.23364-2.75-2.75
				S-25.51636,9.25-24,9.25 M-24,9c-1.65685,0-3,1.34315-3,3s1.34315,3,3,3s3-1.34315,3-3S-22.34315,9-24,9L-24,9z"/>
		</g>
		<g class="st5">
			<path class="st2" d="M-14,2v20h-20V2H-14 M-12,0h-24v24h24V0L-12,0z"/>
		</g>
	</g>
</g>
<g id="Layer_2">
	<g>
		<path class="st6" d="M12,6c-3.87,0-7,3.13-7,7s3.13,7,7,7s7-3.13,7-7S15.87,6,12,6z"/>
		<path class="st7" d="M14,1h-4C9.44771,1,9,1.44771,9,2v0c0,0.55228,0.44771,1,1,1h4c0.55228,0,1-0.44771,1-1v0
			C15,1.44771,14.55229,1,14,1z"/>
		<path class="st7" d="M19.03003,7.39001l0.75037-0.75041c0.38481-0.38483,0.38824-1.01164,0.00494-1.39798
			c-0.00469-0.00473-0.00939-0.00946-0.0141-0.01418c-0.38527-0.38692-1.01474-0.38397-1.40084,0.00212L17.62,5.97998
			C16.07032,4.74024,14.12077,4.00029,12.00126,4c-4.80439-0.00067-8.87537,3.96079-8.99823,8.76361
			C2.87314,17.84155,6.9413,22,12,22c4.97998,0,9-4.03003,9-9C21,10.88,20.26001,8.92999,19.03003,7.39001z M12,20
			c-3.87,0-7-3.13-7-7s3.13-7,7-7s7,3.13,7,7S15.87,20,12,20z"/>
		<rect x="8" y="11" class="st7" width="2" height="5"/>
		<rect x="11" y="12" class="st7" width="2" height="4"/>
		<rect x="14" y="10" class="st7" width="2" height="6"/>
	</g>
</g>
<g id="Layer_3">
</g>
</svg>
