<?xml version="1.0" encoding="UTF-8"?><svg width="576" height="576" version="1.1" viewBox="0 0 576 576" xmlns="http://www.w3.org/2000/svg" xmlns:xlink="http://www.w3.org/1999/xlink"><!--Generated by IJSVG (https://github.com/curthard89/IJSVG)--><g transform="scale(24)"><g fill="#6F6F6F"><use fill="none" xlink:href="#path-1"></use><g transform="translate(-0.195312, 0.024475)"><use fill="none" xlink:href="#path-1"></use></g><path d="M10.496,18.87c-4.937,0.932 -9.171,-3.303 -8.24,-8.239c0.52,-2.758 2.744,-4.982 5.502,-5.502c4.936,-0.931 9.171,3.303 8.239,8.24c-0.52,2.758 -2.743,4.981 -5.501,5.501m5.661,-12.48l0.75,-0.75c0.385,-0.385 0.389,-1.012 0.005,-1.398c-0.005,-0.005 -0.009,-0.01 -0.014,-0.015c-0.385,-0.387 -1.014,-0.384 -1.401,0.002l-0.75,0.751c-1.55,-1.24 -3.499,-1.98 -5.619,-1.98c-4.804,-0.001 -8.875,3.96 -8.998,8.764c-0.13,5.078 3.938,9.236 8.997,9.236c4.98,0 9,-4.03 9,-9c-3.55271e-15,-2.12 -0.74,-4.07 -1.97,-5.61m-7.03,6.61v0c0.552,0 1,-0.447 1,-1v-4c0,-0.552 -0.448,-1 -1,-1c-0.552,0 -1,0.448 -1,1v4c0,0.553 0.448,1 1,1m2,-13h-4c-0.552,0 -1,0.448 -1,1c0,0.552 0.448,1 1,1h4c0.553,0 1,-0.448 1,-1c0,-0.552 -0.447,-1 -1,-1" transform="translate(2.87303, 1.5)"></path></g></g><defs><path id="path-1" d="M0,0h24v24h-24Z"></path></defs></svg>