<?xml version="1.0" encoding="UTF-8"?><svg width="576" height="576" version="1.1" viewBox="0 0 576 576" xmlns="http://www.w3.org/2000/svg" xmlns:xlink="http://www.w3.org/1999/xlink"><!--Generated by IJSVG (https://github.com/curthard89/IJSVG)--><g transform="scale(24)"><g fill="none" fill-rule="evenodd" stroke="none" stroke-width="1"><path d="M0,0h24v24h-24Z"></path><g transform="translate(-1, -1)"><g transform="translate(10, 4)"><g fill="#6F6F6F" stroke="none" stroke-width="1"><path d="M0,10.3625v2.70796h2.70796l7.6731,-7.6731l-2.70796,-2.70795l-7.6731,7.67309Zm12.7888,-7.37286c0.28163,-0.28163 0.28163,-0.73656 0,-1.01819l-1.68977,-1.68977c-0.28163,-0.28163 -0.73656,-0.28163 -1.01819,-5.55112e-17l-1.32148,1.32148l2.70796,2.70796l1.32148,-1.32148Z" transform="translate(0, -0.07041)"></path></g></g><g transform="translate(4, 2)"><g stroke="none" stroke-width="1"><path fill="#757575" d="M16,16h-14v-14h10l2,-2h-12c-1.09998,0 -2,0.89996 -2,2v14c0,1.09998 0.90002,2 2,2h14c1.09998,0 2,-0.90002 2,-2v-9.46545l-2,2.02936v7.43609Z" transform="translate(0, 2)"></path><path fill="none" fill-rule="evenodd" d="M4.71458,0l-4.71458,4.71458" transform="translate(11, 0.28542)"></path></g></g></g></g></g></svg>