<?xml version="1.0" encoding="UTF-8"?><svg width="576" height="576" version="1.1" viewBox="0 0 576 576" xmlns="http://www.w3.org/2000/svg" xmlns:xlink="http://www.w3.org/1999/xlink"><!--Generated by IJSVG (https://github.com/curthard89/IJSVG)--><g transform="scale(24)"><g fill="none"><g transform="translate(-1.08203, 1.82959)"></g><g transform="translate(2.42114, 2.08212)"></g><g fill="none"><path d="M0,0h13.223v1.88898h-13.223Z" transform="translate(4.30914, 4.97113)"></path><path fill="#6F6F6F" d="M0.94501,0c-0.52197,0 -0.94501,0.42297 -0.94501,0.94501c0,0.521 0.42303,0.94495 0.94501,0.94495h6.13904v-1.88995h-6.13904Z" transform="translate(2.42083, 18.1921)"></path><path fill="#6F6F6F" d="M1.41602,5.66705h14.167c0.77899,0 1.41699,-0.638 1.41699,-1.41705v-2.83295c0,-0.77905 -0.638,-1.41705 -1.41699,-1.41705h-14.167c-0.77899,0 -1.41602,0.638 -1.41602,1.41705v2.83295c0,0.77905 0.63703,1.41705 1.41602,1.41705Zm0.47198,-3.77802h13.223v1.88898h-13.223v-1.88898Z" transform="translate(2.42114, 3.0821)"></path><path fill="#6F6F6F" d="M1.888,3.77698v-1.88898h5.48151c0.02039,-0.03558 0.0285,-0.0744 0.05115,-0.10931c0.34192,-0.72253 1.04224,-1.32043 1.99579,-1.77869h-8.00043c-0.77899,0 -1.41602,0.63696 -1.41602,1.41699v2.83301c0,0.77899 0.63702,1.41699 1.41602,1.41699h5.66772v-1.89001h-5.19574Z" transform="translate(2.42114, 10.6373)"></path><path fill="#0076FF" d="M6.21289,0c-2.54199,0 -5.40381,0.68164 -6.03223,2.14697c-0.12012,0.16211 -0.18066,0.33691 -0.18066,0.51758v6.87402c0,0.2334 0.0498,0.46387 0.14697,0.68262c0.6626,1.52246 3.52393,2.2041 6.06592,2.2041c2.54199,0 5.40332,-0.68164 6.06641,-2.20312c0.09766,-0.22363 0.14648,-0.4541 0.14648,-0.68359v-6.28223c0,-0.05371 -0.00879,-0.09961 -0.02051,-0.14453c0.01172,-0.07324 0.02051,-0.14746 0.02051,-0.22461c-3.55271e-15,-1.98389 -3.2207,-2.88721 -6.21289,-2.88721Zm0,10.6431c-2.84277,0 -4.34375,-0.85156 -4.43066,-1.10449v-1.23047c0.41992,0.1875 0.9043,0.34473 1.44336,0.46875c1.82422,0.42188 4.15039,0.42188 5.97461,0c0.53711,-0.12305 1.01953,-0.28027 1.44336,-0.46973l0.00195,1.21387c-0.08887,0.2705 -1.58985,1.12207 -4.43262,1.12207Zm2.84277,-3.66602c-1.6582,0.44531 -4.02734,0.44531 -5.68555,0c-1.0918,-0.29199 -1.54883,-0.66016 -1.58789,-0.76465v-1.23047c0.4209,0.1875 0.9043,0.34473 1.44336,0.46875c1.82422,0.42188 4.15039,0.42188 5.97461,0c0.54004,-0.12402 1.02344,-0.28125 1.44336,-0.46875l0.00195,1.21191c-0.04101,0.12305 -0.49804,0.49122 -1.58984,0.78321Zm-0.00097,-3.32715c-1.6543,0.44531 -4.02832,0.44531 -5.68457,0c-1.09082,-0.29102 -1.54883,-0.6582 -1.58984,-0.74512c0.08887,-0.27051 1.58984,-1.12305 4.43262,-1.12305c2.84278,0 4.34375,0.85254 4.43262,1.08691c-0.04103,0.12306 -0.49904,0.49025 -1.59083,0.78126Z" transform="translate(10.7051, 10.8696)"></path></g><path d="M0,0h24v24h-24Z"></path></g></g></svg>