<?xml version="1.0" encoding="UTF-8"?><svg width="576" height="576" version="1.1" viewBox="0 0 576 576" xmlns="http://www.w3.org/2000/svg" xmlns:xlink="http://www.w3.org/1999/xlink"><!--Generated by IJSVG (https://github.com/curthard89/IJSVG)--><g transform="scale(24)"><g fill="none"><g fill="none"><path d="M0.21014,1.52521c0.00726,0.00555 0.01129,0.01001 0.01898,0.01569c0.00909,0.00677 0.02271,0.01459 0.03235,0.02142c0.26477,0.18805 0.74799,0.43518 1.54297,0.64813c0.24652,0.06586 0.50763,0.12146 0.77692,0.16974c1.48041,0.26501 3.25946,0.26489 4.73956,-0.00037c0.26849,-0.04822 0.52869,-0.1037 0.77454,-0.16937c1.11041,-0.29694 1.61548,-0.66077 1.75739,-0.83807c0.00562,-0.00702 0.01532,-0.01605 0.01978,-0.02246c0.00409,-0.00586 0.0036,-0.00885 0.00677,-0.01416c0.00983,-0.01654 0.01929,-0.03296 0.02063,-0.04395c-0.01831,-0.15546 -0.60431,-0.5777 -1.75562,-0.89801c-0.07312,-0.02002 -0.13586,-0.04187 -0.21338,-0.06097c-0.12653,-0.03156 -0.2757,-0.05707 -0.41461,-0.08551c-0.14697,-0.02985 -0.28516,-0.06244 -0.44501,-0.08783c-0.1582,-0.02521 -0.33929,-0.0412 -0.51111,-0.06116c-0.15686,-0.01837 -0.30371,-0.04132 -0.47089,-0.0545c-0.35491,-0.02759 -0.73358,-0.04383 -1.13946,-0.04383c-0.40588,0 -0.78455,0.01624 -1.13947,0.04383c-0.16754,0.01324 -0.31463,0.03625 -0.47186,0.05462c-0.17145,0.0199 -0.35205,0.03595 -0.50995,0.0611c-0.16028,0.02551 -0.29895,0.05817 -0.44622,0.08813c-0.13849,0.02838 -0.2873,0.05378 -0.4134,0.08527c-0.07763,0.01916 -0.1405,0.04108 -0.21374,0.06116c-1.15076,0.32061 -1.73663,0.74328 -1.75531,0.90088c0.00531,0.04022 0.07159,0.12414 0.21014,0.23022Z" transform="translate(3.80005, 3.80029)"></path><path fill="#6F6F6F" d="M1.80029,10.4062v-1.47656c0.21704,0.10193 0.45612,0.19348 0.70557,0.2796c0.02747,0.00946 0.0498,0.02148 0.07764,0.03076c0.28131,0.09381 0.58191,0.17761 0.90039,0.25067c0.39984,0.09253 0.83221,0.15265 1.26611,0.20819v-0.64911c0,-0.38733 0.11243,-0.76697 0.31958,-1.11096c-0.51794,-0.0617 -1.01416,-0.15179 -1.46509,-0.27234c-0.78033,-0.20855 -1.2586,-0.45013 -1.52655,-0.6372c-0.01489,-0.01038 -0.03473,-0.02198 -0.04828,-0.03199c-0.01226,-0.00909 -0.0191,-0.01635 -0.03033,-0.02514c-0.13019,-0.10175 -0.19464,-0.18286 -0.19953,-0.22217v-1.47656c0.48243,0.22656 1.04737,0.41504 1.68409,0.56152c0.87115,0.20166 1.85339,0.29889 2.84485,0.3241c0.1416,0.0036 0.27941,0.0216 0.42126,0.0216c0.01105,0 0.02173,-0.00165 0.03278,-0.00165c1.71216,-1.02576 4.22845,-1.4295 6.46722,-1.4295c0.08337,0 0.16663,0.00415 0.25,0.00525v-1.25476c0,-0.05566 -0.00977,-0.10352 -0.02344,-0.15576c0.01367,-0.08203 0.02344,-0.16455 0.02344,-0.25c0,-2.12598 -3.49902,-3.09424 -6.75,-3.09424c-2.76855,0 -5.88184,0.73438 -6.56934,2.32812c-0.12011,0.16504 -0.18066,0.34083 -0.18066,0.52198v7.55615c0,0.24023 0.05176,0.48145 0.15381,0.71875c0.54449,1.24963 2.4812,1.9704 4.59619,2.24445v-1.81378c-1.88293,-0.28034 -2.91992,-0.8971 -2.94971,-1.14942Zm1.75507,-8.21185c0.07324,-0.02008 0.13611,-0.042 0.21374,-0.06116c0.1261,-0.03149 0.2749,-0.05688 0.41339,-0.08527c0.14728,-0.02997 0.28595,-0.06262 0.44623,-0.08813c0.1579,-0.02515 0.3385,-0.0412 0.50995,-0.0611c0.15723,-0.01837 0.30432,-0.04138 0.47186,-0.05462c0.35492,-0.02759 0.73359,-0.04383 1.13947,-0.04383c0.40588,0 0.78455,0.01624 1.13947,0.04382c0.16718,0.01318 0.31403,0.03613 0.47089,0.0545c0.17181,0.01996 0.35291,0.03595 0.51111,0.06116c0.15985,0.02539 0.29803,0.05798 0.44501,0.08783c0.13892,0.02844 0.28809,0.05396 0.41461,0.08551c0.07751,0.0191 0.14026,0.04095 0.21338,0.06097c1.15131,0.32031 1.7373,0.74255 1.75562,0.89801c-0.00134,0.01099 -0.0108,0.0274 -0.02063,0.04395c-0.00317,0.00531 -0.00269,0.0083 -0.00677,0.01416c-0.00446,0.00641 -0.01416,0.01544 -0.01978,0.02246c-0.14191,0.17731 -0.64697,0.54114 -1.75739,0.83807c-0.24585,0.06567 -0.50604,0.12115 -0.77454,0.16937c-1.48011,0.26527 -3.25916,0.2654 -4.73957,0.00038c-0.26929,-0.04828 -0.5304,-0.10388 -0.77692,-0.16974c-0.79498,-0.21295 -1.2782,-0.46008 -1.54297,-0.64813c-0.00964,-0.00684 -0.02325,-0.01465 -0.03235,-0.02142c-0.00769,-0.00568 -0.01171,-0.01014 -0.01898,-0.01569c-0.13855,-0.10608 -0.20483,-0.19 -0.21014,-0.23022c0.01868,-0.1576 0.60455,-0.58027 1.75531,-0.90088Z" transform="translate(2, 2)"></path><path fill="#FFFFFF" d="M5.35162,0.98968c-1.21918,0.00012 -2.43835,-0.12433 -3.51471,-0.37347c-0.69873,-0.16113 -1.31494,-0.36816 -1.83691,-0.61621v1.62109c0.00586,0.125 0.49902,0.61621 1.95752,1.00684c0.99414,0.26465 2.19336,0.39697 3.39258,0.39697c1.19922,0 2.39844,-0.13232 3.39258,-0.39697c1.45801,-0.39062 1.95117,-0.88184 1.95703,-1.00684v-1.62012c-0.52051,0.24707 -1.13672,0.4541 -1.83594,0.61523c-1.07368,0.24915 -2.29249,0.3736 -3.51215,0.37348Z" transform="translate(9.89991, 13.6289)"></path><path fill="#FFFFFF" d="M1.83692,0.61719c-0.60931,-0.13928 -1.14502,-0.32141 -1.62354,-0.5307c-0.0683,-0.02979 -0.14789,-0.0542 -0.21338,-0.08533v1.62091c0.01367,0.35156 1.93359,1.41211 5.3501,1.41211c3.41602,0 5.33594,-1.06055 5.34961,-1.41211v-1.62207c-0.54199,0.25684 -1.15039,0.45996 -1.83691,0.61719c-2.1504,0.49804 -4.87403,0.49804 -7.02588,0Z" transform="translate(9.8999, 17.5654)"></path><path fill="#6F6F6F" d="M10.567,1.3479c-0.19446,-0.39752 -2.06799,-1.3479 -5.31183,-1.3479c-2.98749,0 -4.83032,0.81158 -5.25519,1.25049c0.42548,-0.4386 2.26978,-1.25 5.25519,-1.25c3.24231,1.77636e-15 5.11682,0.9502 5.31183,1.34741Z" transform="translate(9.99481, 9.89941)"></path><path fill="#6F6F6F" d="M0,0.03216c0.00439,-0.01074 0.01282,-0.02405 0.01318,-0.03198c0,-6e-05 -0.00012,-0.00012 -0.00012,-0.00018c-0.00037,0.00799 -0.00867,0.02136 -0.01306,0.03216Z" transform="translate(20.5864, 11.3123)"></path><path fill="#6F6F6F" d="M0,0.00018c0.00043,0.008 0.00885,0.02142 0.01337,0.03223c-0.00452,-0.01093 -0.01288,-0.02435 -0.01324,-0.03241c-1e-05,6e-05 -0.00013,0.00012 -0.00013,0.00018Z" transform="translate(9.8999, 11.3123)"></path><path fill="#6F6F6F" d="M3.39258,0c-0.99414,0.26465 -2.19336,0.39697 -3.39258,0.39697c1.20068,0 2.40137,-0.13233 3.39258,-0.39697Z" transform="translate(15.25, 16.2568)"></path><path fill="#6F6F6F" d="M3.39258,0.39697c-1.19922,0 -2.39844,-0.13232 -3.39258,-0.39697c0.99121,0.26464 2.1919,0.39697 3.39258,0.39697Z" transform="translate(11.8574, 16.2568)"></path><path fill="#6F6F6F" d="M0,0c1.07635,0.24915 2.29553,0.3736 3.51471,0.37347c-1.21869,-0.00012 -2.43824,-0.12457 -3.51471,-0.37347Z" transform="translate(11.7368, 14.2451)"></path><path fill="#6F6F6F" d="M0,0v0.00018c0.06549,0.03113 0.14508,0.05554 0.21338,0.08533c-0.06836,-0.02991 -0.14789,-0.05426 -0.21338,-0.08551Z" transform="translate(9.8999, 17.5664)"></path><path fill="#0076FF" d="M7.25,0c-2.97559,0 -6.31982,0.7876 -7.05811,2.49951c-0.12744,0.17481 -0.19189,0.36036 -0.19189,0.55078v8.1377c0,0.26074 0.05566,0.51855 0.16504,0.76562c0.76611,1.75977 4.11035,2.54688 7.08496,2.54688c2.97461,0 6.31836,-0.78711 7.08594,-2.5459c0.11035,-0.25586 0.16406,-0.50586 0.16406,-0.7666v-7.43799c0,-0.05811 -0.01074,-0.10889 -0.02539,-0.16602c0.01367,-0.08886 0.02539,-0.17822 0.02539,-0.27099c0,-2.27637 -3.75781,-3.31299 -7.25,-3.31299Zm5.34961,11.188c-0.01367,0.35156 -1.93359,1.41211 -5.34961,1.41211c-3.4165,0 -5.33643,-1.06055 -5.3501,-1.41211v-1.62091v-0.00018c0.06549,0.03125 0.14502,0.0556 0.21338,0.08551c0.47852,0.20929 1.01422,0.39142 1.62354,0.5307c2.15186,0.49805 4.87549,0.49805 7.02588,0c0.68652,-0.15723 1.29492,-0.36035 1.83691,-0.61719v1.62207Zm0,-3.9375c-0.00586,0.125 -0.49902,0.61621 -1.95703,1.00684c-0.99121,0.26465 -2.19189,0.39697 -3.39258,0.39697c-1.20069,0 -2.40137,-0.13232 -3.39258,-0.39697c-1.45849,-0.39063 -1.95166,-0.88184 -1.95752,-1.00684v-1.62109c0.52197,0.24805 1.13818,0.45508 1.83691,0.61621c1.07648,0.2489 2.29602,0.37335 3.51471,0.37347c1.21967,0.00012 2.43848,-0.12433 3.51215,-0.37347c0.69922,-0.16113 1.31543,-0.36816 1.83594,-0.61523v1.62011Zm-0.01318,-3.90552c-0.06525,0.15869 -0.5791,0.60846 -1.94385,0.97388c-1.98438,0.53125 -4.80078,0.53125 -6.78516,0c-1.36456,-0.36523 -1.87823,-0.8147 -1.94415,-0.97363c-0.00452,-0.0108 -0.01294,-0.02423 -0.01337,-0.03223c0,-6e-05 0.00012,-0.00012 0.00012,-0.00018c0.00085,-0.02136 0.0307,-0.05231 0.04547,-0.07849c0.01575,-0.02777 0.01733,-0.05115 0.04865,-0.08344c0.00012,-0.00018 0.00049,-0.00031 0.00067,-0.00049c0.42487,-0.4389 2.2677,-1.25049 5.25519,-1.25049c3.24384,0 5.11737,0.95038 5.31183,1.3479c0.01025,0.02106 0.03693,0.0473 0.03766,0.065c0,6e-05 0.00012,0.00012 0.00012,0.00018c-0.00037,0.00794 -0.00879,0.02125 -0.01318,0.03199Z" transform="translate(8, 7.99951)"></path></g><path d="M0,0h24v24h-24Z"></path></g></g></svg>