<?xml version="1.0" encoding="UTF-8"?><svg width="576" height="576" version="1.1" viewBox="0 0 576 576" xmlns="http://www.w3.org/2000/svg" xmlns:xlink="http://www.w3.org/1999/xlink"><!--Generated by IJSVG (https://github.com/curthard89/IJSVG)--><g transform="scale(24)"><g fill="none"><g fill="none"><path d="M2.8,3.6c1.1,0.4 2.6,0.6 4.4,0.6c1.8,0 3.3,-0.2 4.4,-0.5c1.8,-0.5 2.8,-1.2 2.8,-1.6c0,-0.8 -2.7,-2.1 -7.2,-2.1c-4.5,0 -7.2,1.3 -7.2,2c0,0.5 1,1.2 2.8,1.6Z" transform="translate(3.8, 4.9)"></path><path fill="#6F6F6F" d="M1.8,11.5l0.1,0.1c0.7,0.4 1.6,0.7 2.6,0.9c1.4,0.3 2.9,0.5 4.4,0.5c0.4,0 0.9,0 1.3,0v-1.2c0,-0.2 0,-0.4 0.1,-0.6c-0.4,0 -0.9,0 -1.4,0c-1.8,0 -3.3,-0.2 -4.4,-0.5c-1.8,-0.5 -2.8,-1.2 -2.8,-1.6v-2.6v-0.1l0.1,0.1c0.7,0.4 1.6,0.7 2.6,0.9c1.4,0.3 2.9,0.5 4.4,0.5c1.5,0 3.1,-0.2 4.4,-0.5c1,-0.2 1.9,-0.5 2.6,-0.9l0.1,-0.1v0.2v2.1h2.1v-4.2c0,-0.1 0,-0.4 0,-0.6c0,-2.5 -4.5,-3.9 -9,-3.9c-4.8,0 -9,1.8 -9,3.6v0.8v4.6v5.1c0,0.3 0.1,0.6 0.2,0.9c0.9,2 4.9,3.1 8.8,3.1c0.4,0 0.9,0 1.3,0v0v-1.8c-0.4,0 -0.9,0 -1.3,0c-4.5,0 -7.2,-1.4 -7.2,-2.1v-2.5c0,0 0,-0.2 0,-0.2Zm7.2,-9.7c4.5,-8.88178e-16 7.2,1.4 7.2,2.1c0,0.5 -1,1.1 -2.8,1.6c-1.2,0.3 -2.7,0.5 -4.4,0.5c-1.8,0 -3.3,-0.2 -4.4,-0.5c-1.8,-0.4 -2.8,-1.1 -2.8,-1.6c0,-0.7 2.7,-2.1 7.2,-2.1Z" transform="translate(2, 3)"></path><path fill="#FF3B30" d="M7.3,0h-1.6h-4.7c-0.6,0 -1,0.4 -1,1v1v3.2v1.8v0.2c0,0.6 0.4,1 1,1h6.3c0.6,0 1,-0.4 1,-1v-6.3c0,-0.5 -0.5,-0.9 -1,-0.9Z" transform="translate(14.3, 13.7)"></path></g><path d="M0,0h24v24h-24Z"></path></g></g></svg>