<?xml version="1.0" encoding="UTF-8"?><svg width="576" height="576" version="1.1" viewBox="0 0 576 576" xmlns="http://www.w3.org/2000/svg" xmlns:xlink="http://www.w3.org/1999/xlink"><!--Generated by IJSVG (https://github.com/curthard89/IJSVG)--><g transform="scale(24)"><g fill="none"><g fill="none"><path d="M5.72699,1.14599c-1.23999,0 -2.48199,-0.133 -3.586,-0.38702c-0.81,-0.18597 -1.53998,-0.43896 -2.14099,-0.75897v1.96399c0,0.47498 2.00702,1.63599 5.72699,1.63599c3.72003,0 5.72803,-1.16101 5.72803,-1.63599v-1.96399c-0.60101,0.32001 -1.33203,0.573 -2.14099,0.75897c-1.10505,0.25403 -2.34705,0.38702 -3.58704,0.38702Z" transform="translate(8.6366, 16.2633)"></path><path fill="#0077FF" d="M11.6672,0c-0.11212,0.55792 -0.39203,1.04596 -0.79431,1.47235c1.45239,0.38147 2.21912,0.93243 2.21912,1.22479c0,0.28802 -0.73901,0.82501 -2.14099,1.20502c-0.91803,0.24896 -2.11603,0.43097 -3.58704,0.43097c-1.47101,0 -2.66901,-0.18201 -3.586,-0.43097c-0.24231,-0.06561 -0.45728,-0.13684 -0.65948,-0.20972c-1.06732,-0.01337 -2.1286,-0.11462 -3.11853,-0.30768v3.40338c0,2.14899 3.70404,3.27301 7.36401,3.27301c3.659,0 7.36304,-1.12402 7.36304,-3.27301v-4.091c-1e-05,-1.25738 -1.27332,-2.16131 -3.05982,-2.69714Zm1.4248,6.78814c0,0.47498 -2.008,1.63599 -5.72803,1.63599c-3.71997,0 -5.72699,-1.16101 -5.72699,-1.63599v-1.96399c0.60101,0.32001 1.33099,0.573 2.14099,0.75897c1.104,0.25403 2.34601,0.38702 3.586,0.38702c1.23999,0 2.48199,-0.133 3.58704,-0.38702c0.80896,-0.18597 1.53998,-0.43896 2.14099,-0.75897v1.96399Z" transform="translate(6.99958, 11.4392)"></path><path fill="#6F6F6F" d="M7.36402,10.636c3.659,0 7.36304,-1.125 7.36304,-3.27295v-4.091c0,-2.14801 -3.70404,-3.27203 -7.36304,-3.27203c-3.65997,0 -7.36401,1.12402 -7.36401,3.27203v4.091c-1e-05,2.14795 3.70403,3.27295 7.36401,3.27295Zm0,-9c3.72003,8.88178e-16 5.72803,1.16101 5.72803,1.63605c0,0.28796 -0.73901,0.82397 -2.14099,1.20496c-0.91803,0.24902 -2.11603,0.43201 -3.58704,0.43201c-1.47101,0 -2.66901,-0.18298 -3.586,-0.43201c-1.40302,-0.38098 -2.14099,-0.91699 -2.14099,-1.20496c0,-0.47503 2.00702,-1.63605 5.72699,-1.63605Zm-5.72699,3.76325v-0.00024c0.60101,0.32001 1.33203,0.573 2.14099,0.75903c1.104,0.255 2.34601,0.38696 3.586,0.38696c1.23999,0 2.48199,-0.13196 3.58704,-0.38696c0.80896,-0.18604 1.53998,-0.43903 2.14099,-0.75903v0.00024v1.96381c0,0.47498 -2.008,1.63696 -5.72803,1.63696c-3.71997,0 -5.72699,-1.16199 -5.72699,-1.63696v-1.96381Z" transform="translate(2.99957, 3.50049)"></path></g><path d="M0,0h24v24h-24Z"></path></g></g></svg>