<?xml version="1.0" encoding="UTF-8"?><svg width="576" height="576" version="1.1" viewBox="0 0 576 576" xmlns="http://www.w3.org/2000/svg" xmlns:xlink="http://www.w3.org/1999/xlink"><!--Generated by IJSVG (https://github.com/curthard89/IJSVG)--><g transform="scale(24)"><g fill="none"><path d="M2.8,3.7c1.1,0.3 2.6,0.5 4.4,0.5c1.7,0 3.2,-0.2 4.4,-0.5c1.8,-0.5 2.8,-1.1 2.8,-1.6c0,-0.7 -2.7,-2.1 -7.2,-2.1c-4.5,0 -7.2,1.4 -7.2,2.1c0,0.5 1,1.2 2.8,1.6Z" transform="translate(3.8, 4.8)"></path><path fill="#6F6F6F" d="M1.8,14.2v-2.5v-0.2l0.1,0.1c0.7,0.4 1.6,0.7 2.6,0.9c1.4,0.3 2.9,0.5 4.4,0.5c0,0 1.1,0.1 2.7,-0.1l1.2,-2.1c-1.8,0.4 -3.6,0.4 -3.9,0.4c-1.8,0 -3.3,-0.2 -4.4,-0.5c-1.8,-0.5 -2.8,-1.2 -2.8,-1.6v-2.6v-0.1l0.1,0.1c0.7,0.4 1.6,0.7 2.6,0.9c1.4,0.3 2.9,0.5 4.4,0.5c1.5,0 3.1,-0.2 4.4,-0.5c1,-0.2 1.9,-0.5 2.6,-0.9l0.1,-0.1v0.2v2.6c0.8,0.1 1.6,0.6 2.1,1.4v-6.1c0,-0.1 0,-0.4 0,-0.6c-3.55271e-15,-2.5 -4.5,-3.9 -9,-3.9c-4.8,0 -9,1.8 -9,3.6v0.8v4.6v5.1c0,0.3 0.1,0.6 0.2,0.9c0.9,2 4.8,3.1 8.6,3.1c0,-0.4 0.2,-0.8 0.4,-1.2l0.3,-0.6c-0.2,0 -0.4,0 -0.6,0c-4.4,0 -7.1,-1.4 -7.1,-2.1Zm7.2,-12.4c4.5,-8.88178e-16 7.2,1.4 7.2,2.1c0,0.5 -1,1.1 -2.8,1.6c-1.2,0.3 -2.7,0.5 -4.4,0.5c-1.8,0 -3.3,-0.2 -4.4,-0.5c-1.8,-0.4 -2.8,-1.1 -2.8,-1.6c0,-0.7 2.7,-2.1 7.2,-2.1Z" transform="translate(2, 3)"></path><path fill="#FFFFFF" d="M0,0v0.1c0,-3.55271e-15 0,-3.55271e-15 0,-0.1c0,0.1 0,0.1 0,0Z" transform="translate(24, 21.3)"></path><path fill="#FFCC00" d="M7.3,3.6l-1.7,-3c-0.1,-0.2 -0.2,-0.3 -0.4,-0.4c-0.2,-0.1 -0.4,-0.2 -0.6,-0.1c-0.1,0 -0.3,0.1 -0.4,0.1c-0.2,0.1 -0.3,0.2 -0.4,0.4l-0.4,0.7l-3.1,5.5c-0.3,0.5 -0.1,1.1 0.4,1.4c0.2,0.1 0.3,0.1 0.5,0.1h7.1c0.6,0 1,-0.4 1,-1c0,-0.2 0,-0.3 -0.1,-0.5l-1.9,-3.2Z" transform="translate(12.7, 14.1)"></path></g></g></svg>