<?xml version="1.0" encoding="UTF-8"?><svg width="576" height="576" version="1.1" viewBox="0 0 576 576" xmlns="http://www.w3.org/2000/svg" xmlns:xlink="http://www.w3.org/1999/xlink"><!--Generated by IJSVG (https://github.com/curthard89/IJSVG)--><g transform="scale(24)"><g fill="none"><g fill="none"><path d="M2.8,3.7c1.1,0.3 2.6,0.5 4.4,0.5c1.7,0 3.2,-0.2 4.4,-0.5c1.8,-0.5 2.8,-1.1 2.8,-1.6c0,-0.7 -2.7,-2.1 -7.2,-2.1c-4.5,0 -7.2,1.4 -7.2,2.1c0,0.5 1,1.2 2.8,1.6Z" transform="translate(3.8, 4.8)"></path><path fill="#6F6F6F" d="M9,16.3c-4.5,0 -7.2,-1.4 -7.2,-2.1v-2.5v-0.2l0.1,0.1c0.7,0.4 1.6,0.7 2.6,0.9c1.4,0.3 2.9,0.5 4.4,0.5c0,0 0.5,0 1.4,0c-0.2,-0.4 -0.3,-0.8 -0.3,-1.2c0,-0.2 0,-0.4 0.1,-0.6c-0.6,0 -1,0 -1.2,0c-1.8,0 -3.3,-0.2 -4.4,-0.5c-1.8,-0.5 -2.8,-1.2 -2.8,-1.6v-2.6v-0.1l0.1,0.1c0.7,0.4 1.6,0.7 2.6,0.9c1.4,0.3 2.9,0.5 4.4,0.5c1.5,0 3.1,-0.2 4.4,-0.5c1,-0.2 1.9,-0.5 2.6,-0.9l0.1,-0.1v0.2v2.2h2.1v-4.3c0,-0.1 0,-0.4 0,-0.6c0,-2.5 -4.5,-3.9 -9,-3.9c-4.8,0 -9,1.8 -9,3.6v0.8v4.6v5.1c0,0.3 0.1,0.6 0.2,0.9c0.9,2 4.9,3.1 8.8,3.1c0.2,0 2.1,0 4.1,-0.2l-1,-1.8c-1.6,0.3 -2.9,0.2 -3.1,0.2Zm0,-14.5c4.5,-8.88178e-16 7.2,1.4 7.2,2.1c0,0.5 -1,1.1 -2.8,1.6c-1.2,0.3 -2.7,0.5 -4.4,0.5c-1.8,0 -3.3,-0.2 -4.4,-0.5c-1.8,-0.4 -2.8,-1.1 -2.8,-1.6c0,-0.7 2.7,-2.1 7.2,-2.1Z" transform="translate(2, 3)"></path><path fill="#FF9600" d="M8.7,0.1c-0.2,-0.1 -0.3,-0.1 -0.5,-0.1h-2.2h-2.1h-0.4h-2.5c-0.6,0 -1,0.4 -1,1c0,0.2 0,0.3 0.1,0.5l0.3,0.5l1.7,3l1.1,1.8l0.6,1c0.3,0.5 0.9,0.6 1.4,0.4c0.2,-0.1 0.3,-0.2 0.4,-0.4l3.6,-6.2c0.1,-0.6 -3.55271e-15,-1.2 -0.5,-1.5Z" transform="translate(14, 13.8)"></path></g><path d="M0,0h24v24h-24Z"></path></g></g></svg>