<?xml version="1.0" encoding="utf-8"?>
<!-- Generator: Adobe Illustrator 22.0.1, SVG Export Plug-In . SVG Version: 6.00 Build 0)  -->
<svg version="1.1" id="Layer_1" xmlns="http://www.w3.org/2000/svg" xmlns:xlink="http://www.w3.org/1999/xlink" x="0px" y="0px"
	 viewBox="0 0 24 24" style="enable-background:new 0 0 24 24;" xml:space="preserve">
<style type="text/css">
	.st0{fill:none;}
	.st1{filter:url(#Adobe_OpacityMaskFilter);}
	.st2{fill:#FFFFFF;}
	.st3{mask:url(#mask-2_1_);fill:#585D63;}
</style>
<title>db</title>
<desc>Created with Sketch.</desc>
<g id="places">
	<g id="db">
		<rect id="Rectangle-12" class="st0" width="24" height="24"/>
		<g id="Page-1" transform="translate(2.502930, 2.502930)">
			<g id="Clip-2">
			</g>
			<defs>
				
					<filter id="Adobe_OpacityMaskFilter" filterUnits="userSpaceOnUse" x="-0.00002" y="0.00021" width="18.99417" height="18.99414">
					<feColorMatrix  type="matrix" values="1 0 0 0 0  0 1 0 0 0  0 0 1 0 0  0 0 0 1 0"/>
				</filter>
			</defs>
			<mask maskUnits="userSpaceOnUse" x="-0.00002" y="0.00021" width="18.99417" height="18.99414" id="mask-2_1_">
				<g class="st1">
					<polygon id="path-1_1_" class="st2" points="18.99414,9.49718 18.99414,18.99414 0,18.99414 0,9.49718 0,0.00021 
						18.99414,0.00021 					"/>
				</g>
			</mask>
			<path id="Fill-1" class="st3" d="M9.49707,17.09494c-4.71371,0-7.59766-1.46149-7.59766-2.25608v-2.58742v-0.16673
				c0.05065,0.02849,0.10341,0.05593,0.15617,0.08336c0.76821,0.41154,1.70842,0.73761,2.75204,0.9782
				c1.44039,0.3324,3.06544,0.50546,4.68944,0.50546s3.24905-0.17306,4.68944-0.50546
				c1.04362-0.24059,1.98278-0.56666,2.75309-0.9782c0.05171-0.02744,0.10447-0.05487,0.15512-0.08336v0.16673v2.58742
				C17.09473,15.63344,14.21078,17.09494,9.49707,17.09494L9.49707,17.09494z M9.49707,1.89962
				c4.71371,0,7.59766,1.45938,7.59766,2.25503c0,0.47802-1.04995,1.19663-2.90821,1.69259
				c-1.2304,0.32923-2.81219,0.56349-4.68944,0.56349c-1.87831,0-3.45904-0.23426-4.68944-0.56349
				C2.94937,5.35128,1.89941,4.63267,1.89941,4.15465C1.89941,3.35901,4.78336,1.89962,9.49707,1.89962L9.49707,1.89962z
				 M17.09473,6.90986v2.58742c0,0.47802-1.04995,1.19558-2.90821,1.69259c-1.2304,0.32923-2.81219,0.56349-4.68944,0.56349
				c-1.87831,0-3.45904-0.23426-4.68944-0.56349C2.94937,10.69286,1.89941,9.9753,1.89941,9.49728V6.90986V6.74208
				C1.95007,6.77057,2.00283,6.798,2.05559,6.82649c0.76821,0.41048,1.70842,0.73655,2.75204,0.9782
				c1.43933,0.3324,3.06544,0.50546,4.68944,0.50546s3.24905-0.17306,4.68944-0.50546
				c1.04468-0.24165,1.98383-0.56771,2.75309-0.9782c0.05171-0.02849,0.10447-0.05487,0.15512-0.08442V6.90986z M18.99414,4.15465
				c0-2.72777-4.77703-4.15444-9.49707-4.15444c-4.16605,0-8.3722,1.11327-9.30185,3.25116C-0.00651,3.78531,0,4.15465,0,4.15465
				v5.34263v5.34157c0,0.31973,0.0707,0.62048,0.19522,0.90433c0.92966,2.13684,5.1358,3.25116,9.30185,3.25116
				s8.37219-1.11432,9.30185-3.25011c0.12452-0.28491,0.19522-0.5846,0.19522-0.90539V9.49728V4.74875
				C18.99414,4.67382,18.99414,4.28656,18.99414,4.15465L18.99414,4.15465z"/>
		</g>
	</g>
</g>
</svg>
