<?xml version="1.0" encoding="UTF-8"?><svg width="576" height="576" version="1.1" viewBox="0 0 576 576" xmlns="http://www.w3.org/2000/svg" xmlns:xlink="http://www.w3.org/1999/xlink"><!--Generated by IJSVG (https://github.com/curthard89/IJSVG)--><g transform="scale(24)"><g fill="none"><path d="M0,0h24v24h-24Z"></path><g transform="translate(2.50293, 2.50293)"><g fill="#6F6F6F"><path mask="url(#mask-1)" d="M9.50358,17.0947c-4.71371,0 -7.59766,-1.46149 -7.59766,-2.25608v-2.58742v-0.16673c0.05065,0.02849 0.10341,0.05593 0.15617,0.08336c0.76821,0.41154 1.70842,0.73761 2.75204,0.9782c1.44039,0.3324 3.06544,0.50546 4.68944,0.50546c1.624,0 3.24905,-0.17306 4.68944,-0.50546c1.04362,-0.24059 1.98278,-0.56666 2.75309,-0.9782c0.05171,-0.02744 0.10447,-0.05487 0.15512,-0.08336v0.16673v2.58742c2e-05,0.79458 -2.88393,2.25608 -7.59764,2.25608v0Zm0,-15.1953c4.71371,4.44089e-16 7.59766,1.45938 7.59766,2.25503c0,0.47802 -1.04995,1.19663 -2.90821,1.69259c-1.2304,0.32923 -2.81219,0.56349 -4.68944,0.56349c-1.87831,0 -3.45904,-0.23426 -4.68944,-0.56349c-1.85827,-0.49596 -2.90823,-1.21457 -2.90823,-1.69259c0,-0.79564 2.88395,-2.25503 7.59766,-2.25503v0Zm7.59766,5.01024v2.58742c0,0.47802 -1.04995,1.19558 -2.90821,1.69259c-1.2304,0.32923 -2.81219,0.56349 -4.68944,0.56349c-1.87831,0 -3.45904,-0.23426 -4.68944,-0.56349c-1.85827,-0.49701 -2.90823,-1.21457 -2.90823,-1.69259v-2.58742v-0.16778c0.05066,0.02849 0.10342,0.05592 0.15618,0.08441c0.76821,0.41048 1.70842,0.73655 2.75204,0.9782c1.43933,0.3324 3.06544,0.50546 4.68944,0.50546c1.624,0 3.24905,-0.17306 4.68944,-0.50546c1.04468,-0.24165 1.98383,-0.56771 2.75309,-0.9782c0.05171,-0.02849 0.10447,-0.05487 0.15512,-0.08442v0.16779Zm1.89941,-2.75521c0,-2.72777 -4.77703,-4.15444 -9.49707,-4.15444c-4.16605,0 -8.3722,1.11327 -9.30185,3.25116c-0.20173,0.53394 -0.19522,0.90328 -0.19522,0.90328v5.34263v5.34157c1.21431e-17,0.31973 0.0707,0.62048 0.19522,0.90433c0.92966,2.13684 5.1358,3.25116 9.30185,3.25116c4.16605,0 8.37219,-1.11432 9.30185,-3.25011c0.12452,-0.28491 0.19522,-0.5846 0.19522,-0.90539v-5.34156v-4.74853c0,-0.07493 0,-0.46219 0,-0.5941v0Z" transform="translate(-0.00651, 0.00021)"></path></g></g></g></g><defs><mask id="mask-1" maskContentUnits="userSpaceOnUse" maskUnits="objectBoundingBox"><g transform="translate(-2e-05, 0.00021)"><g fill="#FFFFFF"><path d="M18.9941,9.49697v9.49696h-18.9941v-9.49696v-9.49697h18.9941Z" transform="translate(0, 0.00021)"></path></g></g></mask></defs></svg>