<?xml version="1.0" encoding="utf-8"?>
<!-- Generator: Adobe Illustrator 22.1.0, SVG Export Plug-In . SVG Version: 6.00 Build 0)  -->
<svg version="1.1" id="Layer_1" xmlns="http://www.w3.org/2000/svg" xmlns:xlink="http://www.w3.org/1999/xlink" x="0px" y="0px"
	 viewBox="0 0 24 24" style="enable-background:new 0 0 24 24;" xml:space="preserve">
<style type="text/css">
	.st0{fill:#585D63;}
	.st1{fill:none;}
</style>
<path class="st0" d="M18.9,4h-4c0-0.1,0-0.3,0-0.4c-0.2-0.8-0.9-1.5-1.8-1.5h0h-2h0c0,0,0,0,0,0C10,2.2,9.2,3,9.2,4c0,0,0,0,0,0H5.1
	c-0.6,0-1,0.4-1,1s0.4,1,1,1h13.9c0.6,0,1-0.4,1-1S19.5,4,18.9,4z"/>
<path class="st0" d="M6.5,20c0.1,1.1,0.9,2,1.8,2H16c0.9,0,1.6-0.9,1.8-2l1.3-11.9h-14L6.5,20z"/>
<rect class="st1" width="24" height="24"/>
</svg>
