<?xml version="1.0" encoding="UTF-8"?><svg width="576" height="576" version="1.1" viewBox="0 0 576 576" xmlns="http://www.w3.org/2000/svg" xmlns:xlink="http://www.w3.org/1999/xlink"><!--Generated by IJSVG (https://github.com/curthard89/IJSVG)--><g transform="scale(24)"><g fill="#6F7070"><path d="M14.8892,1.84272h-4.0332c0,-0.127 -0.01318,-0.25108 -0.03839,-0.37093c-0.17584,-0.83995 -0.93683,-1.47179 -1.849,-1.47179h-0.00031h-1.9726h-6e-05c-0.0069,0 -0.01324,0.00191 -0.02008,0.00197c-1.02588,0.01079 -1.85406,0.81945 -1.86511,1.82115c-6e-05,0.00667 -0.00202,0.01287 -0.00202,0.0196h-4.1084c-0.55127,0 -1,0.43815 -1,0.97643c0,0.53828 0.44873,0.97643 1,0.97643h13.8892c0.55176,0 1,-0.43815 1,-0.97643c0,-0.53828 -0.44824,-0.97643 -0.99999,-0.97643Z" transform="translate(4.05517, 2.18359)"></path><path d="M1.44135,11.9395c0.13306,1.10236 0.93298,1.99603 1.78668,1.99603h7.72406c0.85364,0 1.64117,-0.89367 1.75891,-1.99603l1.27545,-11.9395h-13.9864l1.44135,11.9395Z" transform="translate(5.07971, 8.0625)"></path><path fill="none" d="M0,0h24v24h-24Z"></path></g></g></svg>