<?xml version="1.0" encoding="UTF-8"?><svg width="576" height="576" version="1.1" viewBox="0 0 576 576" xmlns="http://www.w3.org/2000/svg" xmlns:xlink="http://www.w3.org/1999/xlink"><!--Generated by IJSVG (https://github.com/curthard89/IJSVG)--><g transform="scale(24)"><g fill="none"><g fill="#6F6F6F"><path d="M2,6.1v4h1.8v-4c1.4,-0.5 2.5,-2.1 1.8,-3.9c-0.3,-0.8 -1,-1.5 -1.9,-1.7c-1.9,-0.5 -3.7,0.9 -3.7,2.8c-3.55271e-15,1.3 0.8,2.3 2,2.8Z" transform="translate(15.7, 1.6)"></path><path d="M9.4,1h-0.6v-1h-2v3.9h2v-1h0.5c0.3,0 0.5,0.2 0.5,0.5v5.4c0,2.5 -2.4,4.4 -4.9,3.8c-1.8,-0.4 -2.9,-2.1 -2.9,-3.9v-5.3c0,-0.3 0.2,-0.5 0.5,-0.5h0.5v1h2v-3.9h-2v1h-0.5c-1.3,0 -2.4,1.1 -2.4,2.4v5.4c-0.1,2.9 2,5.3 4.8,5.8v3.5c0,0.8 0.7,1.5 1.5,1.5h4.1c0,-0.2 -0.1,-0.4 -0.1,-0.7v-1.3h-3.4v-3c2.6,-0.5 4.8,-2.9 4.8,-5.8v-5.4c0,-1.3 -1.1,-2.4 -2.4,-2.4Z" transform="translate(1.9, 2)"></path><path fill="#FF3B30" d="M7.3,0h-2.1h-1.8h-2.4c-0.6,0 -1,0.4 -1,1v4.9v1.3c0,0.3 0.1,0.5 0.3,0.7c0.2,0.2 0.4,0.3 0.7,0.3h6.3c0.6,0 1,-0.4 1,-1v-6.3c3.55271e-15,-0.5 -0.5,-0.9 -1,-0.9Z" transform="translate(14.3, 13.7)"></path></g><path d="M0,0h24v24h-24Z"></path></g></g></svg>