<?xml version="1.0" encoding="UTF-8"?><svg width="576" height="576" version="1.1" viewBox="0 0 576 576" xmlns="http://www.w3.org/2000/svg" xmlns:xlink="http://www.w3.org/1999/xlink"><!--Generated by IJSVG (https://github.com/curthard89/IJSVG)--><g transform="scale(24)"><g fill="none"><g fill="none"><path d="M1,2c0.6,0 1,-0.5 1,-1c0,-0.6 -0.5,-1 -1,-1c-0.5,0 -0.9,0.4 -1,1c0,0.6 0.4,1 1,1Z" transform="translate(17.5, 4)"></path><path fill="#6F6F6F" d="M7,17.6v-3c2.6,-0.5 4.8,-2.9 4.8,-5.8v-5.4c0,-1.3 -1.1,-2.4 -2.4,-2.4h-0.6v-1h-2v3.9h2v-1h0.5c0.3,0 0.5,0.2 0.5,0.5v5.4c0,2.5 -2.4,4.4 -4.9,3.8c-1.8,-0.4 -2.9,-2.1 -2.9,-3.9v-5.3c0,-0.3 0.2,-0.5 0.5,-0.5h0.5v1h2v-3.9h-2v1h-0.5c-1.3,0 -2.4,1.1 -2.4,2.4v5.4c-0.1,2.9 2,5.3 4.8,5.8v3.5c0,0.8 0.7,1.5 1.5,1.5h7.2l-1.2,-2h-5.4Z" transform="translate(1.9, 2)"></path><path fill="#6F6F6F" d="M2,6.1v4.1h1.8v-4.1c1.4,-0.5 2.5,-2.1 1.8,-3.9c-0.3,-0.8 -1,-1.5 -1.9,-1.7c-1.9,-0.5 -3.7,0.9 -3.7,2.8c-3.55271e-15,1.3 0.8,2.3 2,2.8Z" transform="translate(15.7, 1.6)"></path><path fill="#FF9600" d="M8.7,0.1c-0.2,-0.1 -0.3,-0.1 -0.5,-0.1h-2.7h-1.8h-2.7c-0.6,0 -1,0.4 -1,1c0,0.2 0,0.3 0.1,0.5l2.5,4.3l1.1,1.9c0,0 0.1,0.1 0.1,0.1c0.3,0.4 0.8,0.5 1.3,0.3c0.2,-0.1 0.3,-0.2 0.4,-0.4l3.6,-6.2c0.2,-0.5 0.1,-1.1 -0.4,-1.4Z" transform="translate(14, 13.8)"></path></g><path d="M0,0h24v24h-24Z"></path></g></g></svg>