<?xml version="1.0" encoding="UTF-8"?><svg width="576" height="576" version="1.1" viewBox="0 0 576 576" xmlns="http://www.w3.org/2000/svg" xmlns:xlink="http://www.w3.org/1999/xlink"><!--Generated by IJSVG (https://github.com/curthard89/IJSVG)--><g transform="scale(24)"><g fill="none"><use xlink:href="#path-1"></use><use fill="none" xlink:href="#path-1"></use><g transform="translate(2, 2)"><g fill="#6F6F6F"><path mask="url(#mask-1)" d="M4.9,15.019v3.49c0,0.834 0.677,1.51 1.511,1.51h9.679c0.834,0 1.51,-0.676 1.51,-1.51v-12.39c1.394,-0.507 2.465,-2.136 1.796,-3.871c-0.319,-0.829 -1.031,-1.487 -1.888,-1.72c-1.946,-0.528 -3.708,0.928 -3.708,2.791c0,1.3 0.8,2.3 2,2.8v11.9h-8.8v-3c2.6,-0.5 4.8,-2.9 4.8,-5.8v-5.4c0,-1.32 -1.08,-2.4 -2.4,-2.4h-0.6v-1h-2v3.9h2v-1h0.5c0.3,0 0.5,0.2 0.5,0.5v5.4c0,2.539 -2.398,4.413 -4.888,3.774c-1.752,-0.449 -2.912,-2.127 -2.912,-3.936v-5.238c2.22045e-16,-0.3 0.2,-0.5 0.5,-0.5h0.5v1h2v-3.9h-2v1h-0.5c-1.32,0 -2.4,1.08 -2.4,2.4v5.4c-0.1,2.9 2,5.3 4.8,5.8" transform="translate(-0.0969, -0.4188)"></path></g></g></g></g><defs><mask id="mask-1" maskContentUnits="userSpaceOnUse" maskUnits="objectBoundingBox"><g transform="translate(-0.00033, -0.00023)"><path fill="#FFFFFF" d="M0,19.6v-19.6h19.503v19.6Z"></path></g></mask><path id="path-1" d="M0,0h24v24h-24Z"></path></defs></svg>