<?xml version="1.0" encoding="UTF-8"?><svg width="576" height="576" version="1.1" viewBox="0 0 576 576" xmlns="http://www.w3.org/2000/svg" xmlns:xlink="http://www.w3.org/1999/xlink"><!--Generated by IJSVG (https://github.com/curthard89/IJSVG)--><g transform="scale(24)"><g fill="none"><g fill="#6F6F6F"><path d="M2,6.1v4.5c0.7,0.1 1.3,0.4 1.8,0.8v-5.3c1.4,-0.5 2.5,-2.1 1.8,-3.9c-0.3,-0.8 -1,-1.5 -1.9,-1.7c-1.9,-0.5 -3.7,0.9 -3.7,2.8c-3.55271e-15,1.3 0.8,2.3 2,2.8Z" transform="translate(15.7, 1.6)"></path><path d="M11.8,8.8v-5.4c0,-1.3 -1.1,-2.4 -2.4,-2.4h-0.6v-1h-2v3.9h2v-1h0.5c0.3,0 0.5,0.2 0.5,0.5v5.4c0,2.5 -2.4,4.4 -4.9,3.8c-1.8,-0.4 -2.9,-2.1 -2.9,-3.9v-5.3c0,-0.3 0.2,-0.5 0.5,-0.5h0.5v1h2v-3.9h-2v1h-0.5c-1.3,0 -2.4,1.1 -2.4,2.4v5.4c-0.1,2.9 2,5.3 4.8,5.8v3.5c0,0.8 0.7,1.5 1.5,1.5h2.5c0,-0.6 0.1,-1.2 0.4,-1.7l0.2,-0.3h-2.5v-3c2.6,-0.5 4.8,-2.9 4.8,-5.8Z" transform="translate(1.9, 2)"></path><path fill="#FFFFFF" d="M0,0v0.1c0,-3.55271e-15 0,-3.55271e-15 0,-0.1c0,0.1 0,0.1 0,0Z" transform="translate(24, 21.3)"></path><path fill="#FFCC00" d="M6.7,2.7l-1.2,-2.1c-0.1,-0.2 -0.3,-0.4 -0.6,-0.5c-0.3,-0.1 -0.5,-0.1 -0.8,0.1c-0.2,0.1 -0.3,0.2 -0.4,0.4l-2.8,4.9l-0.7,1.3c-0.1,0.2 -0.2,0.5 -0.1,0.7c0.1,0.3 0.2,0.5 0.5,0.7c0.2,0.1 0.3,0.1 0.5,0.1h7.1c0.6,0 1,-0.4 1,-1c0,-0.2 0,-0.3 -0.1,-0.5l-2.4,-4.1Z" transform="translate(12.8, 14.1)"></path></g><path d="M0,0h24v24h-24Z"></path></g></g></svg>