<?xml version="1.0" encoding="UTF-8"?><svg width="576" height="576" version="1.1" viewBox="0 0 576 576" xmlns="http://www.w3.org/2000/svg" xmlns:xlink="http://www.w3.org/1999/xlink"><!--Generated by IJSVG (https://github.com/curthard89/IJSVG)--><g transform="scale(24)"><g fill="none"><g fill="none"><g transform="translate(5.50574, 5.35437)"><g fill="#6F6F6F"><path mask="url(#mask-1)" d="M12.979,0.39v0c-0.39,-0.39 -1.021,-0.39 -1.41,0l-4.885,4.885l-4.885,-4.885c-0.389,-0.39 -1.021,-0.39 -1.41,3.33067e-16c-0.389,0.389 -0.389,1.021 0,1.41l4.885,4.885l-4.885,4.885c-0.389,0.389 -0.389,1.02 -2.22045e-16,1.41c0.389,0.389 1.021,0.389 1.41,0l4.885,-4.885l4.885,4.885c0.389,0.389 1.02,0.389 1.41,0c0.39,-0.39 0.39,-1.021 0,-1.41l-4.885,-4.885l4.885,-4.885c0.39,-0.389 0.39,-1.021 0,-1.41" transform="translate(-0.0971, -0.0979)"></path></g></g><use xlink:href="#path-1"></use></g><use xlink:href="#path-1"></use></g></g><defs><mask id="mask-1" maskContentUnits="userSpaceOnUse" maskUnits="objectBoundingBox"><g transform="translate(0.00015, -0.0004)"><g fill="#FFFFFF"><path d="M0,0h13.1738v13.1738h-13.1738Z" transform="translate(0.00015, 0)"></path></g></g></mask><path id="path-1" d="M0,0h24v24h-24Z"></path></defs></svg>