<?xml version="1.0" encoding="UTF-8"?><svg width="576" height="576" version="1.1" viewBox="0 0 576 576" xmlns="http://www.w3.org/2000/svg" xmlns:xlink="http://www.w3.org/1999/xlink"><!--Generated by IJSVG (https://github.com/curthard89/IJSVG)--><g transform="scale(24)"><g fill="none" fill-rule="evenodd" stroke="none" stroke-width="1"><g transform="translate(0, 2)"><g fill="#6F6F6F" fill-rule="evenodd" stroke="none" stroke-width="1"><use transform="translate(9.18095, 3.76202)" xlink:href="#path-1"></use><use transform="translate(12.7524, 3.76202)" xlink:href="#path-1"></use><path d="M0,2.38214h2.38214v-2.38214h-2.38214Z" transform="translate(9.18095, 0.189405)"></path><use transform="translate(9.18095, 7.33345)" xlink:href="#path-1"></use><use transform="translate(5.60952, 3.76202)" xlink:href="#path-1"></use><use transform="translate(5.60952, 7.33345)" xlink:href="#path-1"></use><use transform="translate(12.7524, 7.33345)" xlink:href="#path-1"></use><use transform="translate(2.0381, 7.33345)" xlink:href="#path-1"></use><g transform="translate(0, 6.05607)"><g fill="#6F6F6F" fill-rule="evenodd" stroke="none" stroke-width="1"><path mask="url(#mask-1)" d="M4.79933,9.83382c-0.664153,0 -1.26866,-0.570093 -1.26866,-1.26751c0,-0.698565 0.54371,-1.26866 1.26866,-1.26866c0.724947,0 1.26866,0.570093 1.26866,1.26866c0,0.697418 -0.604505,1.26751 -1.26866,1.26751v0Zm18.937,-6.86062c-0.805242,-0.496681 -1.92249,-0.556328 -2.85161,-0.308561c-0.123883,-0.991067 -0.7433,-1.79631 -1.54969,-2.41687l-0.309708,-0.247767l-0.247767,0.309708c-0.496681,0.558622 -0.682506,1.54969 -0.619417,2.29299c0.0619417,0.558622 0.247767,1.11495 0.557475,1.54969c-0.247767,0.123883 -0.557475,0.159442 -0.806389,0.283326c-0.557475,0.185825 -1.1138,0.16059 -1.67243,0.16059h-16.0498l-0.0630888,0.458827c-0.123883,1.17804 0.0940596,2.46046 0.589593,3.57656c0,0 2.00508,3.90691 7.31256,4.08471c5.57475,0.185825 10.1481,-2.39164 12.3161,-7.59703c1.42581,0.0607946 2.84358,-0.298238 3.52494,-1.66095l0.182384,-0.303973l-0.31315,-0.181237Z" transform="translate(-0.0901725, 0.560384)"></path></g></g></g></g><path d="M0,0h24v24h-24Z"></path></g></g><defs><mask id="mask-1" maskContentUnits="userSpaceOnUse" maskUnits="objectBoundingBox"><g fill="#FFFFFF" transform="translate(0.0901725, -0.560384)"><path d="M24.8655,0v13.2069h-24.8655v-13.2069h24.8655Z" transform="translate(0, 0.07881)"></path></g></mask><path id="path-1" d="M0,2.38095h2.38095v-2.38095h-2.38095Z"></path></defs></svg>