<?xml version="1.0" encoding="utf-8"?>
<!-- Generator: Adobe Illustrator 19.2.0, SVG Export Plug-In . SVG Version: 6.00 Build 0)  -->
<svg version="1.1" id="Layer_2" xmlns="http://www.w3.org/2000/svg" xmlns:xlink="http://www.w3.org/1999/xlink" x="0px" y="0px"
	 width="18px" height="18px" viewBox="0 0 18 18" style="enable-background:new 0 0 18 18;" xml:space="preserve">
<style type="text/css">
	.st0{fill:#585D63;}
</style>
<g>
	<path class="st0" d="M13.72933,10.56558h-1.24125c-0.07211,0.39241-0.14841,0.79824-0.22947,1.21749S12.10126,12.60759,12.02915,13
		h-0.9229l0.43182-2.43442H10l0.14031-0.77141h1.51124c0.02152-0.11879,0.04388-0.23226,0.06736-0.34015
		c0.02348-0.10789,0.04584-0.21493,0.06736-0.32114c0.0218-0.10621,0.04332-0.2141,0.06484-0.32394
		c0.02152-0.10956,0.045-0.22751,0.07015-0.35328h-1.55428l0.16183-0.77197h1.52745l0.42092-2.32066h0.93911l-0.41002,2.32066
		h1.26249L14.669,5.36303h0.96594l-0.44831,2.32066H17l-0.09167,0.48576l-0.0805,0.28621h-1.7653l-0.23701,1.33851h1.78654
		l-0.09279,0.48577l-0.0805,0.28565h-1.75412L14.22068,13h-0.95001L13.72933,10.56558z M14.12342,8.45566h-1.24684l-0.26971,1.33851
		h1.25215L14.12342,8.45566z"/>
</g>
<g>
	<path class="st0" d="M4.72933,10.56558H3.48808c-0.07211,0.39241-0.14841,0.79824-0.22947,1.21749
		C3.17756,12.20232,3.10126,12.60759,3.02915,13h-0.9229l0.43182-2.43442H1l0.14031-0.77141h1.51124
		c0.02152-0.11879,0.04388-0.23226,0.06736-0.34015c0.02348-0.10789,0.04584-0.21493,0.06736-0.32114
		c0.0218-0.10621,0.04332-0.2141,0.06484-0.32394c0.02152-0.10956,0.045-0.22751,0.07015-0.35328H1.36698l0.16183-0.77197h1.52745
		l0.42092-2.32066h0.93911L4.00627,7.68369h1.26249L5.669,5.36303h0.96594L6.18662,7.68369H8L7.90833,8.16945l-0.0805,0.28621
		h-1.7653L5.82551,9.79417h1.78654l-0.09279,0.48577l-0.08049,0.28565H5.68465L5.22068,13H4.27067L4.72933,10.56558z
		 M5.12342,8.45566H3.87658L3.60687,9.79417h1.25215L5.12342,8.45566z"/>
</g>
<rect x="8" y="12" class="st0" width="1" height="1"/>
</svg>
