<?xml version="1.0" encoding="UTF-8"?><svg width="576" height="576" version="1.1" viewBox="0 0 576 576" xmlns="http://www.w3.org/2000/svg" xmlns:xlink="http://www.w3.org/1999/xlink"><!--Generated by IJSVG (https://github.com/curthard89/IJSVG)--><g transform="scale(24)"><g fill="none"><g fill="none"><g transform="translate(5, 4)"><g fill="#6F6F6F"><path d="M5.95398,8.58579l-2.29289,-2.2929c-0.39052,-0.39052 -1.02369,-0.39052 -1.41421,0c-0.39052,0.39052 -0.39052,1.02369 0,1.41421l4,4c0.39052,0.39052 1.02369,0.39052 1.41421,0l4,-4c0.39052,-0.39052 0.39052,-1.02369 0,-1.41421c-0.39052,-0.39052 -1.02369,-0.39052 -1.41421,0l-2.2929,2.2929v-7.58579c0,-0.55228 -0.44772,-1 -1,-1c-0.55228,0 -1,0.44772 -1,1v7.58579Zm-5.95398,7.41421v-2h13.9635v2h-13.9635Z" transform="translate(0.04602, 0)"></path></g></g><use xlink:href="#path-1"></use></g><use xlink:href="#path-1"></use></g></g><defs><path id="path-1" d="M0,0h24v24h-24Z"></path></defs></svg>