<?xml version="1.0" encoding="utf-8"?>
<!-- Generator: Adobe Illustrator 22.0.1, SVG Export Plug-In . SVG Version: 6.00 Build 0)  -->
<svg version="1.1" id="Layer_1" xmlns="http://www.w3.org/2000/svg" xmlns:xlink="http://www.w3.org/1999/xlink" x="0px" y="0px"
	 viewBox="0 0 24 24" style="enable-background:new 0 0 24 24;" xml:space="preserve">
<style type="text/css">
	.st0{fill:#585D63;}
	.st1{fill:none;}
</style>
<title>download</title>
<desc>Created with Sketch.</desc>
<g id="actions">
	<g id="download">
		<g id="Page-1" transform="translate(5.000000, 4.000000)">
			<path id="Combined-Shape" class="st0" d="M6,8.58579L3.70711,6.29289c-0.39052-0.39052-1.02369-0.39052-1.41421,0
				c-0.39052,0.39052-0.39052,1.02369,0,1.41421l4,4c0.39052,0.39052,1.02369,0.39052,1.41421,0l4-4
				c0.39052-0.39052,0.39052-1.02369,0-1.41421c-0.39052-0.39052-1.02369-0.39052-1.41421,0L8,8.58579V1c0-0.55228-0.44772-1-1-1
				S6,0.44772,6,1V8.58579z M0.04602,16v-2h13.9635v2H0.04602z"/>
		</g>
		<rect id="Rectangle-12" class="st1" width="24" height="24"/>
	</g>
</g>
<rect class="st1" width="24" height="24"/>
</svg>
