<?xml version="1.0" encoding="UTF-8"?><svg width="576" height="576" version="1.1" viewBox="0 0 576 576" xmlns="http://www.w3.org/2000/svg" xmlns:xlink="http://www.w3.org/1999/xlink"><!--Generated by IJSVG (https://github.com/curthard89/IJSVG)--><g transform="scale(24)"><g fill="none"><g fill="none"><path d="M0,0v24h24v-24h-24Zm15.5,23h-11c-1.09998,0 -2,-0.90002 -2,-2v-13h2v13h11v2Zm6,-6c0,1.09998 -0.90002,2 -2,2h-11c-1.09998,0 -2,-0.90002 -2,-2v-14c0,-1.09998 0.90002,-2 2,-2h11c1.09998,0 2,0.90002 2,2v14Z"></path><path fill="#6F6F6F" d="M2,0h-2v13c0,1.09998 0.90002,2 2,2h11v-2h-11v-13Z" transform="translate(2.5, 8)"></path><path fill="#6F6F6F" d="M13,0h-11c-1.09998,0 -2,0.90002 -2,2v14c0,1.09998 0.90002,2 2,2h11c1.09998,0 2,-0.90002 2,-2v-14c0,-1.09998 -0.90002,-2 -2,-2Zm0,16h-11v-14h11v14Z" transform="translate(6.5, 1)"></path><path fill="#6F6F6F" d="M4.41235,7.33423c0.54962,-0.3205 0.97577,-0.76447 1.27832,-1.33203c0.30255,-0.56756 0.45386,-1.20941 0.45386,-1.92554v-0.35986c-0.0036,-0.70898 -0.16022,-1.34906 -0.46997,-1.92017c-0.30975,-0.57111 -0.7403,-1.01337 -1.29175,-1.32666c-0.55145,-0.31329 -1.17267,-0.46997 -1.86377,-0.46997h-2.51904v7.82031h2.57275c0.67676,-0.0036 1.28998,-0.16559 1.8396,-0.48608Zm-2.5271,-0.96411v-4.91455h0.63379c0.55499,0 0.97754,0.19159 1.26758,0.57471c0.29004,0.38312 0.43506,0.95245 0.43506,1.70801v0.33838c0,0.75909 -0.14502,1.33112 -0.43506,1.71606c-0.29004,0.38494 -0.70538,0.57739 -1.24609,0.57739h-0.65528Z" transform="translate(11.0935, 6.15503)"></path></g><path d="M0,0h24v24h-24Z"></path></g></g></svg>