<?xml version="1.0" encoding="utf-8"?>
<!-- Generator: Adobe Illustrator 22.0.1, SVG Export Plug-In . SVG Version: 6.00 Build 0)  -->
<svg version="1.1" id="Layer_1" xmlns="http://www.w3.org/2000/svg" xmlns:xlink="http://www.w3.org/1999/xlink" x="0px" y="0px"
	 viewBox="0 0 24 24" style="enable-background:new 0 0 24 24;" xml:space="preserve">
<style type="text/css">
	.st0{fill:none;}
	.st1{fill:#585D63;}
</style>
<title>duplicate</title>
<desc>Created with Sketch.</desc>
<g id="actions">
	<g>
		<path class="st0" d="M0,0v24h24V0H0z M15.5,23h-11c-1.09998,0-2-0.90002-2-2V8h2v13h11V23z M21.5,17c0,1.09998-0.90002,2-2,2h-11
			c-1.09998,0-2-0.90002-2-2V3c0-1.09998,0.90002-2,2-2h11c1.09998,0,2,0.90002,2,2V17z"/>
		<path class="st1" d="M4.5,8h-2v13c0,1.09998,0.90002,2,2,2h11v-2h-11V8z"/>
		<path class="st1" d="M19.5,1h-11c-1.09998,0-2,0.90002-2,2v14c0,1.09998,0.90002,2,2,2h11c1.09998,0,2-0.90002,2-2V3
			C21.5,1.90002,20.59998,1,19.5,1z M19.5,17h-11V3h11V17z"/>
		<path class="st1" d="M15.50586,13.48926c0.54962-0.3205,0.97577-0.76447,1.27832-1.33203s0.45386-1.20941,0.45386-1.92554V9.87183
			c-0.0036-0.70898-0.16022-1.34906-0.46997-1.92017s-0.7403-1.01337-1.29175-1.32666s-1.17267-0.46997-1.86377-0.46997h-2.51904
			v7.82031h2.57275C14.34302,13.97174,14.95624,13.80975,15.50586,13.48926z M12.97876,12.52515V7.6106h0.63379
			c0.55499,0,0.97754,0.19159,1.26758,0.57471s0.43506,0.95245,0.43506,1.70801v0.33838c0,0.75909-0.14502,1.33112-0.43506,1.71606
			s-0.70538,0.57739-1.24609,0.57739H12.97876z"/>
	</g>
</g>
<rect class="st0" width="24" height="24"/>
</svg>
