<?xml version="1.0" encoding="UTF-8"?><svg width="576" height="576" version="1.1" viewBox="0 0 576 576" xmlns="http://www.w3.org/2000/svg" xmlns:xlink="http://www.w3.org/1999/xlink"><!--Generated by IJSVG (https://github.com/curthard89/IJSVG)--><g transform="scale(24)"><g fill="none" fill-rule="evenodd" stroke="none" stroke-width="1"><use xlink:href="#path-1"></use><use fill="none" fill-rule="evenodd" stroke="none" stroke-width="1" xlink:href="#path-1"></use><g transform="translate(2, 4)"><g transform="translate(4.69336, 4)"><g fill="#6F6F6F" fill-rule="evenodd" stroke="none" stroke-width="1"><path d="M10.6399,0.66241l-5.51161,3.19453l-5.05145,-3.2215c0.139595,-0.37238 0.466863,-0.63544 0.848974,-0.63544h8.8563c0.390659,0 0.722452,0.27679 0.85779,0.66241Zm-5.51423,4.37519l5.58226,-3.24366v5.16852c0,0.57068 -0.416643,1.03754 -0.925821,1.03754h-8.8563c-0.509177,0 -0.925767,-0.46686 -0.925767,-1.03754l0.00414038,-5.19525l5.12149,3.27039Z" transform="translate(0, 0.004025)"></path></g></g><g fill="#6F6F6F" fill-rule="evenodd" stroke="none" stroke-width="1"><path d="M3.05042,16.0081c1.04852,0 1.94958,-0.896 1.94958,-1.96545v-12.0786c0,-1.04852 -0.75006,-1.96399 -1.94958,-1.96399h-3.05042v1.95966h2.37012c0.34058,0 0.62836,0.28778 0.62836,0.62836v10.8334c0,0.34058 -0.28778,0.62836 -0.62836,0.62836h-2.37012v1.95017" transform="translate(15.0652, 0)"></path><path d="M4.97638,16v-1.9502h-2.36383c-0.34058,0 -0.62836,-0.28778 -0.62836,-0.62836v-10.8334c0,-0.34058 0.28778,-0.62836 0.62836,-0.62836h2.36383v-1.95964h-3.01245c-1.11139,0 -1.96393,0.89453 -1.96393,1.96399v12.0786c0,1.02747 0.91541,1.96545 1.96393,1.96545" transform="translate(0.183044, 0)"></path></g></g></g></g><defs><path id="path-1" d="M0,0h24v24h-24Z"></path></defs></svg>