<?xml version="1.0" encoding="UTF-8"?><svg width="576" height="576" version="1.1" viewBox="0 0 576 576" xmlns="http://www.w3.org/2000/svg" xmlns:xlink="http://www.w3.org/1999/xlink"><!--Generated by IJSVG (https://github.com/curthard89/IJSVG)--><g transform="scale(24)"><g fill="none" fill-rule="evenodd" stroke="none" stroke-width="1"><use xlink:href="#path-1"></use><use fill="none" fill-rule="evenodd" stroke="none" stroke-width="1" xlink:href="#path-1"></use><g transform="translate(2, 1.83203)"><g fill="#6F6F6F" fill-rule="evenodd" stroke="none" stroke-width="1"><use transform="translate(6, 4)" xlink:href="#path-2"></use><use transform="translate(6, 6)" xlink:href="#path-2"></use><path d="M0,0h4v1h-4Z" transform="translate(8, 8)"></path><path d="M18.9,7.4c0,-0.7 -0.3,-1.3 -0.9,-1.6l-0.9,-0.5v-5.3h-15.4v5.3l-0.8,0.5c-0.5,0.3 -0.9,0.9 -0.9,1.6v9.4c0,1 0.8,1.9 1.9,1.9h15.1c1,0 1.9,-0.9 1.9,-1.9v-9.4v0Zm-15.4,-5.7h12v6l-6,4.4l-6,-4.4v-6v-2.22045e-16Z" transform="translate(0.5, 0.3)"></path></g></g></g></g><defs><path id="path-1" d="M0,0h24v24h-24Z"></path><path id="path-2" d="M0,0h8v1h-8Z"></path></defs></svg>