<?xml version="1.0" encoding="utf-8"?>
<!-- Generator: Adobe Illustrator 22.0.1, SVG Export Plug-In . SVG Version: 6.00 Build 0)  -->
<svg version="1.1" id="Layer_1" xmlns="http://www.w3.org/2000/svg" xmlns:xlink="http://www.w3.org/1999/xlink" x="0px" y="0px"
	 viewBox="0 0 24 24" style="enable-background:new 0 0 24 24;" xml:space="preserve">
<style type="text/css">
	.st0{fill:none;}
	.st1{fill:#585D63;}
</style>
<title>email digest</title>
<desc>Created with Sketch.</desc>
<g id="places">
	<g id="email-digest">
		<rect id="Rectangle-12" class="st0" width="24" height="24"/>
		<g id="actions_template">
			<g id="Layer_1_1_">
				<polygon id="Shape" class="st0" points="0,0 24,0 24,24 0,24 				"/>
			</g>
		</g>
		<g id="emailDigests_template" transform="translate(2.000000, 1.832031)">
			<g id="Layer_4">
				<g id="Group">
					<rect id="Rectangle-path" x="6" y="4" class="st1" width="8" height="1"/>
					<rect id="Rectangle-path_1_" x="6" y="6" class="st1" width="8" height="1"/>
					<rect id="Rectangle-path_2_" x="8" y="8" class="st1" width="4" height="1"/>
					<path id="Shape_1_" class="st1" d="M19.4,7.7c0-0.7-0.3-1.3-0.9-1.6l-0.9-0.5V0.3H2.2v5.3L1.4,6.1C0.9,6.4,0.5,7,0.5,7.7V19
						h18.86657C19.38495,19,19.4,18.98495,19.4,18.96657V7.7L19.4,7.7z M4,2h12v6l-6,4.4L4,8V2L4,2z"/>
				</g>
			</g>
		</g>
	</g>
</g>
</svg>
