<?xml version="1.0" encoding="UTF-8"?>
<svg width="24px" height="24px" viewBox="0 0 24 24" version="1.1" xmlns="http://www.w3.org/2000/svg" xmlns:xlink="http://www.w3.org/1999/xlink">
    <!-- Generator: Sketch 47.1 (45422) - http://www.bohemiancoding.com/sketch -->
    <title>email action </title>
    <desc>Created with Sketch.</desc>
    <defs></defs>
    <g id="places" stroke="none" stroke-width="1" fill="none" fill-rule="evenodd">
        <g id="email-action-">
            <rect id="Rectangle-12" x="0" y="0" width="24" height="24"></rect>
            <g id="actions_template">
                <g id="Layer_1">
                    <polygon id="Shape" points="0 0 24 0 24 24 0 24"></polygon>
                </g>
            </g>
            <g id="emailActionTemplate_template" transform="translate(2.000000, 4.000000)" fill="#585D63">
                <g id="Layer_1">
                    <g id="Group" transform="translate(4.693359, 4.000000)">
                        <path d="M10.639855,0.666435 L5.12824314,3.860965 L0.0767933233,0.639465 C0.216388344,0.267085 0.543656753,0.004025 0.925767337,0.004025 L9.78206487,0.004025 C10.1727239,0.004025 10.5045164,0.280815 10.639855,0.666435 Z M5.12562863,5.041625 L10.7078857,1.797965 L10.7078857,6.966485 C10.7078857,7.537165 10.2912423,8.004025 9.78206487,8.004025 L0.925767337,8.004025 C0.416589948,8.004025 -4.16333634e-16,7.537165 -4.16333634e-16,6.966485 L0.00414037904,1.771235 L5.12562863,5.041625 Z" id="Combined-Shape"></path>
                    </g>
                    <g id="Group">
                        <path d="M18.1156055,16.00805 C19.1641255,16.00805 20.0651855,15.11205 20.0651855,14.0426 L20.0651855,1.96399 C20.0651855,0.91547 19.3151255,0 18.1156055,0 L15.0651855,0 L15.0651855,1.95966 L17.4353055,1.95966 C17.7758855,1.95966 18.0636655,2.24744 18.0636655,2.58802 L18.0636655,13.42146 C18.0636655,13.76204 17.7758855,14.04982 17.4353055,14.04982 L15.0651855,14.04982 L15.0651855,15.99999" id="Shape"></path>
                        <path d="M5.15942383,16 L5.15942383,14.0498 L2.79559383,14.0498 C2.45501383,14.0498 2.16723383,13.76202 2.16723383,13.42144 L2.16723383,2.588 C2.16723383,2.24742 2.45501383,1.95964 2.79559383,1.95964 L5.15942383,1.95964 L5.15942383,0 L2.14697383,0 C1.03558383,0 0.183043828,0.89453 0.183043828,1.96399 L0.183043828,14.0426 C0.183043828,15.07007 1.09845383,16.00805 2.14697383,16.00805" id="Shape"></path>
                    </g>
                </g>
            </g>
        </g>
    </g>
</svg>
