<?xml version="1.0" encoding="UTF-8"?><svg width="576" height="576" version="1.1" viewBox="0 0 576 576" xmlns="http://www.w3.org/2000/svg" xmlns:xlink="http://www.w3.org/1999/xlink"><!--Generated by IJSVG (https://github.com/curthard89/IJSVG)--><g transform="scale(24)"><g fill="none"><path d="M0,0h13.223v1.88904h-13.223Z" transform="translate(2.5127, 4.88898)"></path><path fill="#6F6F6F" d="M12.9384,7.55439h-3.49408v-1.88739h2.28076c-0.25757,-0.58362 -0.41028,-1.22131 -0.44666,-1.89001h-9.39013v-1.88899h9.61304c0.21478,-0.69977 0.56726,-1.33929 1.02557,-1.888h-11.1106c-0.77899,0 -1.41602,0.63702 -1.41602,1.41699v2.83301c1.11022e-16,0.77899 0.63702,1.41699 1.41602,1.41699h6.13898v1.88739h-6.61029c-0.52197,0 -0.94501,0.42303 -0.94501,0.94501c1.11022e-16,0.521 0.42303,0.94501 0.94501,0.94501h8.85797c0.73108,-0.99725 1.8435,-1.70087 3.13544,-1.89001Z" transform="translate(0.62439, 10.5556)"></path><path fill="#6F6F6F" d="M1.41602,5.66699h14.167c0.77899,0 1.41699,-0.638 1.41699,-1.41699v-2.83301c3.55271e-15,-0.77899 -0.638,-1.41699 -1.41699,-1.41699h-14.167c-0.77899,0 -1.41602,0.638 -1.41602,1.41699v2.83301c0,0.77899 0.63703,1.41699 1.41602,1.41699Zm0.47199,-3.77801h13.223v1.88904h-13.223v-1.88904Z" transform="translate(0.62469, 3)"></path><path fill="#6F6F6F" d="M9.51318,0h-6.125c-1.86816,0 -3.38818,1.48047 -3.38818,3.30078c0,0.51758 0.42041,0.93848 0.93701,0.93848c0.51758,0 0.93848,-0.4209 0.93848,-0.93848c0,-0.78613 0.67871,-1.4248 1.5127,-1.4248h6.125c0.83398,0 1.5127,0.63867 1.5127,1.4248c0,0.51758 0.4209,0.93848 0.93848,0.93848c0.5166,0 0.9375,-0.4209 0.9375,-0.93848c-2e-05,-1.82031 -1.52053,-3.30078 -3.38869,-3.30078Z" transform="translate(10.8735, 19.3984)"></path><path fill="#6F6F6F" d="M4.08789,8.17578c2.25391,0 4.08789,-1.83398 4.08789,-4.08789c0,-2.25391 -1.83398,-4.08789 -4.08789,-4.08789c-2.25391,0 -4.08789,1.83398 -4.08789,4.08789c0,2.25391 1.83398,4.08789 4.08789,4.08789Zm0,-6.30078c1.2207,0 2.21289,0.99316 2.21289,2.21289c0,1.21973 -0.99219,2.21191 -2.21289,2.21191c-1.2207,0 -2.21289,-0.99219 -2.21289,-2.21191c0,-1.21972 0.99219,-2.21289 2.21289,-2.21289Z" transform="translate(13.2363, 9.94824)"></path></g></g></svg>