<?xml version="1.0" encoding="UTF-8"?><svg width="576" height="576" version="1.1" viewBox="0 0 576 576" xmlns="http://www.w3.org/2000/svg" xmlns:xlink="http://www.w3.org/1999/xlink"><!--Generated by IJSVG (https://github.com/curthard89/IJSVG)--><g transform="scale(24)"><g fill="none"><g fill="none"><path d="M4.62189,7.37555c0.685,-0.97827 1.15112,-2.11621 1.34198,-3.3457c-0.90283,-0.86798 -2.78143,-2.5238 -5.30396,-4.02985c-0.17578,0.23285 -0.40051,0.42291 -0.65991,0.56073c0.23639,1.20569 0.48749,2.91022 0.55145,4.91034c0.31781,0.35413 0.51685,0.81726 0.51685,1.3302c0,0.01587 -0.00433,0.03058 -0.0047,0.04639c1.06873,0.24591 2.25232,0.42584 3.55829,0.52789Z" transform="translate(13.9317, 9.19873)"></path><path d="M1.77203,5.30207c0.36353,-0.50159 0.95008,-0.83136 1.61646,-0.83136c0.15765,0 0.30914,0.02271 0.4563,0.05725c-0.08923,-1.62933 -0.30127,-3.03027 -0.5011,-4.06177c-0.46899,-0.01056 -0.89343,-0.18585 -1.22943,-0.46619c-0.68842,0.67346 -1.39819,1.435 -2.11426,2.29608c0.24152,0.33051 0.38849,0.7342 0.38849,1.17463c0,0.33929 -0.09253,0.65399 -0.24182,0.93402c0.49341,0.31494 1.02972,0.61719 1.62536,0.89734Z" transform="translate(9.61151, 9.52929)"></path><path d="M0,1.36615c0.17847,0.29926 0.28754,0.64478 0.28754,1.01825c0,0.08203 -0.01459,0.16003 -0.02417,0.23944c2.20801,1.29871 3.9436,2.71912 5.0213,3.70392c-0.01825,-2.58563 -1.27246,-4.87714 -3.19672,-6.32776c-0.4981,0.2818 -1.22509,0.7345 -2.08795,1.36615Z" transform="translate(14.7125, 5.6156)"></path><path d="M4.0932,2.5683c0.36035,-0.35053 0.85059,-0.5683 1.39258,-0.5683c0.35431,0 0.68225,0.1001 0.97095,0.2619c0.73181,-0.54034 1.37543,-0.96082 1.88794,-1.26526c-1.14527,-0.6336 -2.46003,-0.99664 -3.85889,-0.99664c-1.66138,0 -3.20551,0.50983 -4.48578,1.38019c1.44434,0.25757 2.81586,0.67334 4.0932,1.18811Z" transform="translate(7.51422, 4)"></path><path d="M8.74415,2.3219c-0.34815,0.58905 -0.98285,0.98865 -1.71619,0.98865c-1.104,0 -2,-0.896 -2,-2c0,-0.07446 0.01398,-0.14508 0.02191,-0.21747c-0.72852,-0.3371 -1.37268,-0.70746 -1.96136,-1.09308c-0.30811,0.19391 -0.66986,0.31055 -1.06055,0.31055c-0.22717,0 -0.44189,-0.04608 -0.64545,-0.11597c-0.47424,0.7309 -0.93359,1.52856 -1.38251,2.35901c1.46778,1.68524 3.62299,2.75696 6.02796,2.75696c2.27167,0 4.32043,-0.95636 5.77808,-2.48212c-1.11066,-0.11328 -2.1222,-0.28894 -3.06189,-0.50653Z" transform="translate(5.97204, 14.6895)"></path><path d="M2.51642,4.80676c-0.31757,-0.35406 -0.51642,-0.81695 -0.51642,-1.32965c0,-0.29395 0.0672,-0.57092 0.18121,-0.82239c-0.84906,-0.9906 -1.40771,-1.92944 -1.78394,-2.65472c-0.25512,0.78088 -0.39727,1.61218 -0.39727,2.47711c0,1.61145 0.48297,3.11041 1.30597,4.36749c0.39575,-0.71234 0.79809,-1.39966 1.21045,-2.03784Z" transform="translate(4, 9.52289)"></path><path d="M0.03338,2.13635c0.31921,0.6629 0.8739,1.79254 1.88855,3.00647c0.32953,-0.23889 0.73126,-0.38391 1.16907,-0.38391c0.29517,0 0.57312,0.06787 0.82544,0.18286c0.78107,-0.9447 1.55469,-1.77118 2.30304,-2.49707c-0.07886,-0.21478 -0.12848,-0.44379 -0.12848,-0.68579c0,-0.18988 0.03497,-0.36993 0.08447,-0.54401c-1.43829,-0.57324 -2.99121,-1.0069 -4.62341,-1.2149c-0.62274,0.59918 -1.14838,1.29645 -1.55206,2.06903c0.01184,0.0246 0.02105,0.04169 0.03338,0.06732Z" transform="translate(4.909, 6.24109)"></path><path fill="#6F6F6F" d="M10,0c-5.51416,0 -10,4.48584 -10,10c0,5.51367 4.48584,10 10,10c5.51367,0 10,-4.48633 10,-10c0,-5.51416 -4.48633,-10 -10,-10Zm-2.38849,9.82538c0.71606,-0.86108 1.42584,-1.62262 2.11426,-2.29608c0.336,0.28033 0.76044,0.45563 1.22943,0.46619c0.19983,1.03149 0.41187,2.43243 0.5011,4.06177c-0.14716,-0.03455 -0.29865,-0.05726 -0.4563,-0.05726c-0.66638,0 -1.25293,0.32977 -1.61646,0.83136c-0.59564,-0.28015 -1.13196,-0.5824 -1.62537,-0.89734c0.1493,-0.28003 0.24183,-0.59473 0.24183,-0.93402c0,-0.44043 -0.14697,-0.84412 -0.38849,-1.17462Zm4.87164,2.84442c-0.06396,-2.00012 -0.31506,-3.70465 -0.55145,-4.91034c0.2594,-0.13782 0.48413,-0.32788 0.65991,-0.56073c2.52252,1.50604 4.40112,3.16187 5.30396,4.02985c-0.19086,1.22949 -0.65698,2.36743 -1.34198,3.3457c-1.30597,-0.10205 -2.48956,-0.28198 -3.55829,-0.52789c0.00037,-0.01581 0.0047,-0.03052 0.0047,-0.04639c0,-0.51294 -0.19904,-0.97607 -0.51685,-1.3302Zm5.51398,-2.72644c-1.0777,-0.9848 -2.81329,-2.40521 -5.0213,-3.70392c0.00958,-0.07941 0.02417,-0.15741 0.02417,-0.23944c0,-0.37347 -0.10907,-0.71899 -0.28754,-1.01825c0.86285,-0.63165 1.58984,-1.08435 2.08795,-1.36615c1.92426,1.45062 3.17847,3.74213 3.19672,6.32776Zm-4.13824,-6.94672c-0.51251,0.30444 -1.15613,0.72491 -1.88794,1.26526c-0.2887,-0.1618 -0.61664,-0.2619 -0.97095,-0.2619c-0.54199,0 -1.03223,0.21777 -1.39258,0.5683c-1.27734,-0.51477 -2.64886,-0.93054 -4.0932,-1.18811c1.28027,-0.87036 2.8244,-1.38019 4.48578,-1.38019c1.39886,0 2.71362,0.36304 3.85889,0.99664Zm-9.39783,1.24445c1.6322,0.20801 3.18512,0.64166 4.62341,1.2149c-0.0495,0.17408 -0.08447,0.35413 -0.08447,0.54401c0,0.242 0.04962,0.47101 0.12848,0.68579c-0.74835,0.72589 -1.52197,1.55237 -2.30304,2.49707c-0.25232,-0.11499 -0.53027,-0.18286 -0.82544,-0.18286c-0.43781,0 -0.83954,0.14502 -1.16907,0.38391c-1.01465,-1.21393 -1.56933,-2.34357 -1.88855,-3.00647c-0.01233,-0.02563 -0.02154,-0.04272 -0.03338,-0.06732c0.40368,-0.77258 0.92932,-1.46985 1.55206,-2.06903Zm-2.06378,3.2818c0.37622,0.72528 0.93488,1.66412 1.78394,2.65472c-0.11402,0.25147 -0.18122,0.52844 -0.18122,0.82239c0,0.5127 0.19885,0.97559 0.51642,1.32965c-0.41235,0.63818 -0.8147,1.3255 -1.21045,2.03784c-0.823,-1.25708 -1.30597,-2.75604 -1.30597,-4.36749c0,-0.86493 0.14215,-1.69623 0.39728,-2.47711Zm7.60272,10.4771c-2.40497,0 -4.56018,-1.07172 -6.02795,-2.75696c0.44891,-0.83044 0.90826,-1.62811 1.38251,-2.35901c0.20355,0.06989 0.41827,0.11597 0.64544,0.11597c0.39069,0 0.75244,-0.11664 1.06055,-0.31055c0.58868,0.38562 1.23285,0.75598 1.96136,1.09308c-0.00793,0.07239 -0.02191,0.14301 -0.02191,0.21747c0,1.104 0.896,2 2,2c0.73334,0 1.36804,-0.3996 1.71619,-0.98865c0.9397,0.21759 1.95123,0.39325 3.06189,0.50653c-1.45765,1.52576 -3.50641,2.48212 -5.77808,2.48212Z" transform="translate(2, 2)"></path></g><path d="M0,0h24v24h-24Z"></path></g></g></svg>