<?xml version="1.0" encoding="UTF-8"?><svg width="576" height="576" version="1.1" viewBox="0 0 576 576" xmlns="http://www.w3.org/2000/svg" xmlns:xlink="http://www.w3.org/1999/xlink"><!--Generated by IJSVG (https://github.com/curthard89/IJSVG)--><g transform="scale(24)"><g fill="none"><path d="M0,0h24v24h-24Z"></path><path fill="#6F6F6F" d="M8,5c0,-1.65672 -1.34328,-3 -3,-3c-1.65672,0 -3,1.34328 -3,3c0,1.65672 1.34328,3 3,3c1.65672,0 3,-1.34328 3,-3Zm2,0c0,2.76128 -2.23872,5 -5,5c-2.76128,0 -5,-2.23872 -5,-5c0,-2.76128 2.23872,-5 5,-5c2.76128,0 5,2.23872 5,5Z" transform="translate(7, 3.5)"></path><path fill="#6F6F6F" d="M2,4c0,-1.0894 0.9443,-2 2.111,-2h7.778c1.1667,0 2.111,0.9106 2.111,2c0,0.55228 0.44772,1 1,1c0.55228,0 1,-0.44772 1,-1c0,-2.21056 -1.85567,-4 -4.111,-4h-7.778c-2.25533,0 -4.111,1.78944 -4.111,4c0,0.55228 0.44772,1 1,1c0.55228,0 1,-0.44772 1,-1Z" transform="translate(4, 15.5)"></path></g></g></svg>