<?xml version="1.0" encoding="UTF-8"?>
<svg width="23px" height="20px" viewBox="0 0 23 20" version="1.1" xmlns="http://www.w3.org/2000/svg" xmlns:xlink="http://www.w3.org/1999/xlink">
    <!-- Generator: Sketch 49.1 (51147) - http://www.bohemiancoding.com/sketch -->
    <title>eum_devices</title>
    <desc>Created with Sketch.</desc>
    <defs></defs>
    <g id="Page-1" stroke="none" stroke-width="1" fill="none" fill-rule="evenodd">
        <g id="eum_devices" fill="#6F6F6F" fill-rule="nonzero">
            <path d="M12.86249,19.84998 L12.93732,19.84998 C12.91211,19.81995 12.8866,19.79041 12.86249,19.75946 L12.86249,19.84998 Z" id="Shape"></path>
            <path d="M4.00165,2.03229 L18.92707,2.03229 L18.92942,4.56275 L20.92707,4.56079 L20.92707,1.91999 C20.92707,0.87745 20.08192,0.03229 19.03937,0.03229 L3.88934,0.03229 C2.8468,0.03229 2.00164,0.87744 2.00164,1.91999 L2.00164,11.97523 C2.00164,12.32832 2.10467,12.65486 2.27343,12.93751 L0.15625,12.93751 L0.15625,15.39808 L12.17084,15.39808 L12.17084,13.86292 L12.17084,12.9375 L12.17084,11.86292 L4.00165,11.86292 L4.00165,2.03229 Z" id="Shape"></path>
            <path d="M20.92706,6.138 C20.77356,6.09375 20.61468,6.0625 20.44708,6.0625 L20.16247,6.0625 L18.92706,6.0625 L17.96252,6.0625 L15.41168,6.0625 C15.25543,6.0625 15.10669,6.08972 14.96252,6.12836 C14.22094,6.32715 13.67083,6.99634 13.67083,7.79737 L13.67083,11.86292 L13.67083,12.9375 L13.67083,13.86292 L13.67083,15.39808 L13.67083,17.78596 C13.67083,18.74275 14.45159,19.52082 15.41167,19.52082 L20.16246,19.52082 L20.44707,19.52082 C21.40673,19.52082 22.18749,18.74274 22.18749,17.78596 L22.18749,7.79736 C22.1875,7.00769 21.65234,6.34723 20.92706,6.138 Z M20.3786,17.71814 L20.16247,17.71814 L15.47973,17.71814 L15.47973,13.86292 L15.47973,11.86292 L15.47973,7.86512 L15.72216,7.86512 L18.92706,7.86512 L20.07232,7.86512 L20.16247,7.86512 L20.3786,7.86512 L20.3786,13.30463 L20.3786,17.71814 Z" id="Shape"></path>
            <polygon id="Shape" points="16.73895 8.6922 16.73895 9.4986 16.97974 9.4986 18.8786 9.4986 18.92706 9.4986 19.11932 9.4986 19.11932 8.6922 18.92706 8.6922"></polygon>
        </g>
    </g>
</svg>