<?xml version="1.0" encoding="utf-8"?>
<!-- Generator: Adobe Illustrator 22.0.1, SVG Export Plug-In . SVG Version: 6.00 Build 0)  -->
<svg version="1.1" id="Layer_1" xmlns="http://www.w3.org/2000/svg" xmlns:xlink="http://www.w3.org/1999/xlink" x="0px" y="0px"
	 viewBox="0 0 24 24" style="enable-background:new 0 0 24 24;" xml:space="preserve">
<style type="text/css">
	.st0{fill:none;}
	.st1{fill:#585D63;}
	.st2{fill:#FFFFFF;}
</style>
<title>eum cloud</title>
<desc>Created with Sketch.</desc>
<g>
	<polygon class="st0" points="15.43524,6.77802 15.43524,4.88898 2.5127,4.88898 2.21222,4.88898 2.21222,6.77802 2.5127,6.77802 	
		"/>
	<path class="st0" d="M15.11133,14.34863c0,1.21973,0.99219,2.21191,2.21289,2.21191s2.21289-0.99219,2.21289-2.21191
		s-0.99219-2.21289-2.21289-2.21289S15.11133,13.12891,15.11133,14.34863z"/>
	<path class="st1" d="M12.93402,18.10999H9.76825V16.2226h2.08545c-0.20227-0.58868-0.31738-1.21747-0.31738-1.87396
		c0-0.00543,0.00079-0.01062,0.00079-0.01605H2.21222V12.4436h9.61304c0.21478-0.69977,0.56726-1.33929,1.02557-1.888H1.74023
		c-0.77899,0-1.41602,0.63702-1.41602,1.41699v2.83301c0,0.77899,0.63702,1.41699,1.41602,1.41699h6.13898v1.88739H1.26892
		c-0.52197,0-0.94501,0.42303-0.94501,0.94501C0.32391,19.57599,0.74695,20,1.26892,20h8.85797
		c0.67871-0.92578,1.69366-1.57965,2.86829-1.82269C12.9751,18.1546,12.9538,18.133,12.93402,18.10999z"/>
	<path class="st1" d="M1.74023,8.66699h14.16699c0.77899,0,1.41699-0.638,1.41699-1.41699V4.41699
		C17.32422,3.638,16.68622,3,15.90723,3H1.74023C0.96124,3,0.32422,3.638,0.32422,4.41699V7.25
		C0.32422,8.02899,0.96124,8.66699,1.74023,8.66699z M2.21222,4.88898H2.5127h12.92255v1.88904H2.5127H2.21222V4.88898z"/>
	<path class="st2" d="M13.17249,18.13263c-0.06097,0.01019-0.11719,0.03223-0.17731,0.04468
		c0.00226,0.0025,0.00452,0.00494,0.00677,0.00745C13.06006,18.1701,13.11365,18.14532,13.17249,18.13263z"/>
	<path class="st1" d="M20.38672,19.71094h-0.89349h-4.33801h-0.89349c-1.86816,0-3.38818,1.48047-3.38818,3.30078h1.87549
		c0-0.78613,0.67871-1.4248,1.5127-1.4248h6.125c0.83398,0,1.5127,0.63867,1.5127,1.4248h1.87598
		C23.77539,21.19141,22.25488,19.71094,20.38672,19.71094z"/>
	<path class="st1" d="M13.23633,14.34863c0,1.61292,0.94708,2.99768,2.30725,3.66229c0.54053,0.26416,1.13965,0.4256,1.78064,0.4256
		s1.24011-0.16144,1.78064-0.4256c1.36017-0.66461,2.30725-2.04938,2.30725-3.66229c0-2.25391-1.83398-4.08789-4.08789-4.08789
		S13.23633,12.09473,13.23633,14.34863z M19.53711,14.34863c0,1.21973-0.99219,2.21191-2.21289,2.21191
		s-2.21289-0.99219-2.21289-2.21191s0.99219-2.21289,2.21289-2.21289S19.53711,13.12891,19.53711,14.34863z"/>
</g>
</svg>
