<?xml version="1.0" encoding="utf-8"?>
<!-- Generator: Adobe Illustrator 22.0.1, SVG Export Plug-In . SVG Version: 6.00 Build 0)  -->
<svg version="1.1" id="Layer_1" xmlns="http://www.w3.org/2000/svg" xmlns:xlink="http://www.w3.org/1999/xlink" x="0px" y="0px"
	 viewBox="0 0 24 24" style="enable-background:new 0 0 24 24;" xml:space="preserve">
<style type="text/css">
	.st0{fill:#6F6F6F;}
	.st1{fill:#8C8C8C;}
	.st2{fill:none;}
</style>
<title>mobile EUM info</title>
<desc>Created with Sketch.</desc>
<g id="Clip-4">
</g>
<g>
	<path class="st0" d="M8.8,19.1V3.9h7.3v7.3c0.3-0.1,0.6-0.1,0.9-0.1s0.6,0,0.9,0.1V3.6c0-0.9-0.6-1.6-1.4-1.6H8.4
		C7.6,2,7,2.7,7,3.6v15.8C7,20.3,7.6,21,8.4,21h3.2c-0.4-0.6-0.6-1.2-0.8-1.9H8.8z"/>
	<rect x="10.9" y="5.1" class="st0" width="3" height="1"/>
	<path class="st1" d="M17.9,13.2c-0.3-0.1-0.6-0.1-0.9-0.1s-0.6,0-0.9,0.1c-2,0.4-3.5,2.2-3.5,4.3c0,0.5,0.1,1,0.3,1.5
		c0.3,0.8,0.8,1.4,1.4,1.9c0.8,0.6,1.7,1,2.8,1c2.4,0,4.4-2,4.4-4.4C21.4,15.4,19.9,13.7,17.9,13.2z"/>
</g>
<rect class="st2" width="24" height="24"/>
</svg>
