<?xml version="1.0" encoding="utf-8"?>
<!-- Generator: Adobe Illustrator 22.0.1, SVG Export Plug-In . SVG Version: 6.00 Build 0)  -->
<svg version="1.1" id="Layer_1" xmlns="http://www.w3.org/2000/svg" xmlns:xlink="http://www.w3.org/1999/xlink" x="0px" y="0px"
	 viewBox="0 0 24 24" style="enable-background:new 0 0 24 24;" xml:space="preserve">
<style type="text/css">
	.st0{fill:none;}
	.st1{fill:#585D63;}
</style>
<title>events service</title>
<desc>Created with Sketch.</desc>
<g id="Clip-2">
</g>
<g>
	<rect x="2" y="4.82642" class="st0" width="14" height="2"/>
	<path class="st1" d="M1.5,8.82642h15c0.82501,0,1.5-0.67499,1.5-1.5v-3c0-0.82501-0.67499-1.5-1.5-1.5h-15
		c-0.82501,0-1.5,0.67499-1.5,1.5v3C0,8.15143,0.67499,8.82642,1.5,8.82642z M2,4.82642h14v2H2V4.82642z"/>
	<path class="st1" d="M10,18.82544v-1.99902h0.92749c-0.00006-0.0119-0.00177-0.02332-0.00177-0.03522
		c0-0.68866,0.12036-1.3479,0.33191-1.96478H2v-2h10.409c0.89362-1.03101,2.1275-1.75488,3.52875-2H1.5
		c-0.82501,0-1.5,0.67499-1.5,1.5v3c0,0.82501,0.67499,1.5,1.5,1.5H8v1.99902H1c-0.55225,0-1,0.44727-1,1s0.44775,1,1,1h11.47211
		c-0.51697-0.57825-0.92316-1.25464-1.18909-2H10z"/>
	<path class="st1" d="M23.51123,21.99799l-1.5694-1.56946l-0.07428-0.0744l-1.0874-1.08954l-0.06329-0.06342l-0.00311-0.00067
		l-0.19855-0.19855c0.66235-1.04211,0.82672-2.26074,0.46069-3.45905c-0.43884-1.43298-1.66388-2.54877-3.12115-2.84271
		c-0.28796-0.05811-0.57983-0.08752-0.86743-0.08752c-1.25836,0-2.4375,0.55884-3.23505,1.53326s-1.1095,2.2547-0.85583,3.51257
		c0.29407,1.45728,1.40985,2.68237,2.84259,3.12103c0.41333,0.12622,0.83325,0.19025,1.24835,0.19025
		c0.77832,0,1.53754-0.22418,2.21082-0.65057l0.19806,0.19781v0.00012l0.06458,0.06683l1.05566,1.05322l0.034,0.034l0.03992,0.03992
		l1.60321,1.60376c0.17639,0.17596,0.41022,0.27277,0.65881,0.27277c0.24854,0,0.48242-0.0968,0.65851-0.27246
		C23.87427,22.95184,23.87427,22.36102,23.51123,21.99799z M16.98743,19.17651c-1.31525,0-2.38525-1.07007-2.38525-2.38531
		s1.07001-2.38531,2.38525-2.38531s2.38531,1.07007,2.38531,2.38531S18.30267,19.17651,16.98743,19.17651z"/>
</g>
</svg>
