<?xml version="1.0" encoding="UTF-8"?><svg width="576" height="576" version="1.1" viewBox="0 0 576 576" xmlns="http://www.w3.org/2000/svg" xmlns:xlink="http://www.w3.org/1999/xlink"><!--Generated by IJSVG (https://github.com/curthard89/IJSVG)--><g transform="scale(24)"><g fill="none"><path d="M0,0h24v24h-24Z"></path><g transform="translate(3, 3)"></g><g fill="none"><path d="M12.1815,0.00061l-10.551,0.00744c-0.89899,0.00061 -1.63049,0.73316 -1.62988,1.63215l0.00616,8.73804c0.00067,0.89899 0.73315,1.63043 1.6322,1.62982l10.551,-0.00745c0.89899,-0.00061 1.63049,-0.73315 1.62988,-1.63214l-0.00616,-8.73798c-0.00066,-0.89905 -0.73315,-1.63049 -1.63219,-1.62988Z" transform="translate(4.99518, 4.99573)"></path><path fill="#6F6F6F" d="M17.8145,3.62982c-0.00146,-1.99695 -1.6366,-3.62982 -3.63361,-3.62842l-10.551,0.00744c-1.99701,0.0014 -3.62988,1.6366 -3.62848,3.63354l0.00616,8.73804c0.00092,1.27557 0.67194,2.39697 1.67444,3.04437l0.0014,1.95685c0.00043,0.55896 0.67657,0.8385 1.07135,0.44324l1.81342,-1.81671l9.62396,-0.00677c1.99701,-0.0014 3.62988,-1.63654 3.62848,-3.63354l-0.00616,-8.73804Zm-3.62372,10.3716l-10.551,0.00744c-0.89905,0.00061 -1.63153,-0.73083 -1.6322,-1.62982l-0.00617,-8.73803c-0.00061,-0.89899 0.7309,-1.63153 1.62988,-1.63214l10.551,-0.00745c0.89905,-0.00061 1.63153,0.73083 1.6322,1.62988l0.00617,8.73798c0.00061,0.89898 -0.73089,1.63153 -1.62988,1.63214Z" transform="translate(2.99439, 2.99494)"></path></g><g fill="#6F6F6F"><use transform="translate(6.99935, 10.3287)" xlink:href="#path-1"></use><use transform="translate(6.99935, 7.2662)" xlink:href="#path-1"></use><path d="M0,0h9v1.5h-9Z" transform="translate(7.00147, 13.328)"></path></g></g></g><defs><path id="path-1" d="M0,0h6.98694v1.5h-6.98694Z"></path></defs></svg>