<?xml version="1.0" encoding="utf-8"?>
<!-- Generator: Adobe Illustrator 22.0.1, SVG Export Plug-In . SVG Version: 6.00 Build 0)  -->
<svg version="1.1" id="Layer_1" xmlns="http://www.w3.org/2000/svg" xmlns:xlink="http://www.w3.org/1999/xlink" x="0px" y="0px"
	 viewBox="0 0 24 24" style="enable-background:new 0 0 24 24;" xml:space="preserve">
<style type="text/css">
	.st0{fill:none;}
	.st1{fill:#585D63;}
</style>
<title>events</title>
<desc>Created with Sketch.</desc>
<g id="places">
	<g id="events">
		<rect id="Rectangle-12" x="0" y="0" class="st0" width="24" height="24"/>
		<g id="Page-1" transform="translate(3.000000, 3.000000)">
			<g id="Clip-2">
			</g>
			<g id="Clip-7">
			</g>
		</g>
		<g>
			<path class="st0" d="M17.17664,4.99634L6.62567,5.00378C5.72668,5.00439,4.99518,5.73694,4.99579,6.63593l0.00616,8.73804
				c0.00067,0.89899,0.73315,1.63043,1.6322,1.62982l10.55096-0.00745c0.89899-0.00061,1.63049-0.73315,1.62988-1.63214
				l-0.00616-8.73798C18.80817,5.72717,18.07568,4.99573,17.17664,4.99634z"/>
			<path class="st1" d="M20.80884,6.62476c-0.00146-1.99695-1.6366-3.62982-3.63361-3.62842L6.62427,3.00378
				c-1.99701,0.0014-3.62988,1.6366-3.62848,3.63354l0.00616,8.73804c0.00092,1.27557,0.67194,2.39697,1.67444,3.04437
				l0.0014,1.95685c0.00043,0.55896,0.67657,0.8385,1.07135,0.44324l1.81342-1.81671l9.62396-0.00677
				c1.99701-0.0014,3.62988-1.63654,3.62848-3.63354L20.80884,6.62476z M17.18512,16.99634L6.63416,17.00378
				c-0.89905,0.00061-1.63153-0.73083-1.6322-1.62982L4.99579,6.63593c-0.00061-0.89899,0.7309-1.63153,1.62988-1.63214
				l10.55096-0.00745c0.89905-0.00061,1.63153,0.73083,1.6322,1.62988L18.815,15.3642
				C18.81561,16.26318,18.08411,16.99573,17.18512,16.99634z"/>
		</g>
		<g id="Rectangle-4-Copy-2">
			<g>
				<rect id="path-6" x="6.99935" y="10.3287" class="st1" width="6.98694" height="1.5"/>
			</g>
		</g>
		<g id="Rectangle-4-Copy-2_1_">
			<g>
				<rect id="path-6_1_" x="6.99935" y="7.2662" class="st1" width="6.98694" height="1.5"/>
			</g>
		</g>
		<g id="Rectangle-4-Copy-4">
			<g>
				<rect id="path-7" x="7.00147" y="13.32799" class="st1" width="9" height="1.5"/>
			</g>
		</g>
	</g>
</g>
</svg>
