<?xml version="1.0" encoding="UTF-8"?><svg width="576" height="576" version="1.1" viewBox="0 0 576 576" xmlns="http://www.w3.org/2000/svg" xmlns:xlink="http://www.w3.org/1999/xlink"><!--Generated by IJSVG (https://github.com/curthard89/IJSVG)--><g transform="scale(24)"><g fill="none"><g fill="none"><path d="M0,0h13.223v1.88904h-13.223Z" transform="translate(2.638, 4.88898)"></path><path d="M3.64013,0.26343c-0.33496,-0.16351 -0.70618,-0.26343 -1.10333,-0.26343c-0.27594,0 -0.5368,0.05542 -0.78564,0.13733c-0.48199,0.15863 -0.89728,0.45404 -1.20374,0.84558c-0.33765,0.4314 -0.54742,0.96753 -0.54742,1.55664c0,0.11414 0.01904,0.22314 0.03369,0.33337c0.10876,0.81781 0.60266,1.50745 1.29803,1.88739c0.36011,0.19678 0.7666,0.31879 1.20508,0.31879c0.25067,0 0.4881,-0.04779 0.71692,-0.11591c1.04858,-0.31201 1.81989,-1.27466 1.81989,-2.42365c-1e-05,-1.00249 -0.58833,-1.86351 -1.43348,-2.27611Z" transform="translate(14.1099, 13.3497)"></path><path fill="#6F6F6F" d="M11.1694,7.55439h-1.7251v-1.88739h1.24927c-0.0072,-0.11237 -0.03357,-0.21918 -0.03357,-0.33337c0,-0.54584 0.10693,-1.06177 0.2616,-1.55664h-9.03333v-1.88899h10.0905c0.95984,-1.09296 2.35065,-1.797 3.91815,-1.797c0.08344,0 0.16107,0.02075 0.24353,0.0246c-0.17139,-0.07391 -0.35956,-0.1156 -0.55719,-0.1156h-14.167c-0.77899,0 -1.41602,0.63702 -1.41602,1.41699v2.83301c0,0.77899 0.63702,1.41699 1.41602,1.41699h6.13898v1.88739h-6.6103c-0.52197,0 -0.94501,0.42303 -0.94501,0.94501c-1.11022e-16,0.521 0.42304,0.94501 0.94501,0.94501h11.7382c-0.64123,-0.5033 -1.16315,-1.14417 -1.51373,-1.89001Z" transform="translate(0.74969, 10.5556)"></path><path fill="#6F6F6F" d="M1.41602,5.66699h14.167c0.77899,0 1.41699,-0.638 1.41699,-1.41699v-2.83301c0,-0.77899 -0.638,-1.41699 -1.41699,-1.41699h-14.167c-0.779,0 -1.41602,0.638 -1.41602,1.41699v2.83301c0,0.77899 0.63702,1.41699 1.41602,1.41699Zm0.47198,-3.77801h13.223v1.88904h-13.223v-1.88904Z" transform="translate(0.75, 3)"></path><path fill="#6F6F6F" d="M10.8647,9.44005l-2.4563,-2.45892l-0.58789,-0.58856c-0.09271,-0.09283 -0.20068,-0.15942 -0.31384,-0.20886c0.38062,-0.61884 0.61115,-1.34045 0.61115,-2.12042c0,-1.8584 -1.25397,-3.40833 -2.95557,-3.89203c-0.35303,-0.10034 -0.7182,-0.17126 -1.10333,-0.17126c-0.78351,0 -1.50854,0.23267 -2.12891,0.61768c-0.71796,0.44556 -1.29126,1.09979 -1.61877,1.88898c-0.1991,0.47974 -0.31122,1.00482 -0.31122,1.55664c0,0.1142 0.02435,0.22156 0.03357,0.33337c0.05713,0.69183 0.27209,1.33734 0.63202,1.88739c0.72504,1.10785 1.97168,1.84253 3.39331,1.84253c0.19592,0 0.38342,-0.03088 0.57196,-0.05774c0.56116,-0.08002 1.08356,-0.2688 1.5462,-0.55408c0.04938,0.11328 0.11591,0.22137 0.20862,0.31421l0.58789,0.5885l2.4563,2.45892c0.19781,0.19811 0.45764,0.29766 0.71741,0.29766c0.25977,0 0.51953,-0.09955 0.71741,-0.29767c0.19836,-0.19861 0.29755,-0.45837 0.29755,-0.7182c-1e-05,-0.25976 -0.09919,-0.51959 -0.29756,-0.71814Zm-6.08886,-2.95312c-0.22882,0.06812 -0.46625,0.11591 -0.71692,0.11591c-0.43848,0 -0.84497,-0.12201 -1.20508,-0.31879c-0.69537,-0.37994 -1.18927,-1.06958 -1.29803,-1.88739c-0.01465,-0.11023 -0.03369,-0.21924 -0.03369,-0.33337c0,-0.58911 0.20978,-1.12524 0.54742,-1.55664c0.30646,-0.39154 0.72174,-0.68695 1.20374,-0.84558c0.24884,-0.08191 0.5097,-0.13733 0.78564,-0.13733c0.39716,0 0.76837,0.09991 1.10333,0.26343c0.84515,0.4126 1.43347,1.27362 1.43347,2.27612c0,1.14898 -0.7713,2.11162 -1.81988,2.42364Z" transform="translate(12.5878, 11.8259)"></path></g><path d="M0,0h24v24h-24Z"></path></g></g></svg>