<?xml version="1.0" encoding="UTF-8"?><svg width="576" height="576" version="1.1" viewBox="0 0 576 576" xmlns="http://www.w3.org/2000/svg" xmlns:xlink="http://www.w3.org/1999/xlink"><!--Generated by IJSVG (https://github.com/curthard89/IJSVG)--><g transform="scale(24)"><g fill="none"><g fill="#6F6F6F"><path d="M17,7h-6c-0.54999,0 -1,0.45001 -1,1v0.25h-2.25v-7h-3.75v-0.25c0,-0.54999 -0.45001,-1 -1,-1h-2c-0.54999,0 -1,0.45001 -1,1v2c0,0.54999 0.45001,1 1,1h2c0.54999,0 1,-0.45001 1,-1v-0.25h2.25v5.5h-2.25v-0.25c0,-0.54999 -0.45001,-1 -1,-1h-2c-0.54999,0 -1,0.45001 -1,1v2c0,0.54999 0.45001,1 1,1h2c0.54999,0 1,-0.45001 1,-1v-0.25h2.25v5.5h-2.25v-0.25c0,-0.54999 -0.45001,-1 -1,-1h-2c-0.54999,0 -1,0.45001 -1,1v2c0,0.54999 0.45001,1 1,1h2c0.54999,0 1,-0.45001 1,-1v-0.25h2.25h1.75h2v0.25c0,0.54999 0.45001,1 1,1h6c0.54999,0 1,-0.45001 1,-1v-2c0,-0.54999 -0.45001,-1 -1,-1h-6c-0.54999,0 -1,0.45001 -1,1v0.25h-2h-0.25v-5.5h2.25v0.25c0,0.54999 0.45001,1 1,1h6c0.54999,0 1,-0.45001 1,-1v-2c0,-0.54999 -0.45001,-1 -1,-1Z" transform="translate(3, 3)"></path><path d="M7,0h-6c-0.54999,0 -1,0.45001 -1,1v2c0,0.54999 0.45001,1 1,1h6c0.54999,0 1,-0.45001 1,-1v-2c0,-0.54999 -0.45001,-1 -1,-1Z" transform="translate(13, 3)"></path></g><path d="M0,0h24v24h-24Z"></path></g></g></svg>