<?xml version="1.0" encoding="utf-8"?>
<!-- Generator: Adobe Illustrator 21.1.0, SVG Export Plug-In . SVG Version: 6.00 Build 0)  -->
<svg version="1.1" xmlns="http://www.w3.org/2000/svg" xmlns:xlink="http://www.w3.org/1999/xlink" x="0px" y="0px" width="24px"
	 height="24px" viewBox="0 0 24 24" style="enable-background:new 0 0 24 24;" xml:space="preserve">
<style type="text/css">
	.st0{display:none;}
	.st1{display:inline;}
	.st2{opacity:0.14;}
	.st3{fill:#9569FF;}
	.st4{fill:none;stroke:#9569FF;stroke-width:0.25;stroke-miterlimit:10;}
	.st5{fill:none;stroke:#9569FF;stroke-width:0.25;stroke-miterlimit:10;stroke-dasharray:0.50517,0.50517;}
	.st6{opacity:0.06;}
	.st7{fill:#585D63;}
</style>
<g id="Layer_1" class="st0">
	<g class="st1">
		<g class="st2">
			<path class="st3" d="M19,3.25c0.96495,0,1.75,0.78505,1.75,1.75v14c0,0.96495-0.78505,1.75-1.75,1.75H5
				c-0.96495,0-1.75-0.78505-1.75-1.75V5c0-0.96495,0.78505-1.75,1.75-1.75H19 M19,3H5C3.9,3,3,3.9,3,5v14c0,1.1,0.9,2,2,2h14
				c1.1,0,2-0.9,2-2V5C21,3.9,20.1,3,19,3L19,3z"/>
		</g>
		<g class="st2">
			<path class="st3" d="M20,5.25c0.96495,0,1.75,0.78505,1.75,1.75v10c0,0.96495-0.78505,1.75-1.75,1.75H4
				c-0.96495,0-1.75-0.78505-1.75-1.75V7c0-0.96495,0.78505-1.75,1.75-1.75H20 M20,5H4C2.9,5,2,5.9,2,7v10c0,1.1,0.9,2,2,2h16
				c1.1,0,2-0.9,2-2V7C22,5.9,21.1,5,20,5L20,5z"/>
		</g>
		<g class="st2">
			<path class="st3" d="M17,2.25c0.96495,0,1.75,0.78505,1.75,1.75v16c0,0.96495-0.78505,1.75-1.75,1.75H7
				c-0.96495,0-1.75-0.78505-1.75-1.75V4c0-0.96495,0.78505-1.75,1.75-1.75H17 M17,2H7C5.9,2,5,2.9,5,4v16c0,1.1,0.9,2,2,2h10
				c1.1,0,2-0.9,2-2V4C19,2.9,18.1,2,17,2L17,2z"/>
		</g>
		<g class="st2">
			<path class="st3" d="M12,2.25c5.37617,0,9.75,4.37383,9.75,9.75s-4.37383,9.75-9.75,9.75S2.25,17.37617,2.25,12
				S6.62383,2.25,12,2.25 M12,2C6.47715,2,2,6.47715,2,12s4.47715,10,10,10s10-4.47715,10-10S17.52285,2,12,2L12,2z"/>
		</g>
		<g class="st2">
			<g>
				<line class="st4" x1="2" y1="2" x2="2.17678" y2="2.17678"/>
				<line class="st5" x1="2.53398" y1="2.53398" x2="21.64462" y2="21.64462"/>
				<line class="st4" x1="21.82322" y1="21.82322" x2="22" y2="22"/>
			</g>
		</g>
		<g class="st2">
			<g>
				<line class="st4" x1="22" y1="2" x2="21.82322" y2="2.17678"/>
				<line class="st5" x1="21.46601" y1="2.53398" x2="2.35538" y2="21.64462"/>
				<line class="st4" x1="2.17678" y1="21.82322" x2="2" y2="22"/>
			</g>
		</g>
		<g class="st2">
			<path class="st3" d="M12,7.25c2.61916,0,4.75,2.13084,4.75,4.75s-2.13084,4.75-4.75,4.75S7.25,14.61916,7.25,12
				S9.38084,7.25,12,7.25 M12,7c-2.76142,0-5,2.23858-5,5s2.23858,5,5,5s5-2.23858,5-5S14.76142,7,12,7L12,7z"/>
		</g>
		<g class="st2">
			<path class="st3" d="M12,8.25c2.06776,0,3.75,1.68224,3.75,3.75s-1.68224,3.75-3.75,3.75S8.25,14.06776,8.25,12
				S9.93224,8.25,12,8.25 M12,8c-2.20914,0-4,1.79086-4,4s1.79086,4,4,4s4-1.79086,4-4S14.20914,8,12,8L12,8z"/>
		</g>
		<g class="st2">
			<path class="st3" d="M12,9.25c1.51636,0,2.75,1.23364,2.75,2.75s-1.23364,2.75-2.75,2.75S9.25,13.51636,9.25,12
				S10.48364,9.25,12,9.25 M12,9c-1.65685,0-3,1.34315-3,3s1.34315,3,3,3s3-1.34315,3-3S13.65685,9,12,9L12,9z"/>
		</g>
		<g class="st6">
			<path class="st3" d="M22,2v20H2V2H22 M24,0H0v24h24V0L24,0z"/>
		</g>
	</g>
</g>
<g id="Layer_2">
</g>
<g id="Layer_3">
	<g>
		<path class="st7" d="M15.89594,14.08997C15.38123,16.87927,12.93597,19,10,19c-3.30859,0-6-2.69141-6-6s2.69141-6,6-6
			c0.02356,0,0.0462,0.0033,0.0697,0.00354l0.51611-0.51611l1.26306-1.26306C11.25427,5.08289,10.63727,5,10,5
			c-4.41113,0-8,3.58887-8,8s3.58887,8,8,8c4.04053,0,7.38232-3.01398,7.91681-6.91003h-1.8335H15.89594z"/>
		<polygon class="st7" points="17.25,2.65167 13.88757,6.0141 12.39813,7.50354 12,7.90167 13.14783,7.90167 16.08331,7.90167 
			16.08331,12.08997 17.94434,12.08997 18.41669,12.08997 18.41669,7.90167 22.5,7.90167 		"/>
		<polygon class="st7" points="9.125,10.125 9.125,13.71191 12.25098,15.58789 13.01758,14.33105 10.625,12.91113 10.625,10.125 		
			"/>
	</g>
</g>
</svg>
