<?xml version="1.0" encoding="UTF-8"?><svg width="576" height="576" version="1.1" viewBox="0 0 576 576" xmlns="http://www.w3.org/2000/svg" xmlns:xlink="http://www.w3.org/1999/xlink"><!--Generated by IJSVG (https://github.com/curthard89/IJSVG)--><g transform="scale(24)"><g fill="none"><g transform="translate(2.21582, 1.67969)"></g><g fill="none"><path d="M0,0h13.223v1.88904h-13.223Z" transform="translate(4.10382, 4.56866)"></path><path fill="#6F6F6F" d="M0.94501,0c-0.52197,0 -0.94501,0.42303 -0.94501,0.94501c0,0.521 0.42303,0.94501 0.94501,0.94501h6.56378l0.00165,-1.89001h-6.56543Z" transform="translate(2.21551, 17.7897)"></path><path fill="#6F6F6F" d="M1.41602,5.66699h14.167c0.77899,0 1.41699,-0.638 1.41699,-1.41699v-2.83301c0,-0.77899 -0.638,-1.41699 -1.41699,-1.41699h-14.167c-0.77899,0 -1.41602,0.638 -1.41602,1.41699v2.83301c0,0.77899 0.63702,1.41699 1.41602,1.41699Zm0.47198,-3.77802h13.223v1.88904h-13.223v-1.88904Z" transform="translate(2.21582, 2.67969)"></path><path fill="#6F6F6F" d="M7.53076,3.77698h-5.64276v-1.88898h13.223v1.31421h1.88898v-1.78522c0,-0.77997 -0.638,-1.41699 -1.41699,-1.41699h-14.167c-0.77899,0 -1.41602,0.63702 -1.41602,1.41699v2.83301c0,0.77899 0.63702,1.41699 1.41602,1.41699h6.0957l0.00146,-1.71576c0,-0.05969 0.01246,-0.1159 0.01758,-0.17425Z" transform="translate(2.21582, 10.2353)"></path><path fill="#0076FF" d="M10.4473,1.24414h-5.28711l-1.24414,-1.24414h-3.42187c-0.26904,0 -0.48779,0.22168 -0.48779,0.49414l-0.00635,7.46484c0,0.2666 0.22607,0.49316 0.49414,0.49316h9.95312c0.26758,0 0.49414,-0.22656 0.49414,-0.49414v-6.2207c0,-0.26757 -0.22656,-0.49316 -0.49414,-0.49316Z" transform="translate(11.2227, 13.6934)"></path></g><path d="M0,0h24v24h-24Z"></path></g></g></svg>