<?xml version="1.0" encoding="utf-8"?>
<!-- Generator: Adobe Illustrator 22.1.0, SVG Export Plug-In . SVG Version: 6.00 Build 0)  -->
<svg version="1.1" id="Layer_1" xmlns="http://www.w3.org/2000/svg" xmlns:xlink="http://www.w3.org/1999/xlink" x="0px" y="0px"
	 viewBox="0 0 24 24" style="enable-background:new 0 0 24 24;" xml:space="preserve">
<style type="text/css">
	.st0{fill:#585D63;}
	.st1{fill:none;}
</style>
<g id="actions">
	<g id="filter">
		<path id="Page-1" class="st0" d="M12,4.6c9.1,0,9.1,0.7,9.1,1.5c0,0.2-0.5,0.9-0.5,0.9l-5.7,7.1v4.4c0,1.4-2.2,1.5-2.9,1.5
			s-2.9-0.2-2.9-1.5v-4.4L3.4,7c0,0-0.5-0.6-0.5-0.9C2.9,5.4,2.9,4.6,12,4.6z M13.2,13.5l5-6.2c-1.3,0.1-3.3,0.2-6.2,0.2
			S7.1,7.4,5.8,7.3l5,6.2v4.5c0.2,0.1,0.7,0.2,1.2,0.2s1-0.1,1.2-0.2V13.5z"/>
		<rect id="Rectangle-12" class="st1" width="24" height="24"/>
	</g>
</g>
</svg>
