<?xml version="1.0" encoding="utf-8"?>
<!-- Generator: Adobe Illustrator 22.0.1, SVG Export Plug-In . SVG Version: 6.00 Build 0)  -->
<svg version="1.1" id="Layer_1" xmlns="http://www.w3.org/2000/svg" xmlns:xlink="http://www.w3.org/1999/xlink" x="0px" y="0px"
	 viewBox="0 0 34 24" style="enable-background:new 0 0 34 24;" xml:space="preserve">
<style type="text/css">
	.st0{fill:#585D63;}
	.st1{fill:none;}
</style>
<path class="st0" d="M22.04156,11l3.9791,3.97902L30,11H22.04156z"/>
<g id="actions">
	<g id="filter">
		<path id="Page-1" class="st0" d="M11,4.62486c9.07812,0,9.07812,0.74276,9.07812,1.48551
			c0,0.24759-0.51592,0.89314-0.51592,0.89314l-5.67371,7.11211v4.37401c0,1.40298-2.22827,1.48551-2.88849,1.48551
			s-2.88849-0.16506-2.88849-1.48551v-4.37401L2.42596,6.98867c0,0-0.50409-0.63072-0.50409-0.87831
			C1.92188,5.36761,1.92188,4.62486,11,4.62486z M12.23793,13.53793l4.9517-6.18963C15.86918,7.43082,13.88849,7.51335,11,7.51335
			S6.13082,7.43082,4.81037,7.3483l4.9517,6.18963v4.53906C10.00966,18.15952,10.4223,18.24205,11,18.24205
			s0.99034-0.08253,1.23793-0.16506V13.53793z"/>
		<rect id="Rectangle-12" x="-1" y="0" class="st1" width="24" height="24"/>
	</g>
</g>
</svg>
