<?xml version="1.0" encoding="UTF-8"?><svg width="576" height="576" version="1.1" viewBox="0 0 576 576" xmlns="http://www.w3.org/2000/svg" xmlns:xlink="http://www.w3.org/1999/xlink"><!--Generated by IJSVG (https://github.com/curthard89/IJSVG)--><g transform="scale(24)"><g fill="#6F6F6F"><path d="M9.07813,0c9.07812,0 9.07812,0.74276 9.07812,1.48551c0,0.24759 -0.51592,0.89314 -0.51592,0.89314l-5.67371,7.11211v4.37401c0,1.40298 -2.22827,1.48551 -2.88849,1.48551c-0.66022,0 -2.88849,-0.16506 -2.88849,-1.48551v-4.37401l-5.68555,-7.12695c4.44089e-16,0 -0.50409,-0.63072 -0.50409,-0.87831c1e-05,-0.74275 1e-05,-1.4855 9.07813,-1.4855Zm1.23793,8.91307l4.9517,-6.18963c-1.32045,0.08252 -3.30114,0.16505 -6.18963,0.16505c-2.88849,0 -4.86918,-0.08253 -6.18963,-0.16505l4.9517,6.18963v4.53906c0.24759,0.08253 0.66023,0.16506 1.23793,0.16506c0.5777,0 0.99034,-0.08253 1.23793,-0.16506v-4.53906Z" transform="translate(2.92187, 4.62486)"></path><path fill="none" d="M0,0h24v24h-24Z"></path></g></g></svg>