<?xml version="1.0" encoding="UTF-8"?><svg width="576" height="576" version="1.1" viewBox="0 0 576 576" xmlns="http://www.w3.org/2000/svg" xmlns:xlink="http://www.w3.org/1999/xlink"><!--Generated by IJSVG (https://github.com/curthard89/IJSVG)--><g transform="scale(24)"><g fill="none"><g transform="translate(2, 2)"></g><g fill="none"><path d="M2.5,5c1.37903,0 2.5,-1.12201 2.5,-2.5c0,-0.66333 -0.2641,-1.26349 -0.68738,-1.71161c-0.45599,-0.48279 -1.09747,-0.78839 -1.81262,-0.78839c-0.61017,0 -1.16248,0.22833 -1.59686,0.59265c-0.03888,0.3006 -0.24792,0.53754 -0.53369,0.61743c-0.22968,0.37793 -0.36945,0.81647 -0.36945,1.28992c0,0.35583 0.07727,0.69318 0.21191,1c0.38678,0.88116 1.2652,1.5 2.28809,1.5Z" transform="translate(13.5, 12.5)"></path><path fill="#6F6F6F" d="M3.63105,14c-0.89899,0 -1.63104,-0.73199 -1.63104,-1.63098v-8.73804c-1e-05,-0.89899 0.73205,-1.63098 1.63104,-1.63098h10.551c0.89905,0 1.63104,0.73199 1.63104,1.63098v3.64935c0.73859,0.23401 1.41583,0.6059 2,1.08728v-4.73663c0,-1.99701 -1.63403,-3.63098 -3.63104,-3.63098h-10.551c-1.99701,0 -3.63105,1.63397 -3.63105,3.63098v8.73804c0,1.27557 0.67017,2.3974 1.6723,3.04553v1.95685c0,0.55902 0.67603,0.83899 1.07104,0.44403l1.81477,-1.81543h4.25189c-0.35211,-0.6076 -0.59863,-1.28174 -0.71954,-2h-4.45941Z" transform="translate(1.99957, 2)"></path><path fill="#6F6F6F" d="M0.75,0c-0.414,0 -0.75,0.336 -0.75,0.75c0,0.414 0.336,0.75 0.75,0.75h8c0.414,0 0.75,-0.336 0.75,-0.75c0,-0.414 -0.336,-0.75 -0.75,-0.75h-8Z" transform="translate(5.92188, 6.25)"></path><path fill="#6F6F6F" d="M6.75,0h-6c-0.414,0 -0.75,0.336 -0.75,0.75c0,0.414 0.336,0.75 0.75,0.75h5.09418c0.45099,-0.44928 0.97577,-0.8222 1.55054,-1.1106c-0.12861,-0.22845 -0.36409,-0.3894 -0.64472,-0.3894Z" transform="translate(5.92188, 9.25)"></path><path fill="#6F6F6F" d="M4.21063,1.5c0.11243,-0.52972 0.29688,-1.03198 0.539,-1.5h-3.99963c-0.414,0 -0.75,0.336 -0.75,0.75c0,0.414 0.336,0.75 0.75,0.75h3.46063Z" transform="translate(5.92188, 12.25)"></path><path fill="#FFFFFF" d="M0.53369,0c-0.21002,0.17615 -0.39069,0.3822 -0.53369,0.61743c0.28576,-0.07989 0.49481,-0.31683 0.53369,-0.61743Z" transform="translate(13.8695, 13.0927)"></path><path fill="#6F6F6F" d="M10.707,9.29303l-1.82037,-1.82037l-1.17963,-1.17963c-0.09137,-0.09137 -0.19775,-0.15692 -0.30927,-0.20563c0.37513,-0.60919 0.6023,-1.31958 0.6023,-2.0874c0,-0.40179 -0.07715,-0.78198 -0.18738,-1.14789c-0.31586,-1.04816 -1.04144,-1.90771 -2,-2.39899c-0.54638,-0.28002 -1.15649,-0.45312 -1.81262,-0.45312c-1.14105,0 -2.16425,0.48346 -2.89301,1.25c-0.40143,0.42224 -0.70062,0.9342 -0.88788,1.5c-0.13091,0.39551 -0.21911,0.81061 -0.21911,1.25c0,0.34741 0.05823,0.67859 0.14148,1c0.20471,0.7901 0.64191,1.47876 1.23816,2c0.70331,0.61481 1.61292,1 2.62036,1c0.76782,0 1.47827,-0.22717 2.0874,-0.60229c0.04871,0.11151 0.11426,0.2179 0.20563,0.30927l1.17963,1.17963l1.82037,1.82037c0.19495,0.195 0.45099,0.29302 0.70697,0.29302c0.25598,0 0.51202,-0.09802 0.70697,-0.29303c0.39105,-0.39099 0.39105,-1.02295 0,-1.41394Zm-9.20697,-5.29303c0,-0.47345 0.13977,-0.91199 0.36945,-1.28992c0.14301,-0.23523 0.32367,-0.44128 0.53369,-0.61743c0.43438,-0.36432 0.98669,-0.59265 1.59686,-0.59265c0.71515,0 1.35663,0.3056 1.81262,0.78839c0.42328,0.44812 0.68738,1.04828 0.68738,1.71161c0,1.37799 -1.12097,2.5 -2.5,2.5c-1.02289,0 -1.90131,-0.61884 -2.28809,-1.5c-0.13464,-0.30682 -0.21191,-0.64417 -0.21191,-1Z" transform="translate(12, 11)"></path></g><path d="M0,0h24v24h-24Z"></path></g></g></svg>