<?xml version="1.0" encoding="utf-8"?>
<!-- Generator: Adobe Illustrator 22.0.1, SVG Export Plug-In . SVG Version: 6.00 Build 0)  -->
<svg version="1.1" id="Layer_1" xmlns="http://www.w3.org/2000/svg" xmlns:xlink="http://www.w3.org/1999/xlink" x="0px" y="0px"
	 viewBox="0 0 24 24" style="enable-background:new 0 0 24 24;" xml:space="preserve">
<style type="text/css">
	.st0{fill:none;}
	.st1{fill:#585D63;}
</style>
<title>find snap event</title>
<desc>Created with Sketch.</desc>
<g id="Group-4" transform="translate(2.000000, 2.000000)">
	<g id="Page-1">
		<g id="Clip-2">
		</g>
		<g id="Clip-7">
		</g>
	</g>
	<g id="Clip-6">
	</g>
</g>
<g>
	<path class="st0" d="M16,12.5c-0.6,0-1.2,0.2-1.6,0.6c0,0.3-0.2,0.5-0.5,0.6c-0.2,0.4-0.4,0.8-0.4,1.3c0,0.4,0.1,0.7,0.2,1
		c0.4,0.9,1.3,1.5,2.3,1.5c1.4,0,2.5-1.1,2.5-2.5c0-0.7-0.3-1.3-0.7-1.7C17.4,12.8,16.7,12.5,16,12.5z"/>
	<path class="st1" d="M5.6,16C4.7,16,4,15.3,4,14.4V5.6C4,4.7,4.7,4,5.6,4h10.6c0.9,0,1.6,0.7,1.6,1.6v3.6c0.7,0.2,1.4,0.6,2,1.1
		V5.6c0-2-1.6-3.6-3.6-3.6H5.6C3.6,2,2,3.6,2,5.6v8.7c0,1.3,0.7,2.4,1.7,3v2c0,0.6,0.7,0.8,1.1,0.4L6.6,18h4.3
		c-0.4-0.6-0.6-1.3-0.7-2H5.6z"/>
	<path class="st1" d="M22.7,20.3l-1.8-1.8l-1.2-1.2c-0.1-0.1-0.2-0.2-0.3-0.2c0.4-0.6,0.6-1.3,0.6-2.1c0-0.4-0.1-0.8-0.2-1.1
		c-0.3-1-1-1.9-2-2.4C17.3,11.2,16.7,11,16,11c-1.1,0-2.2,0.5-2.9,1.2c-0.4,0.4-0.7,0.9-0.9,1.5C12.1,14.1,12,14.6,12,15
		c0,0.3,0.1,0.7,0.1,1c0.2,0.8,0.6,1.5,1.2,2c0.7,0.6,1.6,1,2.6,1c0.8,0,1.5-0.2,2.1-0.6c0,0.1,0.1,0.2,0.2,0.3l1.2,1.2l1.8,1.8
		c0.2,0.2,0.5,0.3,0.7,0.3s0.5-0.1,0.7-0.3C23.1,21.3,23.1,20.7,22.7,20.3z M16,17.5c-1,0-1.9-0.6-2.3-1.5c-0.1-0.3-0.2-0.6-0.2-1
		c0-0.5,0.1-0.9,0.4-1.3c0.1-0.2,0.3-0.4,0.5-0.6c0.4-0.4,1-0.6,1.6-0.6c0.7,0,1.4,0.3,1.8,0.8c0.4,0.4,0.7,1,0.7,1.7
		C18.5,16.4,17.4,17.5,16,17.5z"/>
	<polygon class="st1" points="5.9,6.2 5.9,7.8 6.7,7.8 14.7,7.8 15.4,7.8 15.4,6.2 14.7,6.2 6.7,6.2 	"/>
	<path class="st1" d="M12.7,9.2h-6H5.9v1.5h0.8h5.1h0.1c0.7-0.7,1.7-1.2,2.7-1.5H12.7z"/>
	<path class="st1" d="M6.7,13.8h3.5h0.1c0.1-0.5,0.3-1,0.5-1.5h-0.1h-4H5.9v1.5H6.7z"/>
</g>
</svg>
