<?xml version="1.0" encoding="UTF-8"?><svg width="576" height="576" version="1.1" viewBox="0 0 576 576" xmlns="http://www.w3.org/2000/svg" xmlns:xlink="http://www.w3.org/1999/xlink"><!--Generated by IJSVG (https://github.com/curthard89/IJSVG)--><g transform="scale(24)"><g fill="none"><g transform="translate(3, 3)"></g><g fill="none"><path d="M0,14h14v-14h-14v14Zm3.66559,-12c0.771,0 1.41418,0.52734 1.60437,1.23871l3.57056,0.25513c0.271,-0.55341 0.83417,-0.93811 1.49158,-0.93811c0.92096,0 1.66699,0.74695 1.66699,1.66699c0,0.72913 -0.47156,1.3429 -1.12451,1.56897v1.86243c0.65295,0.22583 1.12451,0.83917 1.12451,1.56909c0,0.91998 -0.74603,1.66602 -1.66699,1.66602c-0.60022,0 -1.12183,-0.32031 -1.4151,-0.79651l-1.93695,0.42987c-0.09497,0.83075 -0.79175,1.47791 -1.64795,1.47791c-0.92004,0 -1.66602,-0.74597 -1.66602,-1.66699c0,-0.58502 0.30298,-1.09766 0.75928,-1.3949l-0.90449,-3.61921c-0.8512,-0.07453 -1.5213,-0.78199 -1.5213,-1.65241c0,-0.91998 0.74597,-1.66699 1.66602,-1.66699Z" transform="translate(5.00043, 5)"></path><path d="M2.17559,5.14501l1.93652,-0.43066c0.07379,-0.64594 0.51117,-1.17511 1.10645,-1.38055v-1.86145c-0.54639,-0.18878 -0.966,-0.64783 -1.08795,-1.22198l-3.50446,-0.25037c-0.13049,0.30572 -0.35058,0.56286 -0.62615,0.74255l0.90479,3.61981c0.53887,0.04742 1.00194,0.34552 1.2708,0.78265Z" transform="translate(9.57343, 9.31983)"></path><path fill="#6F6F6F" d="M16.275,0h-14.55c-0.953,0 -1.72498,0.77197 -1.72498,1.72498v14.5501c1e-05,0.953 0.77198,1.72497 1.72498,1.72497h14.55c0.95203,0 1.72504,-0.77197 1.72504,-1.72498v-14.55c3.55271e-15,-0.95301 -0.77301,-1.72498 -1.72504,-1.72498Zm-0.27496,16h-14v-14h14v14Z" transform="translate(3.00042, 3)"></path><path fill="#6F6F6F" d="M1.5213,3.3194l0.90448,3.6192c-0.4563,0.29724 -0.75928,0.80988 -0.75928,1.3949c0,0.92102 0.74597,1.66699 1.66602,1.66699c0.8562,0 1.55298,-0.64716 1.64795,-1.47791l1.93695,-0.42987c0.29327,0.4762 0.81488,0.79651 1.4151,0.79651c0.92096,0 1.66699,-0.74603 1.66699,-1.66602c0,-0.72992 -0.47156,-1.34326 -1.12451,-1.56909v-1.86243c0.65295,-0.22607 1.12451,-0.83984 1.12451,-1.56897c0,-0.92004 -0.74603,-1.66699 -1.66699,-1.66699c-0.65741,0 -1.22058,0.3847 -1.49158,0.93811l-3.57056,-0.25513c-0.19018,-0.71136 -0.83337,-1.2387 -1.60436,-1.2387c-0.92005,0 -1.66602,0.74701 -1.66602,1.66699c0,0.87042 0.6701,1.57788 1.5213,1.65241Zm1.67828,-0.99958l3.50446,0.25037c0.12195,0.57416 0.54156,1.0332 1.08795,1.22198v1.86145c-0.59528,0.20544 -1.03265,0.73462 -1.10645,1.38055l-1.93652,0.43066c-0.26886,-0.43713 -0.73193,-0.73523 -1.27081,-0.78265l-0.90479,-3.61981c0.27558,-0.17968 0.49567,-0.43682 0.62616,-0.74255Z" transform="translate(7, 7)"></path></g><path d="M0,0h24v24h-24Z"></path></g></g></svg>