<?xml version="1.0" encoding="utf-8"?>
<!-- Generator: Adobe Illustrator 22.1.0, SVG Export Plug-In . SVG Version: 6.00 Build 0)  -->
<svg version="1.1" id="Layer_1" xmlns="http://www.w3.org/2000/svg" xmlns:xlink="http://www.w3.org/1999/xlink" x="0px" y="0px"
	 viewBox="0 0 24 24" style="enable-background:new 0 0 24 24;" xml:space="preserve">
<style type="text/css">
	.st0{fill:none;}
	.st1{fill:#585D63;}
</style>
<title>Fragment_template</title>
<g id="Layer_4">
	<rect x="4.5" y="13.5" class="st0" width="6" height="6"/>
	<path class="st1" d="M20,2.5H6.3c-0.9,0-1.6,0.7-1.6,1.6l0,0v5.1h2V4.5h12.8v12.8h-4.7v2h5.1c0.9,0,1.5-0.7,1.5-1.5v0V4
		C21.5,3.2,20.8,2.5,20,2.5z"/>
	<path class="st1" d="M2.5,11.5v8.3c0,0.9,0.7,1.7,1.6,1.7c0,0,0,0,0,0h8.3v-10L2.5,11.5L2.5,11.5z M10.5,19.5h-6v-6h6V19.5z"/>
</g>
</svg>
