<?xml version="1.0" encoding="utf-8"?>
<!-- Generator: Adobe Illustrator 20.1.0, SVG Export Plug-In . SVG Version: 6.00 Build 0)  -->
<!DOCTYPE svg PUBLIC "-//W3C//DTD SVG 1.1//EN" "http://www.w3.org/Graphics/SVG/1.1/DTD/svg11.dtd">
<svg version="1.1" id="Layer_1" xmlns="http://www.w3.org/2000/svg" xmlns:xlink="http://www.w3.org/1999/xlink" x="0px" y="0px"
	 viewBox="0 0 18 18" style="enable-background:new 0 0 18 18;" xml:space="preserve">
<style type="text/css">
	.st0{fill:#585D63;}
</style>
<g id="Layer_2">
</g>
<g>
	<path class="st0" d="M4.5,6.1l0,0.5H3v1.6h1.2L4,10.4c-0.2,1.8-0.5,2.2-1.2,2.2c-0.2,0-0.5,0-0.7-0.1l-0.3,1.6
		c0.2,0.1,0.8,0.2,1.4,0.3c2.2,0,2.8-1.5,3.1-3.4l0.3-2.7h1.8V6.6H6.7l0.1-0.7C6.9,5.1,7.2,4.5,8,4.5c0.3,0,0.5,0.1,0.7,0.1L9.1,3
		C8.8,2.9,8.4,2.7,7.8,2.7C5.2,2.7,4.6,5.1,4.5,6.1z"/>
	<polygon class="st0" points="13.9,9.8 16,6.6 14,6.6 12.7,8.7 11.4,6.6 9.3,6.6 11.5,9.8 9.2,13.2 11.3,13.2 12.7,10.9 14.1,13.2 
		16.1,13.2 	"/>
</g>
</svg>
