<?xml version="1.0" encoding="UTF-8"?><svg width="576" height="576" version="1.1" viewBox="0 0 576 576" xmlns="http://www.w3.org/2000/svg" xmlns:xlink="http://www.w3.org/1999/xlink"><!--Generated by IJSVG (https://github.com/curthard89/IJSVG)--><g transform="scale(24)"><g fill="none"><g transform="translate(3, 3)"><g fill="#6F7070"><path d="M16.275,0h-14.55c-0.953,0 -1.72498,0.77197 -1.72498,1.72498v14.5501c1e-05,0.953 0.77198,1.72497 1.72498,1.72497h14.55c0.95203,0 1.72504,-0.77197 1.72504,-1.72498v-14.55c7.10543e-15,-0.95301 -0.77301,-1.72498 -1.72504,-1.72498Zm-0.27496,16h-14v-14h14v14Z" transform="translate(0.00042, 0)"></path></g></g><g fill="#6F7070"><path d="M0,0h11v1.67188h-11Z" transform="translate(6.5, 8.23438)"></path><path d="M0,0h7.49432v1.67188h-7.49432Z" transform="translate(8.25555, 11.1636)"></path><path d="M0,0h2.82874v1.67188h-2.82874Z" transform="translate(10.5815, 14.0806)"></path></g><path d="M0,0h24v24h-24Z"></path></g></g></svg>