<?xml version="1.0" encoding="utf-8"?>
<!-- Generator: Adobe Illustrator 22.0.1, SVG Export Plug-In . SVG Version: 6.00 Build 0)  -->
<svg version="1.1" xmlns="http://www.w3.org/2000/svg" xmlns:xlink="http://www.w3.org/1999/xlink" x="0px" y="0px"
	 viewBox="0 0 24 24" style="enable-background:new 0 0 24 24;" xml:space="preserve">
<style type="text/css">
	.st0{fill:none;}
	.st1{fill:#585D63;}
</style>
<g id="Layer_1">
	<title>generate sessions</title>
	<desc>Created with Sketch.</desc>
	<g id="Clip-14">
	</g>
	<g id="Clip-2">
	</g>
</g>
<g id="Layer_2">
	<g>
		<path class="st0" d="M9.24628,4.46478c-0.53998,0-0.98199,0.44299-0.98199,0.98297S8.7063,6.42975,9.24628,6.42975
			c0.54004,0,0.98303-0.44202,0.98303-0.98199S9.78632,4.46478,9.24628,4.46478z"/>
		<path class="st0" d="M13.17633,4.46478c-0.54004,0-0.98206,0.44299-0.98206,0.98297s0.44202,0.98199,0.98206,0.98199
			c0.53998,0,0.98199-0.44202,0.98199-0.98199S13.71631,4.46478,13.17633,4.46478z"/>
		<path class="st1" d="M18.40173,11.13635c0.56927,0,1.12048,0.07355,1.65179,0.19934v-0.37366
			c0-0.60199-0.492-1.09296-1.09406-1.09296H3.46252c-0.60101,0-1.09302,0.49097-1.09302,1.09296v2.44403
			c0,0.60199,0.492,1.09399,1.09302,1.09399h0.01208v5.14258c0,0.13531,0.04071,0.26111,0.10498,0.37653
			c0.17462,0.31354,0.5542,0.53387,1,0.53387c0.60999,0,1.10504-0.40759,1.10504-0.9104v-5.14258h1.47406v4.5h4.11243
			c-0.02197-0.22821-0.03503-0.45892-0.03503-0.69281C11.23608,14.35321,14.45056,11.13635,18.40173,11.13635z"/>
		<path class="st1" d="M7.15863,20.00006v0.40619h0.00006c0,0.60199,0.492,1.09399,1.09399,1.09399h3.74237
			c-0.23639-0.47308-0.42114-0.97504-0.54889-1.50018H7.15863z"/>
		<path class="st1" d="M16.12329,4.18378c0-0.92603-0.995-1.68402-2.07599-1.68402h-5.763c-1.08002,0-1.96399,0.758-1.96399,1.68402
			l-0.021,4.211h9.82391C16.12323,8.39478,16.12323,4.18378,16.12329,4.18378z M9.24628,6.42975
			c-0.53998,0-0.98199-0.44202-0.98199-0.98199S8.7063,4.46478,9.24628,4.46478c0.54004,0,0.98303,0.44299,0.98303,0.98297
			S9.78632,6.42975,9.24628,6.42975z M13.17633,6.42975c-0.54004,0-0.98206-0.44202-0.98206-0.98199
			s0.44202-0.98297,0.98206-0.98297c0.53998,0,0.98199,0.44299,0.98199,0.98297S13.71631,6.42975,13.17633,6.42975z"/>
		<path class="st1" d="M18.40173,12.83636c-3.01379,0-5.46564,2.45422-5.46564,5.47089s2.45184,5.47089,5.46564,5.47089
			c3.01953,0,5.47607-2.45422,5.47607-5.47089S21.42126,12.83636,18.40173,12.83636z M18.40698,22.23395
			c-2.16522,0-3.92676-1.76154-3.92676-3.9267s1.76154-3.9267,3.92676-3.9267c2.16516,0,3.9267,1.76154,3.9267,3.9267
			S20.57214,22.23395,18.40698,22.23395z"/>
	</g>
	<polygon class="st1" points="17.3,16.20725 17.3,18.30725 17.3,20.40725 19.1,19.30725 20.9,18.30725 19.1,17.30725 	"/>
</g>
</svg>
