<?xml version="1.0" encoding="utf-8"?>
<!-- Generator: Adobe Illustrator 20.0.0, SVG Export Plug-In . SVG Version: 6.00 Build 0)  -->
<!DOCTYPE svg PUBLIC "-//W3C//DTD SVG 1.1//EN" "http://www.w3.org/Graphics/SVG/1.1/DTD/svg11.dtd">
<svg version="1.1" id="Layer_1" xmlns="http://www.w3.org/2000/svg" xmlns:xlink="http://www.w3.org/1999/xlink" x="0px" y="0px"
	 width="48px" height="48px" viewBox="0 0 48 48" enable-background="new 0 0 48 48" xml:space="preserve">
<g>
	<path fill="none" d="M32.23395,22.84021c-1.22961,0-2.41864-0.48297-3.30725-1.37158
		c-0.88397-0.88477-1.37079-2.05975-1.37079-3.31042c0-1.25061,0.48682-2.42639,1.37079-3.31036
		c0.09363-0.09436,0.19189-0.18408,0.29333-0.26917c-1.44568-0.70526-3.06927-1.10162-4.78571-1.10162
		c-1.08447,0-2.13153,0.15918-3.12079,0.45331v1.88727c0,0.20679-0.08191,0.40497-0.22858,0.55164l-3.12079,3.12079
		c-0.14594,0.14667-0.34485,0.22858-0.55164,0.22858h-2.84924c-0.16388,0.34509-0.30878,0.70087-0.43646,1.06464
		c-0.00543,0.01587-0.01178,0.03113-0.01715,0.04706c-0.09979,0.28851-0.17822,0.58636-0.25397,0.88519
		c-0.02747,0.11212-0.06189,0.22144-0.08588,0.3349c-0.03052,0.13879-0.04675,0.28247-0.0719,0.42316
		c-0.10242,0.6012-0.16736,1.21552-0.16736,1.84644c0,3.70502,1.84412,6.96606,4.66217,8.93213v-4.46918l-2.68933-1.34509
		c-0.26447-0.13184-0.43146-0.40179-0.43146-0.69751V22.0592c0-0.43066,0.34955-0.78021,0.78021-0.78021h3.12079
		c0.20673,0,0.40491,0.08197,0.55157,0.22864c0.02887,0.02808,2.93512,2.89215,5.69,2.89215
		c0.43066,0,0.78015,0.34955,0.78015,0.78021v2.34058c0,0.19116-0.07019,0.37531-0.19739,0.51807l-5.61597,6.31812
		c1.30212,0.54907,2.73419,0.85272,4.23865,0.85272c3.09131,0,5.87128-1.28662,7.85138-3.34784
		c1.13214-4.49963,0.53003-7.76868,0.19427-9.02692C32.38843,22.83862,32.31116,22.84021,32.23395,22.84021z"/>
	<polygon fill="#6F6F6F" points="24.41998,1.69257 18.76312,7.34943 30.07684,7.34943 	"/>
	<polygon fill="#6F6F6F" points="7.44946,29.97687 7.44946,18.66315 1.7926,24.32001 	"/>
	<path fill="#6F6F6F" d="M24.41998,10.31927c-7.72162,0-14.00067,6.27911-14.00067,14.00073s6.27905,14.00073,14.00067,14.00073
		s13.98657-6.26501,14.00073-14.00073C38.42072,16.59839,32.1416,10.31927,24.41998,10.31927z M32.27136,31.86163
		c-1.9801,2.06122-4.76007,3.34784-7.85138,3.34784c-1.50446,0-2.93652-0.30365-4.23865-0.85272l5.61597-6.31812
		c0.1272-0.14276,0.19739-0.3269,0.19739-0.51807v-2.34058c0-0.43066-0.34949-0.78021-0.78015-0.78021
		c-2.75488,0-5.66113-2.86407-5.69-2.89215c-0.14667-0.14667-0.34485-0.22864-0.55157-0.22864h-3.12079
		c-0.43066,0-0.78021,0.34955-0.78021,0.78021v4.68115c0,0.29572,0.16699,0.56567,0.43146,0.69751l2.68933,1.34509v4.46918
		c-2.81805-1.96606-4.66217-5.22711-4.66217-8.93213c0-0.63092,0.06494-1.24524,0.16736-1.84644
		c0.02515-0.14069,0.04138-0.28436,0.0719-0.42316c0.02399-0.11346,0.05841-0.22278,0.08588-0.3349
		c0.07574-0.29883,0.15417-0.59668,0.25397-0.88519c0.00537-0.01593,0.01172-0.03119,0.01715-0.04706
		c0.12769-0.36377,0.27258-0.71954,0.43646-1.06464h2.84924c0.20679,0,0.4057-0.08191,0.55164-0.22858l3.12079-3.12079
		c0.14667-0.14667,0.22858-0.34485,0.22858-0.55164v-1.88727c0.98926-0.29413,2.03632-0.45331,3.12079-0.45331
		c1.71643,0,3.34003,0.39636,4.78571,1.10162c-0.10144,0.08508-0.19971,0.1748-0.29333,0.26917
		c-0.88397,0.88397-1.37079,2.05975-1.37079,3.31036c0,1.25067,0.48682,2.42566,1.37079,3.31042
		c0.88861,0.88861,2.07764,1.37158,3.30725,1.37158c0.07721,0,0.15448-0.00159,0.23169-0.00549
		C32.80139,24.09296,33.4035,27.362,32.27136,31.86163z"/>
	<polygon fill="#6F6F6F" points="24.41998,46.94739 30.07684,41.29059 18.76312,41.29059 	"/>
	<polygon fill="#6F6F6F" points="41.39056,18.66315 41.39056,29.97687 47.04742,24.32001 	"/>
</g>
</svg>
