<?xml version="1.0" encoding="UTF-8"?><svg width="576" height="576" version="1.1" viewBox="0 0 576 576" xmlns="http://www.w3.org/2000/svg" xmlns:xlink="http://www.w3.org/1999/xlink"><!--Generated by IJSVG (https://github.com/curthard89/IJSVG)--><g transform="scale(24)"><g fill="none" fill-rule="evenodd" stroke="none" stroke-width="1"><path d="M0,0h24v24h-24Z"></path><g transform="translate(3, 3)"><g fill="#FFFFFF" fill-rule="evenodd" stroke="none" stroke-width="1"><g fill="#4CBDC9" fill-rule="evenodd" stroke="none" stroke-width="1"><path mask="url(#mask-1)" d="M16.134,18h-14.268c-1.026,0 -1.866,-0.84 -1.866,-1.866v-14.268c0,-1.026 0.84,-1.866 1.866,-1.866h14.268c1.026,0 1.866,0.84 1.866,1.866v14.268c0,1.026 -0.84,1.866 -1.866,1.866" transform="translate(-0.0002, 0)"></path></g><path d="M6.381,6.939c-0.29,0.348 -0.7,0.617 -1.229,0.809c-0.531,0.191 -1.118,0.287 -1.762,0.287c-0.678,0 -1.271,-0.148 -1.781,-0.444c-0.51,-0.295 -0.905,-0.723 -1.182,-1.286c-0.277,-0.562 -0.42,-1.222 -0.427,-1.981v-0.532c0,-0.781 0.132,-1.457 0.395,-2.028c0.263,-0.571 0.642,-1.008 1.138,-1.31c0.496,-0.303 1.077,-0.454 1.744,-0.454c0.927,0 1.652,0.22 2.175,0.663c0.523,0.442 0.832,1.086 0.929,1.93h-1.568c-0.072,-0.447 -0.231,-0.774 -0.476,-0.982c-0.245,-0.208 -0.582,-0.312 -1.012,-0.312c-0.548,0 -0.965,0.206 -1.252,0.619c-0.286,0.411 -0.431,1.023 -0.435,1.835v0.5c0,0.821 0.156,1.44 0.468,1.859c0.311,0.419 0.768,0.628 1.37,0.628c0.604,0 1.036,-0.129 1.294,-0.387v-1.348h-1.466v-1.187h3.077v3.121Z" transform="translate(2.4286, 5.0102)"></path><path d="M1.552,3.069c0,0.553 0.104,0.975 0.312,1.268c0.208,0.292 0.504,0.437 0.891,0.437c0.377,0 0.67,-0.143 0.881,-0.433c0.212,-0.289 0.317,-0.75 0.317,-1.384c0,-0.542 -0.105,-0.961 -0.317,-1.259c-0.211,-0.298 -0.508,-0.447 -0.891,-0.447c-0.38,0 -0.673,0.148 -0.881,0.444c-0.208,0.296 -0.312,0.754 -0.312,1.374v0Zm-1.552,-0.109c0,-0.578 0.112,-1.091 0.333,-1.542c0.222,-0.452 0.542,-0.8 0.959,-1.048c0.417,-0.246 0.902,-0.37 1.453,-0.37c0.784,0 1.424,0.24 1.92,0.719c0.496,0.48 0.773,1.132 0.83,1.955l0.01,0.398c0,0.892 -0.248,1.606 -0.746,2.145c-0.498,0.54 -1.166,0.809 -2.004,0.809c-0.838,0 -1.506,-0.269 -2.006,-0.806c-0.499,-0.537 -0.749,-1.267 -0.749,-2.191v-0.069Z" transform="translate(10.2107, 7.0189)"></path></g></g></g></g><defs><mask id="mask-1" maskContentUnits="userSpaceOnUse" maskUnits="objectBoundingBox"><g fill="#FFFFFF" transform="translate(0.0002, 0)"><path d="M8.9999,0h-8.9999v18h8.9999h8.9999v-18Z"></path></g></mask></defs></svg>