<?xml version="1.0" encoding="UTF-8"?><svg width="576" height="576" version="1.1" viewBox="0 0 576 576" xmlns="http://www.w3.org/2000/svg" xmlns:xlink="http://www.w3.org/1999/xlink"><!--Generated by IJSVG (https://github.com/curthard89/IJSVG)--><g transform="scale(24)"><g fill="none"><g transform="translate(3, 3)"></g><g fill="#FFFFFF"><path d="M0,14h14v-14h-14v14Zm8.99957,-8h2v6h-2v-6Zm-3,-4h2v10h-2v-10Zm-3,6h2v4h-2v-4Z" transform="translate(5.00043, 5)"></path><path fill="#6F6F6F" d="M16.275,0h-14.55c-0.953,0 -1.72498,0.77197 -1.72498,1.72498v14.5501c1e-05,0.953 0.77198,1.72497 1.72498,1.72497h14.55c0.95203,0 1.72504,-0.77197 1.72504,-1.72498v-14.55c3.55271e-15,-0.95301 -0.77301,-1.72498 -1.72504,-1.72498Zm-0.27496,16h-14v-14h14v14Z" transform="translate(3.00042, 3)"></path><path fill="#6F6F6F" d="M0,0h2v4h-2Z" transform="translate(8, 13)"></path><path fill="#6F6F6F" d="M0,0h2v10h-2Z" transform="translate(11, 7)"></path><path fill="#6F6F6F" d="M0,0h2v6h-2Z" transform="translate(14, 11)"></path></g><path d="M0,0h24v24h-24Z"></path></g></g></svg>