<?xml version="1.0" encoding="UTF-8"?><svg width="576" height="576" version="1.1" viewBox="0 0 576 576" xmlns="http://www.w3.org/2000/svg" xmlns:xlink="http://www.w3.org/1999/xlink"><!--Generated by IJSVG (https://github.com/curthard89/IJSVG)--><g transform="scale(24)"><g fill="none"><path d="M0,0h24v24h-24Z"></path><g transform="translate(3, 3)"><g fill="#6F6F6F"><path fill="#6F6F6F" d="M16,0h-14c-1.09998,0 -2,0.90002 -2,2v14c0,1.09998 0.90002,2 2,2h14c1.09998,0 2,-0.90002 2,-2v-14c0,-1.09998 -0.90002,-2 -2,-2Zm0,16h-14v-14h14v14Z"></path><path d="M3.478,0c-0.11,0 -0.221,0.036 -0.312,0.109l-2.97,2.372c-0.112,0.089 -0.18,0.221 -0.188,0.362c-0.008,0.143 0.045,0.282 0.146,0.382l0.6,0.6c0.094,0.094 0.221,0.146 0.353,0.146c0.01,0 0.018,0 0.028,-0.001c0.142,-0.008 0.274,-0.076 0.363,-0.188l2.371,-2.971c0.159,-0.198 0.142,-0.485 -0.037,-0.665c-0.097,-0.097 -0.226,-0.146 -0.354,-0.146" transform="translate(7.8111, 6.751)"></path><path d="M2.854,1.186c-0.011,0.006 -0.023,0.007 -0.033,0.015c-0.158,0.115 -0.308,0.237 -0.45,0.365c-0.186,0.176 -0.37,0.354 -0.535,0.558c-0.019,0.024 -0.043,0.041 -0.062,0.065c-0.007,0.009 -0.008,0.019 -0.014,0.028c-1.608,1.978 -1.76,4.866 -0.187,7.019c0.147,0.202 0.375,0.308 0.607,0.308c0.153,0 0.309,-0.047 0.441,-0.145c0.335,-0.244 0.408,-0.713 0.163,-1.047c-1.197,-1.64 -1.043,-3.855 0.247,-5.318c0.034,-0.041 0.075,-0.075 0.111,-0.116c0.194,-0.217 0.404,-0.411 0.63,-0.58c0.749,-0.557 1.652,-0.848 2.56,-0.848c0.907,0 1.819,0.29 2.588,0.891c0.894,0.7 1.462,1.704 1.601,2.831c0.137,1.128 -0.172,2.241 -0.871,3.136c-0.255,0.326 -0.198,0.798 0.129,1.052c0.136,0.108 0.299,0.16 0.46,0.16c0.224,0 0.445,-0.099 0.592,-0.289c0.947,-1.209 1.365,-2.715 1.178,-4.24c-0.187,-1.526 -0.955,-2.886 -2.165,-3.831c-1.037,-0.811 -2.262,-1.2 -3.48,-1.2c-1.246,0 -2.485,0.407 -3.51,1.186Z" transform="translate(2.697, 3.7451)"></path></g></g></g></g></svg>