<?xml version="1.0" encoding="UTF-8"?><svg width="576" height="576" version="1.1" viewBox="0 0 576 576" xmlns="http://www.w3.org/2000/svg" xmlns:xlink="http://www.w3.org/1999/xlink"><!--Generated by IJSVG (https://github.com/curthard89/IJSVG)--><g transform="scale(24)"><g stroke="none" stroke-width="1"><path fill="none" fill-rule="evenodd" d="M0,0h24v24h-24Z"></path><g transform="translate(6, 6)"><path fill="#6F6F6F" fill-rule="evenodd" stroke="none" stroke-width="1" d="M12,8h-4v4h-4v-4h-4v-4h4v-4h4v4h4Z"></path></g><path fill="#6F6F6F" d="M10.3797,20.7595c-5.73257,0 -10.3797,-4.64716 -10.3797,-10.3797c0,-5.73257 4.64716,-10.3797 10.3797,-10.3797c5.73257,0 10.3797,4.64716 10.3797,10.3797c0,5.73257 -4.64716,10.3797 -10.3797,10.3797Zm0,-2c4.628,0 8.37973,-3.75173 8.37973,-8.37973c0,-4.628 -3.75173,-8.37973 -8.37973,-8.37973c-4.628,0 -8.37973,3.75173 -8.37973,8.37973c0,4.628 3.75173,8.37973 8.37973,8.37973Z" transform="translate(1.62027, 1.62027)"></path></g></g></svg>