<?xml version="1.0" encoding="UTF-8"?><svg width="576" height="576" version="1.1" viewBox="0 0 576 576" xmlns="http://www.w3.org/2000/svg" xmlns:xlink="http://www.w3.org/1999/xlink"><!--Generated by IJSVG (https://github.com/curthard89/IJSVG)--><g transform="scale(24)"><g fill="none"><path d="M0,0h24v24h-24Z"></path><g transform="translate(3, 3)"><g fill="#6F6F6F"><g fill="#6F6F6F"><path d="M16.275,0h-14.55c-0.953,0 -1.72498,0.77197 -1.72498,1.72498v14.5501c1e-05,0.953 0.77198,1.72497 1.72498,1.72497h14.55c0.95203,0 1.72504,-0.77197 1.72504,-1.72498v-14.55c7.10543e-15,-0.95301 -0.77301,-1.72498 -1.72504,-1.72498Zm-0.27496,16h-14v-14h14v14Z" transform="translate(0.00042, 0)"></path></g><path d="M1.535,0l-0.768,1.33l-0.767,1.329h1.535h1.536l-0.768,-1.329Z" transform="translate(3.9294, 7.2964)"></path><path d="M1.543,0c-0.076,0 -0.153,0.006 -0.231,0.019c-0.782,0.126 -1.312,0.862 -1.186,1.644c0.114,0.704 0.723,1.205 1.414,1.205c0.076,0 0.153,-0.006 0.23,-0.019c0.782,-0.126 1.313,-0.863 1.187,-1.644c-0.115,-0.705 -0.723,-1.205 -1.414,-1.205" transform="translate(3.9233, 3.2651)"></path><path d="M0,2.867h2.868v-2.867h-2.868Z" transform="translate(4.03, 11.867)"></path></g></g><use fill="#6F6F6F" transform="translate(11.3044, 6.9491)" xlink:href="#path-1"></use><use fill="#6F6F6F" transform="translate(11.3044, 11.25)" xlink:href="#path-1"></use><use fill="#6F6F6F" transform="translate(11.3044, 15.5505)" xlink:href="#path-1"></use></g></g><defs><path id="path-1" d="M0,0h5.6991v1.5h-5.6991Z"></path></defs></svg>