<?xml version="1.0" encoding="UTF-8"?>
<svg width="24px" height="24px" viewBox="0 0 24 24" version="1.1" xmlns="http://www.w3.org/2000/svg" xmlns:xlink="http://www.w3.org/1999/xlink">
    <!-- Generator: Sketch 47.1 (45422) - http://www.bohemiancoding.com/sketch -->
    <title>health rule violation</title>
    <desc>Created with Sketch.</desc>
    <defs></defs>
    <g id="places" stroke="none" stroke-width="1" fill="none" fill-rule="evenodd">
        <g id="health-rule-violation">
            <rect id="Rectangle-12" x="0" y="0" width="24" height="24"></rect>
            <g id="health_rule_violation_template" transform="translate(1.000000, 1.000000)" fill="#585D63">
                <g id="Layer_1">
                    <g id="Group">
                        <polygon id="Shape" points="17 13 17 9 13 9 13 5 9 5 9 6.1 15.9 13"></polygon>
                        <path d="M11,0.7 C5.3,0.7 0.7,5.3 0.7,11 C0.7,16.7 5.3,21.3 11,21.3 C16.7,21.3 21.3,16.7 21.3,11 C21.3,5.3 16.7,0.7 11,0.7 L11,0.7 Z M11,19.5 C6.3,19.5 2.5,15.7 2.5,11 C2.5,9.1 3.2,7.3 4.3,5.8 L7.4,9 L5,9 L5,13 L9,13 L9,17 L13,17 L13,14.6 L16.2,17.8 C14.7,18.9 12.9,19.5 11,19.5 L11,19.5 Z M17.5,16.5 L5.5,4.5 C7,3.3 8.9,2.5 11,2.5 C15.7,2.5 19.5,6.3 19.5,11 C19.5,13.1 18.7,15 17.5,16.5 L17.5,16.5 Z" id="Shape"></path>
                    </g>
                </g>
            </g>
        </g>
    </g>
</svg>
