<?xml version="1.0" encoding="UTF-8"?><svg width="576" height="576" version="1.1" viewBox="0 0 576 576" xmlns="http://www.w3.org/2000/svg" xmlns:xlink="http://www.w3.org/1999/xlink"><!--Generated by IJSVG (https://github.com/curthard89/IJSVG)--><g transform="scale(24)"><g fill="none" fill-rule="evenodd" stroke="none" stroke-width="1"><path d="M0,0h24v24h-24Z"></path><g transform="translate(1, 1)"><g fill="#6F6F6F" fill-rule="evenodd" stroke="none" stroke-width="1"><path d="M8,8v-4h-4v-4h-4v1.1l6.9,6.9Z" transform="translate(9, 5)"></path><path d="M10.3,0c-5.7,0 -10.3,4.6 -10.3,10.3c0,5.7 4.6,10.3 10.3,10.3c5.7,0 10.3,-4.6 10.3,-10.3c0,-5.7 -4.6,-10.3 -10.3,-10.3v0Zm0,18.8c-4.7,0 -8.5,-3.8 -8.5,-8.5c-6.66134e-16,-1.9 0.7,-3.7 1.8,-5.2l3.1,3.2h-2.4v4h4v4h4v-2.4l3.2,3.2c-1.5,1.1 -3.3,1.7 -5.2,1.7v0Zm6.5,-3l-12,-12c1.5,-1.2 3.4,-2 5.5,-2c4.7,2.22045e-16 8.5,3.8 8.5,8.5c0,2.1 -0.8,4 -2,5.5v0Z" transform="translate(0.7, 0.7)"></path></g></g></g></g></svg>