<?xml version="1.0" encoding="UTF-8"?>
<svg width="24px" height="24px" viewBox="0 0 24 24" version="1.1" xmlns="http://www.w3.org/2000/svg" xmlns:xlink="http://www.w3.org/1999/xlink">
    <!-- Generator: Sketch 47.1 (45422) - http://www.bohemiancoding.com/sketch -->
    <title>health rules</title>
    <desc>Created with Sketch.</desc>
    <defs></defs>
    <g id="places" stroke="none" stroke-width="1" fill="none" fill-rule="evenodd">
        <g id="health-rules">
            <rect id="Rectangle-12" x="0" y="0" width="24" height="24"></rect>
            <g id="healthRules_template" transform="translate(6.000000, 6.000000)" fill="#585D63">
                <g id="Layer_4">
                    <g id="Group">
                        <polygon id="Shape" points="12 8 8 8 8 12 4 12 4 8 0 8 0 4 4 4 4 0 8 0 8 4 12 4"></polygon>
                    </g>
                </g>
            </g>
            <path d="M12,22.3797302 C6.26743329,22.3797302 1.62026978,17.7325667 1.62026978,12 C1.62026978,6.26743329 6.26743329,1.62026978 12,1.62026978 C17.7325667,1.62026978 22.3797302,6.26743329 22.3797302,12 C22.3797302,17.7325667 17.7325667,22.3797302 12,22.3797302 Z M12,20.3797302 C16.6279972,20.3797302 20.3797302,16.6279972 20.3797302,12 C20.3797302,7.37200279 16.6279972,3.62026978 12,3.62026978 C7.37200279,3.62026978 3.62026978,7.37200279 3.62026978,12 C3.62026978,16.6279972 7.37200279,20.3797302 12,20.3797302 Z" id="Oval-3" fill="#585D63" fill-rule="nonzero"></path>
        </g>
    </g>
</svg>
