<?xml version="1.0" encoding="utf-8"?>
<!-- Generator: Adobe Illustrator 18.1.1, SVG Export Plug-In . SVG Version: 6.00 Build 0)  -->
<!DOCTYPE svg PUBLIC "-//W3C//DTD SVG 1.1//EN" "http://www.w3.org/Graphics/SVG/1.1/DTD/svg11.dtd">
<svg version="1.1" id="Layer_1" xmlns="http://www.w3.org/2000/svg" xmlns:xlink="http://www.w3.org/1999/xlink" x="0px" y="0px"
	 width="24px" height="24px" viewBox="0 0 24 24" enable-background="new 0 0 24 24" xml:space="preserve">
<g>
	<path fill="none" d="M12,5c-3.87,0-7,3.13-7,7s3.13,7,7,7s7-3.13,7-7S15.87,5,12,5z M12.9771,16.4531
		c-0.0522,0.127-0.1265,0.2383-0.2222,0.3311c-0.0957,0.0938-0.2119,0.167-0.3486,0.2188c-0.1367,0.0527-0.2896,0.0791-0.458,0.0791
		s-0.3213-0.0264-0.458-0.0791c-0.1367-0.0518-0.2529-0.125-0.3486-0.2188c-0.0957-0.0928-0.1699-0.2041-0.2222-0.3311
		c-0.0522-0.1279-0.0786-0.2646-0.0786-0.4102c0-0.1504,0.0264-0.29,0.0786-0.417c0.0522-0.1279,0.1265-0.2383,0.2222-0.332
		c0.0957-0.0928,0.2119-0.167,0.3486-0.2217s0.2896-0.082,0.458-0.082s0.3213,0.0273,0.458,0.082s0.2529,0.1289,0.3486,0.2217
		c0.0957,0.0938,0.1699,0.2041,0.2222,0.332c0.0522,0.127,0.0786,0.2666,0.0786,0.417
		C13.0557,16.1885,13.0293,16.3252,12.9771,16.4531z M14.9971,10.4033c-0.0918,0.2417-0.2148,0.4692-0.3691,0.6836
		c-0.1553,0.2144-0.333,0.4204-0.5332,0.6187c-0.2012,0.1982-0.4131,0.3999-0.6357,0.605
		c-0.1279,0.1182-0.2334,0.2363-0.3184,0.3555c-0.084,0.1182-0.1523,0.2422-0.2046,0.3721s-0.0889,0.2695-0.1094,0.417
		c-0.0205,0.1484-0.0332,0.3115-0.0376,0.4893h-1.75c0-0.3105,0.0171-0.5869,0.0513-0.8311
		c0.0342-0.2432,0.0923-0.4678,0.1743-0.6729s0.189-0.3955,0.3213-0.5708s0.2964-0.3521,0.4922-0.5298
		c0.1548-0.1367,0.2983-0.27,0.4307-0.3999s0.2461-0.2598,0.3418-0.3896s0.1699-0.2666,0.2217-0.4102
		c0.0527-0.1436,0.0791-0.2974,0.0791-0.4614c0-0.3872-0.0898-0.6768-0.27-0.8682S12.436,8.5234,12.085,8.5234
		c-0.1411,0-0.2793,0.0215-0.4136,0.0649s-0.2539,0.1128-0.3589,0.2085s-0.189,0.2178-0.2529,0.3657s-0.0981,0.3247-0.1025,0.5298
		H8.9746C8.979,9.2139,9.0635,8.8003,9.2275,8.4517s0.3853-0.6367,0.6631-0.8647s0.605-0.3975,0.981-0.5093
		s0.7803-0.1675,1.2134-0.1675c0.4785,0,0.9067,0.0591,1.2852,0.1777c0.3779,0.1187,0.6973,0.2905,0.957,0.5161
		s0.459,0.5059,0.5977,0.8408c0.1396,0.335,0.209,0.7168,0.209,1.145C15.1338,9.8906,15.0879,10.1616,14.9971,10.4033z"/>
	<path fill="#717171" d="M12,3c-4.97,0-9,4.03-9,9s4.02,9,9,9c4.97,0,9-4.03,9-9S16.97,3,12,3z M12,19c-3.87,0-7-3.13-7-7s3.13-7,7-7s7,3.13,7,7
		S15.87,19,12,19z"/>
	<path fill="#717171" d="M14.3271,7.604c-0.2598-0.2256-0.5791-0.3975-0.957-0.5161c-0.3784-0.1187-0.8066-0.1777-1.2852-0.1777
		c-0.4331,0-0.8374,0.0557-1.2134,0.1675s-0.7031,0.2812-0.981,0.5093S9.3916,8.103,9.2275,8.4517S8.979,9.2139,8.9746,9.6924
		h1.9824c0.0044-0.2051,0.0386-0.3818,0.1025-0.5298s0.1479-0.27,0.2529-0.3657s0.2246-0.165,0.3589-0.2085
		s0.2725-0.0649,0.4136-0.0649c0.3511,0,0.6162,0.0957,0.7964,0.2871s0.27,0.481,0.27,0.8682c0,0.1641-0.0264,0.3179-0.0791,0.4614
		c-0.0518,0.1436-0.126,0.2803-0.2217,0.4102s-0.2095,0.2598-0.3418,0.3896s-0.2759,0.2632-0.4307,0.3999
		c-0.1958,0.1777-0.3599,0.3545-0.4922,0.5298s-0.2393,0.3657-0.3213,0.5708s-0.1401,0.4297-0.1743,0.6729
		c-0.0342,0.2441-0.0513,0.5205-0.0513,0.8311h1.75c0.0044-0.1777,0.0171-0.3408,0.0376-0.4893
		c0.0205-0.1475,0.0571-0.2871,0.1094-0.417s0.1206-0.2539,0.2046-0.3721c0.085-0.1191,0.1904-0.2373,0.3184-0.3555
		c0.2227-0.2051,0.4346-0.4067,0.6357-0.605c0.2002-0.1982,0.3779-0.4043,0.5332-0.6187c0.1543-0.2144,0.2773-0.4419,0.3691-0.6836
		c0.0908-0.2417,0.1367-0.5127,0.1367-0.8135c0-0.4282-0.0693-0.8101-0.209-1.145C14.7861,8.1099,14.5869,7.8296,14.3271,7.604z"/>
	<path fill="#717171" d="M12.7549,15.2939c-0.0957-0.0928-0.2119-0.167-0.3486-0.2217s-0.2896-0.082-0.458-0.082s-0.3213,0.0273-0.458,0.082
		s-0.2529,0.1289-0.3486,0.2217c-0.0957,0.0938-0.1699,0.2041-0.2222,0.332c-0.0522,0.127-0.0786,0.2666-0.0786,0.417
		c0,0.1455,0.0264,0.2822,0.0786,0.4102c0.0522,0.127,0.1265,0.2383,0.2222,0.3311c0.0957,0.0938,0.2119,0.167,0.3486,0.2188
		c0.1367,0.0527,0.2896,0.0791,0.458,0.0791s0.3213-0.0264,0.458-0.0791c0.1367-0.0518,0.2529-0.125,0.3486-0.2188
		c0.0957-0.0928,0.1699-0.2041,0.2222-0.3311c0.0522-0.1279,0.0786-0.2646,0.0786-0.4102c0-0.1504-0.0264-0.29-0.0786-0.417
		C12.9248,15.498,12.8506,15.3877,12.7549,15.2939z"/>
</g>
</svg>
