<?xml version="1.0" encoding="UTF-8"?><svg width="576" height="576" version="1.1" viewBox="0 0 576 576" xmlns="http://www.w3.org/2000/svg" xmlns:xlink="http://www.w3.org/1999/xlink"><!--Generated by IJSVG (https://github.com/curthard89/IJSVG)--><g transform="scale(24)"><g fill="none" fill-rule="evenodd" stroke="none" stroke-width="1"><path d="M0,0h24v24h-24Z"></path><g transform="translate(12.0364, 11.5039)"><g transform="rotate(90)"><g fill="#6F6F6F" stroke="none" stroke-width="1" transform="translate(-12.0364, -11.5039)"><path d="M0,0h14.9375v2h-14.9375Z" transform="translate(4.56763, 10.5039)"></path></g></g></g><g transform="translate(8.03638, 12.9916)"><g transform="rotate(90)"><g fill="#6F6F6F" stroke="none" stroke-width="1" transform="translate(-8.03638, -12.9916)"><path d="M0,0h11.9622v2h-11.9622Z" transform="translate(2.0553, 11.9916)"></path></g></g></g><g transform="translate(4.10516, 14.5807)"><g transform="rotate(90)"><g fill="#6F6F6F" stroke="none" stroke-width="1" transform="translate(-4.10516, -14.5807)"><path d="M0,0h8.83185v2h-8.83185Z" transform="translate(-0.31076, 13.5807)"></path></g></g></g><g transform="translate(15.8723, 14.2383)"><g transform="rotate(90)"><g fill="#6F6F6F" stroke="none" stroke-width="1" transform="translate(-15.8723, -14.2383)"><path d="M0,0h9.46875v2h-9.46875Z" transform="translate(11.1379, 13.2383)"></path></g></g></g><g transform="translate(19.7344, 16.1055)"><g transform="rotate(90)"><g fill="#6F6F6F" stroke="none" stroke-width="1" transform="translate(-19.7344, -16.1055)"><path d="M0,0h5.73438v2h-5.73438Z" transform="translate(16.8672, 15.1055)"></path></g></g></g></g></g></svg>