<?xml version="1.0" encoding="UTF-8"?><svg width="576" height="576" version="1.1" viewBox="0 0 576 576" xmlns="http://www.w3.org/2000/svg" xmlns:xlink="http://www.w3.org/1999/xlink"><!--Generated by IJSVG (https://github.com/curthard89/IJSVG)--><g transform="scale(24)"><g fill="none"><g fill="none"><use transform="translate(5.00006, 12.1645)" xlink:href="#path-1"></use><use transform="translate(5, 4.16455)" xlink:href="#path-1"></use><path fill="#6F6F6F" d="M1,0c-0.55298,0 -1,0.44702 -1,1c0,0.552 0.44702,1 1,1h4.1156c-0.08307,-0.32159 -0.14099,-0.65283 -0.14099,-1c0,-0.34717 0.05792,-0.67841 0.14099,-1h-4.1156Z" transform="translate(3, 19.1645)"></path><path fill="#6F6F6F" d="M4.1156,0h-4.1156c0.08307,0.32159 0.14099,0.65283 0.14099,1c0,0.34717 -0.05792,0.67841 -0.14099,1h4.1156c0.55298,0 1,-0.448 1,-1c0,-0.55298 -0.44702,-1 -1,-1Z" transform="translate(15.8844, 19.1645)"></path><path fill="#6F6F6F" d="M2.6836,0c-1.12726,0 -2.08911,0.698 -2.48633,1.68359c-0.12476,0.30957 -0.19727,0.64594 -0.19727,1c0,0.35406 0.07251,0.69043 0.19727,1c0.39722,0.9856 1.35907,1.68359 2.48633,1.68359c1.12726,0 2.08911,-0.698 2.48633,-1.68359c0.12476,-0.30957 0.19727,-0.64594 0.19727,-1c0,-0.35406 -0.07251,-0.69043 -0.19727,-1c-0.39722,-0.98559 -1.35907,-1.68359 -2.48633,-1.68359Z" transform="translate(9.3164, 17.481)"></path><path fill="#6F6F6F" d="M1.5,6h15c0.82501,0 1.5,-0.67499 1.5,-1.5v-3c0,-0.82501 -0.67499,-1.5 -1.5,-1.5h-15c-0.82501,0 -1.5,0.67499 -1.5,1.5v3c0,0.82501 0.67499,1.5 1.5,1.5Zm0.5,-4h14v2h-14v-2Z" transform="translate(3, 2.16455)"></path><path fill="#6F6F6F" d="M16.5,0h-15c-0.82501,0 -1.5,0.67499 -1.5,1.5v3c0,0.82501 0.67499,1.5 1.5,1.5h15c0.82501,0 1.5,-0.67499 1.5,-1.5v-3c0,-0.82501 -0.67499,-1.5 -1.5,-1.5Zm-0.5,4h-14v-2h14v2Z" transform="translate(3.00006, 10.1645)"></path></g><path d="M0,0h24v24h-24Z"></path></g></g><defs><path id="path-1" d="M0,0h14v2h-14Z"></path></defs></svg>