<?xml version="1.0" encoding="utf-8"?>
<!-- Generator: Adobe Illustrator 22.0.1, SVG Export Plug-In . SVG Version: 6.00 Build 0)  -->
<svg version="1.1" id="Layer_1" xmlns="http://www.w3.org/2000/svg" xmlns:xlink="http://www.w3.org/1999/xlink" x="0px" y="0px"
	 viewBox="0 0 24 24" style="enable-background:new 0 0 24 24;" xml:space="preserve">
<style type="text/css">
	.st0{fill:none;}
	.st1{fill:#585D63;}
</style>
<title>host</title>
<desc>Created with Sketch.</desc>
<g>
	<rect x="5.00006" y="12.16455" class="st0" width="14" height="2"/>
	<rect x="5" y="4.16455" class="st0" width="14" height="2"/>
	<path class="st1" d="M4,19.16455c-0.55298,0-1,0.44702-1,1c0,0.552,0.44702,1,1,1h4.1156
		c-0.08307-0.32159-0.14099-0.65283-0.14099-1s0.05792-0.67841,0.14099-1H4z"/>
	<path class="st1" d="M20,19.16455h-4.1156c0.08307,0.32159,0.14099,0.65283,0.14099,1s-0.05792,0.67841-0.14099,1H20
		c0.55298,0,1-0.448,1-1C21,19.61157,20.55298,19.16455,20,19.16455z"/>
	<path class="st1" d="M12,17.48096c-1.12726,0-2.08911,0.698-2.48633,1.68359c-0.12476,0.30957-0.19727,0.64594-0.19727,1
		s0.07251,0.69043,0.19727,1c0.39722,0.9856,1.35907,1.68359,2.48633,1.68359s2.08911-0.698,2.48633-1.68359
		c0.12476-0.30957,0.19727-0.64594,0.19727-1s-0.07251-0.69043-0.19727-1C14.08911,18.17896,13.12726,17.48096,12,17.48096z"/>
	<path class="st1" d="M4.5,8.16455h15c0.82501,0,1.5-0.67499,1.5-1.5v-3c0-0.82501-0.67499-1.5-1.5-1.5h-15
		c-0.82501,0-1.5,0.67499-1.5,1.5v3C3,7.48956,3.67499,8.16455,4.5,8.16455z M5,4.16455h14v2H5V4.16455z"/>
	<path class="st1" d="M19.50006,10.16455h-15c-0.82501,0-1.5,0.67499-1.5,1.5v3c0,0.82501,0.67499,1.5,1.5,1.5h15
		c0.82501,0,1.5-0.67499,1.5-1.5v-3C21.00006,10.83954,20.32507,10.16455,19.50006,10.16455z M19.00006,14.16455h-14v-2h14V14.16455
		z"/>
</g>
<rect class="st0" width="24" height="24"/>
</svg>
