<?xml version="1.0" encoding="UTF-8"?>
<svg width="24px" height="24px" viewBox="0 0 24 24" version="1.1" xmlns="http://www.w3.org/2000/svg" xmlns:xlink="http://www.w3.org/1999/xlink">
    <!-- Generator: Sketch 47.1 (45422) - http://www.bohemiancoding.com/sketch -->
    <title>http action</title>
    <desc>Created with Sketch.</desc>
    <defs></defs>
    <g id="places" stroke="none" stroke-width="1" fill="none" fill-rule="evenodd">
        <g id="http-action">
            <rect id="Rectangle-12" x="0" y="0" width="24" height="24"></rect>
            <g id="emailActionTemplate_template" transform="translate(2.000000, 4.000000)" fill="#585D63">
                <g id="Layer_1">
                    <g id="Group">
                        <path d="M18.1156055,16.00805 C19.1641255,16.00805 20.0651855,15.11205 20.0651855,14.0426 L20.0651855,1.96399 C20.0651855,0.91547 19.3151255,0 18.1156055,0 L15.0651855,0 L15.0651855,1.95966 L17.4353055,1.95966 C17.7758855,1.95966 18.0636655,2.24744 18.0636655,2.58802 L18.0636655,13.42146 C18.0636655,13.76204 17.7758855,14.04982 17.4353055,14.04982 L15.0651855,14.04982 L15.0651855,15.99999" id="Shape"></path>
                        <path d="M5.15942383,16 L5.15942383,14.0498 L2.79559383,14.0498 C2.45501383,14.0498 2.16723383,13.76202 2.16723383,13.42144 L2.16723383,2.588 C2.16723383,2.24742 2.45501383,1.95964 2.79559383,1.95964 L5.15942383,1.95964 L5.15942383,0 L2.14697383,0 C1.03558383,0 0.183043828,0.89453 0.183043828,1.96399 L0.183043828,14.0426 C0.183043828,15.07007 1.09845383,16.00805 2.14697383,16.00805" id="Shape"></path>
                    </g>
                </g>
            </g>
            <path d="M11.87799,9 C13.27577,9 14.4069,10.13113 14.4069,11.52891 L14.4069,11.75884 L15.34067,11.75884 C16.10392,11.75884 16.72002,12.37498 16.72002,13.13824 C16.72002,13.9015 16.10392,14.25414 15.34067,14.25414 L9.86428,14.25414 L9.11919,14.25414 C8.10302,14.25414 7.27998,13.6946 7.27998,12.67843 C7.27998,11.66226 8.10302,10.83921 9.11919,10.83921 L9.44566,10.83921 C9.74911,9.77707 10.71931,9 11.87799,9 L11.87799,9 Z M11.87799,7 C10.3679,7 8.98193,7.76271 8.15082,8.96289 C6.50115,9.39315 5.27998,10.89587 5.27998,12.67843 C5.27998,14.75034 6.8946,16.25414 9.11919,16.25414 L9.86428,16.25414 L15.34067,16.25414 C17.2988,16.25414 18.72002,14.94371 18.72002,13.13824 C18.72002,11.52891 17.5892,10.1787 16.08048,9.84042 C15.4097,8.17707 13.77867,7 11.87799,7 L11.87799,7 L11.87799,7 Z" id="Shape" fill="#585D63"></path>
        </g>
    </g>
</svg>
