<?xml version="1.0" encoding="UTF-8"?><svg width="576" height="576" version="1.1" viewBox="0 0 576 576" xmlns="http://www.w3.org/2000/svg" xmlns:xlink="http://www.w3.org/1999/xlink"><!--Generated by IJSVG (https://github.com/curthard89/IJSVG)--><g transform="scale(24)"><g fill-rule="evenodd" stroke="none" stroke-width="1"><path fill="none" d="M0,0h24v24h-24Z"></path><g transform="translate(2, 4)"><g fill="#6F6F6F" fill-rule="evenodd" stroke="none" stroke-width="1"><path d="M3.05042,16.0081c1.04852,0 1.94958,-0.896 1.94958,-1.96545v-12.0786c0,-1.04852 -0.75006,-1.96399 -1.94958,-1.96399h-3.05042v1.95966h2.37012c0.34058,0 0.62836,0.28778 0.62836,0.62836v10.8334c0,0.34058 -0.28778,0.62836 -0.62836,0.62836h-2.37012v1.95017" transform="translate(15.0652, 0)"></path><path d="M4.97638,16v-1.9502h-2.36383c-0.34058,0 -0.62836,-0.28778 -0.62836,-0.62836v-10.8334c0,-0.34058 0.28778,-0.62836 0.62836,-0.62836h2.36383v-1.95964h-3.01245c-1.11139,0 -1.96393,0.89453 -1.96393,1.96399v12.0786c0,1.02747 0.91541,1.96545 1.96393,1.96545" transform="translate(0.183044, 0)"></path></g></g><path fill="#6F6F6F" d="M6.59801,2c1.39778,0 2.52891,1.13113 2.52891,2.52891v0.22993h0.93377c0.76325,0 1.37935,0.61614 1.37935,1.3794c0,0.76326 -0.6161,1.1159 -1.37935,1.1159h-5.47639h-0.74509c-1.01617,0 -1.83921,-0.55954 -1.83921,-1.57571c0,-1.01617 0.82304,-1.83922 1.83921,-1.83922h0.32647c0.30345,-1.06214 1.27365,-1.83921 2.43233,-1.83921v0Zm0,-2c-1.51009,0 -2.89606,0.76271 -3.72717,1.96289c-1.64967,0.43026 -2.87084,1.93298 -2.87084,3.71554c0,2.07191 1.61462,3.57571 3.83921,3.57571h0.74509h5.47639c1.95813,0 3.37935,-1.31043 3.37935,-3.1159c0,-1.60933 -1.13082,-2.95954 -2.63954,-3.29782c-0.67078,-1.66335 -2.30181,-2.84042 -4.20249,-2.84042v0v0Z" transform="translate(5.27998, 7)"></path></g></g></svg>