<?xml version="1.0" encoding="UTF-8"?><svg width="576" height="576" version="1.1" viewBox="0 0 576 576" xmlns="http://www.w3.org/2000/svg" xmlns:xlink="http://www.w3.org/1999/xlink"><!--Generated by IJSVG (https://github.com/curthard89/IJSVG)--><g transform="scale(24)"><g fill="none"><g fill="#FFFFFF"><path d="M0,14h14v-14h-14v14Zm9.10992,-8.86377c-0.27832,-0.30664 -0.25488,-0.78125 0.05176,-1.05908c0.30664,-0.27832 0.7832,-0.25488 1.05957,0.05225l2.14453,2.36719c0.25879,0.28564 0.25879,0.72119 0,1.00732l-2.14453,2.36719c-0.14746,0.16309 -0.35156,0.24609 -0.55566,0.24609c-0.17969,0 -0.36035,-0.06445 -0.50391,-0.19434c-0.30664,-0.27832 -0.33008,-0.75195 -0.05176,-1.05957l1.68848,-1.86328l-1.68848,-1.86377Zm-7.32275,1.36035l2.14404,-2.36719c0.27832,-0.30811 0.75146,-0.33154 1.05908,-0.05225c0.30713,0.27783 0.33057,0.75195 0.05225,1.05908l-1.68799,1.86378l1.68799,1.86328c0.27832,0.30762 0.25488,0.78125 -0.05225,1.05957c-0.14355,0.12988 -0.32373,0.19434 -0.50342,0.19434c-0.2041,0 -0.40771,-0.08301 -0.55566,-0.24609l-2.14404,-2.36719c-0.25928,-0.28614 -0.25928,-0.72168 0,-1.00733Z" transform="translate(5.00043, 5)"></path><path fill="#6F6F6F" d="M16.275,0h-14.55c-0.953,0 -1.72498,0.77197 -1.72498,1.72498v14.5501c1e-05,0.953 0.77198,1.72497 1.72498,1.72497h14.55c0.95203,0 1.72504,-0.77197 1.72504,-1.72498v-14.55c3.55271e-15,-0.95301 -0.77301,-1.72498 -1.72504,-1.72498Zm-0.27496,16h-14v-14h14v14Z" transform="translate(3.00042, 3)"></path><path fill="#6F6F6F" d="M2.40332,6.07324c0.14795,0.16309 0.35156,0.24609 0.55566,0.24609c0.17969,0 0.35986,-0.06445 0.50342,-0.19434c0.30713,-0.27832 0.33057,-0.75195 0.05225,-1.05957l-1.68799,-1.86327l1.68799,-1.86377c0.27832,-0.30713 0.25488,-0.78125 -0.05225,-1.05908c-0.30762,-0.2793 -0.78076,-0.25586 -1.05908,0.05225l-2.14404,2.36718c-0.25928,0.28564 -0.25928,0.72119 0,1.00732l2.14404,2.36719Z" transform="translate(6.52832, 8.79785)"></path><path fill="#6F6F6F" d="M0.33008,6.12402c0.14355,0.12988 0.32422,0.19434 0.50391,0.19434c0.2041,0 0.4082,-0.08301 0.55566,-0.24609l2.14453,-2.36719c0.25879,-0.28613 0.25879,-0.72168 0,-1.00732l-2.14453,-2.36719c-0.27637,-0.30713 -0.75293,-0.33057 -1.05957,-0.05225c-0.30664,0.27783 -0.33008,0.75244 -0.05176,1.05908l1.68848,1.86377l-1.68848,1.86328c-0.27832,0.30762 -0.25488,0.78125 0.05176,1.05957Z" transform="translate(13.832, 8.79883)"></path></g><path d="M0,0h24v24h-24Z"></path></g></g></svg>