<?xml version="1.0" encoding="UTF-8"?><svg width="576" height="576" version="1.1" viewBox="0 0 576 576" xmlns="http://www.w3.org/2000/svg" xmlns:xlink="http://www.w3.org/1999/xlink"><!--Generated by IJSVG (https://github.com/curthard89/IJSVG)--><g transform="scale(24)"><g fill="none"><g fill="none"><path d="M0,0v8.49072c0,0.55176 0.44873,1 1,1h12c0.55176,0 1,-0.44824 1,-1v-8.49072h-14Zm4.96631,6.72119c0.27832,0.30762 0.25488,0.78125 -0.05225,1.05957c-0.14355,0.12988 -0.32373,0.19434 -0.50342,0.19434c-0.2041,0 -0.40771,-0.08301 -0.55566,-0.24609l-2.14404,-2.36719c-0.25928,-0.28613 -0.25928,-0.72168 0,-1.00781l2.14404,-2.3667c0.27783,-0.30811 0.75195,-0.33154 1.05908,-0.05225c0.30713,0.27783 0.33057,0.75195 0.05225,1.05957l-1.68799,1.86328l1.68799,1.86328Zm7.32275,-1.35938l-2.14355,2.36719c-0.14746,0.16309 -0.35156,0.24609 -0.55566,0.24609c-0.17969,0 -0.35938,-0.06445 -0.50293,-0.19434c-0.30762,-0.27734 -0.33105,-0.75195 -0.05273,-1.05859l1.6875,-1.86426l-1.6875,-1.86426c-0.27832,-0.30664 -0.25488,-0.78076 0.05273,-1.05908c0.30469,-0.27637 0.78125,-0.25439 1.05859,0.05273l2.14355,2.3667c0.25879,0.28614 0.25879,0.72169 -3.55271e-15,1.00782Z" transform="translate(5, 9.50928)"></path><path d="M14,3.00928v-2.00928c0,-0.55127 -0.44824,-1 -1,-1h-12c-0.55127,0 -1,0.44873 -1,1v2.00928h14Zm-12.6191,-2.00928h3.02954v1h-3.02954v-1Z" transform="translate(5, 5)"></path><path fill="#6F6F6F" d="M0,0h3.02954v1h-3.02954Z" transform="translate(6.38092, 6)"></path><path fill="#6F6F6F" d="M15,0h-12c-1.6543,0 -3,1.3457 -3,3v12c0,1.6543 1.3457,3 3,3h12c1.6543,0 3,-1.3457 3,-3v-12c0,-1.6543 -1.3457,-3 -3,-3Zm-12,2h12c0.55176,0 1,0.44873 1,1v2.00928h-14v-2.00928c0,-0.55127 0.44873,-1 1,-1Zm12,14h-12c-0.55127,0 -1,-0.44824 -1,-1v-8.49072h14v8.49072c0,0.55176 -0.44824,1 -1,1Z" transform="translate(3, 3)"></path><path fill="#6F6F6F" d="M3.4624,0.2793c-0.30713,-0.2793 -0.78125,-0.25586 -1.05908,0.05225l-2.14404,2.3667c-0.25928,0.28613 -0.25928,0.72168 0,1.00781l2.14404,2.36719c0.14795,0.16309 0.35156,0.24609 0.55566,0.24609c0.17969,0 0.35986,-0.06445 0.50342,-0.19434c0.30713,-0.27832 0.33057,-0.75195 0.05225,-1.05957l-1.68799,-1.86328l1.68799,-1.86328c0.27832,-0.30762 0.25488,-0.78174 -0.05225,-1.05957Z" transform="translate(6.45166, 11.165)"></path><path fill="#6F6F6F" d="M1.38964,0.3291c-0.27734,-0.30713 -0.75391,-0.3291 -1.05859,-0.05273c-0.30762,0.27832 -0.33105,0.75244 -0.05273,1.05908l1.6875,1.86426l-1.6875,1.86426c-0.27832,0.30664 -0.25488,0.78125 0.05273,1.05859c0.14355,0.12988 0.32324,0.19434 0.50293,0.19434c0.2041,0 0.4082,-0.08301 0.55566,-0.24609l2.14355,-2.36719c0.25879,-0.28613 0.25879,-0.72168 0,-1.00781l-2.14355,-2.36671Z" transform="translate(13.7559, 11.1675)"></path></g><path d="M0,0h24v24h-24Z"></path></g></g></svg>