<?xml version="1.0" encoding="UTF-8"?><svg width="576" height="576" version="1.1" viewBox="0 0 576 576" xmlns="http://www.w3.org/2000/svg" xmlns:xlink="http://www.w3.org/1999/xlink"><!--Generated by IJSVG (https://github.com/curthard89/IJSVG)--><g transform="scale(24)"><g fill="none"><path d="M0,0h24v24h-24Z"></path><g transform="translate(3, 3)"><g fill="#6F6F6F"><g fill="#6F6F6F"><path d="M16.5,0h-15c-0.82501,0 -1.5,0.67499 -1.5,1.5v15c0,0.82501 0.67499,1.5 1.5,1.5h15c0.82501,0 1.5,-0.67499 1.5,-1.5v-15c0,-0.82502 -0.67499,-1.5 -1.5,-1.5Zm-0.5,16h-14v-14h4.66669h9.33331v14Z" transform="translate(0, -0.00018)"></path></g><path d="M3.215,0l-3.215,5h10l-2.5,-3.75l-1.785,2.508Z" transform="translate(3.9998, 8.9753)"></path><path d="M0,1.5c0,-0.829 0.672,-1.5 1.5,-1.5c0.828,0 1.5,0.671 1.5,1.5c0,0.829 -0.672,1.5 -1.5,1.5c-0.828,0 -1.5,-0.671 -1.5,-1.5" transform="translate(10, 4.4753)"></path></g></g></g></g></svg>