<?xml version="1.0" encoding="utf-8"?>
<!-- Generator: Adobe Illustrator 22.0.1, SVG Export Plug-In . SVG Version: 6.00 Build 0)  -->
<svg version="1.1" id="Layer_1" xmlns="http://www.w3.org/2000/svg" xmlns:xlink="http://www.w3.org/1999/xlink" x="0px" y="0px"
	 viewBox="0 0 24 24" style="enable-background:new 0 0 24 24;" xml:space="preserve">
<style type="text/css">
	.st0{fill:#585D63;}
	.st1{fill:none;}
</style>
<title>import app</title>
<desc>Created with Sketch.</desc>
<g>
	<path class="st0" d="M19.75,4.0238H15v2h4.07501c0.33746,0,0.67499,0.19995,0.67499,0.59998v8.3761v1.02393v1.3761
		c0,0.29999-0.33752,0.59998-0.67499,0.59998H4.92499c-0.33746,0-0.67499-0.19995-0.67499-0.59998v-2.3761v-0.02393v-8.3761
		c0-0.29999,0.33752-0.59998,0.67499-0.59998H9v-2H4.13751C3.01251,4.0238,2,4.92377,2,6.0238v8.97607v0.02393v2.97607
		c0,1,1.01251,2,2.25,2h15.61249c1.125,0,2.13751-0.89996,2.13751-2V16.0238v-1.02393V6.0238
		C22,5.0238,20.98749,4.0238,19.75,4.0238z"/>
	<path class="st0" d="M7.29291,10.00555c-0.39056,0.3905-0.39056,1.02368,0,1.41418l4,4c0.3905,0.39056,1.02368,0.39056,1.41418,0
		l4-4c0.39056-0.3905,0.39056-1.02368,0-1.41418c-0.3905-0.39056-1.02368-0.39056-1.41418,0L13,12.29846V7.02368V6.0238v-2V2.71265
		c0-0.26825-0.10876-0.50934-0.2807-0.68896C12.53729,1.83356,12.28406,1.71265,12,1.71265s-0.53729,0.12091-0.7193,0.31104
		C11.10876,2.20331,11,2.4444,11,2.71265V4.0238v2v0.99988v5.27478l-2.29291-2.29291
		C8.31659,9.61499,7.68341,9.61499,7.29291,10.00555z"/>
</g>
<rect class="st1" width="24" height="24"/>
</svg>
