<?xml version="1.0" encoding="UTF-8"?><svg width="576" height="576" version="1.1" viewBox="0 0 576 576" xmlns="http://www.w3.org/2000/svg" xmlns:xlink="http://www.w3.org/1999/xlink"><!--Generated by IJSVG (https://github.com/curthard89/IJSVG)--><g transform="scale(24)"><g fill="none"><g fill="#6F6F6F"><path d="M17.75,1.77636e-15h-4.75v2h4.07501c0.33746,0 0.67499,0.19995 0.67499,0.59998v8.3761v1.02393v1.3761c0,0.29999 -0.33752,0.59998 -0.67499,0.59998h-14.15c-0.33746,0 -0.67499,-0.19995 -0.67499,-0.59998v-2.3761v-0.02393v-8.3761c0,-0.29999 0.33752,-0.59998 0.67499,-0.59998h4.07501v-2h-4.86249c-1.125,1.77636e-15 -2.13751,0.89997 -2.13751,2v8.97607v0.02393v2.97607c0,1 1.01251,2 2.25,2h15.6125c1.125,0 2.13751,-0.89996 2.13751,-2v-1.97607v-1.02393v-8.97607c0,-1 -1.01251,-2 -2.25,-2Z" transform="translate(2, 4.0238)"></path><path d="M0.39056,8.2929c-0.39056,0.3905 -0.39056,1.02368 0,1.41418l4,4c0.3905,0.39056 1.02368,0.39056 1.41418,0l4,-4c0.39056,-0.3905 0.39056,-1.02368 0,-1.41418c-0.3905,-0.39056 -1.02368,-0.39056 -1.41418,0l-2.29291,2.29291v-5.27478v-0.99988v-2v-1.31115c0,-0.26825 -0.10876,-0.50934 -0.2807,-0.68896c-0.18201,-0.19013 -0.43524,-0.31104 -0.7193,-0.31104c-0.28406,0 -0.53729,0.12091 -0.7193,0.31104c-0.17194,0.17962 -0.2807,0.42071 -0.2807,0.68896v1.31115v2v0.99988v5.27478l-2.29291,-2.29291c-0.3905,-0.39056 -1.02368,-0.39056 -1.41418,0Z" transform="translate(6.90235, 1.71265)"></path></g><path d="M0,0h24v24h-24Z"></path></g></g></svg>