<?xml version="1.0" encoding="UTF-8"?><svg width="576" height="576" version="1.1" viewBox="0 0 576 576" xmlns="http://www.w3.org/2000/svg" xmlns:xlink="http://www.w3.org/1999/xlink"><!--Generated by IJSVG (https://github.com/curthard89/IJSVG)--><g transform="scale(24)"><g fill="none"><g fill="none"><g transform="translate(12, 12)"><g transform="rotate(-180)"><g transform="translate(-12, -12)"><g transform="translate(3, 4)"><g fill="#6F6F6F"><path d="M10,7.41411v7.58579c0,0.55228 -0.44771,1 -1,1c-0.55229,0 -1,-0.44772 -1,-1v-7.58579l-2.29289,2.2929c-0.39052,0.39052 -1.02369,0.39052 -1.41421,0c-0.39052,-0.39052 -0.39052,-1.02369 0,-1.41421l4,-4c0.39052,-0.39052 1.02369,-0.39052 1.41421,0l4,4c0.39052,0.39052 0.39052,1.02369 0,1.41421c-0.39052,0.39052 -1.02369,0.39052 -1.41421,0l-2.2929,-2.2929Zm-8,-4.81411l0.01176,2.4h-2.01176v-3c0,-1.1 1.0125,-2 2.1375,-2h13.6125c1.2375,0 2.25,1 2.25,2v3h-2l-0.01176,-2.4c0,-0.4 -0.20368,-0.6 -0.54118,-0.6h-12.8596c-0.3375,4.44089e-16 -0.5875,0.3 -0.5875,0.6Z" transform="translate(0, 0.0001)"></path></g></g></g></g></g><use xlink:href="#path-1"></use></g><use xlink:href="#path-1"></use></g></g><defs><path id="path-1" d="M0,0h24v24h-24Z"></path></defs></svg>