<?xml version="1.0" encoding="utf-8"?>
<!-- Generator: Adobe Illustrator 22.1.0, SVG Export Plug-In . SVG Version: 6.00 Build 0)  -->
<svg version="1.1" id="Layer_1" xmlns="http://www.w3.org/2000/svg" xmlns:xlink="http://www.w3.org/1999/xlink" x="0px" y="0px"
	 viewBox="0 0 24 24" style="enable-background:new 0 0 24 24;" xml:space="preserve">
<style type="text/css">
	.st0{fill:none;}
	.st1{fill:#6F6F6F;}
</style>
<title>infopoint_template</title>
<g id="Layer_4">
	<path class="st0" d="M10.6,7.1c-3.8,0.8-6.2,4.4-5.5,8.2s4.4,6.2,8.2,5.5c2.8-0.6,4.9-2.7,5.5-5.5c0.8-3.8-1.7-7.5-5.5-8.2
		C12.5,6.9,11.5,6.9,10.6,7.1z"/>
	<path class="st1" d="M19,8.4L19,8.4l0.8-0.8c0.4-0.4,0.4-1,0-1.4l0,0c-0.4-0.4-1-0.4-1.4,0L17.6,7l0,0C16,5.7,14,5,12,5
		c-4.9,0.1-8.8,3.9-9,8.8c-0.2,5,3.7,9.1,8.7,9.3c5,0.2,9.1-3.7,9.3-8.7C21.1,12.2,20.4,10.1,19,8.4z M18.8,15.4
		c-0.8,3.8-4.4,6.2-8.2,5.5s-6.2-4.4-5.5-8.2c0.6-2.8,2.7-4.9,5.5-5.5c3.8-0.8,7.5,1.7,8.3,5.5C19,13.5,19.1,14.5,18.8,15.4
		L18.8,15.4z"/>
	<path class="st1" d="M10,4h4c0.6,0,1-0.4,1-1s-0.4-1-1-1h-4C9.4,2,9,2.4,9,3S9.4,4,10,4z"/>
	<circle class="st1" cx="12" cy="14" r="3"/>
</g>
</svg>
