<?xml version="1.0" encoding="UTF-8"?><svg width="576" height="576" version="1.1" viewBox="0 0 576 576" xmlns="http://www.w3.org/2000/svg" xmlns:xlink="http://www.w3.org/1999/xlink"><!--Generated by IJSVG (https://github.com/curthard89/IJSVG)--><g transform="scale(24)"><g fill="none"><g transform="translate(0.026367, 0)"><g fill="#6F6F6F"><path d="M9,15h2v-6h-2v6Zm1,-15c-5.52,0 -10,4.48 -10,10c0,5.52 4.48,10 10,10c5.52,0 10,-4.48 10,-10c0,-5.52 -4.48,-10 -10,-10Zm0,18c-4.41,0 -8,-3.59 -8,-8c0,-4.41 3.59,-8 8,-8c4.41,0 8,3.59 8,8c0,4.41 -3.59,8 -8,8Zm-1,-11h2v-2h-2v2Z" transform="translate(2, 2)"></path></g></g><path d="M0,0h24v24h-24Z"></path></g></g></svg>