<?xml version="1.0" encoding="utf-8"?>
<!-- Generator: Adobe Illustrator 22.0.1, SVG Export Plug-In . SVG Version: 6.00 Build 0)  -->
<svg version="1.1" id="Layer_1" xmlns="http://www.w3.org/2000/svg" xmlns:xlink="http://www.w3.org/1999/xlink" x="0px" y="0px"
	 viewBox="0 0 24 24" style="enable-background:new 0 0 24 24;" xml:space="preserve">
<style type="text/css">
	.st0{fill:#585D63;}
</style>
<title>UI event_template</title>
<g id="Layer_4">
	<path class="st0" d="M8,15.13v-2.39c-2.33784-1.93941-2.66082-5.40681-0.72141-7.74465s5.40681-2.66082,7.74465-0.72141
		C17.35383,6.20735,17.68317,9.66095,15.76,12c0.68103,0.19804,1.349,0.43851,2,0.72
		c2.31903-3.43211,1.4167-8.09433-2.0154-10.41336s-8.09433-1.4167-10.41336,2.0154s-1.4167,8.09433,2.0154,10.41336
		C7.55759,14.87794,7.77566,15.00964,8,15.13z"/>
	<path class="st0" d="M16.28,14.27c-0.81576-0.32043-1.65489-0.57785-2.51-0.77l0,0L13,7.5C13,6.67157,12.32843,6,11.5,6
		S10,6.67157,10,7.5v10.74l-3.43-0.72c-0.07991-0.00549-0.16009-0.00549-0.24,0c-0.29664,0.00104-0.58076,0.11972-0.79,0.33
		l-0.79,0.8l4.94,4.94c0.28165,0.28046,0.66253,0.43856,1.06,0.44h6.79c0.75121,0.00397,1.38283-0.56275,1.46-1.31l0.75-5.27
		c0-0.07,0-0.14,0-0.2C19.89,16,18,14.93,16.28,14.27z"/>
</g>
</svg>
