<?xml version="1.0" encoding="UTF-8"?><svg width="576" height="576" version="1.1" viewBox="0 0 576 576" xmlns="http://www.w3.org/2000/svg" xmlns:xlink="http://www.w3.org/1999/xlink"><!--Generated by IJSVG (https://github.com/curthard89/IJSVG)--><g transform="scale(24)"><g fill="none" fill-rule="evenodd" stroke="none" stroke-width="1"><path d="M0,0h24v24h-24Z"></path><g transform="translate(4, 1)"><g fill="#6F6F6F" fill-rule="evenodd" stroke="none" stroke-width="1"><g transform="translate(0, 3.9004)"><g fill="#6F6F6F" fill-rule="evenodd" stroke="none" stroke-width="1"><path d="M12.68,15.62c-0.008,0.047 -0.055,0.28 -0.284,0.28h-5.998c-0.084,0 -0.169,-0.036 -0.229,-0.095l-3.645,-3.646l3.006,0.631c0.298,0.063 0.603,-0.013 0.836,-0.202c0.234,-0.19 0.37,-0.476 0.37,-0.777l-0.011,-9.423c0.065,-0.14 0.481,-0.388 0.777,-0.388c0.297,0 0.713,0.248 0.767,0.325v5.3c0,0.553 0.448,1 1,1l0.736,0.02l3.001,1.916c0.049,0.032 0.101,0.059 0.154,0.081c0.091,0.038 0.188,0.146 0.18,0.332l-0.66,4.646Zm1.34,-6.784l-3.065,-1.957c-0.049,-0.031 -0.102,-0.059 -0.157,-0.081c-0.173,-0.072 -0.349,-0.121 -0.529,-0.148v-4.325c0,-1.44 -1.611,-2.325 -2.767,-2.325c-1.155,0 -2.766,0.885 -2.766,2.325v8.255l-1.825,-0.383c-0.011,-0.003 -0.092,-0.015 -0.104,-0.017c-0.549,-0.1 -1.258,0.094 -1.723,0.558l-0.697,0.706c-0.387,0.392 -0.385,1.022 0.004,1.41l4.364,4.365c0.433,0.433 1.031,0.681 1.643,0.681h5.998c1.137,0 2.087,-0.833 2.263,-1.99l0.662,-4.654c0.015,-0.111 0.027,-0.224 0.027,-0.319c0,-0.894 -0.529,-1.726 -1.328,-2.101v0Z" transform="translate(-0.098, 0.0997)"></path></g></g><path d="M2.161,11.546c0.205,0 0.412,-0.063 0.59,-0.194c0.446,-0.327 0.542,-0.952 0.215,-1.397c-0.632,-0.862 -0.966,-1.884 -0.966,-2.955c0,-2.757 2.244,-5 5,-5c2.757,0 5,2.243 5,5c0,0.733 -0.155,1.439 -0.46,2.099c-0.232,0.501 -0.013,1.095 0.488,1.327c0.5,0.232 1.095,0.014 1.327,-0.487c0.429,-0.926 0.645,-1.914 0.645,-2.939c0,-3.86 -3.14,-7 -7,-7c-3.86,0 -7,3.14 -7,7c0,1.5 0.468,2.931 1.354,4.137c0.196,0.267 0.499,0.409 0.807,0.409" transform="translate(0.2496, 0.0004)"></path></g></g></g></g></svg>