<?xml version="1.0" encoding="UTF-8"?><svg width="576" height="576" version="1.1" viewBox="0 0 576 576" xmlns="http://www.w3.org/2000/svg" xmlns:xlink="http://www.w3.org/1999/xlink"><!--Generated by IJSVG (https://github.com/curthard89/IJSVG)--><g transform="scale(24)"><g fill="none" fill-rule="evenodd" stroke="none" stroke-width="1"><path d="M0,0h24v24h-24Z"></path><g transform="translate(3, 3)"><g fill="#FFFFFF" fill-rule="evenodd" stroke="none" stroke-width="1"><g fill="#494949" fill-rule="evenodd" stroke="none" stroke-width="1"><path mask="url(#mask-1)" d="M16.134,18h-14.268c-1.026,0 -1.866,-0.84 -1.866,-1.866v-14.268c0,-1.026 0.84,-1.866 1.866,-1.866h14.268c1.026,0 1.866,0.84 1.866,1.866v14.268c0,1.026 -0.84,1.866 -1.866,1.866" transform="translate(-0.0002, 0)"></path></g><path d="M1.49902,7.37793h-1.41602v-5.2832h1.41602v5.2832Zm-1.49902,-6.65039c0,-0.21159 0.0708001,-0.385742 0.212402,-0.522461c0.141602,-0.136719 0.334471,-0.205078 0.578613,-0.205078c0.240887,0 0.432942,0.0683587 0.576172,0.205078c0.14323,0.136719 0.214844,0.310871 0.214844,0.522461c0,0.214845 -0.0724277,0.390624 -0.217285,0.527344c-0.144857,0.136719 -0.336099,0.205078 -0.57373,0.205078c-0.237631,0 -0.428873,-0.0683587 -0.57373,-0.205078c-0.144857,-0.136719 -0.217285,-0.312499 -0.217285,-0.527344Zm8.59375,3.25684c0,0.699873 -0.123697,1.31347 -0.371094,1.84082c-0.247397,0.527346 -0.601397,0.934243 -1.06201,1.2207c-0.460614,0.28646 -0.988767,0.429688 -1.58447,0.429688c-0.589196,0 -1.11491,-0.1416 -1.57715,-0.424805c-0.462242,-0.283205 -0.820311,-0.68766 -1.07422,-1.21338c-0.253908,-0.525719 -0.382487,-1.13037 -0.385742,-1.81396v-0.351562c0,-0.699873 0.126138,-1.31592 0.378418,-1.84814c0.25228,-0.532229 0.608722,-0.940754 1.06934,-1.22559c0.460614,-0.284832 0.987139,-0.427246 1.57959,-0.427246c0.592451,0 1.11898,0.142414 1.57959,0.427246c0.460614,0.284832 0.817056,0.693357 1.06934,1.22559c0.25228,0.532229 0.378418,1.14664 0.378418,1.84326v0.317383Zm-1.48437,-0.322266c0,-0.745446 -0.133462,-1.31185 -0.400391,-1.69922c-0.266928,-0.387372 -0.647784,-0.581055 -1.14258,-0.581055c-0.491539,0 -0.870767,0.191242 -1.1377,0.57373c-0.266928,0.382489 -0.402018,0.943193 -0.405273,1.68213v0.34668c0,0.725915 0.133462,1.28906 0.400391,1.68945c0.266928,0.400393 0.651039,0.600586 1.15234,0.600586c0.491539,0 0.869139,-0.192869 1.13281,-0.578613c0.263673,-0.385744 0.397135,-0.948076 0.400391,-1.68701v-0.34668Zm6.23535,1.85059c0,-0.276694 -0.0976553,-0.489094 -0.292969,-0.637207c-0.195313,-0.148113 -0.546872,-0.304361 -1.05469,-0.46875c-0.507815,-0.164389 -0.909829,-0.326334 -1.20605,-0.48584c-0.807296,-0.4362 -1.21094,-1.02376 -1.21094,-1.7627c0,-0.384117 0.108235,-0.726724 0.324707,-1.02783c0.216472,-0.301108 0.527342,-0.536295 0.932617,-0.705566c0.405275,-0.169272 0.860186,-0.253906 1.36475,-0.253906c0.507815,0 0.960284,0.0919587 1.35742,0.275879c0.397137,0.18392 0.705565,0.44352 0.925293,0.778809c0.219728,0.335288 0.32959,0.716144 0.32959,1.14258h-1.46484c0,-0.325522 -0.102538,-0.578612 -0.307617,-0.759277c-0.205079,-0.180665 -0.493162,-0.270996 -0.864258,-0.270996c-0.358075,0 -0.636392,0.0756828 -0.834961,0.227051c-0.198569,0.151368 -0.297852,0.350747 -0.297852,0.598145c0,0.231121 0.116372,0.424804 0.349121,0.581055c0.232749,0.156251 0.575356,0.302734 1.02783,0.439453c0.833337,0.250652 1.44043,0.561522 1.82129,0.932617c0.380861,0.371096 0.571289,0.833331 0.571289,1.38672c0,0.615237 -0.232745,1.09782 -0.698242,1.44775c-0.465497,0.349937 -1.09212,0.524902 -1.87988,0.524902c-0.546878,0 -1.04492,-0.100097 -1.49414,-0.300293c-0.449221,-0.200196 -0.791828,-0.474445 -1.02783,-0.822754c-0.236004,-0.348309 -0.354004,-0.751951 -0.354004,-1.21094h1.46973c0,0.784509 0.468745,1.17676 1.40625,1.17676c0.348309,0 0.620116,-0.0708001 0.81543,-0.212402c0.195314,-0.141602 0.292969,-0.339354 0.292969,-0.593262Z" transform="translate(1.59277, 5.57629)"></path></g></g></g></g><defs><mask id="mask-1" maskContentUnits="userSpaceOnUse" maskUnits="objectBoundingBox"><g fill="#FFFFFF" transform="translate(0.0002, 0)"><path d="M0,18v-18h8.9999h8.9999v18Z"></path></g></mask></defs></svg>