<?xml version="1.0" encoding="UTF-8"?><svg width="576" height="576" version="1.1" viewBox="0 0 576 576" xmlns="http://www.w3.org/2000/svg" xmlns:xlink="http://www.w3.org/1999/xlink"><!--Generated by IJSVG (https://github.com/curthard89/IJSVG)--><g transform="scale(24)"><g fill="none" fill-rule="evenodd" stroke="none" stroke-width="1"><path d="M0,0h24v24h-24Z"></path><g transform="translate(3, 3)"><g fill="#FFFFFF" fill-rule="evenodd" stroke="none" stroke-width="1"><g fill="#2C81CE" fill-rule="evenodd" stroke="none" stroke-width="1"><path mask="url(#mask-1)" d="M16.134,18h-14.268c-1.026,0 -1.866,-0.84 -1.866,-1.866v-14.268c0,-1.026 0.84,-1.866 1.866,-1.866h14.268c1.026,0 1.866,0.84 1.866,1.866v14.268c0,1.026 -0.84,1.866 -1.866,1.866" transform="translate(-0.0002, 0)"></path></g><path d="M3.637,0h1.611v5.414c0,0.498 -0.11,0.938 -0.331,1.318c-0.219,0.382 -0.53,0.676 -0.931,0.884c-0.402,0.208 -0.855,0.312 -1.359,0.312c-0.828,0 -1.472,-0.21 -1.933,-0.631c-0.463,-0.421 -0.694,-1.017 -0.694,-1.786h1.622c0,0.383 0.081,0.666 0.242,0.848c0.162,0.183 0.416,0.274 0.763,0.274c0.308,0 0.553,-0.106 0.736,-0.317c0.182,-0.211 0.274,-0.511 0.274,-0.902v-5.414Z" transform="translate(3.0837, 5.1172)"></path><path d="M2.314,4.839c0.229,0 0.441,-0.051 0.635,-0.152c0.193,-0.103 0.336,-0.24 0.429,-0.411v-0.999h-0.58c-0.777,0 -1.191,0.268 -1.241,0.805l-0.005,0.091c0,0.193 0.068,0.354 0.203,0.479c0.137,0.125 0.323,0.187 0.559,0.187v0Zm1.284,1.08c-0.071,-0.14 -0.124,-0.313 -0.155,-0.521c-0.377,0.42 -0.865,0.628 -1.467,0.628c-0.569,0 -1.041,-0.165 -1.415,-0.494c-0.374,-0.329 -0.561,-0.745 -0.561,-1.246c0,-0.616 0.228,-1.089 0.684,-1.418c0.457,-0.329 1.116,-0.496 1.98,-0.5h0.714v-0.332c0,-0.269 -0.069,-0.484 -0.207,-0.644c-0.137,-0.162 -0.355,-0.242 -0.652,-0.242c-0.262,0 -0.467,0.062 -0.615,0.187c-0.149,0.126 -0.223,0.298 -0.223,0.516h-1.553c0,-0.336 0.104,-0.648 0.312,-0.934c0.208,-0.287 0.501,-0.512 0.881,-0.675c0.38,-0.163 0.806,-0.244 1.278,-0.244c0.716,0 1.284,0.18 1.705,0.54c0.421,0.36 0.631,0.865 0.631,1.518v2.518c0.004,0.552 0.081,0.969 0.232,1.251v0.092h-1.569Z" transform="translate(9.5991, 7.0184)"></path></g></g></g></g><defs><mask id="mask-1" maskContentUnits="userSpaceOnUse" maskUnits="objectBoundingBox"><g fill="#FFFFFF" transform="translate(0.0002, 0)"><path d="M8.9999,0h-8.9999v18h8.9999h8.9999v-18Z"></path></g></mask></defs></svg>