<?xml version="1.0" encoding="UTF-8"?><svg width="576" height="576" version="1.1" viewBox="0 0 576 576" xmlns="http://www.w3.org/2000/svg" xmlns:xlink="http://www.w3.org/1999/xlink"><!--Generated by IJSVG (https://github.com/curthard89/IJSVG)--><g transform="scale(24)"><g fill-rule="evenodd" stroke="none" stroke-width="1"><use fill="none" xlink:href="#path-1"></use><g stroke="none" stroke-width="1"><path fill="#6F6F6F" d="M1.5,6c-0.83,0 -1.5,0.67 -1.5,1.5c0,0.83 0.67,1.5 1.5,1.5c0.83,0 1.5,-0.67 1.5,-1.5c0,-0.83 -0.67,-1.5 -1.5,-1.5Zm0,-6c-0.83,0 -1.5,0.67 -1.5,1.5c0,0.83 0.67,1.5 1.5,1.5c0.83,0 1.5,-0.67 1.5,-1.5c0,-0.83 -0.67,-1.5 -1.5,-1.5Zm0,12c-0.83,0 -1.5,0.68 -1.5,1.5c0,0.82 0.68,1.5 1.5,1.5c0.82,0 1.5,-0.68 1.5,-1.5c0,-0.82 -0.67,-1.5 -1.5,-1.5Zm3,2.5h5.04639v-2h-5.04639v2Zm0,-6h14v-2h-14v2Zm0,-8v2h14v-2h-14Z" transform="translate(0.5, 4.5)"></path><use fill="none" fill-rule="evenodd" xlink:href="#path-1"></use></g><path fill="#6F6F6F" d="M10,0l1.5,1.5l-6.99,7l-4.51,-4.5l1.5,-1.5l3.01,3Z" transform="translate(12.5, 15.5)"></path></g></g><defs><path id="path-1" d="M0,0h24v24h-24Z"></path></defs></svg>