<?xml version="1.0" encoding="UTF-8"?><svg width="576" height="576" version="1.1" viewBox="0 0 576 576" xmlns="http://www.w3.org/2000/svg" xmlns:xlink="http://www.w3.org/1999/xlink"><!--Generated by IJSVG (https://github.com/curthard89/IJSVG)--><g transform="scale(24)"><g fill="none" fill-rule="evenodd" stroke="none" stroke-width="1"><g transform="translate(11.2929, 12)"><g transform="rotate(-45)"><g transform="translate(-11.2929, -12)"><g transform="translate(1.79289, 2.5)"><g fill="#6F6F6F" fill-rule="evenodd" stroke="none" stroke-width="1"><path d="M0.303063,0.757172c-0.303063,0.440554 -0.302094,1.03312 0.00580951,1.48142c0.261428,0.365999 0.659379,0.576109 1.09219,0.576109c0.445395,0 0.868521,-0.227539 1.098,-0.584824c0.303063,-0.440554 0.302094,-1.03312 -0.0058095,-1.47949c-0.534475,-0.750395 -1.73801,-0.700046 -2.19018,0.00677775" transform="translate(4.07091, 3.94233)"></path><path d="M15.2015,14.577h-0.969219v-0.968251c0,-0.655506 -0.532538,-1.18804 -1.18804,-1.18804h-1.55598l-2.22698,-2.22698l-0.613871,0.255618c-1.73123,0.749426 -3.751,0.294348 -5.02038,-1.12995c-1.46496,-1.63538 -1.47174,-4.12088 -0.0174285,-5.77949c0.822045,-0.92468 1.94425,-1.45334 3.1594,-1.48723c1.22871,-0.0513173 2.37899,0.414411 3.24461,1.28003c1.27712,1.27712 1.63828,3.17393 0.919839,4.83641l-0.253682,0.607093l6.49987,6.5202v1.39815h-0.810426v-0.929521c0,-0.666157 -0.512205,-1.18804 -1.16771,-1.18804m3.63385,-0.444427l-5.83468,-5.83371c0.683585,-2.23182 0.0726189,-4.70764 -1.58696,-6.36625c-1.24711,-1.24614 -2.95413,-1.93263 -4.69699,-1.86679c-1.74285,0.0416348 -3.37436,0.795902 -4.59629,2.12725c-2.12047,2.39933 -2.12047,6.01768 0,8.41604c1.66249,1.88422 4.24965,2.60556 6.64414,1.86776l1.54049,1.54049c0.230444,0.229475 0.518983,0.351475 0.836569,0.351475h1.08444v0.968251c0,0.667125 0.513173,1.18901 1.16868,1.18901h0.968251v0.968251c0,0.654538 0.532538,1.18708 1.18708,1.18708h2.44871c0.626458,0 1.14835,-0.503491 1.18708,-1.16868v-2.54456c0,-0.311777 -0.124904,-0.60903 -0.350507,-0.835601" transform="translate(-0.530021, -0.0612903)"></path></g></g></g></g></g><path d="M0,0h24v24h-24Z"></path></g></g></svg>