<?xml version="1.0" encoding="utf-8"?>
<!-- Generator: Adobe Illustrator 20.1.0, SVG Export Plug-In . SVG Version: 6.00 Build 0)  -->
<svg version="1.1" id="Layer_1" xmlns="http://www.w3.org/2000/svg" xmlns:xlink="http://www.w3.org/1999/xlink" x="0px" y="0px"
	 viewBox="0 0 24 24" enable-background="new 0 0 24 24" xml:space="preserve">
<title>Artboard 1 copy</title>
<g>
	<path fill="#585D63" d="M10,20.66669c0,0.36816,0.29846,0.66663,0.66669,0.66663h2.66663
		c0.36823,0,0.66669-0.29846,0.66669-0.66663V20h-4V20.66669z"/>
	<path fill="#585D63" d="M16.77789,5.16119C15.68793,3.59967,13.90436,2.66846,12,2.66669
		C8.77832,2.66968,6.16913,5.28381,6.17212,8.50543c0.00177,1.90436,0.93298,3.68793,2.49457,4.77789v1.88336
		C8.66669,15.62689,9.03973,16,9.5,16h5c0.46027,0,0.83331-0.37311,0.83331-0.83331v-1.88336
		C17.9751,11.43939,18.62183,7.80298,16.77789,5.16119z"/>
	<path fill="#585D63" d="M9,18c0,0.46027,0.44769,0.83331,1,0.83331h4c0.55231,0,1-0.37305,1-0.83331v-0.83331H9V18z"/>
</g>
</svg>
