<?xml version="1.0" encoding="utf-8"?>
<!-- Generator: Adobe Illustrator 22.0.1, SVG Export Plug-In . SVG Version: 6.00 Build 0)  -->
<svg version="1.1" id="Layer_1" xmlns="http://www.w3.org/2000/svg" xmlns:xlink="http://www.w3.org/1999/xlink" x="0px" y="0px"
	 viewBox="0 0 24 24" style="enable-background:new 0 0 24 24;" xml:space="preserve">
<style type="text/css">
	.st0{fill:#585D63;}
	.st1{fill:none;}
</style>
<title>linear</title>
<desc>Created with Sketch.</desc>
<g id="actions">
	<g id="linear">
		<polygon id="Shape_2_" class="st0" points="5.01428,11.26623 5.01428,12.01623 5.01428,12.76623 19.03772,12.76623 
			19.03772,12.01623 19.03772,11.26623 		"/>
		<polygon id="Shape_3_" class="st0" points="5.01428,5.10119 5.01428,5.85119 5.01428,6.60119 19.03772,6.60119 19.03772,5.85119 
			19.03772,5.10119 		"/>
		<polygon id="Shape_4_" class="st0" points="5.01428,8.18371 5.01428,8.93371 5.01428,9.68371 19.03772,9.68371 19.03772,8.93371 
			19.03772,8.18371 		"/>
		<polygon id="Shape_5_" class="st0" points="5.01428,14.34876 5.01428,15.09876 5.01428,15.84876 19.03772,15.84876 
			19.03772,15.09876 19.03772,14.34876 		"/>
		<polygon id="Shape_6_" class="st0" points="5.01428,17.43128 5.01428,18.18128 5.01428,18.93128 19.03772,18.93128 
			19.03772,18.18128 19.03772,17.43128 		"/>
	</g>
	<rect class="st1" width="24" height="24"/>
</g>
</svg>
