<?xml version="1.0" encoding="UTF-8"?><svg width="576" height="576" version="1.1" viewBox="0 0 576 576" xmlns="http://www.w3.org/2000/svg" xmlns:xlink="http://www.w3.org/1999/xlink"><!--Generated by IJSVG (https://github.com/curthard89/IJSVG)--><g transform="scale(24)"><g stroke="none" stroke-width="1"><path fill="none" fill-rule="evenodd" d="M0,0h24v24h-24Z"></path><path fill="#6F6F6F" d="M7.66025,7.03056l3.15122,3.3245c0.398696,0.420619 1.07032,0.415311 1.46232,-0.0115565l7.858,-8.55701c0.373556,-0.406785 0.346618,-1.03938 -0.0601674,-1.41293c-0.406785,-0.373556 -1.03938,-0.346618 -1.41293,0.0601674l-7.13304,7.76755l-3.13145,-3.30364c-0.391321,-0.412839 -1.04773,-0.416555 -1.4437,-0.00817357l-6.56604,6.77185c-0.384453,0.396503 -0.374684,1.02959 0.0218193,1.41405c0.396503,0.384453 1.02959,0.374684 1.41405,-0.0218193l5.83993,-6.02298Z" transform="translate(1.89762, 4.88989)"></path></g></g></svg>