<?xml version="1.0" encoding="utf-8"?>
<!-- Generator: Adobe Illustrator 22.0.1, SVG Export Plug-In . SVG Version: 6.00 Build 0)  -->
<svg version="1.1" id="Layer_1" xmlns="http://www.w3.org/2000/svg" xmlns:xlink="http://www.w3.org/1999/xlink" x="0px" y="0px"
	 viewBox="0 0 24 24" style="enable-background:new 0 0 24 24;" xml:space="preserve">
<style type="text/css">
	.st0{fill:#585D63;}
	.st1{fill:none;}
</style>
<title>link</title>
<desc>Created with Sketch.</desc>
<g id="actions">
	<g id="link">
		<g>
			<path class="st0" d="M22.00043,12.06995c-0.00073-2.75983-2.24084-4.99994-5-4.99994h-3.05042
				c-0.52472,0-0.94965,0.42499-0.94965,0.94965c-0.00073,0.52539,0.42493,0.95105,0.95032,0.95038h3.04907
				c1.70978,0,3.09991,1.39014,3.09991,3.09991h0.00031c0,1.70978-1.3902,3.09998-3.09998,3.09998l-3.04974,0.00067
				c-0.52466,0-0.95032,0.42572-0.94965,0.94965c-0.00067,0.52399,0.42426,0.94897,0.94965,0.94965L17,17.07062
				c2.75989-0.00073,5-2.24084,5.00067-5.00067H22.00043z"/>
			<path class="st0" d="M10.04944,15.16992H7.12061c-1.49908,0-2.87579-1.01044-3.16077-2.48334
				c-0.38397-1.97925,1.12854-3.71655,3.04059-3.71655h3.04901c0.52539,0.00067,0.95105-0.42499,0.95038-0.95038
				c0-0.52466-0.42499-0.94965-0.94965-0.94965H6.99969c-2.75916,0-4.99927,2.24011-4.99994,4.99994
				c0.00067,2.75983,2.24078,4.99994,4.99994,4.99994h3.05048c0.52466,0,0.95032-0.42566,0.94965-0.94965
				C10.99982,15.59558,10.57483,15.17059,10.04944,15.16992z"/>
			<path class="st0" d="M7.99976,12.06934c0,0.55292,0.44757,1.00055,1.00055,1.00055h5.99908
				c0.55298,0,1.00055-0.44763,1.00055-1.00055c0-0.55157-0.44757-0.99915-0.99982-0.99988H8.99963
				C8.44733,11.07019,8.00049,11.51709,7.99976,12.06934z"/>
		</g>
		<rect id="Rectangle-12" class="st1" width="24" height="24"/>
	</g>
</g>
<rect class="st1" width="24" height="24"/>
</svg>
