<?xml version="1.0" encoding="UTF-8"?><svg width="576" height="576" version="1.1" viewBox="0 0 576 576" xmlns="http://www.w3.org/2000/svg" xmlns:xlink="http://www.w3.org/1999/xlink"><!--Generated by IJSVG (https://github.com/curthard89/IJSVG)--><g transform="scale(24)"><g fill="none"><g fill="none"><g fill="#6F6F6F"><path d="M9.0008,4.99994c-0.00073,-2.75983 -2.24084,-4.99994 -5,-4.99994h-3.05042c-0.52472,0 -0.94965,0.42499 -0.94965,0.94965c-0.00073,0.52539 0.42493,0.95105 0.95032,0.95038h3.04907c1.70978,0 3.09991,1.39014 3.09991,3.09991h0.00031c0,1.70978 -1.3902,3.09998 -3.09998,3.09998l-3.04974,0.00067c-0.52466,0 -0.95032,0.42572 -0.94965,0.94965c-0.00067,0.52399 0.42426,0.94897 0.94965,0.94965l3.04975,0.00072c2.75989,-0.00073 5,-2.24084 5.00067,-5.00067h-0.00024Z" transform="translate(12.9996, 7.07001)"></path><path d="M8.04969,8.09992h-2.92883c-1.49908,0 -2.87579,-1.01044 -3.16077,-2.48334c-0.38397,-1.97925 1.12854,-3.71655 3.04059,-3.71655h3.04901c0.52539,0.00067 0.95105,-0.42499 0.95038,-0.95038c0,-0.52466 -0.42499,-0.94965 -0.94965,-0.94965h-3.05048c-2.75916,0 -4.99927,2.24011 -4.99994,4.99994c0.00067,2.75983 2.24078,4.99994 4.99994,4.99994h3.05048c0.52466,0 0.95032,-0.42566 0.94965,-0.94965c0,-0.52465 -0.42499,-0.94964 -0.95038,-0.95031Z" transform="translate(1.99975, 7.07)"></path><path d="M0,0.99988c0,0.55292 0.44757,1.00055 1.00055,1.00055h5.99908c0.55298,0 1.00055,-0.44763 1.00055,-1.00055c0,-0.55157 -0.44757,-0.99915 -0.99982,-0.99988h-6.00049c-0.5523,0.00073 -0.99914,0.44763 -0.99987,0.99988Z" transform="translate(7.99976, 11.0695)"></path></g><use xlink:href="#path-1"></use></g><use xlink:href="#path-1"></use></g></g><defs><path id="path-1" d="M0,0h24v24h-24Z"></path></defs></svg>