<?xml version="1.0" encoding="utf-8"?>
<!-- Generator: Adobe Illustrator 22.0.1, SVG Export Plug-In . SVG Version: 6.00 Build 0)  -->
<svg version="1.1" id="Layer_1" xmlns="http://www.w3.org/2000/svg" xmlns:xlink="http://www.w3.org/1999/xlink" x="0px" y="0px"
	 viewBox="0 0 24 24" style="enable-background:new 0 0 24 24;" xml:space="preserve">
<style type="text/css">
	.st0{fill:none;}
	.st1{fill:#585D63;}
</style>
<title>list</title>
<desc>Created with Sketch.</desc>
<g id="data-types">
	<g id="list">
		<g id="Rectangle-12">
			<rect class="st0" width="24" height="24"/>
		</g>
		<g id="Stroke-4">
			<rect x="10.4375" y="4.75" class="st1" width="9.625" height="2.5"/>
		</g>
		<g id="Stroke-6">
			<rect x="10.4375" y="10.75" class="st1" width="9.625" height="2.5"/>
		</g>
		<g id="Stroke-6-Copy">
			<rect x="10.4375" y="16.75" class="st1" width="9.625" height="2.5"/>
		</g>
		<g id="Fill-10">
			<path class="st1" d="M8,6c0,1.104-0.896,2-2,2S4,7.104,4,6s0.896-2,2-2S8,4.896,8,6"/>
		</g>
		<g id="Fill-12">
			<path class="st1" d="M8,12c0,1.104-0.896,2-2,2s-2-0.896-2-2s0.896-2,2-2S8,10.896,8,12"/>
		</g>
		<g id="Fill-12-Copy">
			<path class="st1" d="M8,18c0,1.104-0.896,2-2,2s-2-0.896-2-2s0.896-2,2-2S8,16.896,8,18"/>
		</g>
	</g>
</g>
</svg>
