<?xml version="1.0" encoding="UTF-8"?><svg width="576" height="576" version="1.1" viewBox="0 0 576 576" xmlns="http://www.w3.org/2000/svg" xmlns:xlink="http://www.w3.org/1999/xlink"><!--Generated by IJSVG (https://github.com/curthard89/IJSVG)--><g transform="scale(24)"><g fill="none"><g fill="none"><path d="M15,0h-14c-0.54199,0 -1,0.45801 -1,1v14c0,0.54199 0.45801,1 1,1h14c0.54199,0 1,-0.45801 1,-1v-14c0,-0.54199 -0.45801,-1 -1,-1Zm-4,3.75h-3.25v3.5h3.24902v1.5h-3.24902v3.5h3.25v1.5h-4c-0.41406,0 -0.75,-0.33594 -0.75,-0.75v-4.25h-2.25v1.25h-3v-4h3v1.25h2.25v-4.25c0,-0.41406 0.33594,-0.75 0.75,-0.75h4v1.5Zm3.83301,10.25h-2.66699v-2.66699h2.66699v2.66699Zm0,-4.66699h-2.66699v-2.66699h2.66699v2.66699Zm0,-4.66602h-2.66699v-2.66699h2.66699v2.66699Z" transform="translate(4, 4)"></path><use fill="#6F6F6F" transform="translate(16.166, 6)" xlink:href="#path-1"></use><use fill="#6F6F6F" transform="translate(16.166, 10.666)" xlink:href="#path-1"></use><use fill="#6F6F6F" transform="translate(16.166, 15.333)" xlink:href="#path-1"></use><path fill="#6F6F6F" d="M17,0h-14c-1.65002,0 -3,1.34998 -3,3v14c0,1.65002 1.34998,3 3,3h14c1.65002,0 3,-1.34998 3,-3v-14c0,-1.65002 -1.34998,-3 -3,-3Zm1,17c0,0.54199 -0.45801,1 -1,1h-14c-0.54199,0 -1,-0.45801 -1,-1v-14c0,-0.54199 0.45801,-1 1,-1h14c0.54199,0 1,0.45801 1,1v14Z" transform="translate(2, 2)"></path><path fill="#6F6F6F" d="M5.25,0.75v4.25h-2.25v-1.25h-3v4h3v-1.25h2.25v4.25c0,0.41406 0.33594,0.75 0.75,0.75h4v-1.5h-3.25v-3.5h3.24902v-1.5h-3.24902v-3.5h3.25v-1.5h-4c-0.41406,0 -0.75,0.33594 -0.75,0.75Z" transform="translate(5, 6.25)"></path></g><path d="M0,0h24v24h-24Z"></path></g></g><defs><path id="path-1" d="M0,0h2.66699v2.66699h-2.66699Z"></path></defs></svg>