<?xml version="1.0" encoding="UTF-8"?>
<svg width="24px" height="24px" viewBox="0 0 24 24" version="1.1" xmlns="http://www.w3.org/2000/svg" xmlns:xlink="http://www.w3.org/1999/xlink">
    <!-- Generator: Sketch 47.1 (45422) - http://www.bohemiancoding.com/sketch -->
    <title>location@4x</title>
    <desc>Created with Sketch.</desc>
    <defs></defs>
    <g id="objects" stroke="none" stroke-width="1" fill="none" fill-rule="evenodd">
        <g id="location">
            <g id="more-horiz">
                <polygon id="Shape" points="0 0 24 0 24 24 0 24"></polygon>
            </g>
            <g id="ic_share_black_24px" transform="translate(-0.195312, 0.024475)">
                <polygon id="Shape" points="0 0 24 0 24 24 0 24"></polygon>
            </g>
            <path d="M11.9,3 C8.6,3 6,5.6 6,8.9 C6,12.8 10.3,18.4 11.9,20.2 C13.9,17.9 17.9,12.6 17.9,8.9 C17.9,5.7 15.2,3 11.9,3 L11.9,3 Z M11.9,11.5 C10.5,11.5 9.4,10.4 9.4,9 C9.4,7.6 10.5,6.5 11.9,6.5 C13.2,6.5 14.4,7.6 14.4,9 C14.4,10.3 13.3,11.5 11.9,11.5 L11.9,11.5 Z" id="Shape" fill="#585D63"></path>
            <rect id="Rectangle-12" x="0" y="0" width="24" height="24"></rect>
        </g>
    </g>
</svg>
