<?xml version="1.0" encoding="UTF-8"?><svg width="576" height="576" version="1.1" viewBox="0 0 576 576" xmlns="http://www.w3.org/2000/svg" xmlns:xlink="http://www.w3.org/1999/xlink"><!--Generated by IJSVG (https://github.com/curthard89/IJSVG)--><g transform="scale(24)"><g fill-rule="evenodd" stroke="none" stroke-width="1"><use fill="none" fill-rule="evenodd" stroke="none" stroke-width="1" xlink:href="#path-1"></use><g transform="translate(-0.195312, 0.024475)"><use fill="none" fill-rule="evenodd" stroke="none" stroke-width="1" xlink:href="#path-1"></use></g><path fill="#6F6F6F" d="M5.9,0c-3.3,0 -5.9,2.6 -5.9,5.9c0,3.9 4.3,9.5 5.9,11.3c2,-2.3 6,-7.6 6,-11.3c0,-3.2 -2.7,-5.9 -6,-5.9v0Zm0,8.5c-1.4,0 -2.5,-1.1 -2.5,-2.5c0,-1.4 1.1,-2.5 2.5,-2.5c1.3,0 2.5,1.1 2.5,2.5c0,1.3 -1.1,2.5 -2.5,2.5v0Z" transform="translate(6, 3)"></path><use fill="none" xlink:href="#path-1"></use></g></g><defs><path id="path-1" d="M0,0h24v24h-24Z"></path></defs></svg>