<?xml version="1.0" encoding="utf-8"?>
<!-- Generator: Adobe Illustrator 22.0.1, SVG Export Plug-In . SVG Version: 6.00 Build 0)  -->
<svg version="1.1" id="Layer_1" xmlns="http://www.w3.org/2000/svg" xmlns:xlink="http://www.w3.org/1999/xlink" x="0px" y="0px"
	 viewBox="0 0 24 24" style="enable-background:new 0 0 24 24;" xml:space="preserve">
<style type="text/css">
	.st0{fill:#585D63;}
	.st1{fill:none;}
</style>
<title>logout</title>
<desc>Created with Sketch.</desc>
<g>
	<path class="st0" d="M5.68256,13.02264h7.00079l-1.8736,1.88159c-0.38831,0.38831-0.38727,1.01819,0.00104,1.40643
		c0.38928,0.38934,1.02014,0.38934,1.40942,0l3.68829-3.68829c0.32941-0.32941,0.32941-0.86542,0-1.1958l-3.68829-3.68835
		c-0.38928-0.38928-1.02014-0.38928-1.40942,0c-0.38831,0.38831-0.38934,1.01819-0.00104,1.40747l1.8736,1.88062H5.68256
		c-0.00323-0.00006-0.00586-0.00183-0.00909-0.00183H2.99512c-0.55231,0-1,0.44769-1,1s0.44769,1,1,1h2.67834
		C5.6767,13.02448,5.67932,13.02271,5.68256,13.02264z"/>
	<path class="st0" d="M19.00189,3.04077H5.02728c-1.10803,0-1.9964,0.89838-1.9964,1.9964v3.99274h1.9964V5.03717h13.97461v13.97461
		H5.02728v-3.99274h-1.9964v3.99274c0,1.10205,0.89435,1.9964,1.9964,1.9964h13.97461c1.09802,0,1.9964-0.89838,1.9964-1.9964
		V5.03717C20.99829,3.93915,20.09991,3.04077,19.00189,3.04077z"/>
</g>
<rect class="st1" width="24" height="24"/>
</svg>
