<?xml version="1.0" encoding="utf-8"?>
<!-- Generator: Adobe Illustrator 22.0.1, SVG Export Plug-In . SVG Version: 6.00 Build 0)  -->
<svg version="1.1" id="Layer_1" xmlns="http://www.w3.org/2000/svg" xmlns:xlink="http://www.w3.org/1999/xlink" x="0px" y="0px"
	 viewBox="0 0 24 24" style="enable-background:new 0 0 24 24;" xml:space="preserve">
<style type="text/css">
	.st0{fill:none;}
	.st1{fill:#585D63;}
</style>
<title>searches</title>
<desc>Created with Sketch.</desc>
<g>
	<path class="st0" d="M12.98694,10.82764H6v-1.5h6.98694V10.82764z M15,7.82764H6v-1.5h9V7.82764z"/>
	<path class="st1" d="M4.00043,18V4h14v7.24225c0.72522,0.14136,1.3999,0.42084,2,0.80743v-8.3247
		C20.00043,2.77197,19.22742,2,18.27539,2H3.7254c-0.953,0-1.72498,0.77197-1.72498,1.72498v14.55005
		C2.00043,19.22803,2.7724,20,3.7254,20h8.33911c-0.38635-0.6001-0.66595-1.27472-0.8078-2H4.00043z"/>
	<path class="st1" d="M6,13.82764h6.03461c0.36395-0.57794,0.82684-1.08502,1.36627-1.5H6V13.82764z"/>
	<rect x="6" y="9.32764" class="st1" width="6.98694" height="1.5"/>
	<rect x="6" y="6.32764" class="st1" width="9" height="1.5"/>
</g>
<g>
	<path class="st0" d="M17.06213,14.67645c-1.31525,0-2.38525,1.07001-2.38525,2.38531c0,1.31519,1.07001,2.38525,2.38525,2.38525
		s2.38531-1.07007,2.38531-2.38525C19.44745,15.74646,18.37738,14.67645,17.06213,14.67645z"/>
	<path class="st1" d="M23.58588,22.26849l-1.5694-1.5694l-1.16162-1.164l-0.06464-0.06482l-0.00311-0.00061l-0.1972-0.19714
		c0.66235-1.04211,0.82672-2.26074,0.46069-3.45905c-0.43878-1.43304-1.66388-2.54883-3.12115-2.84277
		c-0.28802-0.05811-0.57983-0.08752-0.86737-0.08752c-1.25842,0-2.43756,0.5589-3.23511,1.53333
		c-0.79755,0.97437-1.1095,2.25464-0.85583,3.51251c0.29401,1.45728,1.40979,2.68237,2.84259,3.12109
		c0.41333,0.12622,0.83325,0.19019,1.24829,0.19019c0.77838,0,1.53766-0.22418,2.21088-0.65051l0.19702,0.19678v0.00006
		l0.06561,0.06787l1.05566,1.05322l1.67712,1.67773c0.17639,0.17596,0.41028,0.27271,0.65881,0.27271
		s0.48242-0.09674,0.65851-0.2724C23.94897,23.22235,23.94897,22.63159,23.58588,22.26849z M17.06213,19.44702
		c-1.31525,0-2.38525-1.07007-2.38525-2.38525c0-1.31531,1.07001-2.38531,2.38525-2.38531s2.38531,1.07001,2.38531,2.38531
		C19.44745,18.37695,18.37738,19.44702,17.06213,19.44702z"/>
</g>
</svg>
