<?xml version="1.0" encoding="UTF-8"?><svg width="576" height="576" version="1.1" viewBox="0 0 576 576" xmlns="http://www.w3.org/2000/svg" xmlns:xlink="http://www.w3.org/1999/xlink"><!--Generated by IJSVG (https://github.com/curthard89/IJSVG)--><g transform="scale(24)"><g fill="none"><g fill="#6F6F6F"><path d="M3.68744,5.6737h7.00079l-1.8736,1.88159c-0.38831,0.38831 -0.38727,1.01819 0.00104,1.40643c0.38928,0.38934 1.02014,0.38934 1.40942,0l3.68829,-3.68829c0.32941,-0.32941 0.32941,-0.86542 0,-1.1958l-3.68829,-3.68835c-0.38928,-0.38928 -1.02014,-0.38928 -1.40942,0c-0.38831,0.38831 -0.38934,1.01819 -0.00104,1.40747l1.8736,1.88062h-7.00079c-0.00323,-6e-05 -0.00586,-0.00183 -0.00909,-0.00183h-2.67835c-0.55231,0 -1,0.44769 -1,1c0,0.55231 0.44769,1 1,1h2.67834c0.00324,-1.77636e-15 0.00586,-0.00177 0.0091,-0.00184Z" transform="translate(1.99512, 7.34894)"></path><path d="M15.971,0h-13.9746c-1.10803,0 -1.9964,0.89838 -1.9964,1.9964v3.99274h1.9964v-3.99274h13.9746v13.9746h-13.9746v-3.99274h-1.9964v3.99274c0,1.10205 0.89435,1.9964 1.9964,1.9964h13.9746c1.09802,0 1.9964,-0.89838 1.9964,-1.9964v-13.9746c0,-1.09802 -0.89838,-1.9964 -1.9964,-1.9964Z" transform="translate(3.03088, 3.04077)"></path></g><path d="M0,0h24v24h-24Z"></path></g></g></svg>