<?xml version="1.0" encoding="UTF-8"?><svg width="576" height="576" version="1.1" viewBox="0 0 576 576" xmlns="http://www.w3.org/2000/svg" xmlns:xlink="http://www.w3.org/1999/xlink"><!--Generated by IJSVG (https://github.com/curthard89/IJSVG)--><g transform="scale(24)"><g fill="none"><g fill="none"><path d="M0,16h10v-16h-10v16Zm7.25,-14.1431h1.5v8.14307h-1.5v-8.14307Zm-3,0h1.5v8.14307h-1.5v-8.14307Zm-3,0h1.5v8.14307h-1.5v-8.14307Zm0,10.1431h1h1h3v2h-3h-1h-1v-2Z" transform="translate(7, 4)"></path><path fill="#6F6F6F" d="M12,0h-10c-1.09998,0 -2,0.90002 -2,2v16c0,1.09998 0.90002,2 2,2h10c1.09998,0 2,-0.90002 2,-2v-16c0,-1.09998 -0.90002,-2 -2,-2Zm0,18h-10v-16h10v16Z" transform="translate(5, 2)"></path><use fill="#6F6F6F" transform="translate(11.25, 5.85693)" xlink:href="#path-1"></use><use fill="#6F6F6F" transform="translate(14.25, 5.85693)" xlink:href="#path-1"></use><use fill="#6F6F6F" transform="translate(8.25, 5.85693)" xlink:href="#path-1"></use><path fill="#6F6F6F" d="M2,2h3v-2h-3h-1h-1v2h1Z" transform="translate(8.25, 16)"></path></g><path d="M0,0h24v24h-24Z"></path></g></g><defs><path id="path-1" d="M0,0h1.5v8.14307h-1.5Z"></path></defs></svg>