<?xml version="1.0" encoding="UTF-8"?><svg width="576" height="576" version="1.1" viewBox="0 0 576 576" xmlns="http://www.w3.org/2000/svg" xmlns:xlink="http://www.w3.org/1999/xlink"><!--Generated by IJSVG (https://github.com/curthard89/IJSVG)--><g transform="scale(24)"><g fill="#6F6F6F"><path d="M8.45434,15.1332c-4.17285,0 -6.72589,-1.29376 -6.72589,-1.99719v-2.29053v-0.14758c0.04486,0.02521 0.09155,0.0495 0.13824,0.07379c0.68011,0.36432 1.51239,0.65295 2.43628,0.86597c1.27515,0.29425 2.71375,0.44745 4.15137,0.44745c0.96088,0 1.91785,-0.07446 2.83044,-0.2077c-0.07446,-0.53516 -0.11188,-1.0976 -0.11859,-1.68042c-0.80475,0.12518 -1.70343,0.20758 -2.71185,0.20758c-1.66278,0 -3.06213,-0.2074 -4.15137,-0.49884c-1.64502,-0.44 -2.57452,-1.07526 -2.57452,-1.49841v-2.29054v-0.14856c0.04486,0.02527 0.09155,0.04956 0.13824,0.07477c0.68011,0.3634 1.51239,0.65204 2.43628,0.86597c1.27423,0.29425 2.71375,0.44745 4.15137,0.44745c1.00104,0 1.99921,-0.07886 2.94556,-0.22333c0.10168,-0.62952 0.23444,-1.21344 0.383,-1.76794c-0.94287,0.18738 -2.05762,0.30981 -3.32855,0.30981c-1.66278,0 -3.06213,-0.2074 -4.15137,-0.49884c-1.64503,-0.43909 -2.57453,-1.07526 -2.57453,-1.49841c0,-0.70435 2.55304,-1.99628 6.72589,-1.99628c1.84344,0 3.3692,0.25244 4.49994,0.59467c0.2865,-0.56427 0.58063,-1.06085 0.86591,-1.48572c-1.52521,-0.52124 -3.44824,-0.79041 -5.36584,-0.79041c-3.68799,0 -8.33685,1.11969 -8.40735,3.33136c-0.047,1.47443 -0.047,4.74268 -4.44089e-16,9.80469c0,0.28302 0.06256,0.54926 0.17279,0.8006c0.823,1.89166 4.54657,2.87811 8.23456,2.87811c1.48999,0 2.98236,-0.16376 4.29034,-0.48035c-0.25592,-0.47693 -0.49744,-0.99799 -0.71338,-1.56067c-0.99323,0.2157 -2.19373,0.3595 -3.57697,0.3595Z" transform="translate(2.27363, 2.57147)"></path><path d="M3.86268,1.08362c-0.22662,-0.37299 -0.4549,-1.034 -0.4549,-1.034c-0.00525,-0.0155 -0.0108,-0.03522 -0.01648,-0.04962c-0.01422,0.22668 -0.03241,0.37158 -0.10681,0.53381c-0.04724,0.10303 -0.1123,0.21149 -0.22888,0.35754c-0.14032,0.12866 -0.45709,0.4361 -0.83466,0.92963c-0.31543,0.41235 -0.67249,0.95642 -1.00818,1.64142c-0.27905,0.56958 -0.53998,1.23828 -0.74921,2.00659c-0.23431,0.86029 -0.40369,1.84314 -0.44934,2.96503c-0.00226,0.05481 0.00146,0.1059 0.00018,0.16016c-0.0144,0.60144 0.02844,1.16742 0.11279,1.70032c0.16504,1.04224 0.48755,1.95068 0.86841,2.71564c0.28058,0.56354 0.58789,1.05042 0.88452,1.45422c0.58496,0.79639 1.11835,1.27856 1.27039,1.40839c0.28259,0.77393 0.25427,2.09674 0.25427,2.09674l0.41394,0.16101c0,0 -0.08411,-1.28455 0.03314,-1.90552c0.03552,-0.18787 0.11719,-0.35217 0.21356,-0.49023c0.0639,-0.05231 0.25293,-0.21332 0.50525,-0.48462c0.98901,-1.07074 2.85803,-3.72083 2.22546,-8.05969c-0.81156,-4.19929 -2.72752,-5.57978 -2.93345,-6.10682Z" transform="translate(14.8513, 3.88617)"></path><path fill="none" d="M0,0h24v24h-24Z"></path></g></g></svg>