<?xml version="1.0" encoding="UTF-8"?>
<svg width="24px" height="24px" viewBox="0 0 24 24" version="1.1" xmlns="http://www.w3.org/2000/svg" xmlns:xlink="http://www.w3.org/1999/xlink">
    <!-- Generator: Sketch 47.1 (45422) - http://www.bohemiancoding.com/sketch -->
    <title>fullscreen exit</title>
    <desc>Created with Sketch.</desc>
    <defs></defs>
    <g id="navigation" stroke="none" stroke-width="1" fill="none" fill-rule="evenodd">
        <g id="fullscreen-exit">
            <rect id="Rectangle-12" x="0" y="0" width="24" height="24"></rect>
            <g id="ic_menu_black_24px">
                <polygon id="Shape" points="0 0 24 0 24 24 0 24"></polygon>
            </g>
            <g id="full-screen@4x">
                <g id="fullscreen-exit">
                    <polygon id="Shape" points="0 0 24 0 24 24 0 24"></polygon>
                </g>
                <g id="maximize_template" transform="translate(5.000000, 5.000000)" fill-rule="nonzero" fill="#585D63">
                    <path d="M2,9 L0,9 L0,14 L5,14 L5,12 L2,12 L2,9 Z M0,5 L2,5 L2,2 L5,2 L5,0 L0,0 L0,5 Z M12,12 L9,12 L9,14 L14,14 L14,9 L12,9 L12,12 Z M9,0 L9,2 L12,2 L12,5 L14,5 L14,0 L9,0 Z" id="Shape"></path>
                </g>
                <rect id="Rectangle-12" x="0" y="0" width="24" height="24"></rect>
            </g>
        </g>
    </g>
</svg>
