<?xml version="1.0" encoding="UTF-8"?><svg width="576" height="576" version="1.1" viewBox="0 0 576 576" xmlns="http://www.w3.org/2000/svg" xmlns:xlink="http://www.w3.org/1999/xlink"><!--Generated by IJSVG (https://github.com/curthard89/IJSVG)--><g transform="scale(24)"><g fill="none"><g transform="translate(2.21582, 1.67969)"></g><g fill="none"><path d="M0,0.2854l6e-05,6e-05v-0.28516l-6e-05,-0.0003Z" transform="translate(23.0566, 14.9255)"></path><path fill="#6F6F6F" d="M0.94501,0c-0.52197,0 -0.94501,0.42303 -0.94501,0.94501c0,0.521 0.42303,0.94501 0.94501,0.94501h5.23499l0.00195,-1.89001h-5.23694Z" transform="translate(2.21551, 17.7897)"></path><path fill="#6F6F6F" d="M1.41602,5.66699h14.167c0.77899,0 1.41699,-0.638 1.41699,-1.41699v-2.83301c0,-0.77899 -0.638,-1.41699 -1.41699,-1.41699h-14.167c-0.77899,0 -1.41602,0.638 -1.41602,1.41699v2.83301c0,0.77899 0.63702,1.41699 1.41602,1.41699Zm0.47198,-3.77802h13.223v1.88904h-13.223v-1.88904Z" transform="translate(2.21582, 2.67969)"></path><path fill="#6F6F6F" d="M6.34851,3.77698h-4.46051v-1.88898l15.112,-0.01978v-0.45123c0,-0.77997 -0.638,-1.41699 -1.41699,-1.41699h-14.167c-0.77899,0 -1.41602,0.63702 -1.41602,1.41699v2.83301c0,0.77899 0.63702,1.41699 1.41602,1.41699h4.76758l0.00098,-0.97748c-1e-05,-0.3211 0.06512,-0.62469 0.16393,-0.91253Z" transform="translate(2.21582, 10.2353)"></path><path fill="#0076FF" d="M13.1627,1.32172c0,-0.00952 -0.00525,-0.01746 -0.00543,-0.02692c-0.01526,-0.71393 -0.59637,-1.2948 -1.31085,-1.2948h-2.52448h-1.88898h-6.11664c-0.37073,0 -0.70178,0.15881 -0.93994,0.40863c-0.22687,0.23804 -0.36975,0.55841 -0.36975,0.91309l-0.00031,0.28149l-0.00067,0.66724l-0.00244,2.27496l-0.00317,2.99506c0,0.01526 0.00824,0.02795 0.00873,0.04309c0.02423,0.70599 0.59882,1.27863 1.30756,1.27863h10.53h6e-05c0.00507,0 0.00928,-0.00287 0.01434,-0.00293c0.71704,-0.0083 1.30194,-0.59698 1.30194,-1.31879v-5.27393v-0.6593v-0.2854v-0.00012Zm-1.31628,1.32166l-5.26501,3.30426l-5.26508,-3.30426v-1.32166l5.26508,3.3042l5.26501,-3.3042v1.32166Z" transform="translate(9.89392, 13.6036)"></path></g><path d="M0,0h24v24h-24Z"></path></g></g></svg>