<?xml version="1.0" encoding="UTF-8"?><svg width="576" height="576" version="1.1" viewBox="0 0 576 576" xmlns="http://www.w3.org/2000/svg" xmlns:xlink="http://www.w3.org/1999/xlink"><!--Generated by IJSVG (https://github.com/curthard89/IJSVG)--><g transform="scale(24)"><g fill="none" fill-rule="evenodd" stroke="none" stroke-width="1"><path d="M0,0h24v24h-24Z"></path><g stroke="none" stroke-width="1"><path fill="none" fill-rule="evenodd" d="M0,0v24h24v-24h-24Zm12,22c-5.5,0 -10,-4.5 -10,-10c0,-5.5 4.5,-10 10,-10c5.5,0 10,4.5 10,10c0,5.5 -4.5,10 -10,10Z" transform="translate(0.2, 0)"></path><path fill="#6F6F6F" d="M10,0c-5.5,0 -10,4.5 -10,10c0,5.5 4.5,10 10,10c5.5,0 10,-4.5 10,-10c0,-5.5 -4.5,-10 -10,-10Zm5.6,13.6h-2v-4.1v-0.7c0,-0.2 -0.1,-0.4 -0.2,-0.6c-0.1,-0.2 -0.2,-0.3 -0.4,-0.4c-0.2,-0.1 -0.4,-0.1 -0.7,-0.1c-0.3,0 -0.5,0.1 -0.7,0.2c-0.2,0.1 -0.3,0.2 -0.4,0.4c-0.1,0.2 -0.2,0.4 -0.2,0.6v0.7v4h-2v-4.1v-0.6c0,-0.2 0,-0.4 -0.1,-0.6c-0.1,-0.2 -0.2,-0.3 -0.3,-0.4c-0.2,-0.1 -0.4,-0.2 -0.7,-0.2c-0.1,0 -0.2,0 -0.4,0.1c-0.2,0.1 -0.3,0.1 -0.4,0.2c-0.1,0.1 -0.3,0.3 -0.4,0.5c-0.1,0.2 -0.2,0.5 -0.2,0.9v4.2h-2v-7.3h1.9v1v0c0.3,-0.4 0.6,-0.7 0.9,-0.9c0.4,-0.2 0.8,-0.3 1.3,-0.3c0.5,0 0.9,0.1 1.3,0.3c0.4,0.2 0.7,0.5 0.9,0.9c0.2,-0.3 0.5,-0.6 0.9,-0.8c0.4,-0.2 0.8,-0.4 1.3,-0.4c0.4,0 0.7,0 1.1,0.1c0.3,0.1 0.6,0.2 0.8,0.4c0.2,0.2 0.4,0.5 0.5,0.8c0.1,0.3 0.2,0.7 0.2,1.2v5v0Z" transform="translate(2.2, 2)"></path></g></g></g></svg>