<?xml version="1.0" encoding="UTF-8"?><svg width="576" height="576" version="1.1" viewBox="0 0 576 576" xmlns="http://www.w3.org/2000/svg" xmlns:xlink="http://www.w3.org/1999/xlink"><!--Generated by IJSVG (https://github.com/curthard89/IJSVG)--><g transform="scale(24)"><g fill="none"><path d="M0,0h24v24h-24Z"></path><g transform="translate(3, 3)"><g fill="#6F6F6F"><g fill="#6F6F6F"><path d="M16.275,0h-14.55c-0.953,0 -1.72498,0.77197 -1.72498,1.72498v14.5501c1e-05,0.953 0.77198,1.72497 1.72498,1.72497h14.55c0.95203,0 1.72504,-0.77197 1.72504,-1.72498v-14.55c7.10543e-15,-0.95301 -0.77301,-1.72498 -1.72504,-1.72498Zm-0.27496,16h-14v-14h14v14Z" transform="translate(0.00042, 0)"></path></g><path d="M3.614,4.076l-0.336,1.653h1.597l0.336,-1.653h-1.597Zm-3.054,0v-1.373h1.933l0.561,-2.703h1.4l-0.56,2.703h1.597l0.546,-2.703h1.401l-0.546,2.703h1.597v1.373h-1.878l-0.336,1.653h1.653v1.373h-1.932l-0.561,2.703h-1.401l0.56,-2.703h-1.596l-0.547,2.703h-1.4l0.546,-2.703h-1.597v-1.373h1.877l0.336,-1.653h-1.653Z" transform="translate(4.8479, 3.9196)"></path></g></g></g></g></svg>