<?xml version="1.0" encoding="utf-8"?>
<!-- Generator: Adobe Illustrator 19.1.0, SVG Export Plug-In . SVG Version: 6.00 Build 0)  -->
<!DOCTYPE svg PUBLIC "-//W3C//DTD SVG 1.1//EN" "http://www.w3.org/Graphics/SVG/1.1/DTD/svg11.dtd">
<svg version="1.1" id="Layer_1" xmlns="http://www.w3.org/2000/svg" xmlns:xlink="http://www.w3.org/1999/xlink" x="0px" y="0px"
	 width="34px" height="24px" viewBox="5 0 34 24" style="enable-background:new 5 0 34 24;" xml:space="preserve">
<style type="text/css">
	.st0{fill:#6F6F6F;}
</style>
<path class="st0" d="M28,11l4,4l4-4H28z"/>
<polygon class="st0" points="24,8 24,5 6,5 6,8 9,8 9,12 9,13 9,18 9,19 10,19 14,19 14,20 24,20 24,17 14,17 14,18 10,18 10,13 
	14,13 14,14 24,14 24,11 14,11 14,12 10,12 10,8 "/>
</svg>
