<?xml version="1.0" encoding="UTF-8"?><svg width="576" height="576" version="1.1" viewBox="0 0 576 576" xmlns="http://www.w3.org/2000/svg" xmlns:xlink="http://www.w3.org/1999/xlink"><!--Generated by IJSVG (https://github.com/curthard89/IJSVG)--><g transform="scale(24)"><g fill="none"><g fill="#6F6F6F"><path d="M4.3,17.1h-2.5v-15.2h7.3v8.2h1.8v-8.5c0,-0.9 -0.6,-1.6 -1.4,-1.6h-8.1c-0.8,0 -1.4,0.7 -1.4,1.6v15.8c0,0.9 0.6,1.6 1.4,1.6h2.9c0,0 0,0 0,0v-1.9Z" transform="translate(7, 2)"></path><path d="M0,0h3v1h-3Z" transform="translate(10.9, 5.1)"></path><path fill="#FF3B30" d="M7,0h-2.4h-1.8h-1.8c-0.5,0 -1,0.4 -1,1v4.1v1.9c0,0 0,0 0,0c0,0.5 0.4,1 1,1h6c0.5,0 1,-0.4 1,-1v-6c-0.1,-0.5 -0.5,-1 -1,-1Z" transform="translate(13.3, 14)"></path></g><path d="M0,0h24v24h-24Z"></path></g></g></svg>