<?xml version="1.0" encoding="utf-8"?>
<!-- Generator: Adobe Illustrator 22.0.1, SVG Export Plug-In . SVG Version: 6.00 Build 0)  -->
<svg version="1.1" id="Layer_1" xmlns="http://www.w3.org/2000/svg" xmlns:xlink="http://www.w3.org/1999/xlink" x="0px" y="0px"
	 viewBox="0 0 24 24" style="enable-background:new 0 0 24 24;" xml:space="preserve">
<style type="text/css">
	.st0{fill:#585D63;}
	.st1{fill:none;}
</style>
<title>view mobile</title>
<desc>Created with Sketch.</desc>
<rect x="10.9" y="5.1" class="st0" width="3" height="1"/>
<g>
	<polygon class="st1" points="8.79999,3.90002 8.79999,10.90002 8.79999,19.09998 11.29999,19.09998 16.09998,19.09998 
		16.09998,12.09998 16.09998,3.90002 13.59998,3.90002 	"/>
	<path class="st0" d="M16.5,2h-2.90002H8.40002C7.59998,2,7,2.70001,7,3.59998v7.30005v8.5C7,20.29999,7.59998,21,8.40002,21
		h2.89996H16.5c0.79999,0,1.40002-0.70001,1.40002-1.59998v-7.30005v-8.5C17.90002,2.70001,17.29999,2,16.5,2z M16.09998,12.09998v7
		h-4.79999h-2.5v-8.19995v-7h4.79999h2.5V12.09998z"/>
</g>
<rect class="st1" width="24" height="24"/>
</svg>
