<?xml version="1.0" encoding="UTF-8"?><svg width="576" height="576" version="1.1" viewBox="0 0 576 576" xmlns="http://www.w3.org/2000/svg" xmlns:xlink="http://www.w3.org/1999/xlink"><!--Generated by IJSVG (https://github.com/curthard89/IJSVG)--><g transform="scale(24)"><g fill="none"><g fill="#6F6F6F"><path d="M1.8,17.1v-15.2h7.3v7.3c0.3,-0.1 0.6,-0.1 0.9,-0.1c0.3,0 0.6,0 0.9,0.1v-7.6c0,-0.9 -0.6,-1.6 -1.4,-1.6h-8.1c-0.8,0 -1.4,0.7 -1.4,1.6v15.8c0,0.9 0.6,1.6 1.4,1.6h3.2c-0.4,-0.6 -0.6,-1.2 -0.8,-1.9h-2Z" transform="translate(7, 2)"></path><path d="M0,0h3v1h-3Z" transform="translate(10.9, 5.1)"></path><path fill="#8C8C8C" d="M5.3,0.1c-0.3,-0.1 -0.6,-0.1 -0.9,-0.1c-0.3,0 -0.6,0 -0.9,0.1c-2,0.4 -3.5,2.2 -3.5,4.3c0,0.5 0.1,1 0.3,1.5c0.3,0.8 0.8,1.4 1.4,1.9c0.8,0.6 1.7,1 2.8,1c2.4,0 4.4,-2 4.4,-4.4c-0.1,-2.1 -1.6,-3.8 -3.6,-4.3Z" transform="translate(12.6, 13.1)"></path></g><path d="M0,0h24v24h-24Z"></path></g></g></svg>