<?xml version="1.0" encoding="UTF-8"?><svg width="576" height="576" version="1.1" viewBox="0 0 576 576" xmlns="http://www.w3.org/2000/svg" xmlns:xlink="http://www.w3.org/1999/xlink"><!--Generated by IJSVG (https://github.com/curthard89/IJSVG)--><g transform="scale(24)"><g fill="#6F6F6F"><path d="M1.79999,1.90002h7.29999v9.09998h1.80005v-9.40002c-1e-05,-0.89997 -0.60004,-1.59998 -1.40003,-1.59998h-8.09998c-0.80004,0 -1.40002,0.70001 -1.40002,1.59998v15.8001c0,0.89996 0.59998,1.59997 1.40002,1.59997h2.59998v-1.90002h-2.20001v-15.2Z" transform="translate(7, 2)"></path><path d="M0,0h3v1h-3Z" transform="translate(10.9, 5.09998)"></path><path fill="#FFFFFF" d="M0.33484,0c-0.11157,0.00073 -0.22321,0.00153 -0.33484,0.01135l0.16211,0.17566l0.17273,-0.18701Z" transform="translate(16.5376, 17.1083)"></path><path d="M4.66082,3.66992l1.76398,-1.91101c0.35162,-0.38092 0.35162,-0.99707 0,-1.37799c-0.35156,-0.38092 -0.92157,-0.38092 -1.27319,0l-0.56366,0.61023l-1.02759,1.11243l-0.17273,0.18701l-0.16211,-0.17566l-0.43762,-0.47406l-1.16309,-1.25995c-0.35156,-0.38092 -0.92157,-0.38092 -1.27319,0c-0.35162,0.38092 -0.35162,0.99707 0,1.37799l1.76398,1.91101l-0.39258,0.42529l-1.3714,1.48572c-0.10993,0.11908 -0.17316,0.26361 -0.21436,0.41431c-0.09058,0.33136 -0.02734,0.70184 0.21436,0.96368c0.17639,0.1911 0.4068,0.28601 0.63599,0.28601c0.23041,0 0.46082,-0.09491 0.63721,-0.28601l0.88952,-0.96368l0.87329,-0.94604l0.87384,0.94604l0.89014,0.96368c0.17639,0.1911 0.40564,0.28601 0.63605,0.28601c0.23157,0 0.46075,-0.09491 0.63715,-0.28601c0.35162,-0.38092 0.35162,-0.99713 0,-1.37799l-1.76399,-1.91101Z" transform="translate(13.3121, 15.0048)"></path></g></g></svg>