<?xml version="1.0" encoding="UTF-8"?><svg width="576" height="576" version="1.1" viewBox="0 0 576 576" xmlns="http://www.w3.org/2000/svg" xmlns:xlink="http://www.w3.org/1999/xlink"><!--Generated by IJSVG (https://github.com/curthard89/IJSVG)--><g transform="scale(24)"><g fill="none"><g fill="none"><path d="M6.43298,0.93103c-2.758,0.51996 -4.98199,2.74396 -5.50201,5.50195c-0.93097,4.93604 3.30298,9.17102 8.23999,8.23902c2.758,-0.52002 4.98102,-2.74298 5.50104,-5.50098c0.93194,-4.93701 -3.30304,-9.17102 -8.23902,-8.23999Zm4.79767,7.69226h-2.60742v2.60742c0,0.45312 -0.36816,0.82129 -0.82129,0.82129c-0.45264,0 -0.82129,-0.36816 -0.82129,-0.82129v-2.60742h-2.60742c-0.45264,0 -0.82129,-0.36817 -0.82129,-0.82129c0,-0.45312 0.36865,-0.82129 0.82129,-0.82129h2.60742v-2.60742c1.77636e-15,-0.45264 0.36865,-0.82129 0.82129,-0.82129c0.45312,0 0.82129,0.36865 0.82129,0.82129v2.60742h2.60742c0.45312,0 0.82129,0.36816 0.82129,0.82129c0,0.45313 -0.36816,0.82129 -0.82129,0.82129Z" transform="translate(4.19806, 5.198)"></path><path fill="#6F6F6F" d="M16.157,3.39099l0.75,-0.75c0.38501,-0.38501 0.38898,-1.01202 0.005,-1.39801c-0.005,-0.005 -0.00897,-0.01001 -0.01398,-0.01501c-0.38501,-0.38696 -1.01404,-0.38397 -1.401,0.00201l-0.75,0.75098c-1.55004,-1.23999 -3.49902,-1.97998 -5.61901,-1.97998c-4.80402,-0.00098 -8.875,3.96002 -8.99799,8.76398c-0.13,5.078 3.93799,9.23602 8.99701,9.23602c4.97998,0 9,-4.03003 9,-9c3.55271e-15,-2.12 -0.74005,-4.07001 -1.97003,-5.60999Zm-0.15997,6.97901c-0.52002,2.758 -2.74304,4.98096 -5.50104,5.50098c-4.93701,0.93201 -9.17096,-3.30298 -8.23999,-8.23901c0.52002,-2.758 2.74402,-4.98199 5.50201,-5.50195c4.93598,-0.93104 9.17096,3.30297 8.23902,8.23998Z" transform="translate(2.87305, 3.99902)"></path><path fill="#6F6F6F" d="M1,2h4c0.55298,0 1,-0.448 1,-1c0,-0.552 -0.44702,-1 -1,-1h-4c-0.552,0 -1,0.448 -1,1c0,0.552 0.448,1 1,1Z" transform="translate(9.00006, 1)"></path><path fill="#6F6F6F" d="M7.67871,3.42871h-2.60742v-2.60742c-1.77636e-15,-0.45264 -0.36817,-0.82129 -0.82129,-0.82129c-0.45264,0 -0.82129,0.36865 -0.82129,0.82129v2.60742h-2.60742c-0.45264,1.77636e-15 -0.82129,0.36817 -0.82129,0.82129c0,0.45312 0.36865,0.82129 0.82129,0.82129h2.60742v2.60742c0,0.45312 0.36865,0.82129 0.82129,0.82129c0.45312,0 0.82129,-0.36816 0.82129,-0.82129v-2.60742h2.60742c0.45312,0 0.82129,-0.36816 0.82129,-0.82129c0,-0.45313 -0.36816,-0.82129 -0.82129,-0.82129Z" transform="translate(7.75, 8.75)"></path></g><path d="M0,0h24v24h-24Z"></path></g></g></svg>