<?xml version="1.0" encoding="utf-8"?>
<!-- Generator: Adobe Illustrator 22.1.0, SVG Export Plug-In . SVG Version: 6.00 Build 0)  -->
<svg version="1.1" id="Layer_1" xmlns="http://www.w3.org/2000/svg" xmlns:xlink="http://www.w3.org/1999/xlink" x="0px" y="0px"
	 viewBox="0 0 34 24" style="enable-background:new 0 0 34 24;" xml:space="preserve">
<style type="text/css">
	.st0{fill:#585D63;}
	.st1{fill:none;}
</style>
<path class="st0" d="M22.04156,11.08348l3.9791,3.97902L30,11.08348H22.04156z"/>
<rect x="10.02501" y="5.6" class="st0" width="3" height="1"/>
<g>
	<polygon class="st1" points="7.925,4.40002 7.925,11.40002 7.925,19.59998 10.425,19.59998 15.22499,19.59998 15.22499,12.59998 
		15.22499,4.40002 12.72499,4.40002 	"/>
	<path class="st0" d="M15.62501,2.5h-2.90002H7.52503c-0.80004,0-1.40002,0.70001-1.40002,1.59998v7.30005v8.5
		c0,0.89996,0.59998,1.59997,1.40002,1.59997h2.89996h5.20002c0.79999,0,1.40002-0.70001,1.40002-1.59998v-7.30005v-8.5
		C17.02503,3.20001,16.425,2.5,15.62501,2.5z M15.22499,12.59998v7H10.425h-2.5v-8.19995v-7h4.79999h2.5V12.59998z"/>
</g>
</svg>
