<?xml version="1.0" encoding="UTF-8"?><svg width="576" height="576" version="1.1" viewBox="0 0 576 576" xmlns="http://www.w3.org/2000/svg" xmlns:xlink="http://www.w3.org/1999/xlink"><!--Generated by IJSVG (https://github.com/curthard89/IJSVG)--><g transform="scale(24)"><g fill="none" fill-rule="evenodd" stroke="none" stroke-width="1"><path d="M0,0h24v24h-24Z"></path><g transform="translate(2, 4)"><path fill="#6F6F6F" fill-rule="evenodd" stroke="none" stroke-width="1" d="M18.3278,0h-12.6556c-0.91968,0 -1.67218,0.75244 -1.67218,1.67218v5.84882h3.22705l1.41602,-4.73584c0.09277,-0.30908 0.37207,-0.52441 0.69482,-0.53467c0.32764,-0.01855 0.61572,0.1875 0.72705,0.48926l3.02295,8.16455l0.53027,-1.38184l0.9082,-2.0874c0.11914,-0.27393 0.38867,-0.45068 0.6875,-0.45068h2.78614c0.41406,0 0.75,0.33594 0.75,0.75c0,0.41406 -0.33594,0.75 -0.75,0.75h-2.29492l-0.69922,1.60645l-1.22949,3.20898c-0.11133,0.29004 -0.38965,0.48145 -0.7002,0.48145h-0.00391c-0.3125,-0.00195 -0.59082,-0.19727 -0.69922,-0.48926l-2.93554,-7.92774l-0.93311,3.12158c-0.09521,0.31738 -0.38721,0.53467 -0.71875,0.53467h-3.78564v0.00128h-4v1.97821h4v3.27258c0,0.91968 0.7525,1.67218 1.67218,1.67218h12.6556c0.91968,0 1.67218,-0.7525 1.67218,-1.67218v-12.6004c0,-0.91974 -0.7525,-1.67218 -1.67218,-1.67218v0Z"></path></g></g></g></svg>