<?xml version="1.0" encoding="UTF-8"?>
<svg width="24px" height="24px" viewBox="0 0 24 24" version="1.1" xmlns="http://www.w3.org/2000/svg" xmlns:xlink="http://www.w3.org/1999/xlink">
    <!-- Generator: Sketch 47.1 (45422) - http://www.bohemiancoding.com/sketch -->
    <title>monitoring status@4x</title>
    <desc>Created with Sketch.</desc>
    <defs></defs>
    <g id="objects" stroke="none" stroke-width="1" fill="none" fill-rule="evenodd">
        <g id="monitoring-status">
            <rect id="Rectangle-12" x="0" y="0" width="24" height="24"></rect>
            <g id="monitoring_status">
                <g id="Group">
                    <g id="Layer_4" transform="translate(2.000000, 4.000000)" fill="#585D63">
                        <path d="M18.32782,0 L5.67218,0 C4.7525,0 4,0.75244 4,1.67218 L4,7.521 L7.22705,7.521 L8.64307,2.78516 C8.73584,2.47608 9.01514,2.26075 9.33789,2.25049 C9.66553,2.23194 9.95361,2.43799 10.06494,2.73975 L13.08789,10.9043 L13.61816,9.52246 L14.52636,7.43506 C14.6455,7.16113 14.91503,6.98438 15.21386,6.98438 L18,6.98438 C18.41406,6.98438 18.75,7.32032 18.75,7.73438 C18.75,8.14844 18.41406,8.48438 18,8.48438 L15.70508,8.48438 L15.00586,10.09083 L13.77637,13.29981 C13.66504,13.58985 13.38672,13.78126 13.07617,13.78126 L13.07226,13.78126 C12.75976,13.77931 12.48144,13.58399 12.37304,13.292 L9.4375,5.36426 L8.50439,8.48584 C8.40918,8.80322 8.11718,9.02051 7.78564,9.02051 L4,9.02051 L4,9.02179 L0,9.02179 L0,11 L4,11 L4,14.27258 C4,15.19226 4.7525,15.94476 5.67218,15.94476 L18.32782,15.94476 C19.2475,15.94476 20,15.19226 20,14.27258 L20,1.67218 C20,0.75244 19.2475,0 18.32782,0 L18.32782,0 Z" id="Shape"></path>
                    </g>
                    <g id="Layer_5"></g>
                </g>
            </g>
        </g>
    </g>
</svg>
