<?xml version="1.0" encoding="UTF-8"?><svg width="576" height="576" version="1.1" viewBox="0 0 576 576" xmlns="http://www.w3.org/2000/svg" xmlns:xlink="http://www.w3.org/1999/xlink"><!--Generated by IJSVG (https://github.com/curthard89/IJSVG)--><g transform="scale(24)"><g fill="none" fill-rule="evenodd" stroke="none" stroke-width="1"><use xlink:href="#path-1"></use><use fill="none" fill-rule="evenodd" stroke="none" stroke-width="1" xlink:href="#path-1"></use><g fill="none" fill-rule="evenodd" stroke="none" stroke-width="1"><g fill="none" fill-rule="evenodd" stroke="none" stroke-width="1"><use xlink:href="#path-1"></use><g transform="translate(12, 12)"><g transform="rotate(90)"><g fill="#6F6F6F" stroke="none" stroke-width="1" transform="translate(-12, -12)"><path d="M2,0c-1.1,0 -2,0.9 -2,2c0,1.1 0.9,2 2,2c1.1,0 2,-0.9 2,-2c0,-1.1 -0.9,-2 -2,-2Zm12,0c-1.1,0 -2,0.9 -2,2c0,1.1 0.9,2 2,2c1.1,0 2,-0.9 2,-2c0,-1.1 -0.9,-2 -2,-2Zm-6,0c-1.1,0 -2,0.9 -2,2c0,1.1 0.9,2 2,2c1.1,0 2,-0.9 2,-2c0,-1.1 -0.9,-2 -2,-2Z" transform="translate(4, 10)"></path></g></g></g></g><use xlink:href="#path-1"></use></g></g></g><defs><path id="path-1" d="M0,0h24v24h-24Z"></path></defs></svg>