<?xml version="1.0" encoding="UTF-8"?>
<svg width="24px" height="24px" viewBox="0 0 24 24" version="1.1" xmlns="http://www.w3.org/2000/svg" xmlns:xlink="http://www.w3.org/1999/xlink">
    <!-- Generator: Sketch 47.1 (45422) - http://www.bohemiancoding.com/sketch -->
    <title>more horiz</title>
    <desc>Created with Sketch.</desc>
    <defs></defs>
    <g id="navigation" stroke="none" stroke-width="1" fill="none" fill-rule="evenodd">
        <g id="more-horiz">
            <rect id="Rectangle-12" x="0" y="0" width="24" height="24"></rect>
            <g id="ic_menu_black_24px">
                <polygon id="Shape" points="0 0 24 0 24 24 0 24"></polygon>
            </g>
            <g id="more-horiz@4x">
                <g id="Shape">
                    <polygon points="0 0 24 0 24 24 0 24"></polygon>
                    <path d="M6,10 C4.9,10 4,10.9 4,12 C4,13.1 4.9,14 6,14 C7.1,14 8,13.1 8,12 C8,10.9 7.1,10 6,10 Z M18,10 C16.9,10 16,10.9 16,12 C16,13.1 16.9,14 18,14 C19.1,14 20,13.1 20,12 C20,10.9 19.1,10 18,10 Z M12,10 C10.9,10 10,10.9 10,12 C10,13.1 10.9,14 12,14 C13.1,14 14,13.1 14,12 C14,10.9 13.1,10 12,10 Z" fill="#585D63" fill-rule="nonzero"></path>
                </g>
                <rect id="Rectangle-12" x="0" y="0" width="24" height="24"></rect>
            </g>
        </g>
    </g>
</svg>
