<?xml version="1.0" encoding="UTF-8"?><svg width="576" height="576" version="1.1" viewBox="0 0 576 576" xmlns="http://www.w3.org/2000/svg" xmlns:xlink="http://www.w3.org/1999/xlink"><!--Generated by IJSVG (https://github.com/curthard89/IJSVG)--><g transform="scale(24)"><g fill="none" fill-rule="evenodd" stroke="none" stroke-width="1"><path d="M0,0h24v24h-24Z"></path><g transform="translate(3, 3)"><g fill="#FFFFFF" fill-rule="evenodd" stroke="none" stroke-width="1"><g fill="#744EC8" fill-rule="evenodd" stroke="none" stroke-width="1"><path mask="url(#mask-1)" d="M16.134,18h-14.268c-1.026,0 -1.866,-0.84 -1.866,-1.866v-14.268c0,-1.026 0.84,-1.866 1.866,-1.866h14.268c1.026,0 1.866,0.84 1.866,1.866v14.268c0,1.026 -0.84,1.866 -1.866,1.866" transform="translate(-0.0002, 0)"></path></g><path d="M0,0.833c0,-0.247 0.083,-0.447 0.25,-0.602c0.166,-0.154 0.375,-0.231 0.626,-0.231c0.254,0 0.464,0.077 0.631,0.231c0.166,0.155 0.25,0.355 0.25,0.602c0,0.243 -0.083,0.441 -0.248,0.594c-0.164,0.152 -0.375,0.227 -0.633,0.227c-0.255,0 -0.464,-0.075 -0.629,-0.227c-0.165,-0.153 -0.247,-0.351 -0.247,-0.594" transform="translate(4.1953, 11.3418)"></path><path d="M6.359,7.82h-1.611l-3.137,-5.146v5.146h-1.611v-7.82h1.611l3.142,5.156v-5.156h1.606Z" transform="translate(7.4135, 5.1175)"></path></g></g></g></g><defs><mask id="mask-1" maskContentUnits="userSpaceOnUse" maskUnits="objectBoundingBox"><g fill="#FFFFFF" transform="translate(0.0002, 0)"><path d="M8.9999,0h-8.9999v18h8.9999h8.9999v-18Z"></path></g></mask></defs></svg>