<?xml version="1.0" encoding="utf-8"?>
<!-- Generator: Adobe Illustrator 22.0.1, SVG Export Plug-In . SVG Version: 6.00 Build 0)  -->
<svg version="1.1" id="Layer_1" xmlns="http://www.w3.org/2000/svg" xmlns:xlink="http://www.w3.org/1999/xlink" x="0px" y="0px"
	 viewBox="0 0 24 24" style="enable-background:new 0 0 24 24;" xml:space="preserve">
<style type="text/css">
	.st0{fill:none;}
	.st1{fill:#585D63;}
</style>
<title>network requests</title>
<desc>Created with Sketch.</desc>
<g id="places">
	<g id="network-requests">
		<rect id="Rectangle-12" class="st0" width="24" height="24"/>
		<g id="actions_template">
			<g id="Layer_1_1_">
				<polygon id="Shape" class="st0" points="0,0 24,0 24,24 0,24 				"/>
			</g>
		</g>
		<path id="Combined-Shape" class="st1" d="M19.59929,8.93499l-1.15301,1.13772c-0.34827,0.34365-0.34827,0.90082,0,1.24448
			c0.34827,0.34365,0.91293,0.34365,1.2612,0l2.67542-2.63993c0.34827-0.34365,0.34827-0.90082,0-1.24448l-2.67542-2.63993
			c-0.34827-0.34365-0.91293-0.34365-1.2612,0c-0.34827,0.34365-0.34827,0.90082,0,1.24448l1.15301,1.13772h-4.08963
			c-0.49253,0-0.8918,0.39398-0.8918,0.87998c0,0.486,0.39927,0.87998,0.8918,0.87998H19.59929z"/>
		<path id="Combined-Shape_1_" class="st1" d="M17.66267,15.36005l1.15301-1.13772c0.34827-0.34365,0.34827-0.90082,0-1.24448
			c-0.34827-0.34365-0.91293-0.34365-1.2612,0l-2.67542,2.63993c-0.34827,0.34365-0.34827,0.90082,0,1.24448l2.67542,2.63993
			c0.34827,0.34365,0.91293,0.34365,1.2612,0c0.34827-0.34365,0.34827-0.90082,0-1.24448l-1.15301-1.13772h4.08963
			c0.49253,0,0.89181-0.39398,0.89181-0.87998s-0.39927-0.87998-0.89181-0.87998H17.66267z"/>
	</g>
</g>
<g>
	<path class="st0" d="M3.36249,4.40002v7.89996v7.29999h2h5.29999v-7.89996V4.40002h-2H3.36249z M8.46252,6.59998h-3v-1h3V6.59998z"
		/>
	<path class="st1" d="M11.0625,2.5H7.86249H2.96252C2.16248,2.5,1.5625,3.20001,1.5625,4.09998v8.20001v7.60004
		c0,0.89996,0.59998,1.59998,1.40002,1.59998h3.19995h4.90002c0.79999,0,1.40002-0.70001,1.40002-1.59998v-8.20001V4.09998
		C12.46252,3.20001,11.86249,2.5,11.0625,2.5z M10.66248,11.70001v7.89996H5.36249h-2v-7.29999V4.40002h5.29999h2V11.70001z"/>
	<rect x="5.46252" y="5.59998" class="st1" width="3" height="1"/>
</g>
</svg>
