<?xml version="1.0" encoding="UTF-8"?><svg width="576" height="576" version="1.1" viewBox="0 0 576 576" xmlns="http://www.w3.org/2000/svg" xmlns:xlink="http://www.w3.org/1999/xlink"><!--Generated by IJSVG (https://github.com/curthard89/IJSVG)--><g transform="scale(24)"><g fill="none"><use xlink:href="#path-1"></use><use fill="none" xlink:href="#path-1"></use><path fill="#6F6F6F" d="M4.98143,4.48579l-1.15301,1.13772c-0.34827,0.34365 -0.34827,0.90082 0,1.24448c0.34827,0.34365 0.91293,0.34365 1.2612,0l2.67542,-2.63993c0.34827,-0.34365 0.34827,-0.90082 0,-1.24448l-2.67542,-2.63993c-0.34827,-0.34365 -0.91293,-0.34365 -1.2612,0c-0.34827,0.34365 -0.34827,0.90082 0,1.24448l1.15301,1.13772h-4.08963c-0.49253,0 -0.8918,0.39398 -0.8918,0.87998c0,0.486 0.39927,0.87998 0.8918,0.87998h4.08963Z" transform="translate(14.6179, 4.4492)"></path><path fill="#6F6F6F" d="M3.13188,2.72585l1.15301,-1.13772c0.34827,-0.34365 0.34827,-0.90082 0,-1.24448c-0.34827,-0.34365 -0.91293,-0.34365 -1.2612,0l-2.67542,2.63993c-0.34827,0.34365 -0.34827,0.90082 0,1.24448l2.67542,2.63993c0.34827,0.34365 0.91293,0.34365 1.2612,0c0.34827,-0.34365 0.34827,-0.90082 0,-1.24448l-1.15301,-1.13772h4.08963c0.49253,0 0.89181,-0.39398 0.89181,-0.87998c0,-0.486 -0.39927,-0.87998 -0.89181,-0.87998h-4.08963Z" transform="translate(14.5308, 12.6342)"></path><path d="M0,0v7.89996v7.29999h2h5.29999v-7.89996v-7.29999h-2h-5.29999Zm5.10003,2.19996h-3v-1h3v1Z" transform="translate(3.36249, 4.40002)"></path><path fill="#6F6F6F" d="M9.5,0h-3.20001h-4.89997c-0.80004,0 -1.40002,0.70001 -1.40002,1.59998v8.20001v7.60004c0,0.89996 0.59998,1.59998 1.40002,1.59998h3.19995h4.90002c0.79999,0 1.40002,-0.70001 1.40002,-1.59998v-8.20001v-7.60004c1e-05,-0.89997 -0.60002,-1.59998 -1.40001,-1.59998Zm-0.40002,9.20001v7.89996h-5.29999h-2v-7.29999v-7.89996h5.29999h2v7.29999Z" transform="translate(1.5625, 2.5)"></path><path fill="#6F6F6F" d="M0,0h3v1h-3Z" transform="translate(5.46252, 5.59998)"></path></g></g><defs><path id="path-1" d="M0,0h24v24h-24Z"></path></defs></svg>