<?xml version="1.0" encoding="utf-8"?>
<!-- Generator: Adobe Illustrator 22.0.1, SVG Export Plug-In . SVG Version: 6.00 Build 0)  -->
<svg version="1.1" id="Layer_1" xmlns="http://www.w3.org/2000/svg" xmlns:xlink="http://www.w3.org/1999/xlink" x="0px" y="0px"
	 viewBox="0 0 24 24" style="enable-background:new 0 0 24 24;" xml:space="preserve">
<style type="text/css">
	.st0{fill:none;}
	.st1{fill:#585D63;}
</style>
<title>node@4x</title>
<desc>Created with Sketch.</desc>
<g>
	<path class="st0" d="M0,0v24h24V0H0z M17,20c0,0.82501-0.67499,1.5-1.5,1.5h-7C7.67499,21.5,7,20.82501,7,20V4
		c0-0.82501,0.67499-1.5,1.5-1.5h7C16.32501,2.5,17,3.17499,17,4V20z"/>
	<path class="st1" d="M15.5,2.5h-7C7.67499,2.5,7,3.17499,7,4v16c0,0.82501,0.67499,1.5,1.5,1.5h7c0.82501,0,1.5-0.67499,1.5-1.5V4
		C17,3.17499,16.32501,2.5,15.5,2.5z M15,19.5H9v-15h6V19.5z"/>
	<path class="st1" d="M10.5,8h3c0.414,0,0.75-0.336,0.75-0.75S13.914,6.5,13.5,6.5h-3c-0.414,0-0.75,0.336-0.75,0.75
		S10.086,8,10.5,8z"/>
	<path class="st1" d="M10.5,10.8501h3c0.414,0,0.75-0.336,0.75-0.75s-0.336-0.75-0.75-0.75h-3c-0.414,0-0.75,0.336-0.75,0.75
		S10.086,10.8501,10.5,10.8501z"/>
	<ellipse class="st1" cx="12" cy="16.75" rx="1" ry="0.95001"/>
</g>
</svg>
