<?xml version="1.0" encoding="UTF-8"?><svg width="576" height="576" version="1.1" viewBox="0 0 576 576" xmlns="http://www.w3.org/2000/svg" xmlns:xlink="http://www.w3.org/1999/xlink"><!--Generated by IJSVG (https://github.com/curthard89/IJSVG)--><g transform="scale(24)"><g fill="none"><path d="M0,0v24h24v-24h-24Zm17,20c0,0.82501 -0.67499,1.5 -1.5,1.5h-7c-0.82501,0 -1.5,-0.67499 -1.5,-1.5v-16c0,-0.82501 0.67499,-1.5 1.5,-1.5h7c0.82501,0 1.5,0.67499 1.5,1.5v16Z"></path><path fill="#6F6F6F" d="M8.5,0h-7c-0.82501,0 -1.5,0.67499 -1.5,1.5v16c0,0.82501 0.67499,1.5 1.5,1.5h7c0.82501,0 1.5,-0.67499 1.5,-1.5v-16c0,-0.82501 -0.67499,-1.5 -1.5,-1.5Zm-0.5,17h-6v-15h6v15Z" transform="translate(7, 2.5)"></path><use fill="#6F6F6F" transform="translate(9.75, 6.5)" xlink:href="#path-1"></use><use fill="#6F6F6F" transform="translate(9.75, 9.3501)" xlink:href="#path-1"></use><path fill="#6F6F6F" d="M1.80474,0.371002c0.390524,0.371002 0.390524,0.972515 0,1.34352c-0.390524,0.371002 -1.02369,0.371002 -1.41421,0c-0.390524,-0.371002 -0.390524,-0.972515 0,-1.34352c0.390524,-0.371002 1.02369,-0.371002 1.41421,0" transform="translate(10.9024, 15.7072)"></path></g></g><defs><path id="path-1" d="M0.75,1.5h3c0.414,0 0.75,-0.336 0.75,-0.75c0,-0.414 -0.336,-0.75 -0.75,-0.75h-3c-0.414,0 -0.75,0.336 -0.75,0.75c0,0.414 0.336,0.75 0.75,0.75Z"></path></defs></svg>