<?xml version="1.0" encoding="UTF-8"?><svg width="576" height="576" version="1.1" viewBox="0 0 576 576" xmlns="http://www.w3.org/2000/svg" xmlns:xlink="http://www.w3.org/1999/xlink"><!--Generated by IJSVG (https://github.com/curthard89/IJSVG)--><g transform="scale(24)"><g fill="none" fill-rule="evenodd" stroke="none" stroke-width="1"><path d="M0,0h24v24h-24Z"></path><g transform="translate(3, 3)"><g fill="#FFFFFF" fill-rule="evenodd" stroke="none" stroke-width="1"><g fill="#3E863D" fill-rule="evenodd" stroke="none" stroke-width="1"><path mask="url(#mask-1)" d="M16.134,18h-14.268c-1.026,0 -1.866,-0.84 -1.866,-1.866v-14.268c0,-1.026 0.84,-1.866 1.866,-1.866h14.268c1.026,0 1.866,0.84 1.866,1.866v14.268c0,1.026 -0.84,1.866 -1.866,1.866" transform="translate(-0.0002, 0)"></path></g><path d="M6.35938,7.82031h-1.61133l-3.13672,-5.14551v5.14551h-1.61133v-7.82031h1.61133l3.14209,5.15625v-5.15625h1.60596v7.82031Zm1.06348,-2.95947c0,-0.5765 0.111001,-1.09033 0.333008,-1.5415c0.222006,-0.451174 0.541583,-0.800292 0.95874,-1.04736c0.417157,-0.247072 0.901446,-0.370605 1.45288,-0.370605c0.784184,0 1.42423,0.239906 1.92017,0.719727c0.495933,0.47982 0.772542,1.13151 0.829834,1.95508l0.0107421,0.397461c0,0.891606 -0.248858,1.60685 -0.746582,2.14575c-0.497724,0.538902 -1.16552,0.80835 -2.00342,0.80835c-0.837895,0 -1.50659,-0.268552 -2.0061,-0.805664c-0.499514,-0.537112 -0.749267,-1.26757 -0.749267,-2.19141v-0.0698243Zm1.55225,0.112793c0,0.551435 0.10384,0.973062 0.311524,1.26489c0.207683,0.291831 0.504881,0.437744 0.891601,0.437744c0.375979,0 0.669595,-0.144123 0.880859,-0.432373c0.211264,-0.28825 0.316895,-0.749264 0.316895,-1.38306c0,-0.540693 -0.105631,-0.959634 -0.316895,-1.25684c-0.211264,-0.297202 -0.508462,-0.445801 -0.891602,-0.445801c-0.379559,0 -0.673176,0.147704 -0.880859,0.443115c-0.207683,0.295412 -0.311524,0.752845 -0.311524,1.37231Z" transform="translate(2.70504, 5.22656)"></path></g></g></g></g><defs><mask id="mask-1" maskContentUnits="userSpaceOnUse" maskUnits="objectBoundingBox"><g fill="#FFFFFF" transform="translate(0.0002, 0)"><path d="M0,18v-18h8.9999h8.9999v18Z"></path></g></mask></defs></svg>