<?xml version="1.0" encoding="UTF-8"?>
<svg width="24px" height="24px" viewBox="0 0 24 24" version="1.1" xmlns="http://www.w3.org/2000/svg" xmlns:xlink="http://www.w3.org/1999/xlink">
    <!-- Generator: Sketch 47.1 (45422) - http://www.bohemiancoding.com/sketch -->
    <title>number</title>
    <desc>Created with Sketch.</desc>
    <defs></defs>
    <g id="data-types" stroke="none" stroke-width="1" fill="none" fill-rule="evenodd">
        <g id="number">
            <rect id="Rectangle-12" x="0" y="0" width="24" height="24"></rect>
            <path d="M10.9601838,10.722111 L10.4060549,13.4482271 L13.0398162,13.4482271 L13.5939451,10.722111 L10.9601838,10.722111 Z M5.92354812,10.722111 L5.92354812,8.45776888 L9.11143833,8.45776888 L10.0366356,4 L12.3455059,4 L11.4219578,8.45776888 L14.0557192,8.45776888 L14.9561786,4 L17.2666981,4 L16.3662387,8.45776888 L19,8.45776888 L19,10.722111 L15.9028154,10.722111 L15.3486865,13.4482271 L18.0748027,13.4482271 L18.0748027,15.7125692 L14.8885617,15.7125692 L13.9633644,20.1703381 L11.6528449,20.1703381 L12.576393,15.7125692 L9.94428083,15.7125692 L9.04217222,20.1703381 L6.73330192,20.1703381 L7.63376134,15.7125692 L5,15.7125692 L5,13.4482271 L8.0955354,13.4482271 L8.64966427,10.722111 L5.92354812,10.722111 Z" id="Fill-4" fill="#585D63"></path>
        </g>
    </g>
</svg>
