<?xml version="1.0" encoding="UTF-8"?><svg width="576" height="576" version="1.1" viewBox="0 0 576 576" xmlns="http://www.w3.org/2000/svg" xmlns:xlink="http://www.w3.org/1999/xlink"><!--Generated by IJSVG (https://github.com/curthard89/IJSVG)--><g transform="scale(24)"><g fill="none" fill-rule="evenodd" stroke="none" stroke-width="1"><path d="M0,0h24v24h-24Z"></path><g transform="translate(3, 2)"><g fill="#6F6F6F" stroke="none" stroke-width="1"><path d="M9.7,12.8h-3.3l-1.1,6h-2l1.1,-6h-4.4l0.3,-1.9h4.2l0.7,-3.3h-4.3l0.4,-1.9h4.2l1.1,-5.7h2l-1,5.7h3.4l1,-5.7h2.1l-1.1,5.7h4.7l-0.4,1.9h-4.6l-0.6,3.3h4.6l-0.4,1.9h-4.5l-1.1,6h-2.1l1.1,-6Zm1,-5.2h-3.4l-0.7,3.3h3.4l0.7,-3.3Z" transform="translate(0.1, 0.6)"></path></g></g></g></g></svg>