<?xml version="1.0" encoding="UTF-8"?>
<svg width="24px" height="24px" viewBox="0 0 24 24" version="1.1" xmlns="http://www.w3.org/2000/svg" xmlns:xlink="http://www.w3.org/1999/xlink">
    <!-- Generator: Sketch 47.1 (45422) - http://www.bohemiancoding.com/sketch -->
    <title>numbric widget</title>
    <desc>Created with Sketch.</desc>
    <defs></defs>
    <g id="visualizations" stroke="none" stroke-width="1" fill="none" fill-rule="evenodd">
        <g id="numbric-widget">
            <rect id="Rectangle-12" x="0" y="0" width="24" height="24"></rect>
            <g id="numberWidget_template" transform="translate(3.000000, 2.000000)" fill-rule="nonzero" fill="#585D63">
                <path d="M9.8,13.4 L6.5,13.4 L5.4,19.4 L3.4,19.4 L4.5,13.4 L0.1,13.4 L0.4,11.5 L4.6,11.5 L5.3,8.2 L1,8.2 L1.4,6.3 L5.6,6.3 L6.7,0.6 L8.7,0.6 L7.7,6.3 L11.1,6.3 L12.1,0.6 L14.2,0.6 L13.1,6.3 L17.8,6.3 L17.4,8.2 L12.8,8.2 L12.2,11.5 L16.8,11.5 L16.4,13.4 L11.9,13.4 L10.8,19.4 L8.7,19.4 L9.8,13.4 Z M10.8,8.2 L7.4,8.2 L6.7,11.5 L10.1,11.5 L10.8,8.2 Z" id="Shape"></path>
            </g>
        </g>
    </g>
</svg>
