<?xml version="1.0" encoding="UTF-8"?>
<svg width="24px" height="24px" viewBox="0 0 24 24" version="1.1" xmlns="http://www.w3.org/2000/svg" xmlns:xlink="http://www.w3.org/1999/xlink">
    <!-- Generator: Sketch 47.1 (45422) - http://www.bohemiancoding.com/sketch -->
    <title>object</title>
    <desc>Created with Sketch.</desc>
    <defs></defs>
    <g id="data-types" stroke="none" stroke-width="1" fill="none" fill-rule="evenodd">
        <g id="object">
            <rect id="Rectangle-12" x="0" y="0" width="24" height="24"></rect>
            <path d="M9.52224999,6.152 L9.52224999,4.248 L7.36324999,4.248 C7.17058236,4.248 6.95241787,4.29616618 6.70874999,4.3925 C6.4650821,4.48883381 6.2384177,4.63049906 6.02874999,4.8175 C5.81908227,5.00450093 5.64058406,5.24249855 5.49324999,5.5315 C5.34591592,5.82050144 5.27224999,6.15766474 5.27224999,6.543 L5.27224999,9.739 C5.27224999,10.0223348 5.21558389,10.2631657 5.10224999,10.4615 C4.98891609,10.6598343 4.85291745,10.8184994 4.69424999,10.9375 C4.53558253,11.0565006 4.36558423,11.1414997 4.18424999,11.1925 C4.00291575,11.2435003 3.84991728,11.269 3.72524999,11.269 L3.72524999,12.748 C3.84991728,12.748 4.00291575,12.7734997 4.18424999,12.8245 C4.36558423,12.8755003 4.53558253,12.9548328 4.69424999,13.0625 C4.85291745,13.1701672 4.98891609,13.3146658 5.10224999,13.496 C5.21558389,13.6773342 5.27224999,13.898332 5.27224999,14.159 L5.27224999,17.457 C5.27224999,17.8423353 5.34591592,18.1794986 5.49324999,18.4685 C5.64058406,18.7575014 5.81908227,18.9954991 6.02874999,19.1825 C6.2384177,19.3695009 6.4650821,19.5111662 6.70874999,19.6075 C6.95241787,19.7038338 7.17058236,19.752 7.36324999,19.752 L9.52224999,19.752 L9.52224999,17.848 L8.60424999,17.848 C8.40024897,17.848 8.23875058,17.8083337 8.11974999,17.729 C8.00074939,17.6496663 7.90725033,17.5505006 7.83924999,17.4315 C7.77124965,17.3124994 7.72875007,17.1793341 7.71174999,17.032 C7.6947499,16.8846659 7.68624999,16.7486673 7.68624999,16.624 L7.68624999,13.904 C7.68624999,13.5413315 7.62108397,13.2438345 7.49074999,13.0115 C7.360416,12.7791655 7.20741753,12.5921674 7.03174999,12.4505 C6.85608244,12.3088326 6.67191762,12.2068336 6.47924999,12.1445 C6.28658236,12.0821664 6.12791728,12.0453334 6.00324999,12.034 L6.00324999,11.983 C6.12791728,11.9716666 6.28658236,11.937667 6.47924999,11.881 C6.67191762,11.824333 6.85608244,11.7251674 7.03174999,11.5835 C7.20741753,11.4418326 7.360416,11.2435013 7.49074999,10.9885 C7.62108397,10.7334987 7.68624999,10.3963354 7.68624999,9.977 L7.68624999,7.393 C7.68624999,7.25699932 7.6947499,7.11533407 7.71174999,6.968 C7.72875007,6.82066593 7.77124965,6.68750059 7.83924999,6.5685 C7.90725033,6.4494994 8.00074939,6.35033373 8.11974999,6.271 C8.23875058,6.19166627 8.40024897,6.152 8.60424999,6.152 L9.52224999,6.152 Z M14.46075,17.848 L14.46075,19.752 L16.61975,19.752 C16.8124176,19.752 17.0305821,19.7038338 17.27425,19.6075 C17.5179179,19.5111662 17.7445823,19.3695009 17.95425,19.1825 C18.1639177,18.9954991 18.3424159,18.7575014 18.48975,18.4685 C18.6370841,18.1794986 18.71075,17.8423353 18.71075,17.457 L18.71075,14.159 C18.71075,13.898332 18.7674161,13.6773342 18.88075,13.496 C18.9940839,13.3146658 19.1300826,13.1701672 19.28875,13.0625 C19.4474175,12.9548328 19.6174158,12.8755003 19.79875,12.8245 C19.9800843,12.7734997 20.1387493,12.748 20.27475,12.748 L20.27475,11.269 C20.1387493,11.269 19.9800843,11.2435003 19.79875,11.1925 C19.6174158,11.1414997 19.4474175,11.0565006 19.28875,10.9375 C19.1300826,10.8184994 18.9940839,10.6598343 18.88075,10.4615 C18.7674161,10.2631657 18.71075,10.0223348 18.71075,9.739 L18.71075,6.543 C18.71075,6.15766474 18.6370841,5.82050144 18.48975,5.5315 C18.3424159,5.24249855 18.1639177,5.00450093 17.95425,4.8175 C17.7445823,4.63049906 17.5179179,4.48883381 17.27425,4.3925 C17.0305821,4.29616618 16.8124176,4.248 16.61975,4.248 L14.46075,4.248 L14.46075,6.152 L15.37875,6.152 C15.582751,6.152 15.7442494,6.19166627 15.86325,6.271 C15.9822506,6.35033373 16.0757497,6.4494994 16.14375,6.5685 C16.2117504,6.68750059 16.2542499,6.82066593 16.27125,6.968 C16.2882501,7.11533407 16.29675,7.25699932 16.29675,7.393 L16.29675,9.977 C16.29675,10.3963354 16.361916,10.7334987 16.49225,10.9885 C16.622584,11.2435013 16.7755825,11.4418326 16.95125,11.5835 C17.1269176,11.7251674 17.3110824,11.824333 17.50375,11.881 C17.6964176,11.937667 17.8550827,11.9716666 17.97975,11.983 L17.97975,12.034 C17.8550827,12.0453334 17.6964176,12.0821664 17.50375,12.1445 C17.3110824,12.2068336 17.1269176,12.3088326 16.95125,12.4505 C16.7755825,12.5921674 16.622584,12.7791655 16.49225,13.0115 C16.361916,13.2438345 16.29675,13.5413315 16.29675,13.904 L16.29675,16.624 C16.29675,16.7486673 16.2882501,16.8846659 16.27125,17.032 C16.2542499,17.1793341 16.2117504,17.3124994 16.14375,17.4315 C16.0757497,17.5505006 15.9822506,17.6496663 15.86325,17.729 C15.7442494,17.8083337 15.582751,17.848 15.37875,17.848 L14.46075,17.848 Z" id="{-}" fill="#585D63"></path>
        </g>
    </g>
</svg>
