<?xml version="1.0" encoding="UTF-8"?><svg width="576" height="576" version="1.1" viewBox="0 0 576 576" xmlns="http://www.w3.org/2000/svg" xmlns:xlink="http://www.w3.org/1999/xlink"><!--Generated by IJSVG (https://github.com/curthard89/IJSVG)--><g transform="scale(24)"><g fill-rule="evenodd" stroke="none" stroke-width="1"><path fill="none" d="M0,0h24v24h-24Z"></path><path fill="#6F6F6F" d="M5.797,1.904v-1.904h-2.159c-0.192668,0 -0.410832,0.0481662 -0.6545,0.1445c-0.243668,0.0963338 -0.470332,0.237999 -0.68,0.425c-0.209668,0.187001 -0.388166,0.424999 -0.5355,0.714c-0.147334,0.289001 -0.221,0.626165 -0.221,1.0115v3.196c0,0.283335 -0.0566661,0.524166 -0.17,0.7225c-0.113334,0.198334 -0.249333,0.356999 -0.408,0.476c-0.158667,0.119001 -0.328666,0.204 -0.51,0.255c-0.181334,0.0510003 -0.334333,0.0765 -0.459,0.0765v1.479c0.124667,0 0.277666,0.0254997 0.459,0.0765c0.181334,0.0510003 0.351333,0.130333 0.51,0.238c0.158667,0.107667 0.294666,0.252166 0.408,0.4335c0.113334,0.181334 0.17,0.402332 0.17,0.663v3.298c0,0.385335 0.0736659,0.722499 0.221,1.0115c0.147334,0.289001 0.325832,0.526999 0.5355,0.714c0.209668,0.187001 0.436332,0.328666 0.68,0.425c0.243668,0.0963338 0.461832,0.1445 0.6545,0.1445h2.159v-1.904h-0.918c-0.204001,0 -0.365499,-0.0396663 -0.4845,-0.119c-0.119001,-0.0793337 -0.2125,-0.178499 -0.2805,-0.2975c-0.0680003,-0.119001 -0.1105,-0.252166 -0.1275,-0.3995c-0.0170001,-0.147334 -0.0255,-0.283333 -0.0255,-0.408v-2.72c0,-0.362668 -0.065166,-0.660165 -0.1955,-0.8925c-0.130334,-0.232335 -0.283332,-0.419333 -0.459,-0.561c-0.175668,-0.141667 -0.359832,-0.243666 -0.5525,-0.306c-0.192668,-0.0623336 -0.351333,-0.0991666 -0.476,-0.1105v-0.051c0.124667,-0.0113334 0.283332,-0.045333 0.476,-0.102c0.192668,-0.056667 0.376832,-0.155833 0.5525,-0.2975c0.175668,-0.141667 0.328666,-0.339999 0.459,-0.595c0.130334,-0.255001 0.1955,-0.592165 0.1955,-1.0115v-2.584c0,-0.136001 0.00849991,-0.277666 0.0255,-0.425c0.0170001,-0.147334 0.0594997,-0.280499 0.1275,-0.3995c0.0680003,-0.119001 0.161499,-0.218166 0.2805,-0.2975c0.119001,-0.0793337 0.280499,-0.119 0.4845,-0.119h0.918Zm4.9385,11.696v1.904h2.159c0.192668,0 0.410832,-0.0481662 0.6545,-0.1445c0.243668,-0.0963338 0.470332,-0.237999 0.68,-0.425c0.209668,-0.187001 0.388166,-0.424999 0.5355,-0.714c0.147334,-0.289001 0.221,-0.626165 0.221,-1.0115v-3.298c0,-0.260668 0.0566661,-0.481666 0.17,-0.663c0.113334,-0.181334 0.249333,-0.325833 0.408,-0.4335c0.158667,-0.107667 0.328666,-0.187 0.51,-0.238c0.181334,-0.0510003 0.339999,-0.0765 0.476,-0.0765v-1.479c-0.136001,0 -0.294666,-0.0254997 -0.476,-0.0765c-0.181334,-0.0510003 -0.351332,-0.135999 -0.51,-0.255c-0.158667,-0.119001 -0.294666,-0.277666 -0.408,-0.476c-0.113334,-0.198334 -0.17,-0.439165 -0.17,-0.7225v-3.196c0,-0.385335 -0.0736659,-0.722499 -0.221,-1.0115c-0.147334,-0.289001 -0.325832,-0.526999 -0.5355,-0.714c-0.209668,-0.187001 -0.436332,-0.328666 -0.68,-0.425c-0.243668,-0.0963338 -0.461832,-0.1445 -0.6545,-0.1445h-2.159v1.904h0.918c0.204001,0 0.365499,0.0396663 0.4845,0.119c0.119001,0.0793337 0.2125,0.178499 0.2805,0.2975c0.0680004,0.119001 0.1105,0.252166 0.1275,0.3995c0.0170001,0.147334 0.0255,0.288999 0.0255,0.425v2.584c0,0.419335 0.065166,0.756499 0.1955,1.0115c0.130334,0.255001 0.283333,0.453333 0.459,0.595c0.175668,0.141667 0.359832,0.240833 0.5525,0.2975c0.192668,0.056667 0.351333,0.0906666 0.476,0.102v0.051c-0.124667,0.0113334 -0.283332,0.0481664 -0.476,0.1105c-0.192668,0.0623336 -0.376832,0.164333 -0.5525,0.306c-0.175668,0.141667 -0.328666,0.328665 -0.459,0.561c-0.130334,0.232335 -0.1955,0.529832 -0.1955,0.8925v2.72c0,0.124667 -0.0084999,0.260666 -0.0255,0.408c-0.0170001,0.147334 -0.0594996,0.280499 -0.1275,0.3995c-0.0680003,0.119001 -0.161499,0.218166 -0.2805,0.2975c-0.119001,0.0793337 -0.280499,0.119 -0.4845,0.119h-0.918Z" transform="translate(3.72525, 4.248)"></path></g></g></svg>