<?xml version="1.0" encoding="UTF-8"?><svg width="576" height="576" version="1.1" viewBox="0 0 576 576" xmlns="http://www.w3.org/2000/svg" xmlns:xlink="http://www.w3.org/1999/xlink"><!--Generated by IJSVG (https://github.com/curthard89/IJSVG)--><g transform="scale(24)"><g fill="none"><path d="M0,0h24v24h-24Z"></path><g transform="translate(2, 2)"><g fill="#6F6F6F"><path d="M10,2c-4.4,0 -8,3.6 -8,8c0,4.4 3.6,8 8,8c4.4,0 8,-3.6 8,-8c0,-4.4 -3.6,-8 -8,-8Zm0,-2c5.5,0 10,4.5 10,10c0,5.5 -4.5,10 -10,10c-5.5,0 -10,-4.5 -10,-10c0,-5.5 4.5,-10 10,-10Z"></path><path d="M7.4,5.3c-0.3,-0.3 -0.8,-0.3 -1.1,0l-1.7,1.7v-6.2c0,-0.4 -0.3,-0.8 -0.8,-0.8c-0.5,0 -0.7,0.4 -0.7,0.8v6.2l-1.7,-1.7c-0.3,-0.3 -0.8,-0.3 -1.1,0c-0.3,0.3 -0.3,0.8 0,1.1l3,3c0.1,0.1 0.2,0.1 0.2,0.2c0.2,0.1 0.4,0.1 0.6,0c0.1,0 0.2,-0.1 0.2,-0.2l3,-3c0.4,-0.4 0.4,-0.8 0.1,-1.1Z" transform="translate(6.1, 5.2)"></path></g></g></g></g></svg>