<?xml version="1.0" encoding="UTF-8"?><svg width="576" height="576" version="1.1" viewBox="0 0 576 576" xmlns="http://www.w3.org/2000/svg" xmlns:xlink="http://www.w3.org/1999/xlink"><!--Generated by IJSVG (https://github.com/curthard89/IJSVG)--><g transform="scale(24)"><g fill="none"><g fill="none"><path d="M3.06781,0.07336c-0.1853,-0.04407 -0.37604,-0.07336 -0.57465,-0.07336c-0.99597,0 -1.85059,0.59058 -2.24969,1.43652c-0.15192,0.32196 -0.24347,0.67761 -0.24347,1.05664c0,0.33411 0.06836,0.65192 0.18805,0.94336c0.3728,0.9079 1.26422,1.5498 2.30511,1.5498c1.375,0 2.49316,-1.11816 2.49316,-2.49316c0,-0.07355 -0.01538,-0.14282 -0.02167,-0.21472c-0.09399,-1.07886 -0.86791,-1.96039 -1.89684,-2.20508Zm0.64947,3.3197c-0.27747,0.37659 -0.7204,0.6239 -1.22406,0.6239c-0.4834,0 -0.90912,-0.22937 -1.18829,-0.58044c-0.20697,-0.26019 -0.33575,-0.58527 -0.33575,-0.9436c0,-0.41095 0.16437,-0.78229 0.42877,-1.0564c0.27716,-0.28735 0.66449,-0.46765 1.09528,-0.46765c0.20355,0 0.39703,0.0415 0.57458,0.11395c0.55646,0.22705 0.94946,0.77197 0.94946,1.4101c3.55271e-15,0.33807 -0.11371,0.6474 -0.29999,0.90014Z" transform="translate(14.9326, 16.5635)"></path><path fill="#6F6F6F" d="M2.00001,2h14v8.73328h2v-9.0083c0,-0.95301 -0.77301,-1.72498 -1.72504,-1.72498h-14.55c-0.953,0 -1.72498,0.77197 -1.72498,1.72498v14.5501c1e-05,0.953 0.77198,1.72497 1.72498,1.72497h6.64252v-2h-6.36749v-14Z" transform="translate(2.00042, 2)"></path><path fill="#6F6F6F" d="M10.2881,1.46473c-0.03821,-0.00354 -0.07123,-0.02234 -0.11035,-0.02234h-1.7959c-0.0332,0 -0.06403,-0.01062 -0.09332,-0.02368c-0.04059,-0.01801 -0.07703,-0.04382 -0.10199,-0.08179l-0.74805,-1.15723c-0.07227,-0.11816 -0.20605,-0.17578 -0.30078,-0.16016l-0.84918,0.00061l-1.90765,0.00134c-0.14648,-0.02148 -0.27539,0.0498 -0.33301,0.15625l-0.77539,1.16211c-0.04199,0.06445 -0.11426,0.10254 -0.19238,0.10254h-1.83008c-0.68945,0 -1.25,0.56055 -1.25,1.25v1.25685v2v1.75781c0,0.08588 0.03247,0.16113 0.04901,0.24219c0.11646,0.56958 0.59741,1.00781 1.20099,1.00781h8.92773c0.68945,0 1.25,-0.56055 1.25,-1.25v-5.01465c-3.55271e-15,-0.65033 -0.5044,-1.169 -1.13965,-1.22766Zm-4.57422,6.0343c-1.04089,0 -1.93231,-0.64191 -2.30511,-1.5498c-0.11969,-0.29144 -0.18805,-0.60925 -0.18805,-0.94336c0,-0.37903 0.09155,-0.73468 0.24347,-1.05664c0.39911,-0.84595 1.25372,-1.43652 2.24969,-1.43652c0.19861,0 0.38934,0.0293 0.57465,0.07336c1.02893,0.24469 1.80286,1.12622 1.89685,2.20508c0.00629,0.0719 0.02167,0.14117 0.02167,0.21472c0,1.375 -1.11817,2.49316 -2.49317,2.49316Z" transform="translate(11.7119, 14.0508)"></path><path fill="#6F6F6F" d="M2.09863,0.11395c-0.17755,-0.07245 -0.37103,-0.11395 -0.57458,-0.11395c-0.43079,0 -0.81812,0.1803 -1.09528,0.46765c-0.2644,0.27411 -0.42877,0.64545 -0.42877,1.0564c0,0.35834 0.12878,0.68341 0.33575,0.9436c0.27917,0.35107 0.7049,0.58044 1.18829,0.58044c0.50366,0 0.94659,-0.24731 1.22406,-0.6239c0.18628,-0.25275 0.29999,-0.56207 0.29999,-0.90015c-3.55271e-15,-0.63812 -0.39301,-1.18304 -0.94946,-1.41009Z" transform="translate(15.9018, 17.5324)"></path><path fill="#6F6F6F" d="M0,0h7.04004v1.5h-7.04004Z" transform="translate(6, 6.32764)"></path><path fill="#6F6F6F" d="M0,0h9v1.5h-9Z" transform="translate(6, 9.32764)"></path><path fill="#D8D8D8" d="M0,0h6v0.00049h-6Z" transform="translate(6, 12.3276)"></path><path fill="#6F6F6F" d="M6,0.40516v-0.40516h-6v1.49952h4.36792h1.63208Z" transform="translate(6, 12.3281)"></path></g><path d="M0,0h24v24h-24Z"></path></g></g></svg>