<?xml version="1.0" encoding="UTF-8"?><svg width="576" height="576" version="1.1" viewBox="0 0 576 576" xmlns="http://www.w3.org/2000/svg" xmlns:xlink="http://www.w3.org/1999/xlink"><!--Generated by IJSVG (https://github.com/curthard89/IJSVG)--><g transform="scale(24)"><g fill="none"><path d="M0,0h24v24h-24Z"></path><g transform="translate(2, 2)"><g fill="#6F6F6F"><path d="M10,18c4.4,0 8,-3.6 8,-8c0,-4.4 -3.6,-8 -8,-8c-4.4,0 -8,3.6 -8,8c0,4.4 3.6,8 8,8Zm0,2c-5.5,0 -10,-4.5 -10,-10c0,-5.5 4.5,-10 10,-10c5.5,0 10,4.5 10,10c0,5.5 -4.5,10 -10,10Z"></path><path d="M7.3,3.3l-3,-3c-0.1,-0.1 -0.2,-0.1 -0.2,-0.2c-0.2,-0.1 -0.4,-0.1 -0.6,0c-0.1,0 -0.2,0.1 -0.2,0.2l-3,3c-0.3,0.3 -0.3,0.8 0,1.1c0.3,0.3 0.8,0.3 1.1,0l1.7,-1.7v6.1c0,0.4 0.3,0.8 0.8,0.8c0.5,0 0.8,-0.3 0.8,-0.8v-6.2l1.7,1.7c0.3,0.3 0.8,0.3 1.1,0c0.3,-0.3 0.1,-0.7 -0.2,-1Z" transform="translate(6.2, 5.2)"></path></g></g></g></g></svg>