<?xml version="1.0" encoding="utf-8"?>
<!-- Generator: Adobe Illustrator 22.0.1, SVG Export Plug-In . SVG Version: 6.00 Build 0)  -->
<svg version="1.1" id="Layer_1" xmlns="http://www.w3.org/2000/svg" xmlns:xlink="http://www.w3.org/1999/xlink" x="0px" y="0px"
	 viewBox="0 0 24 24" style="enable-background:new 0 0 24 24;" xml:space="preserve">
<style type="text/css">
	.st0{fill:none;}
	.st1{fill:#585D63;}
	.st2{fill:#D8D8D8;}
</style>
<title>on demand page snap</title>
<desc>Created with Sketch.</desc>
<g>
	<path class="st0" d="M18.00043,16.63684c-0.1853-0.04407-0.37604-0.07336-0.57465-0.07336
		c-0.99597,0-1.85059,0.59058-2.24969,1.43652c-0.15192,0.32196-0.24347,0.67761-0.24347,1.05664
		c0,0.33411,0.06836,0.65192,0.18805,0.94336c0.3728,0.9079,1.26422,1.5498,2.30511,1.5498c1.375,0,2.49316-1.11816,2.49316-2.49316
		c0-0.07355-0.01538-0.14282-0.02167-0.21472C19.80328,17.76306,19.02936,16.88153,18.00043,16.63684z M18.6499,19.95654
		c-0.27747,0.37659-0.7204,0.6239-1.22406,0.6239c-0.4834,0-0.90912-0.22937-1.18829-0.58044
		c-0.20697-0.26019-0.33575-0.58527-0.33575-0.9436c0-0.41095,0.16437-0.78229,0.42877-1.0564
		c0.27716-0.28735,0.66449-0.46765,1.09528-0.46765c0.20355,0,0.39703,0.0415,0.57458,0.11395
		c0.55646,0.22705,0.94946,0.77197,0.94946,1.4101C18.94989,19.39447,18.83618,19.7038,18.6499,19.95654z"/>
	<path class="st1" d="M4.00043,4h14v8.11119h2V3.72498C20.00043,2.77197,19.22742,2,18.27539,2H3.7254
		c-0.953,0-1.72498,0.77197-1.72498,1.72498v14.55005C2.00043,19.22803,2.7724,20,3.7254,20h6.05313v-2h-5.7781V4z"/>
	<path class="st1" d="M23.13965,23.00781v-7.51465h-3.0459c-0.0332,0-0.06403-0.01062-0.09332-0.02368
		c-0.04059-0.01801-0.07703-0.04382-0.10199-0.08179l-0.85726-1.31753l-3.17647,0.00225l-0.94874,1.42074h-3.20404V18v2v3.00781
		 M17.42578,21.5498c-1.04089,0-1.93231-0.64191-2.30511-1.5498c-0.11969-0.29144-0.18805-0.60925-0.18805-0.94336
		c0-0.37903,0.09155-0.73468,0.24347-1.05664c0.39911-0.84595,1.25372-1.43652,2.24969-1.43652
		c0.19861,0,0.38934,0.0293,0.57465,0.07336c1.02893,0.24469,1.80286,1.12622,1.89685,2.20508
		c0.00629,0.0719,0.02167,0.14117,0.02167,0.21472C19.91895,20.43164,18.80078,21.5498,17.42578,21.5498z"/>
	<path class="st1" d="M18.00043,17.6463c-0.17755-0.07245-0.37103-0.11395-0.57458-0.11395
		c-0.43079,0-0.81812,0.1803-1.09528,0.46765c-0.2644,0.27411-0.42877,0.64545-0.42877,1.0564
		c0,0.35834,0.12878,0.68341,0.33575,0.9436c0.27917,0.35107,0.7049,0.58044,1.18829,0.58044
		c0.50366,0,0.94659-0.24731,1.22406-0.6239c0.18628-0.25275,0.29999-0.56207,0.29999-0.90015
		C18.94989,18.41827,18.55688,17.87335,18.00043,17.6463z"/>
	<rect x="6" y="6.32764" class="st1" width="7.04004" height="1.5"/>
	<rect x="6" y="9.32764" class="st1" width="9" height="1.5"/>
	<rect x="6" y="12.32764" class="st2" width="6" height="0.00049"/>
	<polygon class="st1" points="12,12.73328 12,12.32812 6,12.32812 6,13.82764 10.36792,13.82764 12,13.82764 	"/>
</g>
<rect class="st0" width="24" height="24"/>
</svg>
