<?xml version="1.0" encoding="utf-8"?>
<!-- Generator: Adobe Illustrator 22.1.0, SVG Export Plug-In . SVG Version: 6.00 Build 0)  -->
<svg version="1.1" id="Layer_1" xmlns="http://www.w3.org/2000/svg" xmlns:xlink="http://www.w3.org/1999/xlink" x="0px" y="0px"
	 viewBox="0 0 34 24" style="enable-background:new 0 0 34 24;" xml:space="preserve">
<style type="text/css">
	.st0{fill:#585D63;}
	.st1{fill:none;}
</style>
<path class="st0" d="M22.04156,11.08348l3.9791,3.97902L30,11.08348H22.04156z"/>
<g id="actions">
	<g id="order">
		<g id="more-horiz">
			<polygon id="Shape" class="st1" points="-2.18677,0 21.81323,0 21.81323,24 -2.18677,24 			"/>
		</g>
		<path id="Page-1" class="st0" d="M17.37047,13.78106c-0.215,0-0.431,0.07-0.61,0.21l-6.769,5.265l-6.76-5.255
			c-0.179-0.14-0.395-0.21-0.61-0.21c-0.215,0-0.431,0.07-0.611,0.21c-0.512,0.397-0.512,1.172,0,1.57l7.38,5.739
			c0.18,0.14,0.396,0.21,0.611,0.21c0.216,0,0.431-0.07,0.61-0.21l7.381-5.74c0.512-0.398,0.513-1.171,0.001-1.569l-0.012-0.009
			C17.80247,13.85106,17.58647,13.78106,17.37047,13.78106 M10.00147,2.98106c-0.215,0-0.431,0.07-0.611,0.21l-7.38,5.74
			c-0.512,0.398-0.513,1.171-0.001,1.57l0.622,0.485l6.759,5.255c0.18,0.14,0.395,0.209,0.61,0.209c0.216,0,0.432-0.07,0.611-0.21
			l6.75-5.254l0.626-0.486c0.514-0.397,0.515-1.173,0.002-1.571l-7.378-5.738C10.43247,3.05106,10.21747,2.98106,10.00147,2.98106
			 M10.00147,5.24906l5.739,4.464l-5.74,4.468l-5.743-4.464L10.00147,5.24906"/>
		<rect id="Rectangle-12" x="-2.18677" class="st1" width="24" height="24"/>
	</g>
</g>
</svg>
