<?xml version="1.0" encoding="UTF-8"?><svg width="576" height="576" version="1.1" viewBox="0 0 576 576" xmlns="http://www.w3.org/2000/svg" xmlns:xlink="http://www.w3.org/1999/xlink"><!--Generated by IJSVG (https://github.com/curthard89/IJSVG)--><g transform="scale(24)"><g fill-rule="evenodd" stroke="none" stroke-width="1"><use fill="none" fill-rule="evenodd" stroke="none" stroke-width="1" xlink:href="#path-1"></use><path fill="#6F6F6F" d="M15.873,10.8c-0.215,0 -0.431,0.07 -0.61,0.21l-6.769,5.265l-6.76,-5.255c-0.179,-0.14 -0.395,-0.21 -0.61,-0.21c-0.215,0 -0.431,0.07 -0.611,0.21c-0.512,0.397 -0.512,1.172 0,1.57l7.38,5.739c0.18,0.14 0.396,0.21 0.611,0.21c0.216,0 0.431,-0.07 0.61,-0.21l7.381,-5.74c0.512,-0.398 0.513,-1.171 0.001,-1.569l-0.012,-0.009c-0.179,-0.141 -0.395,-0.211 -0.611,-0.211m-7.369,-10.8c-0.215,0 -0.431,0.07 -0.611,0.21l-7.38,5.74c-0.512,0.398 -0.513,1.171 -0.001,1.57l0.622,0.485l6.759,5.255c0.18,0.14 0.395,0.209 0.61,0.209c0.216,0 0.432,-0.07 0.611,-0.21l6.75,-5.254l0.626,-0.486c0.514,-0.397 0.515,-1.173 0.002,-1.571l-7.378,-5.738c-0.179,-0.14 -0.394,-0.21 -0.61,-0.21m0,2.268l5.739,4.464l-5.74,4.468l-5.743,-4.464l5.744,-4.468" transform="translate(3.68424, 2.98106)"></path><use fill="none" xlink:href="#path-1"></use></g></g><defs><path id="path-1" d="M0,0h24v24h-24Z"></path></defs></svg>