<?xml version="1.0" encoding="UTF-8"?><svg width="576" height="576" version="1.1" viewBox="0 0 576 576" xmlns="http://www.w3.org/2000/svg" xmlns:xlink="http://www.w3.org/1999/xlink"><!--Generated by IJSVG (https://github.com/curthard89/IJSVG)--><g transform="scale(24)"><g fill="none"><g fill="#6F6F6F"><path d="M7.96179,13.9236c-3.2926,0 -5.96179,-2.66919 -5.96179,-5.96179c0,-3.2926 2.66919,-5.96179 5.96179,-5.96179c1.65973,0 3.15985,0.67938 4.24072,1.7738l1.40845,-1.42053c-1.44238,-1.45276 -3.44025,-2.35327 -5.64917,-2.35327c-4.39716,0 -7.96179,3.56464 -7.96179,7.96179c0,4.39715 3.56464,7.96179 7.96179,7.96179c2.2099,0 4.2085,-0.90137 5.651,-2.35529l-1.40845,-1.42047c-1.08099,1.09559 -2.58185,1.77576 -4.24255,1.77576Z" transform="translate(2.11756, 4.03821)"></path><path fill="#FFFFFF" d="M0,0c0.02155,0.12622 0.04254,0.25262 0.05811,0.3808h0.31805l-0.37616,-0.3808Z" transform="translate(17.9188, 10.6533)"></path><path fill="#FFFFFF" d="M0.05792,0c-0.01544,0.12762 -0.0365,0.25342 -0.05792,0.37915l0.37463,-0.37915h-0.31671Z" transform="translate(17.9191, 12.9653)"></path><path d="M12.2746,2.86023l-2.54852,-2.57806c-0.18597,-0.18811 -0.42926,-0.28217 -0.67505,-0.28217c-0.24451,0 -0.48779,0.09406 -0.67377,0.28217c-0.01025,0.0105 -0.01343,0.02466 -0.02313,0.03546c-0.34161,0.38049 -0.3385,0.9657 0.02313,1.33148l0.5415,0.54816l0.37616,0.3808h-0.31805h-2.02087h-4.83057h-1.16895c-0.526,0 -0.95648,0.43286 -0.95648,0.96496c0,0.53339 0.43048,0.96631 0.95648,0.96631h1.17206h4.82758h2.02087h0.31671l-0.37463,0.37915l-0.54181,0.54846c-0.36182,0.36853 -0.36493,0.95319 -0.02264,1.3324c0.00952,0.01056 0.01257,0.02435 0.02264,0.03455c0.37195,0.37878 0.97565,0.37878 1.34882,0l2.54852,-2.57672c0.37188,-0.37879 0.37188,-0.98951 3.55271e-15,-1.36695Z" transform="translate(9, 8.45599)"></path></g><path d="M0,0h24v24h-24Z"></path></g></g></svg>