<?xml version="1.0" encoding="utf-8"?>
<!-- Generator: Adobe Illustrator 22.0.1, SVG Export Plug-In . SVG Version: 6.00 Build 0)  -->
<svg version="1.1" id="Layer_1" xmlns="http://www.w3.org/2000/svg" xmlns:xlink="http://www.w3.org/1999/xlink" x="0px" y="0px"
	 viewBox="0 0 24 24" style="enable-background:new 0 0 24 24;" xml:space="preserve">
<style type="text/css">
	.st0{fill:none;}
	.st1{fill:#585D63;}
</style>
<title>pages and ajax</title>
<desc>Created with Sketch.</desc>
<g>
	<path class="st0" d="M20,6H4v10h16V6z M11.75,12.5H7.56049l0.71924,0.71973c0.29303,0.29303,0.29303,0.76703,0,1.06
		c-0.146,0.14703-0.33795,0.22003-0.52997,0.22003s-0.38403-0.073-0.53003-0.22003l-1.99829-1.99829l-0.00171-0.00171
		c-0.07196-0.07196-0.12531-0.15521-0.16193-0.24371c-0.03571-0.08624-0.05554-0.18054-0.05646-0.27942
		C5.00134,11.75427,5,11.75232,5,11.75c0-0.00006,0-0.00006,0-0.00012c0-0.10162,0.02124-0.19824,0.05792-0.28662
		c0.03662-0.08838,0.0899-0.17163,0.1618-0.24353l2-2c0.29303-0.29297,0.76703-0.29297,1.06,0
		c0.29303,0.29303,0.29303,0.76703,0,1.06L7.55994,11H11.75c0.414,0,0.75,0.336,0.75,0.75S12.164,12.5,11.75,12.5z M18.48499,9.8244
		c-0.0072,0.07141-0.01477,0.14319-0.04254,0.21057c-0.03662,0.08893-0.09039,0.17249-0.16272,0.24475l-0.00281,0.00281
		l-1.99719,1.99719c-0.146,0.14703-0.33795,0.22003-0.52997,0.22003s-0.38403-0.073-0.53003-0.22003
		c-0.29297-0.29297-0.29297-0.76697,0-1.06L15.93896,10.5H11.75c-0.414,0-0.75-0.336-0.75-0.75S11.336,9,11.75,9h4.18951
		l-0.71979-0.72028c-0.29297-0.29297-0.29297-0.76697,0-1.06c0.29303-0.29297,0.76703-0.29297,1.06,0l1.99884,1.99884
		l0.00116,0.00116c0.07227,0.07227,0.12598,0.15582,0.1626,0.24463c0.02863,0.06934,0.0387,0.14655,0.04529,0.22443
		C18.48944,9.71002,18.5,9.72827,18.5,9.75C18.5,9.77637,18.48767,9.79871,18.48499,9.8244z"/>
	<path class="st1" d="M23,18h-3c1.09998,0,1.98999-0.90002,1.98999-2L22,6c0-1.09998-0.90002-2-2-2H4C2.90002,4,2,4.90002,2,6v10
		c0,1.09998,0.90002,2,2,2H1v2h22V18z M4,6h16v10H4V6z"/>
	<path class="st1" d="M12,11.25012H7.80994l0.71979-0.72028c0.29303-0.29297,0.29303-0.76697,0-1.06
		c-0.29297-0.29297-0.76697-0.29297-1.06,0l-2,2c-0.0719,0.0719-0.12518,0.15515-0.1618,0.24353
		C5.27124,11.80176,5.25,11.89837,5.25,12c0,0.00006,0,0.00006,0,0.00012c0,0.00232,0.00134,0.00427,0.00134,0.00659
		c0.00092,0.09888,0.02075,0.19318,0.05646,0.27942c0.03662,0.0885,0.08997,0.17175,0.16193,0.24371l0.00171,0.00171
		l1.99829,1.99829c0.146,0.14703,0.33801,0.22003,0.53003,0.22003c0.19202,0,0.38397-0.073,0.52997-0.22003
		c0.29303-0.29297,0.29303-0.76697,0-1.06l-0.71924-0.71972H12c0.414,0,0.75-0.336,0.75-0.75S12.414,11.25012,12,11.25012z"/>
	<path class="st1" d="M18.69232,9.71448c-0.03662-0.08881-0.09033-0.17236-0.1626-0.24463l-0.00116-0.00116l-1.99884-1.99884
		c-0.29297-0.29297-0.76697-0.29297-1.06,0c-0.29297,0.29303-0.29297,0.76703,0,1.06l0.71979,0.72027H12
		c-0.414,0-0.75,0.336-0.75,0.75s0.336,0.75,0.75,0.75h4.18896l-0.71924,0.71973c-0.29297,0.29303-0.29297,0.76703,0,1.06
		c0.146,0.14703,0.33801,0.22003,0.53003,0.22003s0.38397-0.073,0.52997-0.22003l1.99719-1.99719l0.00281-0.00281
		c0.07233-0.07227,0.1261-0.15582,0.16272-0.24475c0.02777-0.06738,0.03534-0.13916,0.04254-0.21057
		c0.00269-0.0257,0.01502-0.04804,0.01502-0.07441c0-0.02173-0.01056-0.03998-0.01239-0.06122
		C18.73102,9.86102,18.72095,9.78381,18.69232,9.71448z"/>
</g>
<rect class="st0" width="24" height="24"/>
</svg>
