<?xml version="1.0" encoding="UTF-8"?><svg width="576" height="576" version="1.1" viewBox="0 0 576 576" xmlns="http://www.w3.org/2000/svg" xmlns:xlink="http://www.w3.org/1999/xlink"><!--Generated by IJSVG (https://github.com/curthard89/IJSVG)--><g transform="scale(24)"><g fill="none"><g fill="none"><path d="M16,0h-16v10h16v-10Zm-8.25,6.5h-4.18951l0.71924,0.71973c0.29303,0.29303 0.29303,0.76703 0,1.06c-0.146,0.14703 -0.33795,0.22003 -0.52997,0.22003c-0.19202,0 -0.38403,-0.073 -0.53003,-0.22003l-1.99829,-1.99829l-0.00171,-0.00171c-0.07196,-0.07196 -0.12531,-0.15521 -0.16193,-0.24371c-0.03571,-0.08624 -0.05554,-0.18054 -0.05646,-0.27942c1.77636e-15,-0.00233 -0.00134,-0.00428 -0.00134,-0.0066c0,-6e-05 0,-6e-05 0,-0.00012c0,-0.10162 0.02124,-0.19824 0.05792,-0.28662c0.03662,-0.08838 0.0899,-0.17163 0.1618,-0.24353l2,-2c0.29303,-0.29297 0.76703,-0.29297 1.06,0c0.29303,0.29303 0.29303,0.76703 0,1.06l-0.71978,0.72027h4.19006c0.414,0 0.75,0.336 0.75,0.75c0,0.414 -0.336,0.75 -0.75,0.75Zm6.73499,-2.6756c-0.0072,0.07141 -0.01477,0.14319 -0.04254,0.21057c-0.03662,0.08893 -0.09039,0.17249 -0.16272,0.24475l-0.00281,0.00281l-1.99719,1.99719c-0.146,0.14703 -0.33795,0.22003 -0.52997,0.22003c-0.19202,0 -0.38403,-0.073 -0.53003,-0.22003c-0.29297,-0.29297 -0.29297,-0.76697 0,-1.06l0.71923,-0.71972h-4.18896c-0.414,0 -0.75,-0.336 -0.75,-0.75c0,-0.414 0.336,-0.75 0.75,-0.75h4.18951l-0.71979,-0.72028c-0.29297,-0.29297 -0.29297,-0.76697 0,-1.06c0.29303,-0.29297 0.76703,-0.29297 1.06,0l1.99884,1.99884l0.00116,0.00116c0.07227,0.07227 0.12598,0.15582 0.1626,0.24463c0.02863,0.06934 0.0387,0.14655 0.04529,0.22443c0.00183,0.02124 0.01239,0.03949 0.01239,0.06122c0,0.02637 -0.01233,0.04871 -0.01501,0.0744Z" transform="translate(4, 6)"></path><path fill="#6F6F6F" d="M23,14h-3c1.09998,0 1.98999,-0.90002 1.98999,-2l0.01001,-10c0,-1.09998 -0.90002,-2 -2,-2h-16c-1.09998,0 -2,0.90002 -2,2v10c0,1.09998 0.90002,2 2,2h-3c-0.552,0 -1,0.44702 -1,1c0,0.55298 0.448,1 1,1h22c0.55298,0 1,-0.44702 1,-1c0,-0.55298 -0.44702,-1 -1,-1Zm-19,-12h16v10h-16v-10Z" transform="translate(0, 4)"></path><path fill="#6F6F6F" d="M6.75,2.07325h-4.19006l0.71979,-0.72028c0.29303,-0.29297 0.29303,-0.76697 0,-1.06c-0.29297,-0.29297 -0.76697,-0.29297 -1.06,0l-2,2c-0.0719,0.0719 -0.12518,0.15515 -0.1618,0.24353c-0.03669,0.08839 -0.05793,0.185 -0.05793,0.28663c0,6e-05 0,6e-05 0,0.00012c0,0.00232 0.00134,0.00427 0.00134,0.00659c0.00092,0.09888 0.02075,0.19318 0.05646,0.27942c0.03662,0.0885 0.08997,0.17175 0.16193,0.24371l0.00171,0.00171l1.99829,1.99829c0.146,0.14703 0.33801,0.22003 0.53003,0.22003c0.19202,0 0.38397,-0.073 0.52997,-0.22003c0.29303,-0.29297 0.29303,-0.76697 0,-1.06l-0.71924,-0.71972h4.18951c0.414,0 0.75,-0.336 0.75,-0.75c0,-0.414 -0.336,-0.75 -0.75,-0.75Z" transform="translate(5, 8.92675)"></path><path fill="#6F6F6F" d="M7.44232,2.5376c-0.03662,-0.08881 -0.09033,-0.17236 -0.1626,-0.24463l-0.00116,-0.00116l-1.99884,-1.99884c-0.29297,-0.29297 -0.76697,-0.29297 -1.06,0c-0.29297,0.29303 -0.29297,0.76703 0,1.06l0.71979,0.72027h-4.18951c-0.414,0 -0.75,0.336 -0.75,0.75c0,0.414 0.336,0.75 0.75,0.75h4.18896l-0.71924,0.71973c-0.29297,0.29303 -0.29297,0.76703 0,1.06c0.146,0.14703 0.33801,0.22003 0.53003,0.22003c0.19202,0 0.38397,-0.073 0.52997,-0.22003l1.99719,-1.99719l0.00281,-0.00281c0.07233,-0.07227 0.1261,-0.15582 0.16272,-0.24475c0.02777,-0.06738 0.03534,-0.13916 0.04254,-0.21057c0.00269,-0.0257 0.01502,-0.04804 0.01502,-0.07441c0,-0.02173 -0.01056,-0.03998 -0.01239,-0.06122c-0.00659,-0.07788 -0.01666,-0.15509 -0.04529,-0.22442Z" transform="translate(11, 6.92676)"></path></g><path d="M0,0h24v24h-24Z"></path></g></g></svg>