<?xml version="1.0" encoding="utf-8"?>
<!-- Generator: Adobe Illustrator 22.1.0, SVG Export Plug-In . SVG Version: 6.00 Build 0)  -->
<svg version="1.1" id="Layer_1" xmlns="http://www.w3.org/2000/svg" xmlns:xlink="http://www.w3.org/1999/xlink" x="0px" y="0px"
	 viewBox="0 0 24 24" style="enable-background:new 0 0 24 24;" xml:space="preserve">
<style type="text/css">
	.st0{fill:#585D63;}
</style>
<title>Page_template</title>
<g id="Layer_4">
	<path class="st0" d="M19.5,4.5C19.5,4.5,19.5,4.6,19.5,4.5v14.9c0,0,0,0.1,0,0.1h-15c0,0,0-0.1,0-0.1V4.6c0,0,0-0.1,0-0.1H19.5
		 M19.8,2.5H4.2c-1,0.1-1.8,1-1.7,2.1v14.8c-0.1,1,0.7,2,1.7,2.1h15.5c1-0.1,1.8-1.1,1.7-2.1V4.6C21.6,3.5,20.8,2.6,19.8,2.5z"/>
	<rect x="3.7" y="8.5" class="st0" width="16.7" height="2"/>
	<path class="st0" d="M9,6h8v1H9V6z"/>
	<rect x="6" y="6" class="st0" width="1.5" height="1"/>
</g>
</svg>
