<?xml version="1.0" encoding="utf-8"?>
<!-- Generator: Adobe Illustrator 22.0.1, SVG Export Plug-In . SVG Version: 6.00 Build 0)  -->
<svg version="1.1" id="Layer_1" xmlns="http://www.w3.org/2000/svg" xmlns:xlink="http://www.w3.org/1999/xlink" x="0px" y="0px"
	 viewBox="0 0 24 24" style="enable-background:new 0 0 24 24;" xml:space="preserve">
<style type="text/css">
	.st0{fill:none;}
	.st1{fill:#585D63;}
</style>
<title>participants@2x</title>
<desc>Created with Sketch.</desc>
<g id="objects">
	<g id="participants">
		<g id="more-horiz">
			<polygon id="Shape" class="st0" points="0,0 24,0 24,24 0,24 			"/>
		</g>
		<path id="Stroke-1" class="st1" d="M9.65647,8.67474c0-1.13349-0.91906-2.05255-2.05254-2.05255S5.55138,7.54125,5.55138,8.67474
			s0.91906,2.05254,2.05255,2.05254S9.65647,9.80822,9.65647,8.67474z M11.48911,8.67474c0,2.14562-1.73956,3.88518-3.88518,3.88518
			s-3.88518-1.73956-3.88518-3.88518S5.4583,4.78955,7.60393,4.78955S11.48911,6.52911,11.48911,8.67474z"/>
		<path id="Stroke-1-Copy-3" class="st1" d="M18.25624,8.67474c0-1.13349-0.91906-2.05255-2.05255-2.05255
			s-2.05255,0.91906-2.05255,2.05255s0.91906,2.05254,2.05255,2.05254S18.25624,9.80822,18.25624,8.67474z M20.08888,8.67474
			c0,2.14562-1.73956,3.88518-3.88518,3.88518s-3.88518-1.73956-3.88518-3.88518s1.73956-3.88518,3.88518-3.88518
			S20.08888,6.52911,20.08888,8.67474z"/>
		<path id="Stroke-3" class="st1" d="M2.10601,18.29608c0-1.55305,0.93012-2.74896,1.93435-2.74896h7.12713
			c1.00423,0,1.93435,1.1959,1.93435,2.74896h1.83264c0-2.47871-1.63554-4.58159-3.76699-4.58159H4.04036
			c-2.13145,0-3.76699,2.10289-3.76699,4.58159H2.10601z"/>
		<path id="Stroke-3-Copy_2_" class="st1" d="M23.53425,18.29608c0-2.47871-1.63554-4.58159-3.76698-4.58159H16.2037v1.83264
			h3.56356c1.00422,0,1.93435,1.1959,1.93435,2.74896"/>
		<rect id="Rectangle-12" class="st0" width="24" height="24"/>
	</g>
</g>
</svg>
