<?xml version="1.0" encoding="UTF-8"?><svg width="576" height="576" version="1.1" viewBox="0 0 576 576" xmlns="http://www.w3.org/2000/svg" xmlns:xlink="http://www.w3.org/1999/xlink"><!--Generated by IJSVG (https://github.com/curthard89/IJSVG)--><g transform="scale(24)"><g fill="#FFFFFF"><path d="M5.73895,11.1523c-0.909,0 -1.7652,-0.21082 -2.52881,-0.57617c-1.28943,-0.61694 -2.30328,-1.6875 -2.8233,-3c-0.12695,-0.3205 -0.22504,-0.65417 -0.28961,-1c-0.06067,-0.32495 -0.09723,-0.65814 -0.09723,-1c0,-6e-05 0,-6e-05 0,-0.00012c0,-0.34186 0.03644,-0.67499 0.09711,-0.99988c0.06451,-0.34582 0.16266,-0.6795 0.28967,-1c0.1394,-0.35199 0.31317,-0.68658 0.51971,-1c0.24005,-0.36432 0.52081,-0.70007 0.83893,-1c0.42871,-0.40417 0.92303,-0.74084 1.46472,-1c0.76361,-0.36536 1.61981,-0.57617 2.52881,-0.57617c0.59814,0 1.17474,0.08881 1.71698,0.25311c2.1499,0.65143 3.7558,2.4939 4,4.72937c0.0213,0.19513 0.03339,0.39294 0.03339,0.59357c0,0.20063 -0.01208,0.39844 -0.03339,0.59363c-0.30578,2.7995 -2.74707,4.98266 -5.71698,4.98266Z" transform="translate(12.2524, 11.4274)"></path><path fill="#6F6F6F" d="M11.4559,4.98248c-0.2442,-2.23547 -1.8501,-4.07794 -4,-4.72937c-0.54224,-0.16431 -1.11884,-0.25311 -1.71698,-0.25311c-0.909,0 -1.7652,0.21082 -2.52881,0.57617c-0.54169,0.25916 -1.03601,0.59583 -1.46472,1c-0.31812,0.29993 -0.59888,0.63568 -0.83893,1c-0.20654,0.31342 -0.38031,0.64801 -0.51971,1c-0.12701,0.3205 -0.22516,0.65417 -0.28967,1c-0.06067,0.32489 -0.09711,0.65802 -0.09711,0.99988c0,6e-05 0,6e-05 0,0.00012c0,0.34186 0.03656,0.67505 0.09723,1c0.06458,0.34583 0.16266,0.6795 0.28961,1c0.52002,1.3125 1.53387,2.38306 2.8233,3c0.76361,0.36536 1.61981,0.57617 2.52881,0.57617c2.96991,0 5.41119,-2.18317 5.71698,-4.98267c0.0213,-0.19519 0.03339,-0.39301 0.03339,-0.59363c0,-0.20062 -0.01208,-0.39843 -0.03339,-0.59356Zm-5.10168,4.43842h-1.21918v-1.09845h1.21918v1.09845Zm1.26184,-4.25666l-0.16016,0.14752l-0.38843,0.35779c-0.43896,0.40094 -0.71326,0.73047 -0.71326,1.55438h-1.21918v-0.27466c0,-0.60419 0.27429,-1.15338 0.7132,-1.55438l0.75592,-0.69202c0.22552,-0.19775 0.35968,-0.47235 0.35968,-0.77447c0,-0.60419 -0.54865,-1.09851 -1.21924,-1.09851c-0.67053,0 -1.21918,0.49432 -1.21918,1.09851h-1.21918c0,-1.21381 1.09119,-2.19702 2.43836,-2.19702c0.66748,0 1.27112,0.24237 1.7113,0.63354c0.4483,0.39838 0.72711,0.95105 0.72711,1.56348c2e-05,0.48334 -0.21947,0.92273 -0.56694,1.23584Z" transform="translate(12.2524, 11.4274)"></path><path fill="#A0A0A0" d="M3.00001,17v-1h4.15875c-0.0484,-0.32745 -0.08197,-0.65955 -0.08197,-1h-2.07678v-1h2.15875c0.05048,-0.34149 0.12134,-0.67633 0.22064,-1h-4.37939v-1h4.78015c0.17151,-0.34985 0.36829,-0.68506 0.59479,-1h-3.37494v-1h4.24603c1.30054,-1.23584 3.0788,-2 5.04266,-2c0.59076,0 1.1618,0.07648 1.7113,0.20654v-2.20654l-6,-6h-8c-1.09998,0 -2,0.90002 -2,2v16c0,1.09998 0.90002,2 2,2h7.24609c-0.86273,-0.81976 -1.51294,-1.84711 -1.8667,-3h-4.37938Zm6,-15.5l5.5,5.5h-5.5v-5.5Z" transform="translate(3.70832, 2.00358)"></path><path d="M0,0v5.5h5.5Z" transform="translate(12.7083, 3.50358)"></path><path d="M0,0h1.21918v1.09845h-1.21918Z" transform="translate(17.3875, 19.7499)"></path><path d="M2.43836,0c-1.34717,0 -2.43836,0.98322 -2.43836,2.19702h1.21918c0,-0.60419 0.54865,-1.09851 1.21918,-1.09851c0.67059,0 1.21924,0.49432 1.21924,1.09851c0,0.30212 -0.13416,0.57672 -0.35968,0.77447l-0.75592,0.69202c-0.4389,0.401 -0.7132,0.9502 -0.7132,1.55438v0.27466h1.21918c0,-0.82391 0.27429,-1.15344 0.71326,-1.55438l0.38843,-0.35779l0.16016,-0.14752c0.34747,-0.31311 0.56696,-0.7525 0.56696,-1.23584c0,-0.61243 -0.27881,-1.1651 -0.72711,-1.56348c-0.4402,-0.39117 -1.04384,-0.63354 -1.71132,-0.63354Z" transform="translate(15.5587, 13.1588)"></path></g></g></svg>