<?xml version="1.0" encoding="UTF-8"?><svg width="576" height="576" version="1.1" viewBox="0 0 576 576" xmlns="http://www.w3.org/2000/svg" xmlns:xlink="http://www.w3.org/1999/xlink"><!--Generated by IJSVG (https://github.com/curthard89/IJSVG)--><g transform="scale(24)"><g stroke="none" stroke-width="1"><use fill="none" fill-rule="evenodd" stroke="none" stroke-width="1" xlink:href="#path-1"></use><use fill="#6F6F6F" transform="translate(3.71874, 4.78955)" xlink:href="#path-2"></use><use fill="#6F6F6F" transform="translate(12.3185, 4.78955)" xlink:href="#path-2"></use><path fill="#6F6F6F" d="M1.83264,4.58159c0,-1.55306 0.930122,-2.74896 1.93435,-2.74896h7.12713c1.00423,0 1.93435,1.1959 1.93435,2.74896c0,0.506069 0.41025,0.916319 0.916319,0.916319c0.506069,0 0.916319,-0.41025 0.916319,-0.916319c0,-2.47871 -1.63554,-4.58159 -3.76699,-4.58159h-7.12713c-2.13145,0 -3.76699,2.10289 -3.76699,4.58159c0,0.506069 0.41025,0.916319 0.916319,0.916319c0.506069,0 0.916319,-0.41025 0.916319,-0.916319Z" transform="translate(0.273376, 13.7145)"></path><path fill="#6F6F6F" d="M0.916319,1.83264h3.56356c1.00423,0 1.93435,1.1959 1.93435,2.74896c0,0.506069 0.41025,0.916319 0.916319,0.916319c0.506069,0 0.916319,-0.41025 0.916319,-0.916319c0,-2.47871 -1.63554,-4.58159 -3.76699,-4.58159h-3.56356c-0.506069,0 -0.916319,0.41025 -0.916319,0.916319c0,0.506069 0.41025,0.916319 0.916319,0.916319Z" transform="translate(15.2874, 13.7145)"></path><use fill="none" fill-rule="evenodd" xlink:href="#path-1"></use></g></g><defs><path id="path-1" d="M0,0h24v24h-24Z"></path><path id="path-2" d="M5.93773,3.88518c0,-1.13349 -0.919059,-2.05255 -2.05255,-2.05255c-1.13349,0 -2.05255,0.919059 -2.05255,2.05255c0,1.13349 0.919059,2.05255 2.05255,2.05255c1.13349,0 2.05255,-0.919059 2.05255,-2.05255Zm1.83264,0c0,2.14562 -1.73956,3.88518 -3.88518,3.88518c-2.14562,0 -3.88518,-1.73956 -3.88518,-3.88518c0,-2.14562 1.73956,-3.88518 3.88518,-3.88518c2.14562,0 3.88518,1.73956 3.88518,3.88518Z"></path></defs></svg>