<?xml version="1.0" encoding="UTF-8"?>
<svg width="24px" height="24px" viewBox="0 0 24 24" version="1.1" xmlns="http://www.w3.org/2000/svg" xmlns:xlink="http://www.w3.org/1999/xlink">
    <!-- Generator: Sketch 47.1 (45422) - http://www.bohemiancoding.com/sketch -->
    <title>paste</title>
    <desc>Created with Sketch.</desc>
    <defs></defs>
    <g id="actions" stroke="none" stroke-width="1" fill="none" fill-rule="evenodd">
        <g id="paste">
            <g id="more-horiz">
                <polygon id="Shape" points="0 0 24 0 24 24 0 24"></polygon>
            </g>
            <g id="paste_template">
                <path d="M19,2 L14.8,2 C14.4,0.8 13.3,0 12,0 C10.7,0 9.6,0.8 9.2,2 L5,2 C3.9,2 3,2.9 3,4 L3,20 C3,21.1 3.9,22 5,22 L19,22 C20.1,22 21,21.1 21,20 L21,4 C21,2.9 20.1,2 19,2 Z M12,2 C12.6,2 13,2.5 13,3 C13,3.5 12.6,4 12,4 C11.4,4 11,3.5 11,3 C11,2.5 11.4,2 12,2 Z M19,20 L5,20 L5,4 L7,4 L7,7 L17,7 L17,4 L19,4 L19,20 Z" id="Shape" fill="#585D63" fill-rule="nonzero"></path>
                <polygon id="Shape" points="0 0 24 0 24 24 0 24"></polygon>
            </g>
            <rect id="Rectangle-12" x="0" y="0" width="24" height="24"></rect>
        </g>
    </g>
</svg>
