<?xml version="1.0" encoding="UTF-8"?><svg width="576" height="576" version="1.1" viewBox="0 0 576 576" xmlns="http://www.w3.org/2000/svg" xmlns:xlink="http://www.w3.org/1999/xlink"><!--Generated by IJSVG (https://github.com/curthard89/IJSVG)--><g transform="scale(24)"><g fill="none" fill-rule="evenodd" stroke="none" stroke-width="1"><use fill="none" fill-rule="evenodd" stroke="none" stroke-width="1" xlink:href="#path-1"></use><g stroke="none" stroke-width="1"><path fill="#6F6F6F" d="M16,2h-4.2c-0.4,-1.2 -1.5,-2 -2.8,-2c-1.3,0 -2.4,0.8 -2.8,2h-4.2c-1.1,0 -2,0.9 -2,2v16c0,1.1 0.9,2 2,2h14c1.1,0 2,-0.9 2,-2v-16c0,-1.1 -0.9,-2 -2,-2Zm-7,0c0.6,0 1,0.5 1,1c0,0.5 -0.4,1 -1,1c-0.6,0 -1,-0.5 -1,-1c0,-0.5 0.4,-1 1,-1Zm7,18h-14v-16h2v3h10v-3h2v16Z" transform="translate(3, 0)"></path><use fill="none" fill-rule="evenodd" xlink:href="#path-1"></use></g><use xlink:href="#path-1"></use></g></g><defs><path id="path-1" d="M0,0h24v24h-24Z"></path></defs></svg>