<?xml version="1.0" encoding="UTF-8"?><svg width="576" height="576" version="1.1" viewBox="0 0 576 576" xmlns="http://www.w3.org/2000/svg" xmlns:xlink="http://www.w3.org/1999/xlink"><!--Generated by IJSVG (https://github.com/curthard89/IJSVG)--><g transform="scale(24)"><g fill="none" fill-rule="evenodd" stroke="none" stroke-width="1"><path d="M0,0h24v24h-24Z"></path><g transform="translate(3, 3)"><g fill="#FFFFFF" fill-rule="evenodd" stroke="none" stroke-width="1"><g fill="#7371CC" fill-rule="evenodd" stroke="none" stroke-width="1"><path mask="url(#mask-1)" d="M16.134,18h-14.268c-1.026,0 -1.866,-0.84 -1.866,-1.866v-14.268c0,-1.026 0.84,-1.866 1.866,-1.866h14.268c1.026,0 1.866,0.84 1.866,1.866v14.268c0,1.026 -0.84,1.866 -1.866,1.866" transform="translate(-0.0002, 0)"></path></g><path d="M1.611,3.76h1.439c0.426,0 0.751,-0.101 0.975,-0.301c0.224,-0.2 0.336,-0.487 0.336,-0.859c0,-0.383 -0.112,-0.694 -0.339,-0.93c-0.224,-0.236 -0.537,-0.357 -0.933,-0.365h-1.478v2.455Zm0,1.305v2.756h-1.611v-7.821h3.05c0.587,0 1.104,0.108 1.55,0.322c0.446,0.215 0.788,0.521 1.029,0.917c0.24,0.395 0.36,0.845 0.36,1.35c0,0.767 -0.263,1.37 -0.787,1.813c-0.525,0.442 -1.251,0.663 -2.178,0.663h-1.413Z" transform="translate(2.9632, 5.117)"></path><path d="M1.553,3.072c0.411,-0.494 0.929,-0.741 1.552,-0.741c1.261,0 1.899,0.732 1.917,2.196v3.723h-1.552v-3.68c0,-0.332 -0.071,-0.579 -0.215,-0.738c-0.143,-0.159 -0.382,-0.239 -0.714,-0.239c-0.455,0 -0.785,0.175 -0.988,0.526v4.131h-1.553v-8.25h1.553v3.072Z" transform="translate(10.1374, 4.6878)"></path></g></g></g></g><defs><mask id="mask-1" maskContentUnits="userSpaceOnUse" maskUnits="objectBoundingBox"><g fill="#FFFFFF" transform="translate(0.0002, 0)"><path d="M8.9999,0h-8.9999v18h8.9999h8.9999v-18Z"></path></g></mask></defs></svg>