<?xml version="1.0" encoding="UTF-8"?><svg width="576" height="576" version="1.1" viewBox="0 0 576 576" xmlns="http://www.w3.org/2000/svg" xmlns:xlink="http://www.w3.org/1999/xlink"><!--Generated by IJSVG (https://github.com/curthard89/IJSVG)--><g transform="scale(24)"><g fill="none"><path d="M0,0h24v24h-24Z"></path><g fill="#6F6F6F"><path d="M16.275,0h-14.55c-0.953,0 -1.72498,0.77197 -1.72498,1.72498v14.5501c1e-05,0.953 0.77198,1.72497 1.72498,1.72497h14.55c0.95203,0 1.72504,-0.77197 1.72504,-1.72498v-14.55c3.55271e-15,-0.95301 -0.77301,-1.72498 -1.72504,-1.72498Zm-0.27496,16h-14v-14h14v14Z" transform="translate(3.00042, 3)"></path></g></g><g fill="#6F6F6F"><path mask="url(#mask-1)" d="M0,0h11.0918v11.0918h-11.0918Z" transform="translate(6.04372, 6.56022)"></path><path mask="url(#mask-2)" d="M0,0h6.57292v6.57292h-6.57292Z" transform="translate(11.3842, 5.73861)"></path></g></g><defs><mask id="mask-1" maskContentUnits="userSpaceOnUse" maskUnits="objectBoundingBox"><g fill="#FFFFFF" transform="translate(-6.04372, -6.56022)"><path d="M4.51888,4.51888v-4.51888c-2.50592,0 -4.51888,2.01296 -4.51888,4.51888c0,2.50592 2.01296,4.51888 4.51888,4.51888c2.50592,0 4.51888,-2.01296 4.51888,-4.51888h-4.51888Z" transform="translate(7.27604, 7.52474)"></path></g></mask><mask id="mask-2" maskContentUnits="userSpaceOnUse" maskUnits="objectBoundingBox"><g fill="#FFFFFF" transform="translate(-11.3842, -5.73861)"><path d="M4.51888,4.51888c0,-2.50592 -2.01295,-4.51888 -4.51888,-4.51888v4.51888h4.51888Z" transform="translate(12.6165, 6.70312)"></path></g></mask></defs></svg>