<?xml version="1.0" encoding="UTF-8"?><svg width="576" height="576" version="1.1" viewBox="0 0 576 576" xmlns="http://www.w3.org/2000/svg" xmlns:xlink="http://www.w3.org/1999/xlink"><!--Generated by IJSVG (https://github.com/curthard89/IJSVG)--><g transform="scale(24)"><g fill="none"><g fill="none"><path d="M0,6.91754h6.90631c-0.44653,-3.58234 -3.26917,-6.42969 -6.83899,-6.91754l-0.06732,6.91754Z" transform="translate(12.9744, 4.11069)"></path><path d="M6.99023,8.94354l0.08691,-8.94354c-3.9768,0.45605 -7.07714,3.8388 -7.07714,7.93573c0,4.40723 3.58545,7.99219 7.99219,7.99219c4.06512,0 7.42358,-3.05237 7.92151,-6.98438c3.55271e-15,-1.77636e-15 -8.92347,-1.77636e-15 -8.92347,-1.77636e-15Z" transform="translate(3.96465, 4.08469)"></path></g><path d="M0,0h24v24h-24Z"></path><g fill="#FFFFFF"><use transform="translate(2.14109, 2.06944)" xlink:href="#path-1"></use><path mask="url(#mask-1)" fill="#6F6F6F" d="M0,0h24.375v24.375h-24.375Z" transform="translate(-0.11585, -0.1875)"></path></g><g fill="#6F6F6F"><path mask="url(#mask-2)" d="M0,0h14.4444v14.4444h-14.4444Z" transform="translate(11.6203, -1.99306)"></path></g></g></g><defs><mask id="mask-1" maskContentUnits="userSpaceOnUse" maskUnits="objectBoundingBox"><g fill="#FFFFFF" transform="translate(0.11585, 0.1875)"><use transform="translate(2.14109, 2.06944)" xlink:href="#path-1"></use></g></mask><mask id="mask-2" maskContentUnits="userSpaceOnUse" maskUnits="objectBoundingBox"><g fill="#FFFFFF" transform="translate(-11.6203, 1.99306)"><path d="M9.93056,9.93056c0,-5.50695 -4.42361,-9.93056 -9.93056,-9.93056v9.93056h9.93056Z" transform="translate(13.8772, 0.26388)"></path></g></mask><path id="path-1" d="M9.93056,9.93056v-9.93056c-5.50695,0 -9.93056,4.42362 -9.93056,9.93056c0,5.50694 4.42361,9.93056 9.93056,9.93056c5.50695,0 9.93055,-4.42362 9.93055,-9.93056h-9.93055Z"></path></defs></svg>