<?xml version="1.0" encoding="UTF-8"?><svg width="576" height="576" version="1.1" viewBox="0 0 576 576" xmlns="http://www.w3.org/2000/svg" xmlns:xlink="http://www.w3.org/1999/xlink"><!--Generated by IJSVG (https://github.com/curthard89/IJSVG)--><g transform="scale(24)"><g fill="none"><g fill="#6F6F6F"><path d="M4.78564,8.841h4.04004c-0.46612,-4.65442 -4.17346,-8.36774 -8.82568,-8.841v4.04169c2.44183,0.42413 4.36798,2.35504 4.78564,4.79931Z" transform="translate(13, 2.159)"></path><path d="M9.88428,15.7178c-3.24463,0 -5.88428,-2.63965 -5.88428,-5.88379c0,-2.90582 2.11932,-5.32013 4.89209,-5.79395v-4.04004c-4.98602,0.49933 -8.89209,4.71869 -8.89209,9.83398c0,5.4502 4.43408,9.88379 9.88428,9.88379c5.10999,0 9.32623,-3.89746 9.8327,-8.87598h-4.04169c-0.48022,2.76478 -2.89111,4.87599 -5.79101,4.87599Z" transform="translate(2.10791, 2.1582)"></path></g><path d="M0,0h24v24h-24Z"></path></g></g></svg>