<?xml version="1.0" encoding="utf-8"?>
<!-- Generator: Adobe Illustrator 22.0.1, SVG Export Plug-In . SVG Version: 6.00 Build 0)  -->
<svg version="1.1" id="Layer_1" xmlns="http://www.w3.org/2000/svg" xmlns:xlink="http://www.w3.org/1999/xlink" x="0px" y="0px"
	 viewBox="0 0 24 24" style="enable-background:new 0 0 24 24;" xml:space="preserve">
<style type="text/css">
	.st0{fill:#585D63;}
	.st1{fill:none;}
</style>
<title>pie chart 2</title>
<desc>Created with Sketch.</desc>
<g>
	<path class="st0" d="M17.78564,11h4.04004C21.35956,6.34558,17.65222,2.63226,13,2.159v4.04169
		C15.44183,6.62482,17.36798,8.55573,17.78564,11z"/>
	<path class="st0" d="M11.99219,17.87598c-3.24463,0-5.88428-2.63965-5.88428-5.88379c0-2.90582,2.11932-5.32013,4.89209-5.79395
		V2.1582c-4.98602,0.49933-8.89209,4.71869-8.89209,9.83398c0,5.4502,4.43408,9.88379,9.88428,9.88379
		c5.10999,0,9.32623-3.89746,9.8327-8.87598H17.7832C17.30298,15.76477,14.89209,17.87598,11.99219,17.87598z"/>
</g>
<rect class="st1" width="24" height="24"/>
</svg>
