<?xml version="1.0" encoding="utf-8"?>
<!-- Generator: Adobe Illustrator 22.0.1, SVG Export Plug-In . SVG Version: 6.00 Build 0)  -->
<svg version="1.1" id="Layer_1" xmlns="http://www.w3.org/2000/svg" xmlns:xlink="http://www.w3.org/1999/xlink" x="0px" y="0px"
	 viewBox="0 0 24 24" style="enable-background:new 0 0 24 24;" xml:space="preserve">
<style type="text/css">
	.st0{fill:none;}
	.st1{fill:#585D63;}
</style>
<title>pie chart</title>
<desc>Created with Sketch.</desc>
<g>
	<path class="st0" d="M13.00977,11h6.90631c-0.44653-3.58234-3.26917-6.42969-6.83899-6.91754L13.00977,11z"/>
	<path class="st0" d="M10.99023,13l0.08691-8.94354C7.10034,4.51251,4,7.89526,4,11.99219
		c0,4.40723,3.58545,7.99219,7.99219,7.99219c4.06512,0,7.42358-3.05237,7.92151-6.98438H10.99023z"/>
	<path class="st1" d="M11.99219,2C6.48242,2,2,6.48242,2,11.99219s4.48242,9.99219,9.99219,9.99219s9.99219-4.48242,9.99219-9.99219
		S17.50195,2,11.99219,2z M19.91608,11h-6.90631l0.06732-6.91754C16.64691,4.57031,19.46954,7.41766,19.91608,11z
		 M11.99219,19.98438C7.58545,19.98438,4,16.39941,4,11.99219c0-4.09692,3.10034-7.47968,7.07715-7.93573L10.99023,13h8.92346
		C19.41577,16.93201,16.05731,19.98438,11.99219,19.98438z"/>
</g>
<rect class="st0" width="24" height="24"/>
</svg>
