<?xml version="1.0" encoding="UTF-8"?><svg width="576" height="576" version="1.1" viewBox="0 0 576 576" xmlns="http://www.w3.org/2000/svg" xmlns:xlink="http://www.w3.org/1999/xlink"><!--Generated by IJSVG (https://github.com/curthard89/IJSVG)--><g transform="scale(24)"><g fill="none"><g fill="none"><path d="M6.29126,5.5083l6.61316,-2.88464l-6.61414,-2.62366l-6.29028,2.62293Z" transform="translate(5.4939, 6.0791)"></path><path fill="#6F6F6F" d="M0.7217,5.58733l-0.00293,0.00641l8.7749,4.02393c0.13232,0.06055 0.2749,0.09082 0.41699,0.09082c0.13623,0 0.27197,-0.02734 0.3999,-0.08301l9.22461,-4.02441l-0.00391,-0.00903c0.23334,-0.10187 0.43243,-0.2832 0.53418,-0.53882c0.20312,-0.51318 -0.04785,-1.09473 -0.56055,-1.29834l-9.22559,-3.65918c-0.24121,-0.0957 -0.51318,-0.09326 -0.75342,0.00684l-8.7749,3.65918c-0.50977,0.2124 -0.75098,0.79785 -0.53809,1.30762c0.10054,0.2415 0.28847,0.41661 0.50881,0.51799Zm9.19824,-3.48236l6.61414,2.62366l-6.61316,2.88464l-6.29126,-2.88537l6.29028,-2.62293Z" transform="translate(1.86424, 3.97413)"></path><path fill="#6F6F6F" d="M18.7398,0.2212l-8.81543,3.84424l-8.36817,-3.83692c-0.50342,-0.22852 -1.0957,-0.00977 -1.32617,0.49219c-0.22998,0.50195 -0.00977,1.0957 0.49219,1.32617l8.7749,4.02344c0.13232,0.06055 0.2749,0.09082 0.41699,0.09082c0.13623,0 0.27197,-0.02734 0.3999,-0.08301l9.22461,-4.02344c0.50684,-0.2207 0.73828,-0.81055 0.51758,-1.31689c-0.2207,-0.50488 -0.80859,-0.73633 -1.3164,-0.5166Z" transform="translate(1.86084, 11.1797)"></path><path fill="#6F6F6F" d="M18.7397,0.22168l-8.81543,3.8457l-8.36816,-3.83789c-0.50342,-0.22949 -1.0957,-0.01074 -1.32617,0.49219c-0.22998,0.50195 -0.00977,1.0957 0.49219,1.32617l8.7749,4.02441c0.13231,0.06056 0.2744,0.09083 0.41698,0.09083c0.13623,0 0.27197,-0.02734 0.3999,-0.08301l9.22461,-4.02441c0.50684,-0.22168 0.73828,-0.81055 0.51758,-1.31641c-0.2207,-0.50683 -0.80859,-0.73828 -1.3164,-0.51758Z" transform="translate(1.86085, 14.8369)"></path></g><path d="M0,0h24v24h-24Z"></path></g></g></svg>