<?xml version="1.0" encoding="utf-8"?>
<!-- Generator: Adobe Illustrator 22.0.1, SVG Export Plug-In . SVG Version: 6.00 Build 0)  -->
<svg version="1.1" id="Layer_1" xmlns="http://www.w3.org/2000/svg" xmlns:xlink="http://www.w3.org/1999/xlink" x="0px" y="0px"
	 viewBox="0 0 24 24" style="enable-background:new 0 0 24 24;" xml:space="preserve">
<style type="text/css">
	.st0{fill:none;}
	.st1{fill:#585D63;}
</style>
<title>platform@4x</title>
<desc>Created with Sketch.</desc>
<g>
	<polygon class="st0" points="11.78516,11.5874 18.39832,8.70276 11.78418,6.0791 5.4939,8.70203 	"/>
	<path class="st1" d="M2.58594,9.56146L2.58301,9.56787l8.7749,4.02393c0.13232,0.06055,0.2749,0.09082,0.41699,0.09082
		c0.13623,0,0.27197-0.02734,0.3999-0.08301l9.22461-4.02441l-0.00391-0.00903c0.23334-0.10187,0.43243-0.2832,0.53418-0.53882
		c0.20312-0.51318-0.04785-1.09473-0.56055-1.29834l-9.22559-3.65918c-0.24121-0.0957-0.51318-0.09326-0.75342,0.00684
		l-8.7749,3.65918c-0.50977,0.2124-0.75098,0.79785-0.53809,1.30762C2.17767,9.28497,2.3656,9.46008,2.58594,9.56146z
		 M11.78418,6.0791l6.61414,2.62366l-6.61316,2.88464L5.4939,8.70203L11.78418,6.0791z"/>
	<path class="st1" d="M20.60059,11.40088l-8.81543,3.84424L3.41699,11.4082c-0.50342-0.22852-1.0957-0.00977-1.32617,0.49219
		c-0.22998,0.50195-0.00977,1.0957,0.49219,1.32617l8.7749,4.02344c0.13232,0.06055,0.2749,0.09082,0.41699,0.09082
		c0.13623,0,0.27197-0.02734,0.3999-0.08301l9.22461-4.02344c0.50684-0.2207,0.73828-0.81055,0.51758-1.31689
		C21.69629,11.4126,21.1084,11.18115,20.60059,11.40088z"/>
	<path class="st1" d="M20.60059,15.05859l-8.81543,3.8457l-8.36816-3.83789c-0.50342-0.22949-1.0957-0.01074-1.32617,0.49219
		c-0.22998,0.50195-0.00977,1.0957,0.49219,1.32617l8.7749,4.02441C11.49023,20.96973,11.63232,21,11.7749,21
		c0.13623,0,0.27197-0.02734,0.3999-0.08301l9.22461-4.02441c0.50684-0.22168,0.73828-0.81055,0.51758-1.31641
		C21.69629,15.06934,21.1084,14.83789,20.60059,15.05859z"/>
</g>
<rect class="st0" width="24" height="24"/>
</svg>
