<?xml version="1.0" encoding="UTF-8"?><svg width="576" height="576" version="1.1" viewBox="0 0 576 576" xmlns="http://www.w3.org/2000/svg" xmlns:xlink="http://www.w3.org/1999/xlink"><!--Generated by IJSVG (https://github.com/curthard89/IJSVG)--><g transform="scale(24)"><g fill="none" fill-rule="evenodd" stroke="none" stroke-width="1"><path d="M0,0h24v24h-24Z"></path><g transform="translate(2, 3)"><g fill="#6F6F6F" fill-rule="evenodd" stroke="none" stroke-width="1"><path d="M16,16h-14v-14h12.7l1.8,-1.9c-0.1,-0.1 -0.3,-0.1 -0.5,-0.1h-14c-1.1,0 -2,0.9 -2,2v14c0,1.1 0.9,2 2,2h14c1.1,0 2,-0.9 2,-2v-9.5l-2,2v7.5v0Z" transform="translate(0.5, 0)"></path><path d="M1.6,4.8l-1.6,1.6l5.8,5.9l10.5,-10.6l-1.6,-1.7l-8.9,9Z" transform="translate(3.9, 0.8)"></path></g></g></g></g></svg>