<?xml version="1.0" encoding="utf-8"?>
<!-- Generator: Adobe Illustrator 22.0.1, SVG Export Plug-In . SVG Version: 6.00 Build 0)  -->
<svg version="1.1" id="Layer_1" xmlns="http://www.w3.org/2000/svg" xmlns:xlink="http://www.w3.org/1999/xlink" x="0px" y="0px"
	 viewBox="0 0 24 24" style="enable-background:new 0 0 24 24;" xml:space="preserve">
<style type="text/css">
	.st0{fill:none;stroke:#000000;stroke-miterlimit:10;}
	.st1{fill:none;}
	.st2{fill:#585D63;}
</style>
<title>policies</title>
<desc>Created with Sketch.</desc>
<path class="st0" d="M17.53125,4.03125"/>
<path class="st0" d="M19.02166,5.39607"/>
<g>
	<path class="st1" d="M0,0v24h24V0H0z"/>
	<path class="st2" d="M18.5,19h-14V5h12.05457l1.99774-1.99774C18.53418,3.0022,18.51819,3,18.5,3h-14c-1.09998,0-2,0.90002-2,2v14
		c0,1.09998,0.90002,2,2,2h14c1.09998,0,2-0.90002,2-2v-8.92957l-2,2V19z"/>
	<polygon class="st2" points="20.59998,3.79999 11.70001,12.79999 7.5,8.59998 5.90002,10.20001 11.70001,16.09998 22.20001,5.5 	
		"/>
</g>
</svg>
