<?xml version="1.0" encoding="UTF-8"?><svg width="576" height="576" version="1.1" viewBox="0 0 576 576" xmlns="http://www.w3.org/2000/svg" xmlns:xlink="http://www.w3.org/1999/xlink"><!--Generated by IJSVG (https://github.com/curthard89/IJSVG)--><g transform="scale(24)"><g transform="translate(2.88074, 2.0603)"><g fill="#6F7070"><path d="M11.9576,0.99647v0c0,0.55105 0.44542,0.99647 0.99647,0.99647h2.58085l-7.09983,7.09982c-0.38862,0.38862 -0.38862,1.01739 0,1.40601c0.38763,0.38762 1.0164,0.38762 1.40502,0l7.09982,-7.09982v2.57985c0,0.55105 0.44542,0.99647 0.99647,0.99647c0.55104,0 0.99647,-0.44542 0.99647,-0.99647v-4.4263c0,-0.85696 -0.69454,-1.55249 -1.55249,-1.55249h-4.4263c-0.55106,-1e-05 -0.99648,0.44641 -0.99648,0.99646v0Zm3.98586,15.9435h-13.9505v-13.9505h7.97173v-1.99293h-7.97173c-1.10607,0 -1.99293,0.89682 -1.99293,1.99293v13.9505c0,1.09711 0.88686,1.99293 1.99293,1.99293h13.9505c1.09611,0 1.99293,-0.89582 1.99293,-1.99293v-7.97173h-1.99293c0,0 0,7.97172 0,7.97172Z" transform="translate(0, -0.0684)"></path></g></g></g></svg>