<?xml version="1.0" encoding="utf-8"?>
<!-- Generator: Adobe Illustrator 22.1.0, SVG Export Plug-In . SVG Version: 6.00 Build 0)  -->
<svg version="1.1" id="Layer_1" xmlns="http://www.w3.org/2000/svg" xmlns:xlink="http://www.w3.org/1999/xlink" x="0px" y="0px"
	 viewBox="0 0 24 24" style="enable-background:new 0 0 24 24;" xml:space="preserve">
<style type="text/css">
	.st0{fill:#585D63;}
</style>
<g id="actions">
	<g id="pop-out-view">
		<g id="Page-1" transform="translate(2.880737, 2.060303)">
			<g id="Clip-2">
			</g>
			<path id="Fill-1" class="st0" d="M12,0.9L12,0.9c0,0.6,0.4,1,1,1h2.6L8.4,9C8,9.4,8,10,8.4,10.4c0.4,0.4,1,0.4,1.4,0l7.1-7.1v2.6
				c0,0.6,0.4,1,1,1c0.6,0,1-0.4,1-1V1.5c0-0.9-0.7-1.6-1.6-1.6H13C12.4-0.1,12,0.4,12,0.9L12,0.9z M15.9,16.9H2v-14h8v-2H2
				c-1.1,0-2,0.9-2,2v14c0,1.1,0.9,2,2,2h14c1.1,0,2-0.9,2-2v-8h-2C15.9,8.9,15.9,16.9,15.9,16.9z"/>
		</g>
	</g>
</g>
</svg>
