<?xml version="1.0" encoding="UTF-8"?><svg width="576" height="576" version="1.1" viewBox="0 0 576 576" xmlns="http://www.w3.org/2000/svg" xmlns:xlink="http://www.w3.org/1999/xlink"><!--Generated by IJSVG (https://github.com/curthard89/IJSVG)--><g transform="scale(24)"><g fill="none"><path d="M0,0v24h24v-24h-24Zm20,20c0,1.09998 -0.90002,2 -2,2h-12c-1.09998,0 -2,-0.90002 -2,-2v-16c0,-1.09998 0.90002,-2 2,-2h8l6,6v12Z"></path><path fill="#A0A0A0" d="M2,0c-1.09998,0 -2,0.90002 -2,2v16c0,1.09998 0.90002,2 2,2h12c1.09998,0 2,-0.90002 2,-2v-12l-6,-6h-8Zm1,12h8v1h-8v-1Zm8,5h-8v-1h8v1Zm2,-2h-8v-1h8v1Zm0,-4h-8v-1h8v1Zm-4,-4v-5.5l5.5,5.5h-5.5Z" transform="translate(4, 2)"></path></g></g></svg>