<?xml version="1.0" encoding="UTF-8"?><svg width="576" height="576" version="1.1" viewBox="0 0 576 576" xmlns="http://www.w3.org/2000/svg" xmlns:xlink="http://www.w3.org/1999/xlink"><!--Generated by IJSVG (https://github.com/curthard89/IJSVG)--><g transform="scale(24)"><g fill="none" fill-rule="evenodd" stroke="none" stroke-width="1"><path d="M0,0h24v24h-24Z"></path><g transform="translate(3, 3)"><g fill="#FFFFFF" fill-rule="evenodd" stroke="none" stroke-width="1"><g fill="#306998" fill-rule="evenodd" stroke="none" stroke-width="1"><path mask="url(#mask-1)" d="M16.134,18h-14.268c-1.026,0 -1.866,-0.84 -1.866,-1.866v-14.268c0,-1.026 0.84,-1.866 1.866,-1.866h14.268c1.026,0 1.866,0.84 1.866,1.866v14.268c0,1.026 -0.84,1.866 -1.866,1.866" transform="translate(-0.0002, 0)"></path></g><path d="M1.611,3.76h1.439c0.426,0 0.751,-0.101 0.975,-0.301c0.224,-0.2 0.336,-0.487 0.336,-0.859c0,-0.383 -0.112,-0.694 -0.339,-0.93c-0.224,-0.236 -0.537,-0.357 -0.933,-0.365h-1.478v2.455Zm0,1.305v2.756h-1.611v-7.821h3.05c0.587,0 1.104,0.108 1.55,0.322c0.446,0.215 0.788,0.521 1.029,0.917c0.24,0.395 0.36,0.845 0.36,1.35c0,0.767 -0.263,1.37 -0.787,1.813c-0.525,0.442 -1.251,0.663 -2.178,0.663h-1.413Z" transform="translate(3.0218, 5.117)"></path><path d="M2.75,3.614l1.074,-3.614h1.666l-2.337,6.714l-0.129,0.306c-0.347,0.759 -0.92,1.139 -1.718,1.139c-0.226,0 -0.455,-0.034 -0.688,-0.103v-1.176l0.236,0.005c0.294,0 0.513,-0.044 0.659,-0.134c0.144,-0.089 0.258,-0.238 0.341,-0.446l0.182,-0.478l-2.036,-5.827h1.671l1.079,3.614Z" transform="translate(10.1709, 7.1262)"></path></g></g></g></g><defs><mask id="mask-1" maskContentUnits="userSpaceOnUse" maskUnits="objectBoundingBox"><g fill="#FFFFFF" transform="translate(0.0002, 0)"><path d="M8.9999,0h-8.9999v18h8.9999h8.9999v-18Z"></path></g></mask></defs></svg>