<?xml version="1.0" encoding="utf-8"?>
<!-- Generator: Adobe Illustrator 22.0.1, SVG Export Plug-In . SVG Version: 6.00 Build 0)  -->
<svg version="1.1" id="Layer_1" xmlns="http://www.w3.org/2000/svg" xmlns:xlink="http://www.w3.org/1999/xlink" x="0px" y="0px"
	 viewBox="0 0 24 24" style="enable-background:new 0 0 24 24;" xml:space="preserve">
<style type="text/css">
	.st0{filter:url(#Adobe_OpacityMaskFilter);}
	.st1{fill:#FFFFFF;}
	.st2{mask:url(#mask-2_1_);fill:#585D63;}
	.st3{fill:#585D63;}
	.st4{fill:none;}
</style>
<title>real user@4x</title>
<desc>Created with Sketch.</desc>
<g id="objects">
	<g id="real-user">
		<g id="Page-1" transform="translate(8.000000, 1.500000)">
			<g id="Group-3" transform="translate(1.000000, 0.930200)">
				<g id="Clip-2">
				</g>
				<defs>
					<filter id="Adobe_OpacityMaskFilter" filterUnits="userSpaceOnUse" x="0.8717" y="-0.39525" width="3.732" height="3.732">
						<feColorMatrix  type="matrix" values="1 0 0 0 0  0 1 0 0 0  0 0 1 0 0  0 0 0 1 0"/>
					</filter>
				</defs>
				<mask maskUnits="userSpaceOnUse" x="0.8717" y="-0.39525" width="3.732" height="3.732" id="mask-2_1_">
					<g class="st0">
						<polygon id="path-1_1_" class="st1" points="0.8717,-0.39505 4.6037,-0.39505 4.6037,3.33675 0.8717,3.33675 						"/>
					</g>
				</mask>
				<path id="Fill-1" class="st2" d="M2.7377-0.39525c1.03,0,1.866,0.835,1.866,1.866c0,1.03-0.836,1.866-1.866,1.866
					c-1.031,0-1.866-0.836-1.866-1.866C0.8717,0.43975,1.7067-0.39525,2.7377-0.39525"/>
			</g>
			<g id="Group-6" transform="translate(0.000000, 0.930200)">
				<g id="Clip-5">
				</g>
				<path id="Fill-4" class="st3" d="M6.9663,11.03985l-0.479,0.333c-0.293,0.203-0.478,0.527-0.505,0.882l-0.473,6.186
					c-0.047,0.618-0.562,1.094-1.181,1.094h-1.182c-0.619,0-1.133-0.476-1.181-1.094l-0.472-6.186
					c-0.027-0.355-0.213-0.679-0.505-0.882l-0.48-0.333c-0.318-0.222-0.508-0.584-0.508-0.972v-4.528
					c0-0.587,0.431-1.086,1.012-1.171l0.442-0.064c0.503-0.074,0.997,0.182,1.227,0.636c0.438,0.865,1.674,0.865,2.112,0
					c0.23-0.454,0.724-0.71,1.228-0.636l0.441,0.064c0.582,0.085,1.013,0.584,1.013,1.171v4.528
					C7.4753,10.45585,7.2853,10.81785,6.9663,11.03985"/>
			</g>
		</g>
		<rect id="Rectangle-12" class="st4" width="24" height="24"/>
	</g>
</g>
</svg>
