<?xml version="1.0" encoding="UTF-8"?><svg width="576" height="576" version="1.1" viewBox="0 0 576 576" xmlns="http://www.w3.org/2000/svg" xmlns:xlink="http://www.w3.org/1999/xlink"><!--Generated by IJSVG (https://github.com/curthard89/IJSVG)--><g transform="scale(24)"><g fill="none"><g transform="translate(0, 0.9302)"><g fill="#6F6F6F"><path d="M6.966,6.809l-0.479,0.333c-0.293,0.203 -0.478,0.527 -0.505,0.882l-0.473,6.186c-0.047,0.618 -0.562,1.094 -1.181,1.094h-1.182c-0.619,0 -1.133,-0.476 -1.181,-1.094l-0.472,-6.186c-0.027,-0.355 -0.213,-0.679 -0.505,-0.882l-0.48,-0.333c-0.318,-0.222 -0.508,-0.584 -0.508,-0.972v-4.528c0,-0.587 0.431,-1.086 1.012,-1.171l0.442,-0.064c0.503,-0.074 0.997,0.182 1.227,0.636c0.438,0.865 1.674,0.865 2.112,0c0.23,-0.454 0.724,-0.71 1.228,-0.636l0.441,0.064c0.582,0.085 1.013,0.584 1.013,1.171v4.528c0,0.388 -0.19,0.75 -0.509,0.972" transform="translate(8.0003, 5.73085)"></path></g></g><g transform="translate(1, 0.9302)"><g fill="#6F6F6F"><path d="M1.866,0c1.03,0 1.866,0.835 1.866,1.866c0,1.03 -0.836,1.866 -1.866,1.866c-1.031,0 -1.866,-0.836 -1.866,-1.866c0,-1.031 0.835,-1.866 1.866,-1.866" transform="translate(8.8717, 1.10475)"></path></g></g><path d="M0,0h24v24h-24Z"></path></g></g></svg>