<?xml version="1.0" encoding="UTF-8"?><svg width="576" height="576" version="1.1" viewBox="0 0 576 576" xmlns="http://www.w3.org/2000/svg" xmlns:xlink="http://www.w3.org/1999/xlink"><!--Generated by IJSVG (https://github.com/curthard89/IJSVG)--><g transform="scale(24)"><g fill="#6F6F6F"><path d="M20.6466,7.82892c-0.38647,-0.39148 -1.01697,-0.39545 -1.40942,-0.008l-1.29907,1.28442c0.00049,-0.02991 0.0047,-0.05908 0.00488,-0.08905c0.01398,-2.39453 -0.9054,-4.65161 -2.58972,-6.35388c-1.68335,-1.70325 -3.92944,-2.6485 -6.323,-2.66241h-0.05377c-2.37463,0 -4.6098,0.91833 -6.30011,2.58972c-1.70325,1.68335 -2.6485,3.92847 -2.66248,6.323c-0.01392,2.39453 0.90546,4.65161 2.58978,6.35388c1.68335,1.70325 3.92944,2.6485 6.323,2.66241h0.05377c2.37457,0 4.60968,-0.9184 6.29999,-2.5896l-1.40033,-1.41656l-6e-05,6e-05c-1.31378,1.29987 -3.05389,2.01404 -4.90057,2.01404h-0.04083c-1.86267,-0.01099 -3.60876,-0.74609 -4.91956,-2.07086c-1.30884,-1.32471 -2.02399,-3.0788 -2.01306,-4.94141c0.01099,-1.86267 0.74609,-3.60974 2.0708,-4.91858c1.31384,-1.29987 3.05396,-2.01404 4.90063,-2.01404h0.04083c1.86267,0.01099 3.60876,0.74609 4.91858,2.07086c1.30981,1.32471 2.02496,3.0788 2.01404,4.94141c-0.00018,0.02759 -0.00397,0.05444 -0.00446,0.08197l-1.27618,-1.29126c-0.38647,-0.39148 -1.01703,-0.39545 -1.40942,-0.008c-0.3905,0.38647 -0.39447,1.01697 -0.00702,1.40845l0.27191,0.27509l1.96124,1.98425l0.73712,0.74579c0.18628,0.18823 0.43823,0.2948 0.70422,0.29584h0.00397c0.10962,0 0.21478,-0.02802 0.31683,-0.06262c0.05585,-0.01892 0.10492,-0.04651 0.15662,-0.07507c0.07953,-0.04388 0.16113,-0.08527 0.22681,-0.15021l3.0061,-2.97125c0.39045,-0.38648 0.39441,-1.01697 0.00794,-1.40839Z" transform="translate(3.04266, 3.06836)"></path><path fill="none" d="M0,0h24v24h-24Z"></path></g></g></svg>