<?xml version="1.0" encoding="utf-8"?>
<!-- Generator: Adobe Illustrator 22.0.1, SVG Export Plug-In . SVG Version: 6.00 Build 0)  -->
<svg version="1.1" id="Layer_1" xmlns="http://www.w3.org/2000/svg" xmlns:xlink="http://www.w3.org/1999/xlink" x="0px" y="0px"
	 viewBox="0 0 24 24" style="enable-background:new 0 0 24 24;" xml:space="preserve">
<style type="text/css">
	.st0{fill:#585D63;}
	.st1{fill:none;}
</style>
<title>refresh</title>
<desc>Created with Sketch.</desc>
<path class="st0" d="M23.68927,10.89728c-0.38647-0.39148-1.01697-0.39545-1.40942-0.008l-1.29907,1.28442
	c0.00049-0.02991,0.0047-0.05908,0.00488-0.08905c0.01398-2.39453-0.9054-4.65161-2.58972-6.35388
	c-1.68335-1.70325-3.92944-2.6485-6.323-2.66241h-0.05377c-2.37463,0-4.6098,0.91833-6.30011,2.58972
	c-1.70325,1.68335-2.6485,3.92847-2.66248,6.323c-0.01392,2.39453,0.90546,4.65161,2.58978,6.35388
	c1.68335,1.70325,3.92944,2.6485,6.323,2.66241h0.05377c2.37457,0,4.60968-0.9184,6.29999-2.5896l-1.40033-1.41656l-0.00006,0.00006
	c-1.31378,1.29987-3.05389,2.01404-4.90057,2.01404h-0.04083c-1.86267-0.01099-3.60876-0.74609-4.91956-2.07086
	c-1.30884-1.32471-2.02399-3.0788-2.01306-4.94141c0.01099-1.86267,0.74609-3.60974,2.0708-4.91858
	c1.31384-1.29987,3.05396-2.01404,4.90063-2.01404h0.04083c1.86267,0.01099,3.60876,0.74609,4.91858,2.07086
	c1.30981,1.32471,2.02496,3.0788,2.01404,4.94141c-0.00018,0.02759-0.00397,0.05444-0.00446,0.08197l-1.27618-1.29126
	c-0.38647-0.39148-1.01703-0.39545-1.40942-0.008c-0.3905,0.38647-0.39447,1.01697-0.00702,1.40845l0.27191,0.27509l1.96124,1.98425
	l0.73712,0.74579c0.18628,0.18823,0.43823,0.2948,0.70422,0.29584h0.00397c0.10962,0,0.21478-0.02802,0.31683-0.06262
	c0.05585-0.01892,0.10492-0.04651,0.15662-0.07507c0.07953-0.04388,0.16113-0.08527,0.22681-0.15021l3.0061-2.97125
	C24.07178,11.91919,24.07574,11.2887,23.68927,10.89728z"/>
<rect class="st1" width="24" height="24"/>
</svg>
