<?xml version="1.0" encoding="UTF-8"?><svg width="576" height="576" version="1.1" viewBox="0 0 576 576" xmlns="http://www.w3.org/2000/svg" xmlns:xlink="http://www.w3.org/1999/xlink"><!--Generated by IJSVG (https://github.com/curthard89/IJSVG)--><g transform="scale(24)"><g fill="none"><g fill="#6F6F6F"><path d="M19.35,6.03998c-0.67999,-3.44995 -3.70996,-6.03998 -7.34997,-6.03998c-2.89099,0 -5.40002,1.64001 -6.65002,4.03998c-3.01002,0.32001 -5.34998,2.86999 -5.34998,5.96002c0,3.31 2.68896,6 6,6h3.74902v-2h-3.74902c-2.21002,0 -4,-1.78998 -4,-4c-2.22045e-16,-2.21002 1.78998,-4 4,-4h0.71002c0.65997,-2.31 2.76898,-4 5.28998,-4c3.03998,0 5.5,2.46002 5.5,5.5v0.5h1.5c1.65997,0 3,1.34003 3,3c0,1.65997 -1.34003,3 -3,3h-4.75098v2h4.75098c2.76001,0 5,-2.23999 5,-5c0,-2.64001 -2.05103,-4.78003 -4.65003,-4.96002Z" transform="translate(0.00031, 2.5)"></path><path d="M6.86798,4.28491c0.34369,-0.34827 0.34369,-0.9129 0,-1.26117l-1.05157,-1.06573l-1.58832,-1.60968c-0.34369,-0.34833 -0.90082,-0.34833 -1.24451,0l-1.59869,1.62024l-1.0412,1.05518c-0.34369,0.34827 -0.34369,0.9129 0,1.26117c0.27368,0.2774 0.67865,0.32404 1.00745,0.15955c0.08405,-0.04205 0.16705,-0.08868 0.237,-0.15955l1.1377,-1.15302v8.08966c0,0.49249 0.39398,0.89178 0.88,0.89178c0.48602,0 0.88,-0.39929 0.88,-0.89178v-8.08967l1.1377,1.15302c0.0672,0.06805 0.14728,0.11176 0.2276,0.1532c0.3305,0.17071 0.74042,0.12701 1.01684,-0.1532Z" transform="translate(8.39819, 8.51551)"></path></g><path d="M0,0h24v24h-24Z"></path></g></g></svg>