<?xml version="1.0" encoding="utf-8"?>
<!-- Generator: Adobe Illustrator 22.0.1, SVG Export Plug-In . SVG Version: 6.00 Build 0)  -->
<svg version="1.1" id="Layer_1" xmlns="http://www.w3.org/2000/svg" xmlns:xlink="http://www.w3.org/1999/xlink" x="0px" y="0px"
	 viewBox="0 0 24 24" style="enable-background:new 0 0 24 24;" xml:space="preserve">
<style type="text/css">
	.st0{fill:#585D63;}
	.st1{fill:none;}
</style>
<title>remoteServices</title>
<desc>Created with Sketch.</desc>
<g id="places">
	<g id="remoteServices">
		<g id="policies_template">
			<g id="Layer_1_1_">
			</g>
		</g>
		<g id="Clip-2">
		</g>
	</g>
</g>
<g>
	<path class="st0" d="M19.35028,8.53998C18.67029,5.09003,15.64032,2.5,12.00031,2.5c-2.89099,0-5.40002,1.64001-6.65002,4.03998
		C2.34027,6.85999,0.00031,9.40997,0.00031,12.5c0,3.31,2.68896,6,6,6H9.1132v-2H6.00031c-2.21002,0-4-1.78998-4-4s1.78998-4,4-4
		h0.71002c0.65997-2.31,2.76898-4,5.28998-4c3.03998,0,5.5,2.46002,5.5,5.5v0.5h1.5c1.65997,0,3,1.34003,3,3s-1.34003,3-3,3
		h-4.20864v2h4.20864c2.76001,0,5-2.23999,5-5C24.00031,10.85999,21.94928,8.71997,19.35028,8.53998z"/>
	<path class="st0" d="M15.26617,12.80042c0.34369-0.34827,0.34369-0.9129,0-1.26117l-1.05157-1.06573l-1.58832-1.60968
		c-0.34369-0.34833-0.90082-0.34833-1.24451,0l-1.59869,1.62024l-1.0412,1.05518c-0.34369,0.34827-0.34369,0.9129,0,1.26117
		c0.27368,0.2774,0.67865,0.32404,1.00745,0.15955c0.08405-0.04205,0.16705-0.08868,0.237-0.15955l1.1377-1.15302v8.08966
		c0,0.49249,0.39398,0.89178,0.88,0.89178s0.88-0.39929,0.88-0.89178V11.6474l1.1377,1.15302
		c0.0672,0.06805,0.14728,0.11176,0.2276,0.1532C14.57983,13.12433,14.98975,13.08063,15.26617,12.80042z"/>
</g>
<rect class="st1" width="24" height="24"/>
</svg>
