<?xml version="1.0" encoding="utf-8"?>
<!-- Generator: Adobe Illustrator 22.0.1, SVG Export Plug-In . SVG Version: 6.00 Build 0)  -->
<svg version="1.1" id="Layer_1" xmlns="http://www.w3.org/2000/svg" xmlns:xlink="http://www.w3.org/1999/xlink" x="0px" y="0px"
	 viewBox="0 0 24 24" style="enable-background:new 0 0 24 24;" xml:space="preserve">
<style type="text/css">
	.st0{fill:#585D63;}
	.st1{fill:none;}
</style>
<title>Docs</title>
<desc>Created with Sketch.</desc>
<path class="st0" d="M7.07065,20.01563h14.7663V5.45134l-5.48841-5.35238h-9.2779v19.91667H7.07065z M16.94241,3.10822
	l2.0612,2.00637h-2.11458L16.94241,3.10822z M8.92028,2.09896h6.03125l-0.01562,4.98438l5.03125,0.03125l-0.01562,11H8.90466
	L8.92028,2.09896z"/>
<rect class="st1" width="24" height="24"/>
<g>
	<line class="st1" x1="11.20415" y1="13.21224" x2="11.20415" y2="13.21181"/>
	<polygon class="st0" points="10.45397,13.21224 10.45397,16.14095 11.95397,16.14095 11.95397,13.21224 11.20415,13.21224 	"/>
	<line class="st1" x1="13.34997" y1="14.32845" x2="13.34997" y2="14.32815"/>
	<polygon class="st0" points="12.59997,14.32845 12.59997,16.14095 14.09997,16.14095 14.09997,14.32845 13.34997,14.32845 	"/>
	<rect x="14.89196" y="12.02865" class="st0" width="1.5" height="4.1123"/>
	<rect x="16.91735" y="13.37044" class="st0" width="1.5" height="2.77051"/>
	<rect x="10.41491" y="9.03646" class="st0" width="8.04736" height="1.5"/>
</g>
<rect class="st1" width="24" height="24"/>
<path class="st0" d="M15.94271,22h-11V9h-2v15h2h11V22z"/>
</svg>
