<?xml version="1.0" encoding="UTF-8"?><svg width="576" height="576" version="1.1" viewBox="0 0 576 576" xmlns="http://www.w3.org/2000/svg" xmlns:xlink="http://www.w3.org/1999/xlink"><!--Generated by IJSVG (https://github.com/curthard89/IJSVG)--><g transform="scale(24)"><g fill="#6F6F6F"><path d="M1e-05,19.9167h14.7663v-14.5643l-5.48841,-5.35238h-9.2779v19.9167h1e-05Zm9.87176,-16.9074l2.0612,2.00637h-2.11458l0.05338,-2.00637Zm-8.02213,-1.00926h6.03125l-0.01562,4.98438l5.03125,0.03125l-0.01562,11h-11.0469l0.01562,-16.0156Z" transform="translate(7.07064, 0.09896)"></path><use fill="none" xlink:href="#path-1"></use><g fill="none"><use transform="translate(11.2, 13.21)" xlink:href="#path-2"></use><path fill="#6F6F6F" d="M0,0v2.92871h1.5v-2.92871h-0.74982Z" transform="translate(10.454, 13.2122)"></path><use transform="translate(13.35, 14.33)" xlink:href="#path-2"></use><path fill="#6F6F6F" d="M0,0v1.8125h1.5v-1.8125h-0.75Z" transform="translate(12.6, 14.3285)"></path><path fill="#6F6F6F" d="M0,0h1.5v4.1123h-1.5Z" transform="translate(14.892, 12.0287)"></path><path fill="#6F6F6F" d="M0,0h1.5v2.77051h-1.5Z" transform="translate(16.9174, 13.3704)"></path><path fill="#6F6F6F" d="M0,0h8.04736v1.5h-8.04736Z" transform="translate(10.4149, 9.03646)"></path></g><use fill="none" xlink:href="#path-1"></use><path d="M13,13h-11v-13h-2v15h2h11v-2Z" transform="translate(2.94271, 9)"></path></g></g><defs><path id="path-1" d="M0,0h24v24h-24Z"></path><path id="path-2" d="M0,0v0"></path></defs></svg>