<svg id="Layer_1" data-name="Layer 1" xmlns="http://www.w3.org/2000/svg" viewBox="0 0 18.70068 21.48804"><defs><style>.cls-1{fill:none;}.cls-2{fill:#585D63;}</style></defs><title>resource_timing</title><polygon class="cls-1" points="9 1.5 9 7 14.5 7 9 1.5"/><path class="cls-2" d="M16.59253,10.27173A7.05924,7.05924,0,0,1,19,10.70038V7L13,1H5A1.99736,1.99736,0,0,0,3.01,3L3,19a1.99736,1.99736,0,0,0,1.99,2h5.49634a7.09357,7.09357,0,0,1,6.1062-10.72827ZM12,2.5,17.5,8H12Z" transform="translate(-3 -1)"/><path class="cls-2" d="M16.59253,12.27173a5.10815,5.10815,0,1,0,5.10815,5.10815A5.114,5.114,0,0,0,16.59253,12.27173Zm0,8.7597a3.65155,3.65155,0,1,1,3.65155-3.65155A3.65155,3.65155,0,0,1,16.59253,21.03143Z" transform="translate(-3 -1)"/><polygon class="cls-2" points="14.008 14.125 13.008 14.125 13.008 17.057 15.018 18.516 15.57 17.766 14.008 16.563 14.008 14.125"/></svg>
