<?xml version="1.0" encoding="utf-8"?>
<!-- Generator: Adobe Illustrator 22.0.1, SVG Export Plug-In . SVG Version: 6.00 Build 0)  -->
<svg version="1.1" id="Layer_1" xmlns="http://www.w3.org/2000/svg" xmlns:xlink="http://www.w3.org/1999/xlink" x="0px" y="0px"
	 viewBox="0 0 24 24" style="enable-background:new 0 0 24 24;" xml:space="preserve">
<style type="text/css">
	.st0{fill:none;}
	.st1{fill:#585D63;}
</style>
<title>resources@4x</title>
<desc>Created with Sketch.</desc>
<g>
	<path class="st0" d="M0,0v24h24V0H0z M22,18c0,1.09998-0.90002,2-2,2H4c-1.09998,0-2-0.90002-2-2L2.01001,6
		c0-1.09998,0.89001-2,1.98999-2h6l2,2h8c1.09998,0,2,0.90002,2,2V18z"/>
	<path class="st1" d="M20,6h-8l-2-2H4C2.90002,4,2.01001,4.90002,2.01001,6L2,18c0,1.09998,0.90002,2,2,2h16
		c1.09998,0,2-0.90002,2-2V8C22,6.90002,21.09998,6,20,6z M16.20001,14.79999l-0.90002,1.60004l-2.39996-1.60004V18h-1.80005
		v-3.20001l-2.39996,1.60004l-0.90002-1.60004l2.5-1.70001l-2.5-1.59998l0.90002-1.59998L11.09998,11.5V8.20001h1.80005v3.20001
		l2.39996-1.60004l0.90002,1.60004l-2.60004,1.69995L16.20001,14.79999z"/>
</g>
</svg>
