<?xml version="1.0" encoding="UTF-8"?><svg width="576" height="576" version="1.1" viewBox="0 0 576 576" xmlns="http://www.w3.org/2000/svg" xmlns:xlink="http://www.w3.org/1999/xlink"><!--Generated by IJSVG (https://github.com/curthard89/IJSVG)--><g transform="scale(24)"><g fill="none"><path d="M0,0v24h24v-24h-24Zm22,18c0,1.09998 -0.90002,2 -2,2h-16c-1.09998,0 -2,-0.90002 -2,-2l0.01001,-12c0,-1.09998 0.89001,-2 1.98999,-2h6l2,2h8c1.09998,0 2,0.90002 2,2v10Z"></path><path fill="#6F6F6F" d="M18,2h-8l-2,-2h-6c-1.09998,0 -1.98999,0.90002 -1.98999,2l-0.01001,12c0,1.09998 0.90002,2 2,2h16c1.09998,0 2,-0.90002 2,-2v-10c0,-1.09998 -0.90002,-2 -2,-2Zm-3.79999,8.79999l-0.90002,1.60004l-2.39996,-1.60004v3.20001h-1.80005v-3.20001l-2.39996,1.60004l-0.90002,-1.60004l2.5,-1.70001l-2.5,-1.59998l0.90002,-1.59998l2.39996,1.59998v-3.29999h1.80005v3.20001l2.39996,-1.60004l0.90002,1.60004l-2.60004,1.69995l2.60004,1.70002Z" transform="translate(2, 4)"></path></g></g></svg>