<?xml version="1.0" encoding="UTF-8"?><svg width="576" height="576" version="1.1" viewBox="0 0 576 576" xmlns="http://www.w3.org/2000/svg" xmlns:xlink="http://www.w3.org/1999/xlink"><!--Generated by IJSVG (https://github.com/curthard89/IJSVG)--><g transform="scale(24)"><g fill="none" fill-rule="evenodd" stroke="none" stroke-width="1"><path d="M0,0h24v24h-24Z"></path><g transform="translate(3, 3)"><g fill="#FFFFFF" fill-rule="evenodd" stroke="none" stroke-width="1"><g fill="#A53D3D" fill-rule="evenodd" stroke="none" stroke-width="1"><path mask="url(#mask-1)" d="M16.134,18h-14.268c-1.026,0 -1.866,-0.84 -1.866,-1.866v-14.268c0,-1.026 0.84,-1.866 1.866,-1.866h14.268c1.026,0 1.866,0.84 1.866,1.866v14.268c0,1.026 -0.84,1.866 -1.866,1.866" transform="translate(-0.0002, 0)"></path></g><path d="M1.611,3.652h1.3c0.404,0 0.718,-0.103 0.939,-0.309c0.223,-0.206 0.334,-0.49 0.334,-0.851c0,-0.369 -0.105,-0.659 -0.314,-0.87c-0.21,-0.211 -0.531,-0.318 -0.965,-0.318h-1.294v2.348Zm1.284,1.305h-1.284v2.863h-1.611v-7.82h2.905c0.924,0 1.637,0.206 2.139,0.617c0.501,0.412 0.752,0.994 0.752,1.746c0,0.533 -0.117,0.978 -0.347,1.335c-0.232,0.356 -0.581,0.64 -1.05,0.85l1.691,3.197v0.075h-1.729l-1.466,-2.863Z" transform="translate(3.0013, 5.1175)"></path><path d="M3.518,5.221c-0.383,0.466 -0.912,0.698 -1.59,0.698c-0.623,0 -1.098,-0.178 -1.426,-0.537c-0.327,-0.358 -0.495,-0.883 -0.502,-1.574v-3.808h1.553v3.759c0,0.606 0.276,0.908 0.826,0.908c0.528,0 0.889,-0.182 1.086,-0.548v-4.119h1.557v5.812h-1.461l-0.043,-0.591Z" transform="translate(10.1002, 7.1257)"></path></g></g></g></g><defs><mask id="mask-1" maskContentUnits="userSpaceOnUse" maskUnits="objectBoundingBox"><g fill="#FFFFFF" transform="translate(0.0002, 0)"><path d="M8.9999,0h-8.9999v18h8.9999h8.9999v-18Z"></path></g></mask></defs></svg>