<?xml version="1.0" encoding="UTF-8"?><svg width="576" height="576" version="1.1" viewBox="0 0 576 576" xmlns="http://www.w3.org/2000/svg" xmlns:xlink="http://www.w3.org/1999/xlink"><!--Generated by IJSVG (https://github.com/curthard89/IJSVG)--><g transform="scale(24)"><g stroke="none" stroke-width="1"><path fill="none" fill-rule="evenodd" d="M0,0h24v24h-24Z"></path><g transform="translate(2, 2)"><g fill="#6F6F6F" fill-rule="evenodd" stroke="none" stroke-width="1"><path mask="url(#mask-1)" d="M10,2.222c4.277,0 7.777,3.5 7.777,7.778c0,4.277 -3.5,7.777 -7.777,7.777c-4.278,0 -7.778,-3.5 -7.778,-7.777c4.44089e-16,-4.278 3.5,-7.778 7.778,-7.778m0,17.778c5.527,0 10,-4.473 10,-10c0,-5.528 -4.473,-10 -10,-10c-5.528,0 -10,4.472 -10,10c0,5.527 4.472,10 10,10" transform="translate(0.0001, 0.0002)"></path></g></g><path fill="#6F6F6F" d="M0,0v9.39972l7.45496,-4.69986Z" transform="translate(9.02869, 7.30014)"></path></g></g><defs><mask id="mask-1" maskContentUnits="userSpaceOnUse" maskUnits="objectBoundingBox"><g fill="#FFFFFF" transform="translate(-0.0001, -0.0002)"><path d="M19.9999,0v19.9998h-19.9999v-19.9998h19.9999Z" transform="translate(0.0001, 0.0002)"></path></g></mask></defs></svg>