<?xml version="1.0" encoding="UTF-8"?><svg width="576" height="576" version="1.1" viewBox="0 0 576 576" xmlns="http://www.w3.org/2000/svg" xmlns:xlink="http://www.w3.org/1999/xlink"><!--Generated by IJSVG (https://github.com/curthard89/IJSVG)--><g transform="scale(24)"><g fill="none" fill-rule="evenodd" stroke="none" stroke-width="1"><use fill="none" fill-rule="evenodd" stroke="none" stroke-width="1" xlink:href="#path-1"></use><g transform="translate(3, 3)"><g stroke="none" stroke-width="1"><path fill="none" fill-rule="evenodd" d="M9,0h-9v5h9v-5Zm-1,4h-3v-3h3v3Z" transform="translate(3, 2)"></path><path fill="#6F6F6F" d="M14,0h-12c-1.10999,0 -2,0.90002 -2,2v14c0,1.09998 0.89001,2 2,2h14c1.09998,0 2,-0.90002 2,-2v-12l-4,-4Zm-11,2h9v5h-9v-5Zm12,14h-12v-5.1026c0,-0.49561 0.51135,-0.8974 1.14215,-0.8974h9.71234c0.63263,0 1.14551,0.40295 1.14551,0.90002v5.09998Z"></path><path fill="#6F6F6F" d="M0,0h3v3h-3Z" transform="translate(8, 3)"></path></g></g><use xlink:href="#path-1"></use></g></g><defs><path id="path-1" d="M0,0h24v24h-24Z"></path></defs></svg>