<?xml version="1.0" encoding="utf-8"?>
<!-- Generator: Adobe Illustrator 22.0.1, SVG Export Plug-In . SVG Version: 6.00 Build 0)  -->
<svg version="1.1" id="Layer_1" xmlns="http://www.w3.org/2000/svg" xmlns:xlink="http://www.w3.org/1999/xlink" x="0px" y="0px"
	 viewBox="-587 389 24 24" enable-background="new -587 389 24 24" xml:space="preserve">
<g>
	<path fill="none" d="M-572,394h-9v5h9V394z M-573,398h-3v-3h3V398z"/>
	<path fill="none" d="M-581,402.8974V408h2.08917v-0.00806v-0.70416l0.49792-0.49792L-573.62311,402h-6.23474
		C-580.48865,402-581,402.40179-581,402.8974z"/>
	<path fill="#585D63" d="M-581,408v-5.1026c0-0.49561,0.51135-0.8974,1.14215-0.8974h6.23474l3.81274-3.81274l1.20209-1.20209
		l1.05359-1.05353c0.26221-0.26221,0.57568-0.4502,0.91437-0.57196L-570,392h-12c-1.10999,0-2,0.90002-2,2v14
		c0,1.09998,0.89001,2,2,2h3.08917v-2H-581z M-581,394h9v5h-9V394z"/>
	<path fill="#585D63" d="M-568,410c1.09998,0,2-0.90002,2-2v-2.9812L-570.9812,410H-568z"/>
	<rect x="-576" y="395" fill="#585D63" width="3" height="3"/>
	<path fill="#585D63" d="M-566,400.33313l1.14075,1.14075l1.4234-1.4234c0.30334-0.30334,0.30334-0.79333,0-1.09668
		l-1.82007-1.82007c-0.15167-0.15167-0.34998-0.22754-0.54834-0.22754c-0.06653,0-0.13092,0.02106-0.19574,0.03815
		c-0.1283,0.03381-0.25183,0.08862-0.3526,0.18939l-1.4234,1.42334L-566,400.33313z"/>
	<polygon fill="#585D63" points="-571.38538,408 -569,405.61469 -566,402.61469 -565.69147,402.30615 -566,401.99762 
		-568.60828,399.38934 -571.21893,402 -577.21082,407.99194 -577.21082,408 -577.21082,410 -577.21082,410.90869 
		-574.29407,410.90869 -573.38538,410 	"/>
</g>
</svg>
