<?xml version="1.0" encoding="UTF-8"?>
<svg width="24px" height="24px" viewBox="0 0 24 24" version="1.1" xmlns="http://www.w3.org/2000/svg" xmlns:xlink="http://www.w3.org/1999/xlink">
    <!-- Generator: Sketch 47.1 (45422) - http://www.bohemiancoding.com/sketch -->
    <title>save</title>
    <desc>Created with Sketch.</desc>
    <defs></defs>
    <g id="actions" stroke="none" stroke-width="1" fill="none" fill-rule="evenodd">
        <g id="save">
            <g id="more-horiz">
                <polygon id="Shape" points="0 0 24 0 24 24 0 24"></polygon>
            </g>
            <g id="save_template" transform="translate(3.000000, 3.000000)">
                <path d="M12,2 L3,2 L3,7 L12,7 L12,2 Z M11,6 L8,6 L8,3 L11,3 L11,6 Z" id="Shape"></path>
                <path d="M14,0 L2,0 C0.89001,0 0,0.90002 0,2 L0,16 C0,17.09998 0.89001,18 2,18 L16,18 C17.09998,18 18,17.09998 18,16 L18,4 L14,0 Z M3,2 L12,2 L12,7 L3,7 L3,2 Z M15,16 L3,16 L3,10.8974 C3,10.40179 3.51135,10 4.14215,10 L13.85449,10 C14.48712,10 15,10.40295 15,10.90002 L15,16 Z" id="Shape" fill="#585D63" fill-rule="nonzero"></path>
                <rect id="Rectangle-path" fill="#585D63" fill-rule="nonzero" x="8" y="3" width="3" height="3"></rect>
            </g>
            <rect id="Rectangle-12" x="0" y="0" width="24" height="24"></rect>
        </g>
    </g>
</svg>
