<?xml version="1.0" encoding="UTF-8"?><svg width="576" height="576" version="1.1" viewBox="0 0 576 576" xmlns="http://www.w3.org/2000/svg" xmlns:xlink="http://www.w3.org/1999/xlink"><!--Generated by IJSVG (https://github.com/curthard89/IJSVG)--><g transform="scale(24)"><g fill-rule="evenodd" stroke="none" stroke-width="1"><path fill="none" d="M0,0h24v24h-24Z"></path><path fill="#6F6F6F" d="M16.275,0h-14.55c-0.953,0 -1.725,0.772 -1.725,1.725v14.55c0,0.953 0.772,1.725 1.725,1.725h14.55c0.952,0 1.725,-0.772 1.725,-1.725v-14.55c0,-0.953 -0.773,-1.725 -1.725,-1.725v0Zm-14.275,16v-14h14v14h-14Zm1.9996,-11.6724v1.5h9v-1.5h-9Zm0,3v1.5h6.98694v-1.5h-6.98694Zm0,3v1.5h9v-1.5h-9Z" transform="translate(2.0004, 2)"></path><path fill="#FFFFFF" d="M11.4986,5.75552c0,3.17801 -2.57473,5.75552 -5.74929,5.75552c-3.17457,0 -5.74929,-2.57751 -5.74929,-5.75552c0,-3.17801 2.57473,-5.75552 5.74929,-5.75552c3.17457,0 5.74929,2.57751 5.74929,5.75552" transform="translate(11.1474, 11.1337)"></path><path fill="#6F6F6F" d="M4.05891,0c-2.24153,0 -4.05891,1.81934 -4.05891,4.0633c0,2.24396 1.81738,4.0633 4.05891,4.0633c2.24153,0 4.05891,-1.81934 4.05891,-4.0633c0,-2.24396 -1.81738,-4.0633 -4.05891,-4.0633m0,1.52374c1.39931,0 2.53682,1.13976 2.53682,2.53956c0,1.39981 -1.13751,2.53956 -2.53682,2.53956c-1.39931,0 -2.53682,-1.13976 -2.53682,-2.53956c0,-1.39981 1.13751,-2.53956 2.53682,-2.53956" transform="translate(12.8378, 12.8259)"></path><path fill="#6F6F6F" d="M4.15835,5.17868c-0.25977,0 -0.51954,-0.0995509 -0.717412,-0.297637l-3.04418,-3.04748c-0.396758,-0.397188 -0.396758,-1.03919 0,-1.43638c0.396758,-0.397188 1.03807,-0.397188 1.43482,0l3.04418,3.04748c0.396758,0.397188 0.396758,1.03919 0,1.43638c-0.197872,0.198086 -0.457642,0.297637 -0.717412,0.297637" transform="translate(18.8267, 18.8213)"></path></g></g></svg>