<?xml version="1.0" encoding="UTF-8"?><svg width="576" height="576" version="1.1" viewBox="0 0 576 576" xmlns="http://www.w3.org/2000/svg" xmlns:xlink="http://www.w3.org/1999/xlink"><!--Generated by IJSVG (https://github.com/curthard89/IJSVG)--><g transform="scale(24)"><use fill="none" fill-rule="evenodd" stroke="none" stroke-width="1" xlink:href="#path-1"></use><g fill-rule="evenodd" stroke="none" stroke-width="1"><path fill="#6F6F6F" d="M7.299,11.799c-2.49,0 -4.5,-2.01 -4.5,-4.5c0,-2.49 2.01,-4.5 4.5,-4.5c2.49,4.44089e-16 4.5,2.01 4.5,4.5c0,2.49 -2.01,4.5 -4.5,4.5m10.577,6.077c0.413,-0.413 0.413,-1.083 0,-1.496l-2.63,-2.63l-1.947,-1.951l-0.005,-0.001l-0.732,-0.732c1.11,-1.545 1.597,-3.561 0.94,-5.712c-0.681,-2.224 -2.569,-3.958 -4.849,-4.418c-4.642,-0.936 -8.653,3.075 -7.717,7.717c0.46,2.28 2.194,4.168 4.418,4.849c2.151,0.657 4.166,0.17 5.712,-0.939l0.732,0.731l0.001,0.005l1.769,1.765l2.811,2.812c0.414,0.413 1.083,0.413 1.497,0" transform="translate(2.20072, 2.20105)"></path><use fill="none" xlink:href="#path-1"></use></g></g><defs><path id="path-1" d="M0,0h24v24h-24Z"></path></defs></svg>