<?xml version="1.0" encoding="UTF-8"?><svg width="576" height="576" version="1.1" viewBox="0 0 576 576" xmlns="http://www.w3.org/2000/svg" xmlns:xlink="http://www.w3.org/1999/xlink"><!--Generated by IJSVG (https://github.com/curthard89/IJSVG)--><g transform="scale(24)"><g fill="none"><g fill="none"><path d="M1.87482,1.14636h-1.87482v-1.14636h1.87482v1.14636Z" transform="translate(17.197, 7.99707)"></path><path d="M1.14935,2.29864c-0.63477,0 -1.14935,-0.51453 -1.14935,-1.14929c0,-0.63476 0.51459,-1.14935 1.14935,-1.14935c0.6347,0 1.14929,0.51459 1.14929,1.14935c0,0.63476 -0.51458,1.14929 -1.14929,1.14929Z" transform="translate(10.8875, 10.9037)"></path><path fill="#6F6F6F" d="M9.46515,14.8107c-0.01556,-0.09796 -0.0144,-0.20081 -0.02594,-0.29999h-7.35131v-10.2227h4.06738c0.3501,8.88178e-16 0.6748,-0.17383 0.86816,-0.46484l1.15332,-1.73145l4.16748,-0.00293l1.11328,1.72314c0.19434,0.29834 0.52148,0.47607 0.87695,0.47607h4.01465v4.97656c0.09863,0.0697 0.20581,0.12775 0.29968,0.20337c0.61426,0.49493 1.12207,1.11469 1.48834,1.82098c0.01105,0.02124 0.01868,0.04437 0.02942,0.0658l0.27045,-0.06573v-8.04492c0,-0.57568 -0.46777,-1.04395 -1.04395,-1.04395h-4.48926l-0.8584,-1.3252c-0.35936,-0.54686 -0.96092,-0.87157 -1.61229,-0.87157c-0.00684,0 -0.01367,0 -0.02051,0.00049h-4.29834c-0.66602,-0.00391 -1.27051,0.31885 -1.6416,0.8833l-0.77197,1.31299h-4.65674c-0.57568,0 -1.04395,0.46826 -1.04395,1.04395v12.3105c0,0.57617 0.46826,1.04395 1.04395,1.04395h9.03796c-0.05408,-0.10052 -0.117,-0.19556 -0.1651,-0.29962c-0.21545,-0.46578 -0.3684,-0.9648 -0.45166,-1.4883Z" transform="translate(1.81396, 2.97949)"></path><path fill="#6F6F6F" d="M4.48242,0c-2.47168,0 -4.48242,2.01074 -4.48242,4.48242c0,2.14844 1.5332,3.99902 3.64551,4.39941l0.03094,0.00586c0.00653,-0.08368 0.0061,-0.16925 0.01562,-0.25208c0.04852,-0.42249 0.14569,-0.82928 0.28131,-1.21851c0.02826,-0.08112 0.06604,-0.15735 0.09784,-0.23676l-0.05511,-0.00946c-1.32227,-0.22656 -2.28174,-1.3623 -2.28174,-2.7002c0,-1.51562 1.23291,-2.74854 2.74805,-2.74854c1.3252,0 2.45996,0.94775 2.69824,2.25342l0.01001,0.05493c0.07904,-0.03253 0.15491,-0.07098 0.23572,-0.10004c0.38434,-0.13806 0.78662,-0.23706 1.20416,-0.28967c0.0827,-0.01044 0.16846,-0.00995 0.25195,-0.01758l-0.00653,-0.03192c-0.41992,-2.08103 -2.26758,-3.59128 -4.39355,-3.59128Z" transform="translate(7.54981, 7.59668)"></path><path fill="#6F6F6F" d="M0,0h1.87482v1.14636h-1.87482Z" transform="translate(17.197, 7.99707)"></path><path fill="#6F6F6F" d="M1.14935,0c-0.63477,0 -1.14935,0.51459 -1.14935,1.14935c0,0.63476 0.51459,1.14929 1.14935,1.14929c0.6347,0 1.14929,-0.51453 1.14929,-1.14929c0,-0.63476 -0.51458,-1.14935 -1.14929,-1.14935Z" transform="translate(10.8875, 10.9038)"></path><path fill="#6F6F6F" d="M10.8647,9.44006l-2.12756,-2.12982l-0.85669,-0.85767l-0.05994,-0.06c-0.09271,-0.09283 -0.20068,-0.15942 -0.31384,-0.20886c0.38062,-0.61884 0.61115,-1.34045 0.61115,-2.12042c0,-0.69128 -0.1886,-1.33221 -0.4928,-1.9021c-0.68329,-1.28009 -2.01508,-2.16119 -3.5661,-2.16119c-0.24457,0 -0.48132,0.03058 -0.71399,0.07208c-0.56049,0.09998 -1.08301,0.3078 -1.53857,0.61279c-0.4527,0.3031 -0.8382,0.69598 -1.13751,1.15167c-0.30328,0.46179 -0.50696,0.99036 -0.60144,1.55743c-0.03644,0.21893 -0.06738,0.44006 -0.06738,0.66931c0,0.31073 0.04193,0.61029 0.10791,0.901c0.12439,0.54791 0.36133,1.04926 0.68219,1.48828c0.73846,1.01025 1.92261,1.67401 3.2688,1.67401c0.77917,0 1.50006,-0.23071 2.11816,-0.61182c0.04938,0.11328 0.11591,0.22137 0.20862,0.31421l0.91663,0.9176l2.12756,2.12982c0.1978,0.19814 0.45763,0.29769 0.7174,0.29769c0.25977,0 0.51953,-0.09955 0.71741,-0.29767c0.39672,-0.39715 0.39672,-1.03918 -1e-05,-1.43634Zm-4.44177,-4.47577c-0.26648,0.69781 -0.82977,1.242 -1.5368,1.48828c-0.26062,0.09082 -0.53601,0.15027 -0.82721,0.15027c-0.2912,0 -0.56659,-0.05945 -0.82721,-0.15027c-0.70703,-0.24628 -1.27032,-0.79047 -1.5368,-1.48828c-0.1073,-0.28101 -0.17279,-0.58276 -0.17279,-0.901c0,-1.39984 1.13751,-2.53955 2.5368,-2.53955c1.39929,0 2.5368,1.13971 2.5368,2.53955c0,0.31824 -0.06549,0.62 -0.17279,0.901Z" transform="translate(12.8378, 12.8259)"></path></g><path d="M0,0h24v24h-24Z"></path></g></g></svg>