<?xml version="1.0" encoding="UTF-8"?>
<svg width="24px" height="24px" viewBox="0 0 24 24" version="1.1" xmlns="http://www.w3.org/2000/svg" xmlns:xlink="http://www.w3.org/1999/xlink">
    <!-- Generator: Sketch 47.1 (45422) - http://www.bohemiancoding.com/sketch -->
    <title>search</title>
    <desc>Created with Sketch.</desc>
    <defs></defs>
    <g id="actions" stroke="none" stroke-width="1" fill="none" fill-rule="evenodd">
        <g id="search">
            <g id="more-horiz">
                <polygon id="Shape" points="0 0 24 0 24 24 0 24"></polygon>
            </g>
            <g id="Group">
                <path d="M9.49972341,14.00005 C7.00972341,14.00005 4.99972341,11.99005 4.99972341,9.50005 C4.99972341,7.01005 7.00972341,5.00005 9.49972341,5.00005 C11.9897234,5.00005 13.9997234,7.01005 13.9997234,9.50005 C13.9997234,11.99005 11.9897234,14.00005 9.49972341,14.00005 M20.0767234,20.07705 C20.4897234,19.66405 20.4897234,18.99405 20.0767234,18.58105 L17.4467234,15.95105 L15.4997234,14.00005 L15.4947234,13.99905 L14.7627234,13.26705 C15.8727234,11.72205 16.3597234,9.70605 15.7027234,7.55505 C15.0217234,5.33105 13.1337234,3.59705 10.8537234,3.13705 C6.21172341,2.20105 2.20072341,6.21205 3.13672341,10.85405 C3.59672341,13.13405 5.33072341,15.02205 7.55472341,15.70305 C9.70572341,16.36005 11.7207234,15.87305 13.2667234,14.76405 L13.9987234,15.49505 L13.9997234,15.50005 L15.7687234,17.26505 L18.5797234,20.07705 C18.9937234,20.49005 19.6627234,20.49005 20.0767234,20.07705" id="Page-1" fill="#585D63"></path>
                <rect id="Rectangle-12" x="0" y="0" width="24" height="24"></rect>
            </g>
        </g>
    </g>
</svg>
