<?xml version="1.0" encoding="UTF-8"?><svg width="576" height="576" version="1.1" viewBox="0 0 576 576" xmlns="http://www.w3.org/2000/svg" xmlns:xlink="http://www.w3.org/1999/xlink"><!--Generated by IJSVG (https://github.com/curthard89/IJSVG)--><g transform="scale(24)"><g fill-rule="evenodd" stroke="none" stroke-width="1"><path fill="none" d="M0,0h24v24h-24Z"></path><g transform="translate(0, 1.5)"><g transform="translate(0, 0.5)"></g></g><g transform="translate(-0.630737, -1)"></g><path fill="#6F6F6F" d="M3.05042,16.0081c1.04852,0 1.94958,-0.896 1.94958,-1.96545v-12.0786c0,-1.04852 -0.75006,-1.96399 -1.94958,-1.96399h-3.05042v1.95966h2.37012c0.34058,0 0.62836,0.28778 0.62836,0.62836v10.8334c0,0.34058 -0.28778,0.62836 -0.62836,0.62836h-2.37012v1.95017" transform="translate(17.0022, 4.00001)"></path><path fill="#6F6F6F" d="M4.97638,16v-1.9502h-2.36383c-0.34058,0 -0.62836,-0.28778 -0.62836,-0.62836v-10.8334c0,-0.34058 0.28778,-0.62836 0.62836,-0.62836h2.36383v-1.95964h-3.01245c-1.11139,0 -1.96393,0.89453 -1.96393,1.96399v12.0786c0,1.02747 0.91541,1.96545 1.96393,1.96545" transform="translate(2.06708, 4)"></path><path fill="#6F6F6F" d="M5.34515,1.15663c1.15663,1.15663 1.15663,3.03189 0,4.18852c-1.15663,1.15663 -3.03189,1.15663 -4.18852,0c-1.15663,-1.15663 -1.15663,-3.03189 -1.77636e-15,-4.18852c1.15663,-1.15663 3.03189,-1.15663 4.18852,-1.77636e-15" transform="translate(8.74911, 8.74911)"></path></g></g></svg>