<?xml version="1.0" encoding="UTF-8"?><svg width="576" height="576" version="1.1" viewBox="0 0 576 576" xmlns="http://www.w3.org/2000/svg" xmlns:xlink="http://www.w3.org/1999/xlink"><!--Generated by IJSVG (https://github.com/curthard89/IJSVG)--><g transform="scale(24)"><g fill="none"><g transform="translate(3, 3)"><path fill="#6F6F6F" d="M16.5,0h-15c-0.82501,0 -1.5,0.67499 -1.5,1.5v3c0,0.82501 0.67499,1.5 1.5,1.5h15c0.82501,0 1.5,-0.67499 1.5,-1.5v-3c0,-0.82501 -0.67499,-1.5 -1.5,-1.5Zm-0.5,4h-14v-2h14v2Z"></path><g fill="none"><path d="M0,0h14v2h-14Z" transform="translate(2, 10)"></path><path fill="#6F6F6F" d="M10,5v1h6.5c0.82501,0 1.5,-0.67499 1.5,-1.5v-3c0,-0.82501 -0.67499,-1.5 -1.5,-1.5h-15c-0.82501,0 -1.5,0.67499 -1.5,1.5v3c0,0.82501 0.67499,1.5 1.5,1.5h6.5v-1h2Zm-8,-1v-2h14v2h-14Z" transform="translate(0, 8)"></path><path fill="#6F6F6F" d="M10,0h-2v1v1.99902h-7c-0.55225,0 -1,0.44727 -1,1c0,0.55273 0.44775,1 1,1h16c0.55273,0 1,-0.44727 1,-1c0,-0.55273 -0.44727,-1 -1,-1h-7v-1.99902v-1Z" transform="translate(0, 13)"></path></g></g><path d="M0,0h24v24h-24Z"></path></g></g></svg>