<?xml version="1.0" encoding="UTF-8"?>
<svg width="24px" height="24px" viewBox="0 0 24 24" version="1.1" xmlns="http://www.w3.org/2000/svg" xmlns:xlink="http://www.w3.org/1999/xlink">
    <!-- Generator: Sketch 47.1 (45422) - http://www.bohemiancoding.com/sketch -->
    <title>serviceAvailabilty</title>
    <desc>Created with Sketch.</desc>
    <defs>
        <polygon id="path-1" points="12.00015 0.5 24 0.5 24 16.5 0.0003 16.5 0.0003 0.5"></polygon>
    </defs>
    <g id="places" stroke="none" stroke-width="1" fill="none" fill-rule="evenodd">
        <g id="serviceAvailabilty">
            <rect id="Rectangle-12" x="0" y="0" width="24" height="24"></rect>
            <g id="policies_template">
                <g id="Layer_1"></g>
            </g>
            <g id="Page-1" transform="translate(0.000000, 1.500000)">
                <g id="Group-3" transform="translate(0.000000, 0.500000)">
                    <mask id="mask-2" fill="white">
                        <use xlink:href="#path-1"></use>
                    </mask>
                    <g id="Clip-2"></g>
                </g>
                <path d="M11.9993,7 C10.7593,7 9.7493,8.045 9.7493,9.329 L9.7493,18.171 C9.7493,19.455 10.7593,20.5 11.9993,20.5 C13.2403,20.5 14.2493,19.455 14.2493,18.171 L14.2493,9.329 C14.2493,8.045 13.2403,7 11.9993,7 M11.9993,8.5 C12.4133,8.5 12.7493,8.871 12.7493,9.329 L12.7493,18.171 C12.7493,18.629 12.4133,19 11.9993,19 C11.5853,19 11.2493,18.629 11.2493,18.171 L11.2493,9.329 C11.2493,8.871 11.5853,8.5 11.9993,8.5" id="Fill-6" fill="#FFFFFF"></path>
            </g>
            <g id="serviceAvailability_template" transform="translate(-0.630737, -1.000000)" fill="#585D63">
                <g id="Layer_1">
                    <g id="Group" transform="translate(2.000000, 5.000000)">
                        <path d="M18.6833546,16.00806 C19.7318746,16.00806 20.6329346,15.11206 20.6329346,14.04261 L20.6329346,1.964 C20.6329346,0.91548 19.8828746,9.99999975e-06 18.6833546,9.99999975e-06 L15.6329346,9.99999975e-06 L15.6329346,1.95967 L18.0030546,1.95967 C18.3436346,1.95967 18.6314146,2.24745 18.6314146,2.58803 L18.6314146,13.42147 C18.6314146,13.76205 18.3436346,14.04983 18.0030546,14.04983 L15.6329346,14.04983 L15.6329346,16" id="Shape"></path>
                        <path d="M5.67419434,16 L5.67419434,14.0498 L3.31036434,14.0498 C2.96978434,14.0498 2.68200434,13.76202 2.68200434,13.42144 L2.68200434,2.588 C2.68200434,2.24742 2.96978434,1.95964 3.31036434,1.95964 L5.67419434,1.95964 L5.67419434,0 L2.66174434,0 C1.55035434,0 0.697814336,0.89453 0.697814336,1.96399 L0.697814336,14.0426 C0.697814336,15.07007 1.61322434,16.00805 2.66174434,16.00805" id="Shape"></path>
                    </g>
                    <polygon id="Shape" points="10.749205 14.7351398 8.085485 12.0714098 6.759855 13.3970298 10.736695 17.3738698 18.240145 9.8704198 16.914525 8.5447998"></polygon>
                </g>
            </g>
        </g>
    </g>
</svg>
