<?xml version="1.0" encoding="utf-8"?>
<!-- Generator: Adobe Illustrator 22.0.1, SVG Export Plug-In . SVG Version: 6.00 Build 0)  -->
<svg version="1.1" id="Layer_1" xmlns="http://www.w3.org/2000/svg" xmlns:xlink="http://www.w3.org/1999/xlink" x="0px" y="0px"
	 viewBox="0 0 24 24" style="enable-background:new 0 0 24 24;" xml:space="preserve">
<style type="text/css">
	.st0{fill:none;}
	.st1{fill:#585D63;}
</style>
<title>server@4x</title>
<desc>Created with Sketch.</desc>
<g id="Clip-4">
</g>
<g>
	<rect x="5" y="13" class="st0" width="14" height="2"/>
	<rect x="5" y="5" class="st0" width="14" height="2"/>
	<path class="st1" d="M19.5,3h-15C3.67499,3,3,3.67499,3,4.5v3C3,8.32501,3.67499,9,4.5,9h15C20.32501,9,21,8.32501,21,7.5v-3
		C21,3.67499,20.32501,3,19.5,3z M19,7H5V5h14V7z"/>
	<path class="st1" d="M19.5,11h-15C3.67499,11,3,11.67499,3,12.5v3C3,16.32501,3.67499,17,4.5,17H11v1.99902H4
		c-0.55225,0-1,0.44727-1,1s0.44775,1,1,1h16c0.55273,0,1-0.44727,1-1s-0.44727-1-1-1h-7V17h6.5c0.82501,0,1.5-0.67499,1.5-1.5v-3
		C21,11.67499,20.32501,11,19.5,11z M19,15H5v-2h14V15z"/>
</g>
</svg>
