<?xml version="1.0" encoding="UTF-8"?><svg width="576" height="576" version="1.1" viewBox="0 0 576 576" xmlns="http://www.w3.org/2000/svg" xmlns:xlink="http://www.w3.org/1999/xlink"><!--Generated by IJSVG (https://github.com/curthard89/IJSVG)--><g transform="scale(24)"><g fill="none" fill-rule="evenodd" stroke="none" stroke-width="1"><path d="M0,0h24v24h-24Z"></path><g transform="translate(0, 1.5)"><g fill="#FFFFFF" fill-rule="evenodd" stroke="none" stroke-width="1"><g transform="translate(0, 0.5)"></g><path d="M2.25,0c-1.24,0 -2.25,1.045 -2.25,2.329v8.842c0,1.284 1.01,2.329 2.25,2.329c1.241,0 2.25,-1.045 2.25,-2.329v-8.842c0,-1.284 -1.009,-2.329 -2.25,-2.329m0,1.5c0.414,0 0.75,0.371 0.75,0.829v8.842c0,0.458 -0.336,0.829 -0.75,0.829c-0.414,0 -0.75,-0.371 -0.75,-0.829v-8.842c0,-0.458 0.336,-0.829 0.75,-0.829" transform="translate(9.7493, 7)"></path></g></g><g transform="translate(-0.630737, -1)"><g fill="#6F6F6F" fill-rule="evenodd" stroke="none" stroke-width="1"><g transform="translate(2, 5)"><g fill="#6F6F6F" fill-rule="evenodd" stroke="none" stroke-width="1"><path d="M3.05042,16.0081c1.04852,0 1.94958,-0.896 1.94958,-1.96545v-12.0786c0,-1.04852 -0.75006,-1.96399 -1.94958,-1.96399h-3.05042v1.95966h2.37012c0.34058,0 0.62836,0.28778 0.62836,0.62836v10.8334c0,0.34058 -0.28778,0.62836 -0.62836,0.62836h-2.37012v1.95017" transform="translate(15.6329, 1e-05)"></path><path d="M4.97638,16v-1.9502h-2.36383c-0.34058,0 -0.62836,-0.28778 -0.62836,-0.62836v-10.8334c0,-0.34058 0.28778,-0.62836 0.62836,-0.62836h2.36383v-1.95964h-3.01245c-1.11139,0 -1.96393,0.89453 -1.96393,1.96399v12.0786c0,1.02747 0.91541,1.96545 1.96393,1.96545" transform="translate(0.697814, 0)"></path></g></g><path d="M3.98935,6.19034l-2.66372,-2.66373l-1.32563,1.32562l3.97684,3.97684l7.50345,-7.50345l-1.32562,-1.32562Z" transform="translate(6.75986, 8.5448)"></path></g></g></g></g></svg>