<?xml version="1.0" encoding="UTF-8"?><svg width="576" height="576" version="1.1" viewBox="0 0 576 576" xmlns="http://www.w3.org/2000/svg" xmlns:xlink="http://www.w3.org/1999/xlink"><!--Generated by IJSVG (https://github.com/curthard89/IJSVG)--><g transform="scale(24)"><g transform="translate(-0.630737, -1)"></g><g transform="translate(3, 11)"><g transform="translate(0, 0.25)"></g></g><g fill="none"><path d="M5.41421,1.17157c1.17157,1.17157 1.17157,3.07107 0,4.24264c-1.17157,1.17157 -3.07107,1.17157 -4.24264,0c-1.17157,-1.17157 -1.17157,-3.07107 -8.88178e-16,-4.24264c1.17157,-1.17157 3.07107,-1.17157 4.24264,-8.88178e-16" transform="translate(6.70711, 3.70711)"></path><path d="M5.77118,0.22791c-0.14758,-0.04706 -0.28998,-0.1062 -0.44366,-0.1377c-0.28705,-0.0589 -0.58392,-0.09021 -0.8877,-0.09021c-0.07404,0 -0.14313,0.01837 -0.21631,0.02197c-0.38422,0.0191 -0.75195,0.091 -1.10498,0.2027c-0.10022,0.03168 -0.20374,0.05536 -0.30078,0.09387c-0.24139,0.09576 -0.46967,0.21454 -0.68628,0.35077c-0.20874,0.13135 -0.40668,0.27875 -0.59247,0.44092c-0.39545,0.34521 -0.71442,0.7677 -0.97095,1.22815c-0.34949,0.62726 -0.56805,1.33453 -0.56805,2.1015c0,0.12952 0.02747,0.25165 0.03845,0.37842c0.03015,0.34674 0.09808,0.68018 0.2041,1c0.16388,0.49451 0.40808,0.9472 0.72449,1.34857c0.81476,1.03345 2.06238,1.71228 3.47278,1.71228c2.44141,0 4.43933,-1.99786 4.43933,-4.43927c1e-05,-1.97546 -1.31597,-3.64031 -3.10797,-4.21197Zm0.82489,6.35602l-2.35486,-1.49945l-0.45178,-0.28766v-2.8291v-0.76172h1.30078v2.87793l2.20508,1.4043l-0.69922,1.0957Z" transform="translate(13.3971, 13.669)"></path><path fill="#6F6F6F" d="M5,10c2.76129,0 5,-2.23871 5,-5c0,-2.76129 -2.23871,-5 -5,-5c-2.76129,0 -5,2.23871 -5,5c0,2.76129 2.23871,5 5,5Zm0,-8c1.65674,0 3,1.34326 3,3c0,1.65674 -1.34326,3 -3,3c-1.65674,0 -3,-1.34326 -3,-3c0,-1.65674 1.34326,-3 3,-3Z" transform="translate(5, 2)"></path><path fill="#6F6F6F" d="M0,4c0,0.55231 0.44769,1 1,1c0.55231,0 1,-0.44769 1,-1c0,-1.08942 0.94427,-2 2.11102,-2h4.58838c0.21136,-0.71759 0.52588,-1.39026 0.92944,-2h-5.51782c-2.25537,0 -4.11102,1.78943 -4.11102,4Z" transform="translate(2, 14)"></path><path fill="#6F6F6F" d="M7.70222,0.3645c-0.3537,-0.13184 -0.72333,-0.22894 -1.10632,-0.28882c-0.28998,-0.04529 -0.5849,-0.07568 -0.8877,-0.07568c-0.07306,0 -0.14392,0.00818 -0.21631,0.01086c-0.37915,0.01422 -0.74835,0.06421 -1.10498,0.14868c-0.56409,0.13367 -1.09436,0.35028 -1.57953,0.63727c-0.37836,0.22375 -0.72882,0.48804 -1.04431,0.7901c-0.00415,0.00397 -0.00769,0.00848 -0.01178,0.01245c-0.57983,0.55847 -1.03741,1.23987 -1.34119,2c-0.2608,0.65265 -0.4101,1.36212 -0.4101,2.10889c0,0.12775 0.0108,0.25275 0.01904,0.37842c0.02246,0.34277 0.07495,0.67645 0.15515,1c0.13251,0.53418 0.33856,1.03772 0.60944,1.50043c0.99011,1.69128 2.82092,2.82941 4.92456,2.82941c3.15497,0 5.70825,-2.55334 5.70825,-5.70825c2e-05,-2.45271 -1.54558,-4.53511 -3.71422,-5.34376Zm-1.99402,9.78302c-1.4104,0 -2.65802,-0.67883 -3.47278,-1.71228c-0.31641,-0.40137 -0.56061,-0.85406 -0.72449,-1.34857c-0.10602,-0.31982 -0.17395,-0.65326 -0.2041,-1c-0.01099,-0.12677 -0.03845,-0.2489 -0.03845,-0.37842c0,-0.76697 0.21857,-1.47424 0.56805,-2.1015c0.25653,-0.46045 0.5755,-0.88293 0.97095,-1.22815c0.18579,-0.16217 0.38373,-0.30957 0.59247,-0.44092c0.21661,-0.13623 0.44489,-0.255 0.68628,-0.35077c0.09705,-0.03851 0.20056,-0.06219 0.30078,-0.09387c0.35303,-0.11169 0.72076,-0.18359 1.10498,-0.2027c0.07318,-0.0036 0.14227,-0.02197 0.21631,-0.02197c0.30377,0 0.60065,0.03131 0.8877,0.09021c0.15369,0.03149 0.29608,0.09064 0.44366,0.1377c1.79199,0.57166 3.10797,2.23651 3.10797,4.21198c1e-05,2.44139 -1.99792,4.43926 -4.43933,4.43926Z" transform="translate(12.1287, 12.4006)"></path><path fill="#6F6F6F" d="M1.30078,0h-1.30078v0.76172v2.8291l0.45179,0.28766l2.35485,1.49945l0.69922,-1.0957l-2.20508,-1.4043Z" transform="translate(17.1865, 14.875)"></path></g></g></svg>