<?xml version="1.0" encoding="utf-8"?>
<!-- Generator: Adobe Illustrator 22.1.0, SVG Export Plug-In . SVG Version: 6.00 Build 0)  -->
<svg version="1.1" id="Layer_1" xmlns="http://www.w3.org/2000/svg" xmlns:xlink="http://www.w3.org/1999/xlink" x="0px" y="0px"
	 viewBox="0 0 24 24" style="enable-background:new 0 0 24 24;" xml:space="preserve">
<style type="text/css">
	.st0{fill:#585D63;}
</style>
<title>Session frame_template</title>
<g id="Layer_4">
	<rect x="6.5" y="7.1" class="st0" width="11" height="9.8"/>
	<path class="st0" d="M4,4h7V2H4C2.9,2,2,2.9,2,4v7h2V4z M20,2h-7v2h7v7h2V4C22,2.9,21.1,2,20,2z M20,20h-7v2h7c1.1,0,2-0.9,2-2v-7
		h-2V20z M4,13H2v7c0,1.1,0.9,2,2,2h7v-2H4V13z"/>
</g>
</svg>
