<?xml version="1.0" encoding="utf-8"?>
<!-- Generator: Adobe Illustrator 22.0.1, SVG Export Plug-In . SVG Version: 6.00 Build 0)  -->
<svg version="1.1" id="Layer_1" xmlns="http://www.w3.org/2000/svg" xmlns:xlink="http://www.w3.org/1999/xlink" x="0px" y="0px"
	 viewBox="0 0 24 24" style="enable-background:new 0 0 24 24;" xml:space="preserve">
<style type="text/css">
	.st0{fill:none;}
	.st1{fill:#585D63;}
</style>
<title>sessions</title>
<desc>Created with Sketch.</desc>
<g id="places">
	<g id="sessions">
		<g id="policies_template">
			<g id="Layer_1_1_">
			</g>
		</g>
		<g id="serviceAvailability_template" transform="translate(-0.630737, -1.000000)">
			<g id="Layer_1_2_">
			</g>
		</g>
		<g id="Page-1" transform="translate(3.000000, 11.000000)">
			<g id="Group-5" transform="translate(0.000000, 0.250000)">
				<g id="Clip-4">
				</g>
			</g>
		</g>
	</g>
</g>
<g>
	<circle class="st0" cx="10" cy="7" r="3"/>
	<path class="st0" d="M17.66821,14.0733c-2.16522,0-3.92676,1.76147-3.92676,3.9267c0,2.16516,1.76154,3.9267,3.92676,3.9267
		s3.9267-1.76154,3.9267-3.9267C21.59491,15.83478,19.83344,14.0733,17.66821,14.0733z M19.85352,20.26953l-2.80078-1.68066
		v-3.20996h1.20508v2.57324l2.20898,1.31152L19.85352,20.26953z"/>
	<path class="st1" d="M10,12c2.76129,0,5-2.23871,5-5s-2.23871-5-5-5S5,4.23871,5,7S7.23871,12,10,12z M10,4
		c1.65674,0,3,1.34326,3,3s-1.34326,3-3,3S7,8.65674,7,7S8.34326,4,10,4z"/>
	<path class="st1" d="M2,18h2c0-1.08942,0.94427-2,2.11102-2h4.58838c0.21136-0.71759,0.52588-1.39026,0.92944-2H6.11102
		C3.85565,14,2,15.78943,2,18z"/>
	<path class="st1" d="M17.66296,12.52911c-3.01379,0-5.46564,2.45422-5.46564,5.47089s2.45184,5.47089,5.46564,5.47089
		c3.01953,0,5.47614-2.45422,5.47614-5.47089S20.6825,12.52911,17.66296,12.52911z M21.59491,18
		c0,2.16516-1.76147,3.9267-3.9267,3.9267S13.74146,20.16516,13.74146,18c0-2.16522,1.76154-3.9267,3.92676-3.9267
		S21.59491,15.83478,21.59491,18z"/>
	<polygon class="st1" points="18.25781,15.37891 17.05273,15.37891 17.05273,18.58887 19.85352,20.26953 20.4668,19.26367 
		18.25781,17.95215 	"/>
</g>
</svg>
