<?xml version="1.0" encoding="utf-8"?>
<!-- Generator: Adobe Illustrator 22.0.1, SVG Export Plug-In . SVG Version: 6.00 Build 0)  -->
<svg version="1.1" id="Layer_1" xmlns="http://www.w3.org/2000/svg" xmlns:xlink="http://www.w3.org/1999/xlink" x="0px" y="0px"
	 viewBox="0 0 34 24" style="enable-background:new 0 0 34 24;" xml:space="preserve">
<style type="text/css">
	.st0{fill:#585D63;}
	.st1{fill:none;}
</style>
<path class="st0" d="M22.04156,11l3.9791,3.97902L30,11H22.04156z"/>
<g id="actions">
	<g id="share">
		<g id="ic_share_black_24px" transform="translate(-0.742432, 0.000000)">
			<path id="Shape_2_" class="st0" d="M16,16.08c-0.76,0-1.44,0.3-1.96,0.77L6.91,12.7C6.96,12.47,7,12.24,7,12s-0.04-0.47-0.09-0.7
				l7.05-4.11C14.5,7.69,15.21,8,16,8c1.66,0,3-1.34,3-3s-1.34-3-3-3s-3,1.34-3,3c0,0.24,0.04,0.47,0.09,0.7L6.04,9.81
				C5.5,9.31,4.79,9,4,9c-1.66,0-3,1.34-3,3s1.34,3,3,3c0.79,0,1.5-0.31,2.04-0.81l7.12,4.16c-0.05,0.21-0.08,0.43-0.08,0.65
				c0,1.61,1.31,2.92,2.92,2.92s2.92-1.31,2.92-2.92S17.61,16.08,16,16.08z"/>
		</g>
	</g>
</g>
<rect x="-3" class="st1" width="24" height="24"/>
</svg>
