<?xml version="1.0" encoding="utf-8"?>
<!-- Generator: Adobe Illustrator 22.1.0, SVG Export Plug-In . SVG Version: 6.00 Build 0)  -->
<svg version="1.1" id="Layer_1" xmlns="http://www.w3.org/2000/svg" xmlns:xlink="http://www.w3.org/1999/xlink" x="0px" y="0px"
	 viewBox="0 0 24 24" style="enable-background:new 0 0 24 24;" xml:space="preserve">
<style type="text/css">
	.st0{fill:#585D63;}
</style>
<g id="actions">
	<g id="share">
		<g id="ic_share_black_24px" transform="translate(-0.742432, 0.000000)">
			<path id="Shape_2_" class="st0" d="M18.4,16.1c-0.8,0-1.4,0.3-2,0.8l-7.1-4.1c0.1-0.2,0.1-0.5,0.1-0.7s0-0.5-0.1-0.7l7.1-4.1
				c0.5,0.5,1.2,0.8,2,0.8c1.7,0,3-1.3,3-3s-1.3-3-3-3s-3,1.3-3,3c0,0.2,0,0.5,0.1,0.7L8.5,9.9C7.9,9.4,7.2,9,6.4,9
				c-1.7,0-3,1.3-3,3s1.3,3,3,3c0.8,0,1.5-0.3,2-0.8l7.1,4.2c-0.1,0.2-0.1,0.4-0.1,0.6c0,1.6,1.3,2.9,2.9,2.9s2.9-1.3,2.9-2.9
				S20,16.1,18.4,16.1z"/>
		</g>
	</g>
</g>
</svg>
