<?xml version="1.0" encoding="UTF-8"?><svg width="576" height="576" version="1.1" viewBox="0 0 576 576" xmlns="http://www.w3.org/2000/svg" xmlns:xlink="http://www.w3.org/1999/xlink"><!--Generated by IJSVG (https://github.com/curthard89/IJSVG)--><g transform="scale(24)"><g fill-rule="evenodd" stroke="none" stroke-width="1"><path fill="none" d="M0,0h24v24h-24Z"></path><path fill="#6F6F6F" d="M6.71,8.854h3.63l-3.63,4.2v1.8h6v-2h-3.63l3.63,-4.2v-1.8h-6v2Zm3,9c-3.87,0 -7,-3.13 -7,-7c0,-3.87 3.13,-7 7,-7c3.87,0 7,3.13 7,7c0,3.87 -3.13,7 -7,7v0Zm0,-16c-4.97,6.66134e-16 -9,4.03 -9,9c-8.88178e-16,4.97 4.02,9 9,9c4.97,0 9,-4.03 9,-9c0,-4.97 -4.03,-9 -9,-9v6.66134e-16Zm9.233,1.077l-3.07,-2.577c-0.422,-0.354 -1.05,-0.299 -1.405,0.121l-0.003,0.004c-0.357,0.422 -0.302,1.053 0.121,1.408l3.071,2.577c0.422,0.354 1.05,0.3 1.405,-0.121l0.003,-0.004c0.356,-0.422 0.301,-1.053 -0.122,-1.408v0Zm-13.993,-2.452v-2.22045e-16c-0.353,-0.422 -0.983,-0.478 -1.406,-0.125l-3.066,2.567c-0.424,0.355 -0.478,0.986 -0.122,1.409l0.002,0.003c0.355,0.42 0.983,0.475 1.405,0.121l3.063,-2.57c0.422,-0.353 0.478,-0.982 0.124,-1.405v0Z" transform="translate(1.87922, 1.8795)"></path></g></g></svg>