<?xml version="1.0" encoding="utf-8"?>
<!-- Generator: Adobe Illustrator 22.0.1, SVG Export Plug-In . SVG Version: 6.00 Build 0)  -->
<svg version="1.1" id="Layer_1" xmlns="http://www.w3.org/2000/svg" xmlns:xlink="http://www.w3.org/1999/xlink" x="0px" y="0px"
	 viewBox="0 0 24 24" style="enable-background:new 0 0 24 24;" xml:space="preserve">
<style type="text/css">
	.st0{fill:none;}
	.st1{fill:#585D63;}
	.st2{fill:#FFFFFF;}
</style>
<title>snap shot starting point@4x</title>
<desc>Created with Sketch.</desc>
<g id="objects">
	<g id="snap-shot-starting-point">
		<rect id="Rectangle-12" class="st0" width="24" height="24"/>
		<g id="Page-1" transform="translate(3.000000, 5.000000)">
			<path id="Fill-1" class="st1" d="M4.75,6.4465c-0.937,0-1.696-0.76-1.696-1.696c0-0.937,0.759-1.697,1.696-1.697
				s1.696,0.76,1.696,1.697C6.446,5.6865,5.687,6.4465,4.75,6.4465 M4.75,0.0005c-2.626,0-4.75,2.124-4.75,4.75
				c0,3.562,4.75,8.821,4.75,8.821s4.75-5.259,4.75-8.821C9.5,2.1245,7.376,0.0005,4.75,0.0005"/>
			<g id="Group-6" transform="translate(9.000000, 12.779800)">
				<path id="Fill-3" class="st2" d="M0.5-0.0003H10"/>
				<g id="Stroke-5">
					<path class="st1" d="M10,0.9995H0.5c-0.55225,0-1-0.44727-1-1s0.44775-1,1-1H10c0.55273,0,1,0.44727,1,1
						S10.55273,0.9995,10,0.9995z"/>
				</g>
			</g>
		</g>
	</g>
</g>
</svg>
