<?xml version="1.0" encoding="UTF-8"?><svg width="576" height="576" version="1.1" viewBox="0 0 576 576" xmlns="http://www.w3.org/2000/svg" xmlns:xlink="http://www.w3.org/1999/xlink"><!--Generated by IJSVG (https://github.com/curthard89/IJSVG)--><g transform="scale(24)"><g fill="none"><path d="M0,0h24v24h-24Z"></path><g transform="translate(3, 5)"><g fill="#6F6F6F"><path d="M4.75,6.446c-0.937,0 -1.696,-0.76 -1.696,-1.696c0,-0.937 0.759,-1.697 1.696,-1.697c0.937,0 1.696,0.76 1.696,1.697c0,0.936 -0.759,1.696 -1.696,1.696m0,-6.446c-2.626,0 -4.75,2.124 -4.75,4.75c0,3.562 4.75,8.821 4.75,8.821c0,0 4.75,-5.259 4.75,-8.821c0,-2.626 -2.124,-4.75 -4.75,-4.75" transform="translate(0, 0.0005)"></path><g transform="translate(9, 12.7798)"><g fill="#FFFFFF"><path d="M0,0h9.5" transform="translate(0.5, -0.0003)"></path><g fill="#6F6F6F"><path d="M10.5,2h-9.5c-0.55225,0 -1,-0.44727 -1,-1c0,-0.55273 0.44775,-1 1,-1h9.5c0.55273,0 1,0.44727 1,1c0,0.55273 -0.44727,1 -1,1Z" transform="translate(-0.5, -1.0005)"></path></g></g></g></g></g></g></g></svg>