<?xml version="1.0" encoding="UTF-8"?><svg width="576" height="576" version="1.1" viewBox="0 0 576 576" xmlns="http://www.w3.org/2000/svg" xmlns:xlink="http://www.w3.org/1999/xlink"><!--Generated by IJSVG (https://github.com/curthard89/IJSVG)--><g transform="scale(24)"><g fill="#6F6F6F"><path d="M14.8301,17.8301h-11.8301c-1.6543,0 -3,-1.3457 -3,-3v-11.8301c0,-1.6543 1.3457,-3 3,-3h11.8301c1.6543,0 3,1.3457 3,3v11.8301c0,1.6543 -1.3457,3 -3,3Zm-11.8301,-15.8301c-0.55127,0 -1,0.44873 -1,1v11.8301c0,0.55176 0.44873,1 1,1h11.8301c0.55176,0 1,-0.44824 1,-1v-11.8301c0,-0.55127 -0.44824,-1 -1,-1h-11.8301Z" transform="translate(3.08496, 3.08496)"></path><use transform="translate(13.5, 7.637)" xlink:href="#path-1"></use><use transform="translate(8.5, 7.637)" xlink:href="#path-1"></use><path d="M1.861,0c-1.028,0 -1.861,0.834 -1.86,1.862v1.425l3.722,-0.002v-1.425c-0.001,-1.028 -0.835,-1.86 -1.862,-1.86" transform="translate(10.138, 13.6819)"></path></g><path fill="none" d="M0,0h24v24h-24Z"></path></g><defs><path id="path-1" d="M0,0l0.00174,4.363h1.99826l-0.00348,-4.363Z"></path></defs></svg>