<?xml version="1.0" encoding="UTF-8"?><svg width="576" height="576" version="1.1" viewBox="0 0 576 576" xmlns="http://www.w3.org/2000/svg" xmlns:xlink="http://www.w3.org/1999/xlink"><!--Generated by IJSVG (https://github.com/curthard89/IJSVG)--><g transform="scale(24)"><g fill="none" fill-rule="evenodd" stroke="none" stroke-width="1"><g transform="translate(0, 6)"><g fill="#6F6F6F" fill-rule="evenodd" stroke="none" stroke-width="1"><path d="M1.8,1.32h1.044c0,-0.460002 -0.108999,-0.794999 -0.327,-1.005c-0.218001,-0.210001 -0.570998,-0.315 -1.059,-0.315c-0.472002,0 -0.823999,0.113999 -1.056,0.342c-0.232001,0.228001 -0.348,0.559998 -0.348,0.996c0,0.252001 0.0429996,0.455999 0.129,0.612c0.0860004,0.156001 0.193999,0.282 0.324,0.378c0.130001,0.0960005 0.270999,0.174 0.423,0.234c0.152001,0.0600003 0.292999,0.119 0.423,0.177c0.130001,0.0580003 0.238,0.128 0.324,0.21c0.0860004,0.0820004 0.129,0.192999 0.129,0.333c0,0.116001 -0.0309997,0.214 -0.093,0.294c-0.0620003,0.0800004 -0.150999,0.12 -0.267,0.12c-0.108001,0 -0.196,-0.0369996 -0.264,-0.111c-0.0680003,-0.0740004 -0.102,-0.202999 -0.102,-0.387v-0.102h-1.08v0.15c0,0.224001 0.0319997,0.411999 0.096,0.564c0.0640003,0.152001 0.156999,0.275 0.279,0.369c0.122001,0.0940005 0.271999,0.16 0.45,0.198c0.178001,0.0380002 0.382999,0.057 0.615,0.057c0.492002,0 0.867999,-0.102999 1.128,-0.309c0.260001,-0.206001 0.39,-0.536998 0.39,-0.993c0,-0.260001 -0.0449995,-0.470999 -0.135,-0.633c-0.0900004,-0.162001 -0.202999,-0.292999 -0.339,-0.393c-0.136001,-0.100001 -0.281999,-0.181 -0.438,-0.243c-0.156001,-0.0620003 -0.301999,-0.123 -0.438,-0.183c-0.136001,-0.0600003 -0.249,-0.131 -0.339,-0.213c-0.0900005,-0.0820004 -0.135,-0.192999 -0.135,-0.333c0,-0.0960005 0.0279997,-0.183 0.084,-0.261c0.0560003,-0.0780004 0.143999,-0.117 0.264,-0.117c0.108001,0 0.188,0.0449995 0.24,0.135c0.0520003,0.0900004 0.078,0.198999 0.078,0.327v0.102Zm4.052,3.744l-0.612,-0.66c-0.0480002,0.00800004 -0.0949998,0.015 -0.141,0.021c-0.0460002,0.00600003 -0.0969997,0.009 -0.153,0.009h-0.108c-0.284001,0 -0.523999,-0.0379996 -0.72,-0.114c-0.196001,-0.0760004 -0.353999,-0.202999 -0.474,-0.381c-0.120001,-0.178001 -0.206,-0.407999 -0.258,-0.69c-0.0520003,-0.282001 -0.078,-0.622998 -0.078,-1.023c0,-0.400002 0.0259997,-0.740999 0.078,-1.023c0.0520003,-0.282001 0.137999,-0.511999 0.258,-0.69c0.120001,-0.178001 0.277999,-0.308 0.474,-0.39c0.196001,-0.0820004 0.435999,-0.123 0.72,-0.123c0.284001,0 0.523999,0.0409996 0.72,0.123c0.196001,0.0820004 0.353999,0.211999 0.474,0.39c0.120001,0.178001 0.206,0.407999 0.258,0.69c0.0520003,0.282001 0.078,0.622998 0.078,1.023c0,0.412002 -0.0279997,0.759999 -0.084,1.044c-0.0560003,0.284001 -0.147999,0.515999 -0.276,0.696l0.516,0.516l-0.672,0.582Zm-1.392,-2.838c0,0.288001 0.004,0.526999 0.012,0.717c0.008,0.190001 0.0249999,0.340999 0.051,0.453c0.0260001,0.112001 0.0639998,0.19 0.114,0.234c0.0500003,0.0440002 0.117,0.066 0.201,0.066c0.0840004,0 0.151,-0.0219998 0.201,-0.066c0.0500003,-0.0440002 0.0879999,-0.121999 0.114,-0.234c0.0260001,-0.112001 0.043,-0.262999 0.051,-0.453c0.008,-0.190001 0.012,-0.428999 0.012,-0.717c0,-0.288001 -0.004,-0.526999 -0.012,-0.717c-0.008,-0.190001 -0.0249999,-0.340999 -0.051,-0.453c-0.0260001,-0.112001 -0.0639997,-0.19 -0.114,-0.234c-0.0500002,-0.0440002 -0.117,-0.066 -0.201,-0.066c-0.0840004,0 -0.151,0.0219998 -0.201,0.066c-0.0500002,0.0440002 -0.0879999,0.121999 -0.114,0.234c-0.0260001,0.112001 -0.043,0.262999 -0.051,0.453c-0.008,0.190001 -0.012,0.428999 -0.012,0.717Zm4.058,-0.906h1.044c0,-0.460002 -0.108999,-0.794999 -0.327,-1.005c-0.218001,-0.210001 -0.570998,-0.315 -1.059,-0.315c-0.472002,0 -0.823999,0.113999 -1.056,0.342c-0.232001,0.228001 -0.348,0.559998 -0.348,0.996c0,0.252001 0.0429996,0.455999 0.129,0.612c0.0860004,0.156001 0.193999,0.282 0.324,0.378c0.130001,0.0960005 0.270999,0.174 0.423,0.234c0.152001,0.0600003 0.292999,0.119 0.423,0.177c0.130001,0.0580003 0.238,0.128 0.324,0.21c0.0860004,0.0820004 0.129,0.192999 0.129,0.333c0,0.116001 -0.0309997,0.214 -0.093,0.294c-0.0620003,0.0800004 -0.150999,0.12 -0.267,0.12c-0.108001,0 -0.196,-0.0369996 -0.264,-0.111c-0.0680003,-0.0740004 -0.102,-0.202999 -0.102,-0.387v-0.102h-1.08v0.15c0,0.224001 0.0319997,0.411999 0.096,0.564c0.0640003,0.152001 0.156999,0.275 0.279,0.369c0.122001,0.0940005 0.271999,0.16 0.45,0.198c0.178001,0.0380002 0.382999,0.057 0.615,0.057c0.492002,0 0.867999,-0.102999 1.128,-0.309c0.260001,-0.206001 0.39,-0.536998 0.39,-0.993c0,-0.260001 -0.0449996,-0.470999 -0.135,-0.633c-0.0900005,-0.162001 -0.202999,-0.292999 -0.339,-0.393c-0.136001,-0.100001 -0.281999,-0.181 -0.438,-0.243c-0.156001,-0.0620003 -0.301999,-0.123 -0.438,-0.183c-0.136001,-0.0600003 -0.249,-0.131 -0.339,-0.213c-0.0900004,-0.0820004 -0.135,-0.192999 -0.135,-0.333c0,-0.0960005 0.0279997,-0.183 0.084,-0.261c0.0560003,-0.0780004 0.143999,-0.117 0.264,-0.117c0.108,0 0.188,0.0449995 0.24,0.135c0.0520003,0.0900004 0.078,0.198999 0.078,0.327v0.102Z" transform="translate(6.7619, 3.59717)"></path><g fill="#6F6F6F" fill-rule="evenodd" stroke="none" stroke-width="1"><path mask="url(#mask-1)" d="M21.913,0h-19.826c-1.153,0 -2.087,2.687 -2.087,6c0,3.313 0.934,6 2.087,6h19.826c1.152,0 2.087,-2.687 2.087,-6c0,-3.313 -0.935,-6 -2.087,-6m-0.576,2c0.29,0.606 0.663,2.034 0.663,4c0,1.966 -0.373,3.394 -0.663,4h-18.674c-0.29,-0.606 -0.663,-2.034 -0.663,-4c0,-1.966 0.373,-3.394 0.663,-4h18.674" transform="translate(0.0001, 0)"></path></g></g></g><path d="M0,0h24v24h-24Z"></path></g></g><defs><mask id="mask-1" maskContentUnits="userSpaceOnUse" maskUnits="objectBoundingBox"><g fill="#FFFFFF" transform="translate(-0.0001, 0)"><path d="M12,0h12v12h-12h-12v-12Z" transform="translate(0.0001, 0)"></path></g></mask></defs></svg>