<?xml version="1.0" encoding="UTF-8"?><svg width="576" height="576" version="1.1" viewBox="0 0 576 576" xmlns="http://www.w3.org/2000/svg" xmlns:xlink="http://www.w3.org/1999/xlink"><!--Generated by IJSVG (https://github.com/curthard89/IJSVG)--><g transform="scale(24)"><g fill="none"><use xlink:href="#path-1"></use><g fill="#6F6F6F"><path d="M16.275,0h-14.55c-0.953,0 -1.72498,0.77197 -1.72498,1.72498v14.5501c1e-05,0.953 0.77198,1.72497 1.72498,1.72497h14.55c0.95203,0 1.72504,-0.77197 1.72504,-1.72498v-14.55c3.55271e-15,-0.95301 -0.77301,-1.72498 -1.72504,-1.72498Zm-0.27496,16h-14v-14h14v14Z" transform="translate(3.00042, 3)"></path></g><use xlink:href="#path-1"></use><use xlink:href="#path-1"></use><path fill="#6F6F6F" d="M3.00908,0c-1.66101,0 -3.00908,1.34807 -3.00908,3.00908c0,1.66101 1.34807,3.00908 3.00908,3.00908c1.66101,0 3.00908,-1.34807 3.00908,-3.00908c0,-1.66101 -1.34807,-3.00908 -3.00908,-3.00908Z" transform="translate(8.99132, 8.99092)"></path></g></g><defs><path id="path-1" d="M0,0h24v24h-24Z"></path></defs></svg>