<?xml version="1.0" encoding="UTF-8"?><svg width="576" height="576" version="1.1" viewBox="0 0 576 576" xmlns="http://www.w3.org/2000/svg" xmlns:xlink="http://www.w3.org/1999/xlink"><!--Generated by IJSVG (https://github.com/curthard89/IJSVG)--><g transform="scale(24)"><g fill="none"><g fill="none"><use xlink:href="#path-1"></use><g fill="none"><path d="M0,9.46857l3.21924,-3.21924c0.29291,-0.29291 0.76776,-0.29291 1.06067,0l1.46966,1.46966l3.18933,-3.18933h-1.18933c-0.41418,0 -0.75,-0.33582 -0.75,-0.75c0,-0.41418 0.33582,-0.75 0.75,-0.75h3c0.30237,0 0.53644,0.16547 0.65833,0.39038c0.02759,0.05035 0.04956,0.10425 0.06506,0.16083c0.02264,0.08124 0.03204,0.16632 0.02661,0.2514v2.94739c0,0.41418 -0.33582,0.75 -0.75,0.75c-0.41418,0 -0.75,-0.33582 -0.75,-0.75v-1.18933l-3.71967,3.71967c-0.29291,0.29291 -0.76776,0.29291 -1.06067,0l-1.46966,-1.46967l-3.74957,3.74957v2.4101h14v-14h-14v9.46857Z" transform="translate(5.00043, 5)"></path><path fill="#6F6F6F" d="M16.275,0h-14.55c-0.953,0 -1.72498,0.77197 -1.72498,1.72498v12.0525c-6e-05,0.00153 -6e-05,0.00287 0,0.00439v2.49316c1e-05,0.95301 0.77198,1.72498 1.72498,1.72498h14.55c0.95203,0 1.72504,-0.77197 1.72504,-1.72498v-14.55c3.55271e-15,-0.95301 -0.77301,-1.72498 -1.72504,-1.72498Zm-0.27496,16h-14v-2.4101l3.74957,-3.74957l1.46967,1.46967c0.29291,0.29291 0.76776,0.29291 1.06067,0l3.71966,-3.71967v1.18933c0,0.41418 0.33582,0.75 0.75,0.75c0.41418,0 0.75,-0.33582 0.75,-0.75v-2.94738c0.00543,-0.08508 -0.00397,-0.17017 -0.02661,-0.2514c-0.0155,-0.05658 -0.03748,-0.11047 -0.06506,-0.16083c-0.12189,-0.22492 -0.35596,-0.39039 -0.65833,-0.39039h-3c-0.41418,0 -0.75,0.33582 -0.75,0.75c0,0.41418 0.33582,0.75 0.75,0.75h1.18933l-3.18933,3.18933l-1.46967,-1.46967c-0.29291,-0.29291 -0.76776,-0.29291 -1.06067,0l-3.21924,3.21924v-9.46856h14v14Z" transform="translate(3.00036, 3)"></path></g></g><use xlink:href="#path-1"></use></g></g><defs><path id="path-1" d="M0,0h24v24h-24Z"></path></defs></svg>