<?xml version="1.0" encoding="UTF-8"?><svg width="576" height="576" version="1.1" viewBox="0 0 576 576" xmlns="http://www.w3.org/2000/svg" xmlns:xlink="http://www.w3.org/1999/xlink"><!--Generated by IJSVG (https://github.com/curthard89/IJSVG)--><g transform="scale(24)"><g fill="none"><g fill="none"><path d="M0,0h2v2h-2Z" transform="translate(7, 15)"></path><path d="M9,0h-9v9h2h3v-1h-4v-1h4.00494c0.01929,-0.26892 0.09735,-0.76678 0.40143,-1.18762c0.08319,-0.11194 0.18005,-0.21234 0.28339,-0.30493l0.18579,-0.13708c0.31982,-0.22633 0.70032,-0.37037 1.12445,-0.37037h2v-5Zm-5,6h-3v-1h3v1Zm2,-2h-5v-1h5v1Zm1,-2h-6v-1h6v1Z" transform="translate(4, 4)"></path><path fill="#6F6F6F" d="M18,7h-5v-5c0,-1.10498 -0.89502,-2 -2,-2h-9c-1.10498,0 -2,0.89502 -2,2v9c0,1.10498 0.89502,2 2,2h1v2l2,2h2v1c0,1.10498 0.89502,2 2,2h9c1.10498,0 2,-0.89502 2,-2v-9c0,-1.10498 -0.89502,-2 -2,-2Zm-11,8h-2v-2h2v2Zm0.87555,-7.62964l-0.18579,0.13709c-0.10333,0.09259 -0.2002,0.19299 -0.28339,0.30493c-0.30408,0.42084 -0.38214,0.9187 -0.40143,1.18762h-4.00494v1h4v1h-3h-2v-9h9v5h-2c-0.42413,0 -0.80463,0.14404 -1.12445,0.37036Zm7.57269,10.0378l-0.54199,-1.61133h-2.8252l-0.53711,1.61133h-1.71338l2.91064,-7.8208h1.49316l2.92773,7.8208h-1.71385Z" transform="translate(2, 2)"></path><path fill="#6F6F6F" d="M0,2.92774h1.95508l-0.98242,-2.92774Z" transform="translate(14.5156, 13.5645)"></path><path fill="#6F6F6F" d="M0,0h6v1h-6Z" transform="translate(5, 5)"></path><path fill="#6F6F6F" d="M0,0h5v1h-5Z" transform="translate(5, 7)"></path><path fill="#6F6F6F" d="M0,0h3v1h-3Z" transform="translate(5, 9)"></path></g><path d="M0,0h24v24h-24Z"></path></g></g></svg>