<?xml version="1.0" encoding="UTF-8"?><svg width="576" height="576" version="1.1" viewBox="0 0 576 576" xmlns="http://www.w3.org/2000/svg" xmlns:xlink="http://www.w3.org/1999/xlink"><!--Generated by IJSVG (https://github.com/curthard89/IJSVG)--><g transform="scale(24)"><g fill="none"><g fill="none"><path d="M0.98199,0c-0.53998,0 -0.98199,0.44299 -0.98199,0.98297c0,0.53998 0.44201,0.982 0.98199,0.982c0.54004,0 0.98303,-0.44202 0.98303,-0.98199c0,-0.53997 -0.44299,-0.98298 -0.98303,-0.98298Z" transform="translate(8.04169, 3.95227)"></path><path d="M0.98206,0c-0.54004,0 -0.98206,0.44299 -0.98206,0.98297c0,0.53998 0.44202,0.98199 0.98206,0.98199c0.53998,0 0.98199,-0.44202 0.98199,-0.98199c0,-0.53997 -0.44202,-0.98297 -0.98199,-0.98297Z" transform="translate(11.9717, 3.95227)"></path><path d="M5.77118,0.22791c-0.14758,-0.04706 -0.28998,-0.1062 -0.44366,-0.1377c-0.28705,-0.0589 -0.58392,-0.09021 -0.8877,-0.09021c-0.07404,0 -0.14313,0.01837 -0.21631,0.02197c-0.38422,0.0191 -0.75195,0.091 -1.10498,0.2027v0.09387h-0.30078c-0.474,0.18805 -0.90021,0.46124 -1.27875,0.79169c-0.9342,0.81549 -1.539,1.99969 -1.539,3.32965c0,0.12952 0.02747,0.25165 0.03845,0.37842c0.03015,0.34674 0.09808,0.68018 0.2041,1c0.16388,0.49451 0.40808,0.9472 0.72449,1.34857c0.81476,1.03345 2.06238,1.71228 3.47278,1.71228c2.44141,0 4.43933,-1.99786 4.43933,-4.43927c1e-05,-1.97546 -1.31597,-3.64031 -3.10797,-4.21197Z" transform="translate(13.3971, 13.669)"></path><path fill="#6F6F6F" d="M0,1e-05v0.40643c0,0.60199 0.492,1.09399 1.09399,1.09399h3.14502c-0.20709,-0.47601 -0.36444,-0.97797 -0.466,-1.50043c0,0 -3.77301,0 -3.77301,1e-05Z" transform="translate(6.9361, 19.4873)"></path><path fill="#6F6F6F" d="M12.6112,2.16451c0.55219,-0.25909 1.14001,-0.45239 1.75751,-0.56598c0.35968,-0.06616 0.72882,-0.1037 1.10498,-0.11481c0.07245,-0.00214 0.14313,-0.01093 0.21606,-0.01093c0.30121,0 0.59631,0.02399 0.88794,0.05963c0.37872,0.0462 0.74786,0.12207 1.10632,0.2243v-0.66376c0,-0.60199 -0.492,-1.09296 -1.09406,-1.09296h-15.4969c-0.60101,0 -1.09302,0.49097 -1.09302,1.09296v2.44403c0,0.60199 0.492,1.09399 1.09302,1.09399h0.01208v5.14258c0,0.50281 0.495,0.9104 1.10498,0.9104c0.60998,0 1.10504,-0.40759 1.10504,-0.9104v-5.14258h1.47407v4.49976h3.65601c-0.00702,-0.1311 -0.01984,-0.26068 -0.01984,-0.39355c0,-1.52454 0.47156,-2.93781 1.27405,-4.1062c0.72924,-1.06176 1.73547,-1.91436 2.9118,-2.46648Z" transform="translate(2.14691, 9.35655)"></path><path fill="#6F6F6F" d="M9.82398,1.68402c0,-0.92603 -0.995,-1.68402 -2.07599,-1.68402h-5.763c-1.08002,0 -1.96399,0.758 -1.96399,1.68402l-0.021,4.211h9.82397c1.77636e-15,-8.88178e-16 1.77636e-15,-4.211 1e-05,-4.211Zm-6.87702,2.24598c-0.53998,0 -0.98199,-0.44202 -0.98199,-0.98199c0,-0.53997 0.44201,-0.98298 0.98199,-0.98298c0.54004,0 0.98303,0.44299 0.98303,0.98297c0,0.53998 -0.44299,0.982 -0.98303,0.982Zm3.93006,0c-0.54004,0 -0.98206,-0.44202 -0.98206,-0.98199c0,-0.53997 0.44202,-0.98297 0.98206,-0.98297c0.53998,0 0.98199,0.44299 0.98199,0.98297c0,0.53998 -0.44202,0.98199 -0.98199,0.98199Z" transform="translate(6.07672, 1.98724)"></path><path fill="#FFFFFF" d="M0.30078,0c-0.10022,0.03168 -0.20374,0.05536 -0.30078,0.09387h0.30078v-0.09387Z" transform="translate(16.2148, 13.8937)"></path><path fill="#4CD964" d="M7.70221,0.3645c-0.3537,-0.13184 -0.72333,-0.22894 -1.10632,-0.28882c-0.28998,-0.04529 -0.5849,-0.07568 -0.8877,-0.07568c-0.07306,0 -0.14392,0.00818 -0.21631,0.01086c-0.37915,0.01422 -0.74835,0.06421 -1.10498,0.14868c-0.56409,0.13367 -1.09436,0.35028 -1.57953,0.63727c-0.37836,0.22375 -0.72882,0.48804 -1.04431,0.7901c-1.0849,1.03876 -1.76306,2.49866 -1.76306,4.12134c0,0.12775 0.0108,0.25275 0.01904,0.37842c0.02246,0.34277 0.07495,0.67645 0.15515,1c0.13251,0.53418 0.33856,1.03772 0.60944,1.50043c0.99011,1.69128 2.82092,2.82941 4.92456,2.82941c3.15497,0 5.70825,-2.55334 5.70825,-5.70825c1e-05,-2.45271 -1.54559,-4.53511 -3.71423,-5.34376Zm-1.99402,9.78302c-1.4104,0 -2.65802,-0.67883 -3.47278,-1.71228c-0.31641,-0.40137 -0.56061,-0.85406 -0.72449,-1.34857c-0.10602,-0.31982 -0.17395,-0.65326 -0.2041,-1c-0.01099,-0.12677 -0.03845,-0.2489 -0.03845,-0.37842c0,-1.32996 0.6048,-2.51416 1.539,-3.32965c0.37854,-0.33044 0.80475,-0.60364 1.27875,-0.79169c0.09705,-0.03851 0.20056,-0.06219 0.30078,-0.09387c0.35303,-0.11169 0.72076,-0.18359 1.10498,-0.2027c0.07318,-0.0036 0.14227,-0.02197 0.21631,-0.02197c0.30377,0 0.60065,0.03131 0.8877,0.09021c0.15369,0.03149 0.29608,0.09064 0.44366,0.1377c1.79199,0.57166 3.10797,2.23651 3.10797,4.21198c1e-05,2.44139 -1.99792,4.43926 -4.43933,4.43926Z" transform="translate(12.1287, 12.4006)"></path></g><path d="M0,0h24v24h-24Z"></path><g fill="#4CD964"><path d="M2.80664,5.37793l-2.80664,-1.78711v-3.59082h1.30078v2.87793l2.20508,1.4043Z" transform="translate(17.1865, 14.875)"></path></g></g></g></svg>