<?xml version="1.0" encoding="UTF-8"?><svg width="576" height="576" version="1.1" viewBox="0 0 576 576" xmlns="http://www.w3.org/2000/svg" xmlns:xlink="http://www.w3.org/1999/xlink"><!--Generated by IJSVG (https://github.com/curthard89/IJSVG)--><g transform="scale(24)"><g fill="none"><g transform="translate(0, 0.5263)"></g><g fill="none"><path d="M0.98206,0c-0.54004,0 -0.98206,0.44299 -0.98206,0.98297c0,0.53998 0.44202,0.98199 0.98206,0.98199c0.53998,0 0.98199,-0.44202 0.98199,-0.98199c0,-0.53997 -0.44201,-0.98297 -0.98199,-0.98297Z" transform="translate(12.8251, 4.51062)"></path><path d="M0.98199,0c-0.53998,0 -0.98199,0.44299 -0.98199,0.98297c0,0.53998 0.44201,0.982 0.98199,0.982c0.54004,0 0.98303,-0.44202 0.98303,-0.98199c0,-0.53997 -0.443,-0.98298 -0.98303,-0.98298Z" transform="translate(8.89509, 4.51062)"></path><path fill="#6F6F6F" d="M16.59,0h-15.497c-0.60101,0 -1.09302,0.49097 -1.09302,1.09296v2.44403c0,0.60199 0.492,1.09399 1.09302,1.09399h0.01208v5.09497c0,0.5 0.495,0.90503 1.10498,0.90503c0.60998,0 1.10504,-0.40503 1.10504,-0.90503v-5.09497h1.47406v4.5h6e-05h7.75012h0.24982v-4.5h1.57953v5.09497c0,0.5 0.495,0.90503 1.10498,0.90503c0.60901,0 1.104,-0.40503 1.104,-0.90503v-5.09497h0.01227c0.60205,0 1.09406,-0.492 1.09406,-1.09399v-2.44403c1e-05,-0.602 -0.492,-1.09296 -1.09405,-1.09296Z" transform="translate(3.0003, 9.91492)"></path><path fill="#6F6F6F" d="M6e-05,0h-6e-05v0.40619c0,0.60199 0.492,1.09399 1.09399,1.09399h5.81201c0.60199,0 1.09399,-0.492 1.09399,-1.09399v-0.40619h-0.24982h-7.75011Z" transform="translate(7.78949, 20.0459)"></path><path fill="#6F6F6F" d="M9.82398,1.68402c0,-0.92603 -0.995,-1.68402 -2.07599,-1.68402h-5.763c-1.08002,0 -1.96399,0.758 -1.96399,1.68402l-0.021,4.211h9.82397v-4.211Zm-6.87701,2.24598c-0.53998,0 -0.98199,-0.44202 -0.98199,-0.98199c0,-0.53997 0.44201,-0.98298 0.98199,-0.98298c0.54004,0 0.98303,0.44299 0.98303,0.98297c0,0.53998 -0.443,0.982 -0.98303,0.982Zm3.93005,0c-0.54004,0 -0.98206,-0.44202 -0.98206,-0.98199c0,-0.53997 0.44202,-0.98297 0.98206,-0.98297c0.53998,0 0.98199,0.44299 0.98199,0.98297c0,0.53998 -0.44201,0.98199 -0.98199,0.98199Z" transform="translate(6.93011, 2.54559)"></path></g><path d="M0,0h24v24h-24Z"></path></g></g></svg>