<?xml version="1.0" encoding="UTF-8"?><svg width="576" height="576" version="1.1" viewBox="0 0 576 576" xmlns="http://www.w3.org/2000/svg" xmlns:xlink="http://www.w3.org/1999/xlink"><!--Generated by IJSVG (https://github.com/curthard89/IJSVG)--><g transform="scale(24)"><g fill="none"><g transform="translate(-0.630737, -1)"></g><g fill="none"><path d="M0.98206,0c-0.54004,0 -0.98206,0.44299 -0.98206,0.98297c0,0.53998 0.44202,0.98199 0.98206,0.98199c0.53998,0 0.98199,-0.44202 0.98199,-0.98199c0,-0.53997 -0.44201,-0.98297 -0.98199,-0.98297Z" transform="translate(13.1943, 4.08752)"></path><path d="M0.98199,0c-0.53998,0 -0.98199,0.44299 -0.98199,0.98297c0,0.53998 0.44202,0.98199 0.98199,0.98199c0.54004,0 0.98303,-0.44202 0.98303,-0.98199c0,-0.53997 -0.44299,-0.98297 -0.98303,-0.98297Z" transform="translate(9.26435, 4.08752)"></path><path fill="#6F6F6F" d="M16.59,0h-15.4969c-0.60101,0 -1.09302,0.49097 -1.09302,1.09296v2.44403c0,0.60199 0.492,1.09399 1.09302,1.09399h0.01208v5.14258c0,0.13531 0.04071,0.26111 0.10498,0.37653c0.17462,0.31354 0.5542,0.53387 1,0.53387c0.60999,0 1.10504,-0.40759 1.10504,-0.9104v-5.14258h1.47406v4.5h8v-4.5h1.57953v5.14258c0,0.50281 0.495,0.9104 1.10498,0.9104c0.60901,0 1.104,-0.40759 1.104,-0.9104v-5.14258h0.01227c0.60205,0 1.09406,-0.492 1.09406,-1.09399v-2.44403c3.55271e-15,-0.60199 -0.49201,-1.09296 -1.09406,-1.09296Z" transform="translate(3.36957, 9.49182)"></path><path fill="#6F6F6F" d="M1e-05,0.40619c0,0.60199 0.492,1.09399 1.09399,1.09399h5.81201c0.60199,0 1.09399,-0.492 1.09399,-1.09399v-0.40619h-8v0.40619Z" transform="translate(8.15874, 19.6228)"></path><path fill="#6F6F6F" d="M9.82398,1.68402c0,-0.92603 -0.995,-1.68402 -2.07599,-1.68402h-5.763c-1.08002,0 -1.96399,0.758 -1.96399,1.68402l-0.021,4.211h9.82397v-4.211Zm-6.87701,2.24597c-0.53998,0 -0.98199,-0.44202 -0.98199,-0.98199c0,-0.53997 0.44202,-0.98297 0.98199,-0.98297c0.54004,0 0.98303,0.44299 0.98303,0.98297c0,0.53998 -0.44299,0.98199 -0.98303,0.98199Zm3.93005,0c-0.54004,0 -0.98206,-0.44202 -0.98206,-0.98199c0,-0.53997 0.44202,-0.98297 0.98206,-0.98297c0.53998,0 0.98199,0.44299 0.98199,0.98297c0,0.53998 -0.44201,0.98199 -0.98199,0.98199Z" transform="translate(7.29937, 2.1225)"></path></g><path d="M0,0h24v24h-24Z"></path></g></g></svg>