<?xml version="1.0" encoding="UTF-8"?><svg width="576" height="576" version="1.1" viewBox="0 0 576 576" xmlns="http://www.w3.org/2000/svg" xmlns:xlink="http://www.w3.org/1999/xlink"><!--Generated by IJSVG (https://github.com/curthard89/IJSVG)--><g transform="scale(24)"><g fill="none" fill-rule="evenodd" stroke="none" stroke-width="1"><path d="M0,0h24v24h-24Z"></path><g transform="translate(-0.630737, -1)"></g><g transform="translate(2.36926, 1.1228)"><g fill="#FFFFFF" fill-rule="evenodd" stroke="none" stroke-width="1"><path d="M0,10.316v-10.316v10.316Z" transform="translate(2.2104, 9.842)"></path><g transform="translate(0, 0.5263)"><g fill-rule="evenodd"><path fill="#6F6F6F" stroke="none" stroke-width="1" d="M1.105,10.316c-0.61,0 -1.105,-0.407584 -1.105,-0.910424v-8.49607c0,-0.501924 0.495,-0.909508 1.105,-0.909508c0.61,0 1.105,0.407584 1.105,0.909508v8.49607c0,0.50284 -0.495,0.910424 -1.105,0.910424" transform="translate(1.1054, 8.2107)"></path><path fill="#FFFFFF" stroke="none" stroke-width="1" d="M0,0v10.316" transform="translate(15.474, 9.3155)"></path><path fill="#6F6F6F" stroke="none" stroke-width="1" d="M1.105,11.263c-0.61,0 -1.105,-0.445 -1.105,-0.994v-9.276c0,-0.548 0.495,-0.993 1.105,-0.993c0.609,0 1.104,0.445 1.104,0.993v9.276c0,0.549 -0.495,0.994 -1.104,0.994" transform="translate(14.369, 8.2107)"></path><path fill="#6F6F6F" stroke="none" stroke-width="1" d="M16.59,4.631h-15.497c-0.601,0 -1.093,-0.492 -1.093,-1.094v-2.444c0,-0.602 0.492,-1.093 1.093,-1.093h15.497c0.602,0 1.094,0.491 1.094,1.093v2.444c0,0.602 -0.492,1.094 -1.094,1.094" transform="translate(0.0003, 7.8427)"></path><path fill="#6F6F6F" stroke="none" stroke-width="1" d="M0,8.906v-7.812c0,-0.602 0.492,-1.094 1.094,-1.094h5.812c0.602,0 1.094,0.492 1.094,1.094v7.812c0,0.602 -0.492,1.094 -1.094,1.094h-5.812c-0.602,0 -1.094,-0.492 -1.094,-1.094" transform="translate(4.7895, 9.4739)"></path><g transform="translate(3, 0)"><g fill="#6F6F6F" fill-rule="evenodd" stroke="none" stroke-width="1"><path mask="url(#mask-1)" d="M6.877,3.93c-0.54,0 -0.982,-0.442 -0.982,-0.982c0,-0.54 0.442,-0.983 0.982,-0.983c0.54,0 0.982,0.443 0.982,0.983c0,0.54 -0.442,0.982 -0.982,0.982m-3.93,0c-0.54,0 -0.982,-0.442 -0.982,-0.982c0,-0.54 0.442,-0.983 0.982,-0.983c0.54,0 0.983,0.443 0.983,0.983c0,0.54 -0.443,0.982 -0.983,0.982m4.801,-3.93h-5.763c-1.08,0 -1.964,0.758 -1.964,1.684l-0.021,4.211h9.824v-4.211c0,-0.926 -0.995,-1.684 -2.076,-1.684" transform="translate(0.9301, 0.4734)"></path></g></g><path fill="#FFFFFF" stroke="none" stroke-width="1" d="M9,4.5c0,2.485 -2.015,4.5 -4.5,4.5c-2.485,0 -4.5,-2.015 -4.5,-4.5c0,-2.485 2.015,-4.5 4.5,-4.5c2.485,0 4.5,2.015 4.5,4.5" transform="translate(10.7895, 11.4737)"></path><path fill="#6F6F6F" stroke="none" stroke-width="1" d="M6.25,2.6c-2.013,0 -3.65,1.638 -3.65,3.65c0,2.013 1.637,3.651 3.65,3.651c2.013,0 3.65,-1.638 3.65,-3.651c0,-2.012 -1.637,-3.65 -3.65,-3.65m-0.006,9.9c-3.443,0 -6.244,-2.803 -6.244,-6.25c0,-3.446 2.801,-6.25 6.244,-6.25c3.449,0 6.256,2.804 6.256,6.25c0,3.447 -2.807,6.25 -6.256,6.25" transform="translate(9.0395, 9.7233)"></path><g transform="translate(8, 9)"><g fill="#FFFFFF" fill-rule="evenodd" stroke="none" stroke-width="1"><path d="M6.9178,10.0678c-1.737,0 -3.15,-1.413 -3.15,-3.15c0,-1.738 1.413,-3.151 3.15,-3.151c1.737,0 3.15,1.413 3.15,3.151c0,1.737 -1.413,3.15 -3.15,3.15m-0.00614916,-10.0678c-3.81145,0 -6.91165,3.10327 -6.91165,6.9178c0,3.8135 3.1002,6.9178 6.91165,6.9178c3.81863,0 6.92395,-3.1043 6.92395,-6.9178c0,-3.81453 -3.10532,-6.9178 -6.92395,-6.9178m0.00614916,11.0678c2.288,0 4.15,-1.862 4.15,-4.15c0,-2.288 -1.862,-4.151 -4.15,-4.151c-2.288,-4.44089e-16 -4.15,1.863 -4.15,4.151c0,2.288 1.862,4.15 4.15,4.15m-0.006,-9.9c3.174,-2.22045e-16 5.756,2.579 5.756,5.75c0,3.171 -2.582,5.75 -5.756,5.75c-3.167,0 -5.744,-2.579 -5.744,-5.75c0,-3.171 2.577,-5.75 5.744,-5.75" transform="translate(0.371697, 0.0562975)"></path></g></g><use fill="#6F6F6F" stroke="none" stroke-width="1" transform="translate(14.7399, 13.2237)" xlink:href="#path-1"></use><use fill="none" stroke="#6F6F6F" stroke-linejoin="round" stroke-width="0.25" transform="translate(14.7399, 13.2237)" xlink:href="#path-1"></use><g transform="translate(4, 17)"><g stroke="none" stroke-width="1"><path fill="#000000" fill-rule="evenodd" d="M0,0h4" transform="translate(0.7895, 0.4737)"></path><path fill="#FFFFFF" d="M0,1h4v-1h-4Z" transform="translate(0.7895, -0.0263)"></path></g></g></g></g></g></g></g></g><defs><mask id="mask-1" maskContentUnits="userSpaceOnUse" maskUnits="objectBoundingBox"><g fill="#FFFFFF" transform="translate(-0.9301, -0.4734)"><path d="M0,0h9.824v5.8944h-9.824v-5.8944Z" transform="translate(0.9301, 0.474)"></path></g></mask><path id="path-1" d="M0.825,0h-0.825v3.3l2.888,1.732l0.412,-0.676l-2.475,-1.468Z"></path></defs></svg>