<?xml version="1.0" encoding="utf-8"?>
<!-- Generator: Adobe Illustrator 22.0.1, SVG Export Plug-In . SVG Version: 6.00 Build 0)  -->
<svg version="1.1" id="Layer_1" xmlns="http://www.w3.org/2000/svg" xmlns:xlink="http://www.w3.org/1999/xlink" x="0px" y="0px"
	 viewBox="0 0 24 24" style="enable-background:new 0 0 24 24;" xml:space="preserve">
<style type="text/css">
	.st0{fill:none;}
	.st1{fill:#585D63;}
</style>
<title>synthetic</title>
<desc>Created with Sketch.</desc>
<g id="places">
	<g id="synthetic-">
		<g id="policies_template">
			<g id="Layer_1_1_">
			</g>
		</g>
		<g id="serviceAvailability_template" transform="translate(-0.630737, -1.000000)">
			<g id="Layer_1_2_">
			</g>
		</g>
		<g id="Clip-14">
		</g>
	</g>
</g>
<g>
	<path class="st0" d="M14.17639,4.08752c-0.54004,0-0.98206,0.44299-0.98206,0.98297s0.44202,0.98199,0.98206,0.98199
		c0.53998,0,0.98199-0.44202,0.98199-0.98199S14.71637,4.08752,14.17639,4.08752z"/>
	<path class="st0" d="M10.24634,4.08752c-0.53998,0-0.98199,0.44299-0.98199,0.98297s0.44202,0.98199,0.98199,0.98199
		c0.54004,0,0.98303-0.44202,0.98303-0.98199S10.78638,4.08752,10.24634,4.08752z"/>
	<path class="st1" d="M19.95953,9.49182H4.46259c-0.60101,0-1.09302,0.49097-1.09302,1.09296v2.44403
		c0,0.60199,0.492,1.09399,1.09302,1.09399h0.01208v5.14258c0,0.13531,0.04071,0.26111,0.10498,0.37653
		c0.17462,0.31354,0.5542,0.53387,1,0.53387c0.60999,0,1.10504-0.40759,1.10504-0.9104V14.1228h1.47406v4.5h8v-4.5h1.57953v5.14258
		c0,0.50281,0.495,0.9104,1.10498,0.9104c0.60901,0,1.104-0.40759,1.104-0.9104V14.1228h0.01227
		c0.60205,0,1.09406-0.492,1.09406-1.09399v-2.44403C21.05359,9.98279,20.56158,9.49182,19.95953,9.49182z"/>
	<path class="st1" d="M8.15875,20.02899c0,0.60199,0.492,1.09399,1.09399,1.09399h5.81201c0.60199,0,1.09399-0.492,1.09399-1.09399
		V19.6228h-8V20.02899z"/>
	<path class="st1" d="M17.12335,3.80652c0-0.92603-0.995-1.68402-2.07599-1.68402h-5.763c-1.08002,0-1.96399,0.758-1.96399,1.68402
		l-0.021,4.211h9.82397V3.80652z M10.24634,6.05249c-0.53998,0-0.98199-0.44202-0.98199-0.98199s0.44202-0.98297,0.98199-0.98297
		c0.54004,0,0.98303,0.44299,0.98303,0.98297S10.78638,6.05249,10.24634,6.05249z M14.17639,6.05249
		c-0.54004,0-0.98206-0.44202-0.98206-0.98199s0.44202-0.98297,0.98206-0.98297c0.53998,0,0.98199,0.44299,0.98199,0.98297
		S14.71637,6.05249,14.17639,6.05249z"/>
</g>
<rect class="st0" width="24" height="24"/>
</svg>
