<?xml version="1.0" encoding="UTF-8"?>
<svg width="24px" height="24px" viewBox="0 0 24 24" version="1.1" xmlns="http://www.w3.org/2000/svg" xmlns:xlink="http://www.w3.org/1999/xlink">
    <!-- Generator: Sketch 47.1 (45422) - http://www.bohemiancoding.com/sketch -->
    <title>table </title>
    <desc>Created with Sketch.</desc>
    <defs></defs>
    <g id="visualizations" stroke="none" stroke-width="1" fill="none" fill-rule="evenodd">
        <g id="table-">
            <rect id="Rectangle-12" x="0" y="0" width="24" height="24"></rect>
            <g id="ic_list_black_24px">
                <path d="M3,13 L5,13 L5,11 L3,11 L3,13 Z M3,17 L5,17 L5,15 L3,15 L3,17 Z M3,9 L5,9 L5,7 L3,7 L3,9 Z M7,13 L21,13 L21,11 L7,11 L7,13 Z M7,17 L21,17 L21,15 L7,15 L7,17 Z M7,7 L7,9 L21,9 L21,7 L7,7 Z" id="Shape" fill="#585D63" fill-rule="nonzero"></path>
                <polygon id="Shape" points="0 0 24 0 24 24 0 24"></polygon>
            </g>
        </g>
    </g>
</svg>
