<?xml version="1.0" encoding="UTF-8"?><svg width="576" height="576" version="1.1" viewBox="0 0 576 576" xmlns="http://www.w3.org/2000/svg" xmlns:xlink="http://www.w3.org/1999/xlink"><!--Generated by IJSVG (https://github.com/curthard89/IJSVG)--><g transform="scale(24)"><g fill="none" fill-rule="evenodd" stroke="none" stroke-width="1"><path d="M0,0h24v24h-24Z"></path><g transform="translate(12.5251, 12.5251)"><g transform="rotate(45)"><g fill="#FF3B30" fill-rule="evenodd" stroke="none" stroke-width="1" transform="translate(-12.5251, -12.5251)"><path d="M16.448,10.1218h-6.32614v6.32614c0,0.698406 -0.565557,1.26523 -1.26523,1.26523c-0.699672,0 -1.26523,-0.566823 -1.26523,-1.26523v-6.32614h-6.32614c-0.699672,0 -1.26523,-0.566822 -1.26523,-1.26523c0,-0.698406 0.565557,-1.26523 1.26523,-1.26523h6.32614v-6.32614c0,-0.698406 0.565557,-1.26523 1.26523,-1.26523c0.699672,0 1.26523,0.566823 1.26523,1.26523v6.32614h6.32614c0.699672,0 1.26523,0.566823 1.26523,1.26523c0,0.698406 -0.565557,1.26523 -1.26523,1.26523" transform="translate(3.66852, 3.66852)"></path></g></g></g></g></g></svg>