<?xml version="1.0" encoding="utf-8"?>
<!-- Generator: Adobe Illustrator 22.0.1, SVG Export Plug-In . SVG Version: 6.00 Build 0)  -->
<svg version="1.1" id="Layer_1" xmlns="http://www.w3.org/2000/svg" xmlns:xlink="http://www.w3.org/1999/xlink" x="0px" y="0px"
	 viewBox="0 0 24 24" style="enable-background:new 0 0 24 24;" xml:space="preserve">
<style type="text/css">
	.st0{fill:#585D63;}
	.st1{fill:none;}
</style>
<title>test email</title>
<desc>Created with Sketch.</desc>
<g id="actions">
	<g id="test-email-">
		<path id="Shape_3_" class="st0" d="M14.33876,4.07034H3.4785c-0.74664,0-1.35075,0.59167-1.35075,1.31482l-0.00679,6.18648
			c0,0.72315,0.61089,1.31482,1.35753,1.31482h10.86026c0.74664,0,1.35753-0.59167,1.35753-1.31482V5.38515
			C15.69629,4.662,15.0854,4.07034,14.33876,4.07034z M14.33876,6.69997L8.90863,9.98702L3.4785,6.69997V5.38515L8.90863,8.6722
			l5.43013-3.28705V6.69997z"/>
		<polygon id="Page-1" class="st0" points="20.90738,11.82885 14.34898,18.38724 11.24692,15.29382 10.02856,16.51218 
			14.34898,20.8326 22.12573,13.05584 		"/>
	</g>
</g>
<rect class="st1" width="24" height="24"/>
<rect class="st1" width="24" height="24"/>
</svg>
