<?xml version="1.0" encoding="utf-8"?>
<!-- Generator: Adobe Illustrator 22.0.1, SVG Export Plug-In . SVG Version: 6.00 Build 0)  -->
<svg version="1.1" id="Layer_1" xmlns="http://www.w3.org/2000/svg" xmlns:xlink="http://www.w3.org/1999/xlink" x="0px" y="0px"
	 viewBox="0 0 24 24" style="enable-background:new 0 0 24 24;" xml:space="preserve">
<style type="text/css">
	.st0{fill:none;}
	.st1{fill:#585D63;}
</style>
<title>test http request</title>
<desc>Created with Sketch.</desc>
<g id="actions">
	<g id="test-http-request">
		<g id="more-horiz">
			<polygon id="Shape" class="st0" points="0,0 24,0 24,24 0,24 			"/>
		</g>
		<g id="stop">
			<polygon id="Shape_2_" class="st0" points="0,0 24,0 24,24 0,24 			"/>
		</g>
		<polygon id="Page-1" class="st1" points="20.90738,11.82885 14.34898,18.38724 11.24692,15.29382 10.02856,16.51218 
			14.34898,20.8326 22.12573,13.05584 		"/>
		<g>
			<path class="st0" d="M10.04004,3.7124c-1.63037,0-3.08203,1.02197-3.53027,2.48486L6.47705,6.30322H5.87354
				c-1.44922,0-2.62842,1.09473-2.62842,2.44043s1.1792,2.44092,2.62842,2.44092h9.02783c1.06543,0,1.93262-0.8042,1.93262-1.79297
				s-0.86719-1.79297-1.93262-1.79297h-1.19238V7.12451C13.70898,5.24316,12.06348,3.7124,10.04004,3.7124z"/>
			<path class="st1" d="M15.2666,6.03857c-0.53906-2.27881-2.71777-3.92139-5.22656-3.92139
				c-1.97412,0-3.77148,1.00391-4.71045,2.62549c-2.15674,0.25-3.77295,1.95752-3.77295,4.00098
				c0,2.22559,1.93652,4.03662,4.31689,4.03662h9.02783c1.99707,0,3.62305-1.52051,3.62305-3.38867
				C18.52441,7.66357,17.10254,6.21094,15.2666,6.03857z M14.90137,7.59863c1.06543,0,1.93262,0.8042,1.93262,1.79297
				s-0.86719,1.79297-1.93262,1.79297H5.87354c-1.44922,0-2.62842-1.09521-2.62842-2.44092s1.1792-2.44043,2.62842-2.44043h0.60352
				l0.03271-0.10596c0.44824-1.46289,1.8999-2.48486,3.53027-2.48486c2.02344,0,3.66895,1.53076,3.66895,3.41211v0.47412H14.90137z"
				/>
		</g>
		<rect id="Rectangle-12" class="st0" width="24" height="24"/>
	</g>
</g>
<rect class="st0" width="24" height="24"/>
</svg>
