<?xml version="1.0" encoding="UTF-8"?><svg width="576" height="576" version="1.1" viewBox="0 0 576 576" xmlns="http://www.w3.org/2000/svg" xmlns:xlink="http://www.w3.org/1999/xlink"><!--Generated by IJSVG (https://github.com/curthard89/IJSVG)--><g transform="scale(24)"><g fill="none"><path d="M0,0h24v24h-24Z"></path><g fill="#6F6F6F"><path d="M16.5,0h-15c-0.82501,0 -1.5,0.67499 -1.5,1.5v15c0,0.82501 0.67499,1.5 1.5,1.5h15c0.82501,0 1.5,-0.67499 1.5,-1.5v-15c0,-0.82501 -0.67499,-1.5 -1.5,-1.5Zm-0.5,16h-14v-14h14v14Z" transform="translate(3, 3)"></path></g><path fill="#6F6F6F" d="M1.196,7.67h1.482v-6.24h-1.248v1.573h-1.43v-3.003h7.124v3.003h-1.43v-1.573h-1.235v6.24h1.469v1.43h-4.732Z" transform="translate(8.338, 7.4247)"></path></g></g></svg>