<?xml version="1.0" encoding="UTF-8"?>
<svg width="24px" height="24px" viewBox="0 0 24 24" version="1.1" xmlns="http://www.w3.org/2000/svg" xmlns:xlink="http://www.w3.org/1999/xlink">
    <!-- Generator: Sketch 47.1 (45422) - http://www.bohemiancoding.com/sketch -->
    <title>text align right</title>
    <desc>Created with Sketch.</desc>
    <defs></defs>
    <g id="actions" stroke="none" stroke-width="1" fill="none" fill-rule="evenodd">
        <g id="text-align-right">
            <g id="more-horiz">
                <polygon id="Shape" points="0 0 24 0 24 24 0 24"></polygon>
            </g>
            <g id="ic_share_black_24px" transform="translate(-0.742432, 0.000000)">
                <polygon id="Shape" points="0 0 24 0 24 24 0 24"></polygon>
            </g>
            <g id="stop">
                <polygon id="Shape" points="0 0 24 0 24 24 0 24"></polygon>
            </g>
            <g id="TextAlignRight_template">
                <path d="M3,21 L21,21 L21,19 L3,19 L3,21 Z M9,17 L21,17 L21,15 L9,15 L9,17 Z M3,13 L21,13 L21,11 L3,11 L3,13 Z M9,9 L21,9 L21,7 L9,7 L9,9 Z M3,3 L3,5 L21,5 L21,3 L3,3 Z" id="Shape" fill="#585D63" fill-rule="nonzero"></path>
                <polygon id="Shape" points="0 0 24 0 24 24 0 24"></polygon>
            </g>
            <rect id="Rectangle-12" x="0" y="0" width="24" height="24"></rect>
        </g>
    </g>
</svg>
