<?xml version="1.0" encoding="UTF-8"?>
<svg width="24px" height="24px" viewBox="0 0 24 24" version="1.1" xmlns="http://www.w3.org/2000/svg" xmlns:xlink="http://www.w3.org/1999/xlink">
    <!-- Generator: Sketch 47.1 (45422) - http://www.bohemiancoding.com/sketch -->
    <title>text align center</title>
    <desc>Created with Sketch.</desc>
    <defs></defs>
    <g id="actions" stroke="none" stroke-width="1" fill="none" fill-rule="evenodd">
        <g id="text-align-center">
            <g id="more-horiz">
                <polygon id="Shape" points="0 0 24 0 24 24 0 24"></polygon>
            </g>
            <g id="ic_share_black_24px" transform="translate(-0.742432, 0.000000)">
                <polygon id="Shape" points="0 0 24 0 24 24 0 24"></polygon>
            </g>
            <g id="stop">
                <polygon id="Shape" points="0 0 24 0 24 24 0 24"></polygon>
            </g>
            <g id="TextAlignCenter_template" transform="translate(3.000000, 3.000000)" fill-rule="nonzero" fill="#585D63">
                <path d="M4,12 L4,14 L14,14 L14,12 L4,12 Z M0,18 L18,18 L18,16 L0,16 L0,18 Z M0,10 L18,10 L18,8 L0,8 L0,10 Z M4,4 L4,6 L14,6 L14,4 L4,4 Z M0,0 L0,2 L18,2 L18,0 L0,0 Z" id="Shape"></path>
            </g>
            <rect id="Rectangle-12" x="0" y="0" width="24" height="24"></rect>
        </g>
    </g>
</svg>
