<?xml version="1.0" encoding="utf-8"?>
<!-- Generator: Adobe Illustrator 18.1.1, SVG Export Plug-In . SVG Version: 6.00 Build 0)  -->
<svg version="1.1" id="Layer_2" xmlns="http://www.w3.org/2000/svg" xmlns:xlink="http://www.w3.org/1999/xlink" x="0px" y="0px"
	 viewBox="0 0 18 18" enable-background="new 0 0 18 18" xml:space="preserve">
<g>
	<path fill="#585D63" d="M9,2c3.9,0,7,3.1,7,7s-3.1,7-7,7s-7-3.1-7-7S5.1,2,9,2 M9,0.4C4.3,0.4,0.4,4.2,0.4,9c0,4.7,3.8,8.6,8.6,8.6
		s8.6-3.8,8.6-8.6C17.6,4.2,13.7,0.4,9,0.4L9,0.4z"/>
</g>
<polygon fill="#585D63" points="9.6,3.8 8.1,3.8 8.1,9.8 12.8,12.6 13.6,11.4 9.6,9 "/>
</svg>
