<?xml version="1.0" encoding="utf-8"?>
<!-- Generator: Adobe Illustrator 22.1.0, SVG Export Plug-In . SVG Version: 6.00 Build 0)  -->
<svg version="1.1" id="Layer_1" xmlns="http://www.w3.org/2000/svg" xmlns:xlink="http://www.w3.org/1999/xlink" x="0px" y="0px"
	 viewBox="0 0 24 24" style="enable-background:new 0 0 24 24;" xml:space="preserve">
<style type="text/css">
	.st0{fill:#585D63;}
</style>
<title>timer_template</title>
<g id="Layer_4">
	<path class="st0" d="M14,2h-4C9.4,2,9,2.4,9,3l0,0c0,0.6,0.4,1,1,1h4c0.6,0,1-0.4,1-1l0,0C15,2.4,14.6,2,14,2z M11,15h2V9h-2V15z
		 M19,8.4l0.8-0.8c0.4-0.4,0.4-1,0-1.4l0,0c-0.4-0.4-1-0.4-1.4,0L17.6,7l0,0C16,5.7,14,5,12,5c-4.9,0.1-8.8,3.9-9,8.8
		c-0.2,5,3.7,9.1,8.7,9.3c5,0.2,9.1-3.7,9.3-8.7C21.1,12.2,20.4,10.1,19,8.4z M13.4,20.9c-3.8,0.8-7.5-1.7-8.2-5.5s1.7-7.5,5.5-8.2
		s7.5,1.7,8.2,5.5c0.2,0.9,0.2,1.8,0,2.7C18.3,18.1,16.1,20.3,13.4,20.9z"/>
</g>
</svg>
