<?xml version="1.0" encoding="UTF-8"?><svg width="576" height="576" version="1.1" viewBox="0 0 576 576" xmlns="http://www.w3.org/2000/svg" xmlns:xlink="http://www.w3.org/1999/xlink"><!--Generated by IJSVG (https://github.com/curthard89/IJSVG)--><g transform="scale(24)"><g fill="none"><g transform="translate(-0.630737, -1)"></g><g fill="none"><path d="M5.74962,6.45059h-3.56866l0.61291,0.61334c0.24957,0.24957 0.24957,0.65332 0,0.90289c-0.12433,0.12518 -0.2879,0.18738 -0.45142,0.18738c-0.16357,0 -0.32709,-0.06219 -0.45148,-0.18738l-1.7027,-1.7027l-0.0009,-0.00091c-0.0614,-0.0614 -0.10699,-0.13239 -0.13818,-0.20789c-0.02771,-0.06689 -0.04041,-0.14062 -0.04376,-0.21661c-0.00043,-0.00946 -0.00543,-0.0174 -0.00543,-0.02692c0,-0.00848 0.00452,-0.01556 0.00482,-0.02399c0.00305,-0.07715 0.0163,-0.15179 0.04437,-0.2196c0.03119,-0.0755 0.07678,-0.14648 0.13818,-0.20789l0.00092,-0.00092l1.7027,-1.7027c0.24957,-0.24957 0.65332,-0.24957 0.90289,0c0.24957,0.24957 0.24957,0.65338 0,0.90295l-0.61286,0.6133h3.5686c0.35266,0 0.63885,0.28619 0.63885,0.63885c1e-05,0.35261 -0.28619,0.6388 -0.63885,0.6388Zm4.04089,-4.07147c0.00037,0.00891 0.00513,0.01642 0.00513,0.02545c0,0.00903 -0.00476,0.01654 -0.00513,0.02545c-0.00317,0.0766 -0.01617,0.15082 -0.04407,0.21814c-0.03119,0.0755 -0.07678,0.14648 -0.13818,0.20789l-0.00092,0.00092l-1.7027,1.7027c-0.12439,0.12518 -0.2879,0.18738 -0.45148,0.18738c-0.16351,0 -0.32709,-0.06219 -0.45142,-0.18738c-0.24957,-0.24957 -0.24957,-0.65338 0,-0.90295l0.61285,-0.61328h-3.5686c-0.3526,0 -0.63885,-0.28619 -0.63885,-0.63885c0,-0.3526 0.28625,-0.63879 0.63885,-0.63879h3.56866l-0.61292,-0.61334c-0.24957,-0.24957 -0.24957,-0.65332 0,-0.90289c0.24957,-0.24957 0.65332,-0.24957 0.90289,0l1.7027,1.7027l0.00092,0.00092c0.0614,0.0614 0.10699,0.13239 0.13818,0.20789c0.02792,0.06728 0.04092,0.14144 0.04409,0.21804Z" transform="translate(5.62013, 6.40976)"></path><path fill="#6F6F6F" d="M8.51794,15.3323c-3.75726,0 -6.81433,-3.05707 -6.81433,-6.81433c0,-3.75726 3.05707,-6.81433 6.81433,-6.81433c3.67401,0 6.67059,2.92523 6.80182,6.56775c0.60052,0.04486 1.17505,0.18085 1.70837,0.39954c0.00092,-0.05139 0.00775,-0.10132 0.00775,-0.15295c1e-05,-4.69679 -3.82116,-8.51796 -8.51794,-8.51796c-4.69678,0 -8.51794,3.82117 -8.51794,8.51794c0,4.69677 3.82117,8.51794 8.51794,8.51794c0.55035,0 1.08722,-0.05695 1.60883,-0.15717c-0.30908,-0.49298 -0.5426,-1.03644 -0.68787,-1.61621c-0.302,0.04109 -0.60785,0.06978 -0.92096,0.06978Z" transform="translate(2, 2)"></path><path fill="#6F6F6F" d="M5.74962,1.7658h-3.5686l0.61285,-0.61328c0.24957,-0.24957 0.24957,-0.65338 0,-0.90295c-0.24957,-0.24957 -0.65332,-0.24957 -0.90289,0l-1.7027,1.7027l-0.00091,0.00091c-0.0614,0.0614 -0.10699,0.13239 -0.13818,0.20789c-0.02808,0.06781 -0.04132,0.14246 -0.04437,0.2196c-0.00031,0.00842 -0.00482,0.0155 -0.00482,0.02399c0,0.00952 0.005,0.01746 0.00543,0.02692c0.00336,0.07599 0.01605,0.14972 0.04376,0.21661c0.03119,0.0755 0.07678,0.14648 0.13818,0.20789l0.00092,0.00092l1.7027,1.7027c0.12439,0.12518 0.2879,0.18738 0.45148,0.18738c0.16351,0 0.32709,-0.06219 0.45142,-0.18738c0.24957,-0.24957 0.24957,-0.65332 0,-0.90289l-0.61292,-0.61334h3.56866c0.35266,0 0.63885,-0.28619 0.63885,-0.63879c-1.77636e-15,-0.35268 -0.2862,-0.63888 -0.63886,-0.63888Z" transform="translate(5.62013, 9.8169)"></path><path fill="#6F6F6F" d="M6.20019,1.95227l-1.7027,-1.7027c-0.24957,-0.24957 -0.65332,-0.24957 -0.90289,0c-0.24957,0.24957 -0.24957,0.65332 0,0.90289l0.61292,0.61334h-3.56867c-0.3526,0 -0.63885,0.28619 -0.63885,0.63879c0,0.35266 0.28625,0.63885 0.63885,0.63885h3.5686l-0.61285,0.61328c-0.24957,0.24957 -0.24957,0.65338 0,0.90295c0.12433,0.12518 0.2879,0.18738 0.45142,0.18738c0.16357,0 0.32709,-0.06219 0.45148,-0.18738l1.7027,-1.7027l0.00092,-0.00092c0.0614,-0.0614 0.10699,-0.13239 0.13818,-0.20789c0.02789,-0.06732 0.04089,-0.14154 0.04407,-0.21814c0.00037,-0.00891 0.00513,-0.01642 0.00513,-0.02545c0,-0.00903 -0.00476,-0.01654 -0.00513,-0.02545c-0.00317,-0.0766 -0.01617,-0.15076 -0.04407,-0.21808c-0.03119,-0.0755 -0.07678,-0.14648 -0.13818,-0.20789l-0.00093,-0.00088Z" transform="translate(9.02729, 6.40973)"></path><path fill="#6F6F6F" d="M10.8647,9.44007l-2.17206,-2.17438l-0.87213,-0.87311c-0.09271,-0.09283 -0.20068,-0.15942 -0.31384,-0.20886c0.38062,-0.61884 0.61115,-1.34045 0.61115,-2.12042c0,-1.53717 -0.86292,-2.85895 -2.12073,-3.54926c-0.49359,-0.27087 -1.04492,-0.43921 -1.63617,-0.48352c-0.1015,-0.00763 -0.19855,-0.03052 -0.302,-0.03052c-2.24152,0 -4.0589,1.81934 -4.0589,4.06329c0,0.33948 0.05383,0.66406 0.1322,0.97925c0.14185,0.57062 0.40564,1.08716 0.75989,1.53381c0.74359,0.93744 1.8783,1.55023 3.16681,1.55023c0.77917,0 1.50006,-0.23071 2.11816,-0.61182c0.04938,0.11328 0.11591,0.22137 0.20862,0.31421l0.87213,0.87305l2.17206,2.17438c0.19781,0.19813 0.45764,0.29768 0.71741,0.29768c0.25977,0 0.51953,-0.09955 0.71741,-0.29767c0.19836,-0.19861 0.29754,-0.45837 0.29754,-0.7182c0,-0.25976 -0.09918,-0.51959 -0.29755,-0.71814Zm-6.80578,-2.83722c-0.6994,0 -1.33337,-0.28479 -1.7926,-0.74438c-0.40698,-0.40735 -0.66412,-0.95557 -0.72058,-1.56116c-0.00726,-0.07825 -0.02362,-0.15387 -0.02362,-0.23401c0,-1.33197 1.03333,-2.4162 2.33862,-2.51947c0.06653,-0.00525 0.13031,-0.02008 0.19818,-0.02008c0.54907,0 1.05432,0.17981 1.46985,0.47766c0.64343,0.46118 1.06696,1.21136 1.06696,2.06189c-1e-05,1.39978 -1.13752,2.53955 -2.53681,2.53955Z" transform="translate(12.8378, 11.8259)"></path></g><path d="M0,0h24v24h-24Z"></path></g></g></svg>