<?xml version="1.0" encoding="utf-8"?>
<!-- Generator: Adobe Illustrator 22.0.1, SVG Export Plug-In . SVG Version: 6.00 Build 0)  -->
<svg version="1.1" id="Layer_1" xmlns="http://www.w3.org/2000/svg" xmlns:xlink="http://www.w3.org/1999/xlink" x="0px" y="0px"
	 viewBox="0 0 24 24" style="enable-background:new 0 0 24 24;" xml:space="preserve">
<style type="text/css">
	.st0{fill:none;}
	.st1{fill:#585D63;}
</style>
<title>synth session copy</title>
<desc>Created with Sketch.</desc>
<g id="places">
	<g id="synth-session-copy">
		<g id="policies_template">
			<g id="Layer_1_1_">
			</g>
		</g>
		<g id="serviceAvailability_template" transform="translate(-0.630737, -1.000000)">
			<g id="Layer_1_2_">
			</g>
		</g>
	</g>
</g>
<g>
	<path class="st0" d="M11.36975,12.86035H7.80109L8.414,13.47369c0.24957,0.24957,0.24957,0.65332,0,0.90289
		c-0.12433,0.12518-0.2879,0.18738-0.45142,0.18738c-0.16357,0-0.32709-0.06219-0.45148-0.18738l-1.7027-1.7027l-0.0009-0.00091
		c-0.0614-0.0614-0.10699-0.13239-0.13818-0.20789c-0.02771-0.06689-0.04041-0.14062-0.04376-0.21661
		c-0.00043-0.00946-0.00543-0.0174-0.00543-0.02692c0-0.00848,0.00452-0.01556,0.00482-0.02399
		c0.00305-0.07715,0.0163-0.15179,0.04437-0.2196c0.03119-0.0755,0.07678-0.14648,0.13818-0.20789l0.00092-0.00092l1.7027-1.7027
		c0.24957-0.24957,0.65332-0.24957,0.90289,0s0.24957,0.65338,0,0.90295l-0.61286,0.6133h3.5686
		c0.35266,0,0.63885,0.28619,0.63885,0.63885C12.00861,12.57416,11.72241,12.86035,11.36975,12.86035z M15.41064,8.78888
		c0.00037,0.00891,0.00513,0.01642,0.00513,0.02545s-0.00476,0.01654-0.00513,0.02545
		c-0.00317,0.0766-0.01617,0.15082-0.04407,0.21814c-0.03119,0.0755-0.07678,0.14648-0.13818,0.20789l-0.00092,0.00092
		l-1.7027,1.7027c-0.12439,0.12518-0.2879,0.18738-0.45148,0.18738c-0.16351,0-0.32709-0.06219-0.45142-0.18738
		c-0.24957-0.24957-0.24957-0.65338,0-0.90295l0.61285-0.61328h-3.5686c-0.3526,0-0.63885-0.28619-0.63885-0.63885
		c0-0.3526,0.28625-0.63879,0.63885-0.63879h3.56866l-0.61292-0.61334c-0.24957-0.24957-0.24957-0.65332,0-0.90289
		s0.65332-0.24957,0.90289,0l1.7027,1.7027l0.00092,0.00092c0.0614,0.0614,0.10699,0.13239,0.13818,0.20789
		C15.39447,8.63812,15.40747,8.71228,15.41064,8.78888z"/>
	<path class="st1" d="M10.51794,17.33228c-3.75726,0-6.81433-3.05707-6.81433-6.81433s3.05707-6.81433,6.81433-6.81433
		c3.67401,0,6.67059,2.92523,6.80182,6.56775c0.60052,0.04486,1.17505,0.18085,1.70837,0.39954
		c0.00092-0.05139,0.00775-0.10132,0.00775-0.15295C19.03589,5.82117,15.21472,2,10.51794,2S2,5.82117,2,10.51794
		s3.82117,8.51794,8.51794,8.51794c0.55035,0,1.08722-0.05695,1.60883-0.15717c-0.30908-0.49298-0.5426-1.03644-0.68787-1.61621
		C11.1369,17.30359,10.83105,17.33228,10.51794,17.33228z"/>
	<path class="st1" d="M11.36975,11.5827h-3.5686L8.414,10.96942c0.24957-0.24957,0.24957-0.65338,0-0.90295
		s-0.65332-0.24957-0.90289,0l-1.7027,1.7027L5.8075,11.77008c-0.0614,0.0614-0.10699,0.13239-0.13818,0.20789
		c-0.02808,0.06781-0.04132,0.14246-0.04437,0.2196c-0.00031,0.00842-0.00482,0.0155-0.00482,0.02399
		c0,0.00952,0.005,0.01746,0.00543,0.02692c0.00336,0.07599,0.01605,0.14972,0.04376,0.21661
		c0.03119,0.0755,0.07678,0.14648,0.13818,0.20789l0.00092,0.00092l1.7027,1.7027c0.12439,0.12518,0.2879,0.18738,0.45148,0.18738
		c0.16351,0,0.32709-0.06219,0.45142-0.18738c0.24957-0.24957,0.24957-0.65332,0-0.90289L7.8011,12.86037h3.56866
		c0.35266,0,0.63885-0.28619,0.63885-0.63879C12.00861,11.8689,11.72241,11.5827,11.36975,11.5827z"/>
	<path class="st1" d="M15.22748,8.362l-1.7027-1.7027c-0.24957-0.24957-0.65332-0.24957-0.90289,0s-0.24957,0.65332,0,0.90289
		l0.61292,0.61334H9.66614c-0.3526,0-0.63885,0.28619-0.63885,0.63879c0,0.35266,0.28625,0.63885,0.63885,0.63885h3.5686
		l-0.61285,0.61328c-0.24957,0.24957-0.24957,0.65338,0,0.90295c0.12433,0.12518,0.2879,0.18738,0.45142,0.18738
		c0.16357,0,0.32709-0.06219,0.45148-0.18738l1.7027-1.7027l0.00092-0.00092c0.0614-0.0614,0.10699-0.13239,0.13818-0.20789
		c0.02789-0.06732,0.04089-0.14154,0.04407-0.21814c0.00037-0.00891,0.00513-0.01642,0.00513-0.02545
		s-0.00476-0.01654-0.00513-0.02545c-0.00317-0.0766-0.01617-0.15076-0.04407-0.21808
		c-0.03119-0.0755-0.07678-0.14648-0.13818-0.20789L15.22748,8.362z"/>
</g>
<rect class="st0" width="24" height="24"/>
<g>
	<path class="st0" d="M16.84601,13.78711c-1.31525,0-2.38531,1.07007-2.38531,2.38531s1.07007,2.38525,2.38531,2.38525
		c1.31519,0,2.38525-1.07001,2.38525-2.38525S18.16119,13.78711,16.84601,13.78711z"/>
	<path class="st1" d="M23.36975,21.37915l-1.5694-1.5694l-1.16162-1.164l-0.0647-0.06476l-0.00311-0.00067l-0.1972-0.19714
		c0.66235-1.04211,0.82672-2.26074,0.46069-3.45905c-0.43878-1.43304-1.66388-2.54883-3.12115-2.84277
		c-0.28796-0.05811-0.57983-0.08752-0.86737-0.08752c-1.25836,0-2.4375,0.5589-3.23511,1.53333
		c-0.79749,0.97437-1.10944,2.25464-0.85583,3.51251c0.29401,1.45728,1.40979,2.68237,2.84259,3.12109
		c0.41333,0.12622,0.83325,0.19019,1.24829,0.19019c0.77838,0,1.53766-0.22412,2.21088-0.65051l0.19702,0.19678l0.00006,0.00006
		l0.06555,0.06787l1.05566,1.05322l1.67712,1.67773c0.17639,0.17596,0.41028,0.27271,0.65881,0.27271
		s0.48242-0.09674,0.65851-0.2724C23.73285,22.33307,23.73285,21.74225,23.36975,21.37915z M16.84601,18.55768
		c-1.31525,0-2.38531-1.07001-2.38531-2.38525s1.07007-2.38531,2.38531-2.38531c1.31519,0,2.38525,1.07007,2.38525,2.38531
		S18.16119,18.55768,16.84601,18.55768z"/>
</g>
</svg>
