<?xml version="1.0" encoding="UTF-8"?>
<svg width="24px" height="24px" viewBox="0 0 24 24" version="1.1" xmlns="http://www.w3.org/2000/svg" xmlns:xlink="http://www.w3.org/1999/xlink">
    <!-- Generator: Sketch 47.1 (45422) - http://www.bohemiancoding.com/sketch -->
    <title>chevron left</title>
    <desc>Created with Sketch.</desc>
    <defs></defs>
    <g id="navigation" stroke="none" stroke-width="1" fill="none" fill-rule="evenodd">
        <g id="chevron-left">
            <rect id="Rectangle-12" x="0" y="0" width="24" height="24"></rect>
            <g id="ic_chevron_left_black_24px">
                <path d="M14.705,6.705 L14.705,6.705 L14.705,6.705 C14.3156393,6.31563925 13.6843607,6.31563925 13.295,6.705 L8.70710678,11.2928932 L8.70710678,11.2928932 C8.31658249,11.6834175 8.31658249,12.3165825 8.70710678,12.7071068 L13.295,17.295 L13.295,17.295 C13.6843607,17.6843607 14.3156393,17.6843607 14.705,17.295 L14.705,17.295 L14.705,17.295 C15.094485,16.905515 15.0948293,16.2741412 14.7057692,15.8842316 L10.83,12 L14.7057692,8.11576839 L14.7057692,8.11576839 C15.0948293,7.72585884 15.094485,7.09448505 14.705,6.705 Z" id="Shape" fill="#585D63" fill-rule="nonzero"></path>
                <polygon id="Shape" points="0.705 0 24.705 0 24.705 24 0.705 24"></polygon>
            </g>
        </g>
    </g>
</svg>
