<?xml version="1.0" encoding="utf-8"?>
<!-- Generator: Adobe Illustrator 22.0.1, SVG Export Plug-In . SVG Version: 6.00 Build 0)  -->
<svg version="1.1" xmlns="http://www.w3.org/2000/svg" xmlns:xlink="http://www.w3.org/1999/xlink" x="0px" y="0px"
	 viewBox="0 0 24 24" style="enable-background:new 0 0 24 24;" xml:space="preserve">
<style type="text/css">
	.st0{fill:none;}
	.st1{fill:#585D63;}
</style>
<g id="Layer_1">
	<title>troubleshoot</title>
	<desc>Created with Sketch.</desc>
	<g id="places">
		<g id="troubleshoot">
			<g id="policies_template">
				<g id="Layer_1_1_">
				</g>
			</g>
			<g id="serviceAvailability_template" transform="translate(-0.630737, -1.000000)">
				<g id="Layer_1_2_">
				</g>
			</g>
		</g>
	</g>
</g>
<g id="Layer_2">
	<g>
		<path class="st0" d="M5,16.00549h14V5H5V16.00549z M11,7.04376c0-0.01416,0.01147-0.0257,0.0257-0.0257h1.94861
			C12.98853,7.01807,13,7.0296,13,7.04376v3.88977c0,0.01422-0.01147,0.0257-0.0257,0.0257H11.0257
			c-0.01422,0-0.0257-0.01147-0.0257-0.0257V7.04376z M11,12.10736c0-0.01416,0.01147-0.0257,0.0257-0.0257h1.94861
			c0.01422,0,0.0257,0.01154,0.0257,0.0257v1.84888c0,0.01422-0.01147,0.0257-0.0257,0.0257H11.0257
			c-0.01422,0-0.0257-0.01147-0.0257-0.0257V12.10736z"/>
		<path class="st1" d="M12.9743,10.95923c0.01422,0,0.0257-0.01147,0.0257-0.0257V7.04376c0-0.01416-0.01147-0.0257-0.0257-0.0257
			H11.0257C11.01147,7.01807,11,7.0296,11,7.04376v3.88977c0,0.01422,0.01147,0.0257,0.0257,0.0257H12.9743z"/>
		<path class="st1" d="M12.9743,13.98193c0.01422,0,0.0257-0.01147,0.0257-0.0257v-1.84888c0-0.01416-0.01147-0.0257-0.0257-0.0257
			H11.0257c-0.01422,0-0.0257,0.01154-0.0257,0.0257v1.84888c0,0.01422,0.01147,0.0257,0.0257,0.0257H12.9743z"/>
		<rect x="3" y="19.99951" class="st1" width="18" height="2"/>
		<path class="st1" d="M19.25348,3H4.74652C3.78192,3,3,3.78192,3,4.74652v11.51245c0,0.9646,0.78192,1.74652,1.74652,1.74652
			h14.50696c0.9646,0,1.74652-0.78192,1.74652-1.74652V4.74652C21,3.78192,20.21808,3,19.25348,3z M19,16.00549H5V5h14V16.00549z"/>
	</g>
</g>
</svg>
