<?xml version="1.0" encoding="UTF-8"?><svg width="576" height="576" version="1.1" viewBox="0 0 576 576" xmlns="http://www.w3.org/2000/svg" xmlns:xlink="http://www.w3.org/1999/xlink"><!--Generated by IJSVG (https://github.com/curthard89/IJSVG)--><g transform="scale(24)"><g fill="none"><path d="M0,0h24v24h-24Z"></path><g transform="translate(-0.630737, -1)"></g><path fill="#6F6F6F" d="M0,0h2v3.94116h-2Z" transform="translate(11, 7.01807)"></path><path fill="#6F6F6F" d="M0,0h2v1.90027h-2Z" transform="translate(11, 12.0817)"></path><path fill="#6F6F6F" d="M17,2h-16c-0.553,0 -1,-0.448 -1,-1c0,-0.552 0.447,-1 1,-1h16c0.553,0 1,0.448 1,1c0,0.552 -0.447,1 -1,1" transform="translate(3, 18.9995)"></path><path fill="#6F6F6F" d="M3,2c-0.552,0 -1,0.449 -1,1v9c0,0.551 0.448,1 1,1h12c0.552,0 1,-0.449 1,-1v-9c0,-0.551 -0.448,-1 -1,-1h-12Zm12,13h-12c-1.654,0 -3,-1.346 -3,-3v-9c0,-1.654 1.346,-3 3,-3h12c1.654,0 3,1.346 3,3v9c0,1.654 -1.346,3 -3,3v0Z" transform="translate(3, 3)"></path></g></g></svg>