<?xml version="1.0" encoding="UTF-8"?><svg width="576" height="576" version="1.1" viewBox="0 0 576 576" xmlns="http://www.w3.org/2000/svg" xmlns:xlink="http://www.w3.org/1999/xlink"><!--Generated by IJSVG (https://github.com/curthard89/IJSVG)--><g transform="scale(24)"><g fill="none"><g transform="translate(15, 2.5)"></g><g fill="none"><path d="M0,1.76099h1.12701l-0.56403,-1.76099Z" transform="translate(7.85352, 10.3545)"></path><path d="M5,0c-2.75702,0 -5,2.24304 -5,5c0,2.75702 2.24298,5 5,5c2.75702,0 5,-2.24298 5,-5c0,-2.75695 -2.24298,-5 -5,-5Zm1.39349,7.9093l-0.48101,-1.43298h-1.995l-0.47699,1.43298h-1.52899l2.43201,-6.909h1.14197l2.43304,6.909h-1.52503Z" transform="translate(3.5, 7.00018)"></path><path fill="#6F6F6F" d="M7,0c-3.86603,0 -7,3.13403 -7,7c0,3.86603 3.13397,7 7,7c3.86603,0 7,-3.13397 7,-7c0,-3.86596 -3.13397,-7 -7,-7Zm0,12c-2.75702,0 -5,-2.24298 -5,-5c0,-2.75696 2.24298,-5 5,-5c2.75702,0 5,2.24304 5,5c0,2.75702 -2.24298,5 -5,5Z" transform="translate(1.5, 5.00018)"></path><path fill="#6F6F6F" d="M0.75098,3.5h4.19049l-0.71948,0.71997c-0.29199,0.29401 -0.29199,0.76801 0,1.06104c0.29199,0.29401 0.76599,0.29401 1.05902,0l2.00098,-2c0.29199,-0.29401 0.29199,-0.76801 0,-1.06104l-2.00098,-2.00098c-0.14606,-0.14599 -0.33704,-0.21899 -0.53003,-0.21899c-0.19202,0 -0.383,0.073 -0.52899,0.21899c-0.29199,0.29401 -0.29199,0.76898 0,1.06104l0.72052,0.72095h-4.19153c-0.41302,0 -0.75098,0.336 -0.75098,0.74902c0,0.414 0.33796,0.75 0.75098,0.75Z" transform="translate(16.499, 6)"></path><path fill="#6F6F6F" d="M6.76855,2h-4.18958l0.71857,-0.71997c0.29303,-0.29401 0.29303,-0.76703 0,-1.06006c-0.14697,-0.14697 -0.33801,-0.21997 -0.52997,-0.21997c-0.19104,0 -0.383,0.073 -0.52905,0.21997l-2,2c-0.00134,0.00134 -0.00171,0.00317 -0.00305,0.00452c-0.06714,0.06812 -0.1214,0.14874 -0.15875,0.23846c-0.0766,0.18359 -0.07672,0.39001 -0.00024,0.57367c0.03845,0.09265 0.09424,0.17615 0.16443,0.24579l1.99762,1.99762c0.14605,0.146 0.338,0.21997 0.53002,0.21997c0.19202,0 0.38397,-0.07397 0.52899,-0.21997c0.29303,-0.29401 0.29303,-0.76605 0,-1.06006l-0.71851,-0.71899h4.18952c0.414,0 0.74902,-0.33698 0.74902,-0.75c0,-0.41498 -0.33502,-0.75098 -0.74902,-0.75098Z" transform="translate(16.4814, 13)"></path><path fill="#6F6F6F" d="M2.43201,0l-2.43201,6.909h1.52899l0.47699,-1.43298h1.995l0.48102,1.43298h1.52502l-2.43304,-6.909h-1.14197Zm0.01001,4.11499l0.56299,-1.76099l0.56403,1.76099h-1.12702Z" transform="translate(5.4115, 8.00049)"></path></g><path d="M0,0h23.999v23.999h-23.999Z"></path></g></g></svg>