<?xml version="1.0" encoding="UTF-8"?><svg width="576" height="576" version="1.1" viewBox="0 0 576 576" xmlns="http://www.w3.org/2000/svg" xmlns:xlink="http://www.w3.org/1999/xlink"><!--Generated by IJSVG (https://github.com/curthard89/IJSVG)--><g transform="scale(24)"><g fill="none"><g transform="translate(15, 2.5)"></g><g fill="none"><path d="M5,0c-2.75702,0 -5,2.24304 -5,5c0,2.75702 2.24298,5 5,5c2.75702,0 5,-2.24298 5,-5c0,-2.75695 -2.24298,-5 -5,-5Z" transform="translate(3.42236, 7.00018)"></path><path d="M0.94556,0c-0.51312,0 -0.94556,0.43353 -0.94556,0.94556v1.3028c0,0.51312 0.43243,0.94666 0.94556,0.94666c0.51313,0 0.94543,-0.43347 0.94556,-0.94653h-0.29383v-1.3028h0.29382v-0.00012c0,-0.51203 -0.43237,-0.94557 -0.94555,-0.94557Z" transform="translate(7.57892, 10.4029)"></path><path fill="#6F6F6F" d="M2.60443,4.85389c-0.51312,0 -0.94556,-0.43353 -0.94556,-0.94666v-1.3028c0,-0.51202 0.43243,-0.94556 0.94556,-0.94556c0.51318,0 0.94556,0.43353 0.94556,0.94556v0.00012h1.65887v-0.00012c0,-1.43213 -1.17224,-2.60443 -2.60443,-2.60443c-1.43329,0 -2.60443,1.1723 -2.60443,2.60443v1.3028c0,1.43329 1.17114,2.60553 2.60443,2.60553c1.43213,0 2.60431,-1.17218 2.60443,-2.60541h-1.65888c-0.00012,0.51307 -0.43243,0.94654 -0.94555,0.94654Z" transform="translate(5.92005, 8.74401)"></path><path fill="#6F6F6F" d="M7,0c-3.86603,0 -7,3.13403 -7,7c0,3.86603 3.13397,7 7,7c3.86603,0 7,-3.13397 7,-7c0,-3.86596 -3.13397,-7 -7,-7Zm0,12c-2.75702,0 -5,-2.24298 -5,-5c0,-2.75696 2.24298,-5 5,-5c2.75702,0 5,2.24304 5,5c0,2.75702 -2.24298,5 -5,5Z" transform="translate(1.42236, 5.00018)"></path><path fill="#6F6F6F" d="M0.75098,3.5h4.19049l-0.71948,0.71997c-0.29199,0.29401 -0.29199,0.76801 0,1.06104c0.29199,0.29401 0.76599,0.29401 1.05902,0l2.00098,-2c0.29199,-0.29401 0.29199,-0.76801 0,-1.06104l-2.00098,-2.00098c-0.14605,-0.14599 -0.33703,-0.21899 -0.53003,-0.21899c-0.19202,0 -0.383,0.073 -0.52899,0.21899c-0.29199,0.29401 -0.29199,0.76898 0,1.06104l0.72052,0.72095h-4.19153c-0.41302,0 -0.75098,0.336 -0.75098,0.74902c1e-05,0.414 0.33796,0.75 0.75098,0.75Z" transform="translate(16.4214, 6)"></path><path fill="#6F6F6F" d="M6.74999,2h-4.18958l0.71857,-0.71997c0.29303,-0.29401 0.29303,-0.76703 0,-1.06006c-0.14697,-0.14697 -0.33801,-0.21997 -0.52996,-0.21997c-0.19104,0 -0.383,0.073 -0.52905,0.21997l-1.99988,1.99988l-0.00012,0.00012c-0.00134,0.00134 -0.00171,0.00317 -0.00305,0.00452c-0.06714,0.06812 -0.1214,0.14874 -0.15875,0.23846c-0.03693,0.08875 -0.05817,0.18585 -0.05817,0.28802c0,0.1012 0.0213,0.19739 0.05792,0.28564c0.03674,0.0882 0.09003,0.17139 0.16205,0.24341l0.00238,0.00238l1.99762,1.99762c0.14606,0.146 0.33801,0.21997 0.53003,0.21997c0.19202,0 0.38397,-0.07397 0.52899,-0.21997c0.29303,-0.29401 0.29303,-0.76605 0,-1.06006l-0.71851,-0.71899h4.18951c0.414,0 0.74902,-0.33698 0.74902,-0.75c1e-05,-0.41497 -0.33502,-0.75097 -0.74902,-0.75097Z" transform="translate(16.4224, 13)"></path></g><path d="M0,0h24v24h-24Z"></path></g></g></svg>