<?xml version="1.0" encoding="UTF-8"?><svg width="576" height="576" version="1.1" viewBox="0 0 576 576" xmlns="http://www.w3.org/2000/svg" xmlns:xlink="http://www.w3.org/1999/xlink"><!--Generated by IJSVG (https://github.com/curthard89/IJSVG)--><g transform="scale(24)"><g fill="none"><g fill="none"><path d="M5,7.20007c0.79303,0 1.53326,-0.20251 2.20007,-0.53253l-1.35645,-1.35645c-0.25928,0.08716 -0.53156,0.14557 -0.81915,0.14557c-1.43329,0 -2.60443,-1.17224 -2.60443,-2.60553v-0.96362l-1.88751,-1.88751c-0.33002,0.66681 -0.53253,1.40704 -0.53253,2.20007c0,2.75702 2.24298,5 5,5Z" transform="translate(2.5, 9.80011)"></path><path fill="#6F6F6F" d="M3.27203,2c2.75702,0 5,2.24304 5,5c0,0.61859 -0.12744,1.20471 -0.33374,1.75201l1.52002,1.52002c0.51776,-0.97687 0.81372,-2.08942 0.81372,-3.27203c0,-3.86597 -3.13397,-7 -7,-7c-1.18262,0 -2.29517,0.29596 -3.27203,0.81372l1.52002,1.52002c0.5473,-0.2063 1.13342,-0.33374 1.75201,-0.33374Z" transform="translate(4.49555, 5.00018)"></path><path fill="#6F6F6F" d="M0.33264,0c-0.11383,0 -0.22253,0.01941 -0.33264,0.03375l2.5708,2.5708h0.36627v-0.00012c0,-1.43213 -1.17224,-2.60443 -2.60443,-2.60443Z" transform="translate(7.45941, 8.74402)"></path><path fill="#6F6F6F" d="M0,1.17676l1.82074,1.82074c-0.66351,1.07007 -1.05316,2.32782 -1.05316,3.67944c0,3.86603 3.13397,7 7,7c1.35168,0 2.60938,-0.38965 3.67944,-1.05316l1.82056,1.82056l1.17676,-1.17676l-13.2676,-13.2676l-1.17676,1.17676Zm3.30011,3.30011l1.88751,1.88751v0.96362c0,1.43329 1.17114,2.60553 2.60443,2.60553c0.2876,0 0.55988,-0.05841 0.81915,-0.14557l1.35645,1.35645c-0.66681,0.33002 -1.40704,0.53253 -2.20007,0.53253c-2.75702,0 -5,-2.24298 -5,-5c-4.44089e-16,-0.79303 0.20251,-1.53326 0.53253,-2.20007Z" transform="translate(0, 5.32324)"></path><path fill="#6F6F6F" d="M0.75098,3.5h4.19049l-0.71948,0.71997c-0.29199,0.29401 -0.29199,0.76801 0,1.06104c0.29199,0.29401 0.76599,0.29401 1.05902,0l2.00098,-2c0.29199,-0.29401 0.29199,-0.76801 0,-1.06104l-2.00098,-2.00098c-0.14605,-0.14599 -0.33703,-0.21899 -0.53003,-0.21899c-0.19202,0 -0.383,0.073 -0.52899,0.21899c-0.29199,0.29401 -0.29199,0.76898 0,1.06104l0.72052,0.72095h-4.19153c-0.41302,0 -0.75098,0.336 -0.75098,0.74902c1e-05,0.414 0.33796,0.75 0.75098,0.75Z" transform="translate(16.4214, 6)"></path><path fill="#6F6F6F" d="M6.76854,2h-4.18958l0.71857,-0.71997c0.29303,-0.29401 0.29303,-0.76703 0,-1.06006c-0.14697,-0.14697 -0.33801,-0.21997 -0.52996,-0.21997c-0.19104,0 -0.383,0.073 -0.52905,0.21997l-2,2c-0.00134,0.00134 -0.00171,0.00317 -0.00305,0.00452c-0.06714,0.06812 -0.1214,0.14874 -0.15875,0.23846c-0.0766,0.18359 -0.07672,0.39001 -0.00024,0.57367c0.03845,0.09265 0.09424,0.17615 0.16443,0.24579l1.99762,1.99762c0.14606,0.146 0.33801,0.21997 0.53003,0.21997c0.19202,0 0.38397,-0.07397 0.52899,-0.21997c0.29303,-0.29401 0.29303,-0.76605 0,-1.06006l-0.71851,-0.71899h4.18951c0.414,0 0.74902,-0.33698 0.74902,-0.75c3.55271e-15,-0.41498 -0.33503,-0.75098 -0.74903,-0.75098Z" transform="translate(16.4038, 13)"></path></g><path d="M0,0h24v24h-24Z"></path></g></g></svg>