<?xml version="1.0" encoding="utf-8"?>
<!-- Generator: Adobe Illustrator 22.1.0, SVG Export Plug-In . SVG Version: 6.00 Build 0)  -->
<svg version="1.1" id="Layer_1" xmlns="http://www.w3.org/2000/svg" xmlns:xlink="http://www.w3.org/1999/xlink" x="0px" y="0px"
	 viewBox="0 0 24 24" style="enable-background:new 0 0 24 24;" xml:space="preserve">
<style type="text/css">
	.st0{fill:#585D63;}
</style>
<title>UI event_template</title>
<g id="Layer_4">
	<path class="st0" d="M8,15.1v-2.4C5.7,10.8,5.3,7.3,7.3,5s5.4-2.7,7.7-0.7c2.3,1.9,2.7,5.4,0.7,7.7c0.7,0.2,1.3,0.4,2,0.7
		c2.3-3.4,1.4-8.1-2-10.4s-8.1-1.4-10.4,2s-1.4,8.1,2,10.4C7.6,14.9,7.8,15,8,15.1z"/>
	<path class="st0" d="M16.3,14.3c-0.8-0.3-1.7-0.6-2.5-0.8l0,0l-0.8-6C13,6.7,12.3,6,11.5,6S10,6.7,10,7.5v10.7l-3.4-0.7
		c-0.1,0-0.2,0-0.2,0c-0.3,0-0.6,0.1-0.8,0.3l-0.8,0.8l4.9,4.9c0.3,0.3,0.7,0.4,1.1,0.4h6.8c0.8,0,1.4-0.6,1.5-1.3l0.8-5.3
		c0-0.1,0-0.1,0-0.2C19.9,16,18,14.9,16.3,14.3z"/>
</g>
</svg>
