<?xml version="1.0" encoding="UTF-8"?><svg width="576" height="576" version="1.1" viewBox="0 0 576 576" xmlns="http://www.w3.org/2000/svg" xmlns:xlink="http://www.w3.org/1999/xlink"><!--Generated by IJSVG (https://github.com/curthard89/IJSVG)--><g transform="scale(24)"><g fill="none"><g fill="none"><use xlink:href="#path-1"></use><g fill="none"><use xlink:href="#path-1"></use><path fill="#8C8C8C" d="M10,0c-5.5,0 -10,4.5 -10,10c0,5.5 4.5,10 10,10c5.5,0 10,-4.5 10,-10c0,-5.5 -4.5,-10 -10,-10Zm1,17h-2v-2h2v2Zm2.1,-7.8l-0.9,0.9c-0.8,0.8 -1.2,1.4 -1.2,2.9h-2v-0.5c0,-1.1 0.4,-2.1 1.2,-2.8l1.2,-1.3c0.4,-0.3 0.6,-0.8 0.6,-1.4c0,-1.1 -0.9,-2 -2,-2c-1.1,0 -2,0.9 -2,2h-2c0,-2.2 1.8,-4 4,-4c2.2,0 4,1.8 4,4c0,0.9 -0.4,1.7 -0.9,2.2Z" transform="translate(2, 2)"></path></g></g><use xlink:href="#path-1"></use></g></g><defs><path id="path-1" d="M0,0h24v24h-24Z"></path></defs></svg>