<?xml version="1.0" encoding="UTF-8"?><svg width="576" height="576" version="1.1" viewBox="0 0 576 576" xmlns="http://www.w3.org/2000/svg" xmlns:xlink="http://www.w3.org/1999/xlink"><!--Generated by IJSVG (https://github.com/curthard89/IJSVG)--><g transform="scale(24)"><g fill="none"><g fill="#6F6F6F"><path d="M10,0c-5.52325,0 -10,4.47668 -10,10c0,4.4776 2.94275,8.26624 6.99951,9.54071v-2.12775c-2.9306,-1.18731 -4.99951,-4.05621 -4.99951,-7.41296c0,-4.4187 3.5813,-8 8,-8c4.4187,0 8,3.5813 8,8c0,3.35712 -2.06946,6.22626 -5.00049,7.41333v2.12775c4.05737,-1.27411 7.00049,-5.06305 7.00049,-9.54108c0,-5.52332 -4.47668,-10 -10,-10Z" transform="translate(2, 2)"></path><path d="M8.69042,5.24762c0.39056,-0.39056 0.39056,-1.02374 0,-1.41425l-3.44287,-3.44287c-0.3905,-0.3905 -1.02368,-0.3905 -1.41418,0l-3.44287,3.44287c-0.3905,0.3905 -0.3905,1.02368 0,1.41425c0.3905,0.3905 1.02368,0.3905 1.41418,0l1.73578,-1.73578v5.13953v2.93091v2.01862v0.05047h1h1v-0.05048v-2.01862v-2.9309v-5.13953l1.73578,1.73578c0.3905,0.39051 1.02368,0.39051 1.41418,0Z" transform="translate(7.45954, 8.34863)"></path></g><path d="M0,0h24v24h-24Z"></path></g></g></svg>