<?xml version="1.0" encoding="utf-8"?>
<!-- Generator: Adobe Illustrator 22.0.1, SVG Export Plug-In . SVG Version: 6.00 Build 0)  -->
<svg version="1.1" id="Layer_1" xmlns="http://www.w3.org/2000/svg" xmlns:xlink="http://www.w3.org/1999/xlink" x="0px" y="0px"
	 viewBox="0 0 24 24" style="enable-background:new 0 0 24 24;" xml:space="preserve">
<style type="text/css">
	.st0{fill:#585D63;}
	.st1{fill:none;}
</style>
<title>upgrade</title>
<desc>Created with Sketch.</desc>
<g>
	<path class="st0" d="M12,2C6.47675,2,2,6.47668,2,12c0,4.4776,2.94275,8.26624,6.99951,9.54071v-2.12775
		C6.06891,18.22565,4,15.35675,4,12c0-4.4187,3.5813-8,8-8s8,3.5813,8,8c0,3.35712-2.06946,6.22626-5.00049,7.41333v2.12775
		C19.05688,20.26697,22,16.47803,22,12C22,6.47668,17.52332,2,12,2z"/>
	<path class="st0" d="M16.14996,13.59625c0.39056-0.39056,0.39056-1.02374,0-1.41425l-3.44287-3.44287
		c-0.3905-0.3905-1.02368-0.3905-1.41418,0l-3.44287,3.44287c-0.3905,0.3905-0.3905,1.02368,0,1.41425
		c0.3905,0.3905,1.02368,0.3905,1.41418,0L11,11.86047V17v2.93091v2.01862V22h1h1v-0.05048v-2.01862V17v-5.13953l1.73578,1.73578
		C15.12628,13.98676,15.75946,13.98676,16.14996,13.59625z"/>
</g>
<rect class="st1" width="24" height="24"/>
</svg>
