<?xml version="1.0" encoding="UTF-8"?><svg width="576" height="576" version="1.1" viewBox="0 0 576 576" xmlns="http://www.w3.org/2000/svg" xmlns:xlink="http://www.w3.org/1999/xlink"><!--Generated by IJSVG (https://github.com/curthard89/IJSVG)--><g transform="scale(24)"><g fill="none"><g fill="#6F6F6F"><path d="M1.80474,5.73114l2.29291,-2.29291v6.58582c0,0.55231 0.44769,1 1,1c0.55231,0 1,-0.44769 1,-1v-6.58582l2.29291,2.29291c0.3905,0.39056 1.02368,0.39056 1.41418,0c0.39056,-0.3905 0.39056,-1.02368 0,-1.41418l-4,-4c-0.09216,-0.09216 -0.2027,-0.16516 -0.32501,-0.21582c-0.24451,-0.10114 -0.51965,-0.10114 -0.76416,0c-0.12231,0.05066 -0.23285,0.12366 -0.32501,0.21582l-4,4c-0.39056,0.3905 -0.39056,1.02368 0,1.41418c0.3905,0.39057 1.02368,0.39057 1.41418,0Z" transform="translate(6.89631, 3.97595)"></path><path d="M0,0h14.0343v2h-14.0343Z" transform="translate(4.97681, 17.9889)"></path></g><path d="M0,0h24v24h-24Z"></path></g></g></svg>