<?xml version="1.0" encoding="utf-8"?>
<!-- Generator: Adobe Illustrator 22.0.1, SVG Export Plug-In . SVG Version: 6.00 Build 0)  -->
<svg version="1.1" id="Layer_1" xmlns="http://www.w3.org/2000/svg" xmlns:xlink="http://www.w3.org/1999/xlink" x="0px" y="0px"
	 viewBox="0 0 24 24" style="enable-background:new 0 0 24 24;" xml:space="preserve">
<style type="text/css">
	.st0{fill:#585D63;}
	.st1{fill:none;}
</style>
<title>upload</title>
<desc>Created with Sketch.</desc>
<g>
	<path class="st0" d="M8.70105,9.70709l2.29291-2.29291V14c0,0.55231,0.44769,1,1,1s1-0.44769,1-1V7.41418l2.29291,2.29291
		c0.3905,0.39056,1.02368,0.39056,1.41418,0c0.39056-0.3905,0.39056-1.02368,0-1.41418l-4-4
		c-0.09216-0.09216-0.2027-0.16516-0.32501-0.21582c-0.24451-0.10114-0.51965-0.10114-0.76416,0
		c-0.12231,0.05066-0.23285,0.12366-0.32501,0.21582l-4,4c-0.39056,0.3905-0.39056,1.02368,0,1.41418
		C7.67737,10.09766,8.31055,10.09766,8.70105,9.70709z"/>
	<rect x="4.97681" y="17.98889" class="st0" width="14.0343" height="2"/>
</g>
<rect class="st1" width="24" height="24"/>
</svg>
