<?xml version="1.0" encoding="UTF-8"?><svg width="576" height="576" version="1.1" viewBox="0 0 576 576" xmlns="http://www.w3.org/2000/svg" xmlns:xlink="http://www.w3.org/1999/xlink"><!--Generated by IJSVG (https://github.com/curthard89/IJSVG)--><g transform="scale(24)"><g fill="none"><g transform="translate(-0.630737, -1)"></g><g transform="translate(17, 16.9868)"></g><g fill="none"><path d="M5.41421,1.17157c1.17157,1.17157 1.17157,3.07107 0,4.24264c-1.17157,1.17157 -3.07107,1.17157 -4.24264,0c-1.17157,-1.17157 -1.17157,-3.07107 -8.88178e-16,-4.24264c1.17157,-1.17157 3.07107,-1.17157 4.24264,-8.88178e-16" transform="translate(6.70711, 3.70711)"></path><path d="M2.5368,0c-0.73871,0 -1.39838,0.32294 -1.8623,0.82874c-0.41492,0.45239 -0.6745,1.04993 -0.6745,1.71082c0,0.05841 0.01331,0.11322 0.01721,0.17065c0.06976,1.02753 0.74579,1.88324 1.67822,2.21423c0.26459,0.09393 0.54498,0.15466 0.84137,0.15466c0.38196,0 0.74072,-0.09106 1.06586,-0.24304c0.86603,-0.40472 1.47095,-1.27881 1.47095,-2.29651c-1e-05,-1.39984 -1.13752,-2.53955 -2.53681,-2.53955Z" transform="translate(14.3599, 13.3497)"></path><path fill="#6F6F6F" d="M5,10c2.76129,0 5,-2.23871 5,-5c0,-2.76129 -2.23871,-5 -5,-5c-2.76129,0 -5,2.23871 -5,5c0,2.76129 2.23871,5 5,5Zm0,-8c1.65674,0 3,1.34326 3,3c0,1.65674 -1.34326,3 -3,3c-1.65674,0 -3,-1.34326 -3,-3c0,-1.65674 1.34326,-3 3,-3Z" transform="translate(5, 2)"></path><path fill="#6F6F6F" d="M4.11102,0c-2.25537,0 -4.11102,1.78943 -4.11102,4c0,0.55231 0.44769,1 1,1c0.55231,0 1,-0.44769 1,-1c0,-1.08942 0.94427,-2 2.11102,-2h5.3302c-0.00073,-0.03723 -0.00562,-0.07336 -0.00562,-0.11078c0,-0.6651 0.12463,-1.29962 0.34204,-1.88922h-5.66662Z" transform="translate(2, 14)"></path><path fill="#6F6F6F" d="M10.8647,9.44005l-2.29486,-2.2973l-0.74933,-0.75018c-0.09271,-0.09283 -0.20068,-0.15942 -0.31384,-0.20886c0.38062,-0.61884 0.61115,-1.34045 0.61115,-2.12042c0,-2.24396 -1.81738,-4.06329 -4.0589,-4.06329c-1.55621,0 -2.89203,0.8869 -3.57312,2.17407c-0.29993,0.56683 -0.48578,1.20319 -0.48578,1.88922c0,0.03796 0.01013,0.07306 0.01117,0.11078c0.06006,2.19147 1.84412,3.95251 4.04773,3.95251c0.77917,0 1.50006,-0.23071 2.11816,-0.61182c0.04938,0.11328 0.11591,0.22137 0.20862,0.31421l0.74933,0.75012l2.29486,2.2973c0.19781,0.19812 0.45764,0.29767 0.71741,0.29767c0.25977,0 0.51953,-0.09955 0.71741,-0.29767c0.19836,-0.19861 0.29754,-0.45837 0.29754,-0.7182c0,-0.25976 -0.09918,-0.51959 -0.29755,-0.71814Zm-5.73993,-3.08026c-0.32513,0.15198 -0.6839,0.24304 -1.06586,0.24304c-0.29639,0 -0.57678,-0.06073 -0.84137,-0.15466c-0.93243,-0.33099 -1.60846,-1.18671 -1.67822,-2.21423c-0.00391,-0.05743 -0.01721,-0.11224 -0.01721,-0.17065c0,-0.66089 0.25958,-1.25842 0.6745,-1.71082c0.46393,-0.5058 1.1236,-0.82874 1.8623,-0.82874c1.39929,0 2.5368,1.13971 2.5368,2.53955c1e-05,1.0177 -0.60491,1.89179 -1.47094,2.29651Z" transform="translate(12.8378, 11.8259)"></path><path d="M0,0h24v24h-24Z"></path></g><use transform="translate(-27.9375, -22.875)" xlink:href="#path-1"></use><use transform="translate(-27.9375, -22.875)" xlink:href="#path-1"></use></g></g><defs><path id="path-1" d="M0,0v0v0v0Z"></path></defs></svg>