<?xml version="1.0" encoding="utf-8"?>
<!-- Generator: Adobe Illustrator 22.0.1, SVG Export Plug-In . SVG Version: 6.00 Build 0)  -->
<svg version="1.1" id="Layer_1" xmlns="http://www.w3.org/2000/svg" xmlns:xlink="http://www.w3.org/1999/xlink" x="0px" y="0px"
	 viewBox="0 0 24 24" style="enable-background:new 0 0 24 24;" xml:space="preserve">
<style type="text/css">
	.st0{fill:none;}
	.st1{fill:#585D63;}
</style>
<title>synth session copy 3</title>
<desc>Created with Sketch.</desc>
<g id="places">
	<g id="synth-session-copy-3">
		<g id="policies_template">
			<g id="Layer_1_1_">
			</g>
		</g>
		<g id="serviceAvailability_template" transform="translate(-0.630737, -1.000000)">
			<g id="Layer_1_2_">
			</g>
		</g>
		<g id="Group-11" transform="translate(17.000000, 16.986800)">
			<g id="Clip-10">
			</g>
		</g>
	</g>
</g>
<polygon class="st0" points="-27.9375,-22.875 -27.9375,-22.875 -27.9375,-22.875 "/>
<polygon class="st0" points="-27.9375,-22.875 -27.9375,-22.875 -27.9375,-22.875 "/>
<g>
	<circle class="st0" cx="10" cy="7" r="3"/>
	<path class="st1" d="M10,12c2.76129,0,5-2.23871,5-5s-2.23871-5-5-5S5,4.23871,5,7S7.23871,12,10,12z M10,4
		c1.65674,0,3,1.34326,3,3s-1.34326,3-3,3S7,8.65674,7,7S8.34326,4,10,4z"/>
	<path class="st1" d="M6.11102,14C3.85565,14,2,15.78943,2,18h2c0-1.08942,0.94427-2,2.11102-2h4.55487
		c0.08594-0.71259,0.29614-1.38556,0.60724-2H6.11102z"/>
	<path class="st1" d="M23.20306,21.93823l-1.5694-1.5694l-0.06488-0.065l-1.09674-1.099l-0.06476-0.06482l-0.00311-0.00061
		l-0.19714-0.19714c0.66235-1.04211,0.82672-2.26074,0.46069-3.45905c-0.43878-1.43298-1.66388-2.54877-3.12109-2.84277
		c-0.28802-0.05804-0.57983-0.08746-0.86743-0.08746c-1.25836,0-2.4375,0.55884-3.23505,1.53326s-1.1095,2.2547-0.8559,3.51251
		c0.29407,1.45734,1.40985,2.68243,2.84265,3.12109c0.41327,0.12628,0.83319,0.19025,1.24829,0.19025
		c0.77832,0,1.5376-0.22418,2.21082-0.65057l0.19708,0.19678v0.00006l0.06561,0.06787l1.0556,1.05322l0.04346,0.04346
		l1.63367,1.63428c0.17645,0.17603,0.41028,0.27277,0.65881,0.27277s0.48242-0.09674,0.65851-0.27246
		c0.17615-0.17609,0.27301-0.40997,0.27301-0.65875S23.37891,22.11414,23.20306,21.93823z M16.67932,19.11676
		c-1.31525,0-2.38531-1.07001-2.38531-2.38525s1.07007-2.38525,2.38531-2.38525s2.38525,1.07001,2.38525,2.38525
		S17.99457,19.11676,16.67932,19.11676z"/>
</g>
</svg>
