<?xml version="1.0" encoding="UTF-8"?><svg width="576" height="576" version="1.1" viewBox="0 0 576 576" xmlns="http://www.w3.org/2000/svg" xmlns:xlink="http://www.w3.org/1999/xlink"><!--Generated by IJSVG (https://github.com/curthard89/IJSVG)--><g transform="scale(24)"><g fill="none" fill-rule="evenodd" stroke="none" stroke-width="1"><use xlink:href="#path-1"></use><g stroke="none" stroke-width="1"><use fill="none" fill-rule="evenodd" xlink:href="#path-1"></use><path fill="#FF9600" d="M19.5311,0h-18.5311v0c-0.552285,0 -1,0.447715 -1,1c0,0.175943 0.0464201,0.348771 0.134574,0.501036l9.26555,16.0041v0c0.276715,0.477962 0.888501,0.641105 1.36646,0.36439c0.151211,-0.0875435 0.276846,-0.213179 0.36439,-0.36439l9.26555,-16.0041v0c0.276715,-0.477962 0.113572,-1.08975 -0.36439,-1.36646c-0.152265,-0.0881536 -0.325094,-0.134574 -0.501036,-0.134574Zm-8.26555,11.5h-2v-2h2v2Zm0,-4h-2v-4h2v4Z" transform="translate(1.73445, 2.5)"></path></g></g></g><defs><path id="path-1" d="M0,0h24v24h-24Z"></path></defs></svg>