<?xml version="1.0" encoding="UTF-8"?><svg width="576" height="576" version="1.1" viewBox="0 0 576 576" xmlns="http://www.w3.org/2000/svg" xmlns:xlink="http://www.w3.org/1999/xlink"><!--Generated by IJSVG (https://github.com/curthard89/IJSVG)--><g transform="scale(24)"><g fill="none"><path d="M13.2984,0h-13.0968c-0.11115,0 -0.2016,0.09039 -0.2016,0.2016v13.1771c0,0.11121 0.09045,0.2016 0.2016,0.2016h13.0968c0.11115,0 0.2016,-0.09039 0.2016,-0.2016v-13.1771c0,-0.1112 -0.09045,-0.2016 -0.2016,-0.2016Zm-5.88885,8.67041l-2.73212,1.87646v-3.75287v-3.75396l2.73212,1.87756l2.73212,1.8764l-2.73212,1.87641Z" transform="translate(5.25, 5.22607)"></path><path fill="#6F6F6F" d="M0,0v4.14514v4.14392l3.01681,-2.07199l3.0168,-2.07193l-3.0168,-2.07193Z" transform="translate(9.64274, 7.875)"></path><path fill="#6F6F6F" d="M15.2984,0h-13.0968c-1.21588,0 -2.2016,0.98566 -2.2016,2.2016v13.1771c0,1.21594 0.98572,2.2016 2.2016,2.2016h13.0968c1.21588,0 2.2016,-0.98566 2.2016,-2.2016v-13.1771c0,-1.21594 -0.98572,-2.2016 -2.2016,-2.2016Zm0.2016,15.3787c0,0.11121 -0.09045,0.2016 -0.2016,0.2016h-13.0968c-0.11115,0 -0.2016,-0.09039 -0.2016,-0.2016v-13.1771c0,-0.11121 0.09045,-0.2016 0.2016,-0.2016h13.0968c0.11115,0 0.2016,0.09039 0.2016,0.2016v13.1771Z" transform="translate(3.25, 3.22607)"></path></g></g></svg>