<?xml version="1.0" encoding="utf-8"?>
<!-- Generator: Adobe Illustrator 22.0.1, SVG Export Plug-In . SVG Version: 6.00 Build 0)  -->
<svg version="1.1" id="Layer_1" xmlns="http://www.w3.org/2000/svg" xmlns:xlink="http://www.w3.org/1999/xlink" x="0px" y="0px"
	 viewBox="0 0 24 24" style="enable-background:new 0 0 24 24;" xml:space="preserve">
<style type="text/css">
	.st0{fill:none;}
	.st1{fill:#585D63;}
</style>
<title>videos</title>
<desc>Created with Sketch.</desc>
<g>
	<path class="st0" d="M18.5484,5.22607H5.4516c-0.11115,0-0.2016,0.09039-0.2016,0.2016V18.6048
		c0,0.11121,0.09045,0.2016,0.2016,0.2016h13.0968c0.11115,0,0.2016-0.09039,0.2016-0.2016V5.42767
		C18.75,5.31647,18.65955,5.22607,18.5484,5.22607z M12.65955,13.89648l-2.73212,1.87646v-3.75287V8.26611l2.73212,1.87756
		l2.73212,1.8764L12.65955,13.89648z"/>
	<polygon class="st1" points="9.64274,7.875 9.64274,12.02014 9.64274,16.16406 12.65955,14.09207 15.67635,12.02014 
		12.65955,9.94821 	"/>
	<path class="st1" d="M18.5484,3.22607H5.4516c-1.21588,0-2.2016,0.98566-2.2016,2.2016V18.6048
		c0,1.21594,0.98572,2.2016,2.2016,2.2016h13.0968c1.21588,0,2.2016-0.98566,2.2016-2.2016V5.42767
		C20.75,4.21173,19.76428,3.22607,18.5484,3.22607z M18.75,18.6048c0,0.11121-0.09045,0.2016-0.2016,0.2016H5.4516
		c-0.11115,0-0.2016-0.09039-0.2016-0.2016V5.42767c0-0.11121,0.09045-0.2016,0.2016-0.2016h13.0968
		c0.11115,0,0.2016,0.09039,0.2016,0.2016V18.6048z"/>
</g>
</svg>
