<?xml version="1.0" encoding="UTF-8"?><svg width="576" height="576" version="1.1" viewBox="0 0 576 576" xmlns="http://www.w3.org/2000/svg" xmlns:xlink="http://www.w3.org/1999/xlink"><!--Generated by IJSVG (https://github.com/curthard89/IJSVG)--><g transform="scale(24)"><g fill="#6F6F6F"><path d="M0,0h3v1h-3Z" transform="translate(10.9, 5.1)"></path><g fill="none"><path d="M0,0v7v8.19996h2.5h4.79999v-7v-8.19996h-2.5Z" transform="translate(8.79999, 3.90002)"></path><path fill="#6F6F6F" d="M9.5,0h-2.90002h-5.19996c-0.80004,0 -1.40002,0.70001 -1.40002,1.59998v7.30005v8.5c0,0.89996 0.59998,1.59997 1.40002,1.59997h2.89996h5.20002c0.79999,0 1.40002,-0.70001 1.40002,-1.59998v-7.30005v-8.5c0,-0.89996 -0.60003,-1.59997 -1.40002,-1.59997Zm-0.40002,10.1v7h-4.79999h-2.5v-8.19995v-7h4.79999h2.5v8.19995Z" transform="translate(7, 2)"></path></g><path fill="none" d="M0,0h24v24h-24Z"></path></g></g></svg>