<?xml version="1.0" encoding="utf-8"?>
<!-- Generator: Adobe Illustrator 22.0.1, SVG Export Plug-In . SVG Version: 6.00 Build 0)  -->
<svg version="1.1" id="Layer_1" xmlns="http://www.w3.org/2000/svg" xmlns:xlink="http://www.w3.org/1999/xlink" x="0px" y="0px"
	 viewBox="0 0 24 24" style="enable-background:new 0 0 24 24;" xml:space="preserve">
<style type="text/css">
	.st0{fill:none;}
	.st1{fill:#585D63;}
</style>
<title>view details</title>
<desc>Created with Sketch.</desc>
<g id="Group-6" transform="translate(0.701172, 5.156982)">
</g>
<g>
	<path class="st0" d="M12.21735,6.99878c-3.96893,0-7.50751,1.96521-9.22968,5.06494
		c1.72217,3.09979,5.26074,5.06494,9.22968,5.06494c3.96887,0,7.50745-1.96515,9.22968-5.06494
		C19.72479,8.96399,16.18622,6.99878,12.21735,6.99878z M12,15.28967c-1.81683,0-3.28967-1.47284-3.28967-3.28967
		S10.18317,8.71033,12,8.71033c0.38776,0,0.75433,0.07922,1.09979,0.20245c-0.13501,0.08795-0.25897,0.19501-0.35315,0.33466
		c-0.41235,0.61133-0.2005,1.47528,0.47327,1.92975c0.63959,0.4314,1.45325,0.32361,1.88812-0.2099
		c0.10864,0.3266,0.18164,0.66962,0.18164,1.03271C15.28967,13.81683,13.81683,15.28967,12,15.28967z"/>
	<path class="st1" d="M12.21735,5.15698c-5.23462,0-9.70502,2.86401-11.51617,6.90674
		c1.81116,4.04279,6.28156,6.9068,11.51617,6.9068s9.70496-2.86401,11.51611-6.9068
		C21.9223,8.021,17.45197,5.15698,12.21735,5.15698z M12.21735,17.12866c-3.96893,0-7.50751-1.96515-9.22968-5.06494
		c1.72217-3.09973,5.26074-5.06494,9.22968-5.06494c3.96887,0,7.50745,1.96521,9.22968,5.06494
		C19.72479,15.16351,16.18622,17.12866,12.21735,17.12866z"/>
	<path class="st1" d="M13.21991,11.17719c-0.67377-0.45447-0.88562-1.31842-0.47327-1.92975
		c0.09418-0.13965,0.21814-0.2467,0.35315-0.33466C12.75433,8.78955,12.38776,8.71033,12,8.71033
		c-1.81683,0-3.28967,1.47284-3.28967,3.28967S10.18317,15.28967,12,15.28967S15.28967,13.81683,15.28967,12
		c0-0.3631-0.073-0.70612-0.18164-1.03271C14.67316,11.50079,13.8595,11.60858,13.21991,11.17719z"/>
</g>
<rect class="st0" width="24" height="24"/>
</svg>
