<?xml version="1.0" encoding="UTF-8"?><svg width="576" height="576" version="1.1" viewBox="0 0 576 576" xmlns="http://www.w3.org/2000/svg" xmlns:xlink="http://www.w3.org/1999/xlink"><!--Generated by IJSVG (https://github.com/curthard89/IJSVG)--><g transform="scale(24)"><g fill="none"><g fill="#6F6F6F"><g fill="#6F6F6F"><path d="M15.6444,2c0.13199,0 0.23937,0.12341 0.23937,0.2751v13.4498c0,0.15169 -0.10738,0.2751 -0.23937,0.2751h-13.4051c-0.13199,0 -0.23938,-0.12341 -0.23938,-0.2751v-13.4498c-8.88178e-16,-0.15169 0.10739,-0.2751 0.23938,-0.2751h13.4051m0,-2h-13.4051c-1.23677,0 -2.23938,1.0186 -2.23938,2.2751v13.4498c0,1.2565 1.00261,2.2751 2.23938,2.2751h13.4051c1.23677,0 2.23937,-1.0186 2.23937,-2.2751v-13.4498c0,-1.2565 -1.0026,-2.2751 -2.23937,-2.2751v0Z" transform="translate(3.05369, 3)"></path></g><path d="M0,2.12132l1.22475,-2.12132l1.22474,2.12132Z" transform="translate(6.91067, 6.86084)"></path><path d="M0,0h2.44949v2.1875h-2.44949Z" transform="translate(6.91067, 10.8572)"></path><path d="M2.15394,0.466087c0.466087,0.466087 0.466087,1.22176 0,1.68785c-0.466087,0.466087 -1.22176,0.466087 -1.68785,0c-0.466087,-0.466087 -0.466087,-1.22176 0,-1.68785c0.466087,-0.466087 1.22176,-0.466087 1.68785,0" transform="translate(6.79416, 14.5063)"></path><use transform="translate(10.9643, 11.3442)" xlink:href="#path-1"></use><use transform="translate(10.9643, 15.2381)" xlink:href="#path-1"></use><use transform="translate(10.9643, 7.34416)" xlink:href="#path-1"></use></g><path d="M0,0h24v24h-24Z"></path></g></g><defs><path id="path-1" d="M0,0h6v1h-6Z"></path></defs></svg>