<?xml version="1.0" encoding="UTF-8"?><svg width="576" height="576" version="1.1" viewBox="0 0 576 576" xmlns="http://www.w3.org/2000/svg" xmlns:xlink="http://www.w3.org/1999/xlink"><!--Generated by IJSVG (https://github.com/curthard89/IJSVG)--><g transform="scale(24)"><g fill="none"><g fill="#6F6F6F"><g transform="translate(2, 3.20245)"><g fill="#6F6F6F"><g fill="none"><path d="M11.3696,1.72314l-1.11328,-1.72314l-4.16797,0.00293l-1.15283,1.73144c-0.19336,0.29102 -0.51806,0.46484 -0.86816,0.46484h-4.06738v10.2227h16.2612v-10.2227h-4.01465c-0.35547,-4.44089e-16 -0.68262,-0.17773 -0.87696,-0.47607Z" transform="translate(1.90186, 1.86591)"></path><path fill="#6F6F6F" d="M19.3931,2.2002h-4.48926l-0.8584,-1.3252c-0.3584,-0.54688 -0.96094,-0.87158 -1.6123,-0.87158c-0.00684,2.77556e-17 -0.01367,2.77556e-17 -0.02051,0.00049h-4.29834c-0.66602,-0.00391 -1.27051,0.31885 -1.6416,0.8833l-0.77197,1.31299h-4.65674c-0.57568,0 -1.04395,0.46826 -1.04395,1.04395v12.3105c0,0.57617 0.46826,1.04395 1.04395,1.04395h18.3491c0.57617,0 1.04395,-0.46777 1.04395,-1.04395v-12.3105c0,-0.57568 -0.46778,-1.04395 -1.04395,-1.04395Zm-1.04394,12.3105h-16.2612v-10.2227h4.06738c0.3501,0 0.6748,-0.17383 0.86816,-0.46484l1.15283,-1.73145l4.16797,-0.00293l1.11328,1.72314c0.19434,0.29834 0.52148,0.47607 0.87695,0.47607h4.01465v10.2227Z" transform="translate(-0.18604, -0.22297)"></path><path d="M2.74805,0c-1.51514,0 -2.74805,1.23291 -2.74805,2.74854c0,1.51563 1.23291,2.74805 2.74805,2.74805c0.7334,0 1.42383,-0.28613 1.94336,-0.80566c0.51172,-0.51074 0.80469,-1.21875 0.80469,-1.94238c-1e-05,-1.51564 -1.23243,-2.74855 -2.74805,-2.74855Z" transform="translate(7.28418, 6.11639)"></path><path fill="#6F6F6F" d="M4.48242,0c-2.47168,0 -4.48242,2.01074 -4.48242,4.48242c0,2.47168 2.01074,4.4834 4.48242,4.4834c2.47168,0 4.4834,-2.01172 4.4834,-4.4834c0,-2.47168 -2.01172,-4.48242 -4.4834,-4.48242Zm2.74804,4.4707c0,0.72363 -0.29297,1.43164 -0.80469,1.94238c-0.51953,0.51953 -1.20996,0.80566 -1.94336,0.80566c-1.51514,0 -2.74805,-1.23242 -2.74805,-2.74805c0,-1.51563 1.23291,-2.74854 2.74805,-2.74854c1.51563,1e-05 2.74805,1.23292 2.74805,2.74855Z" transform="translate(5.54981, 4.39423)"></path></g><path d="M0,0h1.87482v1.14636h-1.87482Z" transform="translate(15.1969, 4.79459)"></path></g></g><path d="M2.07422,0.448837c0.448837,0.448837 0.448837,1.17655 0,1.62538c-0.448837,0.448837 -1.17655,0.448837 -1.62538,0c-0.448837,-0.448837 -0.448837,-1.17655 0,-1.62538c0.448837,-0.448837 1.17655,-0.448837 1.62538,0" transform="translate(10.7752, 10.7916)"></path></g><path d="M0,0h24v24h-24Z"></path></g></g></svg>