<?xml version="1.0" encoding="UTF-8"?><svg width="576" height="576" version="1.1" viewBox="0 0 576 576" xmlns="http://www.w3.org/2000/svg" xmlns:xlink="http://www.w3.org/1999/xlink"><!--Generated by IJSVG (https://github.com/curthard89/IJSVG)--><g transform="scale(24)"><g fill="none"><g transform="translate(0.701172, 5.15698)"></g><g fill="none"><path d="M9.22968,0c-3.96893,0 -7.50751,1.96521 -9.22968,5.06494c1.72217,3.09979 5.26074,5.06494 9.22968,5.06494c3.96887,0 7.50745,-1.96515 9.22968,-5.06494c-1.72224,-3.09973 -5.26081,-5.06494 -9.22968,-5.06494Zm-0.21735,8.29089c-1.81683,0 -3.28967,-1.47284 -3.28967,-3.28967c0,-1.81683 1.47284,-3.28967 3.28967,-3.28967c0.38776,0 0.75433,0.07922 1.09979,0.20245c-0.13501,0.08795 -0.25897,0.19501 -0.35315,0.33466c-0.41235,0.61133 -0.2005,1.47528 0.47327,1.92975c0.63959,0.4314 1.45325,0.32361 1.88812,-0.2099c0.10864,0.3266 0.18164,0.66962 0.18164,1.03271c-1.77636e-15,1.81683 -1.47284,3.28967 -3.28967,3.28967Z" transform="translate(2.98767, 6.99878)"></path><path fill="#6F6F6F" d="M11.5162,0c-5.23462,0 -9.70502,2.86401 -11.5162,6.90674c1.81116,4.04279 6.28156,6.9068 11.5162,6.9068c5.23461,0 9.70496,-2.86401 11.5161,-6.9068c-1.81116,-4.04272 -6.28149,-6.90674 -11.5161,-6.90674Zm0,11.9717c-3.96893,0 -7.50751,-1.96515 -9.22968,-5.06494c1.72217,-3.09973 5.26074,-5.06494 9.22968,-5.06494c3.96887,0 7.50745,1.96521 9.22968,5.06494c-1.72224,3.09979 -5.26081,5.06494 -9.22968,5.06494Z" transform="translate(0.70118, 5.15698)"></path><path fill="#6F6F6F" d="M4.50958,2.46686c-0.67377,-0.45447 -0.88562,-1.31842 -0.47327,-1.92975c0.09418,-0.13965 0.21814,-0.2467 0.35315,-0.33466c-0.34546,-0.12323 -0.71203,-0.20245 -1.09979,-0.20245c-1.81683,0 -3.28967,1.47284 -3.28967,3.28967c0,1.81683 1.47284,3.28967 3.28967,3.28967c1.81683,0 3.28967,-1.47284 3.28967,-3.28967c0,-0.3631 -0.073,-0.70612 -0.18164,-1.03271c-0.43487,0.5335 -1.24853,0.64129 -1.88812,0.2099Z" transform="translate(8.71033, 8.71033)"></path></g><path d="M0,0h24v24h-24Z"></path></g></g></svg>