<?xml version="1.0" encoding="UTF-8"?><svg width="576" height="576" version="1.1" viewBox="0 0 576 576" xmlns="http://www.w3.org/2000/svg" xmlns:xlink="http://www.w3.org/1999/xlink"><!--Generated by IJSVG (https://github.com/curthard89/IJSVG)--><g transform="scale(24)"><g fill="none"><g transform="translate(-0.630737, -1)"></g><g fill="none"><path d="M23,1h-22c-0.552,0 -1,-0.44702 -1,-1v5h24v-5c0,0.55298 -0.44702,1 -1,1Z" transform="translate(0, 19)"></path><path d="M0,0v19c0,-0.55298 0.448,-1 1,-1h3c-1.09998,0 -2,-0.90002 -2,-2v-10c0,-1.09998 0.90002,-2 2,-2h16c1.09998,0 2,0.90002 2,2l-0.01001,10c0,1.09998 -0.89001,2 -1.98999,2h3c0.55298,0 1,0.44702 1,1v-19h-24Z"></path><path fill="#6F6F6F" d="M23,14h-3c1.09998,0 1.98999,-0.90002 1.98999,-2l0.01001,-10c0,-1.09998 -0.90002,-2 -2,-2h-16c-1.09998,0 -2,0.90002 -2,2v10c0,1.09998 0.90002,2 2,2h-3c-0.552,0 -1,0.44702 -1,1c0,0.55298 0.448,1 1,1h22c0.55298,0 1,-0.44702 1,-1c0,-0.55298 -0.44702,-1 -1,-1Zm-19,-12h16v10h-16v-10Z" transform="translate(0, 4)"></path><path fill="#6F6F6F" d="M2.79907,4.37616l-1.19311,-4.37616h-1.60596l2.00641,6.01098h1.58532l2.02289,-6.01098h-1.61835Z" transform="translate(9.19269, 8.01404)"></path></g><path d="M0,0h24v24h-24Z"></path></g></g></svg>