<?xml version="1.0" encoding="UTF-8"?><svg width="576" height="576" version="1.1" viewBox="0 0 576 576" xmlns="http://www.w3.org/2000/svg" xmlns:xlink="http://www.w3.org/1999/xlink"><!--Generated by IJSVG (https://github.com/curthard89/IJSVG)--><g transform="scale(24)"><g fill="none" fill-rule="evenodd" stroke="none" stroke-width="1"><g transform="translate(0, 6)"><g fill="#6F6F6F" fill-rule="evenodd" stroke="none" stroke-width="1"><path d="M1.164,2.943c0.008,0.19 0.025,0.341 0.051,0.453c0.026,0.111 0.064,0.19 0.114,0.234c0.05,0.043 0.117,0.066 0.201,0.066c0.084,0 0.151,-0.023 0.201,-0.066c0.05,-0.044 0.088,-0.123 0.114,-0.234c0.026,-0.112 0.043,-0.263 0.051,-0.453c0.008,-0.19 0.012,-0.429 0.012,-0.717c0,-0.288 -0.004,-0.527 -0.012,-0.717c-0.008,-0.19 -0.025,-0.341 -0.051,-0.453c-0.026,-0.112 -0.064,-0.19 -0.114,-0.234c-0.05,-0.044 -0.117,-0.066 -0.201,-0.066c-0.084,0 -0.151,0.022 -0.201,0.066c-0.05,0.044 -0.088,0.122 -0.114,0.234c-0.026,0.112 -0.043,0.263 -0.051,0.453c-0.008,0.19 -0.012,0.429 -0.012,0.717c0,0.288 0.004,0.527 0.012,0.717v0Zm0.768,1.461c-0.048,0.008 -0.095,0.015 -0.141,0.021c-0.046,0.006 -0.097,0.008 -0.153,0.008h-0.108c-0.284,0 -0.524,-0.037 -0.72,-0.113c-0.196,-0.076 -0.354,-0.203 -0.474,-0.381c-0.12,-0.178 -0.206,-0.408 -0.258,-0.69c-0.052,-0.282 -0.078,-0.623 -0.078,-1.023c0,-0.4 0.026,-0.741 0.078,-1.023c0.052,-0.282 0.138,-0.512 0.258,-0.69c0.12,-0.178 0.278,-0.308 0.474,-0.39c0.196,-0.082 0.436,-0.123 0.72,-0.123c0.284,0 0.524,0.041 0.72,0.123c0.196,0.082 0.354,0.212 0.474,0.39c0.12,0.178 0.206,0.408 0.258,0.69c0.052,0.282 0.078,0.623 0.078,1.023c0,0.412 -0.028,0.76 -0.084,1.043c-0.056,0.285 -0.148,0.517 -0.276,0.697l0.516,0.516l-0.672,0.582l-0.612,-0.66Z" transform="translate(3.1739, 3.7914)"></path><path d="M1.116,3.09c0,0.208 0.03,0.347 0.09,0.417c0.06,0.07 0.142,0.105 0.246,0.105c0.104,0 0.186,-0.035 0.246,-0.105c0.06,-0.07 0.09,-0.209 0.09,-0.417v-3.09h1.116v2.808c0,0.3 -0.032,0.55 -0.096,0.75c-0.064,0.199 -0.157,0.36 -0.279,0.48c-0.122,0.12 -0.273,0.202 -0.453,0.246c-0.18,0.044 -0.388,0.065 -0.624,0.065c-0.232,0 -0.439,-0.021 -0.621,-0.065c-0.182,-0.044 -0.334,-0.126 -0.456,-0.246c-0.122,-0.12 -0.215,-0.281 -0.279,-0.48c-0.064,-0.2 -0.096,-0.45 -0.096,-0.75v-2.808h1.116v3.09Z" transform="translate(7.0681, 3.8753)"></path><path d="M2.538,0v0.912h-1.422v0.732h1.332v0.876h-1.332v0.852h1.476v0.912h-2.592v-4.284Z" transform="translate(10.9317, 3.875)"></path><path d="M1.117,3.09c0,0.208 0.029,0.347 0.09,0.417c0.059,0.07 0.141,0.105 0.246,0.105c0.103,0 0.185,-0.035 0.246,-0.105c0.06,-0.07 0.09,-0.209 0.09,-0.417v-3.09h1.115v2.808c0,0.3 -0.031,0.55 -0.096,0.75c-0.064,0.199 -0.156,0.36 -0.279,0.48c-0.121,0.12 -0.272,0.202 -0.453,0.246c-0.18,0.044 -0.388,0.065 -0.623,0.065c-0.232,0 -0.44,-0.021 -0.621,-0.065c-0.183,-0.044 -0.334,-0.126 -0.457,-0.246c-0.121,-0.12 -0.215,-0.281 -0.279,-0.48c-0.063,-0.2 -0.096,-0.45 -0.096,-0.75v-2.808h1.117v3.09Z" transform="translate(14.3635, 3.8753)"></path><path d="M2.537,0v0.912h-1.422v0.732h1.332v0.876h-1.332v0.852h1.477v0.912h-2.592v-4.284Z" transform="translate(18.2286, 3.875)"></path><g fill="#6F6F6F" fill-rule="evenodd" stroke="none" stroke-width="1"><path mask="url(#mask-1)" d="M21.913,0h-19.826c-1.153,0 -2.087,2.687 -2.087,6c0,3.313 0.934,6 2.087,6h19.826c1.152,0 2.087,-2.687 2.087,-6c0,-3.313 -0.935,-6 -2.087,-6m-0.576,2c0.29,0.606 0.663,2.034 0.663,4c0,1.966 -0.373,3.394 -0.663,4h-18.674c-0.29,-0.606 -0.663,-2.034 -0.663,-4c0,-1.966 0.373,-3.394 0.663,-4h18.674" transform="translate(0.0001, 0)"></path></g></g></g><path d="M0,0h24v24h-24Z"></path></g></g><defs><mask id="mask-1" maskContentUnits="userSpaceOnUse" maskUnits="objectBoundingBox"><g fill="#FFFFFF" transform="translate(-0.0001, 0)"><path d="M12,0h12v12h-12h-12v-12Z" transform="translate(0.0001, 0)"></path></g></mask></defs></svg>