<?xml version="1.0" encoding="UTF-8"?><svg width="576" height="576" version="1.1" viewBox="0 0 576 576" xmlns="http://www.w3.org/2000/svg" xmlns:xlink="http://www.w3.org/1999/xlink"><!--Generated by IJSVG (https://github.com/curthard89/IJSVG)--><g transform="scale(24)"><g fill="none"><g fill="none"><path d="M0,0h14v2h-14Z" transform="translate(3.67676, 4.90002)"></path><path fill="#0076FF" d="M11.4559,4.98249c-0.26666,-2.44128 -2.15808,-4.41199 -4.60767,-4.87653c-0.35913,-0.06812 -0.72955,-0.10596 -1.10931,-0.10596c-1.49884,0 -2.85852,0.56262 -3.88037,1.4762c-0.6181,0.55261 -1.11237,1.23206 -1.43414,2c-0.2594,0.61914 -0.40631,1.29346 -0.41925,2c-0.00061,0.03357 -0.00519,0.06616 -0.00519,0.09985c0,0.66803 0.1272,1.30579 0.349,1.89954c0.28229,0.75574 0.72351,1.43671 1.29114,2c1.0415,1.03357 2.49176,1.67676 4.09882,1.67676c2.96991,0 5.41119,-2.18317 5.71698,-4.98267c0.0213,-0.19519 0.03339,-0.39301 0.03339,-0.59363c0,-0.20062 -0.0121,-0.39843 -0.0334,-0.59356Zm-1.73553,-1.63666h-1.69531c-0.17896,-0.69043 -0.4455,-1.35754 -0.7923,-1.98499c1.04797,0.34986 1.93127,1.05488 2.48761,1.98499Zm-4.58771,-1.18945c0.17932,-0.35449 0.38245,-0.69556 0.61224,-1.01801c0.47601,0.6687 0.85071,1.41028 1.09747,2.20758h-1.70972h-0.48505c0.12788,-0.41284 0.29255,-0.80902 0.48506,-1.18957Zm-3.83423,4.5351c-0.09277,-0.35681 -0.1499,-0.73022 -0.1499,-1.11542c0,-0.03381 0.00623,-0.06622 0.00708,-0.09985c0.00903,-0.34918 0.05823,-0.68988 0.14282,-1.01508h1.94153c-0.04138,0.33496 -0.06763,0.67169 -0.07312,1.01508c-0.00055,0.03375 -0.0072,0.06592 -0.0072,0.09985c0,0.37964 0.03473,0.74713 0.08032,1.11542h-1.94153Zm2.22736,2.78411c-0.72656,-0.38892 -1.33643,-0.96313 -1.75708,-1.66907h1.69537c0.1535,0.58289 0.37683,1.13867 0.64288,1.66907c0.05225,0.10413 0.09332,0.21454 0.1499,0.31604c-0.25451,-0.08429 -0.49835,-0.19146 -0.73107,-0.31604Zm0.67639,-7.99939c-0.31726,0.5946 -0.56897,1.22028 -0.7381,1.86963h-1.69537c0.50629,-0.84937 1.29303,-1.49536 2.22174,-1.86963c0.09003,-0.03632 0.17365,-0.08453 0.26642,-0.11536c-0.02064,0.03736 -0.03461,0.07771 -0.05469,0.11536Zm1.86688,7.99939c-0.10791,0.17999 -0.20258,0.36829 -0.32416,0.53912c-0.1217,-0.17084 -0.21625,-0.35913 -0.32416,-0.53912c-0.31464,-0.5249 -0.58936,-1.07477 -0.77313,-1.66907h2.19476c-0.18377,0.59431 -0.45867,1.14417 -0.77331,1.66907Zm1.02026,-2.78399h-2.68872c-0.0517,-0.36829 -0.09253,-0.73578 -0.09253,-1.11542c0,-0.03363 0.00415,-0.06647 0.00476,-0.09998c0.00641,-0.34454 0.04065,-0.68506 0.08777,-1.01495h2.6441h0.04462c0.05164,0.362 0.09229,0.7359 0.09229,1.11493c3.55271e-15,0.37964 -0.04053,0.74713 -0.09229,1.11542Zm0.14331,3.10003c0.34442,-0.61847 0.60913,-1.28778 0.7923,-1.98511h1.69531c-0.55633,0.93012 -1.43963,1.63538 -2.48761,1.98511Zm2.95905,-3.10003h-1.94226c0.04572,-0.36829 0.08057,-0.73578 0.08057,-1.11542c0,-0.37903 -0.03473,-0.74701 -0.08057,-1.11493h1.94226c0.09204,0.35657 0.14917,0.7301 0.14917,1.11493c0,0.38507 -0.05713,0.75867 -0.14917,1.11542Z" transform="translate(12.5441, 11.4238)"></path><path fill="#6F6F6F" d="M1.5,6h15c0.82501,0 1.5,-0.67505 1.5,-1.5v-3c0,-0.82501 -0.67499,-1.5 -1.5,-1.5h-15c-0.82501,0 -1.5,0.67499 -1.5,1.5v3c-1.55431e-15,0.82496 0.67499,1.5 1.5,1.5Zm0.5,-4h14v2h-14v-2Z" transform="translate(1.67676, 2.90002)"></path><path fill="#6F6F6F" d="M9.67596,7.99939c-0.17554,-0.6048 -0.27594,-1.24017 -0.27594,-1.89941c0,-0.03375 0.0047,-0.06635 0.00519,-0.09998c0.00494,-0.34021 0.03912,-0.67279 0.09241,-0.99963c0.05566,-0.34149 0.12897,-0.67719 0.23358,-1.00037h-7.7312v-2h8.77521c0.61041,-0.81726 1.39496,-1.50226 2.30554,-2h-11.5808c-0.82501,0 -1.5,0.67499 -1.5,1.5v3c0,0.82495 0.67499,1.5 1.5,1.5h6.5v1.99939h-7c-0.55225,0 -1,0.44727 -1,1c0,0.55273 0.44775,1 1,1h9.62274c-0.24097,-0.34802 -0.44836,-0.7193 -0.62274,-1.10779c-0.12903,-0.28753 -0.23523,-0.58611 -0.32404,-0.89221Z" transform="translate(1.67676, 10.9)"></path></g><path d="M0,0h24v24h-24Z"></path></g></g></svg>