<?xml version="1.0" encoding="UTF-8"?><svg width="576" height="576" version="1.1" viewBox="0 0 576 576" xmlns="http://www.w3.org/2000/svg" xmlns:xlink="http://www.w3.org/1999/xlink"><!--Generated by IJSVG (https://github.com/curthard89/IJSVG)--><g transform="scale(24)"><g fill="#6F6F6F" fill-rule="evenodd" stroke="none" stroke-width="1"><g opacity="0.154438" fill="#9569FF" fill-rule="evenodd" stroke="none" stroke-width="1"><path d="M16,0h-14c-1.1,0 -2,0.9 -2,2v14c0,1.1 0.9,2 2,2h14c1.1,0 2,-0.9 2,-2v-14c0,-1.1 -0.9,-2 -2,-2m0,0.25c0.965,0 1.75,0.785 1.75,1.75v14c0,0.965 -0.785,1.75 -1.75,1.75h-14c-0.965,0 -1.75,-0.785 -1.75,-1.75v-14c0,-0.965 0.785,-1.75 1.75,-1.75h14" transform="translate(3, 3)"></path><path d="M18,0h-16c-1.1,0 -2,0.9 -2,2v10c0,1.1 0.9,2 2,2h16c1.1,0 2,-0.9 2,-2v-10c0,-1.1 -0.9,-2 -2,-2m0,0.25c0.965,0 1.75,0.785 1.75,1.75v10c0,0.965 -0.785,1.75 -1.75,1.75h-16c-0.965,0 -1.75,-0.785 -1.75,-1.75v-10c0,-0.965 0.785,-1.75 1.75,-1.75h16" transform="translate(2, 5)"></path><path d="M12,0h-10c-1.1,0 -2,0.9 -2,2v16c0,1.1 0.9,2 2,2h10c1.1,0 2,-0.9 2,-2v-16c0,-1.1 -0.9,-2 -2,-2m0,0.25c0.965,0 1.75,0.785 1.75,1.75v16c0,0.965 -0.785,1.75 -1.75,1.75h-10c-0.965,0 -1.75,-0.785 -1.75,-1.75v-16c0,-0.965 0.785,-1.75 1.75,-1.75h10" transform="translate(5, 2)"></path><path d="M10,0c-5.523,0 -10,4.477 -10,10c0,5.522 4.477,10 10,10c5.522,0 10,-4.478 10,-10c0,-5.523 -4.478,-10 -10,-10m0,0.25c5.376,0 9.75,4.374 9.75,9.75c0,5.376 -4.374,9.75 -9.75,9.75c-5.376,0 -9.75,-4.374 -9.75,-9.75c0,-5.376 4.374,-9.75 9.75,-9.75" transform="translate(2, 2)"></path><g transform="translate(2, 2)"><g fill="none" fill-rule="evenodd" stroke="#9569FF" stroke-width="0.25"><use xlink:href="#path-1"></use><path stroke-dasharray="1 1" d="M0,0l19.11,19.11" transform="translate(0.5342, 0.5342)"></path><use transform="translate(19.8232, 19.8232)" xlink:href="#path-1"></use><use transform="translate(19.823, 0)" xlink:href="#path-2"></use><path stroke-dasharray="1 1" d="M19.11,0l-19.11,19.11" transform="translate(0.3558, 0.5342)"></path><use transform="translate(-0.0002, 19.8232)" xlink:href="#path-2"></use></g></g><path d="M5,0c-2.761,0 -5,2.239 -5,5c0,2.762 2.239,5 5,5c2.762,0 5,-2.238 5,-5c0,-2.761 -2.238,-5 -5,-5m0,0.25c2.619,0 4.75,2.131 4.75,4.75c0,2.619 -2.131,4.75 -4.75,4.75c-2.619,0 -4.75,-2.131 -4.75,-4.75c0,-2.619 2.131,-4.75 4.75,-4.75" transform="translate(7, 7)"></path><path d="M4,0c-2.209,0 -4,1.791 -4,4c0,2.209 1.791,4 4,4c2.209,0 4,-1.791 4,-4c0,-2.209 -1.791,-4 -4,-4m0,0.25c2.067,0 3.75,1.682 3.75,3.75c0,2.067 -1.683,3.75 -3.75,3.75c-2.068,0 -3.75,-1.683 -3.75,-3.75c0,-2.068 1.682,-3.75 3.75,-3.75" transform="translate(8, 8)"></path><path d="M3,0c-1.657,0 -3,1.343 -3,3c0,1.657 1.343,3 3,3c1.657,0 3,-1.343 3,-3c0,-1.657 -1.343,-3 -3,-3m0,0.25c1.517,0 2.75,1.233 2.75,2.75c0,1.517 -1.233,2.75 -2.75,2.75c-1.517,0 -2.75,-1.233 -2.75,-2.75c0,-1.517 1.233,-2.75 2.75,-2.75" transform="translate(9, 9)"></path><path opacity="0.446841" d="M0,24h24v-24h-24v24Zm2,-2h20v-20h-20v20Z"></path></g><g transform="translate(3, 8)"><g fill="#FFFFFF" stroke="none" stroke-width="1"><path d="M1.48535,6.06835l-1.48535,-6.06835h1.1792l0.57617,2.75488c0.15283,0.73828 0.29688,1.51221 0.396,2.11621h0.01807c0.09912,-0.63965 0.27002,-1.35986 0.44092,-2.125l0.65723,-2.74609h1.16162l0.60303,2.79102c0.15332,0.72021 0.2793,1.39551 0.36914,2.05273h0.01807c0.10791,-0.6665 0.25195,-1.35986 0.41406,-2.09766l0.63037,-2.74609h1.125l-1.62939,6.06836h-1.18849l-0.62988,-2.85449c-0.15332,-0.69287 -0.26123,-1.26904 -0.33301,-1.92627h-0.01807c-0.10791,0.64795 -0.2251,1.2334 -0.40527,1.92627l-0.70215,2.85449h-1.19727v-1e-05Z" transform="translate(0.65625, 0.57227)"></path><path d="M1.0625,2.60204c0.02686,0.79199 0.64795,1.13477 1.3501,1.13477c0.5127,0 0.88184,-0.07227 1.21582,-0.19824l0.16113,0.76465c-0.37793,0.15332 -0.89941,0.27051 -1.53027,0.27051c-1.42188,0 -2.25928,-0.87305 -2.25928,-2.21484c0,-1.21533 0.73828,-2.35889 2.14209,-2.35889c1.42285,0 1.89062,1.17041 1.89062,2.13379c0,0.20703 -0.01758,0.36914 -0.03516,0.46826h-2.93505v-1e-05Zm1.92627,-0.77441c0.00879,-0.40527 -0.1709,-1.07129 -0.90918,-1.07129c-0.68408,0 -0.97217,0.62109 -1.01709,1.07129h1.92627Z" transform="translate(8.31494, 2.15675)"></path><path d="M0,6.39257c0.01758,-0.29688 0.03613,-0.7832 0.03613,-1.2334v-5.15917h1.10742v2.61084h0.01758c0.27051,-0.42285 0.74707,-0.70215 1.4043,-0.70215c1.07129,0 1.83691,0.89111 1.82812,2.22363c0,1.57568 -1,2.35889 -1.99023,2.35889c-0.56738,0 -1.07129,-0.21582 -1.38574,-0.75586h-0.01855l-0.05371,0.65723h-0.94532v-1e-05Zm1.14355,-1.81005c0,0.08984 0.00879,0.18018 0.02637,0.26123c0.11719,0.44141 0.50391,0.77441 0.98145,0.77441c0.69336,0 1.11621,-0.55859 1.11621,-1.44092c0,-0.77393 -0.36914,-1.4043 -1.10742,-1.4043c-0.4502,0 -0.85449,0.32422 -0.98145,0.81055c-0.01758,0.08057 -0.03516,0.17969 -0.03516,0.28809v0.71094v0Z" transform="translate(13.2021, 0.24805)"></path></g></g><path d="M2.01906,9.80228c0,-0.676476 0.100461,-1.33319 0.26357,-1.95994h3.41298c-0.0798763,0.646724 -0.141182,1.29367 -0.141182,1.95994c0,0.667355 0.0610819,1.31343 0.141182,1.9608h-3.41298c-0.163109,-0.627179 -0.26357,-1.28368 -0.26357,-1.9608v0Zm5.46426,-7.40997c-0.610148,1.10321 -1.07755,2.2757 -1.3937,3.48944h-2.98026c0.976192,-1.63788 2.52942,-2.8766 4.37396,-3.48944v0Zm0.252606,5.45025h4.72658c0.0908397,0.6363 0.162214,1.29367 0.162214,1.95994c0,0.667355 -0.0711503,1.31343 -0.162214,1.9608h-4.72658c-0.0908398,-0.647376 -0.162661,-1.29345 -0.162661,-1.9608c0,-0.666269 0.0718216,-1.32363 0.162661,-1.95994v0Zm2.36318,-5.84137c0.8368,1.17553 1.4955,2.47918 1.92934,3.88078h-3.85823c0.434062,-1.40182 1.0912,-2.70547 1.92889,-3.88078v0Zm4.00814,11.722h2.98026c-0.977982,1.63505 -2.53076,2.87486 -4.37306,3.48966c0.605449,-1.08714 1.07084,-2.26375 1.3928,-3.48966v0Zm2.98048,-7.84148h-2.98026c-0.314583,-1.21375 -0.783101,-2.38645 -1.3928,-3.48944c1.8423,0.615018 3.39508,1.85439 4.37306,3.48944v0Zm0.828521,1.9608c0.161766,0.626745 0.262227,1.28346 0.262227,1.95994c0,0.676911 -0.100461,1.33362 -0.262227,1.9608h-3.41432c0.0803238,-0.647376 0.14163,-1.29345 0.14163,-1.9608c0,-0.666269 -0.0610819,-1.31321 -0.14163,-1.95994h3.41432Zm-7.81714,9.76254c-0.837695,-1.1764 -1.49505,-2.47897 -1.92889,-3.88187h3.85823c-0.433838,1.4029 -1.09231,2.70547 -1.92934,3.88187v0Zm-6.98974,-3.88187h2.98026c0.322862,1.22591 0.7878,2.40252 1.3937,3.48966c-1.84454,-0.610675 -3.39777,-1.85113 -4.37396,-3.48966v0Zm6.97922,5.88176c5.58486,0 10.1087,-4.39091 10.1087,-9.80272c0,-5.41116 -4.52386,-9.80228 -10.1087,-9.80228c-5.57434,0 -10.0886,4.39091 -10.0886,9.80228c0.00022374,5.41181 4.51424,9.80272 10.0886,9.80272v0Z" transform="translate(1.90135, 2.1975)"></path></g></g><defs><path id="path-1" d="M0,0l0.177,0.177"></path><path id="path-2" d="M0.177,0l-0.177,0.177"></path></defs></svg>