<?xml version="1.0" encoding="utf-8"?>
<!-- Generator: Adobe Illustrator 22.0.1, SVG Export Plug-In . SVG Version: 6.00 Build 0)  -->
<svg version="1.1" id="Layer_1" xmlns="http://www.w3.org/2000/svg" xmlns:xlink="http://www.w3.org/1999/xlink" x="0px" y="0px"
	 viewBox="0 0 24 24" style="enable-background:new 0 0 24 24;" xml:space="preserve">
<style type="text/css">
	.st0{fill:none;}
	.st1{fill:#585D63;}
</style>
<title>flow map widget</title>
<desc>Created with Sketch.</desc>
<g id="Page-1" transform="translate(3.000000, 3.000000)">
	<g id="Clip-2">
	</g>
	<g id="Clip-5">
	</g>
</g>
<g>
	<path class="st0" d="M5.00043,19h14V5h-14V19z M8.66602,7c0.771,0,1.41418,0.52734,1.60437,1.23871l3.57056,0.25513
		c0.271-0.55341,0.83417-0.93811,1.49158-0.93811c0.92096,0,1.66699,0.74695,1.66699,1.66699
		c0,0.72913-0.47156,1.3429-1.12451,1.56897v1.86243c0.65295,0.22583,1.12451,0.83917,1.12451,1.56909
		c0,0.91998-0.74603,1.66602-1.66699,1.66602c-0.60022,0-1.12183-0.32031-1.4151-0.79651l-1.93695,0.42987
		c-0.09497,0.83075-0.79175,1.47791-1.64795,1.47791c-0.92004,0-1.66602-0.74597-1.66602-1.66699
		c0-0.58502,0.30298-1.09766,0.75928-1.3949L8.5213,10.3194C7.6701,10.24487,7,9.53741,7,8.66699C7,7.74701,7.74597,7,8.66602,7z"/>
	<path class="st0" d="M11.74902,14.46484l1.93652-0.43066c0.07379-0.64594,0.51117-1.17511,1.10645-1.38055v-1.86145
		c-0.54639-0.18878-0.966-0.64783-1.08795-1.22198l-3.50446-0.25037C10.06909,9.62555,9.849,9.88269,9.57343,10.06238
		l0.90479,3.61981C11.01709,13.72961,11.48016,14.02771,11.74902,14.46484z"/>
	<path class="st1" d="M19.27539,3H4.7254c-0.953,0-1.72498,0.77197-1.72498,1.72498v14.55005C3.00043,20.22803,3.7724,21,4.7254,21
		h14.54999c0.95203,0,1.72504-0.77197,1.72504-1.72498V4.72498C21.00043,3.77197,20.22742,3,19.27539,3z M19.00043,19h-14V5h14V19z"
		/>
	<path class="st1" d="M8.5213,10.3194l0.90448,3.6192c-0.4563,0.29724-0.75928,0.80988-0.75928,1.3949
		c0,0.92102,0.74597,1.66699,1.66602,1.66699c0.8562,0,1.55298-0.64716,1.64795-1.47791l1.93695-0.42987
		c0.29327,0.4762,0.81488,0.79651,1.4151,0.79651c0.92096,0,1.66699-0.74603,1.66699-1.66602
		c0-0.72992-0.47156-1.34326-1.12451-1.56909v-1.86243c0.65295-0.22607,1.12451-0.83984,1.12451-1.56897
		c0-0.92004-0.74603-1.66699-1.66699-1.66699c-0.65741,0-1.22058,0.3847-1.49158,0.93811l-3.57056-0.25513
		C10.0802,7.52734,9.43701,7,8.66602,7C7.74597,7,7,7.74701,7,8.66699C7,9.53741,7.6701,10.24487,8.5213,10.3194z M10.19958,9.31982
		l3.50446,0.25037c0.12195,0.57416,0.54156,1.0332,1.08795,1.22198v1.86145c-0.59528,0.20544-1.03265,0.73462-1.10645,1.38055
		l-1.93652,0.43066c-0.26886-0.43713-0.73193-0.73523-1.27081-0.78265l-0.90479-3.61981
		C9.849,9.88269,10.06909,9.62555,10.19958,9.31982z"/>
</g>
<rect class="st0" width="24" height="24"/>
</svg>
