<?xml version="1.0" encoding="utf-8"?>
<!-- Generator: Adobe Illustrator 22.1.0, SVG Export Plug-In . SVG Version: 6.00 Build 0)  -->
<svg version="1.1" id="Layer_1" xmlns="http://www.w3.org/2000/svg" xmlns:xlink="http://www.w3.org/1999/xlink" x="0px" y="0px"
	 viewBox="0 0 24 24" style="enable-background:new 0 0 24 24;" xml:space="preserve">
<style type="text/css">
	.st0{fill:#585D63;}
</style>
<title>image</title>
<g id="Layer_4">
	<g id="Widgets">
		<g id="image-widget">
			<g id="Page-1">
				<polygon id="Fill-4" class="st0" points="9.9,11.5 6,17.5 18,17.5 15,13 12.9,16 				"/>
				<path id="Fill-6" class="st0" d="M13.2,8.3c0-1,0.8-1.8,1.8-1.8s1.8,0.8,1.8,1.8S16,10.1,15,10.1C14,10.1,13.2,9.3,13.2,8.3"/>
			</g>
		</g>
	</g>
	<path class="st0" d="M19.8,2.5H4.2c-1,0.1-1.8,1-1.7,2.1v14.8c-0.1,1,0.7,2,1.7,2.1h15.5c1-0.1,1.8-1.1,1.7-2.1V4.6
		C21.6,3.5,20.8,2.6,19.8,2.5z M19.5,19.4c0,0,0,0.1,0,0.1h-15c0,0,0-0.1,0-0.1V4.6c0,0,0-0.1,0-0.1h15c0,0,0,0.1,0,0.1V19.4z"/>
</g>
</svg>
