<?xml version="1.0" encoding="utf-8"?>
<!-- Generator: Adobe Illustrator 22.0.1, SVG Export Plug-In . SVG Version: 6.00 Build 0)  -->
<svg version="1.1" id="Layer_1" xmlns="http://www.w3.org/2000/svg" xmlns:xlink="http://www.w3.org/1999/xlink" x="0px" y="0px"
	 viewBox="0 0 24 24" style="enable-background:new 0 0 24 24;" xml:space="preserve">
<style type="text/css">
	.st0{fill:none;}
	.st1{fill:#585D63;}
</style>
<title>streaming graph widget</title>
<desc>Created with Sketch.</desc>
<g id="Widgets">
	<g id="streaming-graph-widget">
		<rect id="Rectangle-12" class="st0" width="24" height="24"/>
		<g id="Clip-2">
		</g>
		<g>
			<path class="st0" d="M5.00043,14.46857l3.21924-3.21924c0.29291-0.29291,0.76776-0.29291,1.06067,0L10.75,12.71899
				l3.18933-3.18933H12.75c-0.41418,0-0.75-0.33582-0.75-0.75s0.33582-0.75,0.75-0.75h3c0.30237,0,0.53644,0.16547,0.65833,0.39038
				c0.02759,0.05035,0.04956,0.10425,0.06506,0.16083c0.02264,0.08124,0.03204,0.16632,0.02661,0.2514v2.94739
				c0,0.41418-0.33582,0.75-0.75,0.75s-0.75-0.33582-0.75-0.75v-1.18933L11.28033,14.31c-0.29291,0.29291-0.76776,0.29291-1.06067,0
				L8.75,12.84033L5.00043,16.5899V19h14V5h-14V14.46857z"/>
			<path class="st1" d="M19.27539,3H4.7254c-0.953,0-1.72498,0.77197-1.72498,1.72498v12.05249
				c-0.00006,0.00153-0.00006,0.00287,0,0.00439v2.49316C3.00043,20.22803,3.7724,21,4.7254,21h14.54999
				c0.95203,0,1.72504-0.77197,1.72504-1.72498V4.72498C21.00043,3.77197,20.22742,3,19.27539,3z M19.00043,19h-14v-2.4101
				L8.75,12.84033L10.21967,14.31c0.29291,0.29291,0.76776,0.29291,1.06067,0L15,10.59033v1.18933c0,0.41418,0.33582,0.75,0.75,0.75
				s0.75-0.33582,0.75-0.75V8.83228c0.00543-0.08508-0.00397-0.17017-0.02661-0.2514
				c-0.0155-0.05658-0.03748-0.11047-0.06506-0.16083C16.28644,8.19513,16.05237,8.02966,15.75,8.02966h-3
				c-0.41418,0-0.75,0.33582-0.75,0.75s0.33582,0.75,0.75,0.75h1.18933L10.75,12.71899l-1.46967-1.46967
				c-0.29291-0.29291-0.76776-0.29291-1.06067,0l-3.21924,3.21924V5h14V19z"/>
		</g>
	</g>
</g>
<rect class="st0" width="24" height="24"/>
</svg>
