<?xml version="1.0" encoding="utf-8"?>
<!-- Generator: Adobe Illustrator 19.2.1, SVG Export Plug-In . SVG Version: 6.00 Build 0)  -->
<!DOCTYPE svg PUBLIC "-//W3C//DTD SVG 1.1//EN" "http://www.w3.org/Graphics/SVG/1.1/DTD/svg11.dtd">
<svg version="1.1" id="Layer_1" xmlns="http://www.w3.org/2000/svg" xmlns:xlink="http://www.w3.org/1999/xlink" x="0px" y="0px"
	 width="24px" height="24px" viewBox="0 0 24 24" enable-background="new 0 0 24 24" xml:space="preserve">
<path fill="#585D63" d="M19,3H5C3.90002,3,3,3.89996,3,5v14c0,1.09998,0.90002,2,2,2h14c1.09998,0,2-0.90002,2-2V5
	C21,3.89996,20.09998,3,19,3z M9.48053,17.54291H6.99878V15.0611l6.6181-6.61816l2.48181,2.48181L9.48053,17.54291z
	 M18.05768,8.96576l-1.29718,1.29718l-2.48181-2.48181l1.29718-1.29712c0.25812-0.25812,0.67505-0.25812,0.93317,0l1.54865,1.54865
	C18.3158,8.29071,18.3158,8.7077,18.05768,8.96576z"/>
</svg>
