<?xml version="1.0" encoding="utf-8"?>
<!-- Generator: Adobe Illustrator 22.1.0, SVG Export Plug-In . SVG Version: 6.00 Build 0)  -->
<svg version="1.1" id="Layer_1" xmlns="http://www.w3.org/2000/svg" xmlns:xlink="http://www.w3.org/1999/xlink" x="0px" y="0px"
	 viewBox="0 0 24 24" style="enable-background:new 0 0 24 24;" xml:space="preserve">
<style type="text/css">
	.st0{fill:#585D63;}
	.st1{fill:none;}
</style>
<title>i frame widget</title>
<desc>Created with Sketch.</desc>
<g id="Clip-4">
</g>
<g>
	<path class="st0" d="M19.27539,3H4.7254c-0.953,0-1.72498,0.77197-1.72498,1.72498v14.55005C3.00043,20.22803,3.7724,21,4.7254,21
		h14.54999c0.95203,0,1.72504-0.77197,1.72504-1.72498V4.72498C21.00043,3.77197,20.22742,3,19.27539,3z M19.00043,19h-14V5h14V19z"
		/>
	<path class="st0" d="M8.93164,14.87109c0.14795,0.16309,0.35156,0.24609,0.55566,0.24609
		c0.17969,0,0.35986-0.06445,0.50342-0.19434c0.30713-0.27832,0.33057-0.75195,0.05225-1.05957L8.35498,12l1.68799-1.86377
		c0.27832-0.30713,0.25488-0.78125-0.05225-1.05908C9.6831,8.79785,9.20996,8.82129,8.93164,9.1294L6.7876,11.49658
		c-0.25928,0.28564-0.25928,0.72119,0,1.00732L8.93164,14.87109z"/>
	<path class="st0" d="M14.16211,14.92285c0.14355,0.12988,0.32422,0.19434,0.50391,0.19434c0.2041,0,0.4082-0.08301,0.55566-0.24609
		l2.14453-2.36719c0.25879-0.28613,0.25879-0.72168,0-1.00732L15.22168,9.1294c-0.27637-0.30713-0.75293-0.33057-1.05957-0.05225
		c-0.30664,0.27783-0.33008,0.75244-0.05176,1.05908L15.79883,12l-1.68848,1.86328
		C13.83203,14.1709,13.85547,14.64453,14.16211,14.92285z"/>
</g>
<rect class="st1" width="24" height="24"/>
</svg>
