<?xml version="1.0" encoding="utf-8"?>
<!-- Generator: Adobe Illustrator 22.0.1, SVG Export Plug-In . SVG Version: 6.00 Build 0)  -->
<svg version="1.1" id="Layer_1" xmlns="http://www.w3.org/2000/svg" xmlns:xlink="http://www.w3.org/1999/xlink" x="0px" y="0px"
	 viewBox="0 0 24 24" style="enable-background:new 0 0 24 24;" xml:space="preserve">
<style type="text/css">
	.st0{fill:none;}
	.st1{fill:#585D63;}
</style>
<title>status light widget</title>
<desc>Created with Sketch.</desc>
<g id="Widgets">
	<g id="status-light-widget">
		<rect id="Rectangle-12" class="st0" width="24" height="24"/>
		<g id="Clip-2">
		</g>
		<g>
			<path class="st1" d="M19.27539,3H4.7254c-0.953,0-1.72498,0.77197-1.72498,1.72498v14.55005
				C3.00043,20.22803,3.7724,21,4.7254,21h14.54999c0.95203,0,1.72504-0.77197,1.72504-1.72498V4.72498
				C21.00043,3.77197,20.22742,3,19.27539,3z M19.00043,19h-14V5h14V19z"/>
		</g>
		<polygon id="Shape" class="st0" points="0,0 24,0 24,24 0,24 		"/>
		<polygon id="Shape_1_" class="st0" points="0,0 24,0 24,24 0,24 		"/>
		<path id="Shape_2_" class="st1" d="M12.0004,8.99092c-1.66101,0-3.00908,1.34807-3.00908,3.00908s1.34807,3.00908,3.00908,3.00908
			S15.00948,13.66101,15.00948,12S13.66141,8.99092,12.0004,8.99092z"/>
	</g>
</g>
</svg>
