<?xml version="1.0" encoding="utf-8"?>
<!-- Generator: Adobe Illustrator 22.0.1, SVG Export Plug-In . SVG Version: 6.00 Build 0)  -->
<svg version="1.1" id="Layer_1" xmlns="http://www.w3.org/2000/svg" xmlns:xlink="http://www.w3.org/1999/xlink" x="0px" y="0px"
	 viewBox="0 0 24 24" style="enable-background:new 0 0 24 24;" xml:space="preserve">
<style type="text/css">
	.st0{fill:none;}
	.st1{fill:#585D63;}
</style>
<title>health list widget</title>
<desc>Created with Sketch.</desc>
<g id="Widgets">
	<g id="health-list-widget">
		<rect id="Rectangle-12" class="st0" width="24" height="24"/>
		<g id="Page-1" transform="translate(3.000000, 3.000000)">
			<g id="Clip-2">
			</g>
			<g>
				<path class="st1" d="M16.27539,0H1.7254c-0.953,0-1.72498,0.77197-1.72498,1.72498v14.55005
					C0.00043,17.22803,0.7724,18,1.7254,18h14.54999c0.95203,0,1.72504-0.77197,1.72504-1.72498V1.72498
					C18.00043,0.77197,17.22742,0,16.27539,0z M16.00043,16h-14V2h14V16z"/>
			</g>
			<polygon id="Fill-4" class="st1" points="5.4644,7.2964 4.6964,8.6264 3.9294,9.9554 5.4644,9.9554 7.0004,9.9554 6.2324,8.6264 
							"/>
			<path id="Fill-6" class="st1" d="M5.4663,3.2651c-0.076,0-0.153,0.006-0.231,0.019c-0.782,0.126-1.312,0.862-1.186,1.644
				c0.114,0.704,0.723,1.205,1.414,1.205c0.076,0,0.153-0.006,0.23-0.019c0.782-0.126,1.313-0.863,1.187-1.644
				C6.7653,3.7651,6.1573,3.2651,5.4663,3.2651"/>
			<g id="Clip-9">
			</g>
			<polygon id="Fill-8" class="st1" points="4.03,14.734 6.898,14.734 6.898,11.867 4.03,11.867 			"/>
		</g>
		<rect id="Rectangle" x="11.30444" y="6.9491" class="st1" width="5.6991" height="1.5"/>
		<rect id="Rectangle-Copy" x="11.30444" y="11.25" class="st1" width="5.6991" height="1.5"/>
		<rect id="Rectangle-Copy-2" x="11.30444" y="15.5505" class="st1" width="5.6991" height="1.5"/>
	</g>
</g>
</svg>
