<?xml version="1.0" encoding="utf-8"?>
<!-- Generator: Adobe Illustrator 22.0.1, SVG Export Plug-In . SVG Version: 6.00 Build 0)  -->
<svg version="1.1" id="Layer_1" xmlns="http://www.w3.org/2000/svg" xmlns:xlink="http://www.w3.org/1999/xlink" x="0px" y="0px"
	 viewBox="0 0 24 24" style="enable-background:new 0 0 24 24;" xml:space="preserve">
<style type="text/css">
	.st0{fill:none;}
	.st1{fill:#585D63;}
</style>
<title>guage widget</title>
<desc>Created with Sketch.</desc>
<g id="Widgets">
	<g id="guage-widget">
		<rect id="Rectangle-12" class="st0" width="24" height="24"/>
		<g id="Page-1" transform="translate(3.000000, 3.000000)">
			<g>
				<path class="st1" d="M16,0H2C0.90002,0,0,0.90002,0,2v14c0,1.09998,0.90002,2,2,2h14c1.09998,0,2-0.90002,2-2V2
					C18,0.90002,17.09998,0,16,0z M16,16H2V2h14V16z"/>
			</g>
			<path id="Fill-3" class="st1" d="M11.2891,6.751c-0.11,0-0.221,0.036-0.312,0.109l-2.97,2.372
				c-0.112,0.089-0.18,0.221-0.188,0.362c-0.008,0.143,0.045,0.282,0.146,0.382l0.6,0.6c0.094,0.094,0.221,0.146,0.353,0.146
				c0.01,0,0.018,0,0.028-0.001c0.142-0.008,0.274-0.076,0.363-0.188l2.371-2.971c0.159-0.198,0.142-0.485-0.037-0.665
				C11.5461,6.8,11.4171,6.751,11.2891,6.751"/>
			<path id="Fill-5" class="st1" d="M5.551,4.9311c-0.011,0.006-0.023,0.007-0.033,0.015c-0.158,0.115-0.308,0.237-0.45,0.365
				c-0.186,0.176-0.37,0.354-0.535,0.558c-0.019,0.024-0.043,0.041-0.062,0.065c-0.007,0.009-0.008,0.019-0.014,0.028
				c-1.608,1.978-1.76,4.866-0.187,7.019c0.147,0.202,0.375,0.308,0.607,0.308c0.153,0,0.309-0.047,0.441-0.145
				c0.335-0.244,0.408-0.713,0.163-1.047c-1.197-1.64-1.043-3.855,0.247-5.318c0.034-0.041,0.075-0.075,0.111-0.116
				c0.194-0.217,0.404-0.411,0.63-0.58c0.749-0.557,1.652-0.848,2.56-0.848c0.907,0,1.819,0.29,2.588,0.891
				c0.894,0.7,1.462,1.704,1.601,2.831c0.137,1.128-0.172,2.241-0.871,3.136c-0.255,0.326-0.198,0.798,0.129,1.052
				c0.136,0.108,0.299,0.16,0.46,0.16c0.224,0,0.445-0.099,0.592-0.289c0.947-1.209,1.365-2.715,1.178-4.24
				c-0.187-1.526-0.955-2.886-2.165-3.831c-1.037-0.811-2.262-1.2-3.48-1.2C7.815,3.7451,6.576,4.1521,5.551,4.9311z"/>
		</g>
	</g>
</g>
</svg>
