<?xml version="1.0" encoding="UTF-8"?><svg width="576" height="576" version="1.1" viewBox="0 0 576 576" xmlns="http://www.w3.org/2000/svg" xmlns:xlink="http://www.w3.org/1999/xlink"><!--Generated by IJSVG (https://github.com/curthard89/IJSVG)--><g transform="scale(24)"><g fill="none"><path d="M3.54791,9.46558l4.19916,-4.72388c0.05566,-0.06348 0.08691,-0.14551 0.08691,-0.22949v-1.78613c0,-0.19043 -0.15527,-0.3457 -0.3457,-0.3457c-2.16748,0 -4.42041,-2.18408 -4.51514,-2.27686c-0.06787,-0.06739 -0.15479,-0.10352 -0.24658,-0.10352h-2.38135c-0.19043,0 -0.34521,0.15479 -0.34521,0.34521v3.57129c0,0.13184 0.07324,0.25 0.19092,0.30859l2.18994,1.0957v3.45984c0.36718,0.26069 0.75781,0.48829 1.16705,0.68495Z" transform="translate(4.99903, 9.72705)"></path><path d="M1.47754,3.54529c0.09131,0 0.18018,-0.03662 0.24365,-0.10059l2.38184,-2.38184c0.06494,-0.06542 0.10107,-0.15184 0.10107,-0.24364v-0.81922c-1.78406,0.65186 -3.27161,1.91718 -4.2041,3.54529h1.47754Z" transform="translate(5.05713, 4.49084)"></path><path d="M0.9295,0c-0.59674,0.6214 -0.9295,1.43134 -0.9295,2.29602c0,0.88721 0.3457,1.72119 0.97266,2.34912c0.66602,0.66602 1.56641,1.01025 2.51074,0.96973l0.20215,-0.01025l0.05176,0.19531c0.23431,0.8786 0.659,3.18158 -0.00146,6.33582c1.07611,-1.36169 1.72412,-3.07672 1.72412,-4.94324c-1e-05,-3.16559 -1.85469,-5.89923 -4.53047,-7.19251Z" transform="translate(14.5244, 4.79968)"></path><path fill="#6F6F6F" d="M9.99219,0c-5.50977,0 -9.99219,4.48242 -9.99219,9.99219c0,5.50977 4.48242,9.99219 9.99219,9.99219c5.50977,0 9.99219,-4.48242 9.99219,-9.99219c0,-5.50977 -4.48243,-9.99219 -9.99219,-9.99219Zm-6.80225,11.9521c-0.11768,-0.05859 -0.19092,-0.17676 -0.19092,-0.30859v-3.57129c0,-0.19043 0.15479,-0.34521 0.34521,-0.34521h2.38135c0.0918,0 0.17871,0.03613 0.24658,0.10352c0.09473,0.09277 2.34766,2.27686 4.51514,2.27686c0.19043,0 0.3457,0.15527 0.3457,0.3457v1.78613c0,0.08398 -0.03125,0.16602 -0.08691,0.22949l-4.19916,4.72388c-0.40924,-0.19666 -0.79987,-0.42426 -1.16705,-0.68494v-3.45984l-2.18994,-1.09571Zm4.07129,-9.46131v0.81921c0,0.0918 -0.03613,0.17822 -0.10107,0.24365l-2.38184,2.38185c-0.06348,0.06396 -0.15234,0.10058 -0.24365,0.10058h-1.47754c0.93249,-1.62811 2.42004,-2.89343 4.2041,-3.54529Zm8.99902,12.4446c0.66046,-3.15424 0.23578,-5.45721 0.00146,-6.33582l-0.05176,-0.19531l-0.20215,0.01025c-0.94434,0.04053 -1.84473,-0.30371 -2.51074,-0.96973c-0.62695,-0.62793 -0.97266,-1.46191 -0.97266,-2.34912c0,-0.86469 0.33276,-1.67462 0.9295,-2.29602c2.67578,1.29327 4.53046,4.02692 4.53046,7.1925c2e-05,1.86653 -0.648,3.58156 -1.72411,4.94325Z" transform="translate(2, 2)"></path></g></g></svg>