<?xml version="1.0" encoding="utf-8"?>
<!-- Generator: Adobe Illustrator 22.0.1, SVG Export Plug-In . SVG Version: 6.00 Build 0)  -->
<svg version="1.1" id="Layer_1" xmlns="http://www.w3.org/2000/svg" xmlns:xlink="http://www.w3.org/1999/xlink" x="0px" y="0px"
	 viewBox="0 0 24 24" style="enable-background:new 0 0 24 24;" xml:space="preserve">
<style type="text/css">
	.st0{fill:none;}
	.st1{fill:#585D63;}
</style>
<title>world map</title>
<desc>Created with Sketch.</desc>
<g>
	<path class="st0" d="M8.54694,19.19263l4.19916-4.72388c0.05566-0.06348,0.08691-0.14551,0.08691-0.22949v-1.78613
		c0-0.19043-0.15527-0.3457-0.3457-0.3457c-2.16748,0-4.42041-2.18408-4.51514-2.27686
		C7.9043,9.76318,7.81738,9.72705,7.72559,9.72705H5.34424c-0.19043,0-0.34521,0.15479-0.34521,0.34521v3.57129
		c0,0.13184,0.07324,0.25,0.19092,0.30859l2.18994,1.0957v3.45984C7.74707,18.76837,8.1377,18.99597,8.54694,19.19263z"/>
	<path class="st0" d="M6.53467,8.03613c0.09131,0,0.18018-0.03662,0.24365-0.10059l2.38184-2.38184
		C9.2251,5.48828,9.26123,5.40186,9.26123,5.31006V4.49084C7.47717,5.1427,5.98962,6.40802,5.05713,8.03613H6.53467z"/>
	<path class="st0" d="M15.45392,4.79968c-0.59674,0.6214-0.9295,1.43134-0.9295,2.29602c0,0.88721,0.3457,1.72119,0.97266,2.34912
		c0.66602,0.66602,1.56641,1.01025,2.51074,0.96973l0.20215-0.01025l0.05176,0.19531c0.23431,0.8786,0.659,3.18158-0.00146,6.33582
		c1.07611-1.36169,1.72412-3.07672,1.72412-4.94324C19.98438,8.8266,18.1297,6.09296,15.45392,4.79968z"/>
	<path class="st1" d="M11.99219,2C6.48242,2,2,6.48242,2,11.99219s4.48242,9.99219,9.99219,9.99219s9.99219-4.48242,9.99219-9.99219
		S17.50195,2,11.99219,2z M5.18994,13.95215c-0.11768-0.05859-0.19092-0.17676-0.19092-0.30859v-3.57129
		c0-0.19043,0.15479-0.34521,0.34521-0.34521h2.38135c0.0918,0,0.17871,0.03613,0.24658,0.10352
		c0.09473,0.09277,2.34766,2.27686,4.51514,2.27686c0.19043,0,0.3457,0.15527,0.3457,0.3457v1.78613
		c0,0.08398-0.03125,0.16602-0.08691,0.22949l-4.19916,4.72388c-0.40924-0.19666-0.79987-0.42426-1.16705-0.68494v-3.45984
		L5.18994,13.95215z M9.26123,4.49084v0.81921c0,0.0918-0.03613,0.17822-0.10107,0.24365L6.77832,7.93555
		C6.71484,7.99951,6.62598,8.03613,6.53467,8.03613H5.05713C5.98962,6.40802,7.47717,5.1427,9.26123,4.49084z M18.26025,16.93542
		c0.66046-3.15424,0.23578-5.45721,0.00146-6.33582l-0.05176-0.19531l-0.20215,0.01025
		c-0.94434,0.04053-1.84473-0.30371-2.51074-0.96973c-0.62695-0.62793-0.97266-1.46191-0.97266-2.34912
		c0-0.86469,0.33276-1.67462,0.9295-2.29602c2.67578,1.29327,4.53046,4.02692,4.53046,7.1925
		C19.98438,13.8587,19.33636,15.57373,18.26025,16.93542z"/>
</g>
</svg>
