<?xml version="1.0" encoding="utf-8"?>
<!-- Generator: Adobe Illustrator 18.1.1, SVG Export Plug-In . SVG Version: 6.00 Build 0)  -->
<!DOCTYPE svg PUBLIC "-//W3C//DTD SVG 1.1//EN" "http://www.w3.org/Graphics/SVG/1.1/DTD/svg11.dtd">
<svg version="1.1" id="Layer_1" xmlns="http://www.w3.org/2000/svg" xmlns:xlink="http://www.w3.org/1999/xlink" x="0px" y="0px"
	 width="110.33625px" height="168.66367px" viewBox="0 0 110.33625 168.66367" enable-background="new 0 0 110.33625 168.66367"
	 xml:space="preserve">
<g>
	<path fill="#B1B1B1" d="M96.43484,0.31827H14.19952c-7.6872,0-13.83648,6.91824-13.83648,13.83648v140.67244
		c0,7.68718,6.91824,13.83647,13.83648,13.83647h82.23534c7.6872,0,13.83649-6.91823,13.83649-13.83647V14.15475
		C111.04028,6.46755,104.89021,0.31827,96.43484,0.31827z M55.63522,138.5403c-8.82446,0-16.76719-7.94193-16.76719-16.76717
		c0-8.82447,7.94194-16.76798,16.76718-16.76798s16.76719,7.94193,16.76719,16.76718S64.45969,138.5403,55.63522,138.5403z
		 M86.90531,76.50565H23.81148v-7.88673h63.09383V76.50565z M86.90531,52.84547H23.81148v-7.88673h63.09383V52.84547z
		 M86.90531,29.18528H23.81148v-7.88673h63.09383V29.18528z"/>
</g>
</svg>
