<?xml version="1.0" encoding="UTF-8"?><svg width="576" height="576" version="1.1" viewBox="0 0 576 576" xmlns="http://www.w3.org/2000/svg" xmlns:xlink="http://www.w3.org/1999/xlink"><!--Generated by IJSVG (https://github.com/curthard89/IJSVG)--><g transform="scale(24)"><g fill="none" fill-rule="evenodd" stroke="none" stroke-width="1"><path d="M0,0h24v24h-24Z"></path><g transform="translate(2, 2)"><g fill="#6F6F6F" fill-rule="evenodd" stroke="none" stroke-width="1"><path d="M10,0c-5.523,0 -10,4.477 -10,10c0,5.522 4.477,10 10,10c5.522,0 10,-4.478 10,-10c0,-5.523 -4.478,-10 -10,-10m0,2c4.411,0 8,3.589 8,8c0,4.411 -3.589,8 -8,8c-4.411,0 -8,-3.589 -8,-8c0,-4.411 3.589,-8 8,-8"></path><path d="M0.666,3.865c-0.178,0 -0.345,-0.069 -0.471,-0.195c-0.126,-0.126 -0.195,-0.294 -0.195,-0.472c0,-0.178 0.07,-0.345 0.196,-0.47l0.762,-0.763l-0.763,-0.764c-0.126,-0.126 -0.195,-0.293 -0.195,-0.471c0,-0.178 0.07,-0.345 0.196,-0.47c0.124,-0.125 0.291,-0.195 0.469,-0.195c0.181,0.032 0.345,0.069 0.472,0.195l0.763,0.763l0.764,-0.763c0.259,-0.259 0.681,-0.26 0.941,0c0.26,0.26 0.26,0.682 0,0.941l-0.763,0.764l0.763,0.763c0.26,0.26 0.26,0.682 0,0.942c-0.251,0.251 -0.689,0.252 -0.941,0l-0.764,-0.763l-0.763,0.763c-0.125,0.125 -0.292,0.195 -0.47,0.195h-0.001Z" transform="translate(4.812, 6.5603)"></path><path d="M2.906,1.956l0.764,-0.763c0.258,-0.259 0.258,-0.681 0,-0.941c-0.251,-0.252 -0.69,-0.251 -0.943,-0.001l-0.762,0.764l-0.764,-0.763c-0.251,-0.252 -0.69,-0.251 -0.942,-0.001c-0.259,0.259 -0.259,0.682 0,0.942l0.763,0.763l-0.763,0.764c-0.259,0.258 -0.259,0.681 0.001,0.942c0.251,0.251 0.69,0.25 0.94,-0.001l0.765,-0.763l0.762,0.763c0.126,0.126 0.293,0.195 0.471,0.195c0.179,0 0.346,-0.069 0.472,-0.195c0.258,-0.259 0.258,-0.681 0,-0.941l-0.764,-0.764Z" transform="translate(11.3235, 6.5689)"></path><path d="M8.75,1.5h-8c-0.414,0 -0.75,-0.336 -0.75,-0.75c0,-0.414 0.336,-0.75 0.75,-0.75h8c0.414,0 0.75,0.336 0.75,0.75c0,0.414 -0.336,0.75 -0.75,0.75" transform="translate(5.25, 12.4127)"></path></g></g></g></g></svg>