<?xml version="1.0" encoding="UTF-8"?><svg width="576" height="576" version="1.1" viewBox="0 0 576 576" xmlns="http://www.w3.org/2000/svg" xmlns:xlink="http://www.w3.org/1999/xlink"><!--Generated by IJSVG (https://github.com/curthard89/IJSVG)--><g transform="scale(24)"><g fill="none"><use fill="none" xlink:href="#path-1"></use><g fill="none"><use xlink:href="#path-1"></use><path fill="#6F6F6F" d="M9,16h2v-2h-2v2Zm1,-16c-5.52,0 -10,4.48 -10,10c0,5.52 4.48,10 10,10c5.52,0 10,-4.48 10,-10c0,-5.52 -4.48,-10 -10,-10Zm0,18c-4.41,0 -8,-3.59 -8,-8c0,-4.41 3.59,-8 8,-8c4.41,0 8,3.59 8,8c0,4.41 -3.59,8 -8,8Zm0,-14c-2.21,0 -4,1.79 -4,4h2c0,-1.1 0.9,-2 2,-2c1.1,0 2,0.9 2,2c0,2 -3,1.75 -3,5h2c0,-2.25 3,-2.5 3,-5c0,-2.21 -1.79,-4 -4,-4Z" transform="translate(2, 2)"></path></g><use xlink:href="#path-1"></use></g></g><defs><path id="path-1" d="M0,0h24v24h-24Z"></path></defs></svg>